<?xml version="1.0" encoding="UTF-8" standalone="no"?>
<!DOCTYPE svg PUBLIC "-//W3C//DTD SVG 1.1//EN" "http://www.w3.org/Graphics/SVG/1.1/DTD/svg11.dtd">
<svg width="100%" height="100%" viewBox="0 0 900 600" version="1.1" xmlns="http://www.w3.org/2000/svg" xmlns:xlink="http://www.w3.org/1999/xlink" xml:space="preserve" xmlns:serif="http://www.serif.com/" style="fill-rule:evenodd;clip-rule:evenodd;stroke-linejoin:round;stroke-miterlimit:2;">
    <g>
        <path d="M265.88,543.25C263.77,541.99 256.94,541.83 250.23,538.3C246.47,532.14 248.94,535.46 242.05,527.39C231.11,514.57 235.55,518.93 229.32,522.54C222.78,508.15 228.14,461.46 228.51,455.07C229.44,439.06 223.61,428.7 225.18,425.58C229.93,419.56 227.7,414.81 227.7,413.06C227.7,405.85 233.14,414.99 245.07,401.14C242.5,371.64 242.74,367.75 243.26,369.04C243.23,368.84 243.19,368.64 243.15,368.42C239.98,349.63 241.94,351.2 241.03,348.12C241,348.02 238.61,339.05 239.11,338.02C240.68,334.78 245.7,315.62 240.12,330.95C239.72,331.86 239.11,332.57 237.8,332.67C237.15,328.75 240.1,325.99 240.43,323.38C240.73,320.99 240.78,317.68 241.14,315.2C245.53,316.46 241.08,322.25 245.18,327.12C244.88,330.25 243.98,332.79 242.15,335C240.34,337.19 239.54,343.7 242.15,346.11C242.76,346.01 243.26,345.81 243.87,345.81C244.48,345.81 245.18,346.02 245.89,345.91C252.68,344.86 261.76,319.36 258.21,312.58C255.67,307.73 259.56,305.88 249.83,286.42C253.43,265.25 245.01,262.25 245.28,247.03C245.94,210.4 246.57,209.8 237.71,194.81C236.68,193.07 235.58,174.18 234.78,166.83C234.03,159.91 235.29,157.62 237.3,150.37C240.28,139.64 236.09,121.99 232.35,118.25C222.53,108.43 223.52,112.72 208.72,106.03C204.71,104.22 205.65,103.02 202.56,100.17C194.6,92.84 195.14,95.9 196.8,86.64C197.18,84.51 199.17,84.57 199.63,84.42C204.14,83.23 202.48,79.57 206.2,72.81C207.55,70.35 208.06,64.94 208.22,61.9C208.51,56.3 210.94,56.37 210.44,51.9C209.69,45.17 209.39,44.82 208.32,44.53C208.32,50.91 208.43,53.79 207.01,56.55C206,58.51 208.43,63.05 202.06,79.58C199.7,85.69 194.25,82.65 185.6,83.52C188.02,87.15 191.61,84.82 194.08,85.94C195.14,88.06 189.99,104.92 192.46,105.23C194.08,102.81 194.18,99.68 195.69,96.85C202.61,104.23 203.73,103.29 208.21,136.24C208.78,140.43 201.96,143.91 198.01,145.33C176.75,136.83 163.15,124.22 155.39,109.88C153.66,106.69 146.6,92.62 146.6,89.38C164.31,78.75 156.68,80.78 161.25,62.51C162.22,58.62 161.17,58.02 161.55,56.85C163.55,55.18 162.56,54.86 160.24,54.53C159.84,53.72 159.43,52.91 159.03,52.21C160.04,51.6 161.35,52.41 162.06,51.1C161.96,49.25 162.25,47.32 163.08,45.57C164.18,47.28 164.89,49.09 164.79,51.1C166.58,51.25 166.38,50.04 170.04,40.5C172.09,35.15 173.44,36.3 175.7,30.2C178.29,25.03 180.04,29.98 180.04,26.56C180.85,25.75 182.57,26.36 182.87,24.54C180.61,20.4 182.26,21.82 177.52,20.1C177.52,20.45 177.35,20.78 176.9,20.73C177.88,19.99 177.78,18.31 178.93,19.3C182.83,21.43 183.08,20.83 184.69,24.05C186,23.54 184.79,22.43 185.3,22.03C189.56,21.18 187.62,20.87 193.18,21.73C195.83,21.73 193.14,21 198.84,22.13C204.44,23.24 204.9,20.42 206.52,21.62C207.33,25.96 206.72,30.71 209.65,34.55C209.35,35.56 209.04,36.47 208.84,37.18C202.11,40.01 198.5,40.99 200.56,48.19C201.17,47.08 200.66,45.56 201.87,44.66C204.29,45.57 206.41,44.36 208.64,43.75C212.56,28.71 210.33,42.77 208.24,20.42C210.26,17.09 214,16.38 216.52,13.75C216.42,13.24 216.22,12.74 216.12,12.13C216.12,10.39 218.97,9.5 211.62,9.5C212.03,8.43 213.17,8.71 214.91,6.98C216.25,5.64 213.53,4 210.37,6.37C210.07,6.57 209.76,7.18 209.16,6.57C209.86,-5.28 207.79,2.39 203.06,3.48C204.47,2.07 202.32,1.37 201.08,1.72C198.25,2.33 195.42,3.13 192.49,3.84C191.85,3 190.94,2.99 189.93,3C178.98,3.16 177.98,2.47 177.2,4.41C176.73,5.58 175.59,6.48 174.47,5.93C174.07,5.12 175.18,3.61 173.06,3.61C170.74,6.74 167.4,8.26 163.26,8.66C162.11,7.74 159.08,4.57 157,6.24C157,7.96 158.92,8.36 159.32,9.78C158.81,10.59 157.38,10.59 157.5,11.8C157.76,14.37 154.58,15.66 155.28,17.05C155.48,17.25 155.48,17.76 155.28,17.96C154.37,19.17 154.77,20.99 153.26,22C152.41,22.57 152.24,27 151.24,29.17C146.22,40.1 154.17,44.86 152.35,48.76C151.75,50.33 152.46,51.85 153.26,53.51C156.29,59.81 155.26,63.56 156.8,67.65C153.61,81.67 154.11,83.24 150.34,84.62C147.01,85.83 143.82,87.2 141.05,89.67C139.66,90.91 138.32,92.4 136.3,92.7C133.76,92.7 139.83,94.6 119.23,99.37C107.53,102.08 101.61,107.13 97.01,114.92C94.08,119.89 94.02,117.64 92.36,122.09C89.37,130.14 92.09,134.27 89.84,139.36C83.73,153.15 84.21,183.67 86.1,197.54C86.97,203.93 83.9,203.56 84.08,210.77C84.33,220.72 76.75,227.36 83.78,258.54C87.18,273.64 82.94,312.2 82.06,314.8C81.14,317.51 82.36,319.3 83.98,321.47C84.04,323.06 85.39,336.29 86.81,337.02C88.9,338.1 90.41,342.55 93.38,343.48C96.12,344.34 98.03,346.21 99.95,348.13C100.76,348.13 101.78,348.62 103.28,349.65C109.22,353.71 104.37,328.9 103.99,321.67C103.68,319.2 105.33,319.25 106.72,319.45C107.46,324.61 107.09,324.8 108.54,327.53C113.8,337.44 113.88,322.43 109.85,353.69C107.37,372.92 107.35,379.87 107.43,388.84C107.48,395.26 102.07,401.47 105.01,405.71C105.62,405.51 106.12,405.31 106.83,405C115.55,410.15 113.2,408.86 113.5,414.9C113.8,420.97 109.84,422.16 104.41,438.03C103.36,441.09 98.15,447.55 98.35,459.95C99.07,505.13 101.16,478.58 100.27,511.86C99.77,530.34 101.58,530.25 101.58,537.31C101.58,542.61 97.77,547.02 98.55,552.26C94.79,555.34 93.67,555.5 93.6,558.12C93.51,561.7 93.85,570.03 95.52,572.97C98.62,578.44 93.37,585.3 95.62,592.06C95.83,592.95 96.07,592.19 94.1,591.86C94.2,592.57 94.1,593.07 94.4,593.38C101.73,600.93 105.62,600.6 125,599.34C131,598.95 141.71,597.56 142.27,591.56C142.67,587.22 140.81,585.47 139.24,582.17C137.19,577.87 140.1,578.38 137.32,573.99C131.33,564.53 128.11,564.75 127.12,560.36C127.03,559.95 126.61,559.65 126.21,559.15C124.19,565.21 134.77,570.42 137.22,582.88C138.28,588.26 139.34,586.12 139.34,588.74C139.14,592.07 137.92,593.68 134.69,594.7C128.05,596.8 104.31,600.71 96.61,593.39C95.95,592.76 96.18,593.04 96.61,592.99C99.59,589.64 96.75,590.3 98.73,584.41C101.05,577.49 97.25,574.06 95.8,559.67C95.51,556.78 95.7,557.38 100.34,553.81C101.45,553.81 102.59,555.47 103.07,551.69C103.74,541.71 100.51,545.16 113.88,539.27C115.6,540.58 117.31,541.9 119.13,543.31C120.07,541.43 119.27,541.25 122.16,544.42C124.99,547.52 124.02,549.12 124.38,555.63C124.38,558.79 126.6,560.17 126.6,556.13C126.6,537.64 120.97,545.65 120.84,537.24C120.29,501.91 146.15,481.26 142.25,444.93C140.87,432.04 142.52,437.4 145.38,430.08C147.56,424.49 147.32,422.17 148.21,418.16C160.46,417.46 162.54,417.03 164.87,418.26C169.44,416.3 170.29,416.69 170.53,414.42C171.05,409.45 173.91,398.24 176.19,394.83C177.4,398.57 177.4,402.3 179.02,405.74C180.23,405.44 181.25,405.53 182.35,406.14C187.94,409.25 191.85,409.81 193.16,410.68C193.87,414.11 194.47,417.55 198.01,420.07C197.01,415.07 194.54,412.27 195.99,411.18C212.78,413.42 211.19,411.95 214.88,412.9C215.08,416.64 215.08,416.64 216.4,418.25C217.07,414.56 216.76,415.22 216.5,412.59C219.63,412.39 222.56,411.58 225.59,411.48C227.03,423.74 221.58,425.03 222.66,430.37C225.85,446.11 226.25,446.7 225.79,451.48C224.23,467.87 220.89,513.9 228.31,528.74C219.86,534.72 221.22,534.54 220.84,532.98C215.11,531.34 213.39,533.13 206.5,529.95C207.35,520.15 208.63,501.54 203.37,491.87C202.22,489.76 187.94,453.62 189.23,448.04C194.68,424.42 197.4,418.23 193.98,419.26C190.85,428.02 187.78,436.96 187.72,446.23C187.7,448.61 186.67,447.46 187.32,451.48C190.91,473.64 191.37,464.85 199.84,490.26C203.42,500.99 205.65,525.48 203.88,528.13C200.51,528.55 201.74,527.48 199.53,530.67C199.53,530.63 199.54,530.28 199.54,527.82C196.88,529.72 197.32,527.34 197.32,542.87C198.09,548.8 194.67,556.1 192.17,561.45C192.82,565.12 198.64,564.79 200.75,565.59C215.37,571.14 221.5,563.06 228.73,564.68C242.77,567.83 237.39,567.81 244.28,568.82C265.12,571.87 294.15,564.57 280.84,548.12C278.07,544.68 273.58,547.85 265.88,543.25ZM205.38,40.37L208.21,40.37C207.51,41.48 207.51,41.48 205.38,40.37ZM214.07,11.08C212.23,13.54 211.88,15.22 211.24,11.38C212.15,10.58 212.96,10.58 214.07,11.08ZM205.79,4.52C206.5,3.81 207.97,5.65 205.28,6.84C204.88,5.73 205.59,5.12 205.79,4.52ZM203.67,18.96C202.77,19.41 203.28,19.32 202.56,18.96C203.01,18.5 203.19,18.72 203.67,18.96ZM198.01,16.84C198.14,17.09 198.17,17.04 197.91,17.04L198.01,16.84ZM195.99,8.25C195.34,8.57 195.38,8.45 195.18,8.25C195.83,7.93 195.79,8.06 195.99,8.25ZM194.38,11.79C194.88,11.29 195.26,11.76 195.49,11.99C195.09,12.09 194.78,12.29 194.48,12.39C194.48,12.19 194.27,11.89 194.38,11.79ZM196.4,18.25C194.78,18.55 193.47,18.05 192.76,16.53C193.97,17.04 195.18,17.65 196.4,18.25ZM188.52,16.33C189.34,14.2 189.67,15.75 190.54,16.33L188.52,16.33ZM191.04,14.41C191.09,14.31 192.07,13.05 191.44,14.91C190.95,14.92 190.94,14.52 191.04,14.41ZM190.74,7.44C189.83,8.75 188.72,9.56 187.31,10.37C187.81,7.04 187.81,7.04 190.74,7.44ZM183.67,9.87C183.67,9.97 183.77,10.07 183.77,10.17C183.77,10.27 183.67,10.37 183.67,10.47C183.67,10.37 183.57,10.27 183.57,10.17C183.57,10.07 183.67,9.97 183.67,9.87ZM181.85,5.42C182.51,6.08 181.65,6.13 181.65,6.03C181.45,5.93 181.45,5.73 181.35,5.52C181.55,5.53 181.75,5.32 181.85,5.42ZM152.66,30.98C152.66,30.74 152.86,30.18 152.86,30.78C152.76,30.78 152.76,30.88 152.66,30.98ZM160.34,50.07C159.9,49.2 159.71,49.48 160.54,49.06C160.54,49.16 160.64,49.36 160.74,49.57C160.64,49.66 160.44,49.86 160.34,50.07ZM159.73,41.99C159.13,40.3 162.43,39 163.03,45.26C161.49,44.64 160.29,43.56 159.73,41.99ZM160.54,30.37C161.17,31.42 160.36,31.08 159.93,34.91C159.12,33.04 158.49,30.37 160.54,30.37ZM162.46,31.58C162.56,31.38 162.66,31.07 162.66,31.28C162.76,31.18 162.56,31.38 162.46,31.58ZM169.33,15.52C169.07,15.39 169.08,15.47 169.33,15.22L169.33,15.52ZM175.39,26.33C175.39,27.64 174.38,28.15 173.17,29.46C173.96,24.96 174.1,25.47 175.39,26.33ZM173.77,15.22C173.87,15.73 174.17,16.13 174.17,16.23C173.06,17.74 171.85,19.16 170.23,20.07C168.57,18.96 172.96,15.92 173.77,15.22ZM172.66,8.66C172.05,10.98 170.44,10.58 168.42,10.48C170.24,10.17 170.94,8.45 172.66,8.66ZM168.82,29.46C168.72,29.56 168.72,29.66 168.72,29.76C168.62,29.76 168.52,29.86 168.52,29.86C168.29,29.64 168.5,29.46 168.82,29.46ZM168.52,31.99C169.43,33.51 167.91,33.81 167.31,34.72C166.5,33 166.5,33 168.52,31.99ZM166.7,43.2C167.14,42.33 167.42,43.29 167.31,43.4C166.47,45.07 165.8,44.1 166.7,43.2ZM165.69,47.54C165.2,46.55 165.36,47.08 165.69,46.43C166.19,47.42 166.02,46.89 165.69,47.54ZM163.67,33.5C164.07,31.58 164.07,31.58 165.89,31.78C164.98,32.49 164.38,33 163.67,33.5ZM162.96,8.76C163.7,9.5 163.67,9.47 163.26,9.87C162.3,9.23 162.51,9.21 162.96,8.76ZM158.52,16.13C157.77,15.01 157.28,15.17 159.83,14.21C162.6,17.38 161.92,16.38 164.98,15.83C165.69,17.04 164.98,17.75 164.27,18.36C160.84,16.95 160.84,16.95 157.1,18.97C157.21,17.85 157.31,17.75 158.52,16.13ZM153.98,41.38C153.88,41.38 153.56,41.3 153.78,41.08C154.2,41.08 153.98,41.28 153.98,41.38ZM156.4,43.91C157.71,43.91 158.22,44.92 158.93,45.93C157.72,47.55 157.72,47.55 157.52,49.16C154.78,46.83 154.58,45.93 156.4,43.91ZM156.5,53.5C156.95,53.05 156.59,53.14 157.31,53.5C157.11,53.9 157.17,53.83 156.5,53.5ZM239.62,318.73C239.14,320.87 240.25,322.54 238.31,324.49C235.77,324.49 237.37,312.41 228.51,283.08C226.53,276.52 226.5,279.96 224.27,276.31C217.51,265.28 218.93,262.65 218.21,258.33C213.72,255.34 218.13,252.12 218.51,248.84C218.64,247.73 218.61,246.72 218.71,245.61C219.62,245.41 219.72,246.01 219.92,246.52C229.1,269.58 235.22,279.21 235.98,284.09C239.49,306.75 235.36,301.82 239.01,313.08C239.64,314.98 239.93,316.81 239.62,318.73ZM236.8,326.3C236.8,325.33 236.73,325.49 237,325.49C237,326.76 237.05,326.3 236.8,326.3ZM216.29,267.22C216.09,266.92 215.68,266.71 215.68,266.51C215.32,260.44 215.75,261.07 216.49,260.15C217.15,267.33 217.22,266.29 216.29,267.22ZM243.76,343.57C240.02,339.58 244.57,338.59 246.79,328.42C247.8,328.82 248.61,329.23 249.52,329.63C249.17,331.59 247.56,338.19 246.59,338.82C244.82,339.99 245.12,341.53 243.76,343.57ZM144.89,90.47C146.47,93.31 148.56,101.35 154.18,111.98C163.15,128.94 181.19,145.96 199.93,147.13C203.16,145.01 206.39,142.89 209.42,140.87C211.14,136.41 210.77,119.82 204.37,105.42C205.12,104.55 205.47,105.56 207.1,106.53C216.8,111.24 236.58,151.16 231.34,137.64C225.53,122.66 219.21,115.91 216.59,111.99C229.27,113.57 237.55,130.07 235.98,141.08C235.58,138.86 235.37,136.54 234.97,134.21C233.71,128.74 232.75,130.34 232.75,129.67C231.81,130.61 234.95,129.12 234.27,149.87C233.97,159 223.77,173.28 223.77,177.85C229.4,176.37 233.07,159.38 233.26,168.66C233.5,180.54 233.18,184.51 234.57,189.77C235.74,194.17 233.76,194.16 233.76,201.49C236.19,198.66 235.55,194.41 237.3,197.25C245.3,210.31 243.83,222.15 243.66,246.34C243.57,259.35 247.99,262.44 247.7,272.09C247.04,293.79 253.3,293.28 253.96,301.08C255.03,313.66 261.31,315.5 253.86,331.38C249.06,341.63 254.34,335.75 246.79,343.8C246.08,342.49 246.08,341.27 246.89,340.37C249.77,337.14 249.4,334.08 250.83,330.88C254.47,322.7 250.41,322.38 253.96,321.79C253.13,320.55 252.13,320.68 252.34,318.66C252.49,317.21 252.95,316.31 252.95,314.42C252.95,302.1 253.77,303.5 250.32,308.66C250.12,311.08 251.73,313.2 251.13,315.73C249.04,324.49 254.16,327.16 245.78,323.81C245.78,312.6 246.96,315.53 239.11,305.83L239.11,296.94C240.83,295.42 241.84,293.51 242.24,290.88C240.42,290.99 239.41,296.11 239.41,291.39C239.41,287.77 238.9,290.06 238,283.31C238.46,283.08 239.72,282.36 240.12,282.2C239.1,275.57 236.74,270.89 236.28,279.07C234.6,273.56 219.11,241 219.31,235.44C219.82,221.37 224.63,214.03 223.55,188.07C222.84,170.99 221.37,179.23 221.93,193.22C222.11,197.68 214.72,257.71 214.96,259.27C205.11,263.5 210.03,267.07 167.49,259.98C166.73,259.98 167.93,257.66 163.15,247.96C160.72,243.04 162.08,250.34 165.78,259.17C164.25,260.09 163.23,258.83 147.9,255.33C142.54,254.11 136.49,253.28 134.47,252.7C134.17,249.87 133.16,247.35 133.76,244.52C133.76,244.12 133.76,243.71 133.66,243.41C132.95,241.33 133.35,230.99 133.05,223.01C132.64,212.06 130.83,210.67 131.13,207.76C131.51,204.05 130.02,201.38 125.68,191.7C124.68,189.47 125.77,189.41 128.31,182.31C129.46,179.1 126.97,179.65 129.22,175.14C130.14,172.83 130.29,171.52 130.63,163.22C136.65,157.91 144.62,154.63 146.49,142.31C147.48,135.79 148.06,113.29 138.21,95.55C139.94,93.19 142.66,92.39 144.89,90.47ZM211.85,268.02C211.04,265.7 211.04,265.7 212.25,264.08C213.16,266.41 213.06,267.11 211.85,268.02ZM210.13,265.3C210.13,272.07 207.45,267.61 208.92,265.5C209.02,265.3 209.53,265.4 210.13,265.3ZM127.31,258.43C125.38,259.17 125.68,259.79 122.97,265.3C114.83,281.84 121.93,265.93 114.79,305.19C109.44,300.95 107.21,295.09 104.99,288.83C106.18,283.74 105.45,279.67 106.81,260.55C106.97,258.34 109.26,250.9 110.95,243.89C112.3,238.3 110.45,236.86 110.45,232.28C110.45,228.04 109.94,223.9 109.34,219.45C113.82,212.21 108.7,213.2 120.15,197.94C121.67,195.66 122.75,198.6 123.08,193.4C123.08,193.3 123.28,193.2 123.79,192.69C125.2,196.22 127.15,199.16 127.53,202.79C127.8,205.34 129.4,205.2 129.35,210.67C129.08,240.63 128.84,214.75 128.84,238.95C128.84,243.41 132.05,244.75 131.16,247.94C128.09,250.11 128.93,248.7 127.31,258.43ZM131.76,250.55C133.27,251.56 133.17,253.18 133.68,254.39C134.08,254.79 134.79,255.1 134.99,255.5C135.38,256.77 135.12,262.18 133.88,261.56C132.67,261.05 131.46,260.55 130.24,260.15C129.13,256.61 131.96,253.88 131.76,250.55ZM135.29,156.62C134.08,158.14 132.97,159.55 131.15,160.15C130.42,149.27 129.17,148.75 135.29,156.62ZM87.21,328.72C87.61,330.42 88.62,331.26 88.62,333.16C88.63,332.65 86.94,333.08 87.21,328.72ZM111.76,327.92C106.39,322.8 111.33,320 106.21,311.26C105.6,311.36 105.91,311.87 105.81,312.27C105.81,315.87 109,314.8 105.81,316.71C105.27,315.9 105.33,316.65 105.71,313.28C102.61,317.62 103.56,324.07 103.29,324.89C102.08,329.43 102.67,333.88 104.2,338.22C105.2,341.05 104.71,343.77 104.71,347.11C99.37,337.43 100.04,339.29 98.95,334.69C96.65,324.96 97.62,321.57 93.9,318.73C92.68,319.95 95.34,320.49 95.62,325.8C96.01,333.14 96.73,331.85 100.77,343.47C101.35,344.05 100.77,345.44 100.77,343.47C95.31,343.47 93.07,325.61 92.19,322.06C92.04,321.6 90.47,321.05 90.47,322.16C91.21,331 93.12,333.85 94.71,338.62C93.8,338.82 93.5,338.32 93.2,337.81C89.02,330.81 89.51,330.3 87.85,321.55C85.84,321.55 85.76,322.6 84.01,316.3C83.79,315.19 84.46,314.19 85.73,309.63C86.72,312.1 87.73,310.14 87.04,309.43C83.84,306.12 89.27,303.27 87.04,275.49C86.4,267.56 87.88,267.17 85.22,255.19C84.86,253.58 79.8,234.31 83.81,232.36C84.62,231.97 83.64,225.35 85.73,217.82C87.21,217.19 87.29,220.46 88.36,220.85C90.24,220.31 85.69,210.98 87.15,206.71C93.2,189.01 87.23,176.09 88.26,166.31C93.51,167.62 87.23,166.82 88.77,154.29C90.32,141.6 90.64,139.78 92.61,138.23C94.8,136.5 93.17,126.72 95.84,122.27C101.92,112.14 105.37,101.33 127.45,98.84C130.93,98.45 132.98,97.62 136.24,96.31C141.37,101.84 148.47,134.91 141.29,151.66C137.96,153.51 138.84,155.02 133.72,148.43C128.77,141 130.4,152.44 127.66,142.17C125.84,141.26 126.95,146.98 127.96,148.74C130.42,153 125.16,183.28 123.52,186.01C118,195.21 116.33,199.58 115.44,199.95C112.92,201 110.44,209.79 109.89,212.47C108.64,218.53 108.31,213.45 106.76,213.78C106.76,217.83 107.39,223.32 107.57,223.68C108.98,225.9 108.68,228.53 109.19,230.95C110.69,238.11 107.64,244.87 105.45,255.19C104.46,259.88 105.05,263.51 105.05,266.91C105.05,284.74 99.39,290.83 114.04,308.62C114.44,311.79 113.22,315.8 115.66,322.36C116.76,325.34 118.59,330.07 115.66,329.73C114.08,329.56 112.84,328.95 111.76,327.92ZM144.48,419.12C139.63,437.16 139.16,432.97 140.84,458.11C141.33,465.38 137.06,467.82 132.15,486.79C131.43,489.58 128.15,495.81 126.9,498.61C122.97,507.4 123.79,509.52 121.04,519.21C117.22,532.69 120.95,542.67 115.99,536.88C111.47,533.33 105.28,541.35 105.28,536.68C105.28,529.43 104.25,533.16 103.56,526.88C101.95,512.11 104.83,505.33 103.05,494.66C102.5,491.33 101.34,471.14 101.33,471.03C97.35,451.1 108.9,432.05 114.46,421.34C119.72,411.21 109.28,405.97 124.26,413.16C123.25,415.89 121.23,418.31 122.24,421.64C124.16,420.36 122.98,421.86 127.09,414.67C128.47,413.81 133.08,416.58 142.04,417.2C144.97,417.56 144.81,417.9 144.48,419.12ZM197,408.11C197.2,404.88 197.4,401.85 197.61,398.62C210.41,397.2 219.99,394.94 198.12,397.51C197.21,395.49 197.21,395.49 197.31,392.16C202.06,388.84 213.34,381.24 214.28,375.6C209.13,381.76 203.57,386.1 197.31,390.04C195.39,387.35 196.18,386.24 194.82,385.66C196.02,392.25 196.82,390.16 191.25,393.98C194.68,395.78 197.82,386.47 196.3,407.31C195.61,408.1 195.48,408.19 185.8,404.68C179.69,402.47 180.7,402.54 180.14,399.83C178.26,390.74 177.48,389.55 178.63,386.5C180.52,381.49 180.63,378.09 173.98,394.07C168.98,406.1 170.56,407.49 168.43,404.67C167.61,403.59 160.79,394.63 159.64,393.86C160.29,397.76 156.8,392.39 163.88,401.84C169.49,408.16 168.51,410.15 167.72,413.25C164.83,415.24 162.96,415.2 151.06,414.87C130.15,414.29 123.37,410.6 106.62,401.64C106.17,395.77 112.04,389.04 109.65,385.78C107.69,382.52 113.98,332.56 113.99,332.45C114.9,332.45 115.7,332.43 116.51,332.35C119.03,332.09 120.36,329.1 118.73,327.3C116.18,324.48 117.69,323.94 116.41,320.84C112.77,312.05 117.02,316.02 117.42,310.64C118.05,302.2 119.77,262.92 128.02,264.99C128.83,264.08 126.71,262.57 128.83,261.76C129.03,261.76 129.14,261.75 129.21,261.74C129.12,261.93 130.74,263.26 158.02,270.64C162.51,271.86 163.21,271.02 161.45,270.54C133.45,262.84 137.46,263.27 135.29,262.46C135.66,254.3 134.72,255.37 138.42,256.3C139.33,258.12 138.52,260.04 139.13,261.85C140.24,260.23 139.03,258.42 140.24,256.8C151.85,258.62 163.17,262.05 174.88,264.48C174.98,266.6 175.08,268.72 175.18,270.84C174.37,271.45 173.46,271.45 172.35,270.84C173.49,260.58 170.64,266.71 171.74,271.55C174.52,271.93 173.48,272.71 184.57,273.27C186.15,273.35 194.13,273.53 188.61,272.87C174.45,271.17 176.29,272.72 176.29,265.19C178.86,264.82 175.88,264.59 191.34,267.11C192.55,268.42 191.24,270.44 193.06,271.76C193.87,270.35 193.16,268.83 193.77,267.32C197.52,266.38 194.48,270.39 196.9,272.17C197.51,270.55 196.9,268.94 197.41,267.42C197.64,267.34 206.44,266.21 207.11,266.21C208.16,271.44 205.03,269.09 203.17,271.97C213.73,270.46 211.01,268.82 214.07,270.86C214.27,269.65 214.88,268.94 216.39,269.04C217.59,269.88 221.45,277.02 223.76,280.65C230.31,290.95 226.94,297.59 233.86,315.8C232.61,329.58 234.12,333.19 239.92,367.21C241.16,374.48 240.2,382.63 241.54,400.84C241.54,402.7 241.96,402.11 239.42,403.57C226.19,411.12 210.01,409.48 197,408.11ZM208.82,533.55C219.39,536.69 223.96,530.92 219.02,536.68C209.75,538.9 212.81,539.74 208.42,533.75C208.62,533.65 208.72,533.55 208.82,533.55ZM199.52,530.64C199.52,530.63 199.52,530.64 199.52,530.64ZM237.5,563.75C230.32,560.81 224.99,563.81 208.72,563.65C202.49,563.59 199.15,561.46 195.39,560.12C195.39,556.75 197.06,564.7 200.04,536.39C199.76,534.91 198.66,533.17 199.33,531.17C199.32,531.8 199.34,532.38 200.24,532.65C201.35,532.04 200.95,530.53 202.16,529.72C206.12,531.04 202.19,530.71 204.79,534.47C206.44,536.86 207.32,536.91 207.32,539.02C207.55,542.25 211.3,540.53 212.98,540.03C216.64,538.68 219.27,538 221.77,536.09C233.42,527.19 232.1,527.27 230.25,525.79C230.86,523.87 232.17,522.56 233.89,521.45C235.61,522.76 236.52,524.58 237.93,526.3C232.97,531.81 230.83,532.89 232.07,536.4C235.24,537.33 236.61,534.59 240.86,530.34C244.08,532.48 235.13,535.42 237.83,539.33C241.11,538.02 242.42,532.97 244.7,534.68C244.35,536.32 241.77,538.12 240.96,539.53C239.73,541.98 240.37,546.42 247.12,538.92C250.33,540.92 249.39,539.29 247.83,543.97C247.51,545.59 249.36,546.48 250.35,545.49C254.49,541.35 250.85,541.55 257.32,543.97C256.81,545.08 256.51,545.99 256.11,546.9C258.13,548.11 258.94,545.89 260.45,545.49C264.69,546.7 269.02,548.07 273.38,549.23C280.44,551.1 277.84,547.25 281.76,558.22C270.83,569.71 246.08,567.26 237.5,563.75Z" style="fill-rule:nonzero;"/>
        <path d="M243.26,369.04C244.5,376.3 243.76,370.29 243.26,369.04Z" style="fill-rule:nonzero;"/>
        <path d="M208.52,262.37L208.32,262.47C208.44,262.43 208.36,262.49 208.52,262.37Z" style="fill-rule:nonzero;"/>
        <path d="M162.56,271.26L162.66,271.16C162.46,271.18 162.39,271.17 162.56,271.26Z" style="fill-rule:nonzero;"/>
        <path d="M194.68,385.59C194.84,385.65 194.82,385.71 194.78,385.49L194.68,385.59Z" style="fill-rule:nonzero;"/>
        <path d="M211.24,396.19L211.14,396.09C211.06,396.21 211.09,396.22 211.24,396.19Z" style="fill-rule:nonzero;"/>
        <path d="M232.15,140.66C231.97,140.4 231.96,140.29 232.05,140.76L232.15,140.66Z" style="fill-rule:nonzero;"/>
        <path d="M818.76,250.95C816.64,253.07 816.64,253.07 812.9,254.18C813.2,252.36 815.12,250.54 812.9,248.93C804.99,249.23 806.33,248.59 799.27,250.45C789.56,253 790.4,246.96 784.73,253.58C779.29,252.28 774.15,257.96 769.88,261.15C766.75,263.5 766.24,261.22 761.7,265.29C758.43,268.22 757.3,267.6 753.06,268.1C756.33,265.26 757.67,264.33 756.04,259.43C765.59,252.69 754.95,256.89 767.86,253.67C773.74,252.2 770.92,243.89 768.77,246.4C770.1,250.4 768.59,253.04 764.23,253.27C775.59,237.64 755.53,251.12 740.09,247.61C733.51,246.12 732.81,245.54 730.09,247C723.47,250.57 704.46,260.04 697.77,258.61C685.35,255.97 684.25,262.75 676.86,262.75C671.58,262.75 666.45,262.35 654.84,265.17C643.11,268.03 647.76,264.18 625.25,266.69C616.33,266.69 625.53,267.44 626.97,261.44C628.77,253.92 631.11,253.88 631.41,248.21C631.73,242.35 631.96,240.11 633.23,237.71C636.12,232.9 630.68,216.3 632.02,233.67C628.36,239.91 632.45,240.25 625.66,260.13C622.95,268.07 610.31,262.23 609.4,265.28C613.04,269.78 623.04,261.56 607.18,274.07C604.25,276.38 585.67,278 585.57,278.01C582.34,273.57 578.3,269.53 573.85,265.69C579.1,260.44 581.82,269.63 583.04,253.47C583.73,244.36 585.68,242.96 584.86,238.02C586.84,235.86 585.82,236.09 583.45,235.5C582.38,232.64 581.85,233.4 585.17,232.57C585.57,230.45 585.88,228.53 586.18,226.51C584.97,225.1 582.95,224.19 583.05,221.76C587.57,220.63 585.38,227.26 588.2,229.15C588.1,230.05 588.1,230.95 588,231.86C591.09,232.1 592.61,220.24 594.77,218.02C599.19,213.49 598.26,209.58 601.03,208.43C604.15,208.43 603.13,209.36 603.56,207.22C604.37,206.71 605.78,207.02 606.08,205.4C603.55,200.75 605.38,201.76 599.41,201.76C602.46,199.47 600.44,198.32 605.87,201.15C608.13,202.33 607.08,202.87 608.4,204.18C609.61,203.67 608.5,202.56 609.11,201.96C619.53,200.29 620.93,203.62 630.42,201.25C630.74,206.42 630.77,211.57 633.35,214.38C632.61,218.08 633.71,216.36 627.39,219.43C623.73,221.2 622.74,224.68 624.66,228.22C624.86,227.01 625.06,225.9 625.27,224.48C628,225.49 630.22,224.28 632.64,223.57C635.98,210.62 634.66,221.3 632.14,200.44C634.06,197.01 638,196.4 640.42,193.67C639.97,190.96 639.97,192.83 640.72,189.83C637.07,188.19 630.4,191.97 638.2,187.41C639.81,186.47 638.85,184.82 637.19,185.19C633.31,186.05 633.92,187.08 633.05,186.71C633.05,177.58 632.25,179.95 629.41,182.47C627.09,184.31 628.1,181.66 625.98,181.86C623.61,182.08 618.89,183.13 616.59,184.28C615.68,183.47 614.87,183.17 613.86,183.27C602.3,183.64 601.59,182.73 600.53,185.39C600.06,186.57 598.31,186.36 598.31,185.69C598.31,180.35 595.57,187.04 589.93,188.32C586.44,189.11 587.62,189.1 584.07,186.2C583.06,186.3 581.95,185.49 580.64,186.6C583.24,190.5 583.95,189.68 581.45,191.35C581.05,192.46 581.55,193.77 580.34,194.58C580.14,194.78 580.34,195.59 580.34,196.2C581.25,195.9 582.16,195.7 583.27,195.29C585.72,198.15 585.41,197.45 588.12,196.91C588.73,198.22 588.22,198.83 587.41,199.43C584.18,198.02 584.18,198.02 580.04,200.24C580.04,197.08 583.46,198.07 580.34,196.2C577.84,196.2 578.53,196.12 579.43,197.92C577.86,199.49 569.86,214.94 575.59,224.89C577.91,228.92 574.25,228.96 576.6,233.07C578.35,235.59 582.22,247.1 577.41,259.94C569.32,262.05 565.33,267.13 561.55,267.41C554.38,267.95 554.07,269.99 549.33,270.34C544.77,270.67 535.89,277.07 532.46,284.68C531.9,285.93 530.74,285.16 529.13,287.31C525.35,291.65 521.79,297.25 521.35,302.96C524.41,298.37 540.2,271.52 543.37,276.8C545.09,276.09 547.01,276 548.42,274.78C558.25,266.23 571.83,271.75 583.67,278.52C581.88,278.91 571.1,280.57 573.77,282.86C583.85,280.7 587.88,278.09 591.65,278.92C596.29,279.94 600.13,277.81 604.07,277.81C608.54,277.81 607.81,275.4 617.3,268.62C630.83,270.55 639.36,266.6 648.51,267.61C655.76,268.41 674.77,263.99 678.41,263.87C681.74,263.76 684.7,262.83 687.7,261.55C692.11,259.66 697.56,260.37 700.32,259.23C701.26,258.76 705.16,261.46 712.44,257.92C714.35,256.99 716.07,255.58 717.99,254.69C720,253.76 722.35,253.3 724.35,252.37C735.06,247.38 731.8,247.56 736.07,248.84C737.89,253.3 750.78,248.34 756.57,249.35C756.76,252.45 751.46,253.53 748.39,253.79C742.11,254.34 742.26,255.47 736.37,255.81C718.57,256.83 738.62,257.35 740.11,258.74C740.11,258.97 743.31,257.86 743.95,257.23C745.57,255.61 747.28,255.71 749.91,255.92C748.09,256.63 746.88,257.03 745.16,257.64C747.54,257.84 745.99,258.22 751.12,257.03C750.44,257.71 752.93,255.47 754.76,255.72C754.76,256.61 754.38,256.43 756.68,256.43C754.88,258.59 747.44,258.83 746.08,259.96C744.05,261.41 743.16,261.21 739.41,262.28C740.51,264.48 740.44,262.53 737.39,268.24C737.19,268.75 736.99,269.45 737.89,269.55C743.66,262.13 743.75,259.94 753.75,260.26C755.45,264.41 752.55,266.31 748.6,267.23C739.86,269.26 744.49,266.91 737.49,272.89C733.07,276.66 717.14,279.81 713.05,275.72C721.27,270.58 709.89,276.41 706.69,275.92C699.16,274.78 694.45,278.79 690.73,280.97C686.17,283.64 642.96,299.55 642.55,300.36C641.69,301.44 642.04,301.88 640.83,301.88C633.24,301.88 629.68,297.56 632.14,302.49C628.72,306.55 619.87,304.29 621.13,307.44C622.85,307.84 624.67,308.25 626.48,308.75C626.99,314 624.97,318.24 622.24,322.28C621.6,323.56 615.67,325.98 612.44,326.42C613.35,321.88 613.15,317.33 611.93,312.89C636.68,293.64 594.43,324.35 569.71,323.49C557.89,323.08 546.04,318.51 544.16,322.28C545.47,323.19 546.28,321.67 547.69,321.67C548.4,322.18 549.21,322.68 549.81,322.98C550.8,329.41 550.6,333.26 554.76,334.39C556.53,333.21 556.87,330.77 556.38,328.53C555.04,319.83 558.65,326.4 566.68,327.32C568.57,327.32 552.95,342.19 537.49,339.24C534.3,338.63 530.47,337.41 525.67,336.21C531.87,341.67 543.05,344.12 554.25,339.14C555.61,339.14 556.57,342.55 556.57,337.93C570.79,327.09 568.78,327.81 571.52,327.53C582.84,326.37 588.05,323.05 593.54,320.06C597.57,328.73 601.65,328.85 607.48,329.65C607.96,333.77 600.84,343.96 611.12,329.45C618.23,327.63 623,323.68 623.95,321.98C628.69,313.43 627.14,311.24 627.79,308.65C629.3,308.08 629.69,308.22 632.74,306.53C635.47,313.36 636.77,336.89 636.58,337.33C634.26,342.83 635.55,340.38 628.3,347.93C617.31,359.38 618.97,361.04 616.08,363.38C609.87,368.42 611.75,373.14 599.62,391.76C597.46,395.07 596.63,397.17 593.76,398.33C582.94,402.67 576.64,413.44 565.38,419.94C564.45,420.48 565.21,422.53 570.23,418.73C585.34,407.31 578.3,406.26 595.88,400.55C598.94,399.56 599.79,398.8 601.94,397.72C603.91,399.69 604.98,396.52 611.33,395.5C611.73,396.01 612.14,396.51 612.54,396.91C631.99,401.4 657.96,386.58 618.7,410.65C617.19,411.79 617.85,411.92 617.99,411.76C647.98,395.4 637.51,397.8 642.53,396.61C644.34,396.18 648.59,396.51 651.01,397.22C649.41,399.35 640.54,407.14 631.52,431.96C628.76,439.56 619.32,446.47 619.5,463.98C619.52,466 618.99,467.92 618.69,469.84C567.03,459.51 565.53,468.14 556.17,460.65C559.16,459.37 568.75,453.57 569.27,452.86C569.55,452.78 569.79,452.57 569.97,452.15C569.32,452.06 568.79,452.03 568.6,452.88C568.69,452.9 568.78,452.9 568.87,452.91C567.78,453.34 564.47,455.04 557.59,458.84C557.09,459.04 556.58,459.55 555.97,459.14C556.27,457.93 556.27,457.93 560.01,455.4C559.03,454.86 555.98,457.3 557.89,453.48C559.01,450.13 561.23,447.5 559.61,442.17C558.9,444.7 559.33,447.33 558.09,449.75C556.9,452.08 556.47,454.8 554.96,457.02C549.23,458.93 549.58,458.97 548.19,460.45C548.81,460.31 553.14,459.11 553.95,458.93C554.46,458.67 554.88,459.72 554.46,460.14C553.58,461.16 548.09,461.05 544.26,461.05C541.88,461.05 543.36,460.21 544.46,457.31C546,453.28 543.94,453.79 543.45,450.54C542.12,441.7 543.47,439.26 542.74,434.89C541.88,431.43 543.14,429.46 544.56,426C549.16,426 550.51,426 557.89,424.99C559.61,427.72 560.04,430.66 560.62,433.57C561.06,435.78 557.59,435.32 561.73,436.7C563.29,434.42 589.22,421.66 588.7,417.18C588.6,417.25 575.12,429.38 562.24,433.67C561.33,430.44 560.52,427.51 559.61,424.48C591.41,417.67 553.54,425.08 545.07,423.87C545.42,418.96 545.74,420.37 549.11,421.35C555.41,423.17 562.09,423.69 565.67,418.82C552.92,419.95 556.81,420.09 546.28,418.11C544.76,414.69 543.05,411.6 542.34,410.43C538.95,404.89 531.89,401.24 528.1,401.24C524.12,401.51 512.17,396.29 507.9,394.68C500.25,391.8 505.73,395.19 501.54,389.93C496.26,383.31 493.51,389.03 511.03,371.25C513.14,369.11 516.38,365.67 516.38,362.67C516.38,356.54 522.1,362.61 525.27,335.7C525.47,334.59 524.65,333.48 524.46,332.27C520.25,305.74 522.77,308.66 521.23,304.8C516.81,312.03 522.94,330.08 522.75,336.21C522.29,350.96 515.84,357.58 515.07,360.15C512.1,370.16 499.12,372 496.59,383.99C496.38,385 494.87,384.8 494.97,386.11C494.97,386.92 496.18,387.32 495.68,388.13C490.57,392.51 493.89,391.86 503.86,394.8C520.36,399.65 514.65,398.84 502.85,398.84C503.8,395.06 495.14,395.35 490.02,393.49C490.04,393.46 494.06,386.39 494.16,386.22C491.2,386.22 494.69,385.45 484.77,393.39C485.54,395.44 485.69,395.53 486.39,395.51C490.48,395.41 493.15,396.49 500.53,397.83C482.87,403.05 477.36,406.05 481.74,404.9C498.05,400.64 499.48,399.49 501.43,399.65C517.44,400.91 514.31,400.48 504.46,402.17C508.64,403.8 518.86,400.55 520.32,402.98C519.2,403.68 501.45,402.96 494.06,416.82C491.26,422.08 491.33,425.04 490.73,431.36C490,439.05 492.64,442.31 495.38,446.41C492.27,452.63 493.11,452.96 489.22,447.32C485.62,442.1 486.08,441.42 484.78,437.52C483.46,441.16 485.32,446.56 487.2,449.64C491.79,457.16 491.76,451.75 491.14,456.61C489.94,466.09 491.2,466.24 483.57,462.57C475.16,458.53 467.71,450.28 467.71,439.74C467.71,406.02 476.18,408.01 477.71,405.3C478.22,404.39 478.22,403.28 477.41,402.27C477.01,402.17 476.5,402.17 476.1,402.07C479.62,395.03 483.08,399.45 485.9,395.61C484.52,395.3 482.95,394.45 481.46,394.7C477.61,395.35 472.43,400.13 474.59,405C473.73,405.94 469.49,409.14 468.43,417.32C467.49,424.59 462.84,433.05 466.41,447.72C467.4,453.03 473.4,455.68 475.7,460.14C484.93,468.14 487.13,465.47 489.33,468.12C489.33,495.15 499.84,510.61 497.31,536.19C496.21,547.33 498.69,548.68 494.79,551.44C491.35,553.87 492.27,560.01 493.38,574.37C490.28,576.7 490.05,585.74 490.05,589.62C490.05,590.6 492.21,594.02 495.6,594.67C500.42,595.59 501.97,597.24 505.5,597.5C518.54,598.47 542.53,593.32 534.49,593.16C515.71,592.78 520.51,597.68 497.52,593.16C494.8,592.62 492.98,591.34 491.16,589.22C493.87,580.64 496.23,579.57 495.5,573.26C492.43,546.59 493.95,557.84 498.93,552.66C501.74,549.73 500.2,546.06 502.06,541.65C512.56,538.42 512.16,537.51 515.09,538.22C516.4,540.64 516.5,543.98 519.63,545.19C521.68,550.53 520.51,553.68 522.16,556.5C525.42,563.02 526.05,562.74 526.81,564.98C529.04,571.56 532.96,572.9 533.38,576.7C533.97,582.13 535.2,581.61 535.2,586.5C535.2,593.52 539.38,595.51 538.53,588.82C537.96,584.33 539.36,586.91 537.52,583.06C536.47,580.86 534.65,578.8 535.5,576.09C536.08,574.25 525.88,558.94 525.8,558.82C521.74,552.81 525.65,555.65 522.06,544.88C521.25,544.27 520.44,543.67 519.54,542.96C519.54,515.55 522.82,513.4 533.17,490.84C538.82,478.53 535.43,469.69 541.05,464.08C558.49,461.53 559.42,465.19 561.35,465.19C568.82,465.8 576.19,467.49 583.77,467.82C586.9,467.95 589.93,468.13 593.06,468.53C628.22,473.02 620.02,475.08 634.07,459.04C635.29,460.87 632.03,463.82 629.83,476.01C628.62,482.69 628.74,484.41 628.53,486.04C632.09,470.56 631.36,466.02 636.19,457.93C647.14,439.62 668.38,433.82 659.22,436.11C655.79,437.22 652.65,438.9 649.12,439.75C647.96,440.03 645.74,440.29 644.98,440.86C640.03,444.61 624.33,451.26 622.86,451.26C622.35,450.65 622.76,450.25 622.86,449.85C625.76,441.33 631.54,435.44 633.06,433.49C633.45,432.9 639.8,415.63 647.6,404.81C653.26,396.95 651.22,395.09 678.71,403.3C680.89,403.95 682.21,407.04 688.81,411.78C690.8,413.21 693.1,417.14 691.74,419.66C691.54,420.17 691.04,420.77 691.03,421.28C690.84,436.36 673.16,467.79 670.53,470.47C660.12,481.07 641.63,506.51 637.3,520.67C636.79,522.35 634.87,522.29 634.17,524.81C633.13,528.53 630,529.68 624.17,533.29C600.71,525.82 616.27,530.75 625.58,497.54C626.53,494.15 627.3,491.15 627.96,488.45C627.81,488.91 627.63,489.44 627.4,490.07C625.84,494.35 617.93,517.95 610.33,527.44C608.79,526.56 607.56,525.76 606.59,526.73C605.71,527.61 610.66,541.49 616.29,539.56C616.39,539.53 629.16,539.21 628.71,533.8C632.55,531.58 636.39,529.46 637.5,524.81C638.61,524.3 639.82,524.4 640.53,523.09C641.13,521.98 642.25,522.18 643.26,522.69C646.12,528.77 646.63,529.64 644.98,531.58C643.23,533.64 640.09,537.23 641.44,539.56C645.7,539.26 645.66,532.46 648.11,535.72C645.95,538.1 644.11,539.46 644.58,541.78C645.03,544.01 647.35,542.87 648.92,541.48C653.5,537.42 651.16,537.05 653.87,538.85C653.48,539.54 652.15,541.08 651.95,542.28C651.95,543.42 652.53,544.37 653.97,543.79C656,542.98 656.97,539.8 658.21,541.67C656.32,547.34 658.42,547.93 661.54,544.8C663.17,543.82 662.44,542.91 664.67,544.7C662.85,547.61 663.46,546.63 663.46,547.93C666.71,548.1 665.35,544.16 669.82,546.92C674.41,549.75 674.59,548.23 676.18,548.23C678.71,548.43 681.23,548.74 683.65,548.94C685.37,551.46 687.89,557.52 688.9,561.16C676.97,568.45 685.01,563.87 665.77,565.7C658.26,566.42 638.06,568.78 633.96,562.37C626.09,561.58 630.11,565.84 607.7,565.5C602.2,565.42 599.92,563.1 595.98,559.95C595.98,559.04 596.72,557.82 597.29,557.12C599.29,554.7 598.89,552.02 600.52,543.99C601.23,540.49 604.27,537.54 602.64,531.87C601.57,528.14 605.78,527.29 605.67,526.11C605.24,525.97 604.74,525.68 603.95,526.21C598.55,529.14 602.06,533.3 600.21,538.84C599.22,542.81 597.01,547.65 596.78,552.37C596.67,554.59 594.96,556.41 594.76,558.73C594.76,558.93 594.46,559.03 594.36,559.24C591.44,564.02 601.82,571.97 628.6,566.61C629.5,566.61 628.91,565.3 633.35,565.3C648.07,572.66 660.16,570.86 679.1,567.62C684.09,566.77 685.83,565.24 691.62,561.76C693.66,558.09 690.41,553.53 687.68,550.35C684.47,546.61 685.42,547.05 677.38,546.71C673.65,546.24 672.62,547.16 669.5,544.79C664.79,541.21 661.16,540.06 654.75,536.51C643.43,530.23 649.81,523.15 641.52,519.95C645.51,504.48 672.35,474.5 672.43,474.4C685.6,456.1 684.9,447.2 687.07,444.3C696.63,431.56 690.97,429.55 694.14,422.28C696.24,417.48 692.74,412.45 692.22,411.37C689.64,406 684.85,403.09 679.9,400.77C679.09,401.07 678.59,401.28 678.08,401.48C673.18,398.68 666.34,396.4 660.1,396.73C656.64,396.73 656.28,394.67 655.25,395.01C653.15,395.71 647.39,393.06 641.41,393.49C617.62,395.23 620.32,398.22 614.75,394.5C612.57,392.48 610.55,393.63 606.27,395.41C605.16,394.86 606.56,391.86 603.44,393.59C598.55,396.91 613.24,381.8 613.14,373.19C613.1,369.6 621.32,362.12 631.22,350.16C632.17,349.01 647.77,326.23 651.62,322.39C653.74,323.1 655.66,324.1 657.58,324.31C663.94,325 670.33,324.77 676.26,322.09C692.79,314.63 694.11,313.53 698.68,310.07C703.94,306.09 712.44,307.45 712.61,303.62C729.25,305.01 740.91,292.69 746.56,291.29C752.5,289.81 757.01,286.35 759.18,285.23C775.52,276.8 773.3,282.52 779.78,277.66C785.08,273.68 781.81,274.87 786.65,274.93C793.98,275.02 795.54,270.18 797.56,268.16C806.57,257.64 817.56,257.47 817.56,255.33C817.64,253.87 820.25,252.44 818.76,250.95ZM628.07,222.07C628.69,220.96 630.29,221.46 630.29,221.87C629.68,222.47 630.16,222.77 628.07,222.07ZM636.45,191.77C635.94,193.08 635.54,194.09 634.03,195.1C633.47,191.78 632.46,192.1 636.45,191.77ZM628.27,185.1C629.38,186.51 629.38,186.51 627.46,187.62C627.66,186.82 627.97,186.01 628.27,185.1ZM625.24,199.85C626.01,199.85 625.56,200.36 625.44,200.36C625.17,200.35 624.85,199.85 625.24,199.85ZM610.59,197.32C610.89,196.92 610.99,196.41 611.2,196.41C612.11,196.41 612.31,196.92 612.41,197.62C611.81,197.53 611.3,197.53 610.59,197.32ZM620.19,198.03C620.45,198.03 620.88,198.25 620.59,198.54C619.86,198.17 620.19,198.25 620.19,198.03ZM617.77,189.14C617.97,189.24 618.17,189.34 618.28,189.34C617.87,189.74 617.5,189.41 617.77,189.14ZM617.26,192.58C617.92,193.24 618.26,192.69 617.06,193.49C616.69,193.12 616.85,193.39 617.26,192.58ZM618.98,199.75C616.86,199.65 615.85,198.94 614.44,198.24C616.25,198.13 616.25,198.13 618.98,199.75ZM613.93,195.1C614.36,195.53 614.4,195.14 613.42,196.11C613.02,195.71 613.31,195.72 613.93,195.1ZM612.82,188.64C611.61,190.16 611.61,190.16 609.79,191.27C609.89,188.44 609.99,188.33 612.82,188.64ZM603.93,186.52C604.13,186.52 604.13,186.82 604.23,187.03C604.03,187.03 603.83,187.23 603.72,187.13C603.15,186.55 603.83,186.42 603.93,186.52ZM584.94,190.35C584.84,190.35 585.04,190.15 585.14,189.95C585.44,190.15 585.85,190.35 586.25,190.66C585.59,191.1 585.71,191.12 584.94,190.35ZM588.32,228.99C588.43,228.45 588.61,227.88 588.88,226.92C589.07,228.15 589.07,228.23 588.32,228.99ZM591.61,196.92C591.66,196.87 591.55,196.38 591.81,196.11C592.16,196.46 592.3,196.57 591.61,196.92ZM597.87,207.42C597.67,208.63 597.06,209.14 595.95,209.54C595.95,208.63 596.05,207.92 596.15,206.91C596.86,207.12 597.36,207.22 597.87,207.42ZM592.21,201.06C592.41,199.34 592.41,199.34 596.05,196.31C596.35,198.03 595.04,199.55 592.21,201.06ZM595.04,189.75C594.33,191.87 593.02,191.77 591.1,191.57C592.72,191.16 593.22,189.75 595.04,189.75ZM591.4,210.05C591.2,210.45 591.1,210.96 591,210.96C590.31,210.84 590.83,210.44 591.4,210.05ZM589.18,213.99C589.48,213.69 589.89,213.38 590.49,212.88C591.86,216.07 587.75,215.99 589.18,213.99ZM589.49,224.29C589.7,223.87 589.71,223.58 589.7,223.46C589.71,223.51 589.74,223.58 589.79,223.69C589.69,223.89 589.59,224.09 589.49,224.29C589.29,224.59 589.29,225 589.19,225.3C588.49,225.3 588.48,225.38 588.48,225C588.68,224.59 588.88,224.09 589.49,224.29ZM588.58,212.98C587.37,213.69 586.76,214.09 586.16,214.39C585.85,212.68 586.05,212.57 588.58,212.98ZM584.84,212.57C584.74,212.67 584.74,212.77 584.74,212.87C584.74,212.69 584.5,212.92 584.84,212.57ZM575.35,211.77C575.35,211.52 575.32,211.53 575.45,211.67L575.35,211.77ZM576.05,222.67C576.05,222.28 576,222.34 576.25,222.47L576.05,222.67ZM582.52,230.96C582.52,230.4 582.22,230.55 582.62,230.15C582.72,230.36 583.15,230.96 582.52,230.96ZM582.92,211.87C582.62,213.28 582.31,214.6 582.01,215.91C580.51,210.65 582.92,211.25 582.92,211.87ZM578.98,234.9C578.55,234.04 579.08,233.99 579.18,234.09C579.39,234.5 579.72,234.9 578.98,234.9ZM579.39,230.35C577.27,227.38 576.43,227.15 578.88,225C580.09,225.2 580.7,226.11 581,226.92C580.5,228.03 579.99,229.14 579.39,230.35ZM568.38,268.43C568.59,267.58 568.14,267.79 570.9,266.41C576.7,272.21 577.01,271.72 568.38,268.43ZM575.24,271.15C575.18,271.15 575.15,271.11 575.11,271.05C575.3,271.19 575.68,271.15 575.24,271.15ZM754.81,255.61C755.42,255 755.37,254.94 755.63,255.2C755.34,255.48 755.6,255.7 754.81,255.61ZM757.55,251.16C758.07,249.35 755.97,247.62 764.62,247.42C763.21,251.66 761.08,253.18 756.64,253.38C756.94,252.57 757.35,251.86 757.55,251.16ZM608.47,327.01C605.06,327.79 600.14,327.1 597.26,323.98C591.76,318.04 595.26,319.93 601.91,317.72C606.69,316.13 609.18,313.76 609.18,315.6C609.79,319.33 609.79,323.17 608.47,327.01ZM494.85,390.64C496.36,389.73 497.37,390.34 498.49,391.65C497.07,391.75 495.96,391.85 494.85,390.64ZM522.83,401.65C522.71,401.71 522.22,401.95 522.22,401.45C522.88,401.44 522.83,401.1 522.83,401.65ZM530.6,484.06C520.57,516.44 517.66,505.82 516.46,537.59C515.25,537.59 515.55,536.38 514.54,535.77C510.13,534.72 508.53,535.92 498.68,539.2C497.23,538.47 500.25,536.02 498.38,519.1C496.28,500.18 485.25,471.58 492.93,454.26C497.14,444.76 499.62,442.62 497.88,433.05C497.1,434.81 497.14,433.42 496.77,440.52C496.77,448.8 487.95,439.15 493.03,422.24C495.54,413.9 502.97,407.96 506.87,407.39C519.63,405.53 516.62,404.46 518.99,404.46C524.65,404.46 526.75,404.13 530.3,405.57C550.9,413.94 539.7,426.03 539.09,432.74C538.63,437.78 539.55,440.52 535.86,445.26C529.94,443.8 536.8,464.05 530.6,484.06ZM536.87,462.65C536.06,460.33 535.76,457.4 535.76,450.02C542.05,438.48 537.19,443.89 542.63,454.77C541.61,457.7 540.3,459.42 536.87,462.65ZM637.56,449.22C637.66,448.51 638.07,448.41 638.67,448.41C638.57,449.22 638.17,449.32 637.56,449.22C624.45,464.83 623.81,466.14 621.7,467.6C620.39,466.19 620.07,464.57 620.29,462.75C621.82,450.08 618.35,456.9 637.56,449.22ZM613.52,536.18C610.81,535.98 609.96,532.29 610.49,530.42C614.33,532.24 617.96,534.26 622.51,535.07C619.1,536.96 619.07,536.59 613.52,536.18ZM600.53,396.26C600.69,396.1 600.85,395.94 601.01,395.78C600.99,396.06 600.81,396.22 600.53,396.26ZM601.11,395.6C601.13,395.2 601.31,394.95 601.71,394.98C601.75,395.45 601.51,395.64 601.11,395.6ZM602.49,394.25C602.39,394.66 602.2,394.91 601.81,394.88C601.84,394.39 602.03,394.15 602.49,394.25ZM752.76,268.27C752.63,268.65 752.28,268.72 751.18,268.63C752.13,268.38 752.49,268.34 752.76,268.27ZM747.55,269.54C747.95,269.03 748.36,269.03 748.96,269.24C745.59,269.91 748.01,270.46 742.7,270.76C744.22,269.13 745.93,269.54 747.55,269.54ZM794.92,267.92C792.63,269.07 793.16,272.87 785.22,272.87C784.1,272.87 786.71,269.08 782.69,266.71C783.8,265.7 785.22,265.5 785.72,264.08C785.86,263.52 789.6,262.15 791.38,260.85C788.43,259.61 785.55,262.25 783.6,264.79C782.69,263.48 782.69,261.86 780.77,261.46C764.36,265.93 767,267.33 774.31,265.9C776.07,268.55 773.53,265.55 780.07,262.57C782.54,265.04 780.96,266.14 779.06,269.94C778.05,271.56 776.23,270.85 775.53,272.26C777.04,272.97 778.16,272.26 779.37,271.75C780.29,271.44 779.99,271.32 782,268.32C787.62,272.53 777.52,278.63 771.39,278.52C766.21,278.42 765.46,281.94 761.29,272.97C759.47,279.03 767.15,278.69 762.81,280.95C753,286.06 751.25,288.1 744.33,290.34C735.08,293.33 727.04,299.95 712.62,302.36C712.62,304.39 712.11,303.05 710.8,303.57C702.71,306.06 703.91,304.13 699.79,306.4C697.59,307.61 692.64,312.52 682.92,316.5C678.82,318.18 666.8,321.02 660.6,320.64C654.89,320.29 653.83,319.41 651.61,321.14C648.61,323.49 645.87,324.88 643.83,327.4C637.94,334.68 638.23,336.68 638.28,332.35C638.52,309.22 634.62,307.15 634.04,303.67C638.12,302.85 635.94,306.45 648.79,301.45C689.93,285.44 685.58,287.67 697.07,280.54C699.38,279.11 702.12,278.92 704.54,278.02C704.94,277.82 705.45,278.12 705.95,278.12C711.62,278.59 710.29,277.38 714.03,278.63C717.53,279.8 721.04,281.56 724.84,280.14C724.94,280.1 733.77,278.34 739.28,274.18C741.31,272.65 759.14,272.42 762.81,266.6C764.93,263.25 767.12,266.03 774.73,259.63C783.01,252.67 780.56,256.94 804.93,250.84C806.03,255.24 803.13,254.73 798.67,255.69C792.55,261.2 793.29,258.71 792.21,260.34C794.44,261.89 796.89,258.76 795.44,262.16C798.18,262.43 798.06,259.44 804.43,260.24C797.78,263.56 805.12,260.69 794.92,267.92ZM803.18,257.12C801.29,258.72 802.8,257.79 796.98,259.57C799.45,256.79 798.55,257.15 803.18,257.12ZM796.76,259.81C796.8,260.15 796.06,260.85 796.73,259.84C796.75,259.83 796.76,259.82 796.76,259.81ZM803.91,257.82C804.62,256.71 805.32,256.3 806.74,256.81C805.83,257.62 805.12,258.13 803.91,257.82ZM808.76,257.12C809.06,256.21 809.37,255.61 810.88,256.21C809.97,256.61 809.36,256.91 808.76,257.12ZM808.86,254.19C803.06,256.67 804.91,254.13 806.13,250.76C807.75,250.66 809.26,250.05 810.88,250.15C811.08,252.07 810.48,253.49 808.86,254.19Z" style="fill-rule:nonzero;"/>
        <path d="M627.92,488.4C628.25,487.38 628.39,486.7 628.48,486.01C628.31,486.78 628.12,487.58 627.92,488.4Z" style="fill-rule:nonzero;"/>
        <path d="M617.66,411.85L617.76,411.95C617.74,411.82 617.78,411.77 617.66,411.85Z" style="fill-rule:nonzero;"/>
        <path d="M588.78,417.1L588.68,417.1C588.68,417.2 588.66,417.18 588.78,417.1Z" style="fill-rule:nonzero;"/>
        <path d="M569.29,452.85C569.29,453.01 569.2,452.9 569.39,452.95L569.29,452.85Z" style="fill-rule:nonzero;"/>
        <path d="M105.09,568.4C107.01,568.5 108.63,567.72 110.24,567.09C116.75,564.53 119.76,564.79 121.96,564.06C120.72,560.33 102.9,563.38 122.16,560.53C123.53,556.42 104.89,557.53 102.06,563.46C100.17,567.42 106.59,563.26 109.43,563.26C108.45,564.24 108.61,562.77 105.59,565.79C104.89,566.48 104.59,567.39 105.09,568.4ZM111.86,562.13C112.17,562.13 112.98,562.94 110.95,562.43C111.35,562.34 111.66,562.24 111.86,562.13Z" style="fill-rule:nonzero;"/>
        <path d="M501.82,566.38C504.58,566.38 518.06,563.29 517.27,560.93C516.31,558.06 499.88,563.94 519.59,556.49C514.81,554.75 497.7,558.85 499.69,561.64C501.61,562.45 503.53,561.54 505.75,561.54C501.82,564.15 501.82,564.15 501.82,566.38ZM508.08,560.92C508.44,561.28 508.27,561.02 507.98,561.02C507.98,561.02 507.98,560.92 508.08,560.92Z" style="fill-rule:nonzero;"/>
        <path d="M104.69,558.2C113.39,555.22 122.26,556.75 122.26,553.86C121.39,550.38 99.45,550.2 101.35,558.2C102.67,558.5 103.68,558.4 104.69,558.2Z" style="fill-rule:nonzero;"/>
        <path d="M195.39,40.88C194.48,38.25 194.38,37.94 193.47,37.65C191.56,37.03 189.63,36.33 187.51,36.84C185.58,37.31 185.65,35.5 181.15,37.75C179.56,38.54 178.18,39.3 179.53,39.97C186.71,36.38 180.83,39.04 188.82,39.47C189.33,39.47 189.93,40.08 190.94,40.58C189.32,40.58 188.31,40.36 187.3,40.58C181.98,41.74 180.66,41.24 180.84,43C197.55,45.02 186.94,41.64 195.39,40.88Z" style="fill-rule:nonzero;"/>
        <path d="M602.72,224.09C606.66,224.8 609.99,225.2 613.43,224.49C614.44,222.67 614.44,222.67 617.57,221.76C617.41,218.43 614.5,217.92 610.7,217.92C606.64,217.92 604.37,217.34 601.11,221.05C603.03,221.45 604.04,219.53 605.96,219.43C607.78,221.05 610.71,220.04 613.03,221.85C612.86,221.88 606.39,221.64 602.72,224.09Z" style="fill-rule:nonzero;"/>
        <path d="M517.98,550.82C513.43,550.25 499.58,553.18 497.17,557.99C497.78,558.19 497.88,558.29 497.98,558.19C508.86,554.14 523.37,550.82 517.98,550.82Z" style="fill-rule:nonzero;"/>
        <path d="M167,69.76C165.32,64.46 165.41,66.4 164.17,57.74C163.85,57.85 163.17,57.78 163.16,58.45C163.11,61.18 162.56,64 163.97,66.53C164.48,67.44 163.67,68.05 163.87,69.06C179.13,81.41 184.88,81.85 167,69.76Z" style="fill-rule:nonzero;"/>
        <path d="M600.8,259.54C597.37,255.7 593.02,253.48 589.19,250.96C588.08,246.92 586.26,243.18 586.77,239.04C583.96,238.2 585.34,246 586.26,247.93C586.69,248.83 586.91,248.74 585.86,250.05C590.4,253.69 594.95,256.92 599.6,259.85C599.79,259.94 600.19,259.74 600.8,259.54Z" style="fill-rule:nonzero;"/>
        <path d="M117.41,596.37C123.66,593.45 129.27,593.33 133.06,594.25C134.11,594.25 133.37,592.68 132.55,592.43C117.64,587.82 111.44,598.61 117.41,596.37Z" style="fill-rule:nonzero;"/>
        <path d="M112.16,572.03C113.1,571.66 120.6,568.63 121.45,567.79C121.15,564.79 108.07,566.74 108.72,571.93C110.04,572.44 111.15,572.43 112.16,572.03Z" style="fill-rule:nonzero;"/>
        <path d="M112.16,577.28C114.76,577.59 119.51,575.47 120.85,572.53C119.83,572.02 118.69,570.02 111.76,573.04C109.49,574.18 109.57,576.98 112.16,577.28Z" style="fill-rule:nonzero;"/>
        <path d="M517.27,592.74C526.65,590.05 528.3,591.77 530.2,590.82C529.88,587.29 515.2,588.42 512.42,593.04C514.25,593.35 512.42,594.13 517.27,592.74Z" style="fill-rule:nonzero;"/>
        <path d="M508.38,575.16C510.61,576.57 515.52,575.62 518.28,571.63C515.94,567.82 504.75,572.87 508.38,575.16Z" style="fill-rule:nonzero;"/>
        <path d="M513.53,568.9C514.84,568.29 516.16,567.69 516.76,565.97C516.36,565.67 515.85,565.07 515.35,565.06C503.85,564.88 500.58,574.93 513.53,568.9Z" style="fill-rule:nonzero;"/>
        <path d="M575.14,435.58C575.1,435.48 575.13,435.39 575.04,435.48L575.14,435.58Z" style="fill-rule:nonzero;"/>
        <path d="M575.1,435.44C577.66,433.85 577.86,431.89 589.48,425.18C598.58,419.92 598.65,419.14 600.19,417.61C600.09,417.67 573.74,431.5 575.1,435.44Z" style="fill-rule:nonzero;"/>
        <path d="M610.09,397.4C602.87,403.1 593.87,413.52 594.64,414.67C601.44,409.57 601.38,409.94 599.89,409.22C603.58,404.6 617.61,393.64 610.09,397.4Z" style="fill-rule:nonzero;"/>
        <path d="M600.8,409.73L600.7,409.63C600.7,409.68 600.68,409.65 600.8,409.73Z" style="fill-rule:nonzero;"/>
        <path d="M698.26,272.97C700.39,271.33 701.38,271.88 702,270.65C699.1,268.47 700.26,268.51 691.7,272.87C687.85,274.83 694.62,275.77 698.26,272.97Z" style="fill-rule:nonzero;"/>
        <path d="M614.33,447.2C614.58,446.95 615.39,447.34 603.32,456.39C599.4,459 610.11,456.15 620.49,442.25C620.9,441.7 620.8,440.51 621.1,440.74C620.87,440.51 622.21,440.63 622.21,439.02C621.2,439.12 620.19,438.82 619.68,440.03C623.41,440.96 606.18,450.4 602.61,453.26C607.21,452.49 615.35,446.18 614.33,447.2Z" style="fill-rule:nonzero;"/>
        <path d="M616.55,441.24C616.34,441.37 616.36,441.34 616.65,441.34L616.55,441.24Z" style="fill-rule:nonzero;"/>
        <path d="M603.12,440.03C613.03,432.33 599.45,440.27 598.78,442.54C598.61,442.51 598.08,442.75 597.06,443.36C587.49,450.17 582.31,451.58 578.08,454.2C583.94,454.9 597.64,444.47 598.76,442.77C598.77,442.8 598.76,442.83 598.78,442.86C602.23,441.24 604.58,442.66 605.95,442.66C617.18,441.94 615.29,442.06 616.4,441.35C603.48,441.03 603.5,441.56 603.12,440.03Z" style="fill-rule:nonzero;"/>
        <path d="M183.37,117.03C191.17,129.88 189.67,129.65 192.16,132.38C191.35,128.21 186.85,115.87 183.37,117.03Z" style="fill-rule:nonzero;"/>
        <path d="M626.86,413.97C636.54,404.29 645.15,400.42 646.45,399.12C644.55,398.17 627.51,409.42 626.86,413.97Z" style="fill-rule:nonzero;"/>
        <path d="M577.87,454.17L577.87,454.18C577.84,454.17 577.81,454.18 577.77,454.17C577.93,454.24 577.69,454.5 578.08,454.2C578.01,454.19 577.95,454.19 577.88,454.18L577.87,454.17Z" style="fill-rule:nonzero;"/>
        <path d="M203.67,67.14C202.8,64.87 198.9,67.4 190.64,66.94C190.24,66.94 189.73,67.45 189.33,67.65C189.63,68.76 190.34,68.86 190.95,68.86C205.39,67.74 202.74,68.07 203.67,67.14Z" style="fill-rule:nonzero;"/>
        <path d="M569.29,307.41C575.22,307.34 579.64,302.75 579.09,300.54C576.99,301.71 566.08,307.45 569.29,307.41Z" style="fill-rule:nonzero;"/>
        <path d="M607.26,285.09C604.47,289.27 617.87,284.46 614.83,281.05C612.21,281.56 608.68,283.48 607.26,285.09Z" style="fill-rule:nonzero;"/>
        <path d="M625.95,248.03C625.45,246.18 621.71,248.03 616.25,248.03C612.04,248.03 612.83,247.71 611.71,248.84C612.26,249.39 612.06,250.21 615.45,249.85C623.52,248.99 626.29,249.32 625.95,248.03Z" style="fill-rule:nonzero;"/>
        <path d="M193.26,73.3C195.44,74.61 195.91,74.39 200.73,73.7C201.69,73.7 201.53,71.91 201.13,71.78C195.94,68.89 194.75,70.86 193.26,73.3Z" style="fill-rule:nonzero;"/>
        <path d="M208.11,437.91C207.6,440.23 207.75,440.69 209.62,446.29C212.05,453.53 214.2,448.28 209.32,438.51C209.12,438.21 208.52,438.11 208.11,437.91Z" style="fill-rule:nonzero;"/>
        <path d="M618.47,251.56C616.46,251.68 613,255.79 619.38,255.3C620.79,255.1 622.31,255.4 623.52,254.49C624.54,253.73 623.44,251.27 618.47,251.56Z" style="fill-rule:nonzero;"/>
        <path d="M615.14,300.44C609.95,303.04 623.25,306 622.41,302.66C619.89,301.35 615.3,300.29 615.14,300.44Z" style="fill-rule:nonzero;"/>
        <path d="M620.39,285.09C620.6,286.36 626.88,285.1 630.39,281.15C625.6,281.95 620.14,282.55 620.39,285.09Z" style="fill-rule:nonzero;"/>
        <path d="M569.69,406.29C569.69,406.29 569.49,405.99 569.29,405.58C551.45,414.5 563.38,413.36 569.69,406.29Z" style="fill-rule:nonzero;"/>
        <path d="M589.79,359.02C589.32,358.55 590.07,357.96 576.66,366.9C579.05,368.58 588.11,361.39 589.79,359.02Z" style="fill-rule:nonzero;"/>
        <path d="M589.49,415.08C594.48,406.86 599.36,404.04 598.18,402.86C585.34,415.31 587.41,419.92 589.49,415.08Z" style="fill-rule:nonzero;"/>
        <path d="M544.64,344.88C542.78,339.3 539.28,347.65 544.84,350.03C544.74,348.12 544.64,346.5 544.64,344.88Z" style="fill-rule:nonzero;"/>
        <path d="M546.97,327.61C546.36,326.9 545.85,326.9 545.35,327.41C534.31,338.74 545.2,333.51 546.97,327.61Z" style="fill-rule:nonzero;"/>
        <path d="M211.34,529.21C211.5,529.52 212.65,529.74 212.65,529.01C211.68,516.35 207.91,520.28 211.34,529.21Z" style="fill-rule:nonzero;"/>
        <path d="M736.74,261.46C733.29,261.46 735.79,261.76 724.92,261.76C727.28,263.86 733.87,263.37 736.74,261.46Z" style="fill-rule:nonzero;"/>
        <path d="M201.14,59.56C202.12,60.05 205.24,56.17 197.61,57.94C195.84,58.35 196.57,60.28 196.6,60.46C198.21,59.86 199.63,59.36 201.14,59.56Z" style="fill-rule:nonzero;"/>
        <path d="M619.58,241.46C621.41,240.24 623.3,241.16 624.33,240.65C627.75,237.23 617.58,238.57 618.78,240.95C618.88,241.26 619.48,241.56 619.58,241.46Z" style="fill-rule:nonzero;"/>
        <path d="M608.88,365.99C609.28,362.15 608.68,360.33 606.66,359.02C606.76,364.28 607.16,365.39 608.88,365.99Z" style="fill-rule:nonzero;"/>
        <path d="M170.14,78.04C169.01,76.07 168.29,75.11 167.51,76.02C175.37,88.68 175.87,88.01 170.14,78.04Z" style="fill-rule:nonzero;"/>
        <path d="M589.49,256.61C595.06,266.46 599.15,270.71 592.22,258.73C590.52,256.19 590.53,256.76 589.49,256.61Z" style="fill-rule:nonzero;"/>
        <path d="M536.56,349.73C536.18,350.31 534.56,351.78 536.86,354.48C541.98,360.48 540.73,359.46 536.56,349.73Z" style="fill-rule:nonzero;"/>
        <path d="M174.88,92.59C177.03,97.75 175.89,97.78 177.3,99.76C178.43,94.51 175.64,90.81 174.88,92.59Z" style="fill-rule:nonzero;"/>
        <path d="M591.61,347.61C589.69,348.1 587.77,348.72 585.65,350.54C591.57,349.84 594.81,346.79 591.61,347.61Z" style="fill-rule:nonzero;"/>
        <path d="M602.11,339.33C599.69,341.75 599.18,342.56 598.58,344.78C600.29,343.57 602.62,341.37 602.11,339.33Z" style="fill-rule:nonzero;"/>
        <path d="M577.16,437C577.16,437.2 577.26,437.51 577.26,437.71C587.44,426.98 579.63,432.09 577.16,437Z" style="fill-rule:nonzero;"/>
        <path d="M582.66,431.35C582.75,431.32 582.83,431.27 582.92,431.24C582.8,431.12 582.85,431.09 582.66,431.35Z" style="fill-rule:nonzero;"/>
        <path d="M606.05,405.79C603.53,407.05 608.29,406.87 611,401.04C608.88,402.15 607.77,404.37 606.05,405.79Z" style="fill-rule:nonzero;"/>
        <path d="M605.34,406.9C605.47,406.65 605.44,406.7 605.24,406.8L605.34,406.9Z" style="fill-rule:nonzero;"/>
        <path d="M569.18,457.8C566.76,458.1 564.33,458.81 562.01,459.82C564.64,459.92 567.06,459.62 569.18,457.8Z" style="fill-rule:nonzero;"/>
        <path d="M721.69,263.07C719.86,263.59 715.58,265.65 717.25,266.6C718.56,265.7 720.28,265.2 721.69,263.07Z" style="fill-rule:nonzero;"/>
        <path d="M567.57,283.68C569.39,283.68 569.39,283.68 571,282.27C569.08,282.16 569.08,282.16 567.57,283.68Z" style="fill-rule:nonzero;"/>
        <path d="M601.13,409.56C603.16,409.08 603.88,408.54 605.24,406.79C603.49,407.28 602.14,408.24 601.13,409.56Z" style="fill-rule:nonzero;"/>
        <path d="M601,409.73C601.13,409.54 601.26,409.54 600.9,409.63L601,409.73Z" style="fill-rule:nonzero;"/>
        <path d="M558.98,342.06C557.59,341.14 556.7,343.71 559.69,344.08C559.51,343.43 559.33,342.23 558.98,342.06Z" style="fill-rule:nonzero;"/>
        <path d="M572.32,369.02C568.71,370.82 569.9,370.1 569.9,370.84C571.8,370.3 573.31,370.01 572.32,369.02Z" style="fill-rule:nonzero;"/>
        <path d="M193.16,139.25C193.06,140.56 193.06,140.56 194.27,141.98C193.67,140.76 194.17,139.75 193.16,139.25Z" style="fill-rule:nonzero;"/>
        <path d="M814.01,249.34C813.91,249.44 813.91,249.74 813.91,250.15C814.82,249.95 815.63,249.85 816.44,249.75C815.02,248.73 815.02,248.73 814.01,249.34Z" style="fill-rule:nonzero;"/>
        <path d="M573.34,450.01C570.29,451.36 570.67,451.29 570.1,452.14C571.45,451.85 572.69,451.37 573.34,450.01Z" style="fill-rule:nonzero;"/>
        <path d="M573.53,449.92L573.43,449.82C573.33,450.05 573.25,450.06 573.53,449.92Z" style="fill-rule:nonzero;"/>
        <path d="M561,345.29C561,346.28 562.82,346.62 562.82,345.49C562.82,345.09 562.42,344.78 562.11,344.18C561.61,344.68 561.11,344.88 561,345.29Z" style="fill-rule:nonzero;"/>
        <path d="M614.43,313.37C613.06,315.2 614.57,315.81 615.95,313.07C615.14,312.46 614.74,312.97 614.43,313.37Z" style="fill-rule:nonzero;"/>
        <path d="M688.16,275.5C687.25,275.2 686.44,275.5 685.94,276.41C687.46,276.51 687.46,276.51 688.16,275.5Z" style="fill-rule:nonzero;"/>
        <path d="M533.84,364.98C533.54,364.17 533.03,363.77 531.72,363.77C532.72,365.19 532.72,365.19 533.84,364.98Z" style="fill-rule:nonzero;"/>
        <path d="M615.04,278.93C614.68,278.93 615.26,279.92 615.55,279.64C616.96,278.8 617.31,278.68 616.66,278.02C616.15,278.33 615.54,278.63 615.04,278.93Z" style="fill-rule:nonzero;"/>
        <path d="M681.09,280.04C682,279.53 682.61,279.23 683.31,278.83C681.7,278.83 681.7,278.83 681.09,280.04Z" style="fill-rule:nonzero;"/>
        <path d="M558.18,373.77C559.8,373.67 560.7,373.67 561.92,373.57C560.7,372.76 559.79,372.76 558.18,373.77Z" style="fill-rule:nonzero;"/>
        <path d="M176.3,88.65C176.1,88.35 175.79,87.94 175.49,87.54C174,89.03 175.31,89.63 176.3,88.65Z" style="fill-rule:nonzero;"/>
        <path d="M188.42,93.4C187.06,94.49 186.8,94.51 187.31,95.02C187.73,94.73 189.16,94.43 188.42,93.4Z" style="fill-rule:nonzero;"/>
        <path d="M618.67,311.96C619.28,311.66 619.78,311.35 620.49,310.85C618.57,310.65 618.57,310.65 618.67,311.96Z" style="fill-rule:nonzero;"/>
        <path d="M201.14,421.54C200.94,421.15 200.23,421.25 200.23,421.84C200.33,422.35 200.63,422.75 200.84,423.25C201.62,422.87 201.93,423.51 201.14,421.54Z" style="fill-rule:nonzero;"/>
        <path d="M734.72,270.45C734.21,270.96 733.81,271.46 733.2,272.07C735.03,272.16 735.23,271.96 734.72,270.45Z" style="fill-rule:nonzero;"/>
        <path d="M537.77,337.61C538.87,337.43 538.94,336.3 538.58,336.3C537.29,336.12 536.62,338.19 537.77,337.61Z" style="fill-rule:nonzero;"/>
        <path d="M597.87,270.25C598.36,270.25 599.45,268.94 596.56,268.94C597.06,269.34 597.06,270.25 597.87,270.25Z" style="fill-rule:nonzero;"/>
        <path d="M577.16,437.7C573.76,439.64 574.11,438.91 577.16,438.91L577.16,437.7Z" style="fill-rule:nonzero;"/>
        <path d="M637.26,277.62C634.83,278.11 635.62,278.18 636.45,278.73C637.51,277.67 637.39,277.89 637.26,277.62Z" style="fill-rule:nonzero;"/>
        <path d="M610.8,431.85C610.22,432.62 609.56,433.28 608.89,433.95C610.15,433.87 610.71,433.09 610.8,431.85Z" style="fill-rule:nonzero;"/>
        <path d="M608.78,434.07C608.82,434.03 608.86,433.99 608.89,433.95C608.6,433.95 608.68,433.97 608.78,434.07Z" style="fill-rule:nonzero;"/>
        <path d="M586.25,296.81C585.41,296.39 585.41,296.52 584.73,297.42C586.29,297.72 585.65,297.41 586.25,296.81Z" style="fill-rule:nonzero;"/>
        <path d="M581.81,299.23L581.91,299.43C583.39,298.94 583.73,297.96 581.81,299.23Z" style="fill-rule:nonzero;"/>
        <path d="M550.7,352.66C549.83,351.79 549.76,352.29 549.49,352.56C549.79,352.86 550.1,353.17 550.5,353.47C550.6,353.07 550.8,352.76 550.7,352.66Z" style="fill-rule:nonzero;"/>
        <path d="M554.74,354.18C554.74,353.05 553.57,353.39 552.62,353.78C553.69,354.38 553.59,354.56 554.74,354.18Z" style="fill-rule:nonzero;"/>
        <path d="M542.62,358.92C542.62,359.91 543.39,360.06 543.83,359.63C542.85,358.65 543.57,358.92 542.62,358.92Z" style="fill-rule:nonzero;"/>
        <path d="M192.66,106.93C191.85,108.24 191.85,108.75 192.76,109.76C192.76,108.75 192.76,108.14 192.66,106.93Z" style="fill-rule:nonzero;"/>
        <path d="M623.12,273.48C621.85,273.06 622.34,273.44 621.6,273.68C622.81,274.28 621.97,274.25 623.12,273.48Z" style="fill-rule:nonzero;"/>
        <path d="M611,401.14C611.81,400.23 611.81,400.23 611.91,398.72C611.4,399.93 611.2,400.54 611,401.14Z" style="fill-rule:nonzero;"/>
        <path d="M714.83,270.14C715.54,269.84 715.94,269.63 716.45,269.43C715.63,269.03 715.03,269.03 714.83,270.14Z" style="fill-rule:nonzero;"/>
        <path d="M632.81,279.94C632.81,279.11 632.42,279.48 631.9,279.74C632.1,279.84 632.2,280.04 632.3,280.14C632.51,280.04 632.71,279.94 632.81,279.94Z" style="fill-rule:nonzero;"/>
        <path d="M677.66,281.25C676.72,281.56 676.42,281.13 676.04,282.26C677.33,282.26 676.92,282.49 677.66,281.25Z" style="fill-rule:nonzero;"/>
        <path d="M737.55,258.93C735.46,258.93 735.73,258.84 735.73,259.13C737.83,259.14 737.55,259.22 737.55,258.93Z" style="fill-rule:nonzero;"/>
        <path d="M570.8,402.25C571.61,402.65 572.11,402.25 572.52,401.44C571.81,401.24 571.31,401.44 570.8,402.25Z" style="fill-rule:nonzero;"/>
        <path d="M553.73,376.4C553.22,377.61 552.92,378.22 552.72,378.82C553.63,378.11 553.63,378.11 553.73,376.4Z" style="fill-rule:nonzero;"/>
        <path d="M641.8,275.7C641.7,275.59 640.69,274.59 640.08,275.8C640.43,276.49 640.74,276.12 641.8,275.7Z" style="fill-rule:nonzero;"/>
        <path d="M209.53,508.3C209.53,506.87 209.63,507.09 209.23,507.09C209.53,508.34 209.06,508.3 209.53,508.3Z" style="fill-rule:nonzero;"/>
        <path d="M596.56,347.11C597.37,346.84 597.47,347.35 597.47,346.4C597.32,346.4 597.22,346.12 596.56,347.11Z" style="fill-rule:nonzero;"/>
        <path d="M210.43,515.17C209.92,515.17 210.03,514.93 210.03,516.38C210.34,516.38 210.43,516.56 210.43,515.17Z" style="fill-rule:nonzero;"/>
        <path d="M752.6,258.02C752.6,256.52 753.62,258.02 754.11,256.5C751.44,256.88 754.05,257.35 750.43,257.4C750.95,258.3 751.82,258.13 752.6,258.02Z" style="fill-rule:nonzero;"/>
        <path d="M750.28,257.42C750.49,257.42 750.44,257.4 750.38,257.32L750.28,257.42Z" style="fill-rule:nonzero;"/>
        <path d="M571.91,437.91C571.91,438.11 571.67,438.31 573.12,438.31C573.12,438.11 573.37,437.91 571.91,437.91Z" style="fill-rule:nonzero;"/>
        <path d="M576.36,454.87C575.96,455.07 575.55,455.17 574.74,455.27C575.65,455.68 576.15,455.58 576.36,454.87Z" style="fill-rule:nonzero;"/>
        <path d="M211.14,455.48C210.74,455.48 210.84,455.26 210.84,456.69C211.24,456.69 211.14,456.91 211.14,455.48Z" style="fill-rule:nonzero;"/>
        <path d="M618.3,440.56C618.74,440.36 619.13,440.11 619.58,439.92C619.11,439.93 618.46,439.67 618.3,440.56Z" style="fill-rule:nonzero;"/>
        <path d="M616.86,411.95L616.76,411.85C616.51,411.97 616.45,411.91 616.86,411.95Z" style="fill-rule:nonzero;"/>
        <path d="M615.34,412.55C615.69,412.29 616.13,412.11 616.56,411.92C616.07,411.91 615.59,412.05 615.34,412.55Z" style="fill-rule:nonzero;"/>
        <path d="M618.17,440.63C618.15,440.66 618.13,440.68 618.11,440.71C618.27,440.77 618.33,440.79 618.17,440.63Z" style="fill-rule:nonzero;"/>
        <path d="M616.79,441.33C617.32,441.32 617.82,441.2 618.11,440.72C617.78,440.61 617.03,440.38 616.79,441.33Z" style="fill-rule:nonzero;"/>
        <path d="M616.76,441.44C616.77,441.4 616.78,441.37 616.79,441.33C616.61,441.33 616.65,441.33 616.76,441.44Z" style="fill-rule:nonzero;"/>
        <path d="M211.65,461.74C211.55,461.84 211.25,461.75 211.65,462.55C211.77,462.42 212.02,462.5 211.65,461.74Z" style="fill-rule:nonzero;"/>
        <path d="M570.6,456.99C570.26,457.33 569.83,457.54 569.46,457.72C569.99,457.76 570.52,457.85 570.6,456.99Z" style="fill-rule:nonzero;"/>
        <path d="M569.28,457.8C569.35,457.77 569.41,457.74 569.46,457.72C569.09,457.68 569.16,457.68 569.28,457.8Z" style="fill-rule:nonzero;"/>
        <path d="M203.36,426.29C203.46,426.59 203.46,427 203.56,427.7C204.17,426.9 204.17,426.39 203.36,426.29Z" style="fill-rule:nonzero;"/>
        <path d="M571.1,456.89C571.1,456.89 570.8,456.99 570.59,457.09C570.8,456.99 571.1,456.99 571.1,456.89Z" style="fill-rule:nonzero;"/>
        <path d="M575.14,449.32C575.24,449.22 575.44,449.02 575.54,448.92C575.45,449.02 575.24,449.12 575.14,449.32Z" style="fill-rule:nonzero;"/>
        <path d="M574.91,449.41C574.46,449.58 573.96,449.75 573.53,449.93C573.98,449.83 574.52,449.9 574.91,449.41Z" style="fill-rule:nonzero;"/>
        <path d="M575.14,449.32L575.04,449.22C574.93,449.42 574.79,449.47 575.14,449.32Z" style="fill-rule:nonzero;"/>
        <path d="M569.99,452.05C569.98,452.08 569.97,452.1 569.95,452.13C570.16,452.17 570.1,452.15 569.99,452.05Z" style="fill-rule:nonzero;"/>
        <path d="M577.81,454.34C577.36,454.54 576.91,454.79 576.46,454.98C576.92,454.88 577.56,455.03 577.81,454.34Z" style="fill-rule:nonzero;"/>
        <path d="M671.5,283.58C672.3,283.98 671.61,284.03 672.51,283.58C671.91,282.98 671.81,283.42 671.5,283.58Z" style="fill-rule:nonzero;"/>
        <path d="M619.18,275.8C619.18,275.31 618.23,275.69 618.88,275.9C618.98,275.9 619.08,275.8 619.18,275.8Z" style="fill-rule:nonzero;"/>
        <path d="M552.32,379.22C552.32,379.32 552.72,380.38 552.72,378.71C552.62,378.92 552.32,379.02 552.32,379.22Z" style="fill-rule:nonzero;"/>
        <path d="M606.96,354.78C606.68,355.06 606.45,354.98 606.96,355.49C607.27,354.88 607.18,355 606.96,354.78Z" style="fill-rule:nonzero;"/>
        <path d="M582.82,391.75C582.72,391.75 582.52,391.85 582.42,391.85C582.42,392.53 582.72,391.85 582.82,391.75Z" style="fill-rule:nonzero;"/>
        <path d="M173.97,85.52L173.87,85.62C174,85.75 173.97,85.77 173.97,85.52Z" style="fill-rule:nonzero;"/>
        <path d="M174.18,85.92C173.74,85.48 174.22,85.88 173.78,86.32L173.98,86.22C173.97,86.02 174.07,86.02 174.18,85.92Z" style="fill-rule:nonzero;"/>
        <path d="M600.29,417.5C600.16,417.63 600.16,417.57 600.29,417.7L600.29,417.5Z" style="fill-rule:nonzero;"/>
        <path d="M626.75,413.87L626.65,414.17C626.9,413.92 626.89,414 626.75,413.87Z" style="fill-rule:nonzero;"/>
        <path d="M615.14,412.76C615.14,412.66 615.24,412.66 615.24,412.46C615.19,412.5 615.05,412.76 615.14,412.76Z" style="fill-rule:nonzero;"/>
        <path d="M615.04,412.86C615.06,412.84 615.07,412.8 615.09,412.77C615.05,412.77 615.04,412.79 615.04,412.86Z" style="fill-rule:nonzero;"/>
        <path d="M596.35,347.21C596.35,347.51 596.33,347.45 596.4,347.21L596.35,347.21Z" style="fill-rule:nonzero;"/>
        <path d="M596.45,347.01C596.45,347.06 596.43,347.13 596.4,347.21C596.49,347.2 596.54,347.17 596.45,347.01Z" style="fill-rule:nonzero;"/>
        <path d="M546.46,350.44C546.46,350.54 546.53,350.77 546.86,350.44C546.76,350.33 546.46,350.08 546.46,350.44Z" style="fill-rule:nonzero;"/>
        <path d="M577.06,396.9C577.19,396.77 577.19,396.83 577.06,396.7L577.06,396.9Z" style="fill-rule:nonzero;"/>
        <path d="M577.87,395.99C577.57,396.29 577.36,396.5 577.16,396.8C577.26,396.73 578.05,396.17 577.87,395.99Z" style="fill-rule:nonzero;"/>
        <path d="M578.27,395.69C578.17,395.79 577.94,396.12 578.17,395.89C578.27,395.89 578.27,395.79 578.27,395.69Z" style="fill-rule:nonzero;"/>
        <path d="M578.06,395.97C578.01,396 577.97,396.03 577.97,396.09C578,396.06 578.03,396.01 578.06,395.97Z" style="fill-rule:nonzero;"/>
        <path d="M596.35,266.31C596.15,266.21 596.05,266.11 595.84,266.01C595.85,266.21 595.85,266.61 596.35,266.31Z" style="fill-rule:nonzero;"/>
        <path d="M595.85,268.02C595.72,267.89 595.75,267.86 595.75,268.12C596.5,268.62 597.3,269.48 595.85,268.02Z" style="fill-rule:nonzero;"/>
        <path d="M606.76,436.28C607.18,436.25 607.37,436.05 607.37,435.58C606.99,435.58 606.72,435.77 606.76,436.28Z" style="fill-rule:nonzero;"/>
        <path d="M606.76,436.39C606.75,436.35 606.76,436.32 606.76,436.28C606.61,436.28 606.65,436.28 606.76,436.39Z" style="fill-rule:nonzero;"/>
        <path d="M574.97,435.68C574.79,435.82 574.4,435.78 574.84,435.78C574.9,435.78 574.93,435.74 574.97,435.68Z" style="fill-rule:nonzero;"/>
        <path d="M607.26,435.48L607.36,435.58C607.58,435.48 607.36,435.5 607.26,435.48Z" style="fill-rule:nonzero;"/>
        <path d="M607.45,435.49C607.83,435.5 608.06,435.29 607.97,434.77C607.88,435.04 607.7,435.29 607.45,435.49Z" style="fill-rule:nonzero;"/>
        <path d="M203.47,426.19C203.37,426.19 203.27,426.09 203.17,426.09C203.26,426.19 203.26,426.19 203.47,426.19Z" style="fill-rule:nonzero;"/>
        <path d="M205.99,430.13L205.89,430.33C206.02,430.33 205.99,430.38 205.99,430.13Z" style="fill-rule:nonzero;"/>
        <path d="M583.17,431.18C583.09,431.23 583.02,431.26 583.02,431.34C583.07,431.29 583.12,431.24 583.17,431.18Z" style="fill-rule:nonzero;"/>
        <path d="M583.32,430.94C583.24,431.11 583.1,431.26 583.22,431.14C583.32,431.04 583.32,431.04 583.32,430.94Z" style="fill-rule:nonzero;"/>
        <path d="M610.9,431.95L611,431.85C610.75,431.85 610.76,431.81 610.9,431.95Z" style="fill-rule:nonzero;"/>
        <path d="M608.07,434.88C608.1,434.85 608.12,434.82 608.16,434.79C607.93,434.78 607.93,434.73 608.07,434.88Z" style="fill-rule:nonzero;"/>
        <path d="M608.68,434.07C608.59,434.34 608.41,434.53 608.16,434.79C608.61,434.8 608.77,434.6 608.68,434.07Z" style="fill-rule:nonzero;"/>
        <path d="M216.6,294.89C218.11,299.94 219.83,304.89 221.55,309.84C221.65,310.34 221.65,311.25 222.76,311.25C222.76,297.92 212.17,272.58 210.64,271.05C206.2,271.05 212.09,279.77 216.6,294.89Z" style="fill-rule:nonzero;"/>
        <path d="M189.43,351.15C191.86,346.3 193.62,344.45 191.35,338.93C190.86,341.68 190.54,345.02 189.73,346.71C188.67,348.94 176.07,374.5 178.62,380.44C180.51,379.23 178.44,378.77 181.55,369.84C182.72,366.49 186.46,356.01 189.33,353.58C192.23,365.21 191.54,356.08 189.43,351.15Z" style="fill-rule:nonzero;"/>
        <path d="M166.9,282.26C158.7,303.87 159.9,301.15 160.84,304.38C163.95,299.06 168.05,286.24 169.32,280.75C169.33,278.58 167.86,280.1 166.9,282.26Z" style="fill-rule:nonzero;"/>
        <path d="M128.22,276C128.52,276.59 116.87,323.89 120.65,318.22C130.6,269.72 131.1,270.09 130.66,273.59C130.83,272.54 131.06,271.16 131.36,269.34C130.67,270.25 127.67,275.17 128.22,276Z" style="fill-rule:nonzero;"/>
        <path d="M130.65,273.59C129.81,278.79 130.39,275.65 130.65,273.59Z" style="fill-rule:nonzero;"/>
        <path d="M148.52,412.66C137.98,389.48 141.92,391.79 139.63,387.41C137.95,392.05 144.27,411.65 148.52,412.66Z" style="fill-rule:nonzero;"/>
        <path d="M188.92,286C188.31,296.3 185.08,306.1 184.48,316.3C186.36,309.41 190.1,293.08 188.92,286Z" style="fill-rule:nonzero;"/>
        <path d="M194.98,311.05C195.2,327.39 197.95,287.96 193.26,283.28C195.1,294.32 194.85,301.22 194.98,311.05Z" style="fill-rule:nonzero;"/>
        <path d="M147.01,281.96C147.52,280.14 147.82,278.32 148.02,275.6C145.07,280.99 130.83,339.2 147.01,281.96Z" style="fill-rule:nonzero;"/>
        <path d="M122.36,348.82C118.11,352.22 119.01,351.67 118.62,348.62C118.52,349.02 118.11,349.23 118.11,349.53C118.19,352.93 116.15,353.44 114.98,355.49C116.6,354.28 118.21,354.38 119.02,352.76C119.33,352.14 125.16,347.9 127.4,346.19C129.62,344.73 129.68,342.97 122.36,348.82Z" style="fill-rule:nonzero;"/>
        <path d="M215.69,274.59C213.15,272.69 217.5,280.84 218.92,283.68C219.43,279.55 217.01,275.44 215.69,274.59Z" style="fill-rule:nonzero;"/>
        <path d="M181.14,292.77C188.24,282.12 187.29,283.83 187.1,282.27C178.16,294.9 180.87,293.32 181.14,292.77Z" style="fill-rule:nonzero;"/>
        <path d="M115.39,385.08C115.6,385.76 116.68,405.19 116.3,388.41C116.23,385.2 116.56,385.96 117.92,384.27C116.28,381.98 117.05,382.43 115.39,385.08Z" style="fill-rule:nonzero;"/>
        <path d="M117.82,367C111.19,373.63 112.57,372.48 112.57,373.36C114.19,372.05 116,370.94 117.42,369.42C121.14,366.17 118.27,366.55 117.82,367Z" style="fill-rule:nonzero;"/>
        <path d="M200.64,280.75C200.64,280.55 200.24,280.45 199.73,280.04C199.89,285.27 205.77,297.43 200.64,280.75Z" style="fill-rule:nonzero;"/>
        <path d="M153.67,385.39C153.79,385.39 153.81,385.42 153.77,385.29L153.67,385.39Z" style="fill-rule:nonzero;"/>
        <path d="M153.79,385.39C154.19,387.27 157.3,391.61 158.42,393.17C162.13,396.87 154.68,385.39 153.79,385.39Z" style="fill-rule:nonzero;"/>
        <path d="M160.14,278.93C159.34,274.93 159.02,275.89 158.02,275.4C159.79,279.29 158.95,282.38 159.33,284.09C160.14,287.7 160.41,280.31 160.14,278.93Z" style="fill-rule:nonzero;"/>
        <path d="M184.78,337.71C184.38,334.07 183.26,330.14 182.05,328.22C182.48,330.11 183.81,337.71 184.78,337.71Z" style="fill-rule:nonzero;"/>
        <path d="M119.94,341.05C120.81,334.06 118.21,344.31 118.73,348.73C119.64,346.2 119.43,343.57 119.94,341.05Z" style="fill-rule:nonzero;"/>
        <path d="M176.5,352.96C176.9,354.37 176.8,355.99 178.12,357.81C177.82,354.07 177.41,351.04 175.29,348.62C175.19,350.24 176.2,351.55 176.5,352.96Z" style="fill-rule:nonzero;"/>
        <path d="M167,262.87C166.39,266.1 165.99,268.73 167.81,271.05C167.31,268.53 168.12,265.9 167,262.87Z" style="fill-rule:nonzero;"/>
        <path d="M144.48,299.74C144.47,299.85 144.46,299.95 144.45,300.06C144.63,299.81 144.58,299.84 144.48,299.74Z" style="fill-rule:nonzero;"/>
        <path d="M142.45,305.87C143.82,304.17 144.25,302.16 144.45,300.06C143.32,301.83 142.98,303.84 142.45,305.87Z" style="fill-rule:nonzero;"/>
        <path d="M117.62,380.13L117.62,374.78C117.41,376.6 117.01,378.32 117.62,380.13Z" style="fill-rule:nonzero;"/>
        <path d="M117.62,362.86C117.62,356.72 117.71,357.31 117.42,357.31C117.41,363.45 117.33,362.86 117.62,362.86Z" style="fill-rule:nonzero;"/>
        <path d="M168.62,297.41L168.62,292.56C168.22,294.18 168.22,295.8 168.62,297.41Z" style="fill-rule:nonzero;"/>
        <path d="M139.33,306.81C138.52,309.03 138.52,309.13 138.52,311.15C139.43,309.84 139.53,308.32 139.33,306.81Z" style="fill-rule:nonzero;"/>
        <path d="M202.35,314.69C202.65,312.97 203.56,311.86 203.06,309.64C202.56,311.55 201.75,312.77 202.35,314.69Z" style="fill-rule:nonzero;"/>
        <path d="M149.63,263.58C150.14,262.47 150.24,261.36 149.63,260.15L149.63,263.58Z" style="fill-rule:nonzero;"/>
        <path d="M174.07,345.69C174.37,346.9 174.37,348.01 175.38,348.62C175.49,347.51 175.08,346.6 174.07,345.69Z" style="fill-rule:nonzero;"/>
        <path d="M146.5,290.95L146.6,291.05C146.64,290.76 146.63,290.82 146.5,290.95Z" style="fill-rule:nonzero;"/>
        <path d="M146.62,290.83C147.57,289.88 147.11,289.82 147.41,286.81C147.21,287.42 146.9,287.92 146.8,288.43C146.71,289.16 146.69,290 146.62,290.83Z" style="fill-rule:nonzero;"/>
        <path d="M191.92,362.72C191.8,361.58 192.09,360.37 191.24,359.33C191.35,360.48 190.99,361.73 191.92,362.72Z" style="fill-rule:nonzero;"/>
        <path d="M191.92,362.72C191.95,362.96 191.91,362.93 192.06,363.08C192.06,362.91 192.08,362.85 191.92,362.72Z" style="fill-rule:nonzero;"/>
        <path d="M145.79,294.59L145.89,294.69C145.94,294.36 145.91,294.47 145.79,294.59Z" style="fill-rule:nonzero;"/>
        <path d="M146.5,290.95C145.83,292.09 145.97,293.24 145.9,294.46C146.96,293.47 146.5,292.12 146.5,290.95Z" style="fill-rule:nonzero;"/>
        <path d="M119.94,321.86L119.94,319.03C119.33,319.94 119.33,320.85 119.94,321.86Z" style="fill-rule:nonzero;"/>
        <path d="M145.18,297.61C145.18,297.76 145.13,297.7 145.28,297.62C145.18,297.52 145.17,297.53 145.2,297.41C145.06,297.54 145.07,297.5 145.18,297.61Z" style="fill-rule:nonzero;"/>
        <path d="M145.2,297.4C146.06,296.6 145.8,295.55 145.8,294.58C145.05,295.43 145.25,296.46 145.2,297.4Z" style="fill-rule:nonzero;"/>
        <path d="M192.06,363.08C192.08,363.96 191.74,365.03 192.76,365.69C192.47,364.92 192.81,363.88 192.06,363.08Z" style="fill-rule:nonzero;"/>
        <path d="M167.71,301.15C167.98,301.15 167.91,301.35 167.91,299.84C167.66,299.84 167.71,299.63 167.71,301.15Z" style="fill-rule:nonzero;"/>
        <path d="M152.39,383.19C152.58,384.14 152.81,384.89 153.87,385.18C153.87,384.21 153.49,383.44 152.39,383.19Z" style="fill-rule:nonzero;"/>
        <path d="M152.29,383.13L152.29,383.14L152.29,383.13Z" style="fill-rule:nonzero;"/>
        <path d="M152.29,383.14C152.24,383.18 152.26,383.18 152.29,383.14Z" style="fill-rule:nonzero;"/>
        <path d="M152.06,382.25C152.06,382.51 151.67,382.8 152.29,383.13C152.36,383.03 152.51,382.7 152.06,382.25Z" style="fill-rule:nonzero;"/>
        <path d="M147.71,284.79C147.31,284.79 147.41,284.48 147.41,286.81C147.41,287.06 147.4,287.01 147.71,284.79Z" style="fill-rule:nonzero;"/>
        <path d="M211.34,396.09C212.05,395.99 212.86,395.99 213.66,395.99C212.86,395.38 212.05,395.28 211.34,396.09Z" style="fill-rule:nonzero;"/>
        <path d="M193.38,368.91C193.43,369.78 193.24,370.79 194.18,371.45C193.88,370.67 194.32,369.62 193.38,368.91Z" style="fill-rule:nonzero;"/>
        <path d="M193.37,368.72C193.24,368.63 193.27,368.52 193.27,368.82C193.36,368.88 193.42,369.02 193.37,368.72Z" style="fill-rule:nonzero;"/>
        <path d="M193.26,368.62C193.28,367.59 193.41,366.65 192.65,365.79C192.76,366.76 192.4,367.82 193.26,368.62Z" style="fill-rule:nonzero;"/>
        <path d="M194.58,383.67C194.07,384.38 194.48,384.88 194.78,385.29C194.68,384.88 194.58,384.38 194.58,383.67Z" style="fill-rule:nonzero;"/>
        <path d="M194.07,371.55C194.27,372.06 193.87,372.66 194.98,373.27C194.48,372.46 194.27,371.95 194.07,371.55Z" style="fill-rule:nonzero;"/>
        <path d="M144.58,299.84C145.33,299.27 145.13,298.46 145.18,297.7C144.41,298.21 144.58,299.07 144.58,299.84Z" style="fill-rule:nonzero;"/>
        <path d="M193.47,273.28C192.68,273.28 194.08,273.55 194.18,273.58C194.17,273.3 193.6,273.28 193.47,273.28Z" style="fill-rule:nonzero;"/>
        <path d="M194.98,320.64C194.98,320.84 195.08,321.04 195.18,321.25C195.64,319.87 194.98,320.4 194.98,320.64Z" style="fill-rule:nonzero;"/>
        <path d="M185.49,339.63C185.09,338.72 184.88,338.32 184.68,337.81C184.78,338.22 184.48,338.93 185.49,339.63Z" style="fill-rule:nonzero;"/>
        <path d="M228.92,396.19C228.72,396.29 229.02,396.19 229.22,395.99C229.02,396.19 228.72,396.19 228.92,396.19Z" style="fill-rule:nonzero;"/>
        <path d="M229.32,396.09C229.52,395.89 229.72,395.79 229.52,395.89C229.73,395.79 229.42,395.89 229.32,396.09Z" style="fill-rule:nonzero;"/>
        <path d="M215.38,394.98L215.68,394.98C215.69,394.85 215.75,394.86 215.38,394.98Z" style="fill-rule:nonzero;"/>
        <path d="M185.79,341.55L185.89,341.25C185.63,341.25 185.66,341.17 185.79,341.55Z" style="fill-rule:nonzero;"/>
        <path d="M141.45,308.32C141.55,308.12 141.65,307.92 141.65,307.71C141.69,307.59 141.72,307.55 141.73,307.54C142.23,307.32 142.27,306.87 142.26,306.4C142.09,306.78 141.9,307.15 141.73,307.53C141.72,307.53 141.68,307.56 141.56,307.6L141.58,307.62C141.51,307.59 141.45,307.65 141.45,308.32Z" style="fill-rule:nonzero;"/>
        <path d="M142.26,306.41C142.29,306.34 142.42,305.97 142.45,305.85C142.21,306.18 142.26,306.02 142.26,306.41Z" style="fill-rule:nonzero;"/>
        <path d="M180.13,294.08C180.23,293.78 180.23,293.47 180.33,293.17C179.81,294.23 180.13,293.82 180.13,294.08Z" style="fill-rule:nonzero;"/>
        <path d="M181.45,267.62C181.7,267.62 181.55,267.38 181.55,267.22C181.55,267.32 181.45,267.52 181.45,267.62Z" style="fill-rule:nonzero;"/>
        <path d="M164.18,388.72L164.18,389.02C164.3,388.78 164.3,388.85 164.18,388.72Z" style="fill-rule:nonzero;"/>
        <path d="M194.98,375.08C194.98,375.64 195.3,375.42 195.08,374.98L194.98,375.08Z" style="fill-rule:nonzero;"/>
        <path d="M195.79,378.11L195.89,378.11C195.89,377.73 195.93,377.69 195.79,378.11Z" style="fill-rule:nonzero;"/>
        <path d="M164.88,391.75L164.98,391.85C164.98,391.45 165.02,391.48 164.88,391.75Z" style="fill-rule:nonzero;"/>
        <path d="M162.76,383.16L162.86,383.16C162.86,382.78 162.9,382.74 162.76,383.16Z" style="fill-rule:nonzero;"/>
        <path d="M163.47,385.89L163.47,386.19C163.59,385.83 163.6,385.89 163.47,385.89Z" style="fill-rule:nonzero;"/>
        <path d="M119.33,366.6C119.43,366.5 119.53,366.5 119.53,366.4C119.53,365.95 119.59,366.35 119.33,366.6Z" style="fill-rule:nonzero;"/>
        <path d="M163.17,270.95C163.04,271.08 162.99,271.02 163.37,271.15L163.17,270.95Z" style="fill-rule:nonzero;"/>
        <path d="M193.37,283.17C193.34,283.14 193.31,283.11 193.28,283.08C193.28,283.13 193.3,283.17 193.37,283.17Z" style="fill-rule:nonzero;"/>
        <path d="M193.26,282.97C193.26,282.87 192.92,282.73 193.27,283.08C193.26,283.05 193.26,283.01 193.26,282.97Z" style="fill-rule:nonzero;"/>
        <path d="M157.71,274.99C157.91,275.09 158.01,275.19 158.11,275.29C158.01,275.19 158.11,274.99 157.71,274.99Z" style="fill-rule:nonzero;"/>
        <path d="M199.83,165.91C201.56,167.31 203.57,167.83 206.5,167.22C205.09,165.4 203.97,164.09 202.66,162.88C199.71,160.15 200.03,158.83 198.42,156.42C196.53,154.06 193.29,160.64 199.83,165.91Z" style="fill-rule:nonzero;"/>
        <path d="M186.7,176.32C188.42,171.15 173.43,187.46 175.09,189.45C185.72,177.04 186.37,177.29 186.7,176.32Z" style="fill-rule:nonzero;"/>
        <path d="M143.37,178.34C138.03,186.86 139.46,187.05 141.96,189.55C142.44,190.03 142.93,190.6 143.68,190.47C143.78,190.77 143.78,191.16 144.19,190.66C143.59,190.38 143.7,190.5 143.79,190.46C143.59,188.54 141.57,187.83 140.96,186.12C141.32,185.39 145.76,176.82 145.71,176.22C144.28,176.42 143.88,177.53 143.37,178.34Z" style="fill-rule:nonzero;"/>
        <path d="M195.79,209.95C198.32,208.26 195.21,179.66 195.59,206.82C195.6,207.83 195.69,208.84 195.79,209.95Z" style="fill-rule:nonzero;"/>
        <path d="M145.79,162.18C147.1,162.99 148.21,164.4 150.23,163.69C150.03,163.29 150.03,162.78 149.93,162.58C144.96,159.07 144.62,158.74 143.16,158.74C140.04,158.74 143.81,160.95 145.79,162.18Z" style="fill-rule:nonzero;"/>
        <path d="M212.45,251.06C211.44,252.07 212.04,249.78 208.01,261.87C208.01,263.83 212.8,256.61 212.45,251.06Z" style="fill-rule:nonzero;"/>
        <path d="M202.66,173.79C208.65,179.18 208.18,178.74 208.42,178.74C209.6,178.74 206.92,174.93 203.98,173.59C203.67,173.49 203.36,173.69 202.66,173.79Z" style="fill-rule:nonzero;"/>
        <path d="M152.36,186.82C151.15,184.6 150.95,184.29 148.93,183.69C149.73,185.81 150.04,186.11 152.36,186.82Z" style="fill-rule:nonzero;"/>
        <path d="M233.97,204.39C232.56,206.41 232.66,207.82 233.06,209.64C234.17,208.03 234.47,206.72 233.97,204.39Z" style="fill-rule:nonzero;"/>
        <path d="M210.64,169.25C211.45,169.55 212.16,169.76 213.06,170.16C211.95,168.64 211.95,168.64 210.64,169.25Z" style="fill-rule:nonzero;"/>
        <path d="M213.87,186.62C213.97,185.41 213.97,185.41 212.86,185.11C213.26,185.71 213.46,186.11 213.87,186.62Z" style="fill-rule:nonzero;"/>
        <path d="M147.01,194.09C146.41,195.28 148.76,195.44 148.02,194.7C147.71,194.5 147.31,194.29 147.01,194.09Z" style="fill-rule:nonzero;"/>
        <path d="M138.02,191.87C138.02,194.12 138.09,193.12 138.63,193.38C138.29,191.7 138.72,191.87 138.02,191.87Z" style="fill-rule:nonzero;"/>
        <path d="M195.99,225.91C196.42,224.62 196.09,224.59 195.89,224.19C195.21,224.53 195.59,224.54 195.59,225.91L195.99,225.91Z" style="fill-rule:nonzero;"/>
        <path d="M231.24,210.76C230.59,212.27 230.53,211.36 231.14,213.49C231.93,211.91 231.68,212.52 231.24,210.76Z" style="fill-rule:nonzero;"/>
        <path d="M159.83,166.42L159.83,166.12C158.65,166.12 158.89,165.85 158.52,166.22C158.81,166.51 158.49,166.87 159.83,166.42Z" style="fill-rule:nonzero;"/>
        <path d="M153.77,165.31C153.87,165.31 153.97,165.01 154.07,164.91C152.77,164.25 152.33,165.31 153.77,165.31Z" style="fill-rule:nonzero;"/>
        <path d="M142.56,202.47C142.36,202.37 142.05,202.47 141.75,202.47C141.85,202.67 141.85,202.98 142.05,203.08C143.68,203.62 142.74,202.47 142.56,202.47Z" style="fill-rule:nonzero;"/>
        <path d="M235.38,257.22C235.08,256.63 235.12,256.67 234.67,257.12C235.09,257.32 234.98,257.61 235.38,257.22Z" style="fill-rule:nonzero;"/>
        <path d="M236.09,266.21C236.6,265.7 236.6,265.2 235.89,264.8C235.38,265.4 235.58,265.8 236.09,266.21Z" style="fill-rule:nonzero;"/>
        <path d="M155.9,190.47C156.18,190.75 155.96,190.47 155.99,190.46C154.56,188.54 154.17,190.68 155.9,190.47Z" style="fill-rule:nonzero;"/>
        <path d="M232.45,141.57C232.72,141.3 232.33,141.01 232.05,140.86C232.35,141.07 232.45,141.27 232.45,141.57Z" style="fill-rule:nonzero;"/>
        <path d="M154.08,233.08C154.31,233.08 154.34,232.68 154.18,232.68C153.8,232.67 154.08,232.95 154.08,233.08Z" style="fill-rule:nonzero;"/>
        <path d="M158.22,242.47C158.23,242.5 158.23,242.51 158.24,242.53C158.26,242.56 158.27,242.56 158.22,242.47Z" style="fill-rule:nonzero;"/>
        <path d="M158.24,242.53C158.21,242.49 158.13,242.38 158.02,242.27C158.2,242.45 158.29,242.68 158.24,242.53Z" style="fill-rule:nonzero;"/>
        <path d="M158.02,241.66C158.02,241.56 157.82,241.56 157.72,241.46C157.72,242.01 157.97,241.96 158.12,242.27C158.02,242.07 158.02,241.86 158.02,241.66Z" style="fill-rule:nonzero;"/>
        <path d="M155.79,237.02C155.75,236.93 155.73,236.9 155.79,237.02Z" style="fill-rule:nonzero;"/>
        <path d="M155.79,237.02C155.82,237.07 155.85,237.14 155.89,237.22C155.79,237.02 155.79,236.71 155.79,237.02Z" style="fill-rule:nonzero;"/>
        <path d="M167.11,167.33C167.53,166.91 166.91,166.89 166.91,167.13C167,167.23 167,167.33 167.11,167.33Z" style="fill-rule:nonzero;"/>
        <path d="M152.36,186.92L152.56,187.02C152.31,186.78 152.36,186.79 152.36,186.92Z" style="fill-rule:nonzero;"/>
        <path d="M170.03,196.62L169.83,196.62C169.59,196.86 169.73,196.76 170.03,196.62Z" style="fill-rule:nonzero;"/>
        <path d="M168.92,197.63C168.95,197.6 168.98,197.57 169.01,197.54C168.79,197.54 168.78,197.48 168.92,197.63Z" style="fill-rule:nonzero;"/>
        <path d="M169.53,196.82C169.44,197.08 169.21,197.34 169.01,197.54C169.4,197.55 169.62,197.34 169.53,196.82Z" style="fill-rule:nonzero;"/>
        <path d="M155.79,237.32L156.09,237.32C156.1,237.22 156,237.22 155.79,237.32Z" style="fill-rule:nonzero;"/>
        <path d="M96,124.5C95.19,128.03 96.1,131.87 98.42,133.29C96.41,123.57 96.81,124.91 96,124.5Z" style="fill-rule:nonzero;"/>
        <path d="M91.56,308.12C91.16,309.72 91.06,314.69 92.47,314.69C94.17,314.69 93.29,308.12 91.56,308.12Z" style="fill-rule:nonzero;"/>
        <path d="M100.85,285.6C100.45,288.12 101.15,289.64 103.17,291.26C103.48,289.44 102.47,286.91 100.85,285.6Z" style="fill-rule:nonzero;"/>
        <path d="M130.64,140.97C129.23,143.39 129.23,143.39 130.24,144.4C131.25,142.78 131.25,142.78 130.64,140.97Z" style="fill-rule:nonzero;"/>
        <path d="M93.17,306.4C93.17,305.39 93.27,304.68 93.27,303.77C91.86,304.89 91.86,304.89 93.17,306.4Z" style="fill-rule:nonzero;"/>
        <path d="M91.46,169.95C91.26,171.26 91.26,171.26 92.07,172.17C92.37,170.96 92.37,170.96 91.46,169.95Z" style="fill-rule:nonzero;"/>
        <path d="M86.41,312.56C86.11,314.07 86.11,314.07 86.81,315.79C87.42,313.37 87.42,313.37 86.41,312.56Z" style="fill-rule:nonzero;"/>
        <path d="M106.81,211.77C107.45,211.77 107.32,211.87 107.32,210.46C106.64,210.45 106.41,210.19 106.81,211.77Z" style="fill-rule:nonzero;"/>
        <path d="M105.9,193.38C105.65,192.88 105.94,192.71 105.19,193.08C105.6,193.89 105.32,193.97 105.9,193.38Z" style="fill-rule:nonzero;"/>
        <path d="M85.09,243.38C85.09,244.41 85.6,243.73 85.9,243.58C85.65,243.09 85.54,242.93 85.09,243.38Z" style="fill-rule:nonzero;"/>
        <path d="M100.14,134.81C99.75,135.01 100.05,134.87 100.24,136.43C100.76,134.62 100.55,135.21 100.14,134.81Z" style="fill-rule:nonzero;"/>
        <path d="M90.19,227.17C89.91,227.17 89.91,228.89 90.19,228.89C90.47,228.89 90.47,227.17 90.19,227.17Z" style="fill-rule:nonzero;"/>
        <path d="M84.29,237.82C84.54,237.82 84.49,237.93 84.49,237.21C84.23,237.22 84.29,237.12 84.29,237.82Z" style="fill-rule:nonzero;"/>
        <path d="M102.47,138.85C102.47,138.95 102.27,138.95 102.27,139.05C102.27,139.25 102.37,139.45 102.37,139.66C102.73,139.29 102.98,139.88 102.47,138.85Z" style="fill-rule:nonzero;"/>
        <path d="M101.76,282.37C101.76,282.04 101.46,282.27 101.46,282.37C101.46,282.52 101.76,282.89 101.76,282.37Z" style="fill-rule:nonzero;"/>
        <path d="M101.76,277.32C101.54,277.1 101.57,277.31 101.46,277.42C101.6,277.56 101.76,277.58 101.76,277.32Z" style="fill-rule:nonzero;"/>
        <path d="M106.91,206.21C106.81,206.11 106.81,206.01 106.71,205.81C106.29,206.23 106.91,206.81 106.91,206.21Z" style="fill-rule:nonzero;"/>
        <path d="M101.05,272.27C100.8,272.14 100.82,272.07 100.95,272.47L101.05,272.27Z" style="fill-rule:nonzero;"/>
        <path d="M134.08,141.27L133.98,141.07C133.85,141.32 133.82,141.27 134.08,141.27Z" style="fill-rule:nonzero;"/>
        <path d="M117.72,532.24C119.21,532.24 118.78,531.32 118.93,521.84C118.99,517.93 115.99,528.1 117.72,532.24Z" style="fill-rule:nonzero;"/>
        <path d="M106.71,450.43C107.22,449.72 107.72,449.42 107.82,448.91C113.03,432.71 106.46,442.91 106.71,450.43Z" style="fill-rule:nonzero;"/>
        <path d="M138.42,437.2C134.01,442.25 133.83,442.34 134.78,442.65C136.88,441.3 140.65,437.75 138.42,437.2Z" style="fill-rule:nonzero;"/>
        <path d="M124.28,430.03C124.18,428.31 123.77,426.7 122.87,425.28C122.36,427.7 122.67,428.71 124.28,430.03Z" style="fill-rule:nonzero;"/>
        <path d="M123.57,451.64C124.28,449.82 124.58,448 123.77,446.29C123.47,448.11 122.67,449.82 123.57,451.64Z" style="fill-rule:nonzero;"/>
        <path d="M126.3,439.12C126.81,437.1 126.7,435.58 126,433.46C125.59,435.68 125.49,437.2 126.3,439.12Z" style="fill-rule:nonzero;"/>
        <path d="M121.66,457.2L121.66,459.62C122.97,458.41 123.07,457.9 121.66,457.2Z" style="fill-rule:nonzero;"/>
        <path d="M105.29,464.77C105.9,463.96 105.9,463.25 105.29,462.35C104.59,463.36 104.69,464.06 105.29,464.77Z" style="fill-rule:nonzero;"/>
        <path d="M119.43,514.16C119.43,516.28 119.94,514.63 119.94,514.26C119.94,513.27 119.43,513.96 119.43,514.16Z" style="fill-rule:nonzero;"/>
        <path d="M105.9,456.09C106.1,455.99 106.3,455.89 106.3,455.69C106.3,453.21 105.44,455.16 105.9,456.09Z" style="fill-rule:nonzero;"/>
        <path d="M132.56,260.25C133.27,257.83 134.07,256.21 133.67,254.39C132.03,255.49 132.47,258.87 132.56,260.25Z" style="fill-rule:nonzero;"/>
        <path d="M667.86,442.55C666.45,443.96 662.35,459.25 662.1,462.24C666.04,458.8 670.72,446.36 667.86,442.55Z" style="fill-rule:nonzero;"/>
        <path d="M677.96,418.82C679.12,416.89 682.71,415.45 682.81,411.35C682.83,410.74 682.71,410.14 681.7,410.24C680.49,413.17 679.18,416.2 676.25,419.13C677.46,418.92 677.96,419.02 677.96,418.82Z" style="fill-rule:nonzero;"/>
        <path d="M614.63,526.48C614.04,528.26 617.93,530.04 619.38,521.94C617.66,523.45 616.05,524.76 614.63,526.48Z" style="fill-rule:nonzero;"/>
        <path d="M661.6,463.66C660.19,465.28 659.38,466.99 658.97,468.91C661.8,466.29 662.1,465.58 661.6,463.66Z" style="fill-rule:nonzero;"/>
        <path d="M683.01,437.3C684.63,436.39 684.32,435.28 684.02,433.77C682.61,434.77 682.51,435.89 683.01,437.3Z" style="fill-rule:nonzero;"/>
        <path d="M623.02,516.79C623.52,516.18 623.93,515.78 624.33,515.28C622.82,515.57 622.82,515.57 623.02,516.79Z" style="fill-rule:nonzero;"/>
        <path d="M621.6,518.5C620.85,518.75 620.65,520.6 621.8,520.22C623.08,519.37 622.19,518.06 621.6,518.5Z" style="fill-rule:nonzero;"/>
        <path d="M686.55,423.36C685.74,424.44 686.09,424.45 686.35,424.98C687.41,424.44 686.86,424.15 686.55,423.36Z" style="fill-rule:nonzero;"/>
        <path d="M651.7,477.6C652.03,477.6 651.5,476.98 651.5,476.69C651.5,476.59 651.3,476.69 651.2,476.69C650.35,476.69 650.36,479.6 651.7,477.6Z" style="fill-rule:nonzero;"/>
        <path d="M628.47,507.9C628.19,507.62 627.9,508.03 627.76,508.3C628.43,508.63 628.25,508.33 628.47,507.9Z" style="fill-rule:nonzero;"/>
        <path d="M672.2,422.15C671.69,421.64 671.29,421.75 670.89,422.35C671.4,422.86 671.8,422.76 672.2,422.15Z" style="fill-rule:nonzero;"/>
        <path d="M682.51,429.42C681.81,429.77 681.61,429.14 682.81,430.83C682.61,430.03 682.51,429.72 682.51,429.42Z" style="fill-rule:nonzero;"/>
        <path d="M626.75,511.63C626.85,511.53 626.95,511.53 626.95,511.53C626.54,511.12 626.34,511.63 626.75,511.63Z" style="fill-rule:nonzero;"/>
        <path d="M661.6,435.28C661.12,435.76 661.5,435.58 661.6,435.48L661.6,435.28Z" style="fill-rule:nonzero;"/>
        <path d="M666.04,423.77L665.94,423.67C665.82,423.79 665.78,423.77 666.04,423.77Z" style="fill-rule:nonzero;"/>
        <path d="M668.16,429.62L668.16,429.32C668.04,429.56 668.04,429.5 668.16,429.62Z" style="fill-rule:nonzero;"/>
        <path d="M529.29,452.75C517.29,473.53 533.17,453.53 530.7,449.42C529.8,450.43 529.88,451.73 529.29,452.75Z" style="fill-rule:nonzero;"/>
        <path d="M495.56,458.21C495.28,459.23 494.95,460.33 495.56,461.64C498.98,452.97 498.64,446.98 495.56,458.21Z" style="fill-rule:nonzero;"/>
        <path d="M529.69,431.64C529.69,430.93 529.59,430.12 528.48,430.02C527.38,436.6 527.61,435.72 527.97,436.99C529.69,435.08 529.9,434.37 529.69,431.64Z" style="fill-rule:nonzero;"/>
        <path d="M506.06,439.12C505.96,439.02 505.55,439.22 505.05,439.32C506.67,441.24 508.08,442.96 509.49,444.67C509.19,441.95 508.28,440.73 506.06,439.12Z" style="fill-rule:nonzero;"/>
        <path d="M532.72,419.73C534.47,423.92 534.43,423.37 535.24,423.37C535.45,422.52 536.1,422.51 534.33,419.63C534.03,419.12 533.43,418.92 532.72,419.73Z" style="fill-rule:nonzero;"/>
        <path d="M512.83,420.53C511.31,424.27 511.31,424.27 511.62,425.68C513.43,423.26 513.74,422.45 512.83,420.53Z" style="fill-rule:nonzero;"/>
        <path d="M522.83,469.52C523.23,468.21 524.24,467.4 523.54,466.19C522.02,467.9 522.02,467.9 522.83,469.52Z" style="fill-rule:nonzero;"/>
        <path d="M495.76,468.81L495.76,465.48C494.48,466.57 494.01,467.94 495.76,468.81Z" style="fill-rule:nonzero;"/>
        <path d="M514.75,455.58C514.35,454.27 514.14,453.66 513.94,453.06C513.23,454.17 513.64,454.67 514.75,455.58Z" style="fill-rule:nonzero;"/>
        <path d="M494.24,474.06C493.53,475.07 493.53,475.88 494.34,476.89C494.95,475.78 494.85,474.97 494.24,474.06Z" style="fill-rule:nonzero;"/>
        <path d="M525.55,440.53C526.45,438.74 526.36,439.74 526.36,438.61C525.56,438.61 524.52,440.01 525.55,440.53Z" style="fill-rule:nonzero;"/>
        <path d="M511.21,447.4C511.01,448.11 511.11,448.61 512.12,448.81C512.12,448.21 511.82,447.7 511.21,447.4Z" style="fill-rule:nonzero;"/>
        <path d="M494.55,482.04C494.93,483.95 494.42,483.35 495.26,483.35C495.13,482.76 495.19,481.4 494.55,482.04Z" style="fill-rule:nonzero;"/>
        <path d="M521.41,475.38C521.81,475.38 521.71,475.63 521.71,474.07C521.3,474.06 521.04,473.87 521.41,475.38Z" style="fill-rule:nonzero;"/>
        <path d="M520.81,480.12C521.15,480.8 521.11,480.62 521.52,480.22C521.41,480.12 521.04,479.77 520.81,480.12Z" style="fill-rule:nonzero;"/>
        <path d="M530.91,416.59C531.01,416.59 531.01,416.49 531.11,416.39C530.56,415.3 530.65,416.07 530.91,416.59Z" style="fill-rule:nonzero;"/>
        <path d="M513.23,434.88C513.26,434.91 513.29,434.94 513.32,434.97C513.31,434.92 513.29,434.88 513.23,434.88Z" style="fill-rule:nonzero;"/>
        <path d="M513.33,435.08C513.33,435.18 513.67,435.32 513.32,434.97C513.33,435 513.33,435.04 513.33,435.08Z" style="fill-rule:nonzero;"/>
        <path d="M513.03,434.67C513.03,434.77 513.13,434.87 513.33,434.77C513.23,434.77 513.13,434.67 513.03,434.67Z" style="fill-rule:nonzero;"/>
        <path d="M650.19,305.39C646.57,306.3 643.09,316.75 644.33,318.82C645.5,318.53 644.83,318.8 650.49,306.9C650.78,306.3 650.59,305.39 650.19,305.39Z" style="fill-rule:nonzero;"/>
        <path d="M751.19,280.85C750.47,280.85 751.29,283.07 756.95,280.24C757.76,279.84 758.97,279.63 759.27,278.42C758.83,277.99 759.89,277.72 751.19,280.85Z" style="fill-rule:nonzero;"/>
        <path d="M685.03,290.24C686.54,292.56 688.87,293.37 692.1,293.88C687.21,290.21 686.52,288.57 685.03,290.24Z" style="fill-rule:nonzero;"/>
        <path d="M766.34,269.54C766.46,268.53 766.64,267.52 765.43,266.31C763.75,270.29 765.93,272.88 766.34,269.54Z" style="fill-rule:nonzero;"/>
        <path d="M641.8,325.19C642.71,324.08 642.71,322.97 642.51,321.05C641.1,323.37 641.1,323.37 641.8,325.19Z" style="fill-rule:nonzero;"/>
        <path d="M790.27,263.98C791.89,263.88 791.89,263.88 793.7,262.57C791.18,262.97 791.28,262.97 790.27,263.98Z" style="fill-rule:nonzero;"/>
        <path d="M766.94,274.69C766.33,274.08 765.63,273.58 765.02,272.97C765.83,275.19 766.13,275.4 766.94,274.69Z" style="fill-rule:nonzero;"/>
        <path d="M739.27,287.01C739.84,287.58 739.99,287.23 740.78,286.91C739.51,286.27 740.13,286.15 739.27,287.01Z" style="fill-rule:nonzero;"/>
        <path d="M748.46,283.38C748.85,284.17 748.88,283.77 749.47,283.18C749.31,283.01 749.31,282.81 748.46,283.38Z" style="fill-rule:nonzero;"/>
        <path d="M779.06,258.43C777.67,258.43 779.26,261.7 779.26,258.63C779.26,258.53 779.16,258.43 779.06,258.43Z" style="fill-rule:nonzero;"/>
        <path d="M698.57,292.87C698.57,293.11 698.8,293.17 698.97,293.17C698.97,292.51 698.75,292.87 698.57,292.87Z" style="fill-rule:nonzero;"/>
        <path d="M744.52,285.09C744.9,284.96 744.92,285.02 744.52,284.89L744.52,285.09Z" style="fill-rule:nonzero;"/>
        <path d="M703.92,292.97C704.18,292.97 704.15,293.02 704.02,292.77L703.92,292.97Z" style="fill-rule:nonzero;"/>
        <path d="M500.3,403.97C500.5,403.87 500.6,403.47 500.91,403.06C499.19,402.55 497.98,403.27 497.07,404.07C492.9,407.74 488.28,404.54 482.83,411.44C479.48,415.69 476.9,422.6 478.39,427.7C478.91,426.97 481.27,409.53 489.38,408.44C488.41,409.44 480.97,417.54 481.62,419.82C481.89,419.39 491.41,406.54 492.83,408.21C490.3,413.06 489.7,414.67 489.09,418.31C493.14,411.37 494.77,406.37 500.3,403.97Z" style="fill-rule:nonzero;"/>
        <path d="M472.73,439.22C468.31,423.03 473.57,421.47 476.57,415.49C469.48,418.32 466.23,431.91 472.73,439.22Z" style="fill-rule:nonzero;"/>
        <path d="M486.87,459.72C482.73,457.8 481.21,453.56 477.88,449.92C479.25,453.58 483.44,460.95 486.87,459.72Z" style="fill-rule:nonzero;"/>
        <path d="M472.63,433.26C473.64,430.72 472.42,431.29 474.45,422.66C473.19,424.33 471.04,425.91 472.63,433.26Z" style="fill-rule:nonzero;"/>
        <path d="M481.52,419.73C481.42,420.03 481.22,420.13 481.01,420.34C481.01,420.76 481.52,420.65 481.52,419.73Z" style="fill-rule:nonzero;"/>
        <path d="M474.55,422.45C474.43,422.69 474.45,422.63 474.45,422.75L474.55,422.45Z" style="fill-rule:nonzero;"/>
        <path d="M477.17,414.68C477.21,414.84 477.12,414.78 477.27,414.78L477.17,414.68Z" style="fill-rule:nonzero;"/>
        <path d="M477.18,414.79C476.76,414.82 476.56,415.02 476.56,415.49C477.03,415.48 477.22,415.22 477.18,414.79Z" style="fill-rule:nonzero;"/>
        <path d="M477.44,414.65C477.81,414.6 477.98,414.41 477.88,413.96C477.71,414.22 477.55,414.42 477.44,414.65Z" style="fill-rule:nonzero;"/>
        <path d="M477.38,414.78C477.46,414.59 477.5,414.68 477.28,414.68L477.38,414.78Z" style="fill-rule:nonzero;"/>
        <path d="M477.98,413.97L478.08,413.87C477.83,413.99 477.84,413.97 477.98,413.97Z" style="fill-rule:nonzero;"/>
    </g>
</svg>
