<?xml version="1.0" encoding="UTF-8" standalone="no"?>
<!DOCTYPE svg PUBLIC "-//W3C//DTD SVG 1.1//EN" "http://www.w3.org/Graphics/SVG/1.1/DTD/svg11.dtd">
<svg width="100%" height="100%" viewBox="0 0 900 600" version="1.1" xmlns="http://www.w3.org/2000/svg" xmlns:xlink="http://www.w3.org/1999/xlink" xml:space="preserve" xmlns:serif="http://www.serif.com/" style="fill-rule:evenodd;clip-rule:evenodd;stroke-linejoin:round;stroke-miterlimit:2;">
    <g>
        <path d="M769.17,487.49C754.79,483.27 754.73,473.63 749.38,470C741.13,464.39 749.57,455.17 739.18,455.7C737.32,455.97 736.86,456.6 736.88,453.9C736.92,447.72 738.68,423.76 740.88,416.31C748.99,388.85 740.88,378.08 745.68,367.22C751.2,354.73 744.37,346.78 742.58,341.53C734.07,316.57 737.21,318.58 734.78,314.24C731.89,309.07 735.85,309.57 729.98,301.74C728.92,303.86 732.32,306.73 731.98,310.64C731.71,313.75 734.01,314.32 734.58,320.14C735.33,327.72 739.01,337.47 739.88,340.53C723.98,344.13 708.39,345.13 692.39,343.23C691.59,341.43 690.99,339.63 690.09,337.43C692.74,339.2 694.38,340.4 695.31,341.11C693.03,338.99 687.58,332.92 687.69,325.13C689.39,325.73 689.99,327.83 692.19,328.13C691.49,326.63 690.49,325.73 689.49,325.03C685.83,322.46 683.17,315.99 686.79,313.33C693.65,317.01 699.23,322.17 705.18,326.85C705.44,324.33 691.77,314.44 687.99,312.23C690.81,305.46 693.8,307.3 708.98,309.83C703.88,306.73 697.88,307.33 692.28,304.83C687.68,309.53 680.58,308.93 674.69,311.33C677.99,311.93 681.19,310.33 684.49,310.43C684.09,311.83 683.1,312.73 683.29,314.03C683.5,315.53 682.19,316.03 681.79,317.13C682.39,317.83 682.99,316.53 683.89,317.53C684.09,328.23 688.29,338.72 688.59,349.92C671.6,353.12 654.6,353.62 637.51,356.02C636.3,344.03 628.52,327.51 628.21,320.63C626.9,291.67 612.94,282.67 624.81,284.54C626.81,292.04 629.52,299.34 628.41,307.53C627.62,313.33 628.11,319.23 631.51,324.72C634.72,329.9 648.04,348.61 654.1,349.21C648.43,344 632.63,328.12 630.91,320.62C626.26,300.34 634.39,313.73 626.01,284.03C641.94,282.13 648.65,280.73 655.2,285.23C662.8,282.56 665.94,269.02 659.1,280.53C658.21,282.03 657.2,283.73 654.6,282.73C655.8,280.43 658,278.83 658.4,275.73C655.1,277.23 655,282.83 650.3,281.33C649.1,278.23 651.5,275.83 651.2,273.13C650.38,271.65 650.27,275.49 647.7,269.83C641.68,256.59 650.62,256.04 642.2,243.74C627.71,222.58 624.22,217.8 621.31,208.45C614.34,186.11 615.2,187.06 613.21,187.06C614.31,195.26 618.1,202.56 620.11,210.25C622.2,218.25 626.91,224.95 631.31,231.84C628.82,233.83 622.67,235.14 623.21,242.34C623.21,244.08 622.16,242.35 620.01,252.04C619.23,255.54 619.01,259.24 617.41,262.54C615.91,265.64 616.41,269.24 615.11,272.74C611.31,272.64 607.71,273.84 604.11,273.44C603.23,272.05 597.76,225.84 568.32,217.26C539.36,208.82 512.71,224.34 506.14,267.14C504.87,275.43 505.72,283.24 504.04,283.24C492.94,284.14 482.05,285.74 470.95,286.04C467.82,286.3 460.55,291.41 468.55,298.74C481.05,298.74 493.34,296.44 505.84,295.84C510.35,331.91 532.24,360.4 567.72,352.42C594.93,346.3 602.71,314.08 604.81,286.14C608.91,285.74 612.71,285.44 616.71,285.04C626.88,322.15 626.81,329.55 633.01,347.82C636.49,358.09 631.14,360 638.01,358.92C641.81,358.32 645.61,357.12 649.91,357.62C652.71,363.52 656.42,369.51 651.11,376.11C649.62,377.96 649.4,382.76 648.41,385.31C641.24,403.66 646.95,417.88 659.71,466.09C659.91,467.09 660.11,468.29 661.61,468.39C663.99,465.61 655.55,449.12 648.81,411.11C644.63,387.51 657.65,378.94 656.41,370.92C655.65,366.02 655.81,360.72 651.41,356.52C655.18,356.52 653.1,360.35 659.01,362.22C658.01,360.12 657.41,358.52 657.11,356.62C659.21,356.12 661.11,355.92 662.91,355.92C664,356.91 666.45,362.62 664.91,355.42C672.71,353.92 680.51,353.62 688.2,351.32C689.45,376.98 689.62,365.04 680.7,382.11C680.12,383.22 680.72,384.42 680,385.51C677.97,388.55 677.9,391.51 679.8,394.61C679.8,386.63 681.38,391.44 679.8,394.61C680.67,400.44 676.8,409.57 676.8,411.2C676.8,421.39 673.62,431.53 673.9,437.49C674.72,455 677.52,458.48 677.9,465.28C675.7,466.48 672.71,465.59 670.9,466.98C668.01,469.2 664.7,469.28 661.5,470.28C656.51,472.42 654.34,488.35 649.8,498.47C659.09,509.57 662.78,503.92 672.09,507.57C684.03,512.24 700.02,511.68 700.58,508.87C699.43,507.38 690.25,509.06 704.68,506.17C704.6,506.8 699.97,508.81 707.88,507.67C716.54,506.42 712.68,498.2 708.38,496.97C691.42,492.13 692.1,478.96 684.99,475.88C684.39,472.18 685.79,468.58 684.19,465.38C682.79,464.88 681.49,465.58 680.19,464.88C679.78,458.04 678.86,458.63 676.99,448.88C674.88,437.84 679.33,411.3 681.29,405.59C684.2,397.13 681.08,387.42 684.19,381.2C686.79,376 691.71,375.75 691.49,368.4C691.4,365.3 692.05,362.31 691.19,359.2C690.56,356.91 692.39,354.2 690.19,351.7C693.09,350 690.79,347.5 691.29,345.4C696.29,345.3 698.77,348.36 700.69,352.3C704.18,359.5 711.48,362.82 708.09,371.29C704.38,380.56 704.91,397.55 706.99,402.38C715.38,421.82 713.23,443.53 714.39,456.16C715.61,469.39 709.48,471.63 709.69,479.55C709.94,489.17 701.15,491.08 710.69,495.15C717.26,497.95 731.26,497.41 731.95,495.81C735.18,498.95 741.73,499.76 746.18,499.95C759.55,500.52 770.69,504.17 772.87,493.65C773.54,490.48 772.27,488.4 769.17,487.49ZM638.71,243.36C638.21,243.56 638.01,243.26 638.01,242.36C638.41,242.86 638.61,243.16 638.71,243.36ZM636.81,241.06C634.51,239.56 633.71,236.86 632.31,234.46C634.71,236.06 635.31,238.86 636.81,241.06ZM630.92,235.86C632.12,239.46 632.02,243.76 635.12,246.76C632.12,245.26 629.12,243.86 626.12,242.46C626.02,238.96 627.42,236.86 630.92,235.86ZM621.12,258.86C623.63,255.62 621.01,249.77 625.52,244.86C638.12,251.04 643.61,256.85 639.62,250.86C635,244.7 640.71,250.65 643.22,251.96C645.48,253.14 643.42,258.26 642.42,259.86C636.72,258.86 630.92,258.56 625.03,258.66C624.13,257.56 625.33,256.76 624.43,255.46C619.03,265.68 624.05,273.35 618.23,272.05C617.48,270.57 617.94,262.95 621.12,258.86ZM644.71,269.75C637.51,270.55 630.11,270.75 622.52,271.95C622.02,267.75 622.72,264.15 623.62,260.35C629.82,260.25 635.82,260.71 641.81,261.75C643.66,262.08 643.58,263.51 644.71,269.75ZM468.46,295.64C466.26,292.94 466.46,291.94 469.36,288.94C473.45,291.6 472.4,295.97 468.46,295.64ZM478.26,295.74C476.86,296.04 475.36,296.14 472.86,296.24C475.56,293.34 473.16,291.04 473.16,288.44C554.8,280.82 550.85,280 553.04,282.54C554.16,290.23 558.47,288.51 478.26,295.74ZM550.74,293.95C550.04,292.95 550.24,292.15 551.24,291.25C554.54,298.35 558.47,305.04 557.94,313.24C557.47,320.61 554.46,319.58 553.84,316.14C549.34,291.21 552.32,296.2 550.74,293.95ZM552.94,290.95C557.64,285.75 557.04,278.15 548.04,278.65C550.54,275.05 553.63,274.66 557.14,277.55C562.88,282.29 559.87,292.57 554.74,294.14C553.64,293.15 553.34,291.95 552.94,290.95ZM549.04,291.75C544.34,300.05 543.14,309.24 541.54,318.34C530.39,313.56 537.42,304.07 545.14,292.95C546.04,291.65 547.24,291.45 549.04,291.75ZM527.15,340.23C515.82,328.65 509.07,310.23 508.06,295.74C509.26,294.94 510.36,295.14 511.56,294.84C511.73,295.17 520.92,345.6 548.05,345.32C550.55,345.29 553.15,345.82 555.25,343.72C554.35,343.22 553.65,343.71 552.95,343.82C529.18,347.71 513.14,304.72 514.26,294.63C543.82,291.77 544.58,290.99 541.05,294.43C537.1,298.28 535.14,303.42 532.35,307.93C528.86,313.57 542.77,326.75 544.25,318.93C545.61,311.68 547.17,299.07 549.05,296.44C548.74,312.97 550.5,311.66 549.65,314.63C548.38,321.62 557.68,326.21 560.65,319.23C563.19,313.25 560.1,301.21 555.45,295.84C573.57,287.53 553.87,262.34 545.65,277.95C544.65,279.85 548.06,279.14 513.06,282.35C510.77,257.61 529.84,221.04 547.95,224.87C550.54,225.42 553.15,225.57 555.75,225.87C555.95,225.27 555.85,224.97 555.55,224.87C550.15,222.67 544.67,221.1 538.96,224.07C510.08,239.09 510.83,280.93 510.47,282.25C505.41,285.01 506.56,279.61 507.27,271.85C512.91,210 564.78,199.79 583.05,252.86C605.31,317.59 561.05,374.89 527.15,340.23ZM556.54,352.03C557.52,350.8 558.81,351.07 561.54,349.73C605.38,328.29 598.83,227.52 551.44,216.67C614.83,212.5 622.3,349.24 556.54,352.03ZM604.62,283.65C604.42,280.95 604.22,278.75 604.02,276.05C618.02,274.75 631.81,273.45 645.41,272.15C647.61,275.35 647.71,275.65 647.21,279.55C633.21,280.85 619.12,282.25 604.62,283.65ZM662.11,472.59C671.73,469.63 669.37,469.95 670.61,471.19C666.51,473.29 665.61,478.59 660.11,480.29C662.21,477.79 662.11,475.29 662.11,472.59ZM658.11,480.19C658.81,480.79 659.11,481.29 658.71,482.19C657.61,481.69 657.71,481.09 658.11,480.19ZM704.19,506.08C705.89,505.58 707.39,504.18 709.49,504.88C707.82,506.03 706.12,506.24 704.19,506.08ZM693.7,491.09C693.2,491.59 692.8,491.49 692.3,491.29C692.7,489.79 693.1,490.79 693.7,491.09ZM682.7,477.29C678.9,478.89 674.2,477.79 671.5,481.89C673.63,482.46 676.5,480.09 679.9,480.49C678.3,481.09 676.7,481.69 675,481.59C674.3,482.89 672.1,482.69 671.6,484.69C674,485.29 676.2,484.19 678.5,484.39C678.5,485.39 677,485.39 677.3,486.79C681.2,487.49 684.8,485.39 688.7,485.29C685.7,487.09 681.2,485.99 678.8,490.09C681.3,490.69 683.4,490.19 685.7,489.79C685.8,490.99 684,490.89 684.2,491.99C687.5,493.49 690.8,494.79 694.7,494.69C695.9,494.19 694.3,493.19 694.9,492.49C696.99,493.19 701.12,497.3 706.6,498.59C708.8,499.11 710.2,500.59 710.5,502.79C696.84,507.73 694.95,504.62 694.3,508.79C686.9,508.79 679.71,508.28 673.01,505.49C665.14,502.22 657.36,504.02 652.12,498.59C654.22,494.09 655.02,489.09 657.12,485.29C661.72,481.99 666.73,480.1 669.42,475.19C670.02,474.09 671.22,474.19 672.12,473.99C673.12,472.39 671.92,470.89 672.12,469.39C688.03,467.34 678.04,467.3 682.7,477.29ZM754.18,480.99C753.48,481.49 753.18,481.49 752.58,481.19C752.98,480.39 753.28,480.09 754.18,480.99ZM746.88,471.29C746.48,471.69 745.98,471.69 745.48,471.39C745.98,470.99 746.48,470.89 746.88,471.29ZM711.29,406.81C701.32,378.88 718.52,362.72 703.99,354.93C702.24,346.67 694.96,346.65 702.39,346.03C704.89,347.83 705.09,351.93 709.39,352.83C700.32,342.8 707.18,348.28 723.09,345.53C728.79,344.55 734.69,344.33 740.58,342.03C741.58,347.13 743.95,351.54 745.48,356.23C746.42,359.1 741.88,370.77 741.48,375.42C740.83,383.03 743.99,392.1 739.88,409.41C737.44,419.69 733.35,447.67 734.58,456.7C732.58,457.9 730.48,458.6 729.78,460.7C725.38,461.7 721.08,462.5 716.58,463.9C717.09,461 718.49,426.97 711.29,406.81ZM730.69,466.69C727.69,467.69 724.99,469.29 722.59,471.39C720.09,473.59 716.79,471.59 715.69,466.99C720.19,464.39 725.19,463.89 729.79,462.89C730.79,464.09 730.69,465.39 730.69,466.69ZM766.57,498.88C758.24,499.12 741.12,497.55 739.48,497.18C731.71,495.44 733.36,493.38 732.05,494.03C731.1,497.37 731.41,493.79 722.18,494.59C717.28,495.01 712.48,494.59 708.28,490.79C712.18,484.29 712.18,476.79 713.78,469.4C715.28,473.4 718.88,473.9 722.28,474.9C725.28,473 727.78,470.3 730.98,468.5C733.48,467.1 731.68,464.7 731.88,462.5C734.38,461.2 735.98,458.1 739.78,458.5C740.18,461.3 740.98,464 743.58,466.3C739.42,467.59 735.09,466.59 731.69,470.07C730.74,472.43 734.68,468.95 741.27,468.91C739.76,470.29 733.21,469.95 734.28,474.21C735.88,474.31 736.88,472.61 738.38,473.31C737.98,474.31 736.68,474.71 736.48,476.31C740.98,476.21 745.28,474.71 750.38,474.31C748.3,476.06 743.04,476.47 743.04,478.24C745.92,479.88 748.8,478.31 751.68,478.31C750.46,478.86 745.6,479.55 745.6,481.4C749.29,480.13 751.69,486 755.88,482.5C759.28,487 764.28,488.6 769.48,489.9C772.37,494.08 768.57,496.18 766.57,498.88ZM743.28,468.91L741.38,468.91C741.98,468.71 742.58,468.41 743.28,468.91Z" style="fill-rule:nonzero;"/>
        <path d="M695.32,341.12C696.44,342.16 696.78,342.25 695.32,341.12Z" style="fill-rule:nonzero;"/>
        <path d="M705.19,326.94L705.29,326.94C705.17,326.82 705.19,326.86 705.19,326.94Z" style="fill-rule:nonzero;"/>
        <path d="M893.54,245.96C889.14,246.47 884.64,246.86 880.04,247.26C865.15,182.72 801.69,189.89 791.47,242.76C790.66,246.96 790.57,251.26 789.97,255.76C783.87,256.26 777.87,257.26 771.88,257.36C768.96,250.22 767.72,249.14 768.38,245.26C770.15,234.94 766.98,246.79 766.98,215.37C766.98,212.79 770.77,205.95 772.28,203.87C776.19,198.48 771.68,201.98 776.28,192.97C778.54,188.55 779.27,183.56 782.58,179.57C787.52,173.61 785.54,160.71 779.78,155.78C782.28,152.48 782.6,148.78 782.78,145.18C783.23,136.24 787.07,139.76 783.08,128.78C783.58,134.68 780.88,140.18 780.78,145.97C780.68,152.07 777.58,157.37 775.78,162.66C756.71,162.66 775.03,162.44 778.58,167.76C778.88,165.26 777.48,164.56 776.68,163.16C778.48,162.26 778.28,160.16 779.08,158.26C781.7,160.88 786.52,172.64 777.4,182.82C777.31,182.35 777.6,181.75 777.08,181.15C776.38,181.75 775.78,182.25 776.28,183.35C778.59,182.79 776.31,183.01 774.98,188.65C774.17,192.1 770.6,204.07 767.48,206.74C766.88,193.94 769.78,181.65 767.28,169.65C767.98,168.55 769.18,168.75 769.38,167.75C768.58,166.95 767.38,167.35 766.58,166.75C765.68,165.85 766.38,163.65 764.18,163.65C763.47,165.07 766.15,171.39 765.68,177.75C763.54,206.4 768.43,212.01 757.38,218.74C734.64,232.6 737.39,229.74 735.89,231.74C730.48,238.9 722.62,240.46 719,244.84C705.35,261.3 679.16,262.08 677.51,260.44C672.56,256.08 665.84,259.97 664.41,251.14C670.71,254.14 677.01,255.94 683.6,256.54C681.76,254.7 672.3,254.94 663.01,249.34C659.58,247.27 657.69,245.35 650.81,221.05C650.61,220.35 650.31,219.65 650.91,218.95C663.46,207.95 665.01,197.48 669.8,198.36C668.7,203.46 670.7,208.06 670.8,212.96C674.6,211.87 667.51,208.41 680.9,214.86L680.8,214.96C683.01,213.49 688.06,218.39 701.99,213.36C710.34,210.35 729.08,188.02 720.58,168.77C715.7,157.71 722.31,170.6 710.48,148.08C712.88,147.58 714.87,147.38 716.18,150.08C721.65,161.39 724.67,173.37 727.38,185.47C730.93,201.35 737.36,199.53 740.58,202.26C740.28,203.66 739.08,204.56 738.98,206.26C740.78,205.06 741.28,203.26 742.48,202.06C753.29,201.34 765.92,189.54 763.57,176.77C762.8,172.57 762.67,168.27 760.87,164.27C766.86,162.47 766.07,162.86 766.07,161.97C764.47,162.07 763.27,160.87 761.57,160.97C760.97,161.57 761.26,162.55 759.77,162.97C757.78,163.53 756.02,165.14 756.17,167.77C757.41,167.9 758.3,166.95 759.47,166.47C760.07,168.27 760.87,169.77 760.67,170.67C756.87,174.87 751.67,175.37 748.07,178.67C752.97,178.37 756.47,174.97 760.77,173.17C762.07,182.67 760.79,187.98 754.97,193.26C751.88,196.07 748.27,198.46 743.27,198.16C744.87,194.76 745.37,191.46 745.47,188.06C743.57,191.16 743.47,194.96 741.57,198.06C739.17,197.86 736.6,198.44 734.97,196.36C729.66,189.59 728.97,181.46 728.17,172.87C736.68,176.89 745.65,176.15 731.87,173.17C727.98,172.33 726.77,170.67 727.27,166.67C730.37,166.27 733.67,166.67 736.47,164.87C732.87,163.47 729.67,165.77 726.07,165.67C724.67,159.47 720.47,154.47 718.07,148.18C729.04,148.18 735.35,148.72 738.16,136.98C739.46,137.68 739.66,139.08 741.06,139.68C741.76,139.38 743.16,139.98 743.36,138.08C742.16,137.48 739.96,137.98 740.46,135.58C741.16,135.38 742.06,135.68 742.76,134.68C743.06,133.48 742.66,131.88 743.46,130.48C744.76,131.78 744.56,133.48 745.56,134.98C748.76,127.88 751.46,120.58 755.96,114.29C758.46,114.99 759.06,112.49 760.96,111.89C760.26,110.49 759.66,109.29 759.16,108.29C758.06,107.89 756.86,108.49 756.26,107.09C757.56,105.19 758.56,107.29 759.66,107.49C761.36,107.79 761.66,109.49 762.36,110.59C763.86,110.29 762.96,109.09 763.26,108.79C769.26,106.59 775.26,110.39 781.45,107.99C781.25,112.89 782.95,117.19 783.75,121.49C774.85,125.29 774.55,127.49 776.35,131.89C777.15,130.99 776.35,129.69 777.45,128.59C779.35,129.39 781.25,128.29 783.05,127.79C783.95,126.49 784.05,125.19 784.35,123.89C784.85,122.29 785.94,120.7 785.15,119.09C783.23,115.2 783.85,110.89 783.15,107.19C785.05,104.29 788.15,103.69 790.45,101.39C790.05,100.29 790.55,99.09 790.55,97.99C789.25,96.99 787.75,97.99 786.55,97.29C787.15,95.99 789.15,96.19 789.15,94.39C787.25,92.39 785.65,94.49 783.75,95.09C784.29,83.72 782.09,91.45 779.05,92.29C778.75,91.79 779.35,91.09 778.95,90.89C775.05,89.49 771.94,92.82 768.05,91.89C764.44,91.02 760.55,91.69 756.85,91.69C755.75,92.69 755.75,94.69 753.95,94.39C753.55,93.59 754.45,92.29 752.55,92.09C750.55,94.79 747.75,96.49 744.05,96.59C742.35,95.59 741.15,93.19 738.55,94.49C738.45,96.19 739.95,96.59 740.35,97.89C738.25,98.79 739.15,101.69 737.35,102.89C738.55,103.09 739.65,102.89 740.65,102.69C742.79,104.3 741.83,105.01 742.15,104.69C742.15,104.74 742.18,104.76 742.2,104.78C742.06,104.77 740.49,104.91 738.15,106.69C738.05,105.29 739.45,105.09 739.45,103.89C739.15,102.99 738.05,103.29 737.35,102.89C735.45,103.29 737.65,104.29 737.15,105.29C735.86,107.19 733.21,114.7 732.25,122.98C731.89,126.08 733.35,129.58 731.15,132.28C732.25,137.48 732.15,142.28 728.65,146.78C723.55,145.58 718.56,146.65 713.55,147.08C712.15,147.2 710.47,146.03 708.65,146.58C701.47,148.77 698.78,150.32 692.65,147.68C690.35,146.69 687.85,145.41 685.45,145.48C679.75,145.65 674.44,147.57 670.85,152.18C665.94,158.5 656.85,151.22 643.46,163.28C642.8,163.94 625.87,173.63 625.77,173.68C619,177.16 609.41,191.25 617.07,184.38C629.72,173.03 640.88,168.31 649.16,162.09C658.05,155.41 662.66,159.24 672.33,154.79C671.31,156.5 669.64,157.88 669.35,160.09C671.65,156.69 676.25,155.59 678.75,151.49C676.23,151.49 675.18,153.05 673.75,153.66C682.13,143.73 691.14,150.09 701.44,151.29C703.54,150.49 705.84,149.19 708.64,148.79C712.04,155.29 715.34,161.89 717.74,169.18C715.94,168.78 714.84,168.58 713.74,168.28C717.65,173.17 719.09,165.92 719.94,182.98C719,183.45 718.5,182.52 717.78,182.65C718.23,183.66 719.75,183.62 720.04,185.38C718.44,190.68 715.73,195.97 712.64,201.08C712.04,202.08 711.14,201.58 710.34,201.68C710.84,209.28 691.85,217.18 680.75,212.08C680.15,211.18 680.55,209.58 679.15,209.18C677.85,209.48 679.15,210.88 678.25,211.28C673.75,209.48 672.95,208.38 672.55,204.78C671.94,199.28 673.75,195.48 679.45,193.48C682.5,193.82 682.98,193.63 685.35,197.38C685.85,198.18 687.24,198.48 687.05,199.68C686.63,202.38 688.95,204.48 688.85,207.18C688.75,208.08 689.65,209.18 690.85,209.48C693.64,205.93 690.39,203.95 689.45,196.48C688.91,192.16 681.47,189.77 677.15,190.78C676.28,196.87 652.68,200.01 646.06,199.08C645.26,197.48 644.56,195.78 643.66,194.08C641.84,191.05 641.37,192.39 640.86,191.88C642.06,195.38 643.97,198.68 645.06,202.28C649.81,217.95 649.74,236.4 663.95,256.06C667.48,260.94 668.85,266.66 672.35,271.56C669.65,273.76 668.45,276.86 666.15,279.66C665.95,277.96 667.25,277.36 666.85,275.86C664.05,278.26 663.05,281.66 659.75,283.06C659.95,283.46 660.25,283.96 660.45,284.36C670.64,278.57 671.43,279.31 694.04,277.36C693.71,278.51 692.21,278.51 693.34,279.26C697.94,277.16 702.84,275.96 708.74,276.26C704.24,278.96 699.74,279.76 696.14,282.46C701.64,280.56 707.94,280.56 712.14,275.56C713.24,275.56 714.44,275.16 715.84,275.76C717.54,278.16 720.14,280.26 719.04,283.96C721.25,288.38 722.2,287.17 716.64,289.16C718.84,289.66 720.74,288.96 722.64,288.26C727.21,291.07 721.23,290.38 728.94,300.66C729.4,297.44 726.54,294.27 726.94,291.96C727.97,286.1 720.82,287.41 722.44,281.66C723.3,278.62 718.33,276.47 718.14,275.16C748.92,272.15 745.2,272.3 746.33,272.86C748.62,274.66 750.12,277.84 753.91,276.96C753.86,277.41 753.77,277.9 754.33,278.06C761.91,280.16 764.8,273.01 768.53,273.86C769.43,272.56 769.53,271.06 770.83,269.86C777.23,269.26 783.83,268.36 790.32,268.06C792.49,270.47 796.18,321.81 847,314.25C864.55,311.64 875.1,294.68 879.19,277.26C884.42,254.99 875.19,260.48 889.49,258.37C896.57,257.32 897.98,259.11 899.69,253.17C900.95,248.93 897.84,245.47 893.54,245.96ZM780.17,125.7C780.97,125.4 781.57,125.1 782.27,125.6C781.67,126.4 781.07,126.1 780.17,125.7ZM785.37,99.9C786.71,98.78 788.41,99.89 785.77,102C785.27,101.2 785.27,100.5 785.37,99.9ZM780.97,93.51C781.77,94.81 780.97,95.31 780.27,96.11C779.97,95.01 780.27,94.31 780.97,93.51ZM771.77,105.9C770.47,105.9 769.77,105.5 768.77,104.7C770.07,104.7 770.87,105.1 771.77,105.9ZM765.67,104.1C765.16,103.59 766.67,102.93 766.67,104.7C766.17,104.4 765.87,104.3 765.67,104.1ZM767.17,96.61C766.67,97.61 765.67,98.21 764.77,98.81C765.07,96.71 765.07,96.71 767.17,96.61ZM740.68,125.8C742.98,126 742.98,126 743.28,129.2C741.68,128.6 740.78,127.6 740.68,125.8ZM753.38,112.6C754.68,113.6 753.78,114 753.08,114.7C752.78,113.8 752.58,113.2 753.38,112.6ZM751.88,97.6C751.48,98.5 751.08,99.1 749.88,99C750.18,98 750.68,97.6 751.88,97.6ZM752.98,103.2C752.38,105.5 750.98,106.4 749.58,107.2C749.88,105.3 751.38,104.7 752.98,103.2ZM748.08,118.4C748.38,119.4 747.78,119.7 747.28,120.1C746.38,118.4 747.58,118.7 748.08,118.4ZM743.98,119C744.18,118 744.48,117.3 745.98,117.9C745.18,118.7 744.78,119.1 743.98,119ZM742.24,104.79C742.49,104.96 743.8,104 744.89,104.2C745.5,104.98 744.83,107.15 742.09,104.8C742.17,104.8 742.22,104.8 742.24,104.79ZM740.98,116.4C741.78,117.7 740.48,118.6 740.48,119.6C740.38,118.6 739.78,117.5 740.98,116.4ZM737.48,128.7C738.78,128.7 739.28,129.4 739.78,130.3C739.28,131.2 738.68,132 738.58,133.3C737.48,131.79 735.98,130.59 737.48,128.7ZM735.98,133.29C737.4,133.29 736.43,135.5 735.78,134.19C735.58,133.89 735.58,133.59 735.98,133.29ZM733.88,132.59C734.28,133.19 733.76,133.77 733.58,133.49C733.27,133 733.28,132.69 733.88,132.59ZM646.71,200.97C652.31,202.67 657.51,200.97 663.2,200.07C658.9,205.47 656.4,211.77 650.4,216.17C649.61,210.67 647.31,206.17 646.71,200.97ZM715.49,252.26C721.89,248.53 720.9,246.09 723.39,244.96C728.4,242.69 732.61,239.18 736.49,235.46C739.71,232.38 743.39,231.46 747.09,229.66C751.84,242.12 752.38,242.63 750.99,244.46C747.14,249.5 743.59,254.56 741.59,260.76C732.99,261.56 724.6,262.36 715.8,263.26C715.4,259.26 712.5,258.06 709.1,257.66C710.79,255.06 713.09,253.66 715.49,252.26ZM702.69,259.26C703,259.26 715.9,256.52 700.99,262.36C701.39,261.16 703.19,260.96 702.69,259.26ZM708.69,261.16C710.49,260.47 711.89,260.66 712.39,263.36C706.79,263.96 701.39,264.46 696.09,264.96C703.82,259.29 696.93,265.68 708.69,261.16ZM669.8,261.36C670.6,260.86 671,261.56 671.6,261.96C670.8,262.25 669.9,263.05 669.8,261.36ZM670.5,263.55C674.5,264.75 678.1,265.45 681.8,264.35C680.2,263.95 678.6,263.55 676.6,263.05C692.62,263.35 697.82,262.63 684.1,264.35C682.98,266.37 689.12,265.73 672.9,267.05C671.6,266.25 671.3,265.05 670.5,263.55ZM670.7,277.25C673.8,272.75 673.8,272.75 673.7,269.65C677.5,268.65 681.5,268.69 685.5,268.35C747.36,263.05 754.21,259.49 749.88,269.65C723.39,272.25 697,274.75 670.7,277.25ZM767.47,267.35C768.97,268.25 769.37,266.65 770.57,266.15C769.47,268.45 769.07,270.75 767.27,272.95C766.57,270.95 768.57,270.05 768.37,267.95C764.97,270.25 764.67,274.75 760.87,276.45C761.37,273.65 763.57,271.95 763.77,269.35C760.97,271.15 760.27,274.65 757.77,277.05C757.12,277.23 754.07,276.94 754.12,276.89C755.24,275.46 757.81,272.79 759.17,269.75C756.07,270.45 755.47,273.85 753.47,275.55C751.17,276.35 750.77,273.85 748.97,273.55C755.52,266.14 749.84,260.01 743.27,260.45C748.11,256.77 745.21,252.9 748.87,250.45C756.46,245.37 753.91,233.32 748.07,228.76C764.21,222.06 764.66,213.69 764.66,219.66C764.66,243.59 767.6,240.17 765.76,246.25C765.26,247.89 765.47,247.88 771.66,263.34C770.07,264.55 768.27,265.35 767.47,267.35ZM771.87,267.45C773.07,265.05 774.47,262.95 772.87,260.45C775.59,259.57 804.67,256.92 823.65,255.25C830.79,254.62 831.8,262.44 824.85,262.75C818.22,263.05 777.08,267.45 771.87,267.45ZM834.05,271.25C828.2,277.28 820.65,273.53 817.65,265.75C820.34,264.91 833.36,265.28 831.85,256.95C830.79,251.12 822.98,253.01 817.45,253.45C815.53,253.45 818.2,247.8 821.05,245.15C832.32,234.71 845.55,259.42 834.05,271.25ZM834.75,245.06C841.75,249.66 843.15,263.05 837.05,270.35C841.15,261.06 840.75,252.76 834.75,245.06ZM793.37,271.65C792.82,266.74 789.14,268.12 815.56,265.65C818.61,271.07 821.34,275.78 828.46,275.65C842.76,275.39 845.62,258.69 839.76,248.06C834.28,238.13 820.79,238.27 816.07,249.56C813.85,254.86 818.97,253.22 792.18,255.66C791.37,247.72 794.24,232.03 802.28,220.07C825.3,185.8 870.68,210.43 869.96,262.36C869.09,324.15 806.43,333.08 793.37,271.65ZM873.44,288.55C864.68,309.56 852.13,310.81 844.85,313.24C875.08,296.89 878.58,253.06 862.74,225.37C852.4,207.28 840.7,205.61 836.45,203.18C872.74,204.73 887.61,254.58 873.44,288.55ZM881.14,257.06C880.44,254.66 880.44,252.46 880.44,249.96C893.25,248.6 897.02,247.07 897.73,251.36C898.59,256.46 893,255.77 881.14,257.06Z" style="fill-rule:nonzero;"/>
        <path d="M756.08,167.78L756.18,167.88C756.18,167.76 756.2,167.78 756.08,167.78Z" style="fill-rule:nonzero;"/>
        <path d="M717.69,182.68C717.86,182.61 717.85,182.71 717.79,182.58L717.69,182.68Z" style="fill-rule:nonzero;"/>
        <path d="M427.58,328.73C423.18,329.41 418.68,329.83 414.08,330.33C398.9,264.56 325.66,271.78 324.41,340.43C317.81,341.33 311.51,342.23 305.22,342.53C304.12,340.03 303.2,337.94 302.22,335.83C299.18,329.27 304.13,329.59 301.22,323.13C298.75,317.66 299.69,302.85 300.92,294.24C303.23,278 299.8,280.57 301.32,271.65C301.64,269.75 302.81,263.88 301.52,262.55C299.53,260.49 300.68,258.3 298.72,251.45C296.58,243.96 296.22,235.96 299.12,227.06C301.57,219.53 294.36,221.29 299.12,211.96C304.71,201.01 305.49,187.46 303.62,181.67C302.36,177.76 299.02,175.67 296.82,172.37C298.62,170.07 298.6,167.16 299.92,164.77C303.87,157.62 301.42,154.17 304.22,147.28C305.55,143.99 304.32,140.78 303.12,137.78C301.52,149.28 300.92,160.97 295.52,171.67L288.02,171.67C289.12,172.57 290.42,173.49 291.52,173.37C301.22,172.26 302.46,186.76 301.82,196.56C301.11,207.35 293.55,213.16 296.62,220.45C298.28,224.4 296.48,230.73 295.92,230.45C295.52,230.15 295.42,229.35 294.72,229.45C294.12,229.75 294.13,230.45 294.32,230.85C296.05,234.5 293.68,237.64 294.52,243.15C296.75,257.68 301.63,262.46 299.42,269.84C297.4,276.59 301.92,274.1 298.52,295.43C295.48,314.5 300.84,322.26 298.12,323.42C298.62,324.72 299.42,325.92 300.72,326.82C298.02,334.72 303.32,341.02 304.92,347.91C299.52,350.71 299.72,357.81 294.42,360.71C294.52,357.91 297.12,356.41 297.32,353.11C294.12,355.71 293.42,359.41 290.92,361.71C284.23,361.71 289.78,362.35 292.72,354.51C289.62,355.71 289.02,359.01 286.82,360.81C284.82,360.91 284.32,359.01 282.82,358.41C284.82,355.81 286.7,353.32 285.02,349.91C283.4,346.62 281.32,344.31 276.82,346.01C279.42,343.31 279.99,340.1 280.82,336.91C281.26,335.24 287.85,333.6 287.22,326.41C283.53,284.12 268.98,271.18 277.12,247.03C275.22,242.93 273.22,239.33 273.92,235.23C290.34,223.37 286.11,221.58 293.71,210.34C294.32,209.44 294.61,208.34 292.91,207.64C291.11,210.64 289.71,214.04 287.11,216.74C286.81,204.04 289.71,191.65 287.11,179.35C287.51,178.15 289.11,178.55 289.31,177.35C288.61,176.35 287.41,177.05 286.41,176.35C285.74,175.1 285.69,173.13 283.65,172.8C285.64,180.42 286.28,188.03 285.11,195.84C282.14,215.76 295.91,221.71 258.52,238.83C254.09,240.86 257.97,242.65 241.93,251.13C237.13,253.67 237.56,262.44 211.24,263.83C207.64,264.02 207.64,264.03 204.74,261.03C211.74,250.73 216.04,239.54 215.44,226.54C220.84,228.14 225.54,232.94 231.93,230.04C225.83,230.44 221.33,225.94 215.44,224.74C217.14,224.14 218.72,223.7 220.24,223.04C232.99,217.49 241.37,199.2 242.03,194.75C244.03,181.42 238.1,169.42 230.43,157.26C233.83,155.96 234.94,156.35 236.43,159.46C250.3,188.42 243.36,205.34 259.92,210.34C266.25,212.25 283.83,204.86 283.51,187.45C283.42,182.75 283.21,177.75 280.91,173.45C281.81,172.55 282.81,172.75 283.51,172.25C283.55,172.38 283.57,172.52 283.61,172.65C284.24,171.95 285.45,172.69 286.21,171.45C284.41,171.35 283.11,170.05 281.61,170.25C280.61,173.15 275.71,172.75 276.31,176.65C277.61,177.35 278.31,176.05 279.41,176.15C280.11,177.65 280.61,179.15 280.61,180.25C276.81,184.05 271.61,184.95 267.91,188.15C272.71,187.75 276.31,184.45 280.41,182.75C285.05,197.19 271.43,208.62 263.22,207.44C264.82,204.04 265.22,200.84 265.42,197.54C263.42,200.54 263.52,204.34 261.52,207.34C259.02,207.44 256.42,207.94 254.72,205.74C249.5,198.96 248.72,190.94 248.12,182.35C258.91,186.85 262.73,184.91 252.82,182.75C248.13,181.73 247.52,181.25 246.72,176.35C249.72,174.85 253.62,176.55 256.92,173.95C252.82,172.75 249.72,175.25 246.02,174.85C244.52,168.75 240.42,163.75 238.12,157.76C248.07,157.4 249.4,158.24 252.42,155.36C253.5,154.33 254.42,153.56 256.42,153.96C255.72,150.86 257.92,148.86 258.12,146.06C261.22,149.66 261.42,149.76 263.42,147.46C262.22,146.86 260.32,146.96 260.32,144.96C261.12,144.76 262.12,145.16 262.82,143.96C262.42,142.46 263.52,140.86 263.22,139.06C262.42,137.66 260.12,137.06 261.22,134.76C264.22,137.06 263.82,140.96 265.32,144.56C267.92,141.16 268.38,137.24 269.92,133.86C271.57,130.24 274.22,127.26 275.62,123.46C278.32,124.06 279.32,121.96 281.12,120.86C280.14,119.59 279.65,118.32 279.25,116.95C281.42,116.48 281.73,118.46 282.92,120.26C284.14,113.52 293.26,120.15 302.01,117.06C301.11,122.06 303.41,126.36 303.91,130.66C295.61,134.56 294.51,136.06 296.61,141.06C297.61,140.06 296.71,138.56 297.61,137.66C300.11,138.06 300.11,138.06 303.81,136.56C304.11,133.86 306.42,130.96 305.41,128.36C303.82,124.26 304.31,120.06 303.31,116.26C305.11,113.26 308.41,112.66 310.61,110.36C310.11,109.16 310.91,107.96 310.61,106.86C309.01,105.76 307.51,106.96 306.01,106.46C306.91,105.06 309.31,105.46 309.21,103.16C307.21,101.66 305.71,103.36 304.11,104.06C303.71,101.86 304.91,99.56 303.11,97.66C301.71,99.06 300.81,100.76 298.61,101.46C300.85,98.72 296.16,99.09 294.81,99.86C293.29,100.73 291.11,101.46 289.91,101.16C285.61,100.07 281.41,101.06 277.21,100.86C275.91,101.26 276.21,103.26 274.51,103.16C273.61,102.66 274.61,100.96 272.81,100.96C270.61,103.46 268.01,105.36 264.21,105.36C262.51,104.46 261.31,101.96 258.71,103.36C258.61,104.96 260.11,105.36 260.51,106.46C257.01,111.86 250.41,128.25 252.51,139.05C249.25,141.22 255.14,147.88 248.71,155.25C238.07,153.26 236.06,156.73 233.51,155.65C226.69,152.75 204.59,164.18 204.59,167.07C204,165.74 180.32,176.35 180.93,200.24C175.31,207.55 167.32,218.7 158.94,222.63C156.75,223.66 154.24,225.03 153.64,227.43C152.25,232.98 141.24,232.98 140.94,237.73C140.65,242.33 137.96,246.23 137.24,250.73C135.38,262.42 134.35,260.75 133.34,266.63C130.87,281.07 136.79,293.21 139.94,307.22C149.83,351.22 152.32,350.3 151.24,357.1C150.25,361.07 160.99,355.58 166.84,357.3C167.22,358.45 169.47,358.07 139.15,361.4C138.27,360.23 138.98,362.62 137.35,354.9C121.38,279.06 40.79,289.66 39.98,367.1C39.96,369 40.38,370.9 39.48,372.8C28.18,373.8 17.09,376 5.79,376.2C2.46,376.26 -4.2,383.26 3.69,389C16.09,388.7 28.38,386.2 40.58,385.4C41.9,386.88 47.29,436.53 83.87,441.38C124.4,446.75 137.43,414.7 139.65,373.9C182.51,369 169.8,368.51 167.04,378.1C160.64,400.31 158.4,399.28 176.54,465.27C176.84,466.37 176.84,467.77 178.44,467.97C180.27,463.4 161.05,409.96 165.44,394.09C167.71,385.88 172.44,378.59 173.94,370.4C175.54,369.4 176.64,370.4 177.94,370.8C180.67,366.53 185.2,373.71 185.74,363.5C184.74,363 184.44,364.5 183.44,364C183.64,362.8 183.06,361.69 182.54,360.6C175.44,345.56 186.44,343.71 183.34,333.71C183.26,333.41 184.59,329.05 181.94,323.61C177.77,315.06 181.17,303.77 178.54,301.62L178.54,311.72C176.84,308.02 175.74,289.83 176.84,285.93C177.64,287.33 176.84,289.33 179.04,290.83C179.24,287.43 178.39,284.44 178.74,281.43C179.1,278.34 180.14,275.33 179.94,272.43C179.44,271.53 178.54,272.13 178.04,271.33C178.84,267.93 179.94,264.43 178.44,260.63C180.54,256.93 179.69,252.34 180.64,248.03C182.4,240.08 172.72,228.09 184.94,239.63C185.24,236.93 185.04,236.13 183.64,235.43C176.91,232.06 178.62,218.08 182.04,211.44C185.3,205.13 181.51,205.74 183.94,195.54C188.93,174.58 200.68,173.83 204.72,167.26C206.83,167.86 220.64,159.33 228.72,157.45C242.39,184.79 236.24,175.63 234.02,177.44C235.22,178.74 237.02,178.94 238.32,179.84C242.02,192.54 240.45,197.09 233.02,209.23C229.18,215.5 223.92,220.63 216.13,221.73C215.73,220.33 217.43,219.43 216.43,218.13C209.87,221.99 217.6,241.16 203.03,259.32C199.05,252.69 205.46,269.91 201.93,284.01C201.9,284.11 196.74,309.2 196.73,309.3C196.03,315.79 195.28,341.67 199.63,345.69C204.35,350.06 200.9,350.09 205.13,357.49C205.93,358.89 207.13,360.19 207.13,362.29C204.63,363.99 203.83,367.29 201.53,369.59C200.93,368.29 202.83,367.59 201.83,366.29C199.33,368.39 198.33,371.79 194.83,373.39C198.54,375.53 203.33,366.51 199.13,380.79C198.19,383.98 195.84,386.59 196.03,390.19C196.13,392.09 197.14,393.69 197.33,395.39C198.05,401.96 194.06,406.91 193.83,411.19C193.04,425.91 190.11,433.56 191.23,443.18C192.09,450.57 194.13,457.78 195.13,465.17C192.83,466.27 189.84,465.48 188.03,466.87C184.85,469.31 177.82,469.98 177.03,470.77C172.03,479.77 170.83,489.56 166.73,498.56C170.73,502.56 174.83,506.06 180.93,505.86C190.4,505.54 195.24,512.39 214.72,510.16C215.82,510.03 217.12,510.06 217.52,508.66C216.62,507.16 215.12,508.56 214.02,507.46C220.74,506 221.38,505.37 220.12,507.26C220.74,508 224.12,507.52 225.02,507.36C233.77,505.84 228.82,497.53 225.92,496.86C218.49,495.16 211.09,488.44 208.73,483.86C206.99,480.48 205.43,476.76 201.63,475.46C201.33,471.66 202.43,468.26 201.13,465.06C199.73,464.46 198.43,465.26 197.03,464.46C196.22,453.1 190.21,446.08 194.23,426.37C195.54,419.97 195.24,413.38 197.53,407.18C200.8,398.34 197.58,388.36 201.63,377.49C206.92,363.26 199.3,367.11 225.42,363.99C226.22,366.19 225.54,368.09 224.92,369.79C221.17,380.13 221.7,397.29 223.92,402.18C231.7,419.31 230.1,438.1 231.22,459.36C231.63,467.1 226.72,471.8 226.52,479.45C226.29,488.24 218.24,491.31 227.32,494.55C236.16,497.71 241.24,496.43 248.31,495.55C240.85,491.25 234.31,497.83 225.62,490.55C227.42,483.63 229.27,483.45 229.02,481.25C228.52,476.94 230.52,473.15 230.82,468.85C232.52,472.85 236.12,473.35 239.32,474.35C242.22,472.85 244.02,470.15 246.92,468.85C250.33,467.32 249.22,465.78 249.22,462.05C251.72,460.65 253.32,457.75 257.02,458.15C257.12,461.15 258.82,463.55 260.42,466.05C249.52,468.35 249.52,468.35 249.22,470.65C254.12,468.95 255.12,468.85 257.42,469.15C251.62,470.85 251.12,471.35 252.12,474.05C261.37,470.09 253.93,473.71 253.82,475.95C258.22,475.85 262.52,474.15 267.02,474.45C264.82,475.85 261.82,475.35 260.22,477.95C261.46,478.73 263.31,478.85 264.94,478.74C264.93,478.74 264.92,478.74 264.92,478.75C264.62,479.65 262.72,479.55 263.02,481.35C264.22,482.45 266.04,481.13 267.32,482.45C269.05,484.23 271.02,484.15 273.12,482.45C280.31,492.81 294.53,485.33 283.72,498.85C278.52,499.55 273.42,498.79 268.22,498.35C261.82,497.8 254.92,498.65 249.23,493.85C247.38,497.56 255.58,499.46 259.33,499.75C273.72,500.87 288.45,504.34 289.82,493.35C290.96,484.25 279.66,490.66 271.33,476.56C266.15,467.79 261.69,468.94 262.33,462.06C263.07,454.19 254.88,456.29 254.03,455.76C253.62,451.12 255.28,425.97 257.93,416.37C267.14,383.02 255.72,385.41 265.03,359.99C279.11,358.49 280.69,357.43 282.42,359.89C284.1,362.27 287.23,362.07 286.82,362.49C287.36,362.01 288.69,364.12 291.62,362.89C294.1,361.85 297.1,361.78 298.72,359.09C299.51,357.78 301.02,359.09 301.92,358.49C305.85,354.12 296.55,355.87 324.81,352.59C326.72,354.33 326.95,369.91 339.91,384.98C352.81,399.98 365.29,400.5 382.2,397.78C401.01,394.75 411.36,375.6 414.49,356.79C417.53,338.55 408.51,343.14 431.98,340.1C432.68,338.4 433.46,336.99 433.88,335.4C434.92,331.52 431.57,328.12 427.58,328.73ZM299.62,135.09C300.62,134.29 301.32,133.89 302.52,134.39C301.51,135.39 300.72,134.79 299.62,135.09ZM307.21,108.4C307.31,109.4 306.41,109.8 305.91,110.5C305.31,108.7 305.31,108.7 307.21,108.4ZM300.62,102.3C301.92,103.5 300.92,104 299.82,104.4C300.02,103.8 300.32,103.1 300.62,102.3ZM291.82,114.9C290.82,115.1 290.52,114.5 289.82,114.3C290.82,113.8 291.22,114.1 291.82,114.9ZM286.22,113.2C284.67,112.68 285.64,112.13 285.92,112.2C286.12,112.2 286.32,112.6 286.52,112.9C286.42,113 286.32,113.1 286.22,113.2ZM286.82,105.4C286.22,106.6 285.42,107.1 284.52,107.7C284.32,106 284.82,105.1 286.82,105.4ZM279.02,116.5C278.02,117.2 277.02,117.2 275.82,116.1C277.22,114.6 278.12,114.7 279.02,116.5ZM260.33,128.6C260.03,127.5 259.73,126.3 260.93,125.1C261.53,126.6 260.53,127.6 260.33,128.6ZM273.22,121.4C275.02,122.5 273.12,122.9 272.82,123.5C272.52,122.7 272.42,122 273.22,121.4ZM271.22,106.2C271.91,107.01 270.92,108.25 269.82,107.7C269.92,106.8 270.72,106.7 271.22,106.2ZM272.42,112.3C273.09,113.31 273.58,112.17 269.22,116.2C269.52,114.1 271.42,113.6 272.42,112.3ZM268.23,126.9C268.23,128.2 267.73,128.8 266.73,128.9C266.33,127.6 267.13,127.3 268.23,126.9ZM263.93,127.8C263.83,126.9 264.23,126.5 265.43,126.6C265.13,127.4 264.63,127.7 263.93,127.8ZM259.93,111.5C261.43,111.3 261.43,112.8 262.33,113.2C263.23,113.8 263.93,112.6 264.83,113C265.43,113.7 264.93,114.2 264.23,114.9C262.03,113.2 260.03,113.8 257.93,115.2C259.33,114.2 259.13,112.5 259.93,111.5ZM257.63,137.39C258.73,137.49 259.13,138.19 259.63,138.99C259.63,140.09 257.63,140.39 258.43,141.89C257.33,140.39 255.43,139.09 257.63,137.39ZM255.83,142.09C256.53,142.39 256.93,142.69 256.53,143.59C255.53,143.39 255.83,142.79 255.83,142.09ZM3.71,386.32C1.41,383.32 1.51,382.52 4.61,379.52C7.61,381.62 8.87,385.52 3.71,386.32ZM8.7,386.62C9.9,383.62 9.9,383.52 8,378.92C91.82,369.61 89.72,366.89 87.98,376.12C83.64,379.09 8.81,386.61 8.7,386.62ZM88.18,380.02C93.28,372.52 91.68,368.82 83.18,367.52C91.14,356.7 102.61,378.09 89.88,382.92C88.88,382.12 88.78,380.92 88.18,380.02ZM89.58,405.41C89.56,405.3 86.18,385.69 85.98,380.42C100.39,404.08 90.5,411.78 89.58,405.41ZM84.28,380.82C79.68,389.12 78.78,398.31 77.18,407.31C66.43,403.33 72.31,393.85 80.48,381.92C81.3,380.73 82.48,380.32 84.28,380.82ZM43.19,385.32C48.02,384.63 46.96,383.99 48.09,389.62C51.79,407.98 66,435.35 84.68,434.41C86.98,434.29 89.38,434.61 91.68,432.61C89.88,432.81 88.38,432.83 87.08,433.11C68.79,437.08 50.43,402.21 49.39,384.52C58.89,383.42 68.38,382.32 78.68,381.12C68.54,392.88 71.61,394.01 67.98,396.92C67.03,397.68 67.76,407.04 75.98,410.32C82.38,412.87 78.45,406.14 83.68,387.13C85.34,381.09 83.7,389.34 85.48,401.43C85.77,403.38 83.77,408.19 88.98,410.83C98.88,415.85 100.27,396.73 90.98,384.74C108.67,376.25 89.27,350.06 80.08,368.44C69.68,369.64 59.19,370.84 48.49,372.04C47.69,368.84 48.27,365.84 48.49,362.94C51.07,329.47 70.88,311.07 82.98,314.05C86.68,314.96 90.58,314.65 94.28,315.75C92.98,313.65 90.77,313.98 89.08,313.45C63.13,305.31 46.54,340.15 46.39,367.33C46.36,373.47 46.98,372.09 42.49,372.73C41.66,368.03 42.22,345.69 52.69,327.24C84.1,271.9 144.48,341.09 118.27,411.51C101.34,457.01 52.74,445.94 43.19,385.32ZM92.88,440.6C142.41,423.39 134.22,316.7 85.68,305.64C149.44,301.17 157.81,437.87 92.88,440.6ZM155.06,235.26C154.16,234.96 154.06,234.26 153.96,233.56C155.16,233.56 155.26,234.26 155.06,235.26ZM153.96,231.26C154.06,232.21 154.06,232.88 154.06,233.47C153.57,233.52 152.44,233.82 153.16,235.26C155.53,239.97 157.54,244.8 163.06,246.96C165.15,247.78 166.66,249.86 168.66,250.66C169.06,251.56 167.96,251.46 168.06,252.56C170.46,254.96 173.36,257.46 176.46,259.56C176.86,260.56 176.06,260.96 176.06,261.76C167.22,259.99 162.42,259.65 158.57,252.16C157.56,250.2 156.78,249.43 156.88,249.33C163.05,249.45 151.33,249.15 150.87,235.16C146.86,238.44 149.96,242.12 152.17,246.36C149.27,245.06 146.37,243.66 143.57,242.36C142.83,235.02 150.16,236.47 153.96,231.26ZM182.35,366.62C168.05,368.42 153.96,370.02 139.66,371.62C139.46,369.12 139.26,366.82 139.06,364.02C185.6,358.85 179.68,356.7 182.35,366.62ZM170.35,266.95C171.95,268.35 173.95,268.35 175.75,269.15C176.15,271.55 175.15,273.65 174.95,276.35C172.81,276.4 162.65,276.64 162.65,278.85L174.35,278.85C173.9,293.17 171.46,286.68 166.15,291.75C168.75,292.05 170.65,290.35 173.15,290.25C173.5,308.61 177.54,304.89 168.45,310.94C171.35,311.94 172.85,309.74 174.75,309.04C180.37,330.94 183.83,338.58 179.05,345.83C176.67,349.44 178.45,353.03 178.95,356.93C175.55,357.03 172.15,358.63 168.55,356.83C170.45,354.83 171.55,357.03 172.95,357.03C174.15,356.93 173.35,355.93 173.75,355.33C174.95,354.73 176.85,355.13 178.15,352.83C169.95,353.13 162.35,355.43 154.26,355.43C152.83,340.94 146.51,334.69 144.06,311.04C142.24,293.43 132.38,284.81 135.66,265.85C137.25,256.66 138.64,263.32 139.96,251.85C140.26,249.25 140.86,246.95 142.96,244.65C148.36,247.85 154.75,249.66 158.66,255.15C166.02,265.49 168.8,258.45 142.17,258.45C141.17,257.45 143.21,256.27 141.47,255.75C138.47,262.15 138.67,268.85 138.57,276.14C144.41,268.59 167.89,272.71 169.66,271.74C159.62,269.46 149.76,270.22 139.57,272.44C139.17,268.24 139.87,264.24 140.97,260.24C164.3,260.24 166.28,264.91 165.96,262.04C171.35,263.26 176.22,263.56 176.66,267.64C174.55,267.05 172.65,266.45 170.35,266.95ZM177.85,257.76C176.65,257.46 176.15,256.66 175.15,255.76C176.15,255.46 176.85,255.26 177.55,254.96C178.45,255.86 177.75,256.76 177.85,257.76ZM177.05,219.87C176.46,224.57 176.95,229.57 174.85,233.67C177.95,239.27 177.75,245.37 179.05,251.06C179.15,252.06 179.05,252.06 177.85,253.96C172.35,249.46 166.2,246.43 161.85,240.86C158.35,236.37 155.67,227.79 160.65,225.06C163.24,223.64 165.43,221.85 167.45,219.46C169.23,217.35 171.84,215.96 173.65,213.66C178.65,207.3 178.56,205.66 180.95,205.66C180.45,210.67 177.66,214.97 177.05,219.87ZM179.15,472.49C181.75,471.69 184.35,470.89 187.35,469.89C187.55,473.59 181.65,472.99 183.05,476.79C177.18,480.38 178.23,480.27 177.45,479.49C179.35,477.59 179.35,475.19 179.15,472.49ZM175.55,480.19C176.05,480.59 176.15,481.19 175.65,481.99C174.85,481.19 174.85,480.69 175.55,480.19ZM222.14,505.88C223.94,504.98 225.14,503.98 227.54,504.58C225.64,505.68 224.14,505.98 222.14,505.88ZM198.95,467.89C197.95,471.19 198.85,474.09 199.55,477.09C195.85,478.49 191.35,477.49 188.35,481.89C191.85,481.79 194.35,480.09 197.65,480.39C194.35,481.59 190.95,481.59 188.45,484.49C191.35,485.39 193.85,484.09 196.35,483.99C196.25,485.29 194.05,484.89 194.35,486.79C198.25,487.29 201.95,485.39 205.85,485.19C202.85,487.19 198.25,485.99 195.85,490.09C198.45,490.59 200.65,490.19 202.95,489.69C202.95,490.89 201.55,490.79 201.45,491.89C204.75,493.69 208.35,494.59 212.35,494.59C212.55,493.09 210.45,492.59 211.35,491.29C210.65,491.59 209.95,491.69 209.45,490.79C210.45,489.89 210.75,490.99 211.35,491.29C223.49,500.81 226.29,496.77 227.75,502.59C212.8,507.79 213.22,504.01 211.35,508.49C204.05,508.49 196.95,507.99 190.16,505.19C182.31,501.95 174.47,503.69 169.17,498.39C171.17,493.89 171.97,488.89 174.47,484.59C178.87,482.99 181.88,479.51 185.57,476.99C186.87,476.1 186.57,473.19 189.07,473.89C190.27,472.19 188.87,470.69 189.47,469.09C192.45,468.69 195.45,468.29 198.95,467.89ZM197.75,392.72C196.75,391.92 197.55,391.22 197.85,390.72C197.85,391.32 197.75,391.92 197.75,392.72ZM271.72,481.19C270.72,481.29 270.32,481.29 269.92,481.29C270.32,480.39 270.32,480.39 271.72,481.19ZM263.93,471.19C263.53,471.59 263.03,471.59 262.53,471.19C263.03,470.89 263.53,470.69 263.93,471.19ZM261.03,468.59C260.63,468.79 260.23,468.89 259.83,468.49C260.23,468.39 260.63,468.09 261.03,468.59ZM216.44,266.15C204.09,270.95 205,271.78 204.64,266.45C208.64,266.65 212.44,266.05 216.44,266.15ZM204.04,262.95C205.21,262.95 205.61,263.95 205.04,263.95C204.44,263.95 203.94,263.85 204.04,262.95ZM221.24,325.84C218.84,321.84 207.74,313.34 200.05,309.54C199.85,308.34 199.95,307.24 200.45,305.74C209.05,306.94 217.64,308.14 226.14,309.54C218.14,306.04 209.45,305.74 200.75,304.24C201.35,293.94 206.15,284.25 204.95,273.95C211.15,270.55 217.95,268.85 224.04,265.15C225.74,266.95 228.34,266.95 231.14,266.95C230.04,271.75 228.54,276.45 235.44,278.75C229.84,280.45 225.54,282.75 221.64,286.15C216.44,284.55 211.34,282.95 205.94,282.15C205.43,285.36 211.75,284.94 220.54,288.95C222.13,289.68 223.23,288.94 224.44,288.05C241.9,275.15 235.64,282.48 236.24,283.85C238.66,289.39 242.18,287.9 241.74,290.85C241.13,294.95 243.84,297.55 245.94,300.95C247.07,298.36 243.73,295.12 244.14,290.65C244.55,286.26 237.92,286.97 239.44,282.05C240.88,277.39 232.94,275.51 231.74,273.35C231.84,270.95 233.14,268.65 233.54,266.45C232.94,264.65 231.24,265.15 229.94,264.45C232.59,261.96 238.52,260.32 241.24,255.45C242.82,252.63 240.66,257.12 257.54,243.15C258.73,242.16 259.12,241.77 259.22,241.64C259.28,241.77 260.5,241.63 271.23,235.86C272.41,244.15 274.49,244.64 272.83,256.35C269.16,282.27 292.44,319.01 281.63,332.83C268.55,349.55 284.09,344.96 262.54,347.73C259.34,345.43 259.66,341.72 258.44,338.83C255.78,332.52 253.72,326.03 252.94,319.14C252.33,313.74 250.48,314.55 250.24,309.24C250.11,306.34 248.64,303.74 245.94,301.94C250.94,314.54 251.44,327.83 256.54,340.33C240.64,344.03 224.95,344.93 209.15,343.13C205.85,337.33 205.55,330.93 203.75,324.44C206.05,325.94 207.35,328.14 209.95,329.04C208.65,327.14 207.15,325.64 205.55,324.44C200.21,320.44 203.27,314.55 199.25,312.54C199.25,309.13 200.81,310.37 221.24,325.84ZM222.54,346.23C235.14,346.23 248.63,344.63 257.23,342.03C258.53,343.63 258.33,345.73 259.53,348.03C208.87,353.79 223.66,353.46 215.74,346.33C217.24,346.13 218.24,346.03 219.24,345.93C220.74,346.53 221.04,348.43 222.64,348.63C223.64,347.83 222.04,347.03 222.54,346.23ZM200.25,342.83C197.85,331.45 197.33,316.19 199.15,312.54C198.93,316.47 203.19,332.44 205.05,345.43C205.94,351.71 201.47,348.61 200.25,342.83ZM205.64,353.93C204.74,352.83 204.34,351.83 204.04,350.33C211.44,351.92 206.99,348 208.24,345.03C209.64,345.53 211.14,345.83 212.74,345.83C214.54,347.93 216.54,349.83 217.94,352.33C215.66,353.24 207.6,353.93 205.64,353.93ZM239.73,471.29C237.21,473.36 234.23,471.59 232.93,466.89C237.43,464.29 242.43,463.79 247.13,462.79C247.93,464.09 247.73,465.29 247.93,466.59C244.83,467.59 242.21,469.26 239.73,471.29ZM260.43,367.22C255.32,378.65 262.3,386.82 256.43,410.71C253.01,424.61 251.18,450.16 251.73,456.6C242.91,462.17 252.23,459.17 233.74,463.6C233.91,462.32 235.65,427.1 228.04,405.92C223.96,394.56 225.91,393.05 225.24,384.93C224.29,373.35 226.19,375.6 227.74,364.24C239.04,362.14 250.13,361.64 261.43,360.04C261.93,362.72 261.32,365.22 260.43,367.22ZM208.54,363.72C209.76,352.78 188.37,358.39 281.92,347.82C284.62,350.92 284.62,350.92 283.12,355.12C258.53,357.93 233.74,360.83 208.54,363.72ZM300.62,356.83C300.92,354.83 301.92,353.13 303.12,351.53C303.01,353.73 302.21,355.43 300.62,356.83ZM307.51,352.33C302.54,353.03 307.93,351.43 306.81,345.13C357.29,339.12 364.26,337.1 363.89,342.83C363.65,346.68 366.39,344.07 307.51,352.33ZM369.19,354.63C362.96,361.97 354.54,356.45 352.5,349.73C355.9,348.93 359.19,349.02 362.3,347.73C366.89,345.82 367.84,340.48 364,337.43C361.79,335.68 359.63,336.71 351.2,337.53C352.75,328.67 360.1,323.46 366.8,328.93C373.67,334.56 374.98,347.81 369.19,354.63ZM369.09,328.53C376.44,332.54 377.9,349.79 370.99,355.32C371.18,354.01 377.95,346.91 371.39,331.23C370.29,330.63 369.69,329.53 369.09,328.53ZM327.71,353.73C327.71,351.7 325.8,353.07 350.4,349.83C351.8,352.43 352.97,354.76 355,356.63C360.82,362.01 370.09,360.73 374.29,353.93C378.68,346.83 377.98,336.04 372.59,329.64C366.38,322.25 355.7,323.39 351.3,331.94C347.51,339.31 354.82,337.24 326.41,340.44C326.88,322.85 332.04,304.42 345.6,294.45C389.07,262.5 428.94,353.3 387.89,389.52C366.76,408.16 335.73,393.83 327.71,353.73ZM403.78,381.22C396.45,392.92 384.66,396.6 383.09,395.62C383.09,394.07 401.13,387.42 405.58,357.73C410,328.25 397.42,294.37 369.49,286.95C408.97,287.26 425.91,345.93 403.78,381.22ZM429.18,338.03C424.68,338.62 420.18,339.03 415.48,339.63C415.18,337.03 414.88,335.03 414.68,332.73C419.38,331.83 423.98,331.45 428.58,331.03C433.6,330.58 433.31,337.49 429.18,338.03Z" style="fill-rule:nonzero;"/>
        <path d="M181.85,370.02C182.05,372.02 183.35,373.32 185.05,373.52C188.65,373.72 188.75,377.12 190.55,378.82C190.45,379.82 189.15,380.22 189.65,381.62C193.75,384.92 191.25,390.52 193.35,394.82C194.25,388.02 192.05,381.82 190.25,375.53C194.55,374.03 195.35,369.73 197.45,366.53C192.9,368.68 193.69,375.02 189.05,373.13C190.45,370.83 192.65,369.23 192.75,366.13C191.15,367.03 190.66,368.33 189.95,369.33C185.4,375.75 184.2,368.68 181.85,370.02Z" style="fill-rule:nonzero;"/>
        <path d="M692,282.25C691.3,282.85 692.1,284.05 690.9,284.55C684.5,283.95 678.3,281.25 671.71,280.55C671.71,283.33 698.33,288.36 702.6,290.65C703.7,291.24 705,291.25 706.2,290.35C702,288.05 697.2,287.45 693.2,285.15C692.7,284.15 692.9,283.05 692,282.25Z" style="fill-rule:nonzero;"/>
        <path d="M658.91,294.05C676.17,293.01 696.64,303.67 718.69,303.25C708.57,300.44 698.13,301.16 688.1,297.65C685.96,296.9 665.2,292.81 662.81,292.45C659.1,291.88 656.36,294.05 658.91,294.05Z" style="fill-rule:nonzero;"/>
        <path d="M662.41,456.6C662.81,456.6 663.21,456.5 663.61,456.5C662.31,443.7 665.11,430.71 662.21,417.91C660.01,425.91 662.98,433.9 662.11,441.9C661.59,446.7 662.31,451.7 662.41,456.6Z" style="fill-rule:nonzero;"/>
        <path d="M287.82,137.09C287.72,134.79 289.92,135.39 291.32,134.79C291.53,130.28 285.18,131.33 283.32,131.09C280.52,130.72 278.62,131.79 276.72,133.79C278.62,134.39 279.42,132.89 281.22,132.59C282.62,133.79 284.92,132.69 286.42,134.19C283.82,135.19 280.72,134.49 278.52,136.69C281.52,137.29 284.42,137.49 287.82,137.09Z" style="fill-rule:nonzero;"/>
        <path d="M768.07,128.1C767.87,125.8 769.87,126.4 771.57,126C769.97,120.9 761.67,120.5 756.97,125C758.77,125.6 759.77,123.8 761.47,123.7C762.77,125.2 765.17,124.1 766.97,125.4C751.82,127.35 761.94,129 768.07,128.1Z" style="fill-rule:nonzero;"/>
        <path d="M179.55,455.7C179.55,455.9 179.95,456.1 180.75,456.8C180.75,445.92 179.86,446.12 180.05,442.4C180.17,440.1 180.95,437.9 180.95,435.6C180.95,417.2 180.13,418.1 178.85,417.51C177.45,425.81 180.09,433.61 179.45,441.5C179.07,446.2 179.5,451 179.55,455.7Z" style="fill-rule:nonzero;"/>
        <path d="M694.5,293.45C692.26,292.48 677.33,286.85 675.81,288.75C677.14,289.7 685.16,291.1 691.21,293.55C692.91,294.24 694.31,295.82 696.31,295.65C701.8,295.18 707.21,294.75 712.31,292.25C698.07,293.86 697.39,294.69 694.5,293.45Z" style="fill-rule:nonzero;"/>
        <path d="M756.88,158.59C754.18,155.39 750.38,153.49 747.08,151.19C745.88,147.79 744.58,144.49 744.58,140.89C743.28,145.09 743.98,149.19 744.28,153.29C745.18,153.19 744.98,151.99 745.68,152.09C757.3,160.48 756.11,159.74 756.88,158.59Z" style="fill-rule:nonzero;"/>
        <path d="M276.72,167.48C268.98,158.91 265.68,164.58 264.42,149.89C263.22,153.89 263.82,157.89 264.32,162.09C265.12,162.09 265.02,160.69 265.72,161.09C277.93,169.8 275.69,168.52 276.72,167.48Z" style="fill-rule:nonzero;"/>
        <path d="M632.02,198.97C631.12,197.17 629.82,196.27 628.02,196.27C625.52,191.87 622.72,187.87 623.22,182.67C620.82,192.68 626.02,199.17 632.02,198.97Z" style="fill-rule:nonzero;"/>
        <path d="M699.59,247.16C704.95,245.59 712.21,239.4 708.19,238.16C701.99,242.56 700.49,244.06 699.59,247.16Z" style="fill-rule:nonzero;"/>
        <path d="M661.41,343.43C654.21,338.23 645.71,335.33 639.22,329.03C642.51,334.13 655.11,342.33 661.41,343.43Z" style="fill-rule:nonzero;"/>
        <path d="M187.25,272.75C186.75,273.15 186.05,273.25 186.05,274.15C185.71,273.81 187,276.07 187.55,276.45C192.5,279.93 188.54,291.77 191.65,292.55C192.45,291.25 191.36,289.95 191.55,288.75C193.43,277.16 188.48,275.22 187.25,272.75Z" style="fill-rule:nonzero;"/>
        <path d="M639.61,349.83C639.21,341.23 633.51,334.73 631.11,326.84C632.22,335.23 637.41,341.93 639.61,349.83Z" style="fill-rule:nonzero;"/>
        <path d="M696.2,216.17C697.9,220.47 707.7,223.47 712,221.17C706.19,221.77 701.79,217.47 696.2,216.17Z" style="fill-rule:nonzero;"/>
        <path d="M223.64,206.37C222.14,210.97 218.74,213.87 217.24,218.17C222.04,215.97 225.34,210.27 223.64,206.37Z" style="fill-rule:nonzero;"/>
        <path d="M211.94,174.48C218.14,172.78 218.14,172.78 222.04,174.48C216.98,166.79 210.48,171.12 211.94,174.48Z" style="fill-rule:nonzero;"/>
        <path d="M286.52,492.89C286.72,492.99 286.82,492.69 286.72,492.39C281.82,489.69 278.92,492.19 269.53,497.09C272.58,498.72 278.86,490.93 286.52,492.89Z" style="fill-rule:nonzero;"/>
        <path d="M765.97,149.39C768.27,150.79 776.77,150.19 778.77,148.69C777.17,147.89 768.77,148.19 765.97,149.39Z" style="fill-rule:nonzero;"/>
        <path d="M286.12,157.59C286.12,158.09 286.22,158.59 286.22,159.09C290.52,159.49 294.62,158.59 298.72,157.69C294.42,156.39 290.32,157.79 286.12,157.59Z" style="fill-rule:nonzero;"/>
        <path d="M672.8,382.12C675.28,384.3 674.61,385.98 675.6,394.92C677.3,390.92 675.8,382.72 673.4,379.82C672.2,380.32 671.9,381.32 672.8,382.12Z" style="fill-rule:nonzero;"/>
        <path d="M772.27,151.69C769.26,151.69 767.15,157.62 777.07,154.19C776.07,151.49 774.07,151.69 772.27,151.69Z" style="fill-rule:nonzero;"/>
        <path d="M696.4,154.49C691.92,149.51 683.99,153.3 678.51,156.59C680.91,156.09 683.61,156.39 685.31,154.19C684.43,153.32 693.33,155.1 696.4,154.49Z" style="fill-rule:nonzero;"/>
        <path d="M289.42,163.58C292.12,164.18 294.52,164.18 297.02,162.88C295.92,160.48 294.02,160.48 292.22,160.48C290.62,160.49 289.92,161.69 289.42,163.58Z" style="fill-rule:nonzero;"/>
        <path d="M184.65,264.95C183.76,269.7 188.18,274.61 190.35,273.35C189.25,270.65 185.85,265.75 184.65,264.95Z" style="fill-rule:nonzero;"/>
        <path d="M659.81,231.76C660.01,235.76 660.11,239.66 659.31,243.66C662.01,239.86 662.41,233.96 659.81,231.76Z" style="fill-rule:nonzero;"/>
        <path d="M698.1,162.69C702.2,162.09 702.4,162.09 705.6,164.49C706.95,161.22 701.23,157.67 698.1,162.69Z" style="fill-rule:nonzero;"/>
        <path d="M661.41,402.21C660.71,405.71 660.51,409.11 661.71,412.51C663.41,405.11 663.31,403.41 661.41,402.21Z" style="fill-rule:nonzero;"/>
        <path d="M209.54,220.87C211.94,221.67 213.94,220.07 216.84,214.67C212.74,216.77 210.54,218.57 209.54,220.87Z" style="fill-rule:nonzero;"/>
        <path d="M198.65,248.46C201.35,245.36 201.25,240.56 198.85,237.16C199.25,240.66 198.75,244.26 198.65,248.46Z" style="fill-rule:nonzero;"/>
        <path d="M281.82,266.35C280.12,263.85 277.72,262.45 275.52,260.85C276.32,265.15 277.02,265.75 281.82,266.35Z" style="fill-rule:nonzero;"/>
        <path d="M179.15,413.21C180.25,403.11 180.25,403.11 178.65,402.11C177.85,405.71 177.55,409.21 179.15,413.21Z" style="fill-rule:nonzero;"/>
        <path d="M718.59,281.85C714.59,283.25 711.39,285.85 708.49,288.85C711.99,286.65 715.79,284.95 718.59,281.85Z" style="fill-rule:nonzero;"/>
        <path d="M187.95,203.67C188.75,207.67 191.15,210.27 195.05,211.57C192.65,208.97 191.15,205.57 187.95,203.67Z" style="fill-rule:nonzero;"/>
        <path d="M626.72,215.67C625.82,212.37 625.02,209.07 622.82,206.27C623.12,209.77 624.42,212.87 626.72,215.67Z" style="fill-rule:nonzero;"/>
        <path d="M181.55,251.96C181.35,254.56 182.55,257.96 184.15,259.66C184.35,255.46 183.65,253.46 181.55,251.96Z" style="fill-rule:nonzero;"/>
        <path d="M658.81,182.78C656.31,181.98 654.61,183.68 652.71,184.58C655.41,186.08 657.31,185.08 658.81,182.78Z" style="fill-rule:nonzero;"/>
        <path d="M639.31,218.97C638.01,216.07 636.41,213.37 633.41,211.97C635.41,214.27 636.61,217.27 639.31,218.97Z" style="fill-rule:nonzero;"/>
        <path d="M631.82,209.77C630.22,206.77 629.92,203.27 627.62,200.57C628.22,204.07 629.12,207.47 631.82,209.77Z" style="fill-rule:nonzero;"/>
        <path d="M668.4,178.58C665.9,180.18 663.4,181.18 660.4,182.28C665.7,182.68 667.9,181.58 668.4,178.58Z" style="fill-rule:nonzero;"/>
        <path d="M195.75,396.31C194.45,399.11 193.35,402.01 193.95,405.21C194.45,402.21 196.45,399.51 195.75,396.31Z" style="fill-rule:nonzero;"/>
        <path d="M289.52,259.26C287.72,260.86 285.32,262.06 285.32,264.86C287.32,263.45 289.22,261.86 289.52,259.26Z" style="fill-rule:nonzero;"/>
        <path d="M298.02,150.19C295.22,148.29 292.82,148.99 292.12,152.09C293.92,150.59 296.42,152.29 298.02,150.19Z" style="fill-rule:nonzero;"/>
        <path d="M678.1,396.21C677.5,399.41 675.8,402.11 676.5,405.81C678.6,401.41 679.2,397.91 678.1,396.21Z" style="fill-rule:nonzero;"/>
        <path d="M674.1,183.08C675,185.78 676.6,187.88 679.6,188.48C678.4,185.98 676.4,184.38 674.1,183.08Z" style="fill-rule:nonzero;"/>
        <path d="M778.27,141.29C776.44,139.36 770.21,140.5 772.67,143.19C773.97,141.19 776.57,143.69 778.27,141.29Z" style="fill-rule:nonzero;"/>
        <path d="M655.61,263.75C656.01,267.15 658.71,269.35 658.81,272.45C659.91,270.25 658.21,265.75 655.61,263.75Z" style="fill-rule:nonzero;"/>
        <path d="M190.65,354.23C190.95,357.43 193.55,359.63 193.75,362.73C194.75,360.43 192.95,355.83 190.65,354.23Z" style="fill-rule:nonzero;"/>
        <path d="M189.75,337.43C188.05,338.43 186.25,337.03 184.55,337.93C186.35,340.73 187.75,340.63 189.75,337.43Z" style="fill-rule:nonzero;"/>
        <path d="M276.92,243.66C277.32,241.06 278.52,238.66 276.92,235.56C275.62,239.56 275.62,241.26 276.92,243.66Z" style="fill-rule:nonzero;"/>
        <path d="M183.75,281.05C184.55,278.65 185.25,276.35 185.95,274.05C183.05,274.75 182.45,276.65 183.75,281.05Z" style="fill-rule:nonzero;"/>
        <path d="M683.9,372.92C681.9,371.72 681.9,371.72 678.6,373.42C680.3,373.32 682.3,375.72 683.9,372.92Z" style="fill-rule:nonzero;"/>
        <path d="M718.49,229.76C716.19,231.66 714.69,234.16 712.69,236.16C715.59,234.86 717.69,232.86 718.49,229.76Z" style="fill-rule:nonzero;"/>
        <path d="M179.15,299.74C179.45,297.44 179.55,295.24 178.45,293.04C178.05,295.34 177.45,297.64 179.15,299.74Z" style="fill-rule:nonzero;"/>
        <path d="M721.89,219.47C719.69,220.87 717.69,219.07 715.59,220.67C718.59,222.47 719.89,222.37 721.89,219.47Z" style="fill-rule:nonzero;"/>
        <path d="M640.21,212.27C639.81,209.87 640.71,207.17 637.81,205.77C638.81,207.87 638.11,210.57 640.21,212.27Z" style="fill-rule:nonzero;"/>
        <path d="M692.2,254.66C693.8,253.66 695.4,252.76 695.7,250.56C694,251.36 692.8,252.76 692.2,254.66Z" style="fill-rule:nonzero;"/>
        <path d="M687.3,180.08C691.4,180.18 692.4,179.88 693.7,177.78C691.5,178.58 689.4,178.68 687.3,180.08Z" style="fill-rule:nonzero;"/>
        <path d="M188.05,203.67C186.75,200.97 187.45,197.87 186.35,194.87C185.35,198.87 185.85,201.17 188.05,203.67Z" style="fill-rule:nonzero;"/>
        <path d="M171.65,385.92C171.25,388.12 171.15,389.82 171.65,392.22C173.05,388.82 173.05,387.92 171.65,385.92Z" style="fill-rule:nonzero;"/>
        <path d="M664.11,283.85C665.91,285.15 667.81,285.75 670.01,285.75C668.2,284.65 666.4,283.35 664.11,283.85Z" style="fill-rule:nonzero;"/>
        <path d="M745.58,156.59C743.68,159.09 743.68,159.09 745.18,161.49C745.38,159.79 746.78,158.59 745.58,156.59Z" style="fill-rule:nonzero;"/>
        <path d="M743.68,169.58C744.18,167.58 745.98,165.98 744.98,163.68C744.48,165.68 742.78,167.38 743.68,169.58Z" style="fill-rule:nonzero;"/>
        <path d="M292.92,318.84C291.52,316.94 289.62,315.64 287.52,314.54C289.12,316.34 290.72,317.94 292.92,318.84Z" style="fill-rule:nonzero;"/>
        <path d="M740.58,177.18C742.38,178.18 744.08,178.88 746.18,178.18C744.28,176.88 743.08,176.58 740.58,177.18Z" style="fill-rule:nonzero;"/>
        <path d="M265.43,165.58C263.73,167.08 263.33,168.48 264.63,170.48C265.43,168.78 266.33,167.48 265.43,165.58Z" style="fill-rule:nonzero;"/>
        <path d="M195.55,341.13C193.25,341.13 191.55,341.63 189.95,342.83C191.85,343.03 193.85,343.43 195.55,341.13Z" style="fill-rule:nonzero;"/>
        <path d="M196.45,212.17C197.15,214.37 198.05,215.97 199.65,217.07C199.25,215.17 199.15,213.07 196.45,212.17Z" style="fill-rule:nonzero;"/>
        <path d="M294.62,218.77C293.92,220.47 294.12,222.27 294.72,224.67C296.12,222.17 295.52,220.47 294.62,218.77Z" style="fill-rule:nonzero;"/>
        <path d="M260.83,186.08C262.43,187.28 264.13,187.38 265.83,186.88C263.53,185.48 263.53,185.48 260.83,186.08Z" style="fill-rule:nonzero;"/>
        <path d="M263.33,179.08C264.63,176.68 265.53,174.78 264.83,172.58C264.73,174.58 262.73,176.18 263.33,179.08Z" style="fill-rule:nonzero;"/>
        <path d="M673.5,219.27C673.69,219.08 673.39,220.71 674.8,220.07C674.9,219.37 674.5,219.07 673.8,218.97C673.4,217.27 673.7,215.27 672,213.97C672.2,215.87 671.4,217.97 673.5,219.27Z" style="fill-rule:nonzero;"/>
        <path d="M187.25,382.12C188.75,385.72 188.75,385.72 190.35,387.02C189.55,385.22 189.05,383.32 187.25,382.12Z" style="fill-rule:nonzero;"/>
        <path d="M736.68,220.47C738.38,222.27 739.68,222.97 742.18,222.67C740.28,221.67 739.28,220.27 736.68,220.47Z" style="fill-rule:nonzero;"/>
        <path d="M654.61,385.82C654.01,388.12 653.81,389.82 654.81,391.72C654.71,390.02 656.51,388.22 654.61,385.82Z" style="fill-rule:nonzero;"/>
        <path d="M637.91,187.38C636.65,188.64 635.99,187.49 641.11,191.88C641.21,189.38 639.31,188.68 637.91,187.38Z" style="fill-rule:nonzero;"/>
        <path d="M206.24,178.98C207.64,178.08 209.74,178.28 210.14,175.98C208.44,176.38 207.24,177.48 206.24,178.98Z" style="fill-rule:nonzero;"/>
        <path d="M293.72,345.03C294.62,343.13 293.52,341.63 292.82,340.03C291.92,341.93 293.12,343.43 293.72,345.03Z" style="fill-rule:nonzero;"/>
        <path d="M732.28,147.69C731.58,148.89 731.18,150.09 732.48,151.99C733.66,147.57 733.5,147.99 732.28,147.69Z" style="fill-rule:nonzero;"/>
        <path d="M655.11,398.81C654.01,400.51 654.31,402.01 654.11,403.81C656.31,402.31 656.01,400.91 655.11,398.81Z" style="fill-rule:nonzero;"/>
        <path d="M172.35,398.81C171.05,400.31 171.25,401.81 171.45,403.51C173.55,402.11 173.15,400.71 172.35,398.81Z" style="fill-rule:nonzero;"/>
        <path d="M290.62,175.08C291.62,176.98 292.92,176.58 294.32,175.88C293.22,175.28 292.22,174.18 290.62,175.08Z" style="fill-rule:nonzero;"/>
        <path d="M682.1,198.77C679.51,199.86 680.79,202.35 679.61,203.65C679.58,203.55 676.78,205.87 678.9,208.37C680.18,206.8 679.91,205.23 679.62,203.66C681.31,202.56 682.4,201.26 682.1,198.77Z" style="fill-rule:nonzero;"/>
        <path d="M179.25,380.22C178.95,382.42 180.05,383.82 181.05,385.22C180.75,383.52 181.05,381.62 179.25,380.22Z" style="fill-rule:nonzero;"/>
        <path d="M695.3,223.07C694.6,225.17 694.1,226.97 694.5,229.27C695.4,227.17 695.8,225.37 695.3,223.07Z" style="fill-rule:nonzero;"/>
        <path d="M770.57,166.48C771.87,167.88 773.07,168.28 774.57,166.88C773.37,166.78 772.37,165.18 770.57,166.48Z" style="fill-rule:nonzero;"/>
        <path d="M663.51,384.32C663.51,382.82 663.51,381.42 662.01,380.22C661.61,382.02 662.31,383.22 663.51,384.32Z" style="fill-rule:nonzero;"/>
        <path d="M283.12,272.15C284.72,270.85 285.62,269.65 285.82,267.95C284.32,268.85 283.42,270.05 283.12,272.15Z" style="fill-rule:nonzero;"/>
        <path d="M224.74,204.27C225.94,203.07 226.64,201.67 226.74,199.97C225.14,200.97 224.94,202.57 224.74,204.27Z" style="fill-rule:nonzero;"/>
        <path d="M670.2,382.52C670.8,384.22 671.3,385.92 672.9,386.92C672.4,385.12 671.9,383.42 670.2,382.52Z" style="fill-rule:nonzero;"/>
        <path d="M629.02,220.47C629.42,222.77 630.12,224.17 632.02,224.87C631.22,223.47 631.02,221.77 629.02,220.47Z" style="fill-rule:nonzero;"/>
        <path d="M196.25,356.23C196.65,357.63 196.35,359.23 197.65,360.23C197.65,358.73 197.45,357.33 196.25,356.23Z" style="fill-rule:nonzero;"/>
        <path d="M661.41,265.95C661.81,267.35 661.51,268.85 662.81,269.95C662.81,268.45 662.71,267.05 661.41,265.95Z" style="fill-rule:nonzero;"/>
        <path d="M252.83,156.49C251.53,157.99 251.53,157.99 252.33,160.29C252.93,158.99 253.43,157.89 252.83,156.49Z" style="fill-rule:nonzero;"/>
        <path d="M293.82,205.37C295.22,203.67 295.22,203.67 295.22,201.67C294.42,202.77 293.22,203.67 293.82,205.37Z" style="fill-rule:nonzero;"/>
        <path d="M666.6,361.72C666.9,363.62 667.5,364.52 668.6,365.12C668.9,363.72 668.5,362.62 666.6,361.72Z" style="fill-rule:nonzero;"/>
        <path d="M668.4,381.22C667.8,378.22 667.8,378.22 665.6,377.42C666.6,378.72 667.3,379.82 668.4,381.22Z" style="fill-rule:nonzero;"/>
        <path d="M640.71,175.28C642.01,176.48 642.91,177.38 644.91,178.08C643.71,176.18 642.61,175.58 640.71,175.28Z" style="fill-rule:nonzero;"/>
        <path d="M182.75,377.02C183.75,378.42 184.55,379.52 185.55,380.92C184.95,378.22 184.95,378.22 182.75,377.02Z" style="fill-rule:nonzero;"/>
        <path d="M649.31,292.45C650.51,291.95 651.61,292.15 652.21,290.35C650.91,290.65 649.91,290.75 649.31,292.45Z" style="fill-rule:nonzero;"/>
        <path d="M182.85,283.85C182.45,285.25 183.05,285.95 184.15,287.15C184.75,285.25 184.25,284.55 182.85,283.85Z" style="fill-rule:nonzero;"/>
        <path d="M293.72,346.83C293.72,348.36 293.44,349.68 294.82,349.53C295.22,348.53 295.22,347.73 293.72,346.83Z" style="fill-rule:nonzero;"/>
        <path d="M682.9,217.87C683,216.37 682.2,215.57 681,215.07C681,216.37 680.9,217.67 682.9,217.87Z" style="fill-rule:nonzero;"/>
        <path d="M733.08,154.49C732.88,155.49 731.78,156.29 732.68,157.79C733.88,156.59 733.38,155.49 733.08,154.49Z" style="fill-rule:nonzero;"/>
        <path d="M685.3,223.37C685.4,221.87 685,221.07 683.3,221.07C683.4,222.47 683.8,223.27 685.3,223.37Z" style="fill-rule:nonzero;"/>
        <path d="M192.25,298.34C192.95,296.84 192.45,295.94 191.45,294.84C191.15,296.24 191.05,297.34 192.25,298.34Z" style="fill-rule:nonzero;"/>
        <path d="M693.2,211.07C693.8,209.77 693.8,209.07 692.6,208.67C691.2,209.77 691.9,210.37 693.2,211.07Z" style="fill-rule:nonzero;"/>
        <path d="M282.12,278.65C282.62,277.55 282.32,276.65 281.92,275.75C281.02,276.75 280.82,277.75 282.12,278.65Z" style="fill-rule:nonzero;"/>
        <path d="M228.04,176.68C229.04,177.08 229.74,177.28 230.14,175.88C229.34,175.68 228.74,175.58 228.04,176.68Z" style="fill-rule:nonzero;"/>
        <path d="M294.42,351.93C293.22,351.73 292.32,351.43 291.72,352.83C292.72,353.53 293.42,353.53 294.42,351.93Z" style="fill-rule:nonzero;"/>
        <path d="M669.4,368.72C669.8,367.12 669,366.22 668.5,365.22C668.2,366.32 667.9,367.52 669.4,368.72Z" style="fill-rule:nonzero;"/>
        <path d="M198.35,235.76C197.95,233.56 197.95,233.56 196.65,232.66C196.75,233.86 197.15,234.76 198.35,235.76Z" style="fill-rule:nonzero;"/>
        <path d="M659.21,368.42C659.21,369.82 659.51,370.62 661.11,370.82C661.11,369.42 660.61,368.72 659.21,368.42Z" style="fill-rule:nonzero;"/>
        <path d="M723.09,220.67C724.29,221.57 724.79,220.77 725.69,219.57C724.39,219.57 723.39,219.47 723.09,220.67Z" style="fill-rule:nonzero;"/>
        <path d="M670.5,176.08C669.09,174.21 668.75,177.06 670.5,177.38C671,176.78 670.6,176.38 670.5,176.08Z" style="fill-rule:nonzero;"/>
        <path d="M204.84,179.88C203.64,180.88 202.94,181.48 203.34,182.88C204.14,182.08 204.84,181.48 204.84,179.88Z" style="fill-rule:nonzero;"/>
        <path d="M252.53,163.68C252.73,164.68 251.73,165.38 252.83,166.58C253.23,165.38 253.53,164.58 252.53,163.68Z" style="fill-rule:nonzero;"/>
        <path d="M192.85,340.43C193.95,340.23 194.65,340.53 195.25,339.43C194.25,339.03 193.55,339.13 192.85,340.43Z" style="fill-rule:nonzero;"/>
        <path d="M661.31,348.23C660.71,348.93 660.11,349.53 661.11,350.43C662.01,349.83 662.01,349.13 661.31,348.23Z" style="fill-rule:nonzero;"/>
        <path d="M203.04,219.17C202.74,218.57 202.84,217.77 201.74,217.77C200.96,218.4 202.11,220.11 203.04,219.17Z" style="fill-rule:nonzero;"/>
        <path d="M294.62,214.37C293.72,215.17 293.32,215.87 294.52,216.97C295.12,215.97 295.22,215.17 294.62,214.37Z" style="fill-rule:nonzero;"/>
        <path d="M665.8,220.97C665.3,219.87 665.4,218.87 663.9,218.77C663.81,220.07 664.41,220.57 665.8,220.97Z" style="fill-rule:nonzero;"/>
        <path d="M186.85,242.86C186.95,241.76 186.65,241.06 185.25,240.46C185.25,241.96 185.35,242.86 186.85,242.86Z" style="fill-rule:nonzero;"/>
        <path d="M746.08,223.07C745.08,222.67 744.38,222.27 743.48,223.27C744.48,223.97 745.18,224.07 746.08,223.07Z" style="fill-rule:nonzero;"/>
        <path d="M297.72,197.57C296.52,198.67 296.52,198.67 296.72,199.97C297.62,199.57 298.02,198.87 297.72,197.57Z" style="fill-rule:nonzero;"/>
        <path d="M277.52,252.66C278.32,251.86 278.72,251.26 277.82,250.26C276.82,250.86 276.82,251.46 277.52,252.66Z" style="fill-rule:nonzero;"/>
        <path d="M171.65,408.81C172.55,408.31 172.95,407.71 171.75,406.71C171.05,407.61 171.15,408.21 171.65,408.81Z" style="fill-rule:nonzero;"/>
        <path d="M185.25,290.55C185.65,289.35 185.55,288.55 184.05,288.85C183.95,289.55 184.25,290.05 185.25,290.55Z" style="fill-rule:nonzero;"/>
        <path d="M192.55,301.34C192.35,302.04 192.25,302.64 193.15,302.94C194.05,302.44 193.35,301.84 193.15,301.34C192.95,301.44 192.75,301.44 192.55,301.34Z" style="fill-rule:nonzero;"/>
        <path d="M654.31,407.31C653.24,409.09 655.43,409.2 655.11,407.91C655.11,407.41 654.81,407.21 654.31,407.31Z" style="fill-rule:nonzero;"/>
        <path d="M274.62,178.68C275.27,178.68 276.23,177.13 275.02,176.98C274.62,177.48 274.22,177.98 274.62,178.68Z" style="fill-rule:nonzero;"/>
        <path d="M189.55,216.87C189.25,217.97 189.05,218.77 190.25,218.97C190.75,218.17 190.75,217.57 189.55,216.87Z" style="fill-rule:nonzero;"/>
        <path d="M298.82,348.23C299.42,347.13 299.22,346.53 298.42,346.03C297.92,346.83 297.92,347.53 298.82,348.23Z" style="fill-rule:nonzero;"/>
        <path d="M636.71,303.94C637.79,306.61 646.17,317.43 660.8,320.73C639.69,310.83 638.85,304.25 636.71,303.94Z" style="fill-rule:nonzero;"/>
        <path d="M754.68,169.98C755.78,169.58 755.48,168.38 756.18,167.88C754.88,167.98 754.48,168.68 754.68,169.98Z" style="fill-rule:nonzero;"/>
        <path d="M200.05,253.46C199.65,254.26 199.85,254.76 201.75,254.96C200.85,254.16 200.95,253.36 200.05,253.46Z" style="fill-rule:nonzero;"/>
        <path d="M636.61,203.17C636.21,204.47 636.61,205.27 637.81,205.77C637.71,204.87 637.71,203.87 636.61,203.17Z" style="fill-rule:nonzero;"/>
        <path d="M672.6,430.1L672.6,431.9C673,431.2 672.9,430.8 672.6,430.1Z" style="fill-rule:nonzero;"/>
        <path d="M632.91,227.47C633.41,226.17 632.21,225.67 632.01,224.87C631.82,225.87 631.62,226.87 632.91,227.47Z" style="fill-rule:nonzero;"/>
        <path d="M646.01,183.08C646.42,182.67 646.22,181.52 644.91,182.18C645.01,183.08 645.41,183.28 646.01,183.08Z" style="fill-rule:nonzero;"/>
        <path d="M674.2,378.72C674,377.82 673.9,377.12 672.5,377.42C672.8,378.32 673,378.92 674.2,378.72Z" style="fill-rule:nonzero;"/>
        <path d="M299.02,343.93C299.82,343.53 298.94,342.71 298.72,342.93C298.42,343.03 298.32,343.43 298.52,343.73C298.52,343.83 298.82,343.83 299.02,343.93Z" style="fill-rule:nonzero;"/>
        <path d="M667.8,163.48C667,163.68 667,164.08 667.4,164.58C668,164.38 668.4,164.08 667.8,163.48Z" style="fill-rule:nonzero;"/>
        <path d="M227.54,173.98C228.14,174.98 228.64,174.78 229.54,173.98C228.74,173.48 228.24,173.38 227.54,173.98Z" style="fill-rule:nonzero;"/>
        <path d="M633.71,199.67C633.91,200.57 634.21,201.07 635.11,201.37C635.11,200.17 634.91,199.67 633.71,199.67Z" style="fill-rule:nonzero;"/>
        <path d="M194.25,306.04C194.45,305.34 194.05,305.14 193.55,304.94C193.15,305.74 193.35,306.14 194.25,306.04Z" style="fill-rule:nonzero;"/>
        <path d="M295.82,258.46C295.52,258.96 295.52,259.46 296.22,259.76C296.62,259.16 296.32,258.76 295.82,258.46Z" style="fill-rule:nonzero;"/>
        <path d="M727.79,218.27C728.69,218.67 729.09,218.37 729.29,216.87C728.29,217.27 727.59,217.27 727.79,218.27Z" style="fill-rule:nonzero;"/>
        <path d="M200.45,357.23C200.65,358.23 200.85,358.73 201.65,358.73C201.85,357.83 201.45,357.53 200.45,357.23Z" style="fill-rule:nonzero;"/>
        <path d="M666.8,268.35C667.1,267.55 666.5,267.25 665.4,266.75C665.9,267.85 665.9,268.55 666.8,268.35Z" style="fill-rule:nonzero;"/>
        <path d="M192.25,221.67C191.95,222.37 191.95,222.77 192.95,222.47C192.95,221.97 192.75,221.77 192.25,221.67Z" style="fill-rule:nonzero;"/>
        <path d="M267.93,199.87L267.73,199.87C267.43,200.07 267.73,200.37 267.93,199.87Z" style="fill-rule:nonzero;"/>
        <path d="M297.92,351.53C296.5,351.18 297.08,353.47 298.22,352.33C298.32,352.13 298.12,351.53 297.92,351.53Z" style="fill-rule:nonzero;"/>
        <path d="M266.23,190.98C265.83,191.28 265.33,191.38 265.93,192.48C266.13,191.88 266.73,191.88 266.23,190.98Z" style="fill-rule:nonzero;"/>
        <path d="M679,319.24C678.5,319.14 678.5,319.44 678.4,319.74C678.9,319.94 678.9,319.44 679,319.24Z" style="fill-rule:nonzero;"/>
        <path d="M705.79,327.34C706.07,327.06 705.84,327.23 704.69,326.94C705.19,327.04 705.49,327.24 705.79,327.34Z" style="fill-rule:nonzero;"/>
        <path d="M651.31,184.08C650.81,183.48 650.21,183.48 649.31,184.08C650.01,184.78 650.71,184.98 651.31,184.08Z" style="fill-rule:nonzero;"/>
        <path d="M715.49,181.28C715.55,181.27 715.6,181.29 715.66,181.28C715.59,181.14 715.59,181.18 715.49,181.28Z" style="fill-rule:nonzero;"/>
        <path d="M717.59,182.48C717.31,181.63 716.66,181.24 715.66,181.28C716.07,182.01 716.73,182.38 717.59,182.48Z" style="fill-rule:nonzero;"/>
        <path d="M713.79,179.98C714.39,180.98 714.89,181.28 715.59,181.18C715.39,180.28 714.79,180.28 713.79,179.98Z" style="fill-rule:nonzero;"/>
        <path d="M776.37,178.08C776.93,178.22 777.38,177.43 776.67,177.08C775.89,176.88 776,178.08 776.37,178.08Z" style="fill-rule:nonzero;"/>
        <path d="M556.94,225.77C558.24,226.67 559.14,226.87 560.54,226.87C559.54,225.57 558.64,225.27 556.94,225.77Z" style="fill-rule:nonzero;"/>
        <path d="M558.74,342.43C558.74,342.63 558.74,342.83 558.84,343.23C562.09,342.3 559.68,341.48 558.74,342.43Z" style="fill-rule:nonzero;"/>
        <path d="M727.79,384.62C727.37,388.52 727.39,392.42 727.89,396.62C732.49,390.22 730.29,375.53 724.29,373.13C725.15,378.71 728.28,380.04 727.79,384.62Z" style="fill-rule:nonzero;"/>
        <path d="M734.08,363.22C735.28,367.82 738.78,370.52 740.18,374.42C741.48,372.22 739.47,370.62 738.48,368.92C737.38,367.03 736.58,364.92 734.08,363.22Z" style="fill-rule:nonzero;"/>
        <path d="M733.98,352.53C733.48,354.73 731.68,356.63 733.78,359.13C736.38,357.43 736.38,355.63 733.98,352.53Z" style="fill-rule:nonzero;"/>
        <path d="M726.19,404.11C727.19,402.51 729.19,401.11 727.89,398.01C726.39,400.11 725.99,402.01 726.19,404.11Z" style="fill-rule:nonzero;"/>
        <path d="M723.29,460.7C724.69,459.1 724.59,457.5 723.19,456C723.29,457.5 721.29,459.1 723.29,460.7Z" style="fill-rule:nonzero;"/>
        <path d="M721.09,371.32C720.39,369.82 719.39,368.72 717.39,367.82C718.29,369.92 719.29,371.02 721.09,371.32Z" style="fill-rule:nonzero;"/>
        <path d="M726.29,405.81C723.69,408.01 723.69,408.01 723.89,410.01C724.79,408.91 725.69,407.91 726.29,405.81Z" style="fill-rule:nonzero;"/>
        <path d="M711.29,362.52C712.19,363.62 712.79,364.52 714.39,363.82C713.69,362.52 712.99,361.92 711.29,362.52Z" style="fill-rule:nonzero;"/>
        <path d="M723.89,440.4C723.19,441.7 723.09,443 723.89,444.7C724.59,443 724.49,441.7 723.89,440.4Z" style="fill-rule:nonzero;"/>
        <path d="M731.39,456.8C731.99,455.6 731.59,454.5 731.09,453.5C730.89,454.6 730.49,455.7 731.39,456.8Z" style="fill-rule:nonzero;"/>
        <path d="M730.39,450.8C731.49,450.2 731.79,449.6 731.09,448.5C729.89,448.9 729.99,449.8 730.39,450.8Z" style="fill-rule:nonzero;"/>
        <path d="M737.98,361.72C738.84,361.07 737.64,359.5 736.68,360.32C736.68,361.13 737.08,361.62 737.98,361.72Z" style="fill-rule:nonzero;"/>
        <path d="M719.59,414.01C720.39,413.11 721.19,412.91 721.19,412.01C720.09,411.91 719.69,412.41 719.59,414.01Z" style="fill-rule:nonzero;"/>
        <path d="M723.99,450.8C724.49,449.8 724.59,449 723.79,448.1C723.29,449.1 722.89,450 723.99,450.8Z" style="fill-rule:nonzero;"/>
        <path d="M752.66,497.08C751.85,497.52 753.48,497.71 754.62,497.23C759.83,495.04 763.66,491.48 768.87,493.18C768.99,493.18 769.16,492.89 769.38,492.78C765.5,489.21 759.24,493.53 752.66,497.08Z" style="fill-rule:nonzero;"/>
        <path d="M671.4,495.28C672.49,497.78 674.6,496.98 676.7,496.98C678.54,488.27 669.71,491.38 671.4,495.28ZM675.8,494.08C675.1,494.58 674.4,495.08 673.7,495.58C671.15,494.31 674.28,491.04 675.8,494.08Z" style="fill-rule:nonzero;"/>
        <path d="M667.7,491.49C663.85,491.7 663.91,496.99 667.8,496.99C671.64,497.2 671.73,491.49 667.7,491.49ZM667.6,495.88C665.7,495.67 665.89,492.98 667.7,492.98C669.59,492.99 670.01,495.62 667.6,495.88Z" style="fill-rule:nonzero;"/>
        <path d="M664.01,492.09C662.91,490.29 661.31,490.69 659.71,491.09C659.22,499.97 660.13,494.85 661.21,494.99C662.11,494.89 662.11,496.49 663.51,496.19C662.71,494.78 664.21,493.78 664.01,492.09ZM660.81,492.99C661.41,491.59 662.11,491.99 663.01,492.49C662.31,493.59 661.61,493.49 660.81,492.99Z" style="fill-rule:nonzero;"/>
        <path d="M229.74,292.05C201.56,295.45 204.58,294.87 204.95,296.35C213.24,295.44 221.74,295.34 229.74,292.05Z" style="fill-rule:nonzero;"/>
        <path d="M203.74,299.04C203.74,299.34 203.64,299.64 203.64,300.04C246.72,304.39 240.14,301.98 203.74,299.04Z" style="fill-rule:nonzero;"/>
        <path d="M213.74,278.25C219.04,277.65 222.74,273.55 228.04,272.15C224.94,270.15 217.24,273.55 213.74,278.25Z" style="fill-rule:nonzero;"/>
        <path d="M219.14,255.56C223.08,255.31 232.37,249.44 227.74,246.76C225.44,250.16 220.94,251.26 219.14,255.56Z" style="fill-rule:nonzero;"/>
        <path d="M238.23,238.46C236.23,240.66 234.13,242.86 232.33,245.16C235.33,243.86 237.43,241.76 238.23,238.46Z" style="fill-rule:nonzero;"/>
        <path d="M241.43,229.16C237.83,228.66 237.53,228.66 235.83,229.56C238.13,231.36 239.13,231.26 241.43,229.16Z" style="fill-rule:nonzero;"/>
        <path d="M261.33,231.16C259.93,230.26 258.93,229.16 256.63,229.06C258.93,231.46 258.93,231.46 261.33,231.16Z" style="fill-rule:nonzero;"/>
        <path d="M263.73,231.96C264.33,232.86 264.93,232.86 265.73,231.86C265.03,231.76 264.33,231.06 263.73,231.96Z" style="fill-rule:nonzero;"/>
        <path d="M245.53,228.17C244.33,228.47 243.43,228.27 243.13,229.47C244.13,229.86 244.83,229.76 245.53,228.17Z" style="fill-rule:nonzero;"/>
        <path d="M249.03,225.87C248.13,226.07 247.43,226.07 247.43,227.17C248.53,227.37 249.03,227.17 249.03,225.87Z" style="fill-rule:nonzero;"/>
        <path d="M244.93,387.82C244.53,390.62 245.03,393.32 245.03,396.62C250.33,390.02 246.23,375.43 241.93,373.13C240.58,377.17 246.35,377.87 244.93,387.82Z" style="fill-rule:nonzero;"/>
        <path d="M251.73,363.72C252.63,367.82 256.13,370.62 257.23,375.02C258.13,372.32 255.53,367.12 251.73,363.72Z" style="fill-rule:nonzero;"/>
        <path d="M243.63,404.41C244.43,402.41 246.33,401.01 245.33,398.21C243.23,400.71 243.03,401.51 243.63,404.41Z" style="fill-rule:nonzero;"/>
        <path d="M240.13,460.7C241.83,458.9 241.63,457.4 240.33,455.2C239.83,457.3 239.13,458.8 240.13,460.7Z" style="fill-rule:nonzero;"/>
        <path d="M234.74,367.92C235.44,369.52 236.34,371.02 238.34,371.12C237.53,369.72 236.43,368.52 234.74,367.92Z" style="fill-rule:nonzero;"/>
        <path d="M240.43,410.21C241.93,408.81 242.83,407.81 243.13,405.81C241.33,406.91 240.63,408.01 240.43,410.21Z" style="fill-rule:nonzero;"/>
        <path d="M241.03,444C241.83,442.8 242.03,441.5 241.13,439.4C240.23,441.4 240.23,442.7 241.03,444Z" style="fill-rule:nonzero;"/>
        <path d="M241.03,451.1C241.93,449.8 241.83,448.9 240.93,447.5C240.33,448.9 240.23,449.9 241.03,451.1Z" style="fill-rule:nonzero;"/>
        <path d="M248.43,457.1C249.53,455.4 248.93,454.4 248.03,453.2C247.93,454.6 247.53,455.6 248.43,457.1Z" style="fill-rule:nonzero;"/>
        <path d="M248.13,448.3C247.33,449.1 246.93,449.8 247.93,450.9C248.53,449.8 248.93,449.1 248.13,448.3Z" style="fill-rule:nonzero;"/>
        <path d="M236.93,413.21C237.83,413.31 238.13,412.71 238.13,411.81C237.63,412.21 236.53,412.11 236.93,413.21Z" style="fill-rule:nonzero;"/>
        <path d="M188.35,495.18C189.55,497.58 191.65,496.78 193.65,496.78C195.68,488.25 186.39,491.26 188.35,495.18ZM192.55,493.88C192.05,494.78 190.85,494.58 190.65,495.58C187.59,493.84 191.53,491.03 192.55,493.88Z" style="fill-rule:nonzero;"/>
        <path d="M184.85,491.39C180.96,491.16 180.42,496.75 184.65,496.99C188.57,496.77 188.53,491.6 184.85,491.39ZM184.75,495.68C182.56,495.68 182.7,492.56 184.65,492.78C186.73,492.79 186.47,495.68 184.75,495.68Z" style="fill-rule:nonzero;"/>
        <path d="M176.55,490.89C176.45,492.49 176.35,494.19 176.15,495.79C177.55,496.29 177.25,494.59 178.15,494.79C179.05,494.79 179.05,496.29 180.15,495.99C180.45,490.49 180.45,490.49 176.55,490.89ZM177.75,492.89C178.15,491.29 178.95,491.79 179.95,492.69C179.05,493.39 178.45,493.39 177.75,492.89Z" style="fill-rule:nonzero;"/>
        <path d="M758.68,255.76C759.08,257.46 759.28,259.16 760.18,260.96C760.88,258.06 760.38,256.26 758.68,255.76Z" style="fill-rule:nonzero;"/>
        <path d="M758.18,267.85C759.07,269.42 760.85,268.55 760.58,267.45C759.58,266.55 758.88,267.25 758.18,267.85Z" style="fill-rule:nonzero;"/>
        <path d="M760.48,262.55C760.08,263.45 759.98,264.15 761.08,265.05C761.88,263.85 761.68,263.15 760.48,262.55Z" style="fill-rule:nonzero;"/>
        <path d="M765.27,258.06C764.87,258.66 764.67,259.16 765.47,259.36C765.97,258.96 765.97,258.56 765.27,258.06Z" style="fill-rule:nonzero;"/>
        <path d="M764.97,261.56C764.37,262.16 764.67,262.76 764.87,263.36C766.05,263.35 765.95,262.04 764.97,261.56Z" style="fill-rule:nonzero;"/>
        <path d="M763.98,266.95C762.88,267.32 763.8,268.14 763.98,268.05C765.25,267.8 764.56,266.81 763.98,266.95Z" style="fill-rule:nonzero;"/>
        <path d="M94.68,432C95.68,431.8 96.58,431.9 96.78,430.7C96.18,431.1 95.08,430.5 94.68,432Z" style="fill-rule:nonzero;"/>
        <path d="M142.86,284.45C141.9,281.94 141.56,281.65 139.66,281.05C143.16,286.25 143.98,292.37 145.36,298.24C147.06,305.47 143.53,301.59 146.16,319.63C147.68,325.71 164.7,347.66 171.05,349.02C132.15,311.45 155.53,317.58 142.86,284.45Z" style="fill-rule:nonzero;"/>
        <path d="M178.55,343.53C171.75,338.23 163.45,335.43 156.96,329.63C162.76,336.33 170.45,340.13 178.55,343.53Z" style="fill-rule:nonzero;"/>
        <path d="M152.16,280.55C147.66,278.85 143.96,275.85 138.36,277.55C141.26,279.85 149.66,281.65 152.16,280.55Z" style="fill-rule:nonzero;"/>
        <path d="M156.86,349.73C156.46,341.33 150.86,334.83 148.46,327.14C149.56,335.33 154.66,342.03 156.86,349.73Z" style="fill-rule:nonzero;"/>
        <path d="M171.85,240.46C166.4,250.3 176.93,240.52 174.75,235.76C174.35,237.66 172.74,238.86 171.85,240.46Z" style="fill-rule:nonzero;"/>
    </g>
</svg>
