<?xml version="1.0" encoding="UTF-8" standalone="no"?>
<!DOCTYPE svg PUBLIC "-//W3C//DTD SVG 1.1//EN" "http://www.w3.org/Graphics/SVG/1.1/DTD/svg11.dtd">
<svg width="100%" height="100%" viewBox="0 0 900 600" version="1.1" xmlns="http://www.w3.org/2000/svg" xmlns:xlink="http://www.w3.org/1999/xlink" xml:space="preserve" xmlns:serif="http://www.serif.com/" style="fill-rule:evenodd;clip-rule:evenodd;stroke-linejoin:round;stroke-miterlimit:2;">
    <g>
        <path d="M415.26,515.91C411.9,513.06 415.26,508.78 412.41,506.03C415.9,499.53 419.86,502.67 420.66,506.03C421.81,510.83 427.66,516.78 431.56,515.91C439.33,513.61 453.52,506.34 454.58,500.53C454.07,498.09 451.73,498.8 450.51,497.98C449.19,498.49 448.88,499.51 447.96,500.53C447.04,498.9 446.43,496.66 443.99,498.09C443.68,487.5 442.96,477.11 441.34,466.82C439.56,455.49 446.84,450.29 444.6,420.88C444.14,414.82 442.77,372.2 442.77,372.09C442,361.81 425.43,350.9 416.59,347.75C411.58,345.96 404.88,344.1 400.39,342.76C399.37,341.44 399.98,339.6 398.45,338.38C395.7,338.38 393.05,336.95 390.5,335.53C389.79,335.13 366.01,330.74 357.29,330.74C348.63,330.74 335.84,338.68 313.08,326.56C310.1,324.97 304.86,324.81 298.72,320.14C290.33,313.76 284.04,316.59 264.09,320.55C262.05,320.95 260.02,321.06 258.69,322.99C251.36,321.56 244.33,319.65 237.2,318.81C229.84,317.95 220.97,311.13 215.5,312.49C214.79,311.78 214.79,310.66 213.36,310.35C221.37,302.34 215.06,308.91 221.31,290.08C228.45,268.54 220.37,253.68 221.21,243.63C221.21,236.2 231.22,256.53 281.51,251.78C298.37,250.19 325.06,221.31 326.43,200.85C327.04,191.7 326.57,197.14 337.63,194.84C341.98,193.93 347.78,188.23 345.68,184.55C340.67,173.29 336.84,175.48 325.1,175.48C323.3,171.5 323.13,154.84 310.84,145.13C292.61,130.72 293.8,127.73 274.68,123.54C261.07,120.56 248.35,122.52 241.07,125.88C220.74,135.26 222.57,131.04 214.89,141.06C207.74,150.38 209.54,135.93 197.68,178.65C192.06,176.98 192.07,180.99 189.02,180.99C184.37,180.52 188.36,182.77 178.22,183.23C164.76,183.84 116.41,186.49 111.4,186.49C109.36,183.33 106,183.64 102.74,183.54C101.82,182.52 101.01,181.6 99.99,180.59C96.63,180.9 93.57,182.81 90.01,182.53C88.58,182.42 87.87,184.36 86.55,185.38C83.9,184.87 82.07,186.19 80.54,188.23C74.22,188.54 68.01,188.94 61.9,189.25C59.56,193.22 57.21,196.99 62.31,200.86L67.81,200.86C66.38,205.24 63.63,206.26 58.54,204.73C56.79,205.98 63.58,206.36 49.47,206.36C53.53,211.96 67.35,210.02 69.64,200.86L81.15,200.86C82.97,202.93 86.74,214.57 85.84,218.89C84.93,223.21 88.58,223.51 89.2,242.52C90.63,286.02 87.79,285.53 96.94,305.67C99.35,310.96 93.71,315.93 98.57,331.34C94.8,331.44 92.15,327.98 89,328.69C87.27,327.16 89,325.02 87.37,324C86.05,323.8 85.94,325.32 85.12,325.53C85.43,327.67 85.94,329.71 87.67,330.72C87.26,331.84 86.14,332.86 87.47,333.98C88.39,333.88 89.41,334.18 90.02,333.78C91.04,332.56 89.21,331.74 90.12,330.72C97.8,331.74 94.55,338.64 98.07,336.73C98.99,335.1 97.05,334.29 97.05,332.55C100.13,335.43 109.07,329.81 108.97,339.88C108.95,341.92 108.32,343.98 109.68,345.89C110.9,347.6 106.85,350.81 105.4,354.34C107.44,354.75 107.54,352.2 109.58,352.4C111.52,352.6 111.41,350.06 112.43,348.83C113.55,349.34 114.16,350.46 115.49,350.36C114.98,348.12 114.98,348.12 112.84,346.29C112.74,345.07 112.23,343.85 112.74,342.62C119.56,339.05 119.56,339.05 131.58,339.67C129.26,333.88 122.51,337.74 117.01,337.94C123.22,326.53 158.36,314.61 172.52,319.2C167.94,325.52 165.39,332.65 164.68,340.59C163.25,339.57 164.68,338.55 163.25,337.84C153.81,344.13 146.04,340.13 134.32,363.92C135.44,371.56 134.63,378.28 137.07,384.19C134.01,388.77 137.78,391.63 139.31,395.09C138.39,395.29 137.48,394.89 137.17,394.28C135.85,391.63 133.6,389.49 133.5,386.03C133.39,381.96 132.11,377.88 132.07,373.81C131.96,362.53 130.32,362.65 137.77,350.99C140.52,346.69 138.3,338.24 132.27,339.58C140.71,347.82 126.09,357.98 128.6,371.97C129.88,379.11 129.82,386.54 133.69,393.67C131.04,392.75 129,392.14 126.66,391.33C127.27,390.52 127.98,390.01 127.27,388.89C123.63,387.69 120.51,384.88 116.78,382.94C116.63,384.53 118.21,385.45 118.61,387.16C110.66,384.72 102.92,382.27 95.18,378.09C99.66,375.65 98.85,370.86 102.31,368.31C99.87,366.99 98.34,365.36 95.89,365.97C95.69,368.41 98.23,368.01 98.84,369.03C96.9,374 94.05,377.63 88.79,377.98C89.5,377.84 90.25,377.2 91.13,376.03C92.66,374.01 89.94,375.84 88.85,375.64C88.44,374.72 86.71,374.11 87.73,371.97C91.3,375.43 93.23,372.38 95.47,370.14C95.16,369.12 94.25,368.71 93.13,368.1C92.57,368.52 81.56,369.28 85.8,375.74C87.65,378.56 89.56,378.15 87.02,377.98C79.58,370.01 84.51,373.98 84.78,369.63C83.05,368.31 82.64,367.39 83.56,366.57C84.27,366.47 84.58,367.49 85.6,367.18C91.33,362.09 93.65,365.14 93.34,359.64C89.27,361.37 86.11,358.83 82.64,357.4C75.86,354.61 78.03,351.78 73.27,350.98C71.42,346.82 71.74,339.22 67.67,340.9C66.86,339.58 67.16,337.74 65.23,337.44C64.23,338.71 65.98,346.96 62.89,335.81C69.03,331.67 73.38,335.24 79.19,342.33C83.62,335.08 74.02,336.26 71.86,333.37C81.98,326.82 82.21,325.16 85.11,325.53C84.47,321.55 82.49,324.45 70.95,332.15C67.05,334.38 71.16,329.9 57.91,333.58C55.67,332.26 53.84,330.12 51.8,329.1C50.37,328.49 50.07,329.61 49.46,329.81C45.69,328.28 45.59,328.38 44.27,331.44C43.35,331.64 42.74,331.24 42.03,330.52C43.46,327.57 43.66,324.61 40.81,321.96C38.57,323.9 40.71,326.44 39.49,328.38C37.96,327.67 38.17,325.43 36.13,324.81C34.09,327.25 36.74,329.29 36.74,331.63C35.72,331.83 35.21,330.2 33.79,330.82C32.77,333.26 35.62,333.98 36.34,335.81C34.51,336.12 32.47,333.57 30.84,336.22C32.47,339.38 30.84,342.94 32.27,346.1C31.35,346.91 30.33,345.69 29.32,347.12C28.51,349.97 32.68,350.79 32.78,353.74C30.34,354.35 28.6,351.3 26.06,352.52C22.43,358.74 20.88,356.35 27.59,365.46C25.86,367.9 27.49,369.74 29.02,371.57C28.21,372.89 26.47,371.37 26.17,372.49C25.56,374.02 26.18,374.93 26.78,375.65C28.74,377.98 29.48,381.1 31.67,383.39C34.29,386.14 35.41,394.59 41.86,400.3C38.54,404.28 41.8,404.96 40.84,409.26C39.7,416.08 46.83,419.13 53.67,420.06C56.72,420.48 60.81,420.46 63.14,423.83C64.06,425.15 65.78,425.65 67.52,425.05C70.38,424.07 70.15,426.65 66.6,427.9C51.72,433.13 35.07,457.5 37.57,478.93C38.08,483.31 36.63,487.69 37.06,492.17C38.03,502.26 37.14,512.23 36.45,522.32C36.01,528.71 37.04,533.24 36.04,544.22C33.49,543.81 30.65,544 28.81,542.79C23.25,539.17 16.79,540.67 10.88,539.43C6.97,538.61 7.65,539.71 8.75,551.75C8.86,552.97 9.06,554.19 9.46,555.32C12.82,551.14 11.6,546.46 11.09,541.47C15.06,542.18 19.05,541.23 22.91,542.79C30.09,545.7 35.09,543.46 36.76,547.98C39.15,547.47 36.86,549.08 39.51,509.38C40.5,494.59 33.95,461.48 51.94,441.44C68.67,422.79 72.87,425.57 122.73,425.75C129.4,425.77 116.62,424.54 175.29,420.66C223.55,417.46 216.11,420.92 258.41,414.96C311.84,407.42 333.88,411.37 344.38,409.15C353.33,407.26 379.44,428.65 377.28,457.33C376.63,465.99 378.02,474.65 377.08,483.3C375.57,497.24 373.56,488.82 367.4,493.38C372.95,497.26 381.26,490.8 380.03,496.23C377.42,507.72 379.28,515.88 378.91,519.25C374.02,518.94 369.34,522.61 364.34,519.05C366.28,511.82 366.38,504.38 366.78,496.95C366.78,496.03 368,496.64 368.21,495.63C365.81,491.63 367.6,495.5 356.7,491.86C365.65,433.37 339.67,420.92 350.89,427.08C378.74,442.36 361.12,492.78 366.68,492.78C367.29,492.78 367.49,492.27 367.49,491.86C367.64,481.47 370.13,471.18 369.73,460.79C368.16,419.91 352.23,420.06 319.72,419.23C319.62,419.23 85.14,435.51 85.04,435.53C64.32,438.71 55.1,474.01 57.64,499.09C58.36,506.25 58.62,529.69 57.54,550.33C54.69,550.64 51.94,550.74 48.98,552.06C49.18,526.39 51.32,500.93 48.88,475.56C49.69,500.72 48.07,525.78 47.35,550.83C46.03,551.44 44.91,549.91 43.68,550.52C46.94,553.58 49.08,554.19 54.38,553.58C53.97,552.97 53.06,553.48 52.65,552.56C55.91,550.93 58.76,552.55 61.61,553.78C88.39,565.33 86.1,560.88 89.01,564.07C90.13,565.29 91.86,565.7 93.8,565.09C90.34,564.07 87.91,561.37 84.43,560.4C82.14,559.77 59.47,552.15 60.49,550.11C61.3,541.35 59.15,532.69 60.08,523.83C63.26,493.64 51.54,464.81 78.01,441.93C90.1,431.48 272.11,426.24 284.28,424.41C300.73,421.93 327.43,419.78 343.46,425.12C342.22,430.23 343.89,434.27 347.74,451.4C353.36,476.41 346.27,479.3 351.51,484.3C351.1,487.05 349.37,489.7 351.1,492.45C350.8,493.36 351.77,494.03 350.79,493.06C350.48,493.16 349.87,493.16 349.87,493.37C348.32,499.29 341.79,502.39 343.66,512.11C333.07,512.35 334.45,506.76 318.7,512.01C317.94,515.92 315.72,525.95 319.14,528.09C320.41,523.54 319.32,518.59 320.94,513.84C329.39,515.16 337.34,518.22 345.79,519.54C338.86,517.4 332.24,514.55 324.71,512.82C331.22,508.84 338.2,516.56 345.18,512.62C345.07,509.69 349.6,499.11 346.91,511.19C346.6,513.13 346.2,515.06 348.23,516.38C357.92,492.16 341.15,491.21 364.63,496.31C364.43,503.95 363.61,511.59 361.88,519.23C358.61,518.17 348.35,514.92 350.22,517.79C352.59,518.2 354.7,521 361,522.33C358.83,522.1 356.63,521.91 354.44,521.77C357.55,524.49 367.91,523.08 402.31,532.06C410.29,534.14 390.4,526.32 366.33,522.98C370.56,523.18 376.06,522.79 383.38,521.36C386.54,522.38 389.69,524.64 393.67,524.93C401.61,525.49 409.05,528.7 417.61,530.12C404.12,536.86 405.9,527.01 405.9,548.15C405.77,548.15 350.08,534.32 349.98,534.3C328.07,528.69 324.1,525.95 319.69,527.9C319.78,528.12 319.82,528.26 319.82,528.35C320.16,528.04 322.15,527.6 331.85,530.93C353.97,538.53 376.78,543.5 399.38,549.26C406.11,550.97 413.09,551.42 419.55,547.83C423.52,545.63 422.91,553.9 425.36,538.97C425.88,535.81 425.77,532.65 426.68,529.09C421.59,527.77 416.39,526.54 411.2,525.22C412.41,522.02 412.31,518.46 415.26,515.91ZM61.7,195.97C61.45,190.49 67.73,190.88 80.14,190.88L80.14,199.03C66.73,199.03 61.9,200.28 61.7,195.97ZM38.57,340.1C37.14,341.12 36.63,340 35.92,339.29C35.45,338.34 37.95,338.86 38.57,340.1ZM34.6,343.16C34.09,342.96 33.89,342.65 33.89,341.84C34.81,342.14 35.11,342.44 34.6,343.16ZM27.27,359.05C32.07,356.87 29.11,356.91 31.65,362.31C28.49,362.82 28.29,360.58 27.27,359.05ZM31.95,370.56C30.93,369.85 30.22,369.34 29.51,368.93C29.92,367.71 30.32,366.89 31.24,366.59C35.42,367.98 30.5,371.11 33.68,375.66C30.83,374.53 31.04,372.8 31.95,370.56ZM35.11,380.23C34.19,379.42 32.87,379.21 34.3,377.48C35.21,378.1 35.93,378.6 35.11,380.23ZM35.82,366.18C34.7,365.57 34.39,365.06 35.41,364.45C35.62,364.96 36.03,365.36 35.82,366.18ZM32.56,357.93C34.9,356.61 35.92,357.83 36.53,359.76C35.42,359.15 33.69,359.56 32.56,357.93ZM35.11,346.42C37.35,346.83 37.96,348.25 38.78,349.99C34.42,351.8 35.11,353.39 35.11,346.42ZM352.61,476.08C352.92,478.32 352.61,480.05 351.8,481.68C351.69,479.85 351.59,478.12 352.61,476.08ZM352.4,491.06C351.99,490.04 352.2,489.53 353.01,489.33C353.32,489.94 353.42,490.55 352.4,491.06ZM354.24,486.27C354.65,481.89 354.04,477.31 354.55,472.11C356.48,477.31 354.95,481.79 354.24,486.27ZM355.05,470.38C353.64,470.38 352.59,470.64 353.01,469.36C352.53,448.82 343.98,439.29 346.39,426.88C354.14,440.94 357.7,455 355.05,470.38ZM417.08,546.57C418.61,545.45 419.63,545.04 421.77,545.35C419.94,546.06 419.02,546.57 417.08,546.57ZM421.26,543.21C416.98,544.23 412.6,544.33 408.43,547.59C411.16,527.56 402.11,541.16 422.59,531.6C422.18,535.77 421.97,539.44 421.26,543.21ZM443.67,502.06C445.2,502.77 445.3,504.4 446.32,505.01C447.54,505.42 447.44,502.87 448.87,504.2C444.49,510.31 437.77,511.84 430.84,513.47C428.9,512.15 426.87,511.33 425.54,509.5C431.55,506.64 438.27,505.83 443.67,502.06ZM399.77,346.21C411.89,348.15 421.87,353.24 430.74,360.47C430.54,363.02 430.94,365.16 432.37,367.8C432.88,365.86 433.18,364.54 433.59,362.81C445.43,371.14 438.54,388.03 439.7,398.66C445.6,452.56 432.76,465.23 441.33,500.62C436.75,502.25 432.37,503.88 427.48,505C427.98,489.11 426.07,498.98 423.91,506.43C422.99,503.17 420.55,502.05 418.72,500.42C418.52,494.41 418.69,488.4 418.11,482.49C415.4,455.1 400.25,434.55 406.8,408.85C407.94,404.37 408.74,399.99 408.84,395.2C408.64,394.28 407.6,393.88 407.21,392.86C404.26,385.19 393.37,388.54 395.7,384.81C401.81,386.44 403.14,386.44 405.68,384.81C402.22,383.49 398.55,384.2 394.98,381.96C397.83,370.35 399.97,358.44 399.77,346.21ZM214.08,315.04C221.86,313.71 224.97,320.21 230.58,320.95C241.81,322.43 258.12,327.96 262.36,327.88C264.81,327.83 266.54,328.29 268.06,329.82C269.59,337.77 269.28,345.51 266.94,353.15C270.51,346.12 271.32,338.79 269.59,330.44C274.78,333.6 279.57,335.63 283.54,339.61C282.52,339.92 282.11,340.73 280.99,340.32C279.96,335.19 276.93,335.27 277.73,339.3C278.58,343.59 278.36,347.86 278.04,352.24C277.27,362.73 272.23,370.17 262.05,374.75C266.23,370.47 270.3,366.8 271.73,361.51C273.05,356.62 275.3,351.53 272.54,345.93C271.01,347.72 272.87,352.38 270.4,355.1C265.39,360.62 252.95,375.01 245.34,379.75C249.24,383.16 267.58,360.37 270.19,357.34C267.84,371.41 253.56,377.41 248.9,380.26C238.25,386.76 233.33,379.93 230.06,386.47C220.1,385.94 204.62,395.04 198.89,395.33C203.98,392.17 207.5,388.82 208.36,382.7C209.01,378.12 211.5,373.94 211.62,368.95C211.77,362.89 206.58,356.94 203.57,360.8C203.13,361.24 201.74,360.19 201.94,359.27C216.11,340.24 209.2,323.89 214.08,315.04ZM274.99,369.74C274.79,370.66 274.28,370.96 273.56,370.86C273.77,370.35 274.07,369.95 274.99,369.74ZM243.11,385.63C240.05,385.83 237,386.95 233.94,386.14C237,385.02 240.05,385.63 243.11,385.63ZM209.9,368.21C208.78,366.07 207.66,363.83 206.54,361.69C209.29,363.02 210.62,365.16 209.9,368.21ZM336.21,177.23C340.09,179.02 347.18,186.71 340.39,191.8C333.81,196.72 321.77,184.14 336.21,177.23ZM331.83,193.22C330.2,193.73 328.77,193.61 327.55,193.63C262.17,194.37 263.65,196.58 261.95,191.69C258.38,179.21 264.54,181.28 283.54,180.18C362.97,175.59 313.32,177.22 331.83,193.22ZM268.17,197.7C267.25,201.57 269.56,204.44 271.23,207.38C273.73,211.79 274.9,216.65 277.44,221.03C279.68,224.9 278.25,229.59 279.99,233.56C280.09,233.66 279.79,233.87 279.68,234.07C279.27,233.97 278.87,233.87 278.36,233.76C277.33,236.85 277.53,241.48 274.29,242.01C266.9,243.21 264.95,227.14 266.34,220.11C269.82,202.5 264.31,203.28 268.17,197.7ZM272.75,197.4C272.44,198.42 271.94,199.03 270.81,199.03C270.5,198.52 270.3,198.11 269.69,196.99C271.12,197.19 271.93,196.58 272.75,197.4ZM260.63,195.26C262.87,194.65 262.97,196.69 264.09,197.5C262.66,199.23 261.34,197.19 260.12,197.81C260.63,196.99 260.02,195.97 260.63,195.26ZM310.34,148.3C315.62,154.34 324.64,172.26 322.26,175.7C306.78,176.51 291.19,177.33 275.71,178.14C268.89,166.94 250.43,176.77 257.48,189.65C257.58,183.23 257.7,177.42 265.12,175.8C268.19,175.13 270.93,174.68 273.47,178.55C268.89,177.74 264.98,177.29 261.55,180.38C253.36,187.77 269.03,183.63 246.78,221.53C245.25,220.92 244.54,219.8 243.83,218.88C233.65,205.91 255.61,199.88 257.17,192.7C248.02,198.8 243.72,200.52 239.34,207.88C235.73,213.95 240.65,221.19 246.16,225.6C254.21,216.82 259.16,204.71 260.22,197.79C260.32,200.85 262.66,201.46 265.41,201.05C266.62,208.29 260.26,216.6 265.61,236.29C267.61,243.65 274.1,245.47 276.92,242.91C280.6,239.57 282.92,235.48 282.42,230.48C281.45,220.65 276.12,208.86 270.6,201.45C273.45,200.64 274.88,198.6 276.1,196.15C292.5,195.84 308.9,195.54 325.3,195.23C325.3,210.5 294.27,278.85 231.08,233.83C227.1,230.99 222.43,228.63 220.49,223.85C217.64,216.82 213.6,210.39 210.92,203.38C208.81,197.86 209.98,190.56 208.78,185.86C207.97,182.69 208.46,182.52 209.39,174.76C216.21,118.11 277.47,110.65 310.34,148.3ZM205.01,162.46C212.38,145.01 211.11,147.69 221.21,135.98C223.55,136.08 225.28,134.45 227.73,134.15C226.76,137.05 219.62,138.87 214.08,150.86C209.68,160.38 210.41,163.15 209.6,164C205.86,167.89 206.03,181.67 206.03,187.02C206.03,190.59 204.93,194.35 206.03,197.51C218.23,232.51 216.32,228.31 242.7,245.89C243.68,246.54 244.62,246.57 243.92,247.62C210.43,235.58 207.94,223.41 200.94,187.93C199.66,181.46 202.42,168.59 205.01,162.46ZM178.63,185.48C187.13,184.96 180.49,187.02 186.07,196.58C158.36,197.19 131.27,197.7 104.07,198.21C103.56,187.99 96.73,190.49 178.63,185.48ZM97.96,183.65C99.78,185.21 98.75,186.73 95.11,185.69C96.02,184.56 96.74,183.95 97.96,183.65ZM91.64,184.66C90.93,185.98 90.52,186.9 88.89,187.1C89.2,185.68 89.91,184.97 91.64,184.66ZM139.21,360.27C144.18,352.21 149.6,344.18 160.6,343.06C162.03,345.61 164.78,343.37 166.92,344.38C168.47,340.77 167.97,327.72 181.38,312.09C183.03,310.17 185.44,308.22 185.56,305.57C185.74,301.7 186.88,297.93 187.09,294.06C187.91,278.74 188.91,286.29 196.36,254.13C197.23,250.36 203.28,220.57 200.13,218.68C197.3,221.8 198.01,230.27 197.69,233.25C194.53,262.2 183.53,278.41 184.04,297.42C184.12,300.37 184.26,303.85 182.51,306.38C179.98,310.06 177.93,314.22 173.44,316.67C161.1,315.39 165.06,317.8 162.44,316.57C158.27,314.6 142.13,317.62 131.47,325.23C130.64,325.82 129.84,326.55 128.41,326.25C127.39,323.09 125.59,320.25 126.47,316.37C127.71,310.9 125.79,299.42 120.97,296.61C120.97,298.44 121.28,300.07 118.63,300.79C124.97,304.63 121.42,320.03 126.68,327.78C120.26,330.22 115.58,334.4 112.42,340.72C111.3,333.59 106.92,330.74 101.32,331.55C100.3,324.32 99.75,317.09 99.89,309.75C100.13,297.58 92.56,298.02 92.56,274.91C92.56,241.59 92.68,230.86 88.49,219.8C88.3,219.29 88.29,218.68 88.49,218.17C91.02,211.65 80.63,201.29 82.89,189.24C85.13,191.79 88.29,188.93 90.22,191.38C89.91,194.95 91.24,198.2 90.93,201.67C93.27,197.9 91.64,194.03 91.95,189.96C97.35,190.67 101.83,185.27 108.04,186.9C105.04,191.52 96.54,191.35 100.5,200.35C102.57,205.04 109.47,201.75 109.77,201.37C110.86,200.16 105.02,200.38 185.04,199.03C186.16,198.93 187.4,198.61 188.3,199.54C190.78,202.1 197.29,203.99 198.59,210.44C198.79,211.42 198.81,212.67 200.36,212.67C200.45,214.21 199.18,215.74 200.42,217.26C202.38,215.31 202.44,214.38 200.83,212.33C200.77,197.84 187.04,203.91 185.86,184.97C187.02,183.09 191.62,183.79 192.48,182.83C194.21,180.9 196.25,181.4 198.59,182.22C197.41,195.61 203.78,216.71 207.35,222.45C208.29,223.96 208.88,225.71 207.66,227.54C206.56,229.75 210.64,229.9 207.15,239.87C202.12,254.26 211.84,267.37 209.49,280.31C209.2,281.45 209.72,282.14 210.78,282.4C210.59,284.02 211.25,285.39 211.83,287.24C212.72,284.29 212.64,283.81 210.99,282.31C213.89,274.06 208.49,264.88 208.87,261.78C209.81,254.14 207.44,246.2 210.81,238.76C211.23,237.63 210.58,234.91 212.03,232.55C213.86,235.61 216.31,237.74 218.45,240.09C214.59,247.81 227.65,273.69 216.62,295.3C214.39,299.67 218.76,297.15 212.34,308.64C211.42,305.58 214.99,302.43 211.42,299.88C209.59,302.02 211.42,304.36 210.71,306.3C209.28,308.34 205.62,309.05 206.84,312.51C208.88,313.63 210.61,310.07 212.65,312.71C211.94,314.24 212.04,316.07 212.04,317.9C211.23,317.49 211.12,316.17 209.9,316.88C208.06,319.05 211.34,330.89 208.47,338.37C196.91,368.54 204.62,343.03 187.79,387.36C190.45,390.02 199.4,365.5 201.03,361.49C203.98,364.95 207.35,367.4 208.57,371.27C203.33,380 208.42,378.2 203.07,385.02C197.84,391.69 203.69,388.08 204.5,388.28C202.36,391.7 200.37,388.68 196.15,393.98C190.79,400.72 184.56,398.23 171.3,399.89C161.2,401.16 163.78,401.1 147.57,398.26C146.66,396.82 141.01,394.92 139.93,390.72C138.46,385 135.61,366.11 139.21,360.27ZM101.73,384.61C100.71,385.53 100.1,385.53 99.69,383.9C100.61,383.7 101.32,383.7 101.73,384.61ZM114.46,389.5C108.65,389.81 103.56,390.11 98.57,390.42C102.64,386.14 107.64,385.94 114.46,389.5ZM97.45,382.78C96.94,383.39 96.33,383.39 95.21,382.78C96.33,382.17 96.84,381.46 97.45,382.78ZM95.72,391.74C94.91,392.25 94.09,392.76 92.77,392.66C95.43,389.33 95.08,390.47 95.72,391.74ZM86.96,393.78C85.23,394.8 83.5,394.59 81.77,394.49C83.29,393.88 84.72,391.74 86.96,393.78ZM73.21,361.08C73.31,360.06 73.82,359.55 74.74,359.35C80.09,362.48 80.8,361.98 73.21,361.08ZM69.03,378.91C70.46,378.6 71.88,378.91 73.82,379.32C71.78,379.72 70.46,379.72 69.03,378.91ZM73.82,389.91C73.51,389.91 73.21,390.01 72.9,390.01C72.9,389.81 72.9,389.7 72.8,389.7C73.67,389.42 73.82,389.23 73.82,389.91ZM70.35,399.28C68.52,400.71 66.68,400.2 64.95,400.09C66.59,399.38 68.22,398.87 70.35,399.28ZM66.28,381.35C66.99,381.15 67.6,381.25 68.32,381.55C68.32,382.57 68.42,383.59 68.42,384.81C66.18,383.39 66.18,383.39 66.28,381.35ZM68.62,392.56C70.05,392.05 70.86,391.44 71.98,392.36C71.07,392.56 70.05,393.78 68.62,392.56ZM70.86,386.24C70.96,385.73 71.17,385.53 71.67,385.73C71.78,386.45 71.47,386.55 70.86,386.24ZM68.83,373.21C69.64,372.09 70.26,372.19 71.07,373.41C70.15,373.61 69.54,373.82 68.83,373.21ZM76.98,355.69C71.99,355.18 68.12,352.43 63.84,350.19C69.23,349.88 72.19,354.67 76.98,355.69ZM62.21,359.05C59.97,359.86 58.95,358.85 57.73,357.22C60.07,356.3 60.98,357.52 62.21,359.05ZM56.4,362.1C58.84,360.67 60.37,362.2 62,363.32C60.07,363.73 58.03,364.45 56.4,362.1ZM57.52,395.51C55.79,395.61 55.18,395.1 55.99,393.37C57.62,393.68 57.72,394.39 57.52,395.51ZM56.4,336.33C58.44,337.14 58.44,337.14 58.54,339.18C50.04,330.68 56.4,333.09 56.4,336.33ZM57.57,351.64L57.52,351.61C59,348.11 58.33,347.96 58.64,347.23C58.64,349.89 59.63,350.8 57.77,351.68L57.82,351.71C57.21,353.03 58.53,355.48 55.58,355.48C45.99,349.09 53.85,354.35 57.57,351.64ZM49.07,374.33C50.9,373.62 52.64,374.02 54.57,375.35C52.33,375.96 50.7,374.94 49.07,374.33ZM49.47,380.85L49.47,376.98C50.59,377.29 51.72,377.08 51.91,378.51C52.14,380.13 50.8,380.23 49.47,380.85ZM54.77,364.34C55.79,365.05 55.48,365.56 54.57,365.87C54.06,365.26 54.06,364.75 54.77,364.34ZM53.96,369.34C51.52,369.95 51.52,369.95 50.6,368.53C51.92,367.91 52.94,368.83 53.96,369.34ZM49.68,336.64C49.27,336.44 48.76,336.44 48.76,335.83C49.27,335.72 49.58,335.93 49.68,336.64ZM48.05,332.05C48.76,332.76 48.66,333.27 48.05,333.78C47.95,333.28 47.33,332.87 48.05,332.05ZM48.15,333.89C48.15,334.47 48.78,335.05 48.59,335.8C48.61,335.81 48.64,335.82 48.66,335.82C48.53,335.95 48.55,335.96 48.59,335.8C46.06,335.39 46.94,333.72 48.15,333.89ZM45.81,342.65C44.28,342.24 43.37,341.73 43.06,339.9C44.48,340.61 45.2,341.32 45.81,342.65ZM43.67,332.97C42.55,333.68 41.73,334.09 40.61,333.17C41.63,331.34 42.55,332.46 43.67,332.97ZM40.41,393.37C42.55,394.29 43.36,395.41 42.96,397.24C41.83,396.33 41.02,395.31 40.41,393.37ZM59.66,419.25C54.77,416.6 48.96,417.82 44.89,413.65C45.74,406.44 46.43,405.01 45.91,402.55C44.18,403.67 44.99,405.61 44.08,407.34C43.37,405.2 41.84,403.27 43.98,401.23C46.49,401.51 45.5,402.97 46.12,402.35C47.34,402.45 48.46,402.66 49.38,403.37C50.4,404.29 52.03,404.08 52.44,403.27C53.87,400.42 56.21,401.84 58.65,401.03C58.74,407.13 60.07,412.83 59.66,419.25ZM269.39,410.89C252.89,412.11 237,416.39 220.6,415.78C219.38,414.05 220.7,411.71 219.28,409.77C218.47,412.01 218.97,413.95 219.08,416.29C197.62,415.94 118.78,423.43 108.46,423.32C109.48,421.69 111.41,422.71 112.53,421.38C110.49,420.97 108.76,422.09 106.93,421.48C107.74,417.71 107.74,414.15 106.73,410.68C105.3,414.35 106.22,418.42 104.39,421.99C93.95,424.17 86,421.68 78.42,422.4C77.81,421.48 77.5,420.46 77.61,419.45C78.02,419.04 78.83,420.06 78.93,418.74C78.01,416.91 76.99,414.67 78.12,412.32C79.04,412.12 79.95,413.13 80.67,412.32C80.36,410.59 76.7,411 78.23,408.14C79.96,407.63 81.8,407.73 83.63,408.34C83.83,412.31 82.61,416.08 82.71,420.05C84.85,417.3 86.07,406.71 84.44,405.79C83.13,405.53 84.18,407.91 80.67,406.5C79.86,406.18 78.73,406.7 78.12,405.79C79.24,404.26 83.82,404.16 92.89,405.38C93.43,406.28 92,412.2 94.52,405.28C103.99,404.36 113.36,404.47 122.94,403.24C123.25,408.54 123.65,413.73 123.25,419.03C125.69,414.14 125.29,408.95 125.8,403.75C129.87,403.04 133.95,404.06 137.72,402.53C109.42,401.28 100.18,404.44 80.88,402.94C76.45,402.59 76.06,400.09 73.44,401.51C73.85,402.83 75.17,403.04 75.48,404.67C74.05,407.32 75.28,410.17 76.8,413.02C73.74,415.77 73.95,419.13 75.17,422.49C74.25,423.41 73.35,424.81 72.32,424.22C68.29,421.92 69.18,425.56 61.32,418.41C61.93,413.22 60.51,408.02 60.61,402.52C62.34,402.52 63.87,402.42 65.3,402.32C67.24,402.32 69.48,402.83 71,401.81C75.06,399.09 90.53,398.29 97.28,395.6C98.09,394.68 97.18,393.87 98.4,393.26C107.32,394.24 118.98,391.27 122.74,393.57C127.62,396.54 133.05,397.73 138.53,399.07C140.07,399.45 141.69,399.78 142.71,397.64C144.34,399.37 146.07,398.96 147.7,398.35C148.04,401.11 154.45,402.2 157.89,403.54C158.2,405.37 157.48,407 158.4,408.73C159.32,407.1 159.52,405.16 160.74,403.84C168.58,403.23 176.32,402.17 184.07,401.9C195.9,401.5 193.75,398.36 200.06,398.03C207.09,400.78 214.22,400.58 221.76,398.44C215.34,398.13 209.23,398.24 202.81,397.12C215.66,391.53 224.24,388.51 231.43,389.38C241.55,390.61 241.57,385.11 255.06,391.01C270.68,397.84 271.49,394.6 250.88,397.43C245.69,398.14 240.29,395.7 235.19,397.94C240.69,397.63 245.99,398.35 251.28,398.65C252.13,402.91 250.42,407 252.2,407C252.81,404.25 253.42,401.6 254.03,398.75C259.33,397.02 264.73,397.94 270.53,397.12C268.88,401.83 268.78,406.31 269.39,410.89ZM322.46,404.99C316.63,405.79 305.5,404.42 305.25,404.07C302.29,400.07 284.36,404.89 280.29,398.57C279.68,401.12 277.95,399.89 276.62,400.2C276.52,403.26 280.39,402.85 280.29,405.19C281.61,405.39 281.61,404.07 282.63,404.17C310.36,406.86 309.49,405.93 309.22,407.84C294.24,410.41 282.61,407.49 276.52,410.79C275.2,411.4 273.57,411.3 271.94,410.59C272.55,406.72 273.16,402.85 273.67,399.18C274.99,398.37 275.91,399.89 276.83,399.08C277.44,397.35 275.51,396.53 275.3,395.21C278.18,393.15 284.6,393.59 287.52,386.45C291.04,377.85 296.34,371.79 298.72,365.26C303.25,352.85 293.53,343.39 295.05,339.39C291.18,339.92 293.84,342.84 295.66,347.44C303.06,366.15 291.71,370.93 286.09,385.64C283.7,391.9 279.62,389.58 271.52,393.18C248.93,384.71 257.31,388.59 260.72,387.17C261.43,386.25 262.04,385.44 262.76,384.42C261.64,383.1 261.14,380.15 258.89,382.28C255.29,385.68 251.21,381.39 251.45,386.56C250.23,386.15 249.31,385.85 247.99,385.44C250.54,383.71 252.78,382.3 255.53,381.57C269.45,377.85 265.54,375.87 267.65,375.87C270.71,376.79 267.04,379.74 269.79,380.86C269.99,376.68 274.07,376.28 276.11,374.14C276.01,372.82 274.58,373.43 274.38,372.71C274.79,370.27 278.35,371.18 278.66,368.94C278.25,367.51 276.72,368.43 276.42,367.41C277.85,364.56 280.8,362.52 280.19,358.75C281.62,359.46 282.74,360.99 284.57,360.28C284.77,359.26 286.4,358.96 286.2,357.84C285.79,356.52 284.26,356.21 283.65,355.09C284.26,354.07 285.89,354.48 286.4,352.95C284.77,351.63 283.85,349.49 281.82,348.57L281.82,342.76C282.94,343.88 283.04,344.08 283.04,345.51C290.64,346.78 284.09,342.33 283.96,342.05C283.96,341.13 285.59,340.73 285.18,339.5C284.57,338.28 282.74,337.46 283.75,336.14C278.05,330.95 270.92,328.4 263.89,324.32C278.61,321.46 269.54,319.8 301.78,337.15C301.78,343.43 308.03,342.96 305.75,351.31C303.4,359.95 297.93,368.46 299.54,378.71C300.95,387.74 292.95,389 293.22,390.93C306.08,392.15 301.98,377.13 304.22,369.95C305.87,364.66 307.72,359.37 309.21,353.96C312.38,342.41 304.76,341.27 305.54,337.97C306.78,332.7 300.25,334.09 288.02,325.64C287,324.93 285.88,324.29 284.56,324.42C282.01,324.67 280.18,323.2 277.94,322.18C289.25,319.12 298.52,322.59 306.36,330.53C308.09,329.31 309.82,329.92 311.15,330.84C317.76,335.38 326.69,334.09 328.67,337.77C328.77,337.79 344.6,337.45 346.29,337.26C356.02,336.19 351.85,332.72 387.24,339.91C391.23,340.72 396.16,340.85 396.1,344.39C395.83,359.4 393.37,385.11 383.88,397.05C382.68,400.65 389.03,392.11 391.32,389.1C388.98,395.72 386.33,402.04 382.87,408.15C381.34,407.13 379.81,406.74 378.18,406.62C363.63,405.55 361.77,402.03 354.65,403.56C326.61,409.59 328.89,404.1 322.46,404.99ZM372.16,425.05C366.56,418.02 360.45,411.91 351.99,408.14C359.22,404.27 365.44,408.75 372.06,409.06C372.47,414.66 371.55,419.86 372.16,425.05ZM402.11,523.86C403.94,522.74 406.59,523.35 407.71,521.01C405.12,515.83 393.98,526.48 387.85,518.87C387.75,518.67 387.44,518.77 387.54,518.77C386.22,518.77 386.73,520.2 385.71,520.5C384.49,520.3 383.16,520.09 382.14,518.87C382.14,499.72 381.57,508.76 385.6,497.48C386.31,499.72 384.68,501.86 386.21,503.39C386.92,504 387.64,503.29 388.35,503.59C388.76,505.12 388.35,507.36 390.59,507.66C392.12,507.46 392.22,505.72 393.54,505.72C394.76,506.03 393.64,507.86 395.07,508.06C396.19,507.96 396.29,506.33 397.62,506.33C398.64,506.74 400.16,506.54 400.88,507.65C403.4,511.54 406.79,509.28 409.84,509.48C398.19,500.59 395.61,505.53 391.2,500.01C380.65,486.81 380.07,494.1 378.06,490.94C380.67,481.93 380.61,447.24 378.47,440.42C377.15,436.24 375.41,432.27 373.48,428.4C375.92,429.42 376.41,428.2 376.23,426.46C375.65,420.97 377.45,415.36 375.42,409.96C385.34,405.82 384.44,419.59 394.88,389.59C405.36,390.29 407.67,395.36 405.78,401C396.22,429.56 409.07,456.09 411.89,465.07C415.47,476.47 415.86,488.09 416.37,499.6C415.45,500.82 414.23,500.72 413.42,501.33C408.64,504.51 413.02,503.26 408.02,525.57C406.19,524.87 403.94,525.28 402.11,523.86Z" style="fill-rule:nonzero;"/>
        <path d="M319.81,528.4C319.66,528.54 319.83,528.65 319.81,528.4Z" style="fill-rule:nonzero;"/>
        <path d="M509.06,309.03L509.16,308.93C508.93,308.93 508.95,308.84 509.06,309.03Z" style="fill-rule:nonzero;"/>
        <path d="M816.58,265.03C813.42,262.69 816.68,258.41 813.32,255.46C812.2,258.72 812.92,261.68 812.2,264.53C811.5,267.28 810.47,269.93 810.67,273.09C808.43,273.19 806.49,272.68 804.35,271.97C806.29,270.65 808.83,271.46 809.85,269.22C807.89,264 797.06,274.59 791.01,267.08C788.98,266.57 790.69,270.29 785.71,267.39C785.61,260.57 784.39,253.54 788.87,247.22C790.19,248.65 786.63,252.62 791.21,252.82C791.92,254.04 791.52,256.08 793.45,256.59C794.77,256.69 794.98,254.96 796.1,254.86C797.53,254.96 796.51,256.68 797.22,256.8C798.86,257.07 798.95,255.58 800.68,255.48C803.74,256.7 806.79,260.78 811.88,258.23C808.62,256.09 805.66,253.67 801.8,253.14C790.41,251.58 791.2,239.36 781.63,241.94C785.17,229.08 782.76,217.15 783.46,202.52C783.8,195.49 781.02,189.18 777.86,182.76C779.8,182.76 780.19,181.64 780,179.91C779.45,174.82 781.02,169.72 779.39,164.63C789.13,161.59 788.07,172.9 797.52,145.79C799.76,146.2 801.91,145.47 803.94,146.5C813.19,151.18 804.22,156.85 804.75,180.72C805.25,203.11 816.58,211.57 817.58,241.43C817.67,244.08 818.09,246.62 817.68,249.48C815.24,250.6 812.38,251.62 812.69,255.29C814.42,255.91 815.48,251.26 818.39,252.44C824.42,254.89 818.82,258.93 829.19,264.77C832.95,266.89 846.34,258.93 851.6,253.87C856.57,249.08 850.47,248.67 849.87,248.06C848.44,248.57 848.24,249.69 847.32,250.4C846.4,249.08 846,246.83 843.45,248.46C843.12,215.75 838.43,221.7 842.64,204.35C843.86,199.3 845.16,189.67 844.27,179.8C839.98,132.21 847.4,128.78 835.82,118.38C819.6,103.81 805.66,103.87 802.21,101.68C801.4,100.56 802.11,98.83 800.27,97.71C742.61,80.56 748.3,104.28 751.07,83.45C757.64,81.7 764.01,86.71 769.3,76.42C771.36,72.99 765.06,65.13 760.03,64.71C746.63,63.57 751.24,67.15 748.83,55.03C747.25,47.1 744.43,39.98 738.13,34.56C726.69,24.69 716.69,9.25 685.57,11.03C675.09,11.63 665.56,17.5 655.93,19.69C652.44,20.48 648.38,27.09 643.3,30.79C637.48,35.03 632.61,54.23 630.77,61.14C628.83,61.14 627.01,61.76 625.37,63.18C623.85,64.5 629.44,64.1 546.43,64.1C545.41,61.04 542.36,61.15 540.01,60.23C535.2,54.04 539.02,52.41 525.56,35.44C525.02,35.8 524.67,35.29 524.33,34.77C524.74,34.77 525.04,34.67 525.35,34.67C506.13,12.89 471.46,17.42 456.59,39.56C451.14,47.68 441.15,52.25 445.49,77.66C446.56,83.92 444.19,81.71 446.2,86.22C451.31,97.67 456.38,99.48 456.18,105.37C455.67,106.08 454.24,104.66 453.53,106.29C453.12,108.73 456.69,109.65 456.79,112.3C454.45,112.81 452.92,110.16 450.47,110.98C447.36,117.2 445.13,113.65 451.59,123.1C450.67,125.24 451.18,127.38 453.12,129.01C452.41,130.44 450.88,128.6 450.37,130.44C450.57,132.48 462.59,153.46 465.24,155.9C464.02,157.63 463.3,159.57 464.43,161.81C464.82,162.77 463.05,173.91 475.23,174.64C488.62,175.45 482.34,180.65 491.32,179.02C490.55,183.66 487.65,179.99 479.71,187.58C463.4,203.16 462.32,211.63 461.17,230.26C460.95,233.76 460.8,288.65 459.44,291.38C456.49,290.26 453.24,291.06 450.48,288.53C449.48,287.62 449.95,288.56 435.91,286.9C434.38,286.72 432.99,287.1 433.26,288.63C434.06,293.1 433.87,297.7 434.69,302.79C438.26,298.31 436.73,293.72 436.52,289.04C440.39,289.75 444.05,289.05 447.72,290.47C454.72,293.17 459,291.29 460.66,295.36C461.27,295.05 461.69,294.75 461.68,294.24C461.48,279.26 463.58,264.29 463,249.32C462.57,238.12 463.33,226.91 464.63,215.81C465.56,207.87 469.42,201.14 474.71,195.23C497.31,170.03 489.16,187.48 601.93,174.96C606.19,174.49 609.05,177.51 614.36,181.17C507.12,192.46 504.83,181.85 490.7,200.01C474.8,220.46 481.45,244.64 479.9,297.18C477.15,297.59 474.4,297.49 471.75,299.01C471.95,274.77 473.79,250.93 471.65,227.1C472,267.71 470.09,282.45 470.22,297.99C468.49,297.58 467.06,297.28 464.82,296.87C471.14,300.64 473.99,302.47 475.72,299.01C482.82,298.06 493.76,307.35 508.95,308.97C507.54,306.72 503.08,307.61 482.14,297.99C482.15,297.89 481.56,247.73 482.24,238.91C483.11,227.71 480.4,211.9 498.54,195.62C501.49,192.97 505.27,192.18 509.03,191.75C533.05,189 616.96,179.86 638.09,185.54C648.35,188.3 646.16,185.2 657.75,185.34C661.93,185.39 662.33,185.03 663.25,180.65C667.53,179.53 672.01,180.26 676.39,180.04C703.59,178.67 725.67,172.69 748.71,179.43C747.9,185.75 749.81,191.66 751.26,197.56C759.19,229.99 751.19,226.7 756.35,235.55C756.04,237.99 754.31,240.44 756.45,242.88L756.45,243.39C756.62,243.56 755.33,243.18 755.23,243.9C754.55,248.82 748.26,250.98 749.63,260.91C742.59,262.26 740.24,255.37 726.2,261.22C725.35,264.8 723.33,275.88 726.97,275.59C726.49,278.33 726.33,275.23 735.26,278.33C757.27,285.96 779.88,291.05 802.39,296.66C817.99,300.55 818.61,293.2 823.98,295.44C826.63,289.74 825.81,283.52 827.24,277.41C822.45,276.19 817.67,274.97 812.78,273.74C814.13,270.74 813.83,267.48 816.58,265.03ZM783.17,268.19C778.28,267.68 773.8,271.35 769.22,267.78C770.95,260.85 771.16,253.83 771.46,246.7C772.07,246.19 773.09,246.29 773.29,245.38C792.9,243.53 779.38,240.68 783.17,268.19ZM843.98,251.48C844.9,252.7 845.61,253.52 846.02,254.23C847.24,254.94 847.14,252.6 848.46,253.72C844.49,259.73 837.97,260.85 831.55,262.48C830.12,261.16 828.19,260.65 826.97,258.81C832.37,255.76 838.78,255.35 843.98,251.48ZM802.62,105.21C813.93,106.94 823.2,111.73 831.45,118.25C832.56,131.56 834.01,121.28 834.3,120.8C845.54,127.28 839.29,144.92 840.21,154.62C845.99,215.87 833.96,206.68 841.43,250.27C837.15,251.7 833.08,253.33 828.49,254.24C828.81,244.9 828.57,242.23 825.23,255.16C824.31,252.72 822.07,251.59 820.24,250.17C820.24,203.99 805.73,204.1 807.91,173.27C808.66,162.72 812.35,154.97 810.05,149.84C806.24,141.34 798.26,145.11 798.44,141.49C801.6,141.8 804.55,143.43 807.71,141.69C804.65,140.67 801.5,140.47 797.93,138.84C800.79,127.93 802.72,116.83 802.62,105.21ZM761.27,66.3C773.92,73.6 764.29,85.53 757.4,79.34C753.86,76.16 753.13,72.83 755.77,70.38C757.4,68.86 759.03,67.32 761.27,66.3ZM756.48,81.48C686.31,79.2 692.17,80.71 690.48,74.96C688.89,69.58 691.4,66.4 697,66.4C793.09,66.41 738.76,63.03 756.48,81.48ZM706.06,116.11C703.31,116.72 703,118.35 703.82,120.39C695.07,131.72 690.98,112.82 693.43,103.18C696.96,89.31 693.25,87.29 695.77,81.69C696.18,82.5 696.69,83.01 696.58,83.22C695.56,85.56 696.78,87.4 697.8,89.33C698.99,91.58 705.73,107.16 705.13,110.92C704.85,112.75 704.74,114.48 706.06,116.11ZM700.86,81.89C700.28,83.35 698.59,84.68 698.21,81.69C699.23,81.48 700.05,81.28 700.86,81.89ZM692.82,81.89C689.36,82.2 689.15,81.99 689.56,79.34C691.39,79.04 691.6,80.77 692.82,81.89ZM706.98,16.09C726.23,20.8 748.63,45.48 748.95,64.27L704.44,64.27C699.1,54.23 681.33,60.3 686.82,74.35C687.13,67.73 688.04,62.21 695.48,61.41C698.43,61.1 700.57,61.61 702.51,64.57C698.44,64.06 694.68,62.75 691.2,65.69C687.34,68.96 688.04,72.62 688.96,75.06C686.52,86.67 680.61,95.02 675.01,103.89C669.39,97.57 668.09,93.9 674.09,87.9C681.1,80.89 684.8,81.59 686.11,77.41C683.38,78.32 675.01,82.99 671.44,86.78C664.76,93.88 667.06,101.07 674.39,107.25C681.11,100.22 685.7,92.07 688.85,82.7C689.77,84.84 691.5,85.25 693.23,85.45C694.19,91.22 692.66,89.84 691.8,94.11C690.06,102.74 690.1,116.34 692.92,121.92C698.75,133.42 713.61,120.15 705.96,102.57C703.61,97.17 701.78,91.47 698.32,86.27C700.87,85.56 702.5,83.83 703.62,81.58C719.1,82.19 734.38,82.7 749.76,83.21C750.77,93.65 738.22,108.42 731.53,115.5C718.31,129.49 701.95,135.91 676.42,125.99C670.03,123.51 651.5,109.87 649.53,103.48C646.38,93.24 640.71,86.96 640.97,76.69C640.97,76.58 639.49,53.48 647.39,42.26C654.23,32.54 663.97,5.58 706.98,16.09ZM633.64,64.16C636.89,37.63 654.05,23.28 655.44,21.68C656.74,21.87 665.73,18.54 660.53,21.68C646.41,30.22 643.9,46.33 643.21,47.04C639.01,51.4 639.13,64.64 638.52,68.53C636.75,79.82 638.75,81.23 640.76,89.21C643.78,101.19 648.82,111.71 660.01,118.24C664.19,120.68 666.83,124.76 671.11,127C650.84,121.71 642.44,109.75 637.39,91.76C636.35,88 633.08,68.71 633.64,64.16ZM631.4,64.27C629.46,65.9 626.92,65.8 624.88,66.82C627.42,63.35 628.85,62.74 631.4,64.27ZM523.02,33.81C522.41,33.61 522,33.4 522.1,32.89C522.61,33 523.02,33.1 523.02,33.81ZM450.7,86.17C443.77,74.15 444.38,56.02 452.33,48.48C441.71,74.56 453.59,79.97 450.7,86.17ZM454.87,94.82C454.46,94.41 454.06,94.11 453.95,92.99C454.77,93.6 455.59,93.81 454.87,94.82ZM451.92,117.33C452.94,116.72 453.75,116.21 454.98,115.6C454.67,117.33 455.39,118.55 455.79,120.18C453.14,120.59 452.94,118.56 451.92,117.33ZM455.89,128.34C455.38,127.22 454.26,127.02 454.06,126C454.37,125.29 454.67,124.57 455.49,124.27C459.52,125.28 455.05,128.33 457.73,132.62C455.18,131.9 455.69,129.86 455.89,128.34ZM457.83,134.55C459.36,134.96 459.77,135.57 459.77,136.69C458.24,136.79 457.83,136.18 457.83,134.55ZM459.76,123.55C459.05,123.24 458.44,122.94 459.45,122.12C459.97,122.43 460.07,122.94 459.76,123.55ZM456.4,116.42C459.15,114.99 460.17,116.01 461.09,118.15C459.46,117.54 458.24,117.13 456.4,116.42ZM458.34,101.04C458.85,101.24 459.26,101.55 458.65,102.16C458.03,101.85 458.13,101.44 458.34,101.04ZM459.05,105.01C461.19,105.62 462,106.95 462.72,108.68C459.43,109.5 459.05,112.57 459.05,105.01ZM460.07,98.19C460.88,98.6 462.11,98.19 462.51,99.41C460.99,100.32 460.68,99 460.07,98.19ZM463.33,88.41C461.8,87.6 462.01,85.25 459.76,85.15C458.33,87.39 460.78,89.22 460.37,91.26C459.45,91.26 458.84,90.04 457.82,90.95C457.21,92.99 459.65,93.7 460.16,95.43C455.97,95.43 444.74,66.1 452.52,54.48C453.44,53.1 454.33,38.96 466.58,32.68C469.88,30.99 474.33,24.98 480.03,26.26C482.11,26.73 479.9,24.37 492.25,23.61C516.63,22.11 520.51,38.54 529.12,41.33C527.31,45.15 534.53,50.94 536.56,60.68C535.85,61.49 534.73,62 534.32,61.8C531.47,60.07 528.93,61.82 526.27,62.41C509.16,66.22 514.51,62.99 502.64,64.35C500.2,67.92 497.95,71.38 502.95,75.45C523.89,75.45 511.67,74.29 520.47,83.09C522.51,85.13 522.61,88.39 524.54,90.83C526.38,88.08 522.51,82.01 520.16,79.42C515.63,74.45 518.08,71.18 521.89,65.67C525.05,65.77 527.7,63.33 531.46,63.02C522.9,70.15 522.8,70.25 524.64,72.9C526.37,70.66 527.19,67.81 530.24,66.18C529.73,68.42 529.83,70.25 530.04,72.39C533.2,70.35 532.38,67.2 532.99,64.24C535.43,64.75 537.06,63.12 539.2,62.2C540.83,63.12 543.38,62.51 544.39,65.15C541.64,64.84 541.03,65.15 537.46,67.8C536.35,75 537.63,80.67 543.98,78.19C545,77.79 545.41,76.15 547.24,77.07C543.57,80.94 536.95,83.18 539.7,90.31C536.34,92.75 533.69,95.71 531.55,99.99C530.53,93.37 527.88,90.93 521.98,91.43C517.09,91.84 513.32,89.19 509.25,88.68C508.44,86.95 509.86,85.11 507.62,84.3C505.28,86.95 507.01,88.99 508.64,90.92C508.44,91.94 507.32,92.86 508.54,94.08C509.35,93.77 510.37,94.28 511.19,93.67C511.8,92.65 510.38,91.94 510.99,91.12C515.47,90.51 515.57,95.3 518.02,97.23C519.85,95.19 517.61,94.28 517.51,92.85C519.24,93.87 520.97,93.77 522.81,93.36C525.05,92.86 528.24,94.78 528.62,97.03C529.17,100.28 527.81,103.75 530.15,107.01C525.97,106.91 525.87,107.01 525.97,113.63C527.6,111.08 531.57,111.8 531.78,108.23C533.1,108.13 533.61,109.55 534.84,109.25C535.45,107.11 533.21,106.81 532.4,105.38C532.6,104.36 531.89,103.34 532.5,102.02C544.43,96.97 539.45,98.83 550.63,99.47C547.6,93.42 540.91,98.15 536.47,97.13C548.49,86.94 561.83,79.92 578.23,79.41C576.12,83.1 577.53,76.86 614.59,78.7C618.46,81.35 619.89,86.03 623.55,87.97C622.43,98.97 617.44,108.04 611.63,116.69C619,111.3 623.73,99.02 624.57,90C626.71,91.73 627.83,93.36 628.54,94.99C628.74,105.69 628.13,116.28 626.81,126.87C629.56,116.99 630.17,106.91 629.36,96.31C631.6,97.84 631.07,99.36 630.99,100.79C629.44,127.48 635.2,128.84 629.67,138.99C621.34,140.3 627.04,140.39 615.92,136.44C612.46,135.21 608.79,134.71 605.63,132.67C610.01,132.67 612.06,129.65 610.42,125.54C609.54,123.35 610.12,118.04 604.82,113.32C587.18,97.61 588.02,102.52 582,100.59C568.69,96.33 558.1,110.79 551.95,123.41C554.66,124.6 552.16,126.09 554.09,136.55C556.05,147.19 551.2,140.61 557.15,151.01C556.54,151.32 555.92,151.22 555.72,150.91C553.02,146.64 551.84,147.86 550.83,134.61C549.25,113.88 553.35,116.66 556.43,108.74C558.98,102.18 552.88,97.22 551.34,98.76C551.34,100.97 555.33,101.75 551.85,110.58C549.35,116.92 545.86,123 547.47,130.54C548.81,136.85 548.59,143.48 552.16,149.89C542.06,146.66 547.86,147.74 545.95,145.41C542.79,144.39 540.04,141.74 536.27,140.01C536.58,142.05 537.9,142.66 538.61,144.19C530.87,141.13 523.13,139.4 515.9,135.02C519.87,132.78 518.96,128.3 522.11,126.26C517.29,121.94 514.79,124.33 517.42,125.65C518.13,126.06 518.95,126.06 519.25,126.87C513.55,133.9 512.53,134.82 511.2,134.41C511.2,133.49 512.83,133.29 512.22,132.17C511.3,131.66 510.59,132.98 509.47,132.48C509.78,131.46 507.43,131.16 508.76,129.22C512.12,132.17 513.95,129.53 515.99,127.39C514.46,125.66 510.8,125.56 508.25,127.08C505.7,128.61 505.5,129.83 507.23,134.21C501.39,127.92 505.45,131.39 506.01,127.18C505.5,126.37 503.97,125.96 504.58,124.53C505.39,123.92 505.9,125.45 507.13,124.63C508.66,123.2 510.7,121.88 513.24,121.47C516.77,113 509.23,123.52 495.41,109.15C493.17,106.4 495.21,101 489.6,99.58C489.09,98.77 489.29,97.03 487.56,96.93C486.65,97.93 488.16,105.05 485.42,95.2C493.16,90.01 496.32,97.75 501,101.01C504.11,93.96 496.24,95.8 493.67,92.76C498.46,90.72 501.62,86.85 506,84.61C502.39,83.41 492.7,93.14 491.13,92.35C487.46,90.52 484,92.25 480.64,93.16C478.3,91.73 476.67,89.59 473.92,88.58C472.6,91.13 470.86,87.97 469.13,88.99C467.91,89.19 468.52,90.72 467.7,91.33C462.95,90.74 469.97,86.46 464.13,82.57C462.41,84.23 464.35,86.68 463.33,88.41ZM515.58,72.92C506.2,72.92 502.61,73.73 502.44,70.07C502.34,67.93 503.56,66.1 505.7,66C521.3,65.23 518.53,65.93 515.58,72.92ZM549.5,77C568.34,77 567.02,76.67 567.02,77.81C557.85,79.34 550.42,85.04 542.06,89.01C540.03,80.07 547.97,83.32 549.5,77ZM627.53,144.33C627.02,143.62 626.21,143.31 626.72,142.5C628.14,142.29 628.54,142.7 627.53,144.33ZM533.82,145.75C528.32,146.06 523.63,146.77 518.24,146.56C522.71,142.7 527.4,142.49 533.82,145.75ZM520.27,140.56C520.98,140.25 521.49,140.46 521.9,141.27C520.88,142.09 520.27,142.09 520.27,140.56ZM516.09,139.44C516.8,138.83 517.31,138.73 517.82,139.24C517.42,139.85 517.01,140.46 516.09,139.44ZM516.4,146.98C515.89,148.71 514.67,148.41 513.75,148.71C514.46,147.99 514.77,146.67 516.4,146.98ZM502.85,150.85C504.38,149.83 505.7,148.1 507.64,149.42C507.64,150.49 508.36,150.16 502.85,150.85ZM492.46,155.12C490.63,156.14 489.2,156.04 487.37,155.83C489,155.02 490.42,154.62 492.46,155.12ZM488.49,138.22C490.81,137.45 490.56,139.5 490.73,141.68C489.4,140.66 487.77,140.36 488.49,138.22ZM490.93,130.37C491.85,129.45 492.46,129.56 492.87,130.57C492.26,131.09 491.75,131.19 490.93,130.37ZM491.14,148.61C492.06,147.8 492.97,147.8 493.89,148.51C492.97,148.71 492.15,149.93 491.14,148.61ZM491.44,135.57C492.56,135.67 493.78,135.77 494.9,135.88C493.68,136.89 492.56,136.38 491.44,135.57ZM496.03,145.75C495.52,146.26 495.22,146.56 494.81,146.06C495.01,145.75 495.21,145.45 496.03,145.75ZM486.65,109.19C491.13,107.76 492.86,113.06 496.73,113.16C492.56,113.57 490.12,110.1 486.65,109.19ZM472.29,131.49C474.12,130.68 475.55,131.29 477.59,132.3C475.35,133.12 473.92,132 472.29,131.49ZM475.04,135.87C474.94,137.3 473.82,137.3 472.7,137.5L472.7,134.34C473.92,134.24 475.15,134.24 475.04,135.87ZM473.62,126.5C475.05,125.58 476.06,126.19 477.8,127.11C475.96,127.22 474.74,127.83 473.62,126.5ZM477.39,123.45C477.19,123.04 477.29,122.64 477.9,121.92C478.51,123.04 478.51,123.55 477.39,123.45ZM474.23,110.2C482.27,112.1 480.84,107.28 480.34,113.26C478.3,112.24 476.16,112.04 474.23,110.2ZM481.66,107.05C481.05,106.95 480.85,106.54 480.95,105.83C481.87,106.03 482.07,106.44 481.66,107.05ZM480.64,110.1C480.64,109.49 480.54,108.78 481.66,108.67C481.97,109.59 481.66,110.1 480.64,110.1ZM477.59,93.19C478.81,94.82 480.95,95.84 481.56,97.98C479.52,96.96 477.69,95.84 477.59,93.19ZM478.91,149.32C480.23,149.63 480.54,150.34 480.34,151.46C478.91,151.46 478,151.15 478.91,149.32ZM479.32,120.09C482.38,119.48 482.58,119.48 484.62,121.52C482.78,121.51 480.95,122.12 479.32,120.09ZM470.87,95.03C470.26,93.71 471.38,92.99 471.58,92.18C471.58,93.09 471.99,94.21 470.87,95.03ZM469.03,101.55C468.01,101.14 466.99,100.84 466.89,99.21C468.22,99.82 468.73,100.63 469.03,101.55ZM466.69,92.68C466.18,93.09 465.67,93.7 464.65,92.99C465.57,91.97 465.57,91.97 466.69,92.68ZM464.55,149.73C466.49,151.05 466.49,151.05 466.49,153.19C465.57,152.07 464.75,151.05 464.55,149.73ZM468.42,168.67C468.62,165.21 469.74,162.05 469.54,158.28C467.81,159.6 468.83,161.44 467.6,162.35C466.89,160.41 465.77,158.68 467.6,156.95C474.93,159.6 474.93,159.6 476.77,157.15C478.2,157.35 479.62,156.74 481.25,157.15C481.76,162.55 482.57,167.85 482.57,173.75C477.69,171.52 472.5,172.44 468.42,168.67ZM565.29,175.09C553.38,176.16 541.56,178.86 529.33,177.64C529.94,176.32 531.37,177.44 531.88,176.21C530.25,175.7 528.72,176.92 527.09,176.21C527.7,172.75 527.7,169.39 526.78,166.13C525.56,169.59 526.37,173.36 524.54,176.52C516.19,178.56 508.14,176.42 499.99,176.83C499.38,175.61 498.67,174.49 500.6,173.57C499.48,171.74 498.66,169.7 499.58,167.66C500.39,167.05 501.41,168.47 502.02,167.35C501.51,165.92 499.58,166.23 499.27,164.19C500.9,162.46 502.73,162.97 504.67,163.88C505.08,167.45 503.86,170.7 504.47,174.17C506,169.99 506.41,165.82 506,160.72C503.66,163.37 501.72,161.64 499.68,161.03C502.02,159.3 504.67,160.79 507.12,160.52C509.26,160.28 511.5,160.32 513.54,161.13C514.17,167.42 513.31,163.09 515.58,160.82C524.34,160.31 533.1,159.7 541.96,159.19C542.57,164.08 542.37,168.97 542.37,173.86C544.71,169.28 544.1,164.18 544.92,159.29C548.69,158.88 552.36,159.39 555.92,158.48C524.04,157.53 502.43,161.13 498.27,157.46C497.66,156.85 496.44,156.65 495.52,157.36C495.52,158.58 497.15,158.68 497.25,160.21C496.33,162.76 496.84,165.4 498.57,168.16C495.62,170.81 496.02,174.07 497.04,177.23C493.88,179.67 493.27,179.47 484.21,173.26C484.31,168.37 483.4,163.58 483.19,158.18C488.89,158.79 493.99,156.86 499.18,155.53C514.39,151.65 519.1,153.65 518.33,149.32C528.62,150.1 538.46,147.56 541.35,149.32C544.92,151.5 557.23,156.66 560.91,154.01C562.85,158.9 568.24,160.83 569.87,165.83C570.16,167.26 579.25,169.33 580.67,172.45C581.48,172.14 581.38,171.13 582.4,171.33C591.83,173.15 596.73,166.89 601.04,172.55C589.13,174.58 577.11,174.02 565.29,175.09ZM662.46,159.2C661.74,165.01 662.05,170.81 660.93,176.62C660.52,178.76 660.01,180.8 660.93,183.14C654.82,184.57 648.71,183.65 642.9,184.57C641.48,184.57 637.44,182.06 629.86,181.92C620.39,181.74 612.78,177.29 605.41,172.14C592.05,162.8 586.19,173.98 579.03,166.44C569.63,163.45 558.04,149.64 557.44,146.78C556.07,140.34 553.52,124 556.73,118.26C560.79,111 567.86,101.98 576.19,102.17C581.08,102.28 586.07,102.48 590.25,106.14C593.51,108.99 597.39,111.02 600.64,113.98C611.32,123.69 605.11,132.52 605.53,132.52C605.43,132.62 605.98,132.79 599.93,130.89C598.7,126.6 598.25,123.89 595.86,123.05C596.75,127.14 597.29,132.85 601.36,133.95C609.3,136.1 616.44,140.47 624.07,143.42C625.19,143.93 626.31,144.54 626.92,146.07C624.63,154.46 627.96,147.8 615.41,145.76C628.56,153.28 624.93,151.41 625.6,169.29C625.76,168.57 627.86,158.9 627.43,158.29C624.82,154.56 635.21,136.34 634.15,131.4C631.8,120.47 635.01,99.93 630.58,93.41C625.16,85.41 614.96,76.76 614.69,73.04C615.1,71.61 616.52,71 616.12,69.47C600.12,77.94 648.61,77.79 539.52,74.16C537.99,70.09 539.11,66.78 541.86,66.83C637.41,68.6 617.35,64.62 617.64,68.46C620.39,69.68 622.43,67.14 624.87,66.93C624.67,67.54 623.44,68.36 624.87,68.87C626.4,67.34 628.44,67.14 630.88,67.14C629.77,81.54 638.09,103.2 638.11,103.3C642.39,123.02 657.74,121.69 658.58,128.15C659.94,138.51 663.78,148.5 662.46,159.2ZM663.07,136.38C662.05,133.63 661.24,130.57 661.54,127.11C677.17,133.36 707.49,138.8 721.03,128.33C724.99,125.26 729.38,122.52 733.15,118.55C734.27,124.66 732.54,129.96 730.91,135.25C738.65,130.26 735.8,122.82 735.39,115.9C740.99,110.2 745.58,103.68 749.45,96.85C766.56,92.06 782.76,97.05 799.16,100.82C799.26,107.85 798.36,114.27 797.63,120.58C795.97,134.9 794.59,141.6 787.55,152.87C788.88,153.54 787.51,154.72 794.88,145.23C792.64,151.34 790.3,157.35 786.93,163.06C785.61,162.14 784.38,161.73 783.16,161.63C771.48,160.75 764.86,157.34 761.46,158.47C758.75,159.37 743.73,162.88 736.1,160.81C730.81,159.37 727.66,160.52 722.45,160.4C714.77,160.23 711.35,156.94 695.15,156.94C693.21,156.94 691.58,156.33 690.36,154.5C689.24,155.72 687.81,155.72 686.49,155.72C686.59,158.47 689.95,158.16 689.95,160.1C696.81,158.64 743.01,162.97 697.08,163.97C680.07,164.34 681.13,172.21 683.84,154.9C684.96,153.88 686.08,155.61 686.79,154.39C687.2,152.86 685.36,152.35 685.57,150.82C688.12,149.39 691.37,149.29 693.62,147.15C699.23,141.81 698.81,136.05 695.45,142.36C692.25,148.38 690.66,145.7 681.7,149.29C661.45,141.64 668.76,145.11 671.62,143.69C672.23,142.98 672.84,142.06 673.56,141.14C672.64,139.61 671.63,137.37 669.79,139.31C667.86,141.35 666.02,140.33 663.98,140.23C664.39,138.7 666.22,139.31 666.63,137.99C665.52,137.4 664.09,137.71 663.07,136.38ZM776.34,178.96C771.15,172.44 765.44,166.84 757.09,163.07C765.76,162.07 755.14,159.91 776.55,164.39C776.65,169.39 776.14,174.17 776.34,178.96ZM679.88,166.02C674.79,166.53 670,167.14 664.91,167.65C668.49,147.96 660.48,156.3 681.41,153.08C679.27,157.47 679.88,161.75 679.88,166.02ZM665.32,146.87C678.95,152.19 676.93,151.47 676.93,152.37C668.52,150.74 665.32,157.15 665.32,146.87ZM695.47,176.52C684.88,178.17 674.39,177.74 663.59,178.46C663.59,175.71 664,173.27 664.71,170.62C671.85,169.8 718.06,164.32 727.35,165.63C732.53,166.36 734.22,164.55 737.94,165.12C746.23,166.38 750.15,163.07 755.15,165.53C786.72,181.05 781.1,209.72 781.33,224.2C781.42,230.11 781.43,236.02 779.5,242.03C777.29,242.22 774.98,242.82 772.57,242.64C772.14,243.7 772.83,244.89 773.09,245.25C771.92,245.08 771.37,243.48 769.72,243.86C767.07,244.48 764.63,243.05 762.08,242.43C764.12,221.04 766.87,199.85 754.24,180.5C784.9,192.53 764.29,242.97 772.55,242.63C769.07,242.63 786.48,187.63 755.05,176.42C750.96,174.95 725.74,171.81 695.47,176.52ZM752,183.75C750.46,174.5 764.27,198.6 760.76,219.81C760.57,220.93 760.66,222.36 758.42,221.85C758.42,202.78 754.12,204.27 752,183.75ZM759.64,236.82C759.64,222.8 759.37,224.49 760.45,224.49C761.17,228.67 760.66,232.84 759.64,236.82ZM758.52,239.67C758.72,240.18 758.93,240.69 758.11,241.3C757.29,240.38 757.91,240.08 758.52,239.67ZM757.19,232.44C757.29,231.12 757.5,229.79 757.6,228.47C758.21,229.99 758.11,231.32 757.19,232.44ZM819.63,293.14C820.24,292.43 820.95,292.02 822.38,292.33C821.57,293.14 820.75,293.65 819.63,293.14ZM822.89,290.29C818.31,291.72 813.21,291.1 810.06,295.59C812,291.52 810.67,287.34 811.18,283.37C815.46,282.35 819.74,281.43 824.12,279.19C823.71,283.26 823.3,286.73 822.89,290.29ZM819.23,278.06C815.46,280.2 811.28,279.89 808.13,282.44C808.33,286.51 808.54,290.69 808.74,295.17C804.91,294.69 742.46,278.31 740.9,277.85C726.17,273.53 727.16,276.43 727.16,275.52C728.16,256.47 724.95,263.2 751.8,268.08C745.38,265.94 739.17,263.29 732.34,261.76C736.22,257.62 745.66,265.3 751.29,261.45C751.19,258.9 752.21,256.87 753.63,254.52C752.56,279.76 758.94,252.21 756.69,243.2C760.56,245.03 764.84,245.14 769.42,246.15C769.01,253.38 768.5,260.51 766.77,267.64C762.9,266.62 759.54,265.4 755.67,265.09C756.53,268.08 762.07,267.1 759.53,269.3C765.94,270.07 772.59,273.27 787.25,269.78C789.8,270.49 792.34,272.83 795.81,273.04C803.74,273.56 810.97,276.73 819.23,278.06Z" style="fill-rule:nonzero;"/>
        <path d="M39.49,246.8C47.7,248.21 62.7,253.63 76.77,244.05C85.31,238.23 87.93,239.77 86.45,233.46C80.57,236.86 77.74,242.69 69.24,244.05C63.92,244.9 62.89,249.72 42.96,244.05C16.08,236.4 5.48,207.69 5.48,190.57C5.48,185.59 7.76,185.91 9.96,174.58C11.54,166.45 17.28,161.03 28.5,152.88C34.11,148.81 33.82,151.81 37.06,150.23C48.66,144.57 66.29,145.23 79.03,157.05C81.88,159.7 84.22,162.86 88.5,163.67C87.67,166.39 88.4,166.39 96.24,179.46C98.38,179.36 98.8,178.13 97.77,176.3C95.16,171.69 93.2,166.81 89.32,163.06C86.88,160.71 85.86,157.05 82.39,155.83C82.39,156.24 82.49,156.54 82.7,156.95C81.64,157.22 80.74,155.86 82.25,155.86C82.81,155.75 72.74,144.45 53.87,143.81C18.26,142.6 9.38,172.63 3.86,176.71C2.68,177.58 -1.76,188.74 0.8,201.67C4.5,220.33 -1.12,211.83 10.78,227.95C18.05,237.82 27.31,244.71 39.49,246.8ZM25.03,237.43C24.32,237.53 23.81,237.23 23.6,236.41C24.31,236.41 24.72,236.71 25.03,237.43ZM18.3,231.42C21.52,235 21.34,234.49 21.15,234.68C17.93,231.45 17.87,231.85 18.3,231.42ZM15.35,228.16C14.23,226.63 12.29,225.72 11.78,223.07C13.62,224.8 14.64,226.43 15.35,228.16ZM7.1,176.62C6,181.03 0.4,192.42 6.08,207.48C7.23,210.53 8.12,213.59 8.42,216.95C3.43,214.04 -3.69,185.9 7.1,176.62Z" style="fill-rule:nonzero;"/>
        <path d="M487.47,523.75C481.94,523.68 487.31,522.94 475.04,519.68C470.05,518.35 465.66,516.22 463.53,511.02C462.61,508.78 459.76,507.86 459.46,505.21C457.83,504.9 456.51,504.6 454.16,504.19C455.89,507.96 454.57,511.42 455.28,514.78C456.2,515.39 456.5,514.17 457.22,514.47C457.63,515.9 456.81,517.42 457.53,518.95C460.18,520.07 462.62,523.84 465.27,519.36C468.12,519.67 466.59,523.13 468.84,523.74C469.86,523.94 469.65,522.72 470.06,522.21C473.68,522.55 469.66,526.32 473.73,528.22C475.05,526.49 478.31,527.51 479.03,524.04C485.04,528.11 491.25,526.99 497.47,524.75C499.3,527.81 500.12,530.66 500.83,533.71C482.57,545.33 480.24,541.39 472.31,542.98C469.8,543.26 458.31,540.73 456.32,540.03C455.26,539.5 452.64,544.12 442.77,541.76C441.95,541.57 440.94,541.76 440.63,542.47C438.65,546.42 430.7,542.62 426.78,547.36C428.53,550.07 430.48,548.62 445.52,547.67C452.86,547.21 455.06,541.97 459.17,544.41C460.78,545.36 462.43,546.04 464.36,545.22C465.54,544.43 466.86,547.35 471.9,546.85C479.55,546.09 487.64,546.93 494.51,542.47C499.42,539.28 499.55,536.58 503.27,535.34C501.66,517.34 496.67,523.87 487.47,523.75Z" style="fill-rule:nonzero;"/>
        <path d="M896.64,271.45C893.99,271.45 891.34,270.53 888.49,271.76C887.06,272.37 884.71,272.59 883.5,271.86C878.25,268.68 871.84,268.62 866.8,265.14C862.77,262.36 859.02,250.72 853.56,254.55C856.21,257.3 853.25,260.66 854.78,263.62C855.8,264.23 855.8,262.6 856.72,262.81C857.13,264.24 856.01,265.66 856.82,267.39C857.63,268.41 859.57,268.31 860.18,269.73C862.32,270.24 863.13,268.51 864.36,267.69C866.8,268.1 865.47,271.19 867.62,271.87C868.63,272.19 868.43,270.75 869.15,270.44C872.3,270.97 868.47,274.31 872.51,276.04C873.73,274.31 876.79,275.12 877.5,272.07C883,276.25 888.91,274.62 894.71,272.99C896.34,275.64 897.05,278.39 897.77,281.24C890.54,285.76 877.67,293.8 857.23,287.25C853.57,286.08 852.63,290.82 845.41,288.88C843.48,288.36 841.64,288.17 840.32,290.31C838.94,292.55 831.98,289.39 827.79,294.38C832.88,296.52 837.67,294.18 842.36,294.38C847.35,294.59 851.73,292.75 856.21,290C861.26,294.55 889.87,295.14 896.24,285.42C897.17,284 899.09,283.99 900.01,282.57C899.9,278.58 899.29,274.81 896.64,271.45Z" style="fill-rule:nonzero;"/>
        <path d="M319.3,528.24C319.28,528.23 319.26,528.21 319.24,528.2C319.14,528.3 319.2,528.24 319.3,528.24Z" style="fill-rule:nonzero;"/>
        <path d="M319.3,528.13C319.27,528.15 319.24,528.16 319.21,528.17C319.24,528.21 319.26,528.17 319.3,528.13Z" style="fill-rule:nonzero;"/>
        <path d="M95.82,564.5C94.09,565.01 95.51,566.54 94.09,567.45C88.28,566.64 81.97,566.23 75.55,566.43C77.59,572.64 76.87,578.65 77.99,585.07C73.81,583.34 70.25,581.5 65.56,580.79C67.8,583.23 70.65,582.73 72.38,584.66C72.58,585.27 71.26,585.37 71.87,586.39C77.6,582.19 68.83,589.14 91.94,589.14C93.47,589.14 94.79,588.73 95.81,586.9C90.11,586.59 84.91,585.58 79.1,585.68C80.22,579.98 80.02,574.68 79.1,568.77C84.5,569.48 90,567.34 95.4,569.99C95.5,575.8 96.21,581.4 96.83,587.1C98.56,587.41 99.17,586.29 98.97,585.16C97.39,576.29 98.31,565.56 95.82,564.5Z" style="fill-rule:nonzero;"/>
        <path d="M516.4,310.36C514.87,310.67 516.09,312.3 514.46,313.11C509.16,312.19 503.36,312.3 497.25,311.99C498.98,318 498.68,323.6 499.39,329.61C495.62,327.98 492.36,326.35 488.59,325.94C489.91,327.77 492.56,327.37 493.99,329C493.99,329.92 493.68,329.92 493.18,329.61C493.38,330.02 493.49,330.42 493.69,331.04C495.32,330.02 496.85,329.41 497.87,331.55C497.87,332.85 516.56,335.33 516,331.45C511.01,331.04 506.02,330.64 500.62,330.13C501.64,325.04 501.54,320.05 500.62,314.65C520.15,315.6 514.25,309.62 517.32,331.66C519.26,331.86 519.56,330.54 519.36,329.52C517.64,320.8 518.85,311.06 516.4,310.36Z" style="fill-rule:nonzero;"/>
        <path d="M70.35,584.87C49.77,575.4 28.89,566.94 8.42,557.67C10.77,561.65 65.87,585.68 70.35,584.87Z" style="fill-rule:nonzero;"/>
        <path d="M434.6,304.04C434.4,303.84 433.44,304.92 434.5,305.47C459.4,318.43 551.92,355.37 434.6,304.04Z" style="fill-rule:nonzero;"/>
        <path d="M62.41,185.38C63.63,186.09 65.16,187.01 66.59,187.82C63.44,181.93 51.19,179.61 45.2,190.37C41.06,197.8 46.83,202.39 46.52,202.69C46.94,204.81 48.51,204.07 46.83,202.38C42.42,190.96 50.7,183.42 58.75,184.96C50.7,190.56 49.48,198.81 56.41,203.4C54.78,199.73 52.79,196.6 54.47,192.81C56.04,189.27 58.64,186.9 62.41,185.38Z" style="fill-rule:nonzero;"/>
        <path d="M74.63,566.74C2.81,536.52 11.36,543.6 14.84,544.64C50.41,555.19 70.8,569.61 74.63,566.74Z" style="fill-rule:nonzero;"/>
        <path d="M495.82,312.5C477.08,304.45 458.74,295.59 438.88,290.8C480.98,306.29 493.41,314.31 495.82,312.5Z" style="fill-rule:nonzero;"/>
        <path d="M435.11,526.81C432.07,528.57 433.48,531.29 433.89,533.74C436.64,533.94 439.49,534.96 441.12,531.7C442.75,528.45 438.88,524.64 435.11,526.81ZM437.46,532.51C438.17,529.86 435.73,531.08 435.02,530.27C435.69,524.5 443.29,530.13 437.46,532.51Z" style="fill-rule:nonzero;"/>
        <path d="M834.91,282.65C840.31,283.06 842.43,282.04 842.55,279.08C842.74,274.27 833.05,271.68 834.91,282.65ZM838.68,281.13C837.97,279.6 837.97,279.6 836.03,279.09C836.13,277.36 837.15,276.65 838.68,276.75C841.13,276.74 841.3,280.97 838.68,281.13Z" style="fill-rule:nonzero;"/>
        <path d="M843.26,278.27C843.26,283.43 851.15,283.73 851.51,278.58C851.9,273.1 843.26,273.11 843.26,278.27ZM849.68,278.07C850.1,281.02 845.65,281.9 845.2,278.27C845.2,275.29 849.47,275.29 849.68,278.07Z" style="fill-rule:nonzero;"/>
        <path d="M442.24,529.36C442.01,534.19 450.19,535.16 450.59,529.67C450.98,524.41 442.5,524.01 442.24,529.36ZM448.76,529.36C448.76,532.57 444.06,532.52 444.28,529.46C444.28,526.49 448.76,526.4 448.76,529.36Z" style="fill-rule:nonzero;"/>
        <path d="M856.3,279.19C857.83,278.99 857.11,281.02 858.85,281.23C859.36,278.79 859.16,276.44 858.34,274.1C855.71,272.87 850.49,274.73 852.64,277.46C853.86,278.78 853.56,280.01 852.95,281.43C855.08,281.43 855.08,279.6 856.3,279.19ZM857.12,276.24C856.2,277.87 855.29,277.87 854.06,276.34C855.18,275.52 856,274.91 857.12,276.24Z" style="fill-rule:nonzero;"/>
        <path d="M455.28,530.38C456.81,530.28 455.99,532.32 457.42,532.32C458.44,532.01 458.44,529.37 457.32,525.29C455.23,523.95 449.54,525.74 451.51,528.45C452.5,529.8 452.63,531.1 452.02,532.52C454.16,532.92 453.96,530.58 455.28,530.38ZM456.1,527.42C455.18,529.05 454.27,529.05 453.04,527.52C454.16,526.61 454.98,526 456.1,527.42Z" style="fill-rule:nonzero;"/>
        <path d="M61.39,445.32C65.97,440.43 71.47,436.56 77.18,433.1C70.05,434.73 64.65,438.7 61.39,445.32Z" style="fill-rule:nonzero;"/>
        <path d="M483.39,199.03C494.28,188.59 490.67,192.67 498.97,186.6C491.95,188.43 486.55,192.41 483.39,199.03Z" style="fill-rule:nonzero;"/>
        <path d="M55.69,452.96C53.35,456.12 50.39,467.63 50.29,474.15C52.22,466.71 53.85,460.09 55.69,452.96Z" style="fill-rule:nonzero;"/>
        <path d="M478.3,205.95C475.45,211.86 474.23,218.28 473.51,224.79C475.45,218.58 476.67,212.27 478.3,205.95Z" style="fill-rule:nonzero;"/>
        <path d="M509.57,309.14C509.77,312.3 512.32,311.08 513.95,311.69C513.24,309.54 510.79,310.36 509.57,309.14Z" style="fill-rule:nonzero;"/>
        <path d="M106.21,213.08C106.54,207.12 111.49,208.06 113.85,203.61C112.77,198.73 113.17,202.29 106.82,206.26C101.11,209.83 105,216.39 104.48,217.26C103.77,218.97 102.04,214.69 102.04,220.52C102.04,221.44 102.45,222.66 102.04,223.17C100,226.02 101.32,228.88 101.84,231.73C102.34,234.48 101.84,237.33 102.35,240.69C107.43,232.96 100.81,229.53 103.67,222.36C105.71,226.23 107.04,229.59 107.64,233.26C109.97,247.43 119.93,269.91 122.1,280.01C124.1,289.29 120.59,291.3 123.32,295.59C133.98,292.45 105.36,228.24 106.21,213.08Z" style="fill-rule:nonzero;"/>
        <path d="M201.86,309.85C205.02,308.12 204.51,305.16 199.82,300.07C203.19,291.9 199.21,289.98 200.53,287.34C201.75,284.89 201.14,283.06 199.61,269.92C199.61,269.01 197.18,269.5 197.78,272.77C199.07,283.85 196.94,286.46 198.09,287.64C200.28,289.9 197.97,296.38 197.17,298.44C195.13,295.28 195.34,291.31 192.69,288.36C192.28,291.72 191.79,294.66 194.22,297.93C202.96,309.73 199.94,308.78 201.86,309.85Z" style="fill-rule:nonzero;"/>
        <path d="M183.21,345.09C181.97,329.06 205.8,319.77 203.07,310.66C200.83,314.33 199.4,317.99 196.86,321.05C188.42,321.43 183.88,334.04 181.28,339.38C180,342 180.67,344.98 180.87,348.14C182.81,347.64 183.31,346.32 183.21,345.09Z" style="fill-rule:nonzero;"/>
        <path d="M197.58,344.07C197.27,340.1 193.51,337.45 195.03,333.27C192.18,334.29 192.38,336.43 192.59,338.36C193.18,343.83 200.53,344.69 196.46,352.82C197.73,357.27 196.69,357.04 197.78,357.91C199.51,357.6 200.12,356.28 199.61,355.06C198.15,350.92 203.68,347.94 197.58,344.07Z" style="fill-rule:nonzero;"/>
        <path d="M180.57,362.51C182.71,367.6 180.88,373.71 184.64,378.5C190.8,377.04 184.7,365.73 180.57,362.51Z" style="fill-rule:nonzero;"/>
        <path d="M111.2,277.05C112.42,282.46 101.99,295.43 104.17,297.83C107.38,298.98 111.54,283.28 112.52,281.74C113.64,280.21 113.85,278.27 111.2,277.05Z" style="fill-rule:nonzero;"/>
        <path d="M176.7,355.69C177.38,357.74 177.21,360.38 179.86,362.01C181.59,359.06 179.06,357.12 178.54,354.88C177.85,351.92 175.69,350.91 173.04,349.89C172.93,352.73 175.95,353.46 176.7,355.69Z" style="fill-rule:nonzero;"/>
        <path d="M206.24,316.06C203.9,318.2 204.41,320.54 203.9,323.39C206.03,321.16 206.74,319.22 206.24,316.06Z" style="fill-rule:nonzero;"/>
        <path d="M202.87,331.44C203.38,329.61 204.5,327.87 204.81,325.43C202.87,327.77 202.16,329.91 201.24,334.6C202.57,333.68 202.67,332.46 202.87,331.44Z" style="fill-rule:nonzero;"/>
        <path d="M95.11,232.95C96.43,231.01 96.84,229.08 96.54,226.23C95,229.38 94.9,229.99 95.11,232.95Z" style="fill-rule:nonzero;"/>
        <path d="M120.67,294.77C121.59,292.02 119.86,290.9 118.23,289.07C118.33,291.51 118.94,293.14 120.67,294.77Z" style="fill-rule:nonzero;"/>
        <path d="M118.84,297.42C118.43,295.69 118.43,293.75 117.01,291.82C116.29,294.67 118.02,295.89 118.84,297.42Z" style="fill-rule:nonzero;"/>
        <path d="M115.07,283.67C115.38,285.2 115.88,286.52 116.7,287.85C117.82,284.59 117.82,284.59 115.07,283.67Z" style="fill-rule:nonzero;"/>
        <path d="M209.6,289.58C209.19,290.29 209.4,290.6 209.7,290.9C210.72,290.5 210.31,290.09 209.6,289.58Z" style="fill-rule:nonzero;"/>
        <path d="M194.22,286.52C195.03,286.52 194.92,285.6 194.02,285.3C193.29,285.3 193.34,286.74 194.22,286.52Z" style="fill-rule:nonzero;"/>
        <path d="M336.82,391.74C337.84,392.76 335.7,393.78 337.02,394.9C339.06,394.39 338.45,392.05 340.08,390.62C347.6,388.23 387.75,376.16 390.3,363.42C376.55,377.88 358.21,382.77 340.29,388.27C339,387.77 338.92,382.51 338.35,388.68C335.8,390.72 331.73,390.31 329.08,393.77C332.13,393.07 334.17,391.34 336.82,391.74Z" style="fill-rule:nonzero;"/>
        <path d="M325.41,400.91C348.94,396.84 369.72,387.06 387.14,370.56C369.21,386.04 347.51,393.88 325.41,400.91Z" style="fill-rule:nonzero;"/>
        <path d="M311.56,336.84C323,347.88 331.76,357.44 323.27,378.09C339.66,372.63 319.34,332.95 311.56,336.84Z" style="fill-rule:nonzero;"/>
        <path d="M366.15,401.32C374.1,401.52 387.54,390.12 387.64,383.39C382.86,391.85 375.32,396.94 366.15,401.32Z" style="fill-rule:nonzero;"/>
        <path d="M284.36,367.5C279.88,374.32 273.87,380.23 269.28,387.16C275.81,381.76 280.69,375.04 284.36,367.5Z" style="fill-rule:nonzero;"/>
        <path d="M318.18,395.72C323.27,394.7 325.31,390.42 323.07,386.15C321.54,389.4 321.03,392.97 318.18,395.72Z" style="fill-rule:nonzero;"/>
        <path d="M345.88,363.63C350.16,363.22 356.47,360.37 358.82,358.03C354.44,359.86 350.16,361.8 345.88,363.63Z" style="fill-rule:nonzero;"/>
        <path d="M388.67,351.51C387.75,354.16 389.69,355.69 389.89,357.62C391.11,355.38 390.6,353.55 388.67,351.51Z" style="fill-rule:nonzero;"/>
        <path d="M281.31,365.06C283.66,364.59 284.22,363.94 284.5,361.04C284.57,360.25 285.25,358.95 281.31,365.06Z" style="fill-rule:nonzero;"/>
        <path d="M284.16,346.11C283.35,347.74 283.35,347.74 285.18,348.76C285.99,347.33 285.07,346.72 284.16,346.11Z" style="fill-rule:nonzero;"/>
        <path d="M434.3,431.27C431.75,433.61 426.56,451.85 427.37,455.82C430.73,447.77 435.01,440.23 434.3,431.27Z" style="fill-rule:nonzero;"/>
        <path d="M408.22,378.6C411.99,378.8 414.23,381.96 417.49,382.98C419.53,384 416.66,375.85 408.22,378.6Z" style="fill-rule:nonzero;"/>
        <path d="M430.43,403.25C429.62,406.2 430.43,409.77 433.18,415.47C432.57,411.3 432.46,407.02 430.43,403.25Z" style="fill-rule:nonzero;"/>
        <path d="M436.84,392.36C438.78,389.81 438.27,388.18 433.99,383.5C434.3,386.96 435.42,389.61 436.84,392.36Z" style="fill-rule:nonzero;"/>
        <path d="M404.56,379.32C400.49,375.86 398.14,375.65 396.72,378.91C399.56,379.01 402.01,378.6 404.56,379.32Z" style="fill-rule:nonzero;"/>
        <path d="M412.91,402.75C415.76,400.1 416.78,396.54 419.33,393.99C415.86,395 412.81,399.18 412.91,402.75Z" style="fill-rule:nonzero;"/>
        <path d="M427.27,484.84C425.74,486.98 424.83,488.71 425.74,490.85C428.09,489.33 428.09,489.22 427.27,484.84Z" style="fill-rule:nonzero;"/>
        <path d="M428.19,474.15C426.56,476.29 427.17,478.43 427.58,480.47C429.51,477.71 429.51,477.41 428.19,474.15Z" style="fill-rule:nonzero;"/>
        <path d="M432.16,375.24C432.77,377.48 432.67,379.93 434.4,382.17C435.22,380.03 435.22,380.03 432.16,375.24Z" style="fill-rule:nonzero;"/>
        <path d="M432.67,417.21C432.16,419.65 432.26,421.59 433.48,423.83C434.71,421.28 434.71,420.67 432.67,417.21Z" style="fill-rule:nonzero;"/>
        <path d="M422.89,385.12C421.36,387.36 420.34,388.99 420.14,391.54C422.69,390.01 423.2,388.08 422.89,385.12Z" style="fill-rule:nonzero;"/>
        <path d="M428.39,467.43C426.86,468.96 427.07,470.28 427.37,471.61C428.39,470.58 428.49,469.36 428.39,467.43Z" style="fill-rule:nonzero;"/>
        <path d="M430.63,370.76C431.55,370.45 432.16,369.84 431.65,368.82C429.5,368.83 430,371.39 430.63,370.76Z" style="fill-rule:nonzero;"/>
        <path d="M66.99,419.35C68.72,414.05 69.74,408.76 69.13,403.26C66.48,408.45 65.97,413.85 66.99,419.35Z" style="fill-rule:nonzero;"/>
        <path d="M228.54,414.05C231.9,412.73 232.41,406.31 229.56,401.73C227.73,405.9 230.58,410.18 228.54,414.05Z" style="fill-rule:nonzero;"/>
        <path d="M239.03,412.73C241.07,410.29 241.78,407.54 241.27,403.77C238.25,406.03 240.12,407.67 239.03,412.73Z" style="fill-rule:nonzero;"/>
        <path d="M164.27,417.72C164.78,416.29 164.68,414.77 164.17,413.03C163.25,415.48 163.25,415.48 164.27,417.72Z" style="fill-rule:nonzero;"/>
        <path d="M243.11,375.35C245.86,376.95 269.28,355.8 260.53,345.3C263.06,362.64 242.53,372.14 243.11,375.35Z" style="fill-rule:nonzero;"/>
        <path d="M236.18,328.29C239.03,332.47 243,335.83 244.63,340.82C243.72,335.42 241.27,331.04 236.18,328.29Z" style="fill-rule:nonzero;"/>
        <path d="M250.65,353.85C247.9,359.86 245.25,365.87 242.6,371.88C246.78,366.48 248.3,359.96 250.65,353.85Z" style="fill-rule:nonzero;"/>
        <path d="M109.47,379.72C115.72,381.75 113.72,383.33 115.79,383.33C116.66,383.33 116.89,383.28 116.44,382.61C113.02,375.75 102.46,377.45 109.47,379.72Z" style="fill-rule:nonzero;"/>
        <path d="M147.26,326.96C151.13,324.92 155.41,323.5 159.28,321.46C154.59,321.77 150.52,323.5 147.26,326.96Z" style="fill-rule:nonzero;"/>
        <path d="M114.56,353.04C110.18,354.26 107.33,357.32 104.78,360.68C106.72,360.47 111.71,356.3 114.56,353.04Z" style="fill-rule:nonzero;"/>
        <path d="M120.37,347.94C117.01,348.14 116.91,351.91 114.56,352.93C118.43,352.63 119.76,351.51 120.37,347.94Z" style="fill-rule:nonzero;"/>
        <path d="M130.35,351.2C126.58,349.67 124.85,349.88 123.02,352.12C125.66,353.04 127.91,351.1 130.35,351.2Z" style="fill-rule:nonzero;"/>
        <path d="M166.2,326.66C164.98,326.05 164.16,326.46 163.25,327.88C164.88,327.98 165.7,327.88 166.2,326.66Z" style="fill-rule:nonzero;"/>
        <path d="M160.94,320.23C161.04,320.1 161.1,320.11 160.61,320.23C158.29,320.78 159.36,322.42 160.94,320.23Z" style="fill-rule:nonzero;"/>
        <path d="M353.01,507.15C351.11,509.05 351.11,509.22 352.7,511.63C355.36,509.8 355.36,509.39 353.01,507.15Z" style="fill-rule:nonzero;"/>
        <path d="M361.88,499.82C361.88,498.19 360.96,497.48 359.44,497.17C357.13,498.4 359.85,502.52 361.88,499.82Z" style="fill-rule:nonzero;"/>
        <path d="M351.28,521C352.2,522.02 353.32,521.92 354.34,521.92C353.52,521 352.51,520.6 351.28,521Z" style="fill-rule:nonzero;"/>
        <path d="M48.45,404.99C47.02,406.82 46.72,408.66 46.11,410.8C48.15,408.86 48.35,408.45 48.45,404.99Z" style="fill-rule:nonzero;"/>
        <path d="M487.27,71.6C485.47,65.92 493.38,56.32 499.9,59.78C495.72,61.72 493.72,65.08 493.28,69.46C492.81,74.15 496.64,76.39 499.6,79.85C495.83,79.85 492.98,79.75 490.23,78.93C490.13,80.15 491.16,80.64 492.06,81.17C498.77,85.07 510.72,79.46 508.97,75.67C507.65,75.57 507.54,76.78 506.93,77.3C498.63,84.35 488.49,67.58 500.92,61.1C504.26,59.36 502.51,59.25 507.44,62.42C506.42,59.36 503.16,57.63 497.76,57.23C490.49,56.68 480.1,67.16 488.95,76.93C488.36,75.17 487.83,73.39 487.27,71.6Z" style="fill-rule:nonzero;"/>
        <path d="M526.58,135.26C529.74,136.79 532.9,137.7 535.54,139.84C534.63,136.08 529.94,133.73 526.58,135.26Z" style="fill-rule:nonzero;"/>
        <path d="M534.22,111.43C530.04,112.45 527.29,115.4 524.44,118.97C526.79,118.46 530.76,115.2 534.22,111.43Z" style="fill-rule:nonzero;"/>
        <path d="M564.88,86.98C568.14,85.35 571.5,84.23 574.45,82.19C570.69,82.6 567.33,83.93 564.88,86.98Z" style="fill-rule:nonzero;"/>
        <path d="M539.42,106.84C536.26,106.84 536.26,110.41 534.12,111.42C537.89,111.02 538.91,110.1 539.42,106.84Z" style="fill-rule:nonzero;"/>
        <path d="M548.48,109.7C546.24,108.27 544,108.58 541.66,110.31C544.31,111.83 546.34,109.7 548.48,109.7Z" style="fill-rule:nonzero;"/>
        <path d="M613.37,87.18C614.9,87.08 615.61,86.67 616.83,85.86C615.2,85.55 614.49,86.06 613.37,87.18Z" style="fill-rule:nonzero;"/>
        <path d="M519.96,71.09C519.35,71.9 519.35,71.9 520.16,73.23C520.47,72.21 520.68,71.6 519.96,71.09Z" style="fill-rule:nonzero;"/>
        <path d="M581.79,87.18C581.08,86.37 580.67,86.47 580.16,87.59C581.18,88.1 581.49,87.69 581.79,87.18Z" style="fill-rule:nonzero;"/>
        <path d="M647.8,141.68C649.94,151.66 650.55,161.75 647.7,172.03C655.13,172.03 652.25,144.28 647.8,141.68Z" style="fill-rule:nonzero;"/>
        <path d="M655.03,179.16C658.29,174.98 659.61,155.12 656.97,150.23C657.88,160.12 657.17,169.39 655.03,179.16Z" style="fill-rule:nonzero;"/>
        <path d="M637.51,148.3C638.83,154.92 642.2,160.42 641.99,167.45C644.54,163.68 641.58,151.76 637.51,148.3Z" style="fill-rule:nonzero;"/>
        <path d="M643.31,180.18C645.14,176.72 645.35,173.25 643.51,169.89C642.8,173.36 641.89,176.72 643.31,180.18Z" style="fill-rule:nonzero;"/>
        <path d="M590.14,114.69C591.26,117.44 592.08,119.99 593.91,122.64C595.13,119.27 593.81,116.72 590.14,114.69Z" style="fill-rule:nonzero;"/>
        <path d="M645.56,130.58L645.66,130.48C645.53,130.44 645.56,130.4 645.56,130.58Z" style="fill-rule:nonzero;"/>
        <path d="M645.56,130.44C645.56,127.88 645.27,122.41 642.81,121.71C644.25,129.69 644.27,130.15 645.56,130.44Z" style="fill-rule:nonzero;"/>
        <path d="M656.05,145.75C657.37,143.1 656.56,140.15 656.86,137.3C655.13,139.95 655.44,142.9 656.05,145.75Z" style="fill-rule:nonzero;"/>
        <path d="M647.59,139.23C647.69,136.07 647.59,133.12 645.55,130.57C645.86,133.53 645.35,136.69 647.59,139.23Z" style="fill-rule:nonzero;"/>
        <path d="M641.07,178.55C641.78,176.82 640.76,175.6 640.36,174.37C639.95,175.8 639.85,177.13 641.07,178.55Z" style="fill-rule:nonzero;"/>
        <path d="M655.03,128.03C654.11,129.35 654.52,129.97 655.44,130.58C656.15,129.66 655.84,129.05 655.03,128.03Z" style="fill-rule:nonzero;"/>
        <path d="M648.2,175.8C649.42,175.29 649.01,174.48 648.91,173.66C647.69,174.27 648.1,175.09 648.2,175.8Z" style="fill-rule:nonzero;"/>
        <path d="M642.7,121.82C642.7,121.11 642.8,120.29 641.78,119.88C641.79,120.7 641.99,121.41 642.7,121.82Z" style="fill-rule:nonzero;"/>
        <path d="M743.34,150.74C745.17,150.33 744.66,148.3 745.78,146.97C762.1,141.68 775.89,138.07 789.27,126.9C791.1,125.37 792.94,123.95 793.45,121.3C780.51,134.85 763.3,139.53 746.39,144.63C745.27,144.02 746.29,142.69 745.17,142.19C744.25,143 745.37,144.23 744.46,145.04C742.02,146.98 738.25,146.47 735.9,150.03C747.99,145.28 741.47,149.18 743.34,150.74Z" style="fill-rule:nonzero;"/>
        <path d="M789.28,128.74C772.68,142.69 752.92,150.13 732.54,156.24C745.58,157.16 782.66,139.03 789.28,128.74Z" style="fill-rule:nonzero;"/>
        <path d="M712.17,134.65C710.34,134.65 709.42,135.36 708.4,136.08C707.38,140.87 707.38,140.87 702.19,146.78C712.5,148.25 710.33,138.7 712.17,134.65Z" style="fill-rule:nonzero;"/>
        <path d="M771.76,156.96C780.32,155.53 790.4,146.77 791.32,140.15C781.72,153.2 779.25,151.61 771.76,156.96Z" style="fill-rule:nonzero;"/>
        <path d="M730.3,142.39C728.98,145.75 728.26,148.91 726.12,151.35C730.2,151.05 732.24,147.08 730.3,142.39Z" style="fill-rule:nonzero;"/>
        <path d="M763.71,117.03C763.21,116.04 764.74,115.96 751.79,121.41C752.37,123.12 762.15,117.87 763.71,117.03Z" style="fill-rule:nonzero;"/>
        <path d="M792.03,110.51C791.83,112.85 791.83,112.85 793.56,116.01C793.96,113.57 794.17,111.73 792.03,110.51Z" style="fill-rule:nonzero;"/>
        <path d="M683.45,139.44C681.01,140.15 680.39,141.88 679.68,143.51C681.51,142.9 682.84,141.78 683.45,139.44Z" style="fill-rule:nonzero;"/>
        <path d="M834.91,185.07C832.77,187.31 827.88,204.22 828.39,208.4C831.75,200.45 835.73,193.53 834.91,185.07Z" style="fill-rule:nonzero;"/>
        <path d="M810.47,135.47C813.83,136.18 816.28,138.93 819.74,139.44C818,135.57 815.15,134.35 810.47,135.47Z" style="fill-rule:nonzero;"/>
        <path d="M833.89,170.2C833.48,166.33 833.18,162.46 831.34,158.79C830.53,161.44 831.86,166.53 833.89,170.2Z" style="fill-rule:nonzero;"/>
        <path d="M837.56,148.3C839.19,145.96 838.88,144.84 834.71,140.05C835.22,143.51 835.93,145.96 837.56,148.3Z" style="fill-rule:nonzero;"/>
        <path d="M814.85,158.28C817.5,155.84 818.52,152.58 821.37,149.83C817.49,151.25 814.74,154.92 814.85,158.28Z" style="fill-rule:nonzero;"/>
        <path d="M806.9,136.08C803.13,132.92 801.2,132.82 799.57,135.57C802.01,136.08 804.46,135.26 806.9,136.08Z" style="fill-rule:nonzero;"/>
        <path d="M828.39,231.62C830.43,229.38 830.53,228.87 829.1,225.3C827.88,227.55 828.19,229.48 828.39,231.62Z" style="fill-rule:nonzero;"/>
        <path d="M828.39,235.9C826.76,237.43 826.25,239.06 827.07,241.4C829.11,239.26 829.11,239.26 828.39,235.9Z" style="fill-rule:nonzero;"/>
        <path d="M834.1,177.84C835.53,175.8 835.42,175.19 833.39,171.93C832.67,174.27 833.28,176.01 834.1,177.84Z" style="fill-rule:nonzero;"/>
        <path d="M824.01,142.19C823.09,143.82 821.87,145.45 821.57,147.89C824.22,146.36 824.42,144.43 824.01,142.19Z" style="fill-rule:nonzero;"/>
        <path d="M833.08,132.41C833.49,134.55 833.49,136.79 835.12,138.73C835.73,136.89 835.73,136.89 833.08,132.41Z" style="fill-rule:nonzero;"/>
        <path d="M829.41,219.6C827.78,220.62 828.19,221.74 828.29,223.37C829.62,222.05 829.51,220.93 829.41,219.6Z" style="fill-rule:nonzero;"/>
        <path d="M832.77,126.81C831.62,125.66 831.07,127.17 830.83,128.34C832.06,128.23 832.67,127.72 832.77,126.81Z" style="fill-rule:nonzero;"/>
        <path d="M489.3,173.97C491.03,169.08 491.85,164.09 491.24,158.89C488.79,163.68 488.28,168.67 489.3,173.97Z" style="fill-rule:nonzero;"/>
        <path d="M772.17,272.87C783.29,273.97 793.85,277.54 804.66,279.8C807.45,280.38 813.78,278.54 761.68,270.63C764.95,272.33 768.57,272.52 772.17,272.87Z" style="fill-rule:nonzero;"/>
        <path d="M758.11,256.27C756.86,257.84 756.9,259.1 757.6,260.24C759.78,261.34 761.61,258.14 758.11,256.27Z" style="fill-rule:nonzero;"/>
        <path d="M766.97,249.24C766.46,248.02 765.85,247 764.22,247.2C762.58,249.14 765.56,252.07 766.97,249.24Z" style="fill-rule:nonzero;"/>
        <path d="M761.67,270.74L761.67,270.64C761.55,270.63 761.58,270.64 761.67,270.74Z" style="fill-rule:nonzero;"/>
        <path d="M760.54,270.12C759.23,269.78 759.67,269.41 759.33,269.41L757.3,269.41C759.5,271.31 763.44,270.87 760.54,270.12Z" style="fill-rule:nonzero;"/>
        <path d="M471.68,160.83C470.56,162.26 470.25,163.89 469.74,165.62C471.58,163.88 471.58,163.88 471.68,160.83Z" style="fill-rule:nonzero;"/>
    </g>
</svg>
