<?xml version="1.0" encoding="UTF-8" standalone="no"?>
<!DOCTYPE svg PUBLIC "-//W3C//DTD SVG 1.1//EN" "http://www.w3.org/Graphics/SVG/1.1/DTD/svg11.dtd">
<svg width="100%" height="100%" viewBox="0 0 900 600" version="1.1" xmlns="http://www.w3.org/2000/svg" xmlns:xlink="http://www.w3.org/1999/xlink" xml:space="preserve" xmlns:serif="http://www.serif.com/" style="fill-rule:evenodd;clip-rule:evenodd;stroke-linejoin:round;stroke-miterlimit:2;">
    <g>
        <path d="M711.61,426.79C712.12,426.28 713.04,426.79 713.55,425.87C712.12,425.26 713.96,423.83 713.24,423.22C711.81,422.4 710.69,423.32 709.47,423.02C711.53,418.91 707.81,416.96 705.9,414.15C706.41,413.64 707.33,413.84 707.23,412.93C706.78,411.43 702.47,410.72 701.32,408.34C700.03,405.67 698.16,403.65 695.92,402.32C695.61,401.4 697.04,401.1 695.92,399.98C693.19,401.54 691.43,395.36 685.72,395.8C685.31,395.09 685.01,394.47 684.8,393.96C682.25,393.86 680.21,392.23 677.76,392.23C677.76,394.3 677.74,394.42 677.15,394.68C669.26,395.47 664.46,401.82 656.05,410.08C651.64,414.41 654.22,415.94 646.16,422.93C632.61,423.2 632.47,416.51 624.65,415.59C611.46,414.04 609.4,416.19 596.2,418.04C590.13,418.89 586.43,419.42 572.85,428.03C554.62,439.59 555.69,435.98 543.18,444.14C514.48,462.87 519.29,455.86 515.86,455.86C511.98,455.86 507.75,451.29 501.48,451.68C488.18,452.5 486.08,452.2 461.72,470.24C461.72,474.04 462.12,468.53 450.81,483.9C447.59,488.27 441.13,491.64 436.13,493.79C431.64,495.72 428,498.92 423.9,501.44C421.87,502.68 420.74,504.5 421.76,507.05C405.77,511.81 404.93,512.87 400.25,511.74C353.17,500.38 362.74,509.2 313.18,509.9C296,510.15 304.57,508.92 300.33,506.54C297.78,505.72 294.92,503.47 291.26,504.5C289.44,505.01 292.19,503.79 276.07,502.26C272.91,507.77 271.48,513.37 272.6,519.8C269.54,518.78 266.89,519.39 264.34,520.11C261.79,520.82 259.04,519.19 256.39,520.82C255.32,534.76 257.29,534.02 256.8,540.09C256.64,542.06 259.39,544.76 261.39,546.51C267.35,551.74 260.67,550.87 265.37,561.8C265.8,562.81 266.07,563.84 266.29,564.86C267.89,572.47 280.69,589.71 294.43,588.21C309.83,586.53 285.28,573.44 301.87,548.55C302.18,548.14 302.18,547.43 302.38,546.92C302.48,545.8 300.95,545.49 301.16,544.37C310.23,541.47 337.34,544.08 346.84,545.08C393.48,549.99 395.22,544.26 399.14,545.18C405.35,546.63 432.62,544.79 439.62,541.61C442.14,546.86 446.24,553.83 446.96,559.25C447.43,562.81 451.23,565.79 454.3,561.6C460.64,552.93 493.33,544.97 497.12,537.03C498.2,534.77 500.07,533.45 502.22,532.44C507.3,530.06 512.22,527.36 517.51,525.3C524.04,522.76 527.96,514.24 528.11,507.46C530.15,507.36 531.78,506.34 533.21,505.22C534.94,505.73 536.58,505.56 538.21,505.22C544.11,504 546.92,505.01 550.14,504.61C573.67,503.02 578.33,495.46 576.34,500.43C571.52,516.09 570.04,519.86 570.22,525.92C570.75,543.92 567.12,547.87 573.79,569.56C578.07,571.8 582.15,572.82 586.23,569.66C578.35,568.23 575.62,570.72 574.2,564.56C569.77,545.4 573.11,537.97 572.36,527.55C571.53,515.92 580.21,502.87 577.76,497.98C579.39,496.25 579.39,496.14 580.31,496.14C587.69,496.14 594.76,491.38 597.03,491.55C599.43,497.31 594.28,494.69 594.28,502.05C594.28,512.32 591.31,517.94 587.24,528.25C583.11,538.73 585.12,547.24 583.47,558.53C582.25,559.86 582.25,559.86 581.63,561.79C583.36,561.48 584.69,560.36 586.52,560.67C587.77,570.7 587.03,574.41 587.85,581.57C589.02,591.86 586.63,587.12 587.24,594.62C587.5,597.78 590.2,600.55 592.75,599.92C595.61,599.22 598.36,599.37 601.11,599.41C604.88,599.46 608.44,597.96 612.22,598.39C613.34,598.52 614.56,598.79 615.69,598.49C621.4,597 626.95,599.88 630.27,599.41C631.09,598.59 632.51,598.19 633.74,597.88C634.56,597.17 634.25,595.74 635.58,595.43C636.91,595.12 637.11,593.9 637.21,592.58C635.37,592.27 633.64,592.29 632.01,591.66C624.16,588.64 617.39,588.28 617.12,587.89C614.22,584.5 610.23,587.73 600.6,584.53C600.8,580.04 601.52,575.76 602.03,571.68C605.09,570.05 608.05,569.8 611.1,570.15C614.27,570.51 617.42,569.23 620.48,570.56C621.4,569.74 622.62,569.44 622.82,567.91C609.95,561.59 601.64,565.81 605.18,558.43C626.29,514.42 614.66,521.22 620.58,509.39C629.77,491.01 626.49,484.55 631.49,468.91C633.28,463.3 635.93,465.19 641.99,455.04C644.82,450.31 645.88,454.21 654.53,452.19C667.2,449.23 669.93,466.59 676.35,455.35C678.59,455.04 680.53,454.33 681.35,451.78C683.49,453.41 683.8,450.76 685.12,450.25C686.14,450.05 687.16,450.76 688.69,449.94C690.93,447.39 691.14,443.21 693.48,440.15C698.24,441.07 698.74,433.83 702.76,430.77C708.72,434.35 708.81,435.97 714.48,430.67C715.08,428.01 712.33,428.22 711.61,426.79ZM705.82,422.23C705.98,421.92 706.43,421.7 706.72,421.7C705.95,419.4 705.8,419.67 706.41,419.94C708.07,420.65 705.77,420.84 707.75,422.82C706.96,424.39 705.02,423.51 705.82,422.23ZM702.41,412.75C703.23,412.66 702.9,414.5 701.83,413.43C702.02,412.99 702.22,412.77 702.41,412.75ZM700.4,424.55C698.97,423.53 698.06,422.92 697.65,421.8C698.77,422.2 699.89,422.51 700.4,424.55ZM692.92,420.26C693.09,420.26 693.7,420.37 694.29,420.67C692.17,421.45 690.6,420.09 692.92,420.26ZM691.32,413.03C691.73,413.85 692.75,414.66 691.83,415.88C690.81,414.96 691.22,413.94 691.32,413.03ZM689.39,421.28C688.17,421.69 687.15,421.28 686.03,420.77C687.65,420.26 687.65,420.26 689.39,421.28ZM686.63,407.83C686.73,408.5 686.37,408.95 685.71,408.95C684.14,409.34 684.88,406.32 686.63,407.83ZM683.68,402.12C683.9,402.43 684.1,402.92 684.07,403.38C683.89,406.32 682.28,402.92 682.16,402.84C682.19,402.82 683.65,402.13 683.68,402.12ZM679.6,399.26C679.09,399.87 678.78,400.18 678.27,400.08C678.48,399.36 678.48,399.36 679.6,399.26ZM673.07,407.01C672.96,407.53 674.19,408.21 673.38,409.66C672.56,408.54 673.07,407.52 673.07,407.01ZM669.51,413.84C669.82,413.33 670.22,413.43 670.53,413.84C671.37,414.68 669.3,415.31 669.51,413.84ZM669.1,404.05C668.59,405.58 667.98,404.87 666.76,404.66C667.98,403.85 668.49,403.85 669.1,404.05ZM666.14,414.96C672.4,414.19 664.41,416.73 661.97,416.62C662.86,415.08 664.54,415.05 666.14,414.96ZM665.02,420.26C665.22,418.42 665.63,417.41 667.16,417.1C667.47,419.04 667.47,419.04 665.02,420.26ZM661.04,411.29C661.04,411.9 660.73,412.21 659.82,412.21C660.02,411.39 660.23,410.88 661.04,411.29ZM659,418.94C659.52,419.99 659.37,420.44 658.9,420.98C658.19,420.06 658.9,419.75 659,418.94ZM300.9,523.36C301.73,523.44 302.3,522.81 302.87,522.42C303.07,521.5 302.05,520.79 302.26,519.77C302.97,518.95 304.2,519.06 305.22,518.55C304.1,517.84 302.67,518.35 301.65,517.43C301.04,516 301.55,514.47 301.65,513.15C301.99,512.57 302.46,512.53 302.96,512.54C366.04,513.18 358,503.39 399.53,513.56C388.17,518.11 372.95,510.99 347.24,515.41C341.02,516.48 349.07,516.99 325.42,521.83C320,522.94 318.76,521.72 304.82,524.18C302.38,524.61 299.95,524.57 297.58,524.38C297.58,519.33 290.98,521.51 299.31,513.87C298.09,518.03 300.64,523.32 300.9,523.36ZM276.97,505.3C278.6,504.08 279.62,505.31 280.84,505.5C293.48,507.48 291.69,507.32 292.26,507.13C295.32,505.7 297.56,507.84 300.42,508.66C297.56,513.67 288.47,517.52 295.73,524.26C293.27,524.88 291.18,523.96 288.81,523.81C286.77,523.68 285.7,524.76 287.77,522C288.27,521.33 287.31,519.3 283.39,519.38C280.94,519.43 278.5,519.69 276.15,519.38C273.09,513.5 276.97,507.32 276.97,505.3ZM289.51,537.72C283.8,534.97 281.35,532.42 282.78,525.28C284.92,525.89 287.06,525.69 289.41,525.99C287.68,529.87 288.09,533.74 289.51,537.72ZM289.31,550.56C291.19,553.39 293.69,554.34 296.96,554.23C297.29,555.1 296.53,556.08 296.43,556.08C289.56,555.59 287.49,557.21 287.62,557.33C292.52,560.76 297.25,556.16 295.02,562.3C290.44,560 284.94,565.12 294.51,563.63C294.8,564.58 294.41,567.19 294.31,567.29C293.2,568.36 291.27,567.28 290.65,568.93C291.57,570.05 293.1,569.03 294.32,569.95C296.54,583.82 300.25,584.33 298.9,584.99C292.78,587.96 285.36,585.57 282.8,582.08C280.42,578.83 275.28,577.34 273.52,573.11C272.46,570.56 270.86,570.17 269.54,566.48C268.52,563.63 268.26,560.64 266.69,557.92C265.8,556.38 266,554.46 266.49,552.72C267.65,548.53 264.25,545.82 260.47,541.91C258.38,539.75 260.15,540.56 258.94,530.69C258.65,528.34 258.43,525.9 258.63,523.45C267.81,523.04 276.57,521.11 286.26,520.8C283.38,524.3 280.45,521.9 280.45,526.71C280.45,538 289.55,539.21 300.74,547.92C297.29,554.2 298.97,549.98 289.31,550.56ZM429.81,542.61C421.15,542.61 419.87,544.28 409.01,544.26C403.4,544.25 401.36,543.56 399.52,543.52C397.68,543.48 397.47,544.64 389.44,544.96C370.31,545.72 347.5,542.5 334.92,541.67C292.32,538.84 297.89,549.08 292.18,536.4C297,533.06 293.36,532.41 297.55,532.41C299.15,532.41 302.63,530.93 297.76,530.93C296.65,530.93 295.54,531 294.72,530.89C292.86,530.89 290.07,539.46 291.05,526.72C291.05,526.62 290.94,526.71 291.41,526.75C294.93,527.09 298.34,526.05 301.55,527.52C304.14,528.47 305.83,525.24 320.32,525.08C324.9,525.03 336.77,522.14 341.36,520.48C356.59,514.98 354.9,515.92 392.8,517.52C393.56,517.77 394.07,519.22 395.14,518.85C398.81,517.58 403.15,518.38 408.08,518.43C408.83,518.44 405.17,517.24 403.4,517C396.54,516.08 397.22,516.82 403.36,515.2C434.61,506.94 414.11,500.85 437.05,534.64C427.84,535.08 438.6,535.93 420.77,534.24C417.76,534.24 430.29,539.1 438.17,536.47C439.19,537.69 439.5,538.82 439.6,540.45C436.43,541.9 433.07,542.82 429.81,542.61ZM526.77,507.13C527.22,517.97 519.39,522.4 510.45,526.21C487.58,535.93 502.11,534.36 488.75,540.78C464.13,552.61 462.07,551.47 455.82,556.48C450.97,560.36 451,564.55 450.01,555.15C443.91,541.54 443.61,541.97 442.47,537.72C440.86,531.75 439.6,535.13 427.18,509.78C426.38,508.14 425.85,506.52 424.63,504.99C455.83,485.35 446.21,494.94 456.85,481.85C465.35,471.39 466.14,473.47 467.66,470.94C471.6,464.39 478.61,464.59 486.01,457.79C490.62,453.56 502.76,453.25 508.85,454.12C510.58,457.28 513.95,457.69 517.52,458.4C515.73,462.37 516.2,466.24 514.97,471.45C517.17,469.65 516.35,467.68 517.62,466.05C518.32,465.95 518.44,466.74 519.03,466.86C519.93,466.86 521.32,465.84 521.6,463.71C524.52,468.29 519.27,466.54 518.13,470.34C519.53,470.75 520.44,469.7 521.39,469.25C522.51,468.72 522.06,468.49 522.73,473.81C521.57,474.97 516.1,478.14 520.4,477.16C525.75,475.95 520.19,470.48 526.71,497.36C525.83,498.15 524.88,497.57 524.16,497.97C525.04,499.73 526.61,499.23 527.83,500.01C527.72,501.74 526.09,500.4 525.89,500.93C525.08,501.74 526.91,502.55 525.28,503.07C523.45,502.61 524.37,500.42 522.53,499.81C522.31,501.78 523.78,503.26 524.16,504.6C526.3,505.42 528.14,504.19 530.38,504.19C529.52,505.91 527.68,506.01 526.77,507.13ZM586.41,559.54C584.99,556.99 584.98,556.41 586.61,554.24C586.82,556.07 586.82,557.7 586.41,559.54ZM586.42,548.91C586.18,549.15 586.7,541.38 586.92,539.65C589.02,522.92 596.79,520.73 595.89,506.21C595.79,504.58 596.39,503.05 596.2,501.32C596.1,500.4 596.51,499.08 597.83,498.16C597.93,500.15 597.93,501.92 597.12,503.77C600.28,507.13 598.74,510.6 597.22,513.86C583.9,542.48 589.01,546.31 586.42,548.91ZM598.54,468.69C592.93,466.14 591,462.88 591.2,456.25C594.67,455.33 597.93,457.98 601.6,456.66C599.66,460.65 599.35,464.78 598.54,468.69ZM607.03,568.59C605.76,569.55 603.95,569.35 602.63,570.34C602.25,568.9 602.75,568 603.55,566.98C605.2,567.87 609.33,566.86 607.03,568.59ZM617.2,567.59C617.35,567.59 617.49,567.67 617.59,567.81C618.56,569.16 613.49,568.5 609.86,568.5C609.33,567.9 609.81,567.37 609.94,566.95C610.37,565.56 605.69,566.46 603.85,565.54C604.31,562.93 612.91,567.64 617.2,567.59ZM632.09,465.33C626.52,471.97 622.76,507.61 616.29,512.23C612.24,525.4 624.78,506.07 605.79,550.46C602.85,557.33 599.84,568.28 599.16,579.93C598.83,585.57 597.19,585.11 597.94,588.09C599.07,588.7 599.57,587.6 600.39,587.33C601.78,586.87 607.77,589.46 612.83,588.49C613.65,589.82 615.79,589.71 615.58,591.75C621.39,593.59 627.51,592.36 633.22,594.5C628.96,597.19 631.24,594.1 615.28,592.88C617.45,596.35 624.75,594.61 626.8,596.65C626.76,596.66 600.24,597.67 590.1,597.67C588.26,593.39 589.28,589.82 592.04,586.45C592.55,584.76 591.84,583.12 591.84,582.98C589.34,583.87 590.88,595.02 589.19,566.06C586.85,526.1 597.81,523.46 600.51,510.7C601.94,503.92 597.88,501.94 600.1,497.85C601.11,495.99 598.97,494.06 600,487.04C601.91,474.01 599.57,475.67 601.94,467.36C606.01,453.11 612.48,443.5 602.76,453.29C600.21,454.21 597.27,453.95 594.6,454.82C593.28,455.25 592.15,454.41 590.83,453.7C593.53,436.12 624.16,425.92 631.51,430.35C646.55,439.45 643.32,451.94 632.09,465.33ZM621.47,427.61C608.14,430.66 590.5,438.83 588.54,452.39C588.44,452.8 588.44,453.31 588.23,453.72C588.13,454.03 587.72,454.13 587.62,454.23C587.42,455.35 588.72,455.65 588.33,456.68C587.37,459.21 588.6,461.58 588.74,464.02C588.96,468.02 597.62,471.11 597.62,471.62C599.42,477.82 597.51,483.62 597.2,489.72C592.2,491.86 587.1,493.74 581.6,494.51C571.69,495.9 575.18,501.2 549.08,502.77C533.81,503.69 532.75,504.29 531.25,501.65C528.41,496.65 525.51,487.19 524.42,481.87C524,479.83 524.61,478 524.42,475.96C522.07,450.92 521.93,461.74 540.43,449.66C558.21,438.04 559.35,440.22 572.24,432.43C576,430.16 573.58,430.39 579.27,426.82C590.62,419.71 606.61,417.2 610.57,417.54C609.08,419.03 604.73,419.17 601.29,421.72C599.95,422.72 599.56,424.68 597.42,425.29C598.34,425.75 599.61,425.66 600.17,424.68C603.08,418.86 615.45,419.57 616.28,418.46C615.72,417.59 614.52,418.22 613.42,417.44C617.19,416.62 620.56,418.05 624.02,418.26C631.65,426.48 633.93,421.75 638.93,430.01C640.92,433.29 642.16,436.88 642.78,440.69C636.9,428.88 628.61,425.97 621.47,427.61ZM709.51,432.03C707.87,432.05 704.71,430.05 703.64,429.69C701.06,428.8 698.45,434.64 696.22,438.52C687.88,438.26 690.81,457.74 683.58,445.45C681.76,446.97 683.05,447.93 684.09,449.22C681.99,453.94 679.58,449.02 677.26,449.83C677.37,451.55 679.21,450.91 679.71,452.07C678.89,453.7 678.89,453.7 676.35,454.41C674.82,455.53 674.51,458.08 671.66,458.28C668.09,457.26 666.26,453.49 663.3,451.14C657.4,449.61 645.13,452.85 645.66,450.87C647.66,443.44 646.32,440.39 646.13,440.58C645.63,441.17 645.24,445.64 644.97,443.4C642.65,424.23 634.01,424.8 627.31,419.32C629.34,419.32 630.67,419.87 631.59,420.65C634.19,422.84 643.9,425.52 646.37,425.34C650.91,425.01 648.87,425.08 657.38,421.77C660.99,423.25 658.29,427.72 661.76,429.55C662.29,429.83 662.48,428.57 657.38,441.03C659.32,440.21 659.01,438.28 660.03,437.05C663.14,437.83 660.08,434.55 663.09,431.54C665.37,429.26 658.17,425.46 661.57,417.42C661.49,418.57 661.43,420.25 662.17,419.37C662.66,418.79 662.58,417.48 663.9,417.98C664.51,419.56 661.61,421.14 663.59,421.14C663.84,421.14 664.18,420.64 664.23,421.24C664.31,421.64 663.4,422.25 663.26,422.4C662.37,423.29 664.47,425.74 665.93,424.91C667.26,423.58 665.22,422.45 666.24,421.14C666.62,420.03 667.68,421.33 668.58,420.94L668.58,415.26C672.21,422.53 670.24,418.87 668.38,426.34C668.9,426.86 669.02,426.58 669.91,426.14C671.47,426.37 670.13,431.19 672.26,425.52C676.34,421.99 685.7,422.75 689.39,423.58C692.75,424.33 693.29,422.58 694.23,423.67C695.36,424.97 696.09,426.34 697.76,426.43C698.68,426.12 696.43,423.64 701.05,427.09C701.8,427.84 700.87,429.32 702.44,429.38C702.44,425.93 706.4,431.57 711.19,430.94C712.1,430.86 710.44,432.02 709.51,432.03Z" style="fill-rule:nonzero;"/>
        <path d="M123.86,476.28C123.87,476.26 123.87,476.25 123.88,476.23C123.82,476.23 123.84,476.24 123.86,476.28Z" style="fill-rule:nonzero;"/>
        <path d="M221.2,573.71C217.59,571.61 215.57,565.82 206.21,558.11C199.04,552.21 193.87,548.83 198.97,542.82C202.03,545.06 205.8,546.39 207.84,549.96C209.88,553.54 212.22,553.13 214.57,552.61C226.34,560.46 216.45,546.01 208.04,540.48C205.83,539.02 202.68,533.2 196.11,530.28C191.84,528.38 192.59,527.59 190.3,516.82C187.93,505.68 202.12,509.09 199.48,495.72C199.06,493.58 198.87,491.54 199.58,489.6C199.38,488.58 198.36,487.97 198.46,487.05C199.68,480.63 201.31,481.95 195.5,470.02C180.81,463 186,466.81 179.39,464.92C179.74,443.14 168.89,434.78 172.97,422.4C174.77,416.94 176.85,414.65 177.15,402.62C177.29,396.93 175.34,395.12 171.85,390.08C176.85,387.53 180.11,382.94 184.9,380.7C192.22,383.14 196.62,383.7 196.62,376.11C198.05,374.68 199.78,373.26 198.76,370.6C201.21,370.6 200.6,368.56 201.11,367.34C207.19,364.02 202.96,365.22 203.25,354.49C205.39,353.37 205.85,351.43 205.8,348.98C205.61,340.06 204.98,341.54 213.24,341.54C215.48,339.81 215.48,337.46 216.5,335.73C215.69,332.37 211.49,334.74 212.12,333.49C212.32,332.98 213.14,333.08 213.34,332.16C212.42,331.65 212.12,330.53 211.4,329.71C209.97,329.81 209.46,331.24 208.14,331.55C208.04,330.73 208.53,329.83 207.94,329.21C205.95,327.12 203.15,326.76 200.6,325.95C200.5,325.13 201.82,324.93 201.31,324.22C200.9,323.71 200.39,323.51 199.98,323.61C192.61,324.84 192.02,320.53 187.44,320.86C183.19,321.47 188.88,316.88 182.95,319.84C173.62,317.51 174.81,321.99 172.04,319.23C170,320.86 167.15,319.74 165.31,321.37C165,322.49 166.43,322.8 165.92,323.82C164.9,324.33 163.5,324.54 163.17,325.76C162.52,328.12 160.85,329.85 159.91,331.98C158.69,334.73 154.36,349.84 155.02,353.39C155.9,358.19 153.18,362.46 154.1,366.95C135.18,377.99 142.02,372.28 127.8,380.2C114.38,387.67 113.07,394.82 104.76,402.53C94.24,412.29 90.18,423.01 86.31,428.43C79.36,438.15 80.1,438.12 70.71,460.65C64.7,475.06 61.86,473.62 60.41,477.06C62.32,478.49 79.14,480.54 80.9,480.73C89.92,481.68 87.36,479.61 95.17,479.61C107.95,479.61 107.81,476.66 113.42,477.27C113.73,477.27 114.13,477.16 114.44,476.96C117.45,475.05 120.97,475.94 124.43,475.02C123.19,477.87 124.92,474.99 125.65,474.82C126.02,474.76 144.52,474.2 144.72,474.21C140.32,481.91 138.66,481.31 132.08,495.93C129.59,501.46 127.43,512.66 130.65,513.47C140.54,509.39 149.82,503.68 160.93,502.15C162.15,505.21 163.38,508.27 164.6,511.43C162.87,513.16 160.11,512.86 158.28,514.9C161.03,515 163.07,513.68 165.21,512.96C170.26,522.73 170.76,521.72 166.13,523.36C137.28,533.56 125.23,532.31 115.97,539.77C113.13,542.06 110.05,544.36 107.92,543.64C108.84,542.82 109.65,542.11 110.47,541.4C108.33,541.71 106.29,542.22 105.47,544.36C99.58,544.95 101.6,547.28 94.05,540.59C90.98,537.87 86.43,532.32 88.24,531.41C89.36,531.1 88.65,532.72 89.57,532.63C92.22,532.38 94.57,531.51 96.91,530.08C98.54,530.79 100.68,529.77 102.01,531.81C104.48,527.97 111.99,535.66 120.67,531.1C121.49,527.94 121.79,524.47 123.42,521.41C125.05,518.35 128.52,517.23 131.07,514.38C112.22,522.35 126.84,535.29 108.54,530.08C104.47,528.92 100.38,528.45 96.2,528.75C95.79,528.34 95.79,527.63 95.08,527.53C82.67,529.02 87.26,533.57 70.71,524.27C70.3,522.03 68.37,520.7 66.73,519.27C58.41,511.99 57.58,511.02 54.19,498.98C53.27,495.72 53.17,492.15 54.6,488.58C58.27,486.64 62.35,485.11 64.39,480.93C62.05,481.95 60.31,483.99 57.46,485.11C58.48,482.66 60.52,481.24 60.52,478.48C58.38,479.6 57.56,481.54 56.24,482.86C43.16,495.94 61.01,527.09 81.73,531.6C74.06,537.73 66.31,550.46 61.75,552.6C60.42,561.26 79.08,566.77 82.75,570.24C97.06,583.76 113.8,584.21 133.52,584.21C135.87,584.21 135.08,581.48 135.66,578.6C136.89,572.49 133.36,570.09 127.5,568.71C118.89,566.68 123.72,569.55 116.9,560.45C125.57,560.96 134.03,562.69 142.29,561.06C142.9,560.24 142.6,559.35 143.41,559.02C144.13,558.73 145.04,559.02 145.45,558C144.74,553.11 143.92,551.27 140.96,547.91C128.84,547.07 129.7,541.32 125.56,539.04C127.8,538.53 128.72,536.49 130.76,535.98C136.06,534.65 141.16,532.85 146.46,532C175.61,527.36 167.66,515.71 175.11,531.18C183.72,549.05 181.95,552.46 185.92,557.18C184.5,570.41 194.67,568.48 195.3,576.35C195.76,582.1 199.44,589.15 200.5,584.91C198.66,584.4 198.16,582.77 197.65,581.24C195.22,573.96 198,573.21 192.86,569.41C189.5,566.93 186.16,561.11 188.37,558.09C180.78,546.01 185.96,549.14 177.05,531.38C166.1,509.55 162.78,506.63 159.62,491.31C158.3,484.94 158.19,483.97 157.05,483.07C155.33,481.72 158.08,493.19 159.11,498.34C158.5,499.36 157.17,498.65 156.56,499.46C157.18,500.23 158.15,499.83 158.99,500.07C163.36,501.31 151.88,502.06 145.45,505.17C141.13,507.26 134.89,509.04 130.97,511.49C128.8,504.16 137.57,488.45 141.78,482.02C148.63,471.55 144.44,477.17 154.01,475.7C155.35,478.38 155.24,480.72 157.99,482.23C152.49,460.22 151.35,464.25 150.65,457.86C150.52,456.71 150.11,456.26 149.44,455.94C148.88,455.67 149.48,455.22 148.72,454.29C143.93,448.49 145.75,441.33 142.81,429.41C142.12,426.63 144.34,424.58 142.81,420.74C139.3,424.25 141.47,435.79 142.5,437.87C146.39,444.09 127.54,443.19 125.07,431.85C125.55,430.71 127.32,430.18 127.32,428.63C127.32,427.47 124.14,432.07 125.58,424.22C130.03,399.93 149.3,364.55 171.87,394.14C175.58,399 174.52,401.51 173.3,414.23C172.8,419.4 167.28,423.81 170.75,434.93C178.92,461.07 175.58,460.53 177.38,466.54C176.77,468.17 175.54,467.15 174.42,467.56C178.91,470.21 178.8,475.11 180.74,478.98C181.83,481.15 181.56,483.81 180.9,486.76C180.82,487.13 177.05,480.58 173.47,480.58C173.21,480.53 173.57,482.22 174.42,482.55C177.29,483.27 178.34,486.27 181.05,488.57C182.21,496.06 187.66,501.38 187.98,513.04C188.24,522.5 194.06,545.89 194.2,546.38C196.91,556.02 213.58,565.59 214.39,569.63C211.85,568.52 210.1,566.16 207.46,565.04C207.97,567.28 208.68,567.89 214.7,572.18C215.62,576.36 219.9,578.5 222.35,581.87C220.57,584.01 214.15,578.29 212.87,575.55C210.28,570 207.06,567.5 204,564.95C203.18,566.38 204.31,567.4 205.02,567.91C208.59,570.46 210.29,574.3 212.16,578.11C213.42,580.67 216.19,583.43 214.05,583.01C213.76,582.95 209.93,579.8 208.9,577.8C207.21,574.52 204.31,572.5 201.87,569.85C201.38,567.2 200.59,564.65 198.25,562.83C197.87,562.54 197.7,561.8 199.83,566.59C201.24,569.77 198.95,586.7 202.68,586.17C203.85,584.03 202.37,585.28 201.86,572.2C209.88,579.17 206.27,580.26 213.18,584.43C214.71,585.35 216.44,585.96 218.18,585.45C218.89,584.23 217.36,583.61 217.98,582.6C223,585.61 222.45,584.64 226.34,580.05C224.87,577.58 223.65,575.13 221.2,573.71ZM94.78,529.56C94.07,530.89 92.94,530.89 91.52,530.78C92.43,529.36 93.45,529.26 94.78,529.56ZM84.4,534.8C87.03,532.73 85.73,537.15 95.56,545.25C96.02,545.63 91.04,544.32 86.83,545.37C83,540.76 83.34,534.8 84.4,534.8ZM117.21,565.04C117.21,565.94 116.5,565.97 116.5,567.08C117.22,567.7 117.44,566.67 118.23,566.67C120.65,572.38 129.23,568.44 133.52,574.32C134.17,575.5 133.72,575.3 133.72,581.97C86.77,581.97 91.05,570.74 79.99,565.76C75.37,563.68 69.36,561.35 62.76,554.75C63.68,553.12 65.11,553.83 65.92,553.22C68.77,550.16 70.98,546.66 74.18,543.84C77.9,540.55 74.73,541.12 82.13,533.74C83.3,532.57 80.14,540.93 85.36,546.17C87.16,547.97 90.28,546.4 92.32,546.9C101.3,549.12 110.7,544.67 112.51,545.57C114.64,553.04 107.63,549.52 102.74,553.72C102.73,553.73 102.72,553.73 102.72,553.73C105.29,555.98 110.55,553.32 112.61,553.73C111.46,556.34 106.51,557.66 107.65,558.93C109.02,560.45 110.66,559.43 112.3,559.13C115.67,561.14 112.71,561 111.99,562.8C113.09,564.6 114.42,563.03 115.73,562.9C115.86,562.9 115.81,562.95 117.21,565.04ZM126.59,541.9C126.81,542.79 125.42,543.14 125.42,543.94C125.42,545.52 127.42,544.02 128.43,544.26C130.98,548.95 136.79,548.85 141.28,551.7C141.99,553.13 142.81,554.86 143.73,556.7C138.12,562.32 115.9,558.37 115.79,558.33C113.45,553.84 115.58,549.13 114.17,544.36C115.41,543.47 122.47,539.45 122.22,541.06C122.14,541.56 121.49,541.98 121.81,542.43C124.52,542.96 125.63,539.5 126.59,541.9ZM210.91,331.66C211.08,332.08 211.15,332.46 210.73,332.61C209.49,333.03 210.06,331.8 210.91,331.66ZM209.04,339.34C210.67,339.33 212.8,338.31 214.47,337.68C208.85,342.53 200.26,339.42 209.04,339.34ZM203.06,330.54C204.68,330.54 204.7,330.62 205.01,332.17C205.18,332.22 206.11,332.44 206.34,332.48C206.74,334.21 203.9,334.96 205.01,332.17C204.21,331.97 203.99,331 202.93,330.57C202.85,330.54 202.8,330.54 203.06,330.54ZM200.71,337.37C199.28,337.88 198.26,337.27 196.73,336.86C198.98,336.56 198.98,336.56 200.71,337.37ZM192.55,334.32C192.96,335.03 193.16,335.44 193.67,336.26C192.09,336.06 192.63,335.17 192.55,334.32ZM194.19,337.27C193.48,338.6 192.46,338.6 191.13,339.11C192.04,337.68 193.06,337.58 194.19,337.27ZM189.8,334.72C187.96,334.31 187.56,333.39 186.54,331.87C188.37,332.48 188.88,333.3 189.8,334.72ZM189.9,340.43C189.11,341.33 187.79,341.73 186.64,342.06C187.56,340.23 188.88,340.64 189.9,340.43ZM183.89,343.7C183.97,344.34 183.89,344.71 182.77,344.62C183.07,344 183.17,343.59 183.89,343.7ZM180.73,341.04C180.33,340.14 180.91,340.22 181.34,339.92C181.54,340.84 181.24,340.94 180.73,341.04ZM180.63,330.24C181.54,331.83 180.28,332.65 179.3,331.87C178.99,330.85 179.62,330.54 180.63,330.24ZM177.16,340.94C177.88,340.22 178.35,341.55 177.57,341.55C177.22,341.55 176.94,341.26 177.16,340.94ZM175.73,326.87C175.73,326.97 176.6,329.01 176.65,329.11C175.5,329.49 175.11,328.6 174.3,328.29C174.41,327.59 174.81,327.08 175.73,326.87ZM170.23,338.09C169.1,337.79 169.08,337.87 168.52,336.49C167.73,334.57 169.27,337.49 170.23,338.09ZM170.02,350.22C169.61,350.73 169.1,351.44 168.59,352.06C168.24,351.14 168.03,350.57 167.98,350.14C167.87,349.2 169.57,347.07 170.02,350.22ZM166.56,340.4C166.93,339.95 167.37,340.44 167.33,340.72C167.22,341.58 166.01,341.06 166.56,340.4ZM167.57,345.43C168.61,345.3 168.57,346 168.84,346.33C166.83,347.22 166.28,349.74 164.1,350.22L164.1,352.35C162.22,348.52 165.23,347.3 167.57,345.43ZM163.6,355.93C162.58,355.62 162.78,355.01 162.99,354.3C163.7,354.6 164.01,355.11 163.6,355.93ZM163.9,336.05C164,337.27 163.49,337.58 162.27,337.58C162.48,336.46 162.99,336.05 163.9,336.05ZM160.14,340.01C160.45,338.62 162.17,339.79 160.13,340.63C160.09,340.15 160.14,340.12 160.14,340.01ZM73.14,477.73C72.85,478.89 72.84,478.4 71.53,478.08C71.43,477.06 71.73,476.24 72.65,475.33C73.19,476.24 73.33,476.98 73.14,477.73ZM77.24,478.38C74.54,479.92 74.98,474.95 77.34,476.95C77.65,477.26 77.45,477.87 77.24,478.38ZM80.71,479.2C80,478.69 79.69,478.28 80.2,477.47C81.42,477.27 82.65,477.88 84.48,478.18C82.75,478.58 81.63,478.89 80.71,479.2ZM123.52,473.49C126.48,470.23 130.25,468.09 132.7,464.62C151.64,463.65 142.27,465.2 142.79,472.78C136.29,474.31 129.92,472.66 123.52,473.49ZM150.96,465.02C151.32,466.19 155.45,474.39 154.22,474.39C141.19,472.96 143.94,474.22 145.92,469.24C147.52,465.2 145.8,463.55 150.96,465.02ZM148.16,455.42C149.8,456.64 148.45,456.92 149.92,462.27C144.42,462.57 139.23,461.72 133.63,462.34C133.01,462.41 133.38,462.74 133.71,458.7C137.9,457.27 141.67,455.03 145.14,452.38C146.12,453.06 147.14,454.66 148.16,455.42ZM154.76,380.82C136.11,380.46 123.32,410.91 123.32,429.75C122.45,430.88 117.66,433.18 119.94,433.03C123.9,432.78 123.55,430.6 123.92,433.94C125.4,442.62 136.59,444.49 142.87,442.81C143,442.81 142.69,442.19 144.01,449.74C137.7,457 133.35,453.78 130.97,459.73C129.12,464.37 132.59,461.4 126.55,467.45C125.73,468.27 125.07,469.13 124.74,470.23C121.07,472.07 118.11,474.82 113.42,475.63C109.88,473.96 106.77,478.15 102.1,477.47C98.41,476.93 94.26,479.54 90.78,476.45C85.95,478.44 76.13,474.65 76.03,474.59C63.74,471.98 67.76,473.4 74.06,459.84C75.6,459.84 78.85,440.16 100.76,411.12C100.76,410.2 106.83,405.01 115.55,393.97C124.52,382.62 137.56,378.21 137.56,376.94C141.06,378.46 158.17,376.94 161.21,381.72C159.76,383 161.22,380.94 154.76,380.82ZM162.85,377.75C161.52,376.61 162.86,379.7 163.03,380.58C163.35,382.24 161.67,377.54 151.23,376.38C140.66,375.2 135.13,378.12 150.03,371.73C151.74,370.99 157.76,367.53 157.98,364.69C158.24,361.42 160.63,359.49 162.26,357.04C166.06,356.46 166.17,361.17 169.57,361.57C170.85,361.72 170.93,361.42 171.13,361.02C171.13,358.91 169.53,360.78 167.87,359.1C167.03,358.25 163.57,352.52 164.18,352.52L164.21,352.55C164.21,352.54 164.2,352.53 164.2,352.53C166.98,353.71 164.2,350.62 166.46,350.62C167.32,351.6 166.73,353.57 167.27,353.57C169.54,353.57 167.51,354.71 168.09,355.41C170.66,356.53 170.64,356.53 171.86,355C171.66,353.88 169.82,353.88 169.92,352.45C170.12,351.23 171.25,351.43 172.06,351.02C171.69,350.39 170.07,347.4 170,347.33C171.8,347.78 172.85,348.74 172.98,351.02C173.43,358.88 174.88,353.7 175.91,354.72C180.8,358.35 172.27,352.85 181.85,346.74C190.17,341.43 192.74,342.55 194.08,339.7C195.13,339.96 196.36,340.82 197.56,340.94C200.35,341.22 198.98,339.35 198.98,339.08C202.16,339.58 201.47,339.3 201.69,339.41C203.57,339.83 203.68,341.03 204.59,341.22C203.1,350.18 205.67,350.8 202.86,352.74C200.56,354.33 201.5,355.69 202.66,363.04C203.55,367.02 199.25,365.6 197.36,363.86C196.44,365.8 196.44,365.8 199.4,366.82C199.2,367.74 199.5,368.86 198.79,369.47C197.26,370.79 195.12,369.16 193.9,370.9C194.19,371.35 194.58,371.46 195,371.47C200.16,371.63 195.76,374.37 195.33,375.39C194.59,377.11 195.74,379.57 192.99,381.1C189.24,381.52 185.27,380.04 182.18,377.84C181.67,378.86 183.3,378.96 183,380.08C178.27,381.83 174.74,385.96 170.56,388.75C163.24,381.46 166.48,380.87 162.85,377.75ZM178.38,469.82C179.12,464.14 188.55,469.09 193.45,472.05C193.74,472.05 194.83,472.74 196.73,477.36C198.18,480.89 198.05,480.33 196.32,485.52C194.6,483.21 193.61,480.31 190.71,479.4C181.33,476.45 184.39,479.69 178.38,469.82ZM184.09,479.18C188.17,479.69 192.28,480.19 194.08,485.2C194.76,487.09 197.14,489.5 197.14,489.99C197.14,500.02 199.11,498.8 195.81,503.22C195.81,502.62 196.29,501.8 196.29,501.09C196.29,497.42 192.31,503.22 195.72,503.33C195.72,505.13 194.64,505.75 189.59,509.36C187.66,499.26 182.26,490.09 184.09,479.18ZM208.36,549.04C209.89,549.55 211.52,549.75 212.54,551.28C210.6,551.48 210.6,551.48 208.36,549.04ZM193.08,530.95C197.2,533.01 200.41,534.07 202.54,537.41C207.23,544.76 213.78,545.91 215.28,551.17C212.94,548.83 209.96,548 207.02,546.48C201.04,543.38 201.91,537.75 195.3,543.32C194.9,541.23 192.57,530.69 193.08,530.95ZM216.41,573.3C216.82,572.48 216.85,572.83 218.82,574.94C222.76,579.18 220.54,577.14 216.41,573.3ZM222.43,579.21C221.2,577.87 222.73,577.77 223.35,579.82C222.93,579.64 222.64,579.45 222.43,579.21Z" style="fill-rule:nonzero;"/>
        <path d="M173.28,480.42C173.25,480.45 173.2,480.5 173.18,480.52C173.31,480.55 173.35,480.62 173.28,480.42Z" style="fill-rule:nonzero;"/>
        <path d="M847.11,109.6C846.19,109.19 845.17,110.11 844.15,109.4C845.4,107.84 845.83,108.52 843.44,105.73C842.22,105.73 841.81,107.16 840.69,107.26C840.47,105.96 841.04,104.67 835.39,102.67C836.69,85.83 834.74,90.43 835.8,88.8C838.89,84.04 834.82,77.33 835.49,69.84C835.93,64.95 835.59,60.05 836.82,55.16C839.06,53.22 841.29,49.45 841.1,46.8C840.75,41.83 841.73,40.31 844.26,33.65C845.81,29.57 839.33,30.72 837.12,36C836.43,37.64 835.69,38.85 834.27,39.87C833.45,35.79 835.91,33.04 837.94,30.29C841.54,25.41 844.63,27.85 847.52,22.95C845.89,21.83 846.4,18.87 844.16,18.97C837.94,20.5 834.98,26 830.09,28.66C828.66,26.42 827.44,24.48 826.01,22.34C827.34,21.22 826.01,19.79 826.42,18.36C827.34,16.93 828.66,15.71 828.66,13.57C827.74,12.14 827.84,10 826.21,8.78C826.72,7.05 828.35,6.13 828.86,4.19C827.13,3.68 828.04,2.25 828.04,1.13C825.4,-0.76 826,-0.79 820.29,5.21C814.52,11.27 817.94,17.18 814.89,22.13C816.23,25.82 817.99,30.53 816.62,34.26C815.04,38.57 814.55,58.28 807.04,72.19C803.33,79.07 804.21,87.29 803.47,93.5C802.55,101.27 800.84,96.58 799.7,99.31C799.7,100.02 800.82,100.23 800.41,101.15C799.7,101.76 798.57,101.76 798.27,102.68C793.17,109.51 792.97,117.97 790.62,126.13C785.52,130.62 781.95,136.73 780.02,143.56C777.2,153.53 768.89,161.62 768.3,169.56C766.83,189.05 771.06,194.35 772.17,206.06C774.15,226.87 771.87,222.3 772.68,227.78C773.55,233.64 773.15,239.86 773.6,241.44C775.21,248.69 775.58,256.41 773.4,266.11C770.73,277.98 765.08,273.88 762.08,281.71C756.08,297.39 753.85,295.13 751.99,306.89C749.52,322.51 752.36,330.89 748.52,336.36C744.68,341.82 747.96,352.14 750.15,360.73C751.17,361.44 752.09,362.16 752.8,362.67C757.8,362.47 762.49,362.67 767.18,363.69C768.56,377.22 774.51,384.16 771.05,394.79C764.08,416.23 760.83,420.59 761.16,432.92C761.91,461.03 767.05,484.09 762.89,494.4C761.36,494.71 759.62,495.83 759.53,497.36C759.17,502.86 751.11,505.2 749.95,509.7C749.75,510.31 748.52,509.8 748.22,511.23C748.53,512.25 747.91,513.68 747.3,514.9C747.91,516.63 748.73,517.86 750.15,518.57C753.23,520.37 753.11,522.63 757.19,524.79C765.64,529.27 767.05,529.01 770.44,534.58C778.39,547.6 799.61,555.55 806.94,549.98C808.21,543.61 809.48,545.52 801.94,534.69C808.36,534.85 813.96,532.76 813.16,526.33C809.04,519.58 803,517.3 800.21,509.51C795.55,496.49 795.25,485.8 793.28,483.1C791.17,483.8 788.49,490.2 789.3,473.72C792.38,411.18 796.83,429.18 795.32,402.15C793.18,402.76 794.61,405 793.38,405.92C792.56,405.82 792.67,404.49 791.65,404.59C791.45,406.43 792.47,407.85 793.38,409.08C791.48,437.51 790.59,423.12 783.29,463.01C782.74,465.99 778.17,497.22 782.47,496.86C783.46,494.55 780.48,490.99 783.49,490.74C780.65,484.45 784.34,478.96 784.82,466.68C784.91,464.4 786.88,449.53 788.79,448.31C789.99,447.41 785.28,469.09 787.58,486.26C786.05,487.38 785.74,489.93 783.5,490.75C783.6,491.57 782.17,492.69 784.52,493.5C787.78,491.97 789.72,488.71 792.47,485.24C792.37,489.62 793.8,492.78 795.12,495.95C793.28,497.28 791.14,497.79 790.02,499.72C792.06,500.33 793.89,499.82 796.14,499.92C789.8,504.85 789.52,503.98 796.34,503.49C798.15,506.34 797.33,514.86 807.25,521.94C809.16,523.3 810.51,525.2 811.63,527.24C810.92,528.77 810.3,530.3 809.69,531.62C804.8,534.63 803.94,529.1 800.11,531.11C785.91,514.73 788.9,516.73 787.16,503.38C786.76,500.29 787.05,498.4 783.39,497.67C781.86,498.59 780.94,500.22 779.72,500.73C775.44,499.91 771.36,500.32 767.59,498.49C763.95,493.94 765.83,495.66 765.75,492.47C765.61,486.92 767.67,485.36 767.08,479.32C761.38,421.72 762.05,426.88 773.2,397.14C777.36,386.04 773.31,381.55 769.02,364.41C808.92,375.1 795.62,370.15 796.34,377.05C799.09,376.64 799.4,373.38 801.64,372.46C801.95,372.97 802.25,373.17 802.25,373.48C803,387.05 797.66,390.87 799.33,394.15C799.63,393.97 800,393.86 800.1,393.67C800.81,390.71 802.87,388.16 802.24,384.9C801.92,383.23 803.77,380.49 804.99,373.38C810.46,367.91 806.7,374.48 809.37,362.88C813.47,345.08 813.59,352.07 814.57,344.63C815.64,336.57 816.9,328.62 820.18,321.08C822.31,316.18 822.07,310.7 823.34,305.58C825.2,298.06 819.86,291.43 818.45,281.93C817.12,281.62 816.21,280.91 816,279.28C817.33,277.75 817.92,276.23 817.02,273.98C815.6,270.41 818.05,268.22 819.26,263.17C824.21,242.58 825.36,241.82 827.31,232.58C831.32,213.61 826.02,205.48 826.7,186.7C826.89,181.54 822.59,172.76 819.97,169.16C812.44,158.82 817.23,165.64 820.28,154.99C823.41,154.54 830.37,158.59 830.37,149.89C832.51,147.14 833.22,143.98 834.75,141.12C840.02,138.49 836.18,137.74 836.18,129.29C841.18,126.24 836.62,121.64 839.14,117.06C841.38,116.96 843.42,116.86 845.36,116.75C848.44,113.38 849.05,110.72 847.11,109.6ZM783.9,499.07C785.54,503.28 784.3,507.05 784.61,511.11C779.63,513.98 778.83,514.11 776.15,515.19C778.15,517.02 780.89,521.02 785.43,514.78C785.86,515.86 786.88,518.35 787.06,518.76C785.99,520.46 784.24,520.42 783.29,522.33C786.23,524.83 788.37,519.97 789.57,522.6C790.13,523.81 786.96,524.42 786.96,526.92C789.82,527.98 790.92,523.18 792.06,526.21C791.96,527.45 790.01,528.16 790.73,529.98C793.47,530.84 792.43,526.37 795.27,529.25C795.91,529.9 796.15,530.64 796.03,531.41C799.62,534.75 801.99,538.45 804.64,542.63C805.23,543.56 803.96,546.69 805.31,548.43C798.21,551.98 784.08,545.87 777.17,540.78C773.9,538.37 774.13,537.68 771.26,532.62C767.16,525.4 751.88,522.15 749.73,514.19C749.15,512.06 749.77,511.63 761.54,499.32C761.65,499.21 761.37,498.91 762.96,506.44C763.14,507.31 768.54,509.82 775.04,506.32C778.11,504.65 779.16,503.37 783.9,499.07ZM765.84,500.8C769.16,502.84 773.02,501.85 776.55,502.85C772.98,505.91 769.21,507.23 764.72,505.5C762.44,495.91 763.87,499.59 765.84,500.8ZM835.89,106.46C836.82,106.29 836.78,107.21 836.9,107.94C836.97,108.21 837.74,108.38 838.14,108.48C838.29,109.97 836.93,110.07 836.61,109.55C836.25,108.97 836.77,108.47 836.93,108.07C836.29,107.99 834.54,106.63 835.89,106.46ZM844.36,23.76C844.36,24.88 843.54,24.68 842.83,24.78C843.14,23.96 843.44,23.35 844.36,23.76ZM773.81,161.7C778.28,155.03 780.81,147.41 783.8,140.09C786.92,132.45 791.77,128.43 795.63,123.47C798.12,120.26 798.65,119.14 804.3,96.55C806.57,87.49 802.44,87.63 810.01,70.04C815.14,58.12 816.48,49.53 816.64,40.78C816.74,35.54 820.3,31.79 816.13,22.12C818.6,15.54 815.38,9.14 822.66,5.71C823.27,3.88 819.86,4.58 825.92,1.12C826.74,3.99 823.48,4.36 823.37,6.52C824.73,7.61 828.19,1.05 821.03,13.86C821.03,15.07 822.33,16.28 822.4,16.15C823.66,14.92 823.21,12.52 825.72,12.22C828.01,15.27 822.93,16.41 824.9,20.58C823.29,19.83 823.1,18.18 822.05,17.73C820.93,19.26 822.87,20.07 822.66,21.3C822.86,22.42 821.33,22.12 821.23,23.14C826.05,28.65 826.15,26.14 828.16,33.44C828.36,34.66 826.94,35.48 827.34,36.8C828.21,36.92 829,36.42 829.18,35.17C829.94,29.72 840.73,19.29 842.94,21.51C837.06,28.1 832.11,32.11 831.22,40.58C831.83,41.88 833.05,41.09 833.77,41.6C837.97,39.5 835.94,34.27 842.33,33.04C840.22,36.2 838.51,39.1 838.46,43.03C838.29,54.9 835.75,52.29 832.75,54.04C832.34,55.26 833.26,55.37 833.77,56.18C831.59,88.21 835.1,74.96 833.57,83.61C832.47,89.84 833.63,98.92 832.75,100.23C830.38,100.67 827.93,101.19 825.55,100.02C823.37,98.95 824.93,101.65 828.36,85.14C830.03,77.12 828.69,63.09 828.87,57.1C828.78,56.47 831.16,56.23 830.08,55.41C829.66,55.09 829.09,55.58 828.56,55.17C827.86,50.31 828.94,44.43 828.05,39.06C825.5,42.22 827.85,46.3 824.89,48.64C824.76,49.66 825.91,49.03 825.91,49.39C826.06,67.25 827.34,64.62 827.34,67.8C825.81,77.89 826.12,88.19 823.26,98.08C822.85,99.2 822.14,100.12 821.83,101.24C823.05,104.09 823.46,103.58 820.71,106.13C815.88,122.37 816.2,137.57 804.7,153.74C802.37,157.01 801.79,160.79 800.32,164.34C798.69,168.29 804.23,174 806.23,175.76C806.23,173.71 805.44,171.59 803.68,170.05C803.27,167.2 803.48,164.34 802.46,161.69C802.97,160.06 803.38,158.33 804.5,156.69C816.22,170.76 799.81,186.96 798.69,191.25C796.53,190.63 796.34,189.56 794.82,194.51C792.41,202.35 773.48,198.89 771.47,185.13C770.8,180.58 770.39,166.81 773.81,161.7ZM832.64,113.48C831.62,113.28 830.6,113.07 829.48,112.87C830.8,112.27 831.8,112.29 832.64,113.48ZM826.42,113.27C826.32,114.49 825.4,114.39 824.38,114.6C824.88,113.59 825.65,113.51 826.42,113.27ZM825.18,111.22C825.18,110.54 825.65,110.63 826.11,112.25C825.55,112.09 825.14,111.83 825.18,111.22ZM823.26,115.92C823.15,116.09 823.04,116.22 822.93,116.36C821.54,118.05 820.56,116.19 823.26,115.92ZM773.81,271.41C774.22,271.82 774.52,272.23 774.01,272.74C773.09,272.43 773.2,272.02 773.81,271.41ZM817.55,287.01C819.56,296.25 822.46,298.68 821.32,305.06C819.05,317.83 820.06,316.41 817.55,321.78C812.23,333.14 814.51,339.25 809.6,352.57C807.49,358.29 806.24,364.4 805.73,370.82C789.67,369.75 775.39,360.67 753.02,361.13C751.27,358.51 746.26,342.13 749.86,337.88C756.47,330.08 748.81,311.33 757.61,294.96C765.02,281.16 763.07,280.48 767.5,277.53C777.27,271 765.85,273.46 781.57,275.49C782.36,274.52 782.08,273.63 782.08,272.13C780.91,272.34 780.02,276.18 779.94,273.39C779.85,270.41 778.71,272.02 800.61,275.69C801.23,275.69 800.48,276.88 800.84,277.31C801.27,277.88 802.54,274.79 804.6,275.94C805.3,276.41 803.41,277.54 804.03,278.72C804.38,279.39 805.84,276.68 806.44,276.09C807.78,276.18 811.17,276.58 811.23,276.6C809.66,281.01 809.71,280.76 809.22,280.26C808.52,279.55 810.17,278.82 809.19,278.03C807.58,277.63 807.56,280.69 805.01,279.99C804.91,279.96 808.67,283.27 812.66,281.19C815.34,282.4 816.92,284.12 817.55,287.01ZM778.4,271.78C778.85,270.86 778.82,270.69 778.5,274.17C777.86,273.06 777.82,272.97 778.4,271.78ZM813.16,276.71C813.57,278.14 814.08,279.56 812.24,280.89C811.87,279.19 812.32,278.16 813.16,276.71ZM823.66,191.88C823.02,197.38 824.8,191.26 825.9,213.19C826.58,226.59 823.51,230.85 823.55,234.4C823.62,240.49 820.42,247.61 820.2,247.01C819.18,244.32 822.54,242.02 820.39,239.09C819.27,243.27 817.74,246.94 819.17,250.71C818.86,251.93 818.05,251.02 817.64,251.63C817.64,263.43 816.32,258.32 814.17,275.08C800.93,275.17 788.37,272.26 775.73,268.15C775.73,260.03 779.13,260.65 776.75,245.82C771.66,214.06 778.03,229.73 774.19,203.04C773.05,195.11 771.45,194.97 772.37,192.91C775.73,197.6 780.82,199.26 785.93,200.86C799.81,205.22 806.03,178.44 809.89,178.23C809.69,177.21 809.09,176.2 809.58,175.07C811.87,169.89 811.82,164.67 809.68,159.37C811.06,162.18 825.3,177.78 823.66,191.88ZM813.67,161.8C813.57,159.15 815.51,157.42 817.54,155.78C814.05,163.12 814.76,162.35 813.67,161.8ZM836.4,116.35C837.63,118.09 835.98,118.52 836.92,125.4C836.41,127.24 834.88,127.64 834.27,129.27C833.79,132.26 837.56,139.47 834.55,139.55C832.52,139.6 830.29,137.77 830.3,138.18C830.35,140.17 830.41,140.18 832.54,140.79C832.99,145.74 828.93,142.91 827.34,144.77C828.16,146.2 829.68,144.77 830.5,145.79C831.11,147.52 828.97,147.93 828.87,148.54C828.16,150.99 829.07,153.13 826.83,154.35C822.88,155.43 820.87,152.35 817.36,154.05C815.11,155.14 813.43,156.58 812.26,158.83C809.55,156.12 809.9,154.18 807.47,153.73C806.49,154.71 808.17,155.37 807.88,156.28C807.28,156.88 806.88,156.1 805.74,153.83C807.67,152.51 808.29,149.99 810,148.46C810.51,147.95 813.2,151.08 815.12,151.08C814.2,148.94 812.16,148.43 810.84,147.1C815,141.16 818.71,127.7 820.83,119.57C823.06,118.05 825.7,117.84 827.23,115.61C827.48,115.36 830.05,117.24 832.04,116.3C832.04,115.99 831.94,115.69 831.94,115.18C832.65,115.14 835.18,114.74 836.23,115.79C838.06,113.71 840.42,116.06 845.41,113.14C843.51,117.76 835.11,114.54 836.4,116.35Z" style="fill-rule:nonzero;"/>
        <path d="M799.4,394.27C799.34,394.15 799.36,394.11 799.3,394.17L799.4,394.27Z" style="fill-rule:nonzero;"/>
        <path d="M96.51,522.83C98.35,523.03 99.98,522.83 101.51,523.44C109.91,525.66 108.01,518.8 122.92,515.49C123.94,515.18 124.86,515.08 125.77,514.47C125.46,513.76 124.95,513.85 124.55,513.86C111.05,513.99 109.77,521.61 102.94,521.61C100.79,521.61 98.75,521.81 96.51,522.83Z" style="fill-rule:nonzero;"/>
        <path d="M91.52,501.63C94.56,497.91 94.87,497.71 100.59,487.15C97.33,489.9 95.39,493.47 93.25,497.04C94.43,481.1 100.81,486.01 109.87,478.89C109.64,478.91 96.31,484.25 96.21,484.29C91.82,493.16 90.5,498.36 91.52,501.63Z" style="fill-rule:nonzero;"/>
        <path d="M62.76,509.99C63.84,509.36 78.13,493.67 78.67,491.94C72.25,496.94 66.33,502.44 62.76,509.99Z" style="fill-rule:nonzero;"/>
        <path d="M74.59,520.39C75.34,517.38 75.56,508.95 82.75,497.55C82.95,497.14 82.95,496.63 83.06,496.22C78.89,500.05 71.27,519.18 74.59,520.39Z" style="fill-rule:nonzero;"/>
        <path d="M777.17,407.72C776.76,413.53 776.15,418.63 776.46,423.73C778.4,418.12 778.8,410.78 777.17,407.72Z" style="fill-rule:nonzero;"/>
        <path d="M109.56,487.05C129.74,473.33 127.51,473.12 111.4,484.81C110.68,485.21 109.97,485.72 109.56,487.05Z" style="fill-rule:nonzero;"/>
        <path d="M62.15,489.19C65.11,487.46 68.68,486.54 70.61,483.38C66.94,483.99 64.6,486.54 62.15,489.19Z" style="fill-rule:nonzero;"/>
        <path d="M766.67,490C768.71,491.43 768.2,494.59 770.44,496.42C771.66,493.46 769.42,492.04 768.5,490.3C768,483.72 767.36,487.47 766.67,490Z" style="fill-rule:nonzero;"/>
        <path d="M100.18,531.91C96.92,533.03 96.82,535.99 96.1,538.64C99.57,537.62 98.04,533.74 100.18,531.91Z" style="fill-rule:nonzero;"/>
        <path d="M94.78,480.93C90.7,481.13 87.13,482.56 84.18,485.52C87.54,483.78 91.21,482.46 94.78,480.93Z" style="fill-rule:nonzero;"/>
        <path d="M593.65,495.41C590.9,496.94 590.49,499.49 589.37,501.63C593.45,498.46 593.85,497.85 593.65,495.41Z" style="fill-rule:nonzero;"/>
        <path d="M775.95,383.76C775.54,386.82 775.34,389.27 775.95,391.71C776.97,389.17 777.58,386.72 775.95,383.76Z" style="fill-rule:nonzero;"/>
        <path d="M774.62,435.56C775.13,433.42 775.95,431.28 775.54,428.22C774.11,431.07 774.11,433.31 774.62,435.56Z" style="fill-rule:nonzero;"/>
        <path d="M798.79,394.06C796.95,396.2 796.85,398.95 796.24,401.6C797.87,399.36 799.09,396.92 798.79,394.06Z" style="fill-rule:nonzero;"/>
        <path d="M92.13,523.65C90.29,524.47 88.66,525.38 87.24,527.01C90.9,526.5 92.03,525.69 92.13,523.65Z" style="fill-rule:nonzero;"/>
        <path d="M586.51,518.96C585.9,521.92 585.69,524.16 586.31,526.4C587.33,524.16 586.82,521.91 586.51,518.96Z" style="fill-rule:nonzero;"/>
        <path d="M90.6,522.83C88.36,523.24 88.36,523.24 86.73,524.26C88.25,524.57 89.48,524.06 90.6,522.83Z" style="fill-rule:nonzero;"/>
        <path d="M587.23,517.43C588.45,515.7 588.45,515.7 587.84,513.86C587.64,515.19 586.62,515.9 587.23,517.43Z" style="fill-rule:nonzero;"/>
        <path d="M120.27,511.31C121.39,511.11 122.61,511.21 123.74,509.68C122,509.78 120.98,510.19 120.27,511.31Z" style="fill-rule:nonzero;"/>
        <path d="M150.96,517.12C152.29,517.43 153.2,517.43 154.43,516.2C152.89,516 151.98,516.21 150.96,517.12Z" style="fill-rule:nonzero;"/>
        <path d="M790.83,389.58C790.52,391.11 790.83,392.03 791.75,393.15C791.85,391.82 792.26,390.7 790.83,389.58Z" style="fill-rule:nonzero;"/>
        <path d="M795.32,506.52C794.3,506.42 793.79,506.72 793.59,507.85C794.71,508.25 795.22,507.74 795.32,506.52Z" style="fill-rule:nonzero;"/>
        <path d="M797.26,510.8C796.65,511 796.24,511.31 796.34,512.23C797.26,512.23 797.67,512.03 797.26,510.8Z" style="fill-rule:nonzero;"/>
        <path d="M794.61,378.26C793.59,378.46 793.08,378.77 793.08,379.79C794.2,379.89 794.61,379.38 794.61,378.26Z" style="fill-rule:nonzero;"/>
        <path d="M588.14,509.07C587.43,509.38 587.43,509.89 587.94,510.5C588.14,510.09 589.06,509.78 588.14,509.07Z" style="fill-rule:nonzero;"/>
        <path d="M775.23,377.24C774.31,377.75 774.31,378.26 775.13,378.87C775.85,378.36 775.95,377.85 775.23,377.24Z" style="fill-rule:nonzero;"/>
        <path d="M791.75,381.62C790.4,381.62 790.9,383.59 791.85,382.64C792.16,382.34 792.36,381.93 791.75,381.62Z" style="fill-rule:nonzero;"/>
        <path d="M786.55,395.49C786.55,396.2 786.86,396.41 787.47,396.31C787.57,395.49 787.16,395.28 786.55,395.49Z" style="fill-rule:nonzero;"/>
        <path d="M83.15,496.32C83.97,496.01 84.27,495.4 84.27,494.48C83.46,494.9 83.05,495.51 83.15,496.32Z" style="fill-rule:nonzero;"/>
        <path d="M127.4,428.42L127.3,428.32C127.33,428.48 127.23,428.46 127.4,428.42Z" style="fill-rule:nonzero;"/>
        <path d="M170.74,361.64C169.74,363.63 171.83,368.12 172.22,368.41C172.75,368.81 173.49,368.88 174.11,368.88C170.31,365.08 173.58,360.22 170.74,361.64Z" style="fill-rule:nonzero;"/>
        <path d="M470.89,491.63C473.17,486.73 470.89,488.98 470.58,489.59C461.81,506.8 459.14,508.42 460.89,514.57C462.14,518.95 462.62,523.44 462.32,528.33C464.33,524.45 463.71,521.45 462.22,515.69C460.12,507.56 464.42,505.58 470.89,491.63Z" style="fill-rule:nonzero;"/>
        <path d="M516.06,486.94C513.67,489.33 499.16,520.33 500.46,522.93C501.42,521.02 511.14,495.49 516.16,488.98C516.37,488.72 516.73,487.17 516.06,486.94Z" style="fill-rule:nonzero;"/>
        <path d="M497.61,492.35C497.71,492.35 497.91,492.31 498.02,492.25C517.19,473.47 519.17,471.22 497.61,492.35Z" style="fill-rule:nonzero;"/>
        <path d="M520.95,486.08C520.34,485.97 520.63,482.93 518.98,481.31C518.67,481 519.21,480.53 516.17,486.95C517.06,487.84 517.88,484.66 518.92,483.79C520.03,486.39 519.23,489.08 520.14,492.05C521.79,489.74 520.12,486.79 522.49,485.32C521.93,485.59 521.54,486.18 520.95,486.08Z" style="fill-rule:nonzero;"/>
        <path d="M461.92,533.74C460.08,539.55 458.96,545.57 455.9,550.97C460.39,546.08 461.31,539.96 461.92,533.74Z" style="fill-rule:nonzero;"/>
        <path d="M478.85,511.62C469.46,516.05 467.34,521.93 468.18,521.09C468.29,521 479.23,512 479.13,511.89C484.25,509.93 482.06,508.41 478.85,511.62Z" style="fill-rule:nonzero;"/>
        <path d="M499.34,498.46C493.37,500.92 484.89,507.42 484.67,508.16L484.66,508.15C484.57,508.37 484.53,508.25 484.76,508.25C484.75,508.24 484.74,508.23 484.74,508.23C484.77,508.23 484.81,508.22 484.86,508.2C488.41,505.94 495.63,501.47 500.06,498.74C500.29,498.62 499.46,498.4 499.34,498.46Z" style="fill-rule:nonzero;"/>
        <path d="M448.05,507.13C447.51,499.75 438.13,493.96 445.51,502.44C446.54,503.63 446.85,505.35 448.05,507.13Z" style="fill-rule:nonzero;"/>
        <path d="M438.68,512.03C438.17,509.89 437.46,507.95 435.32,505.81C435.52,508.86 437.25,510.39 438.68,512.03Z" style="fill-rule:nonzero;"/>
        <path d="M505.25,495.61C507.97,492.89 506.44,494.2 505.05,495.42C505.15,495.51 505.25,495.61 505.25,495.61Z" style="fill-rule:nonzero;"/>
        <path d="M509.42,490.72C508.49,491.79 507.59,492.86 506.69,493.93C509.83,491.01 510.2,490.98 509.42,490.72Z" style="fill-rule:nonzero;"/>
        <path d="M521.06,470.83C519.12,471.14 517.9,471.85 517.39,473.58C518.81,473.08 520.34,472.77 521.06,470.83Z" style="fill-rule:nonzero;"/>
        <path d="M464.68,474.61C465.7,475.63 466.92,476.65 469.06,477.36C467.63,475.32 466.51,474.51 464.68,474.61Z" style="fill-rule:nonzero;"/>
        <path d="M482.42,509.58C482.4,509.62 482.37,509.66 482.35,509.7C482.56,509.66 482.55,509.71 482.42,509.58Z" style="fill-rule:nonzero;"/>
        <path d="M459.27,525.8C458.07,525.88 455.72,527.29 455.84,527.91C455.7,527.76 454.74,528.27 442.45,534.56C446.63,535.01 458.34,527.04 459.27,525.8ZM455.87,527.98C455.88,528 455.89,528.02 455.9,528.04C455.89,528.01 455.88,527.99 455.87,527.98Z" style="fill-rule:nonzero;"/>
        <path d="M464.67,482.6C465.99,482.74 464.7,481.03 463.56,481.54C463.79,482.16 464.08,482.54 464.67,482.6Z" style="fill-rule:nonzero;"/>
        <path d="M482.62,509.68C483.62,509.68 484.33,509.05 484.59,508.28C483.7,508.43 483.04,508.73 482.62,509.68Z" style="fill-rule:nonzero;"/>
        <path d="M460.8,524.67C460.32,524.92 459.65,524.96 459.43,525.59C459.23,526.19 460.8,525.81 460.8,524.67Z" style="fill-rule:nonzero;"/>
        <path d="M501.89,497.45C502.82,497.8 503.95,496.46 502.89,496.54C502.41,496.57 502.12,496.99 501.89,497.45Z" style="fill-rule:nonzero;"/>
        <path d="M550.15,499.2C549.8,499.2 549.56,499.45 547.57,499.66C544.55,499.97 542.07,499.52 538.7,499.89C537.57,500.12 535.58,501.34 538.81,501.17C540.59,501.08 542.21,500.33 543.9,500.29C545.75,500.25 546.86,500.6 548.15,500.54C549.71,500.49 551.47,499.68 550.15,499.2Z" style="fill-rule:nonzero;"/>
        <path d="M529.83,494.9C531.97,491.74 532.07,488.68 530.54,486.23C530.54,489.08 530.34,491.74 529.83,494.9Z" style="fill-rule:nonzero;"/>
        <path d="M527.38,470.32L527.38,464C526.1,466.3 525.62,468.35 527.38,470.32Z" style="fill-rule:nonzero;"/>
        <path d="M555.21,499.08C557.24,499.59 559.28,500.08 561.11,499.08C561.51,498.86 562.19,499.08 555.21,499.08Z" style="fill-rule:nonzero;"/>
        <path d="M539.31,454.93C539.51,454.11 539.72,453.4 538.49,453.3C538.39,454.01 538.7,454.52 539.31,454.93Z" style="fill-rule:nonzero;"/>
        <path d="M569.08,449.42C569.79,449.93 570.41,450.13 571.22,449.52C570.51,448.71 569.79,449.12 569.08,449.42Z" style="fill-rule:nonzero;"/>
        <path d="M561.43,499.08C562.04,498.98 562.76,498.88 563.88,498.77C562.76,498.36 562.04,498.46 561.43,499.08Z" style="fill-rule:nonzero;"/>
        <path d="M602.32,511.41C605.07,515.98 607.55,519.71 609.97,521.91C612.6,518.49 605.03,512.77 602.32,511.41Z" style="fill-rule:nonzero;"/>
        <path d="M618.73,454.32C616.69,451.97 615.57,449.12 613.84,446.57C614.04,450.04 615.57,452.69 618.73,454.32Z" style="fill-rule:nonzero;"/>
        <path d="M605.89,482.15C604.53,477.88 602.41,473.56 602.38,477.92C602.37,479.72 603.43,480.85 605.89,482.15Z" style="fill-rule:nonzero;"/>
        <path d="M621.49,479.47C621.36,491.46 624.77,483.32 621.48,478.48C621.49,478.82 621.5,479.14 621.49,479.47Z" style="fill-rule:nonzero;"/>
        <path d="M607.82,487.76C607.82,486.14 608.5,483.06 605.78,482.15C605.38,484.38 607.3,485.88 607.82,487.76Z" style="fill-rule:nonzero;"/>
        <path d="M592.02,578.6C593.04,576.15 593.24,574.32 592.63,572.48C593.04,574.32 591.71,576.05 592.02,578.6Z" style="fill-rule:nonzero;"/>
        <path d="M620.87,453.91C620.46,455.64 620.97,456.76 622.3,457.68C621.89,456.46 622.61,454.83 620.87,453.91Z" style="fill-rule:nonzero;"/>
        <path d="M616.28,511.11C616.69,509.27 616.28,508.36 615.26,507.34C614.76,508.86 615.37,509.68 616.28,511.11Z" style="fill-rule:nonzero;"/>
        <path d="M635.19,437.04C635.47,435.97 635.23,435.66 634.23,434.45C634.82,439.21 634.65,439.09 635.19,437.04Z" style="fill-rule:nonzero;"/>
        <path d="M615.98,501.63C615.78,502.65 614.55,503.36 615.67,504.38C616.28,503.05 616.28,503.05 615.98,501.63Z" style="fill-rule:nonzero;"/>
        <path d="M609.15,497.34C610.97,494.79 608.55,495.58 608.86,496.72C608.91,496.9 608.99,497.12 609.15,497.34Z" style="fill-rule:nonzero;"/>
        <path d="M618.05,470.09C618.14,470.69 618.25,470.77 618.73,471.25C618.53,470.45 617.95,469.41 618.05,470.09Z" style="fill-rule:nonzero;"/>
        <path d="M414.92,539.45C418.08,541.08 420.94,540.67 423.48,541.08C421.14,539.45 418.39,539.25 414.92,539.45Z" style="fill-rule:nonzero;"/>
        <path d="M370.57,528.03C372.25,528.63 374.02,528.14 375.77,527.72C374.05,526.92 372.34,527.41 370.57,528.03Z" style="fill-rule:nonzero;"/>
        <path d="M389.74,525.28C387.09,525.38 385.25,525.69 383.42,526.3C385.35,526.5 387.39,526.91 389.74,525.28Z" style="fill-rule:nonzero;"/>
        <path d="M411.86,540.67C410.13,540.98 408.7,541.28 407.27,541.49C408.7,542 410.23,542.2 411.86,540.67Z" style="fill-rule:nonzero;"/>
        <path d="M411.17,517.49C411.68,517.5 412.21,517.29 412.88,516.92C411,515.33 409.09,517.44 411.17,517.49Z" style="fill-rule:nonzero;"/>
        <path d="M315.47,528.91C314.58,529.28 314.11,529.26 314.19,529.97C316.86,530.55 316.81,528.36 315.47,528.91Z" style="fill-rule:nonzero;"/>
        <path d="M342.57,528.02C339.95,527.89 342.67,529.83 344.36,529.05C343.8,528.35 343.23,528.05 342.57,528.02Z" style="fill-rule:nonzero;"/>
        <path d="M420.73,534.15C419.81,533.74 419,532.93 418.18,534.15C419.1,535.17 419.92,534.35 420.73,534.15Z" style="fill-rule:nonzero;"/>
        <path d="M412.08,534.35C413.41,534.25 414.12,534.55 414.83,533.84C413.9,532.82 413.2,533.39 412.08,534.35Z" style="fill-rule:nonzero;"/>
        <path d="M309.4,529.66C310.22,530.88 310.73,530.68 311.34,529.76C310.72,529.36 310.21,529.26 309.4,529.66Z" style="fill-rule:nonzero;"/>
        <path d="M394.12,524.16C394.7,524.16 395.01,523.72 395.34,523.24C394.33,523.04 393.61,522.83 394.12,524.16Z" style="fill-rule:nonzero;"/>
        <path d="M422.57,538.94C423.18,539.31 423.82,539.18 424.51,538.94C423.69,538.53 423.18,538.23 422.57,538.94Z" style="fill-rule:nonzero;"/>
        <path d="M279.12,557.29C277.08,559.53 278.61,561.37 279.83,563.51C282.22,562.96 284.33,563.12 284.72,560.35C285.41,556.92 281.3,554.89 279.12,557.29ZM281.97,561.58C281.09,561.29 281.6,561.11 281.45,560.73C280.81,559.66 280.39,561.09 279.62,560.45C277.2,556.82 287.16,556.37 281.97,561.58Z" style="fill-rule:nonzero;"/>
        <path d="M279.08,548.53C274.65,548.59 275.13,555.4 279.16,555.36C283.77,555.32 283.41,548.47 279.08,548.53ZM280.13,550.26C281.83,550.9 281.56,553.57 279.82,553.93C275.8,554.76 276.82,548.71 280.13,550.26Z" style="fill-rule:nonzero;"/>
        <path d="M278.1,547.51C279.14,547.91 279.94,546.91 280.34,545.88C280.43,544.33 279.75,543.18 279.22,541.8C277.48,542.13 275.5,542.32 273.94,543.42C271.91,544.85 275.61,543.88 275.61,545.29C275.55,546.11 274.58,546.85 274.82,547.84C275.17,549.27 275.39,546.46 278.1,547.51ZM276.97,544.04C278.46,542.55 279.85,544.72 278.4,546.18C276.97,545.98 276.87,545.06 276.97,544.04Z" style="fill-rule:nonzero;"/>
        <path d="M685.21,429.24C690.54,430.03 691.45,436.47 693.34,436.17C696.47,435.67 690.46,427.64 685.21,429.24Z" style="fill-rule:nonzero;"/>
        <path d="M685.11,433.62C686.87,434.8 687.29,437 689.32,437.48C689.42,437.51 690.83,436.7 690.92,435.77C689.29,434.54 687.86,433.21 685.11,433.62Z" style="fill-rule:nonzero;"/>
        <path d="M658.09,425.16C656.77,425.38 655.91,425.79 655.24,427.1C656.56,426.79 657.78,426.89 658.09,425.16Z" style="fill-rule:nonzero;"/>
        <path d="M655.32,444.3C654.81,445.88 656.56,444.8 656.41,444.15C656.26,443.43 655.51,443.72 655.32,444.3Z" style="fill-rule:nonzero;"/>
        <path d="M671.04,433.93C670.63,434.85 670.94,435.15 671.65,435.15C672.26,434.23 671.85,434.03 671.04,433.93Z" style="fill-rule:nonzero;"/>
        <path d="M309.6,518.35C308.99,517.84 308.38,517.23 307.56,518.04C308.38,519.16 308.38,519.16 309.6,518.35Z" style="fill-rule:nonzero;"/>
        <path d="M312.16,517.74C312.52,518.06 312.94,518.32 313.41,518.32C315.64,518.33 313.71,516.34 312.16,517.74Z" style="fill-rule:nonzero;"/>
        <path d="M133.83,419.55C132.54,422.92 129.7,425.44 127.67,428.4C127.57,428.5 132.33,427.66 135.87,420.38C135.06,420.46 134.87,419.76 133.83,419.55Z" style="fill-rule:nonzero;"/>
        <path d="M127.64,428.44L127.61,428.45C127.54,428.47 127.48,428.5 127.41,428.52C127.58,428.69 127.47,428.6 127.64,428.44Z" style="fill-rule:nonzero;"/>
        <path d="M141.88,413.84C141.44,416.88 139.62,415.8 141.98,420.06C143,418.73 143.51,417.51 143.61,416.08C143.51,416.08 142.69,416.25 142.59,416.28C141.92,415.61 142.87,414.66 141.88,413.84Z" style="fill-rule:nonzero;"/>
        <path d="M157.18,452.79C155.04,452.08 153.92,449.83 151.57,448.92C152.29,451.94 154.13,452.95 157.18,452.79Z" style="fill-rule:nonzero;"/>
        <path d="M163.36,390.57C163.17,388.57 162.63,387.46 160.64,387.63C163.66,394.34 163.8,395.12 163.36,390.57Z" style="fill-rule:nonzero;"/>
        <path d="M168.12,477.26C167.3,477.02 168.65,480.53 173.29,480.73C171.95,479.01 170.23,477.86 168.12,477.26Z" style="fill-rule:nonzero;"/>
        <path d="M164.01,420.16C164.83,422.71 165.85,424.24 167.27,425.67C167.07,423.63 166.15,421.9 164.01,420.16Z" style="fill-rule:nonzero;"/>
        <path d="M137.13,418.92C137.97,419.54 138.83,417.57 136.48,416.39C136.83,417.19 136.36,418.34 137.13,418.92Z" style="fill-rule:nonzero;"/>
        <path d="M133.73,433.34C133.59,436.2 135.39,434.05 135.26,431.08C134.21,431.85 133.76,432.54 133.73,433.34Z" style="fill-rule:nonzero;"/>
        <path d="M184.4,543.73C184.6,545.26 184.91,546.38 186.03,547.5C185.83,545.26 185.83,545.26 184.4,543.73Z" style="fill-rule:nonzero;"/>
        <path d="M161.46,456.46C160.95,455.64 160.85,454.42 159.12,454.42C159.61,455.53 160.25,456.36 161.46,456.46Z" style="fill-rule:nonzero;"/>
        <path d="M148.14,447.95C148.72,448.55 150.14,447.53 148.1,446.37C147.48,446.86 147.77,447.56 148.14,447.95Z" style="fill-rule:nonzero;"/>
        <path d="M159.21,415.27C159.74,416.54 159.73,417.3 161.15,417.41C161.05,416.39 160.74,415.78 159.21,415.27Z" style="fill-rule:nonzero;"/>
        <path d="M189.6,550.77C190.42,551.28 190.52,552.5 191.74,551.59C191.33,550.97 191.13,550.26 189.6,550.77Z" style="fill-rule:nonzero;"/>
        <path d="M161.97,484.9C161.66,483.78 161.15,483.06 159.83,482.76C160.34,484.09 160.74,484.7 161.97,484.9Z" style="fill-rule:nonzero;"/>
        <path d="M164.65,399.81C164.73,399.06 163.61,399.1 163.8,399.87C163.8,400.36 164.59,400.38 164.65,399.81Z" style="fill-rule:nonzero;"/>
        <path d="M182.74,539.49C182.69,540.05 183.53,540.64 183.59,539.83C183.6,539.56 182.81,538.58 182.74,539.49Z" style="fill-rule:nonzero;"/>
        <path d="M117.82,433.62C115.58,433.82 115.58,433.82 114.05,435.15C116.6,435.15 116.6,435.15 117.82,433.62Z" style="fill-rule:nonzero;"/>
        <path d="M75.71,472.06C76.22,471.04 76.93,470.43 76.53,469.21C76.02,470.12 75.2,470.83 75.71,472.06Z" style="fill-rule:nonzero;"/>
        <path d="M97.12,469.2C97.91,469.42 98.5,469.37 99.16,469.1C98.55,468.79 97.78,469.01 97.12,469.2Z" style="fill-rule:nonzero;"/>
        <path d="M105.69,436.78C106.2,437.19 106.71,437.19 107.22,436.78C106.71,436.27 106.2,436.37 105.69,436.78Z" style="fill-rule:nonzero;"/>
        <path d="M192.35,349.4C196.45,347.73 200.49,353.93 201.53,350.11C197.3,347.18 193.5,346.8 190.42,348.92C190.25,349.04 191.69,349.68 192.35,349.4Z" style="fill-rule:nonzero;"/>
        <path d="M193.17,353.38C194.31,353.3 198.63,356.22 198.67,353.11C198.69,350.06 191.78,353.38 193.17,353.38Z" style="fill-rule:nonzero;"/>
        <path d="M172.77,373.98C172.88,372.12 172.4,369.67 171.75,367.96C170.63,370.2 171.86,372.04 172.77,373.98Z" style="fill-rule:nonzero;"/>
        <path d="M163.5,362.86C164.62,362.24 165.24,361.6 165.44,360.11C163.9,360.62 163.7,361.54 163.5,362.86Z" style="fill-rule:nonzero;"/>
        <path d="M178.48,358.38C178.89,358.99 178.99,359.71 179.81,359.2C179.67,358.48 179.53,358.07 178.48,358.38Z" style="fill-rule:nonzero;"/>
        <path d="M106.81,562.6C105.12,561.38 103,561.49 101.73,563.52C99.69,566.79 104.88,568.73 105.79,569.64C106.05,568.84 110.79,565.48 106.81,562.6ZM106.6,566.67C105.57,566.06 104.45,565.78 103.64,566.67C100.49,562.47 108.64,561.61 106.6,566.67Z" style="fill-rule:nonzero;"/>
        <path d="M99.76,557.17C97.66,556.21 95.23,557.73 95.09,559.81C95.09,562.02 97.14,563.61 98.85,563.61C102.33,563.61 103.58,558.91 99.76,557.17ZM98.75,562.39C97.22,561.92 96.32,561.17 96.71,559.64C97.73,555.67 103.78,560.95 98.75,562.39Z" style="fill-rule:nonzero;"/>
        <path d="M96.1,554.93C95.98,553.26 94.19,552.64 92.74,551.59C92.7,551.63 90.03,555.39 89.27,556.48C89.19,556.56 89.5,557.17 89.86,557.17C90.59,557.21 91.02,555.76 91.92,556.48C92.53,557.3 91.84,558.54 92.63,559.33C94.72,555.78 96.28,557.28 96.1,554.93ZM94.06,555.87C93.24,555.87 92.84,555.36 92.02,554.65C94.75,552.45 95.07,555.87 94.06,555.87Z" style="fill-rule:nonzero;"/>
        <path d="M790.63,279.26C789.66,280.76 786.71,295.85 788.39,304.85C789,308.13 786.21,308.93 785.74,313.11C784.16,327.09 784.52,333.74 781.76,342.27C780.83,345.14 781.31,347.15 781.03,352.79C780.82,356.87 780.54,357.71 780.54,358.07C782.22,356.77 781.95,354.9 781.87,352.77C781.35,339.15 785.19,339.56 785.54,326.36C786.21,301.16 789.51,316.71 789.11,300.77C788.77,287.68 792.38,281.74 790.63,279.26Z" style="fill-rule:nonzero;"/>
        <path d="M771.67,275.69C770.51,277.24 770.36,277.96 771.77,280.28C774.14,284.19 778.08,282.78 777.26,282.68C773.52,281.84 773.77,277.79 771.67,275.69Z" style="fill-rule:nonzero;"/>
        <path d="M817.95,311.99C817.85,309.34 815.71,304.65 813.67,302.41C814.59,305.67 815.81,308.72 817.95,311.99Z" style="fill-rule:nonzero;"/>
        <path d="M800.72,290.07C800.11,286.81 799.6,284.26 799.09,281.71C797.52,281.71 797.18,286.09 800.72,290.07Z" style="fill-rule:nonzero;"/>
        <path d="M768.31,337.2C768.45,337.33 767.42,336.56 765.85,336.35C768.37,339.77 775.76,341.41 768.31,337.2Z" style="fill-rule:nonzero;"/>
        <path d="M758.51,316.68C756.57,316.78 755.25,317.09 754.23,318.01C755.56,317.9 756.98,317.9 758.51,316.68Z" style="fill-rule:nonzero;"/>
        <path d="M780.43,358.07C779.63,359.67 780.39,361.47 780.13,363.08C780.13,363.29 781.46,362.25 780.95,361.13C780.53,360.22 780.43,359.07 780.43,358.07Z" style="fill-rule:nonzero;"/>
        <path d="M785.23,276.3C785.06,275.62 785.17,274.44 784.31,274.16C783.66,274.65 783.85,276.47 785.23,276.3Z" style="fill-rule:nonzero;"/>
        <path d="M762.39,336.05C762.82,336.09 765.81,336.25 765.86,336.25C764.73,335.33 763.61,335.74 762.39,336.05Z" style="fill-rule:nonzero;"/>
        <path d="M758.82,335.23C758.82,335.41 758.73,335.28 759.43,335.38C760.34,335.52 760.35,335.23 758.82,335.23Z" style="fill-rule:nonzero;"/>
        <path d="M762.9,357.05C762.9,357.19 762.7,357.15 764.23,357.15C764.22,356.83 764.09,357.05 762.9,357.05Z" style="fill-rule:nonzero;"/>
        <path d="M792.76,278.06C791.75,278.38 793.23,278.5 793.99,278.24C793.53,278.09 793.18,277.93 792.76,278.06Z" style="fill-rule:nonzero;"/>
        <path d="M798.97,181.78C798.28,189.62 803.99,175.33 798.79,172C799.95,175.57 799.24,178.67 798.97,181.78Z" style="fill-rule:nonzero;"/>
        <path d="M822.13,7.34C819.17,10.19 818.46,13.25 819.89,16.72C819.99,13.56 821.01,10.71 822.13,7.34Z" style="fill-rule:nonzero;"/>
        <path d="M810,95.84C811.53,93.29 811.84,91.46 810.61,89.01C809.59,91.25 808.88,93.09 810,95.84Z" style="fill-rule:nonzero;"/>
        <path d="M794.61,157.52C796.55,155.48 796.96,152.83 797.36,149.26C793.38,158.74 793.78,156.7 794.61,157.52Z" style="fill-rule:nonzero;"/>
        <path d="M820.4,100.53C818.26,98.9 818.26,98.9 816.63,100.02C818.28,101.87 818.25,101.83 820.4,100.53Z" style="fill-rule:nonzero;"/>
        <path d="M825.81,39.87C824.79,41.81 824.79,41.81 825.2,44.25C826.31,41.9 826.31,41.9 825.81,39.87Z" style="fill-rule:nonzero;"/>
        <path d="M810,129.38C811.05,127.79 810.56,126.64 809.69,124.89C809.41,126.61 809.35,127.76 810,129.38Z" style="fill-rule:nonzero;"/>
        <path d="M833.76,42.62C832.55,42.47 832.25,42.81 831.72,43.74C832.85,44.12 833.45,43.82 833.76,42.62Z" style="fill-rule:nonzero;"/>
        <path d="M809.29,85.54C809.31,85.82 809.31,85.89 809.31,86.11C809.34,89.81 811.73,88.21 809.29,85.54Z" style="fill-rule:nonzero;"/>
        <path d="M798.38,142.54C798.07,143.15 797.67,143.87 798.58,144.78C798.79,143.86 799.4,143.25 798.38,142.54Z" style="fill-rule:nonzero;"/>
        <path d="M793.48,207.07C795.54,209.23 795.61,209.3 799.7,209.01C794.9,205.57 794.97,205.7 793.48,207.07Z" style="fill-rule:nonzero;"/>
        <path d="M823.37,226.46C823.39,220.56 821.59,235.16 821.59,235.59C821.5,240.74 823.36,231.13 823.37,226.46Z" style="fill-rule:nonzero;"/>
        <path d="M795.01,270.59C795.42,268.04 795.42,265.49 793.38,262.84C793.38,265.9 793.59,268.25 795.01,270.59Z" style="fill-rule:nonzero;"/>
        <path d="M789.2,213.5C789.61,214.83 790.32,215.34 791.95,215.23C791.24,214.11 791.04,212.99 789.2,213.5Z" style="fill-rule:nonzero;"/>
        <path d="M805.11,210.74C806.01,211.24 806.77,211.25 807.66,210.64C805.92,209.72 805.92,209.72 805.11,210.74Z" style="fill-rule:nonzero;"/>
        <path d="M791.03,202.89C789.25,203.01 787.22,206.11 789.79,204.72C790.44,204.3 790.77,203.62 791.03,202.89Z" style="fill-rule:nonzero;"/>
        <path d="M789.1,226.34C789.61,227.36 790.22,227.56 791.44,226.85C790.53,226.45 790.12,225.63 789.1,226.34Z" style="fill-rule:nonzero;"/>
        <path d="M784.79,209.99C784.04,209.97 783.75,210.46 783.39,211.36C785.01,211.21 785.51,210 784.79,209.99Z" style="fill-rule:nonzero;"/>
        <path d="M816.22,222.47C816.02,222.98 815,223.18 815.4,224C816.25,223.77 816.49,223.26 816.22,222.47Z" style="fill-rule:nonzero;"/>
        <path d="M778.78,529.36C781.33,526.91 781.84,525.59 781.02,523.85C781.12,523.85 779.57,521.43 777.26,521.91C775.74,522.23 774.71,523.03 774.52,524.66C774.18,527.65 776.54,528.38 778.78,529.36ZM775.74,524.77C776.65,521.92 779.92,523.45 779.92,524.7C780.11,525.39 779.76,526.63 779.21,526.7C778.67,526.76 778.52,526.13 778.02,526.01C777.27,526.01 777.44,527.01 776.75,527.01C776.14,527 775.33,526.06 775.74,524.77Z" style="fill-rule:nonzero;"/>
        <path d="M767.08,514.37C764.66,512.53 765.48,512.82 761.57,518.35C762.82,519.51 763.38,517.61 764.1,517.89C765.75,518.55 764.04,520.87 765.85,521.1C766.56,520.59 766.05,519.47 767.07,518.86C769.63,517.12 769.58,516.27 767.08,514.37ZM764.73,516.51C765.58,514.52 766.72,514.88 767.69,516.82C766.26,518.55 765.55,517.33 764.73,516.51Z" style="fill-rule:nonzero;"/>
        <path d="M771.16,517.63C766.68,517.63 766.8,524.46 771.46,524.46C775.95,524.46 775.83,517.63 771.16,517.63ZM771.26,523.14C767.34,522.69 770.02,517.04 772.77,519.47C773.89,520.46 773.72,523.14 771.26,523.14Z" style="fill-rule:nonzero;"/>
        <path d="M796.07,531.94C796.21,530.95 794.95,531.5 794.97,532.35C794.99,533.07 795.99,532.52 796.07,531.94Z" style="fill-rule:nonzero;"/>
        <path d="M823.56,124.08C824.7,125.22 826.04,124.32 827.37,124.3C829.2,124.28 832.62,127.74 833.79,125.71C834.29,124.86 828.32,120.89 823.56,124.08Z" style="fill-rule:nonzero;"/>
        <path d="M826.12,128.16C827.53,128.24 828.53,129.53 829.84,129.48C830.95,129.44 831.63,128.55 831.32,127.15C829.28,126.87 827.56,126.72 826.12,128.16Z" style="fill-rule:nonzero;"/>
    </g>
</svg>
