<?xml version="1.0" encoding="UTF-8" standalone="no"?>
<!DOCTYPE svg PUBLIC "-//W3C//DTD SVG 1.1//EN" "http://www.w3.org/Graphics/SVG/1.1/DTD/svg11.dtd">
<svg width="100%" height="100%" viewBox="0 0 900 600" version="1.1" xmlns="http://www.w3.org/2000/svg" xmlns:xlink="http://www.w3.org/1999/xlink" xml:space="preserve" xmlns:serif="http://www.serif.com/" style="fill-rule:evenodd;clip-rule:evenodd;stroke-linejoin:round;stroke-miterlimit:2;">
    <g>
        <path d="M347.87,164.68L347.97,164.58C347.81,164.58 347.84,164.58 347.87,164.68Z" style="fill-rule:nonzero;"/>
        <path d="M435.9,178.54L436,178.64C436.01,178.58 435.97,178.57 435.9,178.54Z" style="fill-rule:nonzero;"/>
        <path d="M263.15,337.43L263.05,337.33C263.05,337.43 263.03,337.43 263.15,337.43Z" style="fill-rule:nonzero;"/>
        <path d="M212.98,492.08L213.08,492.18C213.08,492.01 213.07,492.08 212.98,492.08Z" style="fill-rule:nonzero;"/>
        <path d="M549.69,122.27C548.56,118.69 547.86,119.94 503.24,135.3C447.25,154.58 450.28,154.24 445.31,154.13C443.83,153.98 440.83,155.23 442.31,158.79C443.14,158.69 443.86,158.48 444.59,158.38C445.11,158.9 444.69,159.93 445.83,159.83C447.69,159.11 447.07,157.04 447.9,155.8C449.76,155.7 451.52,154.87 453.8,155.59C452.04,156.93 450.49,156.52 449.25,156.62C448.22,158.07 448.63,159.93 446.66,161.48C443.45,159.41 440.04,160.45 436.73,162.82C437.66,160.75 439.63,160.34 441.49,159.1C438.49,157.03 435.39,158.79 432.59,157.65C434.97,156.51 437.87,158.37 439.93,156.1C439.27,155.66 440.35,155.88 433.93,155.79C430.2,155.74 429.27,156.62 428.76,160.55C425.97,159.52 424.73,161.79 423.28,163.45C417.48,161.34 422.82,160.89 415.83,157.35C404.49,151.6 401.62,146.9 394.52,148.56C388.87,149.88 385.79,141.92 377.04,145.04C372.64,146.61 372.09,142.71 359.45,142.14C347.34,141.59 336.91,133.62 325.73,126.42C313.1,118.28 307.87,126.79 301.94,122.28C294.25,116.44 290.57,108.04 281.46,111.21C276.29,109.1 276.84,104.74 276.08,93.62C275.68,87.66 280.11,90.94 280.11,87.93C279.86,83.73 287.36,76.51 283.52,73.14C281.76,71.59 282.07,70.04 281.97,68.59C281.14,67.76 279.9,68.69 279.49,67.66C280.11,66.42 281.46,66.11 281.66,64.97C281.76,63.42 281.45,62.18 280.52,61.25C281.24,60.01 281.66,58.66 281.86,57.11C279.17,56.08 280.2,52.25 277.31,51.32C278.34,42.42 266.45,33.01 257.03,34.98C256.62,33.84 258.58,33.64 257.96,32.39C256.2,31.46 255.48,33.32 254.03,34.05C251.11,31.92 247.82,39.03 243.38,35.5C242.55,37.98 241.11,39.86 238.83,40.36C231.86,41.89 232.06,49.99 230.97,55.57C229.77,61.66 228.38,67.67 230.45,73.67C229.93,75.01 228.59,75.64 228.28,77.7C230.76,81.63 231.15,87.35 235.42,91.15C238.79,94.15 239.15,104.54 239.35,105.84C237.18,107.08 235.35,108.58 233.45,110.08C228.8,113.76 232.47,109.99 218.97,115.77C206.98,120.91 209.34,124.23 205,123.63C198.56,122.74 185.04,123.67 180.38,128.6C176.96,132.21 172.83,135.02 169.62,138.74C167.66,141.02 165.28,142.26 162.17,142.26C157.57,142.26 154.73,144.33 142.62,148.47C134.14,151.37 138.61,153.46 132.17,152.3C124.15,150.85 123.41,156.59 118.2,157.16C104.87,158.63 99.4,167.84 89.03,174.85C83.43,178.64 85.25,174.25 78.17,177.44C66.43,182.72 72.77,176.86 67.93,175.89C66.27,176.3 65.03,177.86 63.07,177.75C59.76,173.92 55.51,172.13 50.35,172.78C42.46,173.78 48.22,170.81 38.66,171.64C35.96,171.64 40.29,172.46 0.08,160.67C0.08,167.63 -1.38,165.71 7.32,168.32C44.32,179.43 41.11,179.84 45.08,178.46C45.35,178.19 53.52,181.81 57.39,184.25C55.11,185.08 53.87,186.62 52.11,187.46C44.17,191.25 48.07,199.83 43.73,209.91C42.8,212.08 43.83,213.94 45.7,215.29C51.48,219.47 55.54,213.27 58.42,211.26C62.87,212.6 72.18,211.88 76.01,209.81C76.94,210.12 77.67,210.84 79.01,210.84C84.42,207.3 87.27,212.73 92.04,198.94C93.28,197.6 94.83,198.42 95.97,197.18C96.18,196.56 96.38,195.73 96.69,194.9C138.03,189.73 130.38,177.39 138.59,179.49C152.93,183.16 191.54,171.81 194.86,162.32C207.51,175.2 206.06,197.33 212.86,210.73C215.82,216.57 212.31,222.33 215.65,227.49C214.93,228.94 213.58,229.66 213.37,231.42C215.8,236 211.9,236.28 213.16,241.04C214.04,244.36 212.02,247.25 212.33,250.45C212.68,252.55 208.62,250.33 209.85,259.24C211.61,257.48 210.26,254.27 213.47,253.86C210.88,262.93 234.76,269.51 244.09,270.51C244.09,272.89 243.37,274.96 244.61,277.44C245.13,274.85 244.4,272.37 246.06,270.72C255.37,269.38 264.68,269.48 274.4,267.41C273.16,268.86 272.12,270 273.88,271.03C278.15,270.13 276.85,265.94 282.67,264.1C284.84,261 297.44,256.49 301.91,246C302.12,247.55 302.74,248.9 302.43,250.34C299.77,262.46 309.98,261.88 308.64,271.44C308.23,274.34 310.4,277.23 308.54,280.13C308.08,280.36 305.39,286.74 308.54,290.68C309.69,292.12 310.51,294.09 309.99,295.34C302.96,301.24 302.85,309.72 298.51,316.03C299.77,316.87 298.79,318.33 306.68,302.89C309.44,307.03 312.29,308.48 309.58,313.54C308.14,316.22 310.26,315.26 309.79,321.19C309.08,329.99 309.27,338.88 308.03,347.78C302.65,346.12 296.86,345.61 291.07,345.3C281.55,344.79 271.93,341.27 261.9,346.54C263.23,343.06 263.04,340.19 263.04,337.43C261.15,337.34 262.9,334.74 260.76,334.34C259,337.44 258.9,341.27 256.93,344.48C262.44,320.88 255.18,347.52 252.17,362.38C253.01,362.38 252.35,364.64 256.31,348.1C260.73,355.17 260.74,351.55 259,367.55C258.35,373.54 250.85,374.17 240.48,376.55C233.31,378.19 235.55,378.59 218.76,376.65C214.94,376.21 211.52,374.68 208.11,372.62C207.59,368.07 206.95,363.41 207.9,358.76C209.52,350.89 208.64,342.83 209.76,334.86C211.64,321.52 211.68,308.18 209.35,294.83C204.99,269.85 207.11,276.42 208.52,262.97C208.97,260.28 206.77,260.39 206.35,264.21C203.99,285.79 204.17,273.95 207.49,301.14C208.01,305.38 209.15,309.52 208.63,313.76C207.6,322.24 208.8,330.82 206.87,339.31C205.18,346.75 206.02,354.53 205.01,362.17C204.43,366.52 206.77,370.96 205.22,375.51C209.88,375.72 211.81,377.07 212.25,380.06C213.41,387.83 212.97,395.37 209.97,402.82C201.65,423.5 206.11,430.09 205.42,441.82C204.23,462.14 212.25,480.28 213.06,492.07C215.95,491.42 215.34,488.97 215.04,487.23C211.28,465.44 209.41,488.11 207.28,425.47C206.58,404.96 212.99,409.16 215.14,392.06C216.92,377.89 212.08,380.45 214.42,378.41C224.87,379.75 235.32,380.27 245.56,377.69C246.08,379.24 246.08,380.38 245.66,381.21C243.3,385.94 244.47,392.22 243.69,394.04C241.62,399.94 238.62,405.52 237.79,411.83C237.79,411.93 237.79,412.04 237.69,412.14C233.71,415.93 239.92,421.35 237.69,431.69C237.62,432.03 230.94,455.16 230.24,456.93C228.97,455.12 232.47,436.72 233.96,424.76C234.17,423.73 234.48,422.59 233.03,421.55C227.87,451.19 227.46,482.46 228.89,491.89C230.55,490.44 229.92,488.06 231.79,487.03C227.65,476.06 230.73,465.51 233.24,455.17C239.38,429.85 243.13,434.27 238.41,414.83C241.31,412.35 241.78,408.93 241.93,405.52C242.15,400.68 247.21,398.22 247.21,389.49C247.21,385.46 247.83,381.52 248.24,377.39C252.17,376.77 255.48,375.01 259,373.25C260.5,385.28 264.06,388.36 264.48,391.66C266.31,406.11 270.81,405.47 268.2,418.87C262.89,446.15 274.34,479.09 274.3,484.35C274.13,509.21 271.34,510.71 273.89,511.56C275.13,508.77 273.89,505.46 275.44,502.77C276.16,503.6 275.23,504.94 276.37,505.87C278.14,502.68 275.6,492.75 275.85,487.87C276.71,471.07 265.55,456.86 270.99,414.84C272.21,405.39 267.17,405.15 266.34,390.84C265.77,381.07 258.56,379.56 262.1,361.88C262.72,357.33 262.72,352.78 263.76,348.43C267.48,346.98 271.11,345.83 275.14,346.36C288.66,348.15 300.69,348.36 302.97,349.77C302.56,353.49 302.35,357.32 299.04,359.8C296.87,367.14 294.12,374.38 295.83,382.45C298.17,393.51 293.72,396.29 296.86,397.76C300.72,387.97 296.06,381.22 297.48,374.28C300.96,357.3 304.65,357.75 304.82,349.25C307.1,350.28 309.06,349.56 311.13,349.77C311.34,349.15 311.65,348.74 311.54,348.32C309.92,341.76 315.03,322.66 310.82,314.08C317.89,305.79 306.65,305.06 311.03,299.8C316.61,293.1 308.47,289.84 310,283.46C311.03,279.12 310.73,274.67 311.45,270.22C311.87,267.63 311.58,265.02 309.28,263.08C300,255.26 309.89,248.41 302.66,243.43C300.2,242.81 300.57,248.81 298.01,237.02C299.04,235.16 301.51,233.82 300.8,231.64C299.63,228.03 299.97,224.5 301.32,220.26C294.43,228.81 299.97,229.56 296.56,234.95C291.96,242.22 302.59,244.46 295.63,251.5C275.33,272.02 237.8,272.37 215.98,256.78C214.35,248.64 219.67,255.47 215.57,247.26C216.29,240.54 217.33,234.74 216.4,228.43C236.05,227.12 233.99,227.7 233.99,226.26C228.71,226.16 223.54,225.02 218.27,226.05C213.42,221.2 218.21,218.71 216.51,213.53C214.1,206.2 211.86,198.74 210.41,190.98C222.15,187.68 233.56,162.24 227.89,142.36C224.54,130.6 225.45,119.53 224.79,115.46C229.75,112.48 228.39,119.45 228.51,119.91C234.14,141.34 237.77,163.77 262.85,163.77C268.49,163.77 263.68,164.83 262.85,165.94C270.16,165.94 278.18,161.78 277.54,158.39C276.95,155.27 282.73,149.67 282.92,142.05C283.16,132.27 286.05,118.93 284.47,111.84C286.75,113.18 288.81,112.98 290.26,114.74C288.92,115.88 289,117.43 289.02,118.88C289.12,125.4 288.8,131.92 289.33,138.43C289.83,144.53 291.5,150.33 292.33,156.33C294.06,168.86 299.63,174.12 308.67,183.54C307.98,188.42 302.91,201.06 303.5,202.68C304.86,206.4 302.93,214.19 297.71,214.89C294.91,215.27 292.23,215.72 289.64,217.06C294.18,217.4 317.1,212.68 285.19,222.54C285.81,223.16 286.33,222.95 286.74,222.85C303.89,219.57 304.84,220.2 304.22,215.2C303.67,210.73 305.97,205.46 310.01,191.51C313.75,178.6 311.39,175.34 312.7,174.03C316.11,170.62 319.22,166.79 321.29,162.24C336.12,172.58 347.9,177.2 371.77,168.55C362.75,165.33 353.67,179.83 322.74,159.86C341.13,167.16 354.16,164.55 344.57,163.07C337.14,161.92 329.98,159.76 322.33,157.79C325.33,154.38 329.98,153.45 331.85,149.41C315.42,158.29 321.39,157.81 314.78,166.79C308.31,175.59 310.42,178.69 308.57,179.93C302.07,172.51 297.33,168.81 295.95,161.62C292.77,145.03 291.02,147.11 292.02,129.14C303.75,136.55 294.51,129.22 293.78,127.48C296.26,126.76 298.95,127.17 301.75,125.82C294.53,121.61 290.65,132.44 291.2,118.27C291.92,118.68 292.34,118.78 292.65,119.1C295.88,122.38 300.74,122.59 304.03,125.82C304.97,126.74 306.51,127.17 307.86,127.06C312.27,126.69 318.09,130.88 319.34,129.75C317.06,127.58 313.86,127.16 311.27,125.51C315.1,124.17 318.31,124.88 321.51,126.96C357.78,150.52 353.87,141.78 369.3,146.61C372.61,147.65 375.93,148.18 379.33,147.13C382.56,146.14 390.95,150.95 391.54,151.37C393.29,152.62 396.3,152.3 398.78,152.61C399.19,151.58 397.64,151.68 397.85,150.54C405.09,152.71 410.26,158.19 417.4,161.09C415.54,161.92 414.71,161.09 413.78,160.78C408.52,158.7 409.44,159.18 403.23,171.12C400.95,171.64 398.68,170.81 396.51,172.88C398.79,172.98 400.54,173.09 402.3,173.71C401.99,174.74 401.89,175.88 401.06,176.4C379.02,178.99 381.22,171.3 373.13,167.71C374.47,170.92 376.95,173.2 379.54,175.36C385.63,180.45 392.99,179.08 400.13,179.08C399.8,185.59 396.22,182.98 406.23,188.7C406.75,195.11 409.23,198.13 415.33,199.56C418.66,200.34 421.36,201.88 422.36,199.35C424.12,194.93 427.2,198.27 425.26,189.52C424.85,187.66 426.29,185.49 424.33,183.42C422.26,187.04 423.92,190.76 423.61,194.18C419.68,195.84 416.58,195.01 414.92,192.01C416.16,191.18 415.95,193.46 417.3,192.73C418.44,190.35 417.71,187.97 416.68,185.7C415.65,183.42 415.34,180.73 412.54,179.6C418.64,176.5 419.88,176.29 424.13,177.84C427.65,175.36 431.37,177.43 434.99,177.43C435.49,177.43 435.88,178.01 436,178.6C440.2,179.98 440.13,185.44 440.57,190.36C440.94,194.5 440.57,198.22 436.02,200.29C438.3,202.05 439.33,199.77 440.88,199.46C457.63,204.56 452.12,194.99 452.67,194.81C452.39,186.49 448.97,181.73 448.12,176.6C447.03,170.05 440.96,171.42 435.5,166.46C436.02,164.7 437.67,164.91 438.6,164.18C445.53,158.75 445.78,169.39 450.39,159.01C452.67,158.39 455.24,159.41 457.11,157.77C462.85,152.75 551.44,127.78 549.69,122.27ZM281.46,78.1C281.98,79.76 280.53,80.89 280.12,82.34C278.88,80.27 280.63,79.34 281.46,78.1ZM39.09,175.13C40.85,174.72 41.47,175.65 42.61,176.58C41.06,176.78 40.02,176.89 39.09,175.13ZM44.06,175.03C44.89,175.34 45.51,175.55 45.61,176.58C44.68,176.27 44.37,175.85 44.06,175.03ZM260.26,350.47C259.64,349.13 259.23,348.3 258.81,347.37C259.02,346.03 260.47,345.3 260.15,343.85C260.57,346.02 261.5,348.09 260.26,350.47ZM68.06,178.65C68.89,181.86 66.92,182.58 59.99,181.86C62.68,179.68 66.09,181.44 68.06,178.65ZM57.3,178.13C60.42,178.65 58.14,180.52 57.82,180.2C58.45,179.89 57.57,178.89 57.13,178.38C57.05,178.51 55.55,178.13 54.61,177.3C55.85,176.78 56.57,177.51 57.3,178.13ZM56.57,181.13C38.29,173.98 56.32,180.06 57.81,180.3C57.92,181.34 57.4,181.45 56.57,181.13ZM45.5,211.54C51.62,201.04 42.31,192.54 61.53,185.58C58.9,189.41 52.37,188.63 51.5,194.37C50.99,197.68 50.26,200.89 50.26,204.09C49.85,205.23 48.09,205.12 48.29,206.99C57.22,208.64 55.52,199.72 56.88,209.89C51.61,213.82 48.71,214.23 45.5,211.54ZM58.54,208.44C59.06,206.06 58.23,203.58 57.92,200.99C61.18,204.25 59.72,206.91 61.33,209.78C59.88,209.78 59.16,209.37 58.54,208.44ZM73.12,191.37C73.74,197.16 68.57,202.34 71.15,208.33C69.6,206.78 68.74,205.02 68.87,202.85C69.36,195.08 65.38,192.54 65.97,192.12C62.43,192.95 67.56,196.18 66.69,201.81C66.28,204.5 68.24,206.78 66.9,209.57C60.05,211.85 66.74,202.32 58.21,197.05C57.9,195.08 59.55,194.15 60.49,192.71C56.26,191.3 55.24,198.65 56.15,202.54C51.58,204.44 52.01,206.88 54.29,192.09C62.57,187.43 70.94,183.19 80.77,183.5C77.87,184.64 74.98,186 71.67,185.78C64.46,185.3 66.59,191.32 66.16,191.99C67.96,190.61 68.33,187.07 71.16,187.85C74.06,188.65 77.06,186.3 79.33,188.06C81.19,187.85 80.16,186.2 81.4,185.89C83.26,186.51 83.57,188.48 85.02,190.23C81.09,193.64 79.85,198.3 79.12,202.95C77.26,204.92 74.57,203.78 72.4,206.05C72.71,201.11 77.54,193.58 73.12,191.37ZM73.64,206.99C74.36,206.06 75.3,206.27 76.02,205.85C76.12,206.26 76.33,206.47 76.33,206.57C75.61,208.54 74.68,207.82 73.64,206.99ZM78.5,208.96C77.67,208.24 77.26,206.8 78.6,206.48C82.75,205.48 85.32,201.51 89.46,200.38C88.23,206.47 83.68,207.92 78.5,208.96ZM82.02,200.58C81.5,196.96 82.33,194.17 85.95,192.72C86.36,193.03 86.16,194.06 87.81,193.75C88.22,187.96 83.67,184.54 81.29,179.99C79.32,180.61 77.67,181.65 75.7,181.23C77.54,179.53 82.95,177.16 84.91,179.47C89,184.29 93.5,188.78 93.6,195.92C89.68,197.68 86.26,199.96 82.02,200.58ZM217.12,183.92C206.7,201.62 207.17,156.27 186.71,154.44C181.22,153.95 176.23,149.07 174.4,150.72C179.16,156.72 187.54,156.1 193.02,160.75C186.1,168.32 165.44,175.22 157.85,176.37C137.25,179.51 137.95,174.06 133.13,178.54C121.39,189.45 112.44,190.64 95.89,192.4C95.24,189.03 93.91,187.94 87.3,178.85C99.02,171.95 105.33,160.51 117.71,159.92C116.68,163.13 111.19,161.68 111.4,166.33C124.47,160.36 123.63,153.41 132.61,154.85C139.79,156 138.26,152.56 150.3,148.64C168.99,142.56 165.8,146.11 170.26,142.02C183.66,129.74 186.49,124.72 204.6,126.19C210.52,126.67 213.64,119.66 222.29,117.6C224.18,138.85 223.3,128.96 220.12,131.57C220.74,133.23 222.81,132.6 223.84,134.26C223.65,145.24 233.83,155.51 217.12,183.92ZM272.05,56.38C271.33,56.79 270.91,56.69 270.5,55.76C271.43,55.55 271.84,55.75 272.05,56.38ZM267.39,53.38C266.36,54.1 265.53,55.24 264.08,55.24C264.81,54 266.05,53.58 267.39,53.38ZM263.05,56.38C262.84,55.24 263.57,55.35 264.08,55.14C264.19,55.96 263.36,55.75 263.05,56.38ZM267.08,50.69C267.49,51.31 266.98,51.41 266.46,51.83C266.36,50.89 266.57,50.69 267.08,50.69ZM266.57,40.55C263.23,43.14 263.52,41.65 263.05,39.31C264.39,39.82 265.74,39.41 266.57,40.55ZM263.98,48.2C263.98,48.82 263.67,49.03 262.74,48.82C263.26,48.31 263.46,47.89 263.98,48.2ZM260.36,52.44C259.84,53.68 259.22,54.41 257.67,55.03C258.19,53.48 259.01,52.96 260.36,52.44ZM253.12,55.34C252.09,56.79 250.64,57.31 249.09,57.82C250.22,55.03 250.22,55.03 253.12,55.34ZM246.5,46.55C247.22,46.45 247.95,45.93 249.09,46.55C246.71,48.93 246.5,48.93 244.54,46.24C245.36,45.41 245.88,46.55 246.5,46.55ZM239.46,58.75C239.46,59.68 238.94,59.89 238.12,59.89C238.12,58.65 238.64,58.65 239.46,58.75ZM236.88,53.58C237.81,54.92 237.5,55.65 236.78,56.48C235.43,55.13 236.77,54.72 236.88,53.58ZM232.84,83.37C231.29,82.44 230.87,80.99 231.08,79.44C232.22,80.58 234.39,81.2 232.84,83.37ZM233.05,75.62C232.33,74.9 231.91,74.07 231.81,73.03C233.77,74.06 233.77,74.06 233.05,75.62ZM235.53,47.48C235.01,47.89 234.5,48.41 233.87,49.03C233.77,47.79 234.5,47.38 235.53,47.48ZM234.19,65.58C233.67,64.55 233.98,64.13 234.81,64.03C235.33,64.86 235.22,65.37 234.19,65.58ZM236.46,83.89C235.39,74.19 231.58,81.65 245.36,59.27C245.68,58.76 246.29,58.65 247.02,58.96C247.12,59.99 245.26,59.99 245.78,61.44C248.47,60.3 251.68,61.85 254.26,59.47C254.47,62.16 256.95,63.99 259.95,63.5C262.64,63.06 264.29,60.6 266.67,59.47C268.43,59.78 269.26,60.81 268.74,62.47C274.5,64 275.1,71.36 277.22,74.26C278.8,76.41 277.44,78.81 277.01,80.88C276.21,84.71 276.14,88.68 273.91,92.36C271.15,96.91 277.12,104.37 269.25,111.19C267.38,112.81 265.17,118.26 259.01,117.09C256.32,116.58 253.43,118.12 250.84,115.85C246.6,112.12 242.98,108.2 241.74,102.51C241.12,100.44 239.88,98.48 241.53,96.61C239.25,92.06 237.73,95.35 236.46,83.89ZM280.84,132.2C281.77,141.72 278.59,150.21 274.74,158.58C273.4,161.48 270.08,161.68 268.43,162.82C252.09,161.89 239.78,156.41 236.36,139.03C239.98,139.44 243.6,142.55 248.57,141C244.12,136.45 237.6,138 233.88,133.97C234.5,132.21 236.05,132.94 236.78,131.8C235.95,130.97 234.61,131.59 233.47,130.87C231.61,126.42 229.85,121.46 231.4,115.35C235.33,114.01 237.4,109.56 241.64,107.49C243.61,112.97 248.78,115.14 251.26,119.28C253.74,119.9 256.12,118.35 258.29,119.9C258.55,120.71 255.99,133.85 260.77,119.49C264.08,118.56 266.56,116.49 268.94,114.11C269.97,114.42 269.04,115.04 269.35,116.08C271.01,112.56 271.63,108.94 274.94,107.08C276.08,110.49 278.66,112.87 282.59,114.22C283.9,135.11 279.33,127.2 273.49,135.32C276.5,134.68 278.46,132.82 280.84,132.2ZM432.59,165.72C430.11,166.65 426.38,165.41 425.97,162.62C428.25,164.89 430.42,165.2 432.59,165.72ZM415.73,196.96C414.07,197.79 412.94,196.55 411.59,196.65C406.82,186.68 407.41,189.41 412.62,191.27C412.11,193.96 414.39,195.09 415.73,196.96ZM415.42,189.61C410.35,187.33 405.7,185.27 400.73,183.09C403.94,175.95 406.42,168.61 410.66,161.78C412,162.61 413.56,162.61 414.49,163.85C410.61,164.22 407.27,174.04 404.77,180.5C408.93,184.48 412.92,178.37 415.42,189.61ZM408.6,177.2C408.98,173.76 411.75,172.87 414.08,176.27C412.32,177.41 410.97,179.16 408.6,177.2ZM410.77,172.23C411.39,170.99 412.11,169.44 412.74,168.09C420.19,167.88 424.43,169.64 428.67,174.61C422.35,175.65 416.35,176.58 410.77,172.23ZM445.63,175.75C447.04,181.24 449.56,186.51 450.49,192.09C450.62,193.83 451.47,194.66 452.57,194.88C449.75,196.76 454.37,200.3 441.81,197.47C443.26,195.71 442.53,193.75 442.84,191.88C444.65,191.34 446.22,193.85 447.81,191.36C443.47,189.41 446.23,182.54 443.15,173.57C444.59,173.89 445.31,174.51 445.63,175.75ZM443.04,189.61C441.8,186.2 441.87,182.39 439.73,179.47C437.63,176.6 433.83,175.75 431.25,173.16C435.28,172.95 438.39,175.54 442.01,176.68C443.15,180.92 443.56,185.16 443.04,189.61ZM439.42,171.51C440.15,171.91 440.87,172.23 440.25,173.58C432.08,170.58 424.11,167.17 415.63,166.24C414.7,165.41 415.22,164.38 414.39,163.96C416.59,163.08 439.32,171.45 439.42,171.51ZM432.49,160.75C433.73,160.13 434.87,160.44 436.11,160.44C434.56,162.3 434.56,162.3 432.49,160.75Z" style="fill-rule:nonzero;"/>
        <path d="M655.62,535.74L655.52,535.64C655.48,535.71 655.45,535.7 655.62,535.74Z" style="fill-rule:nonzero;"/>
        <path d="M773.69,210.18C774.77,209.75 771.29,211.02 770.62,211.27L770.62,211.28C770.92,211.18 771.81,210.86 773.69,210.18Z" style="fill-rule:nonzero;"/>
        <path d="M899.85,167.37C898.91,164.45 896.18,165.71 893.33,166.75C810.41,196.91 782.12,207.15 773.69,210.18C773.32,210.33 772.41,210.67 770.65,211.33C770.64,211.31 770.63,211.29 770.62,211.27C770.46,211.32 770.48,211.31 770.62,211.26C769.83,209.64 769.81,208.29 770.65,206.88C775.78,198.2 778.9,187.52 780.17,184.23C782.36,178.55 781.45,172.53 780.27,166.64C778.3,156.85 785.6,158.32 782.65,140.16C780.05,124.18 763.14,128.39 755.55,121.64C751.11,117.7 745.15,116.11 740.96,111.81C740.55,111.39 739.72,111.2 739.1,111.19C736.31,111.14 733.68,108.96 730.82,110.78C730.51,110.98 729.68,110.57 729.27,110.26C728.03,109.02 726.27,108.81 724.93,107.88C726.33,101.25 721.83,92.58 727.1,92.05C727.62,91.95 728.44,91.12 728.44,90.6C728.49,86.87 731.37,84.3 732.47,80.98C733.97,76.47 731.6,76.14 730.19,73.33C729.88,72.81 730.81,71.99 730.5,71.16C729.78,70.33 728.64,71.26 728.02,70.44C728.23,69.1 729.88,68.78 730.3,66.92C729.16,64.95 729.37,62.47 730.51,59.78C727.61,58.75 728.75,54.71 725.44,53.99C726.47,52.65 725.96,51.61 725.44,50.58C722.81,45.32 724.88,44.71 720.37,42.2C717.78,40.76 714.99,39.61 712.82,37.34C710.54,37.86 708.06,36.41 705.89,37.65C704.96,36.31 707.44,36.1 706.3,34.75C704.54,34.13 703.82,35.89 702.58,36.41C701.86,36.41 701.34,35.58 700.61,35.89C697.92,37.55 695.54,39.92 691.82,38.37C689.01,45.74 685.53,39.67 681.37,48.3C679.34,52.51 679.92,57.3 678.78,61.75C677.54,66.61 677.23,71.68 679.09,76.44C678.06,77.68 676.81,78.61 676.81,79.44C677.33,82.85 679.43,84.92 680.02,87.61C681.42,94.03 686.2,90.25 687.57,109.02C684.47,110.47 681.88,112.64 678.88,113.68C675.47,112.13 671.74,112.95 669.67,116.47C668.22,118.95 666.05,120.19 663.77,121.33C654.07,126.18 655.97,127.33 651.98,127.33C640.71,127.33 629.56,136.42 630.26,147.5C631.49,166.94 636.18,163.82 635.12,177.4C632.53,210.64 656.39,215.92 661.5,236.36C660.22,236.54 669.15,240.65 523.09,186.91C521.32,186.26 519.03,185.06 517.81,187.74C516.09,191.53 508.84,187.35 661.6,242.57C662.53,250.9 655.73,248.41 658.7,256.43C660.36,250.64 661.29,250.74 661.91,251.26C662.53,252.29 661.08,253.12 661.7,254.36C665.21,259.27 675.7,262.1 678.87,266.46C678.87,260.98 680.11,255.7 679.7,250.32C676.91,253.22 678.36,257.25 676.8,260.46C672.14,258.91 668.11,256.63 664.28,253.74C663.07,246.48 664.65,252.43 665.11,244.22C666.14,244.01 667.08,244.12 668.01,244.43C669.15,250.74 673.08,255.29 677.32,254.98C676.39,253.95 675.98,252.91 676.49,251.77C673.86,250.01 669.48,246.88 670.9,243.8C671.85,241.74 673.07,240.08 675.66,239.87C692.69,238.45 682.4,239.91 708.56,225.39C716.24,221.13 717.93,228.44 724.49,230.36C727.49,227.15 727.49,227.15 729.04,227.46C728.94,228.7 726.87,228.6 727.49,230.77C728.42,231.6 729.56,233.15 731.63,233.77C732.56,232.84 733.78,232.41 734.53,231.29C735.23,230.24 735.98,229.01 737.32,230.57C736.87,232.83 728.62,233.56 735.46,240.4C742.9,249.37 735.64,256.82 713.53,275.26C709.38,278.72 708.49,273.71 707.22,282.19C704.74,279.91 702.36,277.74 699.88,275.88C702.36,270.4 703.19,269.57 706.81,269.47C706.09,272.78 708.57,273.3 710.95,274.33C711.45,273.8 740.42,251.86 733.29,243.19C728.67,237.58 723.31,232.82 717.15,228.91C710.87,224.93 708.36,230.75 693.56,239.36C690.94,240.88 693.3,244 686.63,245.67C686.32,245.67 685.91,245.67 685.8,244.64C685.7,244.02 687.56,243.92 687.25,242.67C686.32,242.36 685.49,243.29 684.56,242.88C683.84,242.36 684.04,240.71 682.39,240.91C681.98,243.19 683.01,245.05 684.05,246.81C683.33,247.95 681.36,247.53 680.84,250.02C684.25,248.68 687.67,249.29 690.77,248.16C693.04,247.33 695.22,247.01 697.49,247.64C709.71,251.05 710.06,237.99 720.56,234.19C726.77,237.71 732.25,244.43 732.04,248.26C717.1,255.37 711.9,273.35 707.21,265.54C705.97,265.54 705.87,266.68 705.04,266.78C704.01,265.95 704.32,264.09 702.76,263.47C701.35,269.09 706.86,263.35 696.55,276.92C695.1,276.56 694.45,275.17 693.27,274.69C694.74,271.8 697.24,269.26 696.34,265.55C694.61,268.43 691.83,270.86 692.5,274.5C692.41,274.46 692.32,274.41 692.2,274.34C692.2,279.52 695.67,277.9 697.89,279.31C698.72,281.17 698.51,283.55 700.79,285.31C700.27,283.14 699.86,281.38 699.45,279.41C701.9,280.46 706.77,288.23 710.1,282.82C712.15,279.5 714.97,277.04 717.96,274.75C726.68,268.07 733.16,258.92 742.79,253.13C746.41,250.95 749.31,247.75 750.55,243.2C751.58,244.65 751.81,246 751.58,247.34C749.67,258.8 757.93,261.51 757.89,264.41C757.84,268.14 757.79,271.96 758.41,275.69C758.51,276.62 757.6,277.04 757.38,277.76C753.66,289.79 760.38,287.11 759.04,293.17C753.32,296.75 739.36,333.26 755.73,300.51C759.04,304.03 761.42,307.75 758.52,311.58C759.35,323.58 757.8,334.44 757.49,345.3C749.32,343.13 740.83,342.96 732.46,341.99C710.71,339.46 714.62,344.55 711.56,343.02C712.59,339.19 712.59,335.47 710.53,331.64C708.13,333.54 708.46,338.68 707.11,338.68C706.75,336.34 708.14,334.29 707.84,332.05C702.37,351.42 697.17,379.06 705.56,344.88C709.68,355.64 709.43,346.15 708.35,363.6C708.13,367.12 706.8,369.6 703.18,370.74C680.87,377.73 665.06,375.6 657.25,370.22C655.18,355.99 658.22,355.51 657.87,346.94C657.62,340.94 658.98,335.04 659.32,329.15C661.51,290.75 656.61,293.59 656.84,278.98C656.86,277.53 656.12,276.5 655.39,275.57C655.8,269.78 657.67,264.4 657.46,258.5C653.98,259.73 654.29,271.62 653.53,281.67C653.53,281.78 658.51,302.94 657.56,312.29C656.74,320.46 657.97,328.63 655.8,336.81C654.35,342.29 655.79,348.5 654.56,354.19C653.2,360.5 655.7,366.6 654.77,372.81C654.77,374.17 660.5,371.42 661.39,378.29C664.49,402.16 651.76,405.03 653.94,427.53C655.67,445.36 652.13,446.15 658.39,471.8C662.84,490.05 661.1,488.04 663.25,490.32C663.97,488.25 664.89,486.6 664.18,484.84C663.02,481.95 662.85,478.84 661.9,475.94C655.93,457.61 657.57,449.49 656.31,421.84C655.58,405.75 662.24,404.01 663.65,393.29C666.03,375.29 662.21,379.73 663.65,376.12C668.62,377.67 674.1,376.22 680.51,377.78C684.34,376.95 689.72,376.54 694.79,375.71C696.02,376.94 692.7,383.21 693.24,387.19C694.16,393.96 688.45,398.3 687.24,408.4C687.05,409.95 686,410.99 684.96,412.12C688.18,429.28 689.01,420.13 679.37,455.46C678.02,451.41 681.9,432.22 682.89,423.08C683.77,418.22 679.1,405.73 676.89,490.42C672.65,491.87 667.58,488.14 663.34,492.08C667.48,492.49 671.62,492.8 675.65,493.22C676.58,495.81 674.82,497.98 675.13,499.94C677.11,501.38 685.5,505.11 679.79,505.11C679.27,504.59 679.89,503.77 679.27,503.35C673.58,501.8 667.99,499.52 662.2,502.21C662.51,503.97 664.27,502.83 664.58,504.07C664.06,504.9 662.72,504.28 662.1,505.52C664.69,506.04 661.58,507.28 662.41,508.21C663.96,509.14 665.82,508.42 667.58,509.14C665.82,510.8 662.72,509.76 661.27,512.24C662.51,513.27 663.96,512.34 664.99,513.07C664.65,514.78 661.37,514.06 670.37,515.86C670.27,516.58 669.13,516.69 669.34,517.52C670.48,518.35 672.13,517.52 673.37,518.45C672.65,519.59 670.78,518.55 670.68,520.31C674.3,521.97 676.06,521.65 678.33,518.86C676.78,514.52 677.92,509.96 681.23,508.21C679.89,511 681.22,513.18 682.37,515.45C684.42,519.49 685.37,524.04 688.27,527.66C688.48,527.87 688.68,528.38 688.58,528.59C686.6,534.32 694.42,537 685.68,539.24C676.25,541.66 666.83,541.24 657.44,539.65C655.18,539.27 654.46,537.82 655.44,535.69C652.98,534.93 652.42,539.46 654.54,540.69C662.51,545.29 695.57,544.51 692.4,535.41C690.74,530.65 691.5,525.25 687.43,521.34C686.4,520.35 689.26,520.57 684.64,513.89C680.78,508.31 685.77,508.05 684.43,502.72C683.32,500.22 678.68,501.11 680.91,495.58C681.83,493.3 682.05,491.03 678.94,490.3C678.94,488.13 679.15,486.27 680.91,485.02C674.88,469.85 685.11,445.6 688.25,433.71C691.17,422.65 688.48,416.38 687.53,412.71C692.63,408.46 689.36,403.92 693.12,398.02C696.46,392.79 696.1,390.38 697.26,375.26C701.09,374.64 704.4,372.88 708.12,371.12C708.43,373.71 708.45,376.08 709.26,378.15C722.19,411.37 716.95,415.78 715.98,423.77C713.41,445.09 723.58,472.96 723.84,491.53C723.94,498.4 719.34,509.07 723.32,509.32C724.04,506.42 723.11,503.01 724.15,499.18C725.29,500.21 723.84,501.56 724.98,502.39C725.7,501.98 725.61,501.36 725.6,500.84C724.28,440.21 713.81,457.16 719.81,410.95C720.91,402.47 715.87,402.19 715.05,387.67C714.25,373.35 707.35,388.05 712.05,345.77C717.78,342.07 720.01,342.78 751.05,345.98C751.84,347.87 751.02,354.4 747.74,356.22C745.77,363.15 742.83,369.86 744.12,377.43C746.64,392.23 742.59,391.58 745.26,394.91C747.33,389.53 747.32,384.57 746.19,379.7C742.97,365.78 753.37,354.93 753.12,346.49L759.53,346.49C760.56,344.01 758.81,341.84 759.43,339.56C761.2,333.05 760.21,326.42 760.88,319.8C761.17,316.9 761.19,313.8 759.02,311.01C763.26,306.77 761.81,302.94 758.4,299.73C758.15,296.05 764.39,293.81 759.85,287.01C755.51,280.51 763.39,263.42 757.78,260.01C755.52,258.64 754.68,256.49 753.75,254.22C757.37,254.43 759.33,253.29 759.44,250.91C759.54,248.63 757.99,247.6 753.96,247.08C753.34,244.49 753.86,241.29 750.65,239.74C753.19,235.17 761.24,230.4 765.65,221.84C768.52,216.27 761.33,221.2 896.2,171.36C897.07,171.1 900.77,170.24 899.85,167.37ZM731.34,80.79C730.72,82.45 730,84 728.96,86.17C728.24,83.17 729.79,81.93 731.34,80.79ZM706.62,244.64C703.43,248.04 698.78,244.96 692.03,245.88C694.93,242.98 696.58,239.67 700.31,238.33C701.65,239.36 701.86,241.85 704.34,242.26C704.24,240.19 702.79,238.64 702.27,236.78C705.58,233.88 709.72,232.33 713.34,230.06C715.51,230.37 717.06,231.72 718.93,233.27C714.17,236.47 710.42,240.59 706.62,244.64ZM722.55,258.92C723.13,257.77 728.49,256.23 730.72,251.16C727.92,258.8 718.54,264.02 714.17,271.12C712.93,271.33 711.58,272.78 709.2,271.53C715.41,268.75 718.72,263.57 722.55,258.92ZM706.92,339.05C706.84,339.25 706.8,339.44 706.8,339.63C706.79,339.43 706.81,339.23 706.92,339.05ZM706.62,342.4C706.24,340.98 706.69,339.9 706.8,339.79C707.88,337.53 707.5,341.3 706.62,342.4ZM679.1,493.53C679,494.77 678.89,496.01 678.69,497.15C677.97,495.81 677.45,494.46 679.1,493.53ZM709.62,340.02C710.03,340.85 709.93,341.36 709.52,341.88C709.52,341.37 709.62,340.74 709.62,340.02ZM709.52,348.09C708.49,347.37 708.38,346.12 707.86,344.99C708.48,343.85 709,342.92 709.41,341.89C709.41,343.95 710.86,345.92 709.52,348.09ZM721,59.17C721,59.82 719.86,60.11 719.86,58.96C720.48,58.65 720.79,58.75 721,59.17ZM713.34,45C712.41,44.59 712.51,43.55 712,42.31C716.57,43.61 716.4,42.82 713.34,45ZM716.76,56.06C716.55,57.2 715.73,57.3 715,57.3C715.21,56.38 716.03,56.27 716.76,56.06ZM714.9,57.2C714.69,58.03 714.07,58.23 713.45,58.44C713.45,57.41 714.17,57.31 714.9,57.2ZM712.41,52.03C711.95,51.12 712.49,51.16 713.44,51.51C712.93,51.82 712.62,51.93 712.41,52.03ZM709.52,55.55C708.8,56.89 708.28,57.72 706.83,57.83C707.45,56.69 708.17,56.06 709.52,55.55ZM702.59,58.24C701.14,59.79 699.8,60.62 697.62,60.93C698.96,59.06 699.9,57.51 702.59,58.24ZM693.38,48.93C695.14,49.55 696.48,49.55 697.83,49.55C695.55,51.82 695.55,51.82 693.38,48.93ZM694.83,44.38C694.83,45.83 693.49,45.41 692.97,46.04C693.17,45.1 694,45 694.83,44.38ZM688.52,61.75C688.73,62.78 688.11,62.99 687.07,63.2C687.17,61.96 687.38,61.44 688.52,61.75ZM686.34,56.79C686.65,57.82 686.96,58.76 685.2,59.69C685.21,58.24 685.31,57.41 686.34,56.79ZM684.9,50.06C684.49,51.09 683.87,51.51 682.52,51.92C683.24,50.79 683.66,50.17 684.9,50.06ZM681.69,86.48C680.66,85.34 679.72,84.31 679.93,82.65C682.52,84.31 682.52,84.31 681.69,86.48ZM682.21,79.13C681.59,77.79 681.07,76.96 680.66,76.03C682.93,77.06 682.93,77.06 682.21,79.13ZM683.14,68.89C682.52,67.86 683.04,67.44 683.86,67.13C684.48,68.06 684.28,68.58 683.14,68.89ZM685.41,85.96C684.34,77.85 680.45,84.25 694.2,62.48C694.51,62.07 695.03,61.76 695.86,61.86C696.48,63.1 694.31,63 694.72,64.45C697.62,63.83 700.93,64.97 703.82,62.28C702.68,64.25 703.31,65.36 705.16,65.9C710.47,67.45 711.1,65.81 715.81,62.38C719.96,64.75 716.81,64.06 717.67,65.79C718.29,66.2 719.11,65.6 719.95,66.41C723.42,69.77 724.08,74.48 726.36,78.31C726.98,79.35 726.37,80.79 726.05,82.03C724.94,86.38 725.62,91.23 722.53,95.06C722.11,95.58 722.01,96.4 722.12,97.03C722.65,100.24 722.07,103.44 722.12,106.65C722.15,108.72 722.33,111.19 719.33,111.62C718.61,111.72 718.83,112.56 718.61,113.07C717.45,115.77 711.79,123.2 708.89,118.45C697.4,126.01 687.6,102.92 690.27,100.24C690.99,99.62 690.17,98.37 689.55,97.86C685.66,94.7 685.97,90.2 685.41,85.96ZM690.59,111.2C692.56,116.17 697.52,118.54 700.31,122.79C710.17,122.79 704.9,123.37 707.03,125.27C707.86,122.06 710.96,122.99 712.82,121.55C713.85,121.86 712.82,122.89 713.96,123.31C716.13,118.55 719.96,115.03 723.37,111C725.96,112.45 728.34,113.79 731.13,115.34C732.16,121.86 731.99,128.69 730.2,135.41C728.2,142.89 729.99,150.72 722.55,156.31C719.39,158.68 725.23,155.01 710.55,160.34C709.21,158.58 709.62,156.2 707.65,155.17C706.62,156.72 707.75,158.38 707.03,160.34C698.58,161.21 699.89,157.89 697,156.93C694.31,155.79 692.04,154.55 692.55,151.03C692.73,149.79 687.79,147.09 687.79,140.48C690.27,139.96 692.24,142.86 694.51,140.69C698.75,142.45 702.89,144.83 708.27,145.45C706.51,142.24 703.41,143.07 701.34,141.11C700.5,138.81 690.3,123.54 698.13,139.87C695.85,139.56 693.68,138.21 692.03,140.08C686.34,138.01 686.94,136.47 679.62,118.15C682.72,115.13 686.45,113.06 690.59,111.2ZM671.03,241.85C670,239.37 668.24,238.44 666.06,238.95C661.32,221.78 648.75,219.15 639.58,194.26C635.52,183.26 641.6,174.84 636.48,162.5C636.27,162.09 636.17,161.67 636.58,160.95C638.13,164.98 641.44,166.95 644.96,168.81C642.55,163.8 638.25,166.82 635.96,153.09C635.03,152.57 635.44,153.92 634.93,153.92C631.83,147.92 633.91,138.94 639.38,135.51C654.57,125.99 649.22,136.24 664.41,124.75C665.76,123.73 667.1,122.68 668.86,122.06C670.31,122.99 671.25,124.13 671.76,125.99C674.15,134.83 676.5,133.18 676,142.23C675.69,147.82 676.63,153.4 675.17,158.88C674.35,161.98 672.48,164.57 671.65,167.78C670.97,163.84 670.81,159.18 664.93,151.33C669.27,159.5 668.14,168.61 670.41,177.71C670.62,178.12 671.34,176.68 671.86,177.5C679.07,187.48 677.38,187.12 677.96,199.64C678.45,210.04 685.65,212.44 674.03,203.98C672.36,207.79 688.97,215.37 690.48,221.98C691.33,225.7 694.1,227.57 696.27,230.46C675.36,244.42 675.36,234.07 671.03,241.85ZM696.79,228.2C698.65,227.79 700.2,227.99 701.44,227.17C698.55,229.44 698.55,229.44 696.79,228.2ZM717.48,223.23C720.48,222.3 723.07,222.2 725.76,222.3C724.23,229.18 725.93,229.47 717.48,223.23ZM715.52,222.61C714.49,223.03 713.66,222.09 712.93,221.47C707.65,225.09 701.76,225.81 696.07,226.33C693.59,224.36 691.93,222.09 691.1,218.99C694.82,219.2 698.65,220.13 702.07,218.37C698.19,218.37 690.61,218.64 688.52,215.37C685.53,210.71 682.2,212.39 681.18,203.99C679.53,190.45 685.33,191.66 672.18,173.58C679.91,153.61 678.24,160.28 678.49,138.2C678.51,136.34 678.04,134.7 677.04,133.03C674.36,128.53 672.9,123.51 670.83,118.86C672.8,116.89 674.76,115.55 677.35,115.34C677.79,122.76 681.23,125.49 686.14,143.99C687.02,147.31 688.78,150.32 689.97,153.51C690.67,155.38 692.04,157.18 694.52,157.23C697.13,157.28 698.24,164.9 713.55,162.61C725.48,160.83 731.34,153.66 731.86,143.68C732.19,137.38 736.9,124.71 733.72,116.68C733.31,115.64 734.55,114.4 733.82,113.06C735.89,113.99 738.16,113.16 739.61,114.61C733.56,146.44 737.71,154.4 740.33,165.4C740.87,167.67 742.81,169.23 744.05,171.3C743.02,173.47 741.98,175.75 740.84,178.13C731.28,172.04 729.87,187.76 740.12,183.82C741.88,187.34 742.6,190.65 743.02,194.16C738.68,200.26 733.4,205.75 730.3,212.68C728.81,216.55 714.63,215.6 712.09,218.89C729.99,215.91 729.41,214.88 726.47,220.34C722.96,221.47 719.04,221.18 715.52,222.61ZM737.24,182.78C730.87,182.78 737.61,173.9 739.41,180.81C737.45,180.3 736.72,181.03 737.24,182.78ZM733.93,230.78C728.24,226.29 738.41,218.86 746.24,220.13C748.31,220.46 750.27,220.98 752.24,221.37C753.37,221.59 754.52,221.68 754.93,223.13C753.48,224.27 752.76,222.4 751.62,222.3C729.8,220.51 736.57,226.39 733.93,230.78ZM755.65,225.09C755.13,226.02 754.72,226.43 753.58,226.02C754,225.2 754.62,225.09 755.65,225.09ZM736.83,227.78C737.76,224.68 742.21,223.44 748.62,224.68C744.17,225.51 740.55,226.65 736.83,227.78ZM751.2,225.3C750.37,227.27 748.92,226.96 747.79,226.96C746.13,228.62 743.95,229.22 742,230.27C740.86,230.88 739.83,230.99 739.31,229.24C745.76,226.25 744.62,228.59 751.2,225.3ZM739.41,252.09C744.15,244.02 737.39,248.6 746.55,244.02C747.27,247.02 743.34,251.68 739.41,252.09ZM754.31,232.54C747.34,239.33 746.97,242.59 740.55,243.61C734.81,233.9 732.39,239.82 742,232.75C745.7,230.03 749.66,229.36 753.9,229.03C756.38,228.84 757.42,226.44 760.31,225.31C758.14,228.2 756.35,230.55 754.31,232.54ZM759.07,215.78C755.86,214.9 749.65,222.89 756.07,213.5C753.17,214.64 751.62,216.4 750.07,218.26C746.04,216.81 742,216.71 737.86,219.29C738.69,216.5 740.03,214.95 741.07,213.29C731.67,217.36 733.93,224.39 727.62,224.88C737.18,204.18 741.63,198.02 750.9,191.26C754.13,188.91 754.83,185.47 756.49,182.47C749,191.83 757.66,184.99 745.63,192.81C740.04,181.95 745.22,173.26 750.6,164.36C753.08,165.39 755.67,163.33 758.46,165.6C756.08,161.15 752.18,160.66 749.56,163.94C747.08,167.06 744.77,176.09 740.77,157.94C738.1,145.8 740.15,131.97 742.11,117.7C749.72,118.93 754.56,128.05 769.83,129.91C764.55,131.77 763.73,132.7 764.55,136.01C766.1,135.08 766.1,135.08 767.34,132.8C768.68,132.28 770.34,132.18 771.48,131.25C775.41,132.91 777.73,135.88 779.65,139.42C780.71,141.37 779.16,142.93 779.86,144.9C781.25,148.81 780.27,153.07 780.17,157.21C780.09,160.23 776.8,157.33 778.41,166.93C782.68,192.42 769.12,199.88 767.86,213.38C764.86,214.44 762.57,216.75 759.07,215.78Z" style="fill-rule:nonzero;"/>
        <path d="M296.36,399.19C305.15,424.64 305.67,449.98 296.05,475.33C297.25,470.32 295.02,450.45 295.02,468.71C295.02,496.45 291.21,500.76 291.61,517.02C289.23,514.85 286.85,514.43 284.58,513.81C277.46,511.87 273.05,510.59 270.3,515.88C268.96,518.47 269.47,521.16 270.2,523.64C267.82,527.88 267.41,540.81 269.37,541.85C270.4,541.95 270.2,540.3 271.23,540.51C273.51,542.89 276.59,543.15 279.4,542.17C286.3,539.74 288.99,545.59 289.54,541.45C288.51,539.69 286.44,540.21 284.99,539.28C286.44,538.14 288.82,540.11 289.75,537.42C288.72,535.14 286.23,535.66 284.47,535.04C283.52,532.19 289.12,531.51 271.23,533.7C270.61,531.32 270.61,529.25 271.23,527.18C272.78,527.18 274.02,527.39 275.06,528.42C274.13,529.45 272.27,529.04 271.75,531.32C276.72,533.49 281.68,530.91 287.27,531.53C285.72,528.32 289.03,529.15 289.75,527.5C290.27,526.78 288.51,525.84 289.85,524.71C291.82,524.81 293.99,524.71 295.95,523.78C290.39,507.09 297.46,497.86 298.12,483.64C299.17,460.96 312.24,450.15 301.22,406.78C300.46,403.75 298.84,401.36 296.36,399.19ZM287.25,525.39C286.01,526.11 284.97,525.91 283.84,525.7C283.53,524.87 284.56,524.25 283.63,523.01C280.32,521.98 276.7,522.39 273.08,523.63C271.01,518.35 271.42,516.7 275.67,513.8C293.98,518.72 286.82,513.52 287.25,525.39ZM289.94,520.32C290.97,518.56 291.8,519.91 292.63,520.42C291.7,521.15 290.77,521.46 289.94,520.32Z" style="fill-rule:nonzero;"/>
        <path d="M744.38,521.88L744.48,521.78C744.39,521.77 744.38,521.77 744.38,521.88Z" style="fill-rule:nonzero;"/>
        <path d="M745.62,396.19C745.94,403.6 746.8,399.14 749.03,412.02C752.6,432.6 755.6,438.49 745.41,473.16C745.62,468.61 745.31,464.06 744.48,459.61C743.65,465.4 744.38,471.2 743.65,476.99C743.55,477.51 744.79,476.99 744.79,477.3C742.82,489.82 740.76,501.71 740.65,513.92C734.96,511.23 729.27,509.89 723.27,509.47C715.03,514.14 720.28,518.47 717.58,524.16C715.92,527.66 716.83,531.78 717.89,538.64C718.57,540.69 718.98,537.81 720.17,537.81C724.66,543.58 729.14,536.87 735.89,539.98C736.82,540.41 737.65,540.7 738.48,539.46C738.17,536.46 734.65,538.12 733.51,536.46C735.17,535.63 737.44,537.39 738.89,535.12C737.75,532.64 735.17,533.26 733.1,532.33C733.93,531.3 733.41,530.26 733,529.12C734.03,528.91 734.86,528.81 736.21,528.5C735.18,525.91 738.28,526.43 738.9,525.09C739,523.95 737.66,523.12 739,521.88C740.73,522.79 742.56,521.82 744.39,521.79C744.44,521.01 745.08,520.5 744.59,519.4C739.7,510.16 746.27,491.62 746.66,485.47C747.95,465.21 756.94,445.31 754.73,430.13C750.97,404.41 750.43,402 745.62,396.19ZM726.07,530.67C719.71,531.03 719.33,533.29 720.07,524.77C721.83,524.67 723.17,524.77 724.1,526.01C723.27,526.94 721.62,526.53 720.89,528.6C723.99,531.5 728.03,528.39 731.54,529.74C729.69,530.46 727.83,530.57 726.07,530.67ZM736.1,522.91C735.07,523.43 734.03,523.32 732.89,523.12C735.15,518.35 724.87,520.14 722.03,521.46C721.1,518.15 720.09,515.38 722.75,512.77C723.59,511.95 724.52,511.29 725.75,511.63C740.87,515.77 737.03,510.9 736.1,522.91ZM738.89,517.84C739.92,516.81 740.75,517.12 741.99,517.84C740.65,518.77 739.83,518.67 738.89,517.84Z" style="fill-rule:nonzero;"/>
        <path d="M238.74,524.98C236.34,522.58 240.5,524.05 235.64,517.12C230.39,509.63 240.71,507.79 231.71,502.95C230.74,498.88 234.53,492.8 228.92,493.43C220.67,494.36 216.95,491.18 213.71,494.67C218.05,495.81 222.3,495.6 226.23,496.12C227.26,498.71 225.4,500.98 225.92,503.26C231.79,505.98 230.54,506.53 225.92,505.02C222.59,503.93 213.99,502.67 212.89,505.54C214.43,507.42 219.21,505.3 212.68,508.02C213.71,508.95 212.89,510.09 213.2,511.02C215.06,511.64 216.72,511.33 218.27,512.16C216.41,513.4 213.72,512.88 212.27,514.75C213.1,516.41 214.55,514.85 215.37,515.68C215.58,516.2 214.75,516.71 215.37,517.34C217.23,517.75 219.2,518.27 221.16,518.27C221.73,519.84 216.78,520.42 224.37,520.96C223.85,522.3 221.99,521.37 221.78,522.93C225.5,524.69 226.85,524.38 229.43,521.59C227.88,517.04 228.91,512.8 232.64,510.62C230.88,512.17 231.51,514.03 232.33,515.28C234.84,519.09 235.12,523.97 237.92,527.59C238.64,528.52 239.8,529.87 239.58,530.8C238.03,537.27 245.63,540.04 235.65,541.97C226.95,543.66 201.47,544.15 206.58,538.66C208.23,536.89 208.1,534.93 208.24,532.97C209.69,512.26 211.57,520.43 210.1,512.69C209.55,509.8 209.58,506.79 209.58,504C211.13,502.55 212.37,501.41 213.82,500.07C212.99,497.48 212.58,494.9 213.2,492.31C210.2,492.72 208.13,494.79 206.79,498.72C207.1,500.06 208.45,500.38 209.17,501.41C206.89,502.03 207.2,503.79 207.2,505.55C207.2,530.65 202.84,531.06 205.96,537.31C202.12,541.28 204.11,543.85 209.48,544.96C217.93,546.71 246.02,546.88 243.2,539.17C241.48,534.48 243.08,528.81 238.74,524.98ZM229.64,499.22C228.92,497.98 228.81,496.84 229.85,495.7C229.74,496.84 229.64,498.08 229.64,499.22ZM230.98,507.7C230.6,506.15 230.77,506.95 230.36,505.41C233.22,505.42 234.17,507.7 230.98,507.7Z" style="fill-rule:nonzero;"/>
        <path d="M746.86,531.08C745.09,525.4 748.92,521.6 744.38,521.98C744.89,528.62 742.87,526.35 744.07,532.22C745.35,538.51 742.2,540.68 744.28,545.25C746.52,550.19 745.83,555.49 745.52,560.66C733.31,562.52 721.52,563.97 709.83,562.63C707.65,558.67 711.49,558.88 711.49,549.39C712.21,549.7 712.52,550.84 713.56,550.94C715.94,549.28 714.91,546.7 715.01,544.53C715.12,542.15 718.01,540.39 716.35,537.7C714.06,538.56 715.13,542.63 713.25,543.91C711.29,545.24 710.97,547.21 711.49,549.37C710.5,549.13 709.63,549.73 709.52,550.63C709,555.18 705.38,559.32 707.97,564.18C714.07,567.08 744.69,565.32 748.83,561.9C747.9,549.83 748.38,547.88 746.66,544.73C744.2,540.22 748.61,536.69 746.86,531.08Z" style="fill-rule:nonzero;"/>
        <path d="M297.6,533.46C295.85,526.27 299.68,526.4 295.84,523.84C295.84,527.36 294.07,530.67 294.91,534.39C295.52,537.08 295.35,539.88 294.6,542.56C293.19,547.57 297.5,545.4 296.46,562.73C284.36,564.8 272.46,566.14 259.94,564.7C260.15,560.04 262.63,556.22 262.63,551.98C264.57,553.92 264.31,553.67 266.25,550.95C264.39,547.12 268.22,543.92 267.59,539.78C265.06,541.11 266.08,545 264.18,546.3C261.38,548.21 262.44,551.26 262.11,551.37C259.41,551.95 260.26,553.86 258.9,557.68C257.84,560.67 256.73,563.58 258.8,566.58C265.01,569.27 295.52,567.51 299.56,564.2C298.84,552.37 298.89,549.64 297.39,547.13C294.61,542.49 299.2,540.01 297.6,533.46Z" style="fill-rule:nonzero;"/>
        <path d="M679.31,269.16C681.17,271.13 682.93,272.26 685,273.09C682.93,278.57 680.14,283.54 678.9,289.12C682.52,284.98 684.18,279.71 686.87,275.05C689.66,277.53 689.66,277.53 691.53,275.88C690.5,274.64 688.63,274.12 688.12,272.36C689.15,268.53 692.15,265.12 690.81,260.67C685.06,266.63 688.99,275.5 682.74,269.26C683.36,263.26 684.29,257.36 685.64,251.36C683.98,251.46 683.48,252.29 683.36,253.02C680.89,268.99 682.16,267.89 680.57,268.95C679.02,269.47 677.88,267.5 676.54,268.85C676.54,272.16 676.54,275.47 676.44,279.3C679.1,276.09 678.28,272.57 679.31,269.16Z" style="fill-rule:nonzero;"/>
        <path d="M655.83,535.63C658.72,534.83 656.09,523.78 659.45,515.67C660.58,512.93 658.09,508.65 658.73,501.39C660.07,500.15 661.42,499.01 662.87,497.67C662.25,495.08 662.04,492.6 661.53,489.91C658.84,492.29 653.46,493.53 658.53,498.7C657.91,499.11 657.29,499.63 656.56,500.15C656.46,508.43 657.53,516.82 655.01,524.98C653.88,528.61 654.17,532.22 655.83,535.63Z" style="fill-rule:nonzero;"/>
        <path d="M211.33,353.99C216.62,353.99 236.56,345.47 245.36,329.89C248.35,324.59 259.32,315.99 263.05,313.34C277.96,302.76 271.32,301.56 270.7,303.41C270.57,305.93 267.01,308.37 261.08,313.03C230.49,337.03 252.14,332.76 211.33,353.99Z" style="fill-rule:nonzero;"/>
        <path d="M674.76,343.85C668.82,347.21 650.75,356.59 668.04,349.23C691.03,339.44 692.58,327.52 698.87,321.92C714.07,308.4 716,309.29 719.56,304.23C718.37,303.57 719.33,303.22 708.49,312.09C703.37,316.28 697.54,319.96 694.11,325.74C689.37,333.72 682.62,339.4 674.76,343.85Z" style="fill-rule:nonzero;"/>
        <path d="M257.05,322.85C259.07,325.55 251.64,326.66 299.77,287.06C295.01,287.06 261.48,317.24 257.05,322.85Z" style="fill-rule:nonzero;"/>
        <path d="M711.27,322.23C710.43,323.36 710.96,324.09 712.2,324.51C711.89,325.65 710.75,326.37 711.17,328.03C713.45,329.79 712.51,332.89 713.03,335.68C714.79,334.02 714.79,334.02 715.41,331.65C715.93,331.13 716.65,332.68 717.17,331.55C713.86,329.07 713.76,328.76 714.58,325.65C722.3,323.07 730.01,322.45 737.94,324.79C734.95,318.6 715.76,324 713.7,323.22C719.74,316.45 735.06,304.38 742.61,309.41C738.57,298.77 715.92,315.93 711.27,322.23Z" style="fill-rule:nonzero;"/>
        <path d="M293.15,311.37C293.15,308.19 287.48,307.95 283.43,309.3C271.98,313.1 256.48,327.97 263.47,326.58C268.98,319.58 285.47,306.94 293.15,311.37Z" style="fill-rule:nonzero;"/>
        <path d="M666.79,295.13C668.96,300.2 672.79,304.03 676.51,308.16C669.58,314.26 667.3,335.57 673.51,338.06C671.99,335.83 668.73,317.23 678.48,308.06C674.45,303.82 670.31,299.78 666.79,295.13Z" style="fill-rule:nonzero;"/>
        <path d="M212.67,260.78C211.98,267.01 211.97,261.52 211.12,260.68C209.78,260.99 209.48,261.81 209.98,262.96C210.84,264.91 211.12,267.91 213.39,268.03C215.05,268.12 215.36,269.58 216.18,269.89C219.08,269.17 220.01,269.99 220.94,273.41C228.89,270.23 227.46,271.7 227.46,281.17C229.94,278.27 229.94,274.86 229.53,270.83C227.15,271.45 224.67,271.45 223.22,270C221.46,268.24 218.88,269.28 217.74,267.62C216.91,266.69 217.95,265.55 217.43,265.24C216.09,264.72 216.09,266.07 215.15,265.65C215.46,263.47 215.26,261.51 212.67,260.78Z" style="fill-rule:nonzero;"/>
        <path d="M217.43,297.82C224.5,308.43 222.1,304.08 227.36,310.44C220.33,316.75 218.05,337.54 223.84,340.23C222.5,329.78 220.63,319.33 229.22,310.33C215.74,296.85 219.46,297.82 217.43,297.82Z" style="fill-rule:nonzero;"/>
        <path d="M724.1,463.02C728.33,461.61 723.37,422.74 723.27,421.12C723.27,419.88 723.37,418.43 721.72,417.29C720.94,424.02 723.91,426.81 722.96,428.98C720.2,435.33 725.82,441.81 724.2,452.15C723.67,455.57 724.1,459.29 724.1,463.02Z" style="fill-rule:nonzero;"/>
        <path d="M439.63,196.34C439.32,194.79 437.87,196.03 437.46,195C436.84,192.1 438.91,189.21 437.46,186.21C434.17,192.27 436.43,199.82 433.22,197.9C431.98,193.45 433.74,189.31 433.22,185.18C430.74,188.9 431.05,193.15 431.15,197.08C428.77,198.42 426.39,198.01 423.91,198.32C427.43,201.73 428.88,201.84 432.29,198.94C436.01,201.51 436.84,196.34 439.63,196.34Z" style="fill-rule:nonzero;"/>
        <path d="M672.9,366.81C680.97,351.19 692.45,338.67 705.9,327.6C691.52,337.85 679.1,349.74 672.9,366.81Z" style="fill-rule:nonzero;"/>
        <path d="M263.46,326.57L263.36,326.67C263.43,326.68 263.42,326.63 263.46,326.57Z" style="fill-rule:nonzero;"/>
        <path d="M287.88,326.57C282.16,321.61 257.81,325.25 262.33,330.81C264.09,332.98 263.78,335.26 263.36,337.64C266.88,338.67 265.02,334.85 266.88,333.92C267.09,333.82 267.6,334.95 268.33,334.23C268.09,333.29 264.52,332.41 264.92,329.47C265.41,325.76 280.66,324.9 287.88,326.57Z" style="fill-rule:nonzero;"/>
        <path d="M223.95,369.4C238.68,344.05 241.19,344.96 256.95,329.99C244.95,335.68 224.26,360.5 223.95,369.4Z" style="fill-rule:nonzero;"/>
        <path d="M737.96,324.81L738.06,324.81C737.95,324.79 737.91,324.77 737.96,324.81Z" style="fill-rule:nonzero;"/>
        <path d="M706.52,320.99C707.24,320.78 733,297.82 733.73,296.68C729.27,297.71 708.17,316.54 706.52,320.99Z" style="fill-rule:nonzero;"/>
        <path d="M660.79,258.4C660.77,258.4 660.75,258.4 660.72,258.41C660.83,258.44 660.92,258.46 660.79,258.4Z" style="fill-rule:nonzero;"/>
        <path d="M663.38,265.54C664.72,265.75 664.31,267.4 665.45,267.4C668.24,266.78 668.86,267.3 670.21,271.12C671.87,269.05 674.66,270.29 676.52,268.84C672.9,268.01 669.9,265.94 666.8,265.12C666.08,263.98 667.42,262.84 665.97,262.43C665.35,262.43 665.25,263.67 664.31,263.15C664.31,261.29 664.83,259.01 662.03,258.6C661.62,259.01 661.99,259.82 660.89,260.67C660.79,259.84 660.79,259.13 660.68,258.4C656.97,258.86 660.29,265.28 663.38,265.54Z" style="fill-rule:nonzero;"/>
        <path d="M254.26,240.2C227.7,239.91 231.79,238.47 225.81,238.86C243.4,243.57 294.1,240.63 254.26,240.2Z" style="fill-rule:nonzero;"/>
        <path d="M275.88,443.78C276.73,436.44 274.33,429.3 273.91,422.06C273.91,421.23 274.01,420.2 272.57,419.99C271.48,423.05 274.52,428.63 273.6,431.27C272.52,434.36 272.68,437.37 273.7,440.27C275.16,444.4 274.84,448.75 275.67,452.99C277.96,450.88 275.78,444.6 275.88,443.78Z" style="fill-rule:nonzero;"/>
        <path d="M732.89,406.64C734.86,404.98 734.86,404.98 732.89,397.85C735.17,396.09 735.17,393.2 736.82,391.13C739.41,388.23 738.99,384.82 735.58,381.82C736.38,386.09 737.42,388.92 735.27,390.41C733.07,391.93 732.79,394.96 730.72,396.62C729.18,397.84 732.89,400.74 732.89,406.64Z" style="fill-rule:nonzero;"/>
        <path d="M283.32,409.12C288.74,406.95 282.22,402.21 284.35,399.71C286.11,397.64 286.32,394.95 288.28,392.99C290.56,390.71 289.73,386.68 286.62,384.61C286.93,387.2 288.17,389.58 287.03,392.06C284.24,394.03 283.51,397.54 281.13,399.61C281.88,402.92 284.36,405.29 283.32,409.12Z" style="fill-rule:nonzero;"/>
        <path d="M246.91,248.99C260.77,249.3 274.53,248.47 287.77,244.13C274.22,246.61 260.57,248.06 246.91,248.99Z" style="fill-rule:nonzero;"/>
        <path d="M230.46,291.3C234.08,285.61 236.87,279.5 239.15,273.2C239.56,272.06 239.46,270.92 237.7,270.51C235.57,277.97 226.5,295.26 230.46,291.3Z" style="fill-rule:nonzero;"/>
        <path d="M279.39,228.09C267.5,232.9 264.28,234.11 243.8,236.16C269.63,237.3 293.27,222.48 279.39,228.09Z" style="fill-rule:nonzero;"/>
        <path d="M220.74,530.05C225.5,530.67 229.95,530.98 234.91,530.77C232.43,526.22 224.46,526.01 220.74,530.05Z" style="fill-rule:nonzero;"/>
        <path d="M683.86,528.08C681.79,523.94 675.07,523.53 670.21,527.36C674.66,527.88 679.1,528.91 683.86,528.08Z" style="fill-rule:nonzero;"/>
        <path d="M742.1,256.64C744.17,256.95 745.41,255.3 747.38,255.09C749.32,259.22 751.71,268.12 754.31,268.12C752.97,262.64 750.07,257.67 748.83,251.98C745.93,252.92 744.38,255.3 742.1,256.64Z" style="fill-rule:nonzero;"/>
        <path d="M298.22,257.47C300.39,261.61 301.12,266.57 304.63,270.19C303.8,264.71 300.91,259.85 299.56,253.95C286.32,263.34 296.16,257.69 298.22,257.47Z" style="fill-rule:nonzero;"/>
        <path d="M296.15,186.51C297.48,174.55 285.03,179.86 288.7,185.27C290.75,188.28 293.46,187.13 296.15,186.51ZM294.6,182.99C294.29,184.02 291.19,182.99 292.84,185.68C286.14,184.46 293.17,177.26 294.6,182.99Z" style="fill-rule:nonzero;"/>
        <path d="M257.15,222.3C255.91,214.65 260.36,207.3 257.98,199.65C256.74,200.37 255.9,201.62 256.43,203.17C258.35,208.82 252.68,217.08 257.15,222.3Z" style="fill-rule:nonzero;"/>
        <path d="M270.7,185.58C271.73,185.99 271.42,187.55 272.46,187.75C273.91,187.85 273.29,185.78 274.63,185.89C275.87,185.99 276.08,187.75 277.73,187.55C276.88,183.94 280.22,180.2 275.14,180.1C268.4,179.96 273.52,183.11 270.7,185.58ZM276.5,182.78C275.47,183.92 274.53,183.61 273.5,183.4C274.32,181.65 274.32,181.65 276.5,182.78Z" style="fill-rule:nonzero;"/>
        <path d="M287.88,303.61C292.95,299.58 299.05,297.82 304.84,293.89C297.6,294.4 287.88,299.99 287.88,303.61Z" style="fill-rule:nonzero;"/>
        <path d="M252.08,273.4C261.29,275.16 264.08,275.06 267.39,272.57C263.98,271.95 261.08,271.43 258.39,270.19C257.26,272.26 257.26,272.26 252.08,273.4Z" style="fill-rule:nonzero;"/>
        <path d="M717.69,390.81C723.76,404.66 718.66,403.46 724.52,407.46C722.55,400.43 721.31,393.7 717.69,387.5C716.24,388.85 717.28,389.88 717.69,390.81Z" style="fill-rule:nonzero;"/>
        <path d="M736.93,300.82C742.1,297.1 748.21,295.23 753.69,291.72C748.1,291.51 737.76,296.99 736.93,300.82Z" style="fill-rule:nonzero;"/>
        <path d="M287.36,183.2C287.23,177.81 279.08,178.37 279.08,183.41C279.08,188.56 287.48,188.39 287.36,183.2ZM280.84,183.09C280.84,180.08 285.39,180.24 285.39,183.3C285.15,186.43 280.84,186.09 280.84,183.09Z" style="fill-rule:nonzero;"/>
        <path d="M268.84,393.5C274.76,407.71 269.72,405.38 275.46,409.84C273.39,402.91 272.25,396.08 268.63,389.88C267.39,391.43 268.32,392.47 268.84,393.5Z" style="fill-rule:nonzero;"/>
        <path d="M666.28,412.33C668.87,414.19 671.87,415.43 674.35,417.71C677.35,415.95 680.25,414.3 682.32,411.5C679.01,411.6 677.46,414.5 674.77,415.95C668.14,411.09 668.14,411.09 666.28,412.33Z" style="fill-rule:nonzero;"/>
        <path d="M217.22,414.91C219.81,416.77 222.91,417.81 225.29,420.29C227.98,418.32 231.19,416.98 233.05,413.88C229.95,414.29 228.19,416.78 225.71,418.53C219.39,413.47 219.39,413.47 217.22,414.91Z" style="fill-rule:nonzero;"/>
        <path d="M266.15,275.06C265.74,280.34 264.49,285.2 261.49,289.44C267.6,285.51 269.88,278.68 266.15,275.06Z" style="fill-rule:nonzero;"/>
        <path d="M288.91,286.02C294.81,281.47 300.7,276.92 305.98,271.54C305.77,271.23 305.46,270.92 305.15,270.71C286.58,286.88 288.26,285.37 288.91,286.02Z" style="fill-rule:nonzero;"/>
        <path d="M271.53,198.72C278.67,200.27 285.81,199.65 292.84,198.1C285.7,197.58 278.67,199.03 271.53,198.72Z" style="fill-rule:nonzero;"/>
        <path d="M728.45,549.81C724.93,547.53 721.11,548.05 717.28,548.67C720.9,550.22 724.62,551.15 728.45,549.81Z" style="fill-rule:nonzero;"/>
        <path d="M249.7,305.26C246.91,299.36 247.32,292.95 246.08,286.74C244.74,293.99 246.39,302.26 249.7,305.26Z" style="fill-rule:nonzero;"/>
        <path d="M665.24,385.85C667.21,389.68 668.86,393.09 670.41,396.5C671.14,390.81 669.07,386.47 665.24,385.85Z" style="fill-rule:nonzero;"/>
        <path d="M216.91,388.33C217.84,392.05 219.6,395.47 221.57,398.78C222.29,394.12 220.33,389.57 216.91,388.33Z" style="fill-rule:nonzero;"/>
        <path d="M238.84,402.5C235.63,400.74 235.63,395.98 231.81,394.74C231.6,399.29 234.6,402.6 238.84,402.5Z" style="fill-rule:nonzero;"/>
        <path d="M688.1,399.92C684.69,398.37 684.79,393.61 680.45,392.27C682.31,397.74 684.38,401.57 688.1,399.92Z" style="fill-rule:nonzero;"/>
        <path d="M695.24,284.37C694.41,294.61 695.65,300.3 699.07,303.09C696.28,296.88 696.28,290.57 695.24,284.37Z" style="fill-rule:nonzero;"/>
        <path d="M294.29,231.4C288.7,233.68 283.01,235.85 277.43,238.02C282.48,237.25 295.32,233.47 294.29,231.4Z" style="fill-rule:nonzero;"/>
        <path d="M279.39,552.81C277.84,550.43 274.22,549.91 268.22,551.15C271.74,553.01 275.36,553.12 279.39,552.81Z" style="fill-rule:nonzero;"/>
        <path d="M377.77,155.68C374.77,158.47 374.05,162.3 375.49,165.71C376.53,162.51 378.29,159.82 377.77,155.68Z" style="fill-rule:nonzero;"/>
        <path d="M697.31,251.58C700.93,254.58 703.72,251.17 706.83,250.65C703.52,249.3 700.52,251.27 697.31,251.58Z" style="fill-rule:nonzero;"/>
        <path d="M285.5,368.57C287.47,371.98 289.74,375.19 291.4,378.91C291.6,373.95 289.22,370.02 285.5,368.57Z" style="fill-rule:nonzero;"/>
        <path d="M358.42,165.41C350.2,164.09 349.71,163.28 347.77,164.79C351.29,166.85 356.05,167.27 358.42,165.41Z" style="fill-rule:nonzero;"/>
        <path d="M302.05,329.78C304.95,326.47 307.12,322.75 308.57,318.61C305.36,321.71 303.7,325.75 302.05,329.78Z" style="fill-rule:nonzero;"/>
        <path d="M217.43,242.27C221.26,244.55 225.4,244.13 229.53,243.61C225.5,242.99 221.46,243.09 217.43,242.27Z" style="fill-rule:nonzero;"/>
        <path d="M751.1,327.81C754.2,324.09 756.17,320.26 758.34,316.33C755.96,316.85 752.14,323.06 751.1,327.81Z" style="fill-rule:nonzero;"/>
        <path d="M734.86,366.71C737.55,369.61 738.69,373.23 740.45,376.95C741.27,372.71 738.89,368.26 734.86,366.71Z" style="fill-rule:nonzero;"/>
        <path d="M665.24,450.19C665.14,446.16 664.21,442.12 664.83,437.98C661.93,442.22 664.1,446.16 665.24,450.19Z" style="fill-rule:nonzero;"/>
        <path d="M290.88,268.13C291.91,267.41 290.67,266.47 291.29,265.85C292.22,266.26 292.12,267.82 293.67,267.82C293.05,265.34 291.6,263.37 290.57,260.99C288.81,263.68 289.01,265.95 290.88,268.13Z" style="fill-rule:nonzero;"/>
        <path d="M276.29,465.4C276.29,460.95 277.43,456.92 275.57,452.99C274.74,455.47 275.05,463.43 276.29,465.4Z" style="fill-rule:nonzero;"/>
        <path d="M295.84,456.09C297.02,456.09 296.67,457.89 296.67,445.12C294.81,448.74 295.32,452.36 295.84,456.09Z" style="fill-rule:nonzero;"/>
        <path d="M273.6,256.54C269.26,258.61 265.43,261.4 261.5,264.19C266.05,262.54 270.39,260.37 273.6,256.54Z" style="fill-rule:nonzero;"/>
        <path d="M669.28,527.57C666.18,527.26 663.49,527.98 661,526.85C662.76,530.26 665.24,530.46 669.28,527.57Z" style="fill-rule:nonzero;"/>
        <path d="M713.76,247.44C716.76,247.23 717.69,246.3 721.1,239.99C717.79,241.64 716.86,245.58 713.76,247.44Z" style="fill-rule:nonzero;"/>
        <path d="M220.43,530.26C217.33,529.43 214.43,530.78 211.95,528.81C212.88,532.53 215.26,532.95 220.43,530.26Z" style="fill-rule:nonzero;"/>
        <path d="M663.9,428.78C665.87,421.85 665.87,420.19 664,418.33C664.31,421.95 662.97,425.36 663.9,428.78Z" style="fill-rule:nonzero;"/>
        <path d="M215.98,452.67C216.08,448.64 214.74,444.6 215.67,440.46C212.88,444.71 215.15,448.64 215.98,452.67Z" style="fill-rule:nonzero;"/>
        <path d="M745.1,453.6C746.2,453.6 745.93,455.22 745.93,442.84C744.17,446.36 744.07,449.98 745.1,453.6Z" style="fill-rule:nonzero;"/>
        <path d="M296.98,434.16C295.64,436.75 293.98,439.23 296.36,442.02C296.36,439.43 298.22,436.84 296.98,434.16Z" style="fill-rule:nonzero;"/>
        <path d="M250.12,275.68C249.29,279.82 248.78,283.96 251.78,287.58C250.64,283.64 250.22,279.71 250.12,275.68Z" style="fill-rule:nonzero;"/>
        <path d="M275.46,211.85C271.01,211.64 266.67,212.06 262.32,212.16C266.67,213.09 271.01,212.37 275.46,211.85Z" style="fill-rule:nonzero;"/>
        <path d="M251.36,197.47C248.77,199.44 245.46,199.85 242.67,202.12C247.74,201.61 250.53,200.16 251.36,197.47Z" style="fill-rule:nonzero;"/>
        <path d="M278.15,366.19C277.11,365.84 277.75,364.59 274.12,374.05C276.19,371.67 278.67,369.5 278.15,366.19Z" style="fill-rule:nonzero;"/>
        <path d="M215.36,420.81C215.05,424.22 213.91,427.53 214.95,430.84C215.46,427.53 216.91,424.22 215.36,420.81Z" style="fill-rule:nonzero;"/>
        <path d="M746.34,431.67C743.86,435.29 743.65,437.05 745.72,439.64C746.42,434.72 747.36,433.33 746.34,431.67Z" style="fill-rule:nonzero;"/>
        <path d="M254.36,232.75C254.36,233.68 254.67,234.51 255.91,234.51C256.67,231.36 254.36,220.75 254.36,232.75Z" style="fill-rule:nonzero;"/>
        <path d="M723.27,371.57C727.3,367.33 727.72,366.29 726.58,362.98C725.34,366.19 724.31,368.88 723.27,371.57Z" style="fill-rule:nonzero;"/>
        <path d="M267.7,546.7C270.08,546.29 272.67,547.01 274.84,545.46C272.15,544.22 269.88,545.05 267.7,546.7Z" style="fill-rule:nonzero;"/>
        <path d="M262.95,183.51C260.88,182.79 259.02,181.54 255.81,182.48C258.5,184.34 260.67,184.34 262.95,183.51Z" style="fill-rule:nonzero;"/>
        <path d="M285.6,368.47C283.63,366.5 284.26,363.4 282.39,361.33C281.98,365.78 282.81,367.43 285.6,368.47Z" style="fill-rule:nonzero;"/>
        <path d="M271.63,380.16C269.35,382.23 269.04,384.61 268.63,386.99C270.19,385.12 271.63,383.26 271.63,380.16Z" style="fill-rule:nonzero;"/>
        <path d="M734.45,366.09C732.79,363.61 733.31,360.92 731.24,358.23C731.14,362.88 731.55,364.02 734.45,366.09Z" style="fill-rule:nonzero;"/>
        <path d="M226.33,407.05C228.3,408.19 230.16,409.02 232.43,407.46C230.36,405.6 228.29,407.26 226.33,407.05Z" style="fill-rule:nonzero;"/>
        <path d="M664.93,277.54C669.03,286.09 668.03,285.56 669.17,284.99C667.73,281.98 666.72,276.64 664.93,277.54Z" style="fill-rule:nonzero;"/>
        <path d="M216.08,279.82C217.53,282.41 217.84,285.41 219.8,287.58C218.88,284.88 218.57,281.88 216.08,279.82Z" style="fill-rule:nonzero;"/>
        <path d="M230.15,419.26C228.29,419.98 227.15,421.54 225.29,422.05C228.5,422.88 229.12,422.47 230.15,419.26Z" style="fill-rule:nonzero;"/>
        <path d="M720.69,378.3C718.62,379.85 717.9,382.02 718,384.51C719.55,382.74 720.58,380.67 720.69,378.3Z" style="fill-rule:nonzero;"/>
        <path d="M716.76,544.22C719.14,543.91 721.52,544.32 723.79,542.98C721.21,541.94 718.93,542.67 716.76,544.22Z" style="fill-rule:nonzero;"/>
        <path d="M281.15,269.78C278.18,268.16 278.06,272.78 281.15,273.81L281.15,269.78Z" style="fill-rule:nonzero;"/>
        <path d="M280.01,233.27L280.11,233.27C280.19,233.23 280.24,233.22 280.01,233.27Z" style="fill-rule:nonzero;"/>
        <path d="M289.43,229.75C286.24,230.57 283.07,231.6 280.18,233.24C283.44,232.62 286.68,231.89 289.43,229.75Z" style="fill-rule:nonzero;"/>
        <path d="M318.39,146.89C316.42,145.86 314.36,145.65 312.18,145.55C314.87,147.51 316.01,147.72 318.39,146.89Z" style="fill-rule:nonzero;"/>
        <path d="M433.73,179.89C434.5,184.11 437.51,183.35 435.8,178.86C435.18,179.06 434.25,178.65 433.73,179.89Z" style="fill-rule:nonzero;"/>
        <path d="M674.86,404.47C677.24,406.23 679.1,406.23 681.89,405.09C679.31,403.74 677.45,404.36 674.86,404.47Z" style="fill-rule:nonzero;"/>
        <path d="M427.22,178.13C425.67,180.2 426.29,181.54 427.94,183.51C428.46,181.34 428.97,179.89 427.22,178.13Z" style="fill-rule:nonzero;"/>
        <path d="M301.01,134.27C303.49,135.1 305.67,135.82 307.84,136.55C304.74,133.96 303.5,133.54 301.01,134.27Z" style="fill-rule:nonzero;"/>
        <path d="M297.08,425.88C295.63,427.64 295.32,429.29 296.25,431.16C296.98,429.6 298.01,427.95 297.08,425.88Z" style="fill-rule:nonzero;"/>
        <path d="M363.8,166.03C365.56,166.55 367.11,166.65 369.39,166.24C366.29,164.47 366.29,164.47 363.8,166.03Z" style="fill-rule:nonzero;"/>
        <path d="M679.1,417.19C677.65,418.02 676.1,418.85 674.65,419.78C677.24,420.71 678.59,419.57 679.1,417.19Z" style="fill-rule:nonzero;"/>
        <path d="M284.25,266.99C283.32,268.85 283.32,268.85 284.56,271.23C285.5,269.16 285.5,269.16 284.25,266.99Z" style="fill-rule:nonzero;"/>
        <path d="M754.2,268.13C753.17,269.47 750.89,270.1 750.58,272.68C752.55,271.96 753.48,270.61 754.61,269.47C755.14,268.95 754.62,268.54 754.2,268.13Z" style="fill-rule:nonzero;"/>
        <path d="M278.15,485.05C277.22,486.71 278.15,488.36 278.15,490.02C279.6,488.26 278.15,486.71 278.15,485.05Z" style="fill-rule:nonzero;"/>
        <path d="M258.19,173.27C259.85,174.41 261.19,174.82 262.74,174.1C261.39,173.47 260.26,172.54 258.19,173.27Z" style="fill-rule:nonzero;"/>
        <path d="M248.88,182.16C252.91,182.57 252.91,182.57 254.36,180.92C252.6,180.92 250.95,180.72 248.88,182.16Z" style="fill-rule:nonzero;"/>
        <path d="M727.31,487.74C728.34,485.98 727.83,484.43 726.9,482.15C726.27,484.64 727,486.08 727.31,487.74Z" style="fill-rule:nonzero;"/>
        <path d="M745.52,428.67C745.93,427.12 747.18,425.67 746.14,423.39C745,425.36 744.27,426.91 745.52,428.67Z" style="fill-rule:nonzero;"/>
        <path d="M210.4,285.4C210.61,287.06 211.33,288.5 212.78,289.43C212.15,287.88 212.05,286.13 210.4,285.4Z" style="fill-rule:nonzero;"/>
        <path d="M218.88,197.27C219.91,198.2 220.95,199.13 222.71,199.03C221.67,197.27 220.33,197.16 218.88,197.27Z" style="fill-rule:nonzero;"/>
        <path d="M296.05,422.36C296.26,420.7 296.36,419.67 295.43,418.02C294.7,419.78 294.5,420.81 296.05,422.36Z" style="fill-rule:nonzero;"/>
        <path d="M341.05,142.54C340.84,140.68 339.19,140.37 338.05,139.44C339.29,141.92 339.29,141.92 341.05,142.54Z" style="fill-rule:nonzero;"/>
        <path d="M691.72,259.33C692.44,258.61 692.86,257.78 692.65,256.43C690.17,257.06 690.17,257.26 691.72,259.33Z" style="fill-rule:nonzero;"/>
        <path d="M294.08,411.29C293.36,412.63 293.25,413.67 294.7,414.6C295.12,413.36 295.32,412.33 294.08,411.29Z" style="fill-rule:nonzero;"/>
        <path d="M231.39,272.06C232.63,272.78 233.77,273.92 235.94,273.72C234.5,272.37 232.95,272.16 231.39,272.06Z" style="fill-rule:nonzero;"/>
        <path d="M256.84,175.34C257.25,174.2 257.36,173.37 256.01,172.75C256.01,173.68 255.6,174.51 256.84,175.34Z" style="fill-rule:nonzero;"/>
        <path d="M757.83,291.4C756.49,291.09 755.55,291.5 754.52,293.16C756.07,292.64 757.1,292.44 757.83,291.4Z" style="fill-rule:nonzero;"/>
        <path d="M659.55,282.61C659.86,284.58 659.86,284.58 661.31,285.82C661.1,284.47 660.9,283.33 659.55,282.61Z" style="fill-rule:nonzero;"/>
        <path d="M279.5,477.29C279.19,479.05 278.98,480.08 278.78,481.12C280.12,480.29 280.01,479.15 279.5,477.29Z" style="fill-rule:nonzero;"/>
        <path d="M744.89,419.78C745.3,418.23 745.41,417.19 744.68,415.95C743.45,417.5 743.76,418.43 744.89,419.78Z" style="fill-rule:nonzero;"/>
        <path d="M701.76,256.95C703,257.36 703.83,257.16 704.86,255.92C703.52,255.82 702.48,255.51 701.76,256.95Z" style="fill-rule:nonzero;"/>
        <path d="M239.26,248.78C239.26,248.64 239.66,248.68 236.57,248.68C236.6,248.68 235.97,248.78 239.26,248.78Z" style="fill-rule:nonzero;"/>
        <path d="M728.96,477.71C729.29,476.04 727.77,475.57 728.13,478.85C728.86,478.53 728.96,478.12 728.96,477.71Z" style="fill-rule:nonzero;"/>
        <path d="M743.76,412.12C744.28,410.88 744.28,409.95 743.35,409.02C742.2,410.26 742.52,411.09 743.76,412.12Z" style="fill-rule:nonzero;"/>
        <path d="M671.35,399.09C671.04,399.92 670.63,400.75 671.66,401.78C672.48,400.54 672.07,399.81 671.35,399.09Z" style="fill-rule:nonzero;"/>
        <path d="M418.32,181.44C418.84,180.41 419.04,179.58 418.01,179.06C417.53,178.58 416.27,180.32 418.32,181.44Z" style="fill-rule:nonzero;"/>
        <path d="M305.87,295.33C309.11,295.01 309.15,292.71 306.59,293.99C306.19,294.3 305.46,294.4 305.87,295.33Z" style="fill-rule:nonzero;"/>
        <path d="M402.49,154.85C401.66,153.71 400.94,152.99 399.59,153.82C400.22,155.06 401.15,155.16 402.49,154.85Z" style="fill-rule:nonzero;"/>
        <path d="M689.76,251.99C690.79,252.71 691.42,252.51 692.24,251.68C691.31,250.95 690.59,250.75 689.76,251.99Z" style="fill-rule:nonzero;"/>
        <path d="M336.29,146.89C336.5,146.99 336.7,147.1 337.12,147.3C337.33,146.68 338.57,146.78 337.84,145.44C336.91,145.54 336.39,145.96 336.29,146.89Z" style="fill-rule:nonzero;"/>
        <path d="M250.12,213.61C251.05,214.02 251.57,214.23 252.19,213.61C251.67,212.78 251.05,212.68 250.12,213.61Z" style="fill-rule:nonzero;"/>
        <path d="M359.87,164.89C360.08,165.72 360.59,165.92 361.53,165.41C361.01,164.47 360.49,164.37 359.87,164.89Z" style="fill-rule:nonzero;"/>
        <path d="M289.53,229.85C290.46,229.85 291.39,229.54 292.22,228.71C290.98,228.61 290.15,229.02 289.53,229.85Z" style="fill-rule:nonzero;"/>
        <path d="M696.48,261.3C695.65,262.33 695.55,262.85 696.69,263.27C697.31,262.75 697.31,262.13 696.48,261.3Z" style="fill-rule:nonzero;"/>
        <path d="M740.65,325.43C739.82,324.81 738.99,324.71 738.06,324.81C739,324.71 739.52,325.75 740.65,325.43Z" style="fill-rule:nonzero;"/>
        <path d="M222.5,401.57C221.88,402.5 221.47,403.12 222.4,404.05C223.22,403.12 222.91,402.5 222.5,401.57Z" style="fill-rule:nonzero;"/>
        <path d="M391.73,171.72C391.21,171.2 390.7,171.31 390.07,171.72C390.7,172.44 391.11,173.27 391.73,171.72Z" style="fill-rule:nonzero;"/>
        <path d="M261.54,195.93C261.5,195.78 258.81,193.02 258.71,192.92C258.95,194.85 260.18,196.1 261.21,196.35C263.64,198.42 264.24,196.73 261.54,195.93Z" style="fill-rule:nonzero;"/>
        <path d="M719.76,375.3C718.73,375.51 718.21,375.71 718.1,376.75C719.24,376.85 719.55,376.33 719.76,375.3Z" style="fill-rule:nonzero;"/>
        <path d="M286.74,267.51C287.37,265.62 284.69,265.28 285.5,266.89C285.81,267.2 286.01,267.92 286.74,267.51Z" style="fill-rule:nonzero;"/>
        <path d="M270.7,377.78C269.46,377.78 268.94,378.09 269.15,379.23C270.08,379.23 270.5,378.81 270.7,377.78Z" style="fill-rule:nonzero;"/>
        <path d="M257.15,169.44C257.84,168.05 255.53,168.27 256.32,169.34C256.53,169.65 256.95,169.85 257.15,169.44Z" style="fill-rule:nonzero;"/>
        <path d="M272.26,271.33C272.16,270.81 271.95,270.5 271.23,270.81C271.43,271.13 271.53,271.95 272.26,271.33Z" style="fill-rule:nonzero;"/>
        <path d="M388.22,171.72C388.63,171.31 388.42,170.19 387.08,171C387.18,171.61 387.39,172.13 388.22,171.72Z" style="fill-rule:nonzero;"/>
        <path d="M286.32,217.75C286.3,217.75 286.26,217.76 286.24,217.77C286.29,217.8 286.32,217.81 286.32,217.75Z" style="fill-rule:nonzero;"/>
        <path d="M285.81,217.85C285.98,217.85 286.13,217.79 286.24,217.77C286.12,217.7 285.88,217.48 285.81,217.85Z" style="fill-rule:nonzero;"/>
        <path d="M217.64,221.99L218.05,221.99C218.05,221.89 217.64,221.47 217.64,221.99Z" style="fill-rule:nonzero;"/>
        <path d="M282.6,264.2C282.7,264.61 281.88,264.82 282.39,265.65C283.94,265.13 284.02,264.2 282.6,264.2Z" style="fill-rule:nonzero;"/>
        <path d="M273.7,256.54C274.58,256.54 275.25,256.16 275.59,255.26C274.84,255.48 274.18,255.87 273.7,256.54Z" style="fill-rule:nonzero;"/>
        <path d="M275.6,255.26C275.82,255.19 275.8,255.22 275.67,255.09C275.65,255.15 275.62,255.2 275.6,255.26Z" style="fill-rule:nonzero;"/>
        <path d="M277.32,234.09C277.55,233.86 277.75,233.84 277.22,233.99L277.32,234.09Z" style="fill-rule:nonzero;"/>
        <path d="M280.01,233.27C279.16,233.36 278.32,233.29 277.56,233.9C278.38,233.64 279.2,233.45 280.01,233.27Z" style="fill-rule:nonzero;"/>
        <path d="M275.67,233.99C275.67,234.71 275.47,234.34 277.22,233.99C276.81,234.09 276.19,234.09 275.67,233.99Z" style="fill-rule:nonzero;"/>
        <path d="M272.46,234.92L271.84,234.92C272.15,234.92 272.36,235.23 272.46,234.92Z" style="fill-rule:nonzero;"/>
        <path d="M688.72,240.61C689.44,240.71 689.65,240.3 689.96,239.58C689.03,239.78 688.62,239.99 688.72,240.61Z" style="fill-rule:nonzero;"/>
        <path d="M229.53,254.68C234.01,264.38 237.71,264.3 229.94,254.37C228.71,251.48 227.38,252.89 229.53,254.68Z" style="fill-rule:nonzero;"/>
        <path d="M277.01,254.26C276.49,254.47 275.98,254.57 275.77,255.19C276.29,255.2 277.01,255.3 277.01,254.26Z" style="fill-rule:nonzero;"/>
        <path d="M185.15,132.2C193.84,127.34 202.94,128.58 212.25,130.96C207.47,125.58 181.63,127.67 185.15,132.2Z" style="fill-rule:nonzero;"/>
        <path d="M136.54,164.27C134.06,166.13 127.96,175.36 133.33,175.96C132.47,169.97 140.58,166.64 136.54,164.27Z" style="fill-rule:nonzero;"/>
        <path d="M146.05,154.23C150.19,154.85 152.88,151.23 156.6,150.51C152.47,150.2 149.47,152.79 146.05,154.23Z" style="fill-rule:nonzero;"/>
        <path d="M157.74,150.61C160.64,150.61 162.81,150.51 164.57,148.64C162.09,148.13 160.12,148.75 157.74,150.61Z" style="fill-rule:nonzero;"/>
        <path d="M135.4,158.58C136.64,160.03 135.61,161.89 136.64,163.65C139.52,161.92 138.63,157.68 135.4,158.58Z" style="fill-rule:nonzero;"/>
        <path d="M194.26,144.51C191.88,144.92 189.81,145.13 187.64,146.58C191.15,146.48 192.09,146.27 194.26,144.51Z" style="fill-rule:nonzero;"/>
        <path d="M203.67,143.37C205.84,143.47 207.29,142.85 208.53,142.13C206.98,141.92 205.43,141.3 203.67,143.37Z" style="fill-rule:nonzero;"/>
        <path d="M211.33,142.34C212.47,142.13 213.61,141.82 215.26,141.51C213.29,140.37 212.15,140.68 211.33,142.34Z" style="fill-rule:nonzero;"/>
        <path d="M213.6,130.65C214.63,131.37 215.36,131.27 216.08,130.24C214.74,129.72 214.74,129.72 213.6,130.65Z" style="fill-rule:nonzero;"/>
        <path d="M106.02,169.23C107.16,169.64 107.88,168.92 108.92,167.89C107.26,167.47 106.54,168.1 106.02,169.23Z" style="fill-rule:nonzero;"/>
        <path d="M179.47,137.17C181.13,136.65 182.16,136.24 182.26,134.69C180.91,134.89 180.29,135.72 179.47,137.17Z" style="fill-rule:nonzero;"/>
        <path d="M216.6,141.41C217.12,142.03 217.63,141.93 218.36,141.2C217.43,140.48 216.91,140.68 216.6,141.41Z" style="fill-rule:nonzero;"/>
        <path d="M257.98,142.13C257.61,143.24 261.97,148.22 262.74,127.34C261.93,126.93 262.05,125.49 257.98,142.13Z" style="fill-rule:nonzero;"/>
        <path d="M244.43,128.58C243.91,131.79 248.05,137.06 251.57,137.79C251.05,135.3 248.05,131.48 244.43,128.58Z" style="fill-rule:nonzero;"/>
        <path d="M243.81,124.86C243.29,121.14 243.29,117.21 240.4,114.41C240.19,118.34 241.64,121.75 243.81,124.86Z" style="fill-rule:nonzero;"/>
        <path d="M264.6,142.34C265.59,143.82 264.3,143.71 272.15,138.93C271.43,137.84 272.36,137.75 264.6,142.34Z" style="fill-rule:nonzero;"/>
        <path d="M264.7,124.13C266.15,122.68 266.46,120.92 266.67,118.54C264.81,120.3 264.7,122.17 264.7,124.13Z" style="fill-rule:nonzero;"/>
        <path d="M264.29,103.03C259.33,104.41 253.95,102.72 248.77,104.69C250.22,107.59 252.6,106.66 253.94,106.35C257.97,105.73 262.22,106.45 266.04,104.9C265.84,103.44 265.02,102.83 264.29,103.03Z" style="fill-rule:nonzero;"/>
        <path d="M273.5,77.17C273.29,76.34 272.78,76.03 272.26,76.24C260.02,77.72 257.61,77.93 258.71,84.21C262.22,78.72 268.74,79.75 273.5,77.17Z" style="fill-rule:nonzero;"/>
        <path d="M253.01,79.65C249.39,76.75 241.63,76.65 238.84,79.24C243.7,80.37 248.36,80.06 253.01,79.65Z" style="fill-rule:nonzero;"/>
        <path d="M241.53,82.86C244.63,85.03 249.7,84.93 253.01,82.55C248.57,81.31 245.05,82.03 241.53,82.86Z" style="fill-rule:nonzero;"/>
        <path d="M271.53,80.68C268.32,80.78 265.12,80.37 261.5,82.23C265.53,84.92 268.53,82.64 271.74,82.13C271.74,81.62 271.63,81.2 271.53,80.68Z" style="fill-rule:nonzero;"/>
        <path d="M253.01,99.1C256.01,98.16 260.18,101.81 262.11,96C258.7,95.48 255.8,99.31 252.9,96.1C252.29,97.34 251.98,98.06 253.01,99.1Z" style="fill-rule:nonzero;"/>
        <path d="M253.22,110.27C257.77,111.82 260.25,111.41 262.01,108.93C259.01,108.3 256.12,107.17 253.22,110.27Z" style="fill-rule:nonzero;"/>
        <path d="M271.22,96.2C271.94,95.58 272.46,95.06 271.53,94.13C270.6,94.86 270.7,95.48 271.22,96.2Z" style="fill-rule:nonzero;"/>
        <path d="M61.95,193.85C62.57,191.88 63.5,190.33 65.67,189.19C61.54,188.68 60.71,189.82 61.95,193.85Z" style="fill-rule:nonzero;"/>
        <path d="M709.62,190.65C709.21,189.1 710.65,187.75 709.41,186.51C707.13,187.85 708.27,190.54 706.93,192.1C710.96,196.44 716.24,196.44 721.31,197.17C721.31,196.22 723.75,197.52 709.62,190.65Z" style="fill-rule:nonzero;"/>
        <path d="M716.24,178.03C716.34,180.41 715.93,182.89 716.96,185.06C718.93,185.16 717.79,182.89 718.93,182.78C720.48,182.99 720.48,185.16 722.55,184.75C722.34,183.41 721.62,182.27 722.45,180.82C724.25,177.64 718.73,176.49 716.24,178.03ZM721.1,179.99C720.17,181.13 719.24,181.13 717.79,180.3C719.03,178.44 719.96,178.75 721.1,179.99Z" style="fill-rule:nonzero;"/>
        <path d="M727.83,184.44C733.07,184.44 733.4,176.35 727.83,176.47C722.15,176.6 722.54,184.44 727.83,184.44ZM727.83,178.34C730.89,178.1 730.87,182.89 727.83,182.89C724.93,182.89 724.57,178.34 727.83,178.34Z" style="fill-rule:nonzero;"/>
        <path d="M710.34,176.37C710.21,174.04 712.38,163.99 707.96,165.09C709.83,178.49 708.86,176.37 710.34,176.37Z" style="fill-rule:nonzero;"/>
        <path d="M694.31,221.99C699.59,223.96 704.65,222.51 709.62,221.16C704.45,221.06 699.48,222.92 694.31,221.99Z" style="fill-rule:nonzero;"/>
        <path d="M733,196.13C729.9,196.13 727.21,195.2 723.9,194.68C725.65,198.09 728.86,198.51 733,196.13Z" style="fill-rule:nonzero;"/>
        <path d="M686.34,202.85C689.24,202.44 692.55,204.19 695.65,201.19C691.83,200.37 689.03,201.2 686.34,202.85Z" style="fill-rule:nonzero;"/>
        <path d="M709.52,186.61C710.97,183.61 710.86,180.71 709.52,176.99C707.76,180.82 709.52,183.72 709.52,186.61Z" style="fill-rule:nonzero;"/>
        <path d="M693.38,198.61L684.9,198.61C684.59,197.99 684.18,197.47 683.56,198.3C683.66,198.92 684.18,198.82 684.59,198.92C687.69,201.4 690.48,198.51 693.38,198.61Z" style="fill-rule:nonzero;"/>
        <path d="M729.69,208.23C727.72,208.54 725.76,209.06 723.28,210.51C726.27,210.4 728.24,210.09 729.69,208.23Z" style="fill-rule:nonzero;"/>
        <path d="M714.27,170.99C716.65,170.68 718.2,169.85 719.75,168.82C718.1,169.23 716.03,168.41 714.27,170.99Z" style="fill-rule:nonzero;"/>
        <path d="M704.76,171.72C703.21,170.69 701.97,170.38 700.62,171.41C701.86,171.92 703.1,172.44 704.76,171.72Z" style="fill-rule:nonzero;"/>
        <path d="M740.03,195.09C738.58,194.37 737.55,194.37 735.89,195.09C737.55,196.34 738.69,196.13 740.03,195.09Z" style="fill-rule:nonzero;"/>
        <path d="M699.48,197.58C700.2,198.3 700.82,198.1 701.55,196.34C700.41,196.96 699.48,196.34 699.48,197.58Z" style="fill-rule:nonzero;"/>
        <path d="M707.03,194.06C706,194.06 705.79,194.68 705.48,195.72C706.72,195.51 707.24,195.09 707.03,194.06Z" style="fill-rule:nonzero;"/>
        <path d="M732.17,167.68C732.17,166.96 731.65,166.85 730.83,167.47C731.45,167.89 732.17,167.89 732.17,167.68Z" style="fill-rule:nonzero;"/>
        <path d="M673.52,214.02C669.07,214.43 664.73,209.99 659.66,213.09C659.04,212.57 658.83,211.54 657.49,211.23C656.87,213.61 657.81,215.62 659.77,215.26C661.75,214.9 663.6,215.56 665.46,215.47C674.85,215.01 677.77,224.15 682.84,224.57C678.38,222.2 677.34,217.13 673.52,214.02Z" style="fill-rule:nonzero;"/>
        <path d="M670.93,222.51C654.53,202.66 670.62,231.5 676.12,236.58C674.02,234.17 676.09,232.51 671.86,226.86C666.77,220.04 669.89,223.8 670.93,222.51Z" style="fill-rule:nonzero;"/>
        <path d="M677.24,237.51C676.89,237.26 676.51,236.94 676.12,236.58C676.42,236.92 676.78,237.24 677.24,237.51Z" style="fill-rule:nonzero;"/>
        <path d="M658.72,194.16C659.34,193.64 659.65,192.82 658.72,191.88C656.65,193.33 655.1,194.98 655.1,197.88C655.37,201.12 651.96,205.2 654.69,211.64C659.35,210.28 653.38,199.51 658.72,194.16Z" style="fill-rule:nonzero;"/>
        <path d="M670.83,138.82C670.93,140.68 669.07,142.44 671.45,143.89C673.31,142.44 673.62,140.58 673.11,138.2C667.69,136.46 665.08,129.81 660.7,134.79C665.45,133.13 667.72,137.06 670.83,138.82Z" style="fill-rule:nonzero;"/>
        <path d="M665.14,171.2C662.86,171.92 661.83,172.96 660.48,175.65C664.52,174.92 665.55,173.89 665.14,171.2Z" style="fill-rule:nonzero;"/>
        <path d="M670.21,203.06C667.73,200.89 665.45,199.75 661.93,199.54C666.28,202.96 666.9,203.27 670.21,203.06Z" style="fill-rule:nonzero;"/>
        <path d="M650.86,152.89C650.76,150.61 652.72,148.44 651.27,145.44C650.04,148.34 648.9,150.51 650.86,152.89Z" style="fill-rule:nonzero;"/>
        <path d="M651.38,144.3C651.28,142.13 653.45,140.89 653.55,138.82C650.97,139.65 650.55,140.58 651.38,144.3Z" style="fill-rule:nonzero;"/>
        <path d="M669.9,152.89C671.56,151.13 670.83,149.17 670.62,147.41C669.48,150.61 669.48,150.61 669.9,152.89Z" style="fill-rule:nonzero;"/>
        <path d="M656.97,175.85C655.31,175.85 655,176.99 654.28,178.54C656.04,177.92 656.97,177.41 656.97,175.85Z" style="fill-rule:nonzero;"/>
        <path d="M683.86,225.92C683.76,226.75 684.07,226.95 684.79,226.85C684.69,226.33 684.38,226.02 683.86,225.92Z" style="fill-rule:nonzero;"/>
        <path d="M751.83,126.1C747.74,128.62 743.42,131.07 742.42,135.93C741.78,139.03 743.04,142.24 746.04,143.48C741.8,139.45 746.45,135.93 746.04,131.89C750.69,129.56 754.79,128.57 751.83,126.1Z" style="fill-rule:nonzero;"/>
        <path d="M766.31,188.47C766.83,189.5 767.45,189.81 768.28,190.02C768.77,190.34 765.53,193.68 766.83,196.64C769.78,194.91 770.32,192.68 768.76,189.96C770.59,184.48 776.96,189.46 776.96,184.33C773.03,185.16 768.89,184.65 766.31,188.47Z" style="fill-rule:nonzero;"/>
        <path d="M749.86,205.75C746.18,208.4 739.91,208.68 741.07,213.3C745.52,212.58 746.65,208.03 749.86,205.75Z" style="fill-rule:nonzero;"/>
        <path d="M754.83,141.2C754.27,145.37 751.42,151.29 754.52,151.85C756.59,148.13 754.52,143.16 757.62,139.54C756.07,139.54 755.03,140.27 754.83,141.2Z" style="fill-rule:nonzero;"/>
        <path d="M749.03,162.3C748.41,159.51 748.62,157.02 749.86,153.82C745.83,156.92 745.62,160.65 749.03,162.3Z" style="fill-rule:nonzero;"/>
        <path d="M759.07,180.3C759.59,180.3 759.41,180.8 762.9,176.27C759.48,177.51 759.17,177.92 759.07,180.3Z" style="fill-rule:nonzero;"/>
        <path d="M760.72,164.16C761.34,165.4 762.17,165.92 763.62,165.82C762.89,164.37 762.17,163.75 760.72,164.16Z" style="fill-rule:nonzero;"/>
        <path d="M761.14,158.48C762.9,158.17 763.31,157.14 763.73,155.27C762.17,156.2 761.34,156.92 761.14,158.48Z" style="fill-rule:nonzero;"/>
        <path d="M755.45,203.27C756.28,203.17 757,203.17 756.59,202.13C755.86,202.03 755.45,202.13 755.45,203.27Z" style="fill-rule:nonzero;"/>
        <path d="M761.45,201.4C762.28,201.81 762.69,201.61 762.48,200.57C761.76,200.37 761.55,200.78 761.45,201.4Z" style="fill-rule:nonzero;"/>
        <path d="M751.41,204.92C752.13,205.23 752.34,204.82 752.44,203.89C751.51,203.99 751.1,204.2 751.41,204.92Z" style="fill-rule:nonzero;"/>
        <path d="M757.2,212.58C757.82,212.48 758.23,212.17 758.13,211.24C756.89,211.23 756.69,211.65 757.2,212.58Z" style="fill-rule:nonzero;"/>
        <path d="M712.31,83.99C713.17,82.56 720.16,82.16 722.45,79.75C717.59,79.34 712.93,79.96 708.38,81.92C707.86,83.58 706.93,85.13 707.55,87.09C709.41,86.17 709.72,83.37 712.31,83.99Z" style="fill-rule:nonzero;"/>
        <path d="M707.86,106.75C705.07,106.38 702.37,107.43 699.69,107.16C698.86,107.08 698.14,107.47 698.35,109.13C703.94,110.37 709.32,108.41 714.9,108.2C713.66,104.28 712.38,107.35 707.86,106.75Z" style="fill-rule:nonzero;"/>
        <path d="M702.79,82.75C698.65,79.96 690.58,79.85 688,82.44C692.97,83.06 697.62,83.79 702.79,82.75Z" style="fill-rule:nonzero;"/>
        <path d="M690.59,86.27C694.31,87.3 698.04,88.55 701.56,85.96C697.83,83.99 694.31,85.34 690.59,86.27Z" style="fill-rule:nonzero;"/>
        <path d="M701.76,99.82C701.04,100.54 701.24,101.16 701.86,102.1C704.96,101.38 709,104.48 710.96,99.62C709.1,97.55 707.75,99.83 706.51,100.34C704.65,100.96 703.31,99.2 701.76,99.82Z" style="fill-rule:nonzero;"/>
        <path d="M712.21,84.1C712.11,84.62 711.18,84.82 711.59,86.07C714.9,88.04 717.9,85.66 721,84.73C718.1,83.17 715.1,84.51 712.21,84.1Z" style="fill-rule:nonzero;"/>
        <path d="M702.28,113.06C705.9,115.03 709,114.72 711.38,111.92C708.07,111.51 705.07,110.48 702.28,113.06Z" style="fill-rule:nonzero;"/>
        <path d="M720.17,99.41C721.41,98.89 721.31,98.17 720.79,97.34C719.65,97.75 719.55,98.48 720.17,99.41Z" style="fill-rule:nonzero;"/>
        <path d="M707.65,89.68C708.47,89.52 708.39,88.65 707.86,88.65C707.34,88.86 707.24,89.27 707.65,89.68Z" style="fill-rule:nonzero;"/>
        <path d="M718.41,141.41C712.2,142.75 709.62,144.82 710.96,147.41C718.1,144.51 723.48,138.82 730.2,135.41C726.07,134.79 720.69,137.48 718.41,141.41Z" style="fill-rule:nonzero;"/>
        <path d="M690.48,113.48C688.82,115.34 689.45,118.76 692.34,124.34C692.76,120.2 692.34,116.79 690.48,113.48Z" style="fill-rule:nonzero;"/>
        <path d="M711.9,133.44C710.45,135.72 709.93,137.89 709.52,140.37C712.1,139.03 712.41,138.2 711.9,133.44Z" style="fill-rule:nonzero;"/>
        <path d="M695.03,130.96C694.93,129.3 694.51,128.27 693.37,127.75C693.38,128.99 693.79,129.92 695.03,130.96Z" style="fill-rule:nonzero;"/>
        <path d="M708.38,149.79C710.04,148.76 709.93,147.82 708.38,146.69C707.76,147.82 707.76,148.75 708.38,149.79Z" style="fill-rule:nonzero;"/>
        <path d="M707.14,153.51C708.28,152.79 708.9,152.27 707.97,150.82C707.24,151.65 706.41,152.16 707.14,153.51Z" style="fill-rule:nonzero;"/>
    </g>
</svg>
