<?xml version="1.0" encoding="UTF-8" standalone="no"?>
<!DOCTYPE svg PUBLIC "-//W3C//DTD SVG 1.1//EN" "http://www.w3.org/Graphics/SVG/1.1/DTD/svg11.dtd">
<svg width="100%" height="100%" viewBox="0 0 900 600" version="1.1" xmlns="http://www.w3.org/2000/svg" xmlns:xlink="http://www.w3.org/1999/xlink" xml:space="preserve" xmlns:serif="http://www.serif.com/" style="fill-rule:evenodd;clip-rule:evenodd;stroke-linejoin:round;stroke-miterlimit:2;">
    <g>
        <path d="M710.31,295.13C707.75,290.92 703.64,288.97 699.33,288.05C697.17,281.38 695.84,275.22 696.76,268.55C696.77,268.45 698.91,227.79 696.97,223.28C692.1,211.97 697.46,209.12 691.43,199.77C688,194.46 689.03,188.31 690.92,182.32C698.58,158.01 688.12,149.45 691.23,139.1C691.93,136.05 689.95,129.62 689.38,118.98C688.58,103.89 673.79,104.83 654.27,89.52C649.26,85.59 644.62,81.21 638.36,79.05C637.68,73.57 639.39,73.7 640.52,69.81C647.13,47.02 649.11,55.7 648.53,48.56C648.2,44.54 650.59,41.75 646.07,40.25C653.1,34.54 647.5,38.85 650.59,27.93C650.97,26.6 649.39,24.75 649.56,21.98C649.67,20.24 649.66,17.16 646.38,16.85C646.69,15.52 648.84,15 648.13,13.26C646.49,11.72 645.26,14.18 643.72,13.67C644.13,12.34 646.18,12.13 645.57,10.18C644.13,9.46 642.39,10.28 640.85,9.87C639.62,8.12 638.9,6.38 639.52,3.71C634.18,5.87 628.95,6.48 623.61,4.22C623.2,2.78 623.92,0.63 621.66,0.01C620.22,0.52 620.33,2.06 619.09,2.68C618.37,2.06 618.17,0.63 616.52,0.52C615.8,1.65 613.95,0.93 612.93,1.85C612.11,3.18 613.24,4.21 612.93,5.34C609.28,7.35 604.68,6.42 603.38,7.7C590.1,20.79 593.51,27.71 594.45,36.14C590.34,42.2 589.93,50.61 597.43,55.75C596.82,63.45 604.53,72.28 585.73,82.23C570.38,90.35 572.7,94.74 560.17,97.53C540.8,101.83 539.61,127.28 538.1,131.41C518.19,185.82 529.92,173.91 528.86,196.49C527.83,196.7 527.42,197.31 527.22,198.44C525,210.94 520.75,215.77 521.47,229.34C521.93,238 524.52,265.37 524.34,273.17C524.31,274.4 524.03,275.84 525.47,276.66C528.47,274.95 524.7,254.65 525.26,245.97C525.37,244.33 525.38,242.68 525.16,241.04C521.28,212.51 527.28,211.96 528.96,199.47C529.88,198.75 530.5,200.6 531.32,199.16C531.42,197 530.5,194.64 531.01,192.08C533.15,193.54 539.83,196.11 535.73,192.8C531.5,189.39 528.72,189.03 528.65,174.22C528.55,153.23 537.2,151.98 543.43,118.99C545.15,109.88 550.82,101.98 560.78,99.59C571.1,97.11 573.1,93.33 582.54,86.25C583.37,85.42 583.98,87.15 583.36,89.02C582.85,89.53 581.82,88.92 581.72,89.84C582.03,100.52 581.41,111.19 576.9,121.35C573.82,120.32 570.33,120.94 567.97,117.96C567.05,118.88 565.71,118.06 563.86,119.5C568.99,119.5 571.87,122.89 576.59,123.81C571.15,135.31 567.15,147.01 560.88,157.79C559.75,157.69 559.24,156.46 558.11,157.38C559.34,160.97 558.21,164.16 556.06,167.34C552.16,158.1 549.9,148.66 546.62,139.32C545.18,140.55 545.61,141.47 545.8,142.4C552.18,173.77 562.67,177.06 555.04,185C553.26,186.85 553.05,196.48 547.24,201.32C545.86,202.7 544.95,215.34 545.08,216.1C548.12,232.86 542.18,252.62 541.9,257.57C541.59,262.91 541.88,268.55 540.15,273.69C536.87,283.43 546.16,284.17 550.31,292.17C549.18,292.48 548.67,293.5 547.85,294.63C539.14,286.09 524.95,275.19 514.18,280.98C508.56,284 503.92,287.76 501.66,294.32C490.25,327.33 515.14,339.29 523.53,337.95C529.29,337.03 529.04,342.83 537.49,337.33C547.11,331.08 548.34,321.69 551.04,314.34C551.79,316.59 537.32,376.64 537.28,376.75C537.1,377.43 536.74,378.3 538.27,379.17C538.17,379.27 548.66,382.59 554.22,382.91C553.6,392.46 553.65,402.02 550.01,411.14C544.96,423.82 546.77,445.9 548.26,455.28C553.01,485.2 550.16,495.72 553.8,514.31C556.06,514 557.09,511.73 559.24,512.15C562.84,512.85 566.74,512.55 570.12,514.61C571.46,515.43 573.3,515.84 575.25,513.79C560.84,509.42 568.94,511.52 566.36,503.46C563.57,505.01 564.68,507.85 564.27,510.5C562.52,510.19 560.57,511.12 558.93,509.37C559.14,507.32 559.85,505.16 559.03,502.7C556.67,505.27 558.41,509.17 555.23,511.22C552.77,494.17 552.19,470.55 552.36,468C553.45,451.51 543.85,431.19 553.08,409.9C558.22,398.05 555.91,385.87 556.98,382.49C564.06,384.65 571.25,383.82 578.43,384.13C579.05,384.85 577.71,385.88 578.74,386.59C579.66,385.67 579.87,384.54 581.1,384.02C583.56,383.92 586.23,383.61 589,384.12C585.58,397.8 583.66,399.1 584.69,407.53C585.75,416.19 588.87,430.06 580.99,453.31C580.37,455.15 579.66,457.31 577.4,458.24C577.69,458.72 567.72,514.5 575.45,511.93C577.14,507.98 573.56,508.4 574.53,499.82C578.29,466.44 579,463.59 581,459.27C595.24,428.46 582.7,414.46 588.7,394.08C593.18,378.86 590.76,386 597.73,384.23C602.72,382.96 602.42,386.81 614.15,385.67C617.44,387.78 616.7,390.15 620,400.25C621.25,404.06 614.89,442.85 614.87,442.95C611.9,459.27 619.07,460.67 618.46,467.38C620.51,468.2 621.23,471.08 623.8,470.66C614.94,451.71 613.83,458.24 622.16,413.28C623.11,408.15 623.53,403 621.85,397.98C620.54,394.07 621.23,389.77 618.87,385.56C632.09,387.28 640.2,382.73 644.64,384.64C653.32,388.38 654.93,381.07 652.13,392.54C650.26,400.19 647.97,414.41 652.75,420.67C652.65,417.59 651.62,415.33 652.54,412.25C660.71,464 646.46,464.56 645.97,516.55C645.97,516.86 645.76,517.17 645.66,517.47C644.53,517.47 643.5,517.98 642.79,517.47C642.17,514.8 642.28,512.23 641.04,509.77C637.29,514.62 645.97,519.09 631.7,516.44C631.49,514.08 631.39,511.82 630.26,509.46C629.23,511.92 629.95,514.08 629.64,516.24C628.61,516.96 627.69,517.57 626.36,518.4C626.77,510.19 628.41,502.49 627.28,494.48C623.36,466.67 619.19,462.54 624.41,491.09C626.74,503.82 624.38,516.96 624.31,517.06C621.64,520.88 622.65,526.27 620.41,530.3C619.49,530.51 618.27,530.62 617.54,531.74C602.53,554.6 616.91,552.33 619.7,560.28C617.65,562.74 616.31,565.72 615.49,569.01C607.28,567.16 599.07,566.55 590.85,565.42C590.34,564.7 590.84,563.58 590.13,562.85C587.02,559.69 584.07,556.39 583.97,551.56C583.96,551.14 578.89,546.12 579.97,536.88C580.14,535.41 580.24,529.4 579.05,528.15C577.71,526.76 578.02,526.63 578.02,513.47C574.22,516.34 576.27,519.94 575.35,522.71C574.63,522.71 574.53,522.2 574.32,521.79C569.35,512 554.07,512.36 552.97,516.45C550.03,527.36 537.57,531.94 541.47,540.78C544.06,536.07 537.66,539.82 552.35,524.25C554.29,522.19 555.33,519.94 554.81,517.17C559.22,514.3 563.41,516.21 567.54,517.38C572.85,518.87 571.52,524.42 575.03,526.93C580.68,530.95 575.37,540.05 578.73,546.33C581.37,551.27 582.12,556.9 584.07,561.21C588.07,562.34 588.48,565.11 588.79,568.29C592.15,566.22 590.65,567.68 603.06,568.7C624.68,570.49 619.86,578.64 629.96,576.09C634.38,574.97 638.67,575.01 642.89,576.3C644.63,576.83 646.79,575.99 648.13,577.63C650.8,576.81 652.75,575.27 654.8,573.42C666.61,574.96 678.62,574.65 691.04,575.78C687.64,579 670.06,592.14 686.73,581.53C688.99,580.09 690.53,577.63 693.81,577.22C692.08,584.39 701.66,582.93 680.57,594.98C679.75,592.11 680.67,589.64 680.16,587.38C678.6,585.48 638.15,585.62 628.53,584.2C563.79,574.63 527.12,577.74 506.78,570.96C513.35,568.39 518.59,565.01 523.62,561.82C531.52,562.74 539.22,563.77 546.92,563.87C548.97,570.76 548.12,575.57 579.15,573.72C582.44,573.52 585.82,572.28 587.67,568.79C582.02,571.36 576.08,572.33 570.12,571.46C564.07,570.58 557.8,571.87 551.85,569.41C553.66,561.15 543.23,551.71 545.79,537.48C551.33,536.25 556.66,535.26 562.32,537.27C580.15,543.62 560.48,559.84 578.03,565.6C575.46,563.34 574.33,560.47 571.67,558.82C574.75,553.48 573.81,541.6 566.85,536.85C565.2,535.73 563.26,535.82 561.51,535C554.44,531.68 543.83,534.26 543.65,536.85C542.81,548.84 538.81,536.22 547.96,561.38C545.64,564.48 526.26,557.72 519.52,562.61C511.43,568.48 506.83,568.06 504.84,571.54C505.76,575.54 504.84,579.55 506.07,583.96C523.11,584.17 539.74,588.07 557.19,588.27C555.34,588.89 553.8,588.17 552.37,589.09C558.12,588.78 563.76,590.13 569.41,590.22C671.23,591.75 679.87,597.24 680.44,597.93C680.42,597.76 680.57,597.28 681.92,596.38C686.96,593 692.7,590.22 696.7,585.19C696.49,581.91 695.06,578.62 695.98,574.92C682.94,572.87 670.01,573.59 657.28,571.84C659.23,566.09 658.1,562.91 652.46,558.91C653.22,553.13 651.64,543.76 647.43,535.81C645.88,532.88 649.08,529.89 648.56,518.77C647.62,498.5 652.87,487.14 653.49,475.86C654.48,457.73 662.83,447.44 658.21,419.3C656.24,407.29 658.31,396 661.49,384.6C664.57,383.68 668.16,384.19 670.63,382.14C672.9,374.82 667.52,368.37 667.24,342.21C676.82,348.93 681.64,347.87 692.6,348.47C702.26,349 705.66,343.55 711.08,335.43C718.58,324.17 719.64,310.44 710.31,295.13ZM541.65,330.24C538.93,334.68 533.42,336.69 528.92,338.35C526.18,334.78 520.88,340.12 506.64,327.37C504.93,325.84 498.18,313.32 502.94,299.65C506.68,288.94 508.27,287.59 515.98,283.64C518.43,282.38 520.19,284.77 522.34,284.56C522.55,283.74 521.52,283.84 521.42,283.12C532.25,281.11 540.18,291.36 545.44,296.36C546.76,297.61 545.53,298.93 546.06,300.26C550.31,311.07 547.36,320.93 541.65,330.24ZM676.95,594.47C662.53,590.09 547.67,585.77 532.72,583.49C505.49,579.33 506.75,584.8 507.16,572.81C509.29,572.43 529.03,576.45 552.64,578.05C634.11,583.54 595.02,582.91 653.96,586.57C687.19,588.63 676.02,583.84 678.8,593.86C678.18,594.57 677.67,594.69 676.95,594.47ZM649.13,551.05C646.6,556 649.62,559.53 651.7,563.47C652.91,565.77 655.5,563.48 655.5,567.78C653.34,569.73 651.09,571.58 648.93,573.53C642.58,574.13 638.66,571.09 632.09,573.02C628.6,574.05 625.11,574.05 621.41,572.51C613.15,562.6 628.87,563.44 618.33,553.93C615.4,551.29 610.21,545.81 612.68,542.74C615.48,539.27 616.89,534.84 620.89,532.17C625.49,529.11 622.64,524.6 626.74,519.95C628.9,519.74 630.74,519.95 632.39,520.98C633.31,525.09 638.55,532.68 641.53,533.91C640.09,527.96 634.04,524.36 634.24,518.1C637.73,518.31 641.43,519.74 645.53,518.61C645.84,524.15 644.81,529.39 643.99,534.93C647.57,536.61 649.9,549.54 649.13,551.05ZM652.52,91.88C655.59,95.57 671.72,101.98 681.57,108.92C688.38,113.72 686.85,133.12 690.3,157.27C693.6,180.41 680.68,187.45 689.17,200.69C693.51,207.46 690.68,212.37 694.92,224.4C696.07,227.66 694.36,268.61 693.89,271.83C691.61,287.44 704.51,288.74 684.34,283.43C675.75,265.3 682.59,275.64 676.33,264.23C674.69,261.25 674.85,257.58 673.35,254.68C665.71,239.93 665.38,236.33 664.83,229.02C663.24,207.85 664.42,206.73 663.8,205.2C660.74,197.57 662.98,189.49 661.85,181.69C659.9,168.32 666.32,151.11 665.75,141.24C662.47,148.32 662.88,156.54 659.69,163.82C650.66,157.8 648.42,146.18 646.76,130.25C649.12,127.17 653.02,125.12 654.66,121.22C652.81,122.86 649.73,122.66 648.6,125.33C642.83,123.17 648.42,103.77 649.63,90.74C651.39,90.34 652.01,91.26 652.52,91.88ZM659.3,241.75C659.06,238.81 659.48,215.19 661.35,212.9C664.26,219.89 658.31,230.15 671.72,258.27C683.22,282.4 678.85,280.05 682.19,284.14C678.8,284.35 676.13,286.04 673.05,286.19C672.05,286.24 671.94,286.17 663.3,295.22C662.03,255.9 663.74,258.35 660.53,254.88C656.51,250.56 659.66,246.28 659.3,241.75ZM659.6,198.02C660.32,198.74 660.73,199.25 660.32,200.18C659.09,199.87 659.4,199.05 659.6,198.02ZM661.04,204.9C661.66,206.54 661.55,208.18 660.94,209.93C660.22,208.28 660.84,206.64 661.04,204.9ZM649.24,28.54C647.7,27.41 647.49,26.28 647.19,24.74C648.41,25.77 648.93,26.69 649.24,28.54ZM646.98,35.52C648.21,36.14 647.49,36.55 647.39,37.06C646.36,36.44 646.87,36.03 646.98,35.52ZM646.36,28.23C645.23,28.23 645.85,27 645.33,26.59C646.16,26.9 646.57,27.51 646.36,28.23ZM641.23,22.28C642.26,22.69 642.26,23.31 641.95,24.13C641.33,23.71 641.02,23.2 641.23,22.28ZM641.64,42.91C642.05,41.88 642.77,41.47 643.8,41.37C644.52,42.29 642.88,43.01 643.9,44.24C644.93,44.55 645.13,42.91 646.47,43.11C645.96,45.78 647.5,48.76 645.96,50.91C644.52,53.17 643.5,55.73 641.75,57.79C641.65,57.89 641.03,57.28 640.42,57.58C641.34,62.51 638.67,66.72 637.34,71.34C638.78,66.21 636.31,61.07 637.55,55.84C643.9,54.05 645.47,45.1 641.64,42.91ZM637.43,28.85C638.87,29.36 638.25,30.7 638.66,31.52C637.84,30.8 637.22,29.97 637.43,28.85ZM637.94,43.73C637.63,45.89 637.63,45.89 634.96,45.99C635.99,45.48 636.92,44.86 637.94,43.73ZM634.97,45.89C634.87,47.22 633.64,47.94 633.12,50C629.89,41.11 632.82,46.08 634.97,45.89ZM631.99,60.98C631.48,60.67 631.17,60.36 631.37,59.75C632.71,59.64 631.99,60.57 631.99,60.98ZM633.94,19.3C635.49,19.49 634.86,21.8 633.73,20.12C633.53,19.91 633.53,19.61 633.94,19.3ZM633.94,28.23C636.49,32.06 634.97,32.07 632.61,33.57C633.02,31.62 633.43,30.08 633.94,28.23ZM632.19,15.6C632.19,16.32 631.68,16.63 631.06,16.63C630.76,15.5 631.17,15.3 632.19,15.6ZM628.4,49.48C627.58,48.66 627.68,47.84 628.19,46.61C630.04,48.25 630.04,48.25 628.4,49.48ZM626.86,56.87C627.07,55.74 627.27,54.61 627.58,52.76C628.81,54.92 627.68,55.84 626.86,56.87ZM627.47,11.5C628.56,11.5 629.35,12.73 627.68,13.66C626.65,13.04 626.45,12.32 627.47,11.5ZM623.06,25.05C623.47,27.31 626.24,28.33 624.29,30.8C621.87,28.68 620.88,28.75 623.06,25.05ZM621.93,66.52C622.75,67.75 622.75,68.68 621.31,69.39C620.49,68.37 619.88,67.34 621.93,66.52ZM619.77,49.48C620.37,48.88 621.06,49.72 620.39,50.4C619.88,50.3 619.57,50.1 619.77,49.48ZM619.36,71.96C618.54,71.24 618.64,70.73 618.85,70.11C619.67,70.73 619.26,71.14 619.36,71.96ZM618.34,11.6C618.87,12.4 620.07,15.48 617.11,14.37C617.31,13.35 617.52,12.42 618.34,11.6ZM617,66.01C618.13,66.63 619.16,67.04 618.23,68.47C616.59,68.47 616.8,67.44 617,66.01ZM615.67,12.11C616.49,12.73 615.57,13.24 615.67,13.86C615.05,12.93 615.05,12.93 615.67,12.11ZM615.36,54.61C615.07,55.18 614.38,54.93 614.85,53.99C615.26,54 615.56,54.3 615.36,54.61ZM614.74,31.62C615.54,33.22 614.02,33.25 614.02,32.85C613.92,32.23 614.23,31.82 614.74,31.62ZM612.9,11.19C613.82,12.01 613.52,12.52 612.8,13.04C611.97,12.52 612.38,11.91 612.9,11.19ZM612.38,26.59C611.87,28.75 611.56,30.08 611.25,31.41C609.82,29.15 609.82,29.15 612.38,26.59ZM610.53,67.34C610.02,66.93 610.32,66.52 610.53,66.11C610.84,66.52 610.74,66.93 610.53,67.34ZM611.36,11.29C611.05,12.32 610.64,12.73 609.72,12.42C609.92,11.7 610.33,11.39 611.36,11.29ZM607.97,68.26C609.1,67.95 609.53,68.77 609.61,69.59C609.74,70.92 608.69,70.72 608.07,70.92C608.69,70.01 607.66,69.19 607.97,68.26ZM607.35,10.78C607.35,11.12 608.12,10.73 607.45,11.4C606.99,10.93 607.24,10.78 607.35,10.78ZM607.04,47.63C604.88,48.59 603.31,47.66 606.22,45.47C607.35,45.78 607.04,46.71 607.04,47.63ZM605.61,32.03C606.43,34.7 606.02,37.16 604.28,39.32C604.89,36.96 604.17,34.29 605.61,32.03ZM594.52,38.91C594.31,43.84 594.62,48.66 597.5,52.97C593.49,50.92 592.06,43.83 594.52,38.91ZM598.11,23.3C598.32,19.81 601.19,19.5 602.83,18.06C601.81,20.02 599.96,21.25 598.11,23.3ZM601.71,52.15C600.48,50.1 599.04,48.97 599.76,47.02C601.6,48.04 601.5,49.68 601.71,52.15ZM591.24,80.99C597.3,79.55 598.32,74.11 600.27,69.08C601.4,68.67 602.53,68.26 603.97,67.64C605.34,75.88 607.7,71.11 607.97,70.92C609.69,75.23 611.81,67.57 612.49,66.4C615.98,68.04 614.85,73.48 619.78,74.2C623.37,72.56 624.4,67.63 628.71,65.68C630.87,66.5 633.02,64.45 635.59,64.96C634.87,69.99 635.28,75.23 636.72,80.46C640.01,83.09 644.6,82.9 642.98,86.93C637.1,101.57 630.02,114.44 614.24,114.44C613.21,113 614.14,111.16 612.7,109.92C611.47,111.36 612.49,113 611.98,114.33C609.43,116.25 598.94,112.08 595.56,104.68C591.61,96.1 590.94,81.89 591.24,80.99ZM543.6,261.36C547.34,235.47 550.52,242.63 547.71,210.96C547.08,203.9 555.12,197.59 558.9,184.78C559.21,184.06 559.31,183.34 560.13,182.73C561.96,186.82 566,240.93 563.21,254.9C563.01,255.89 559.09,260.95 556.95,265.17C555.39,268.24 555.62,271.74 555.1,275.95C551.51,271.54 547.4,270.61 542.58,272.77C544.02,268.85 543.07,265.05 543.6,261.36ZM550.38,294.1C550.9,293.08 551.41,295.33 551.92,294.2C552.64,289.99 550.17,287.13 547.3,285.17C544.01,282.92 542.99,279.83 541.86,276.03C546.38,274.7 550.48,275.82 554.69,277.57C553.66,284.86 552.74,292.04 551.71,299.95C550.28,297.59 549.37,296.06 550.38,294.1ZM550.79,305.81C550.38,303.76 550.38,302.42 551,301.09C551.61,302.42 551.3,303.75 550.79,305.81ZM656.83,386.8C649.65,425.33 655.63,390.96 656.11,384.44C657.24,385.16 657.04,386.08 656.83,386.8ZM667.51,374.17C668.14,376.84 668.23,379.2 666.69,382.07C647.08,382.99 627.27,382.79 607.25,382.58C606.53,380.94 606.11,379.09 606.22,377.04C606.68,368.93 605.4,360.92 604.78,352.92C604.68,352.2 604.57,351.48 603.45,351.28C603.45,392.97 608.02,379.38 574.3,381.46C556.77,382.54 542.23,376.08 538.41,379.02C537.86,376.48 540.46,375.74 540.52,373.76C540.67,369.35 542.65,365.34 542.98,361.03C543.65,352.2 546.78,343.99 549.14,335.57C554.7,315.73 552.9,309.64 553.96,302.72C562.46,247.25 557.07,274.87 566.3,253.46C565.74,257.1 565.37,260.9 563.41,264.23C567.31,261.66 567.52,257.35 568.34,253.55C569.47,253.04 570.39,252.52 571.32,252.11C576.52,254.19 571.02,257.5 569.68,264.22C571.73,260.11 576.87,257.75 576.25,252.41C577.89,251.9 579.12,253.23 580.56,252.62C580.15,250.87 580.15,250.87 581.79,249.44C583.12,249.13 583.33,250.98 584.66,250.57C584.87,250.06 584.96,249.25 585.69,249.44C594.05,251.66 604.16,247.71 602.22,251.6C591.89,251.2 589.45,250.89 603.86,253.14C604.68,252.01 603.65,250.78 604.78,249.96C610.22,248.87 606.58,253.15 610.22,254.48C612.38,251.09 616.28,254.69 618.95,252.43C618.74,251.61 618.64,250.68 618.54,249.66C620.78,249.41 620.42,248.79 621.62,254.18C622.65,252.85 623.67,252.85 625.11,252.43C622.13,252.74 622.44,251.1 622.75,249.35C626.75,248.63 630.65,249.04 635.27,248.84C633.22,251.3 631.99,249.76 630.34,249.15C631.06,251.72 628.8,251.2 627.77,252.02C631.67,252.12 635.26,251.2 638.65,248.12C639.06,252.64 643.06,251.92 644.5,253.97C645.94,253.97 644.91,252.64 645.73,252.43C646.76,252.53 647.78,252.53 648.91,252.64C649.53,253.67 649.83,255.1 651.48,255.1C651.99,253.15 654.05,251.61 653.23,250.07C652.17,249.89 650.56,253.21 650.56,249.25C651.28,248.12 653.43,248.94 653.74,246.99C628.8,247.5 603.85,250.69 579.11,247.71C577.78,247.3 577.57,245.76 576.24,245.55C575.42,246.06 576.86,246.78 576.03,247.3C573.16,247.51 570.38,246.68 567.92,245.86C566.38,246.48 566.79,248.02 565.87,248.73C567.58,216.33 560.95,219.78 572.03,219.78C569.1,217.89 565.65,221.74 565.15,211.26C565.06,209.31 563.71,207.15 565.46,205.2C562.89,201.09 564.61,196.48 564.13,192.16C563.06,182.6 561.96,182.01 556.53,170.71C558.99,166.46 558.81,162.27 561.46,159.62C565.97,155.11 576.79,128.45 578.19,124.51C578.82,122.74 579.41,122.32 579.64,122.24C580.1,121.73 580.07,121.01 579.43,124.92C580.36,123.89 580.2,122.78 580.08,121.68C581.59,119.61 581.72,117.01 582.1,114.66C586.46,87.65 583.15,86.28 586.62,84.89C589.26,83.3 588.83,84.86 588.88,87.76C589.17,103.39 595.48,113.6 599.86,114.96C626.07,123.11 636.64,111.09 645.13,87.04C647.39,87.96 647.99,89.4 647.39,91.45C638.28,122.77 646.64,164.07 659.81,168.24C658.89,170.81 658.2,173.16 658.58,175.53C659.81,183.21 656.83,190.41 656.73,198.11C653.14,198.33 644.87,198.95 641.35,200.05C646.34,199.75 651.43,200.15 656.42,199.24C656.93,203.04 657.62,206.21 656.83,209.61C655.76,214.22 657.11,218.95 656.62,223.67C654.85,241.04 657.47,243.94 655.29,247.59C652.16,252.81 658.29,254.91 658.68,257.24C659.86,264.38 660.13,287.49 661.45,296.04C661.77,299.6 658.71,299.39 655.8,311.54C653.39,321.62 655.04,334.06 665.04,340.39C665.07,340.51 662.83,354.42 667.51,374.17ZM566.09,250.77C567.03,251.55 566.83,252.18 566.5,252.78C566.5,253.47 565.13,252.37 566.09,250.77ZM569.88,248.63C570.91,248.42 571.01,248.94 570.6,249.66C569.88,249.65 569.68,249.35 569.88,248.63ZM573.89,248.83C574.57,249.17 574.49,248.67 574.1,249.86C573.26,249.45 573.34,249.11 573.89,248.83ZM610.33,250.27C612.08,249.76 612.49,250.58 612.69,251.81C611.25,252.43 610.43,252.12 610.33,250.27ZM614.95,249.96C616.7,249.96 616.49,251.19 617.31,252.32C615.05,252.43 615.26,250.99 614.95,249.96ZM641.64,248.83C643.45,248.83 642.11,250.51 642.05,250.99C641.33,250.17 641.02,249.55 641.64,248.83ZM644.51,248.73C645.95,249.04 645.54,249.86 645.43,250.68C644.31,250.37 644.21,249.65 644.51,248.73ZM699.84,344.1C695.63,347.39 690.4,346.45 685.57,346.05C672.6,344.98 669.61,338.62 666.68,336.91C644.01,323.67 668.83,272.78 698.09,289.59C701.18,291.36 713.99,295.06 713.9,315.97C713.86,327.67 708.89,337.02 699.84,344.1Z" style="fill-rule:nonzero;"/>
        <path d="M680.4,597.97C680.41,598.07 680.48,598.06 680.4,597.97Z" style="fill-rule:nonzero;"/>
        <path d="M579.65,122.25L579.64,122.26C579.78,122.26 579.77,122.21 579.65,122.25Z" style="fill-rule:nonzero;"/>
        <path d="M641.23,200.07L641.33,200.07C641.38,200.07 641.33,200.05 641.23,200.07Z" style="fill-rule:nonzero;"/>
        <path d="M566.39,503.41L566.29,503.31C566.37,503.5 566.29,503.47 566.39,503.41Z" style="fill-rule:nonzero;"/>
        <path d="M387.34,581.98C387.34,581.97 387.35,581.96 387.36,581.95C387.31,581.89 387.34,581.91 387.34,581.98Z" style="fill-rule:nonzero;"/>
        <path d="M330.39,69.19C330.39,69.19 330.39,69.2 330.39,69.19C330.4,69.2 330.4,69.19 330.39,69.19Z" style="fill-rule:nonzero;"/>
        <path d="M384.49,315.97C382.85,310.12 381.05,304.38 381.92,298.01C381.93,297.91 383.96,256.72 382.02,250.89C377.33,239.5 382.41,237.09 376.58,227.69C373.01,221.93 374.17,216.3 375.96,210.24C383.46,184.9 373.03,177.69 376.27,167.02C377.04,164.49 374.99,157.41 374.42,146.9C373.62,131.95 358.77,133.06 338.7,117.13C333.89,113.31 329.36,109.12 323.61,107.28C321.77,104.53 324.92,99.79 325.46,97.94C331.58,76.66 333.89,82.81 333.47,77.41C333.05,72.05 335.66,69.47 330.39,69.21C329.93,70.36 328.54,71.07 328.95,72.48C330.39,73.2 330.49,71.56 331.82,71.45C331.82,73.61 332.03,75.76 331.82,77.92C331.52,80.9 328.6,82.76 327.71,85.62C327.42,86.55 326.38,85.41 325.86,86.03C326.78,90.96 324.22,95.17 322.78,99.68C324.32,94.65 321.86,89.41 322.99,84.59C328.85,81.82 331.52,74.84 327.31,71.04C329.61,69.01 330.34,69.15 330.39,69.19C331.16,67.65 332.9,67.49 333.98,66.52C335.73,64.16 333.83,61.37 334.9,58.92C337.21,53.65 332.7,51.81 332.44,48.86C332.75,47.83 334.08,47.73 334.19,46.29C332.86,45.16 333.47,42.8 331.62,41.57C333.26,39.52 332.95,38.08 330.29,37.67C330.6,36.44 332.34,36.03 331.73,34.49C329.88,32.23 327.83,34.59 325.88,34.28C325.78,33.66 326.09,33.05 325.88,32.84C318.69,29.45 311.1,32.63 304.01,30.48C303.29,28.94 305.55,27.2 304.32,25.35C302.06,25.66 303.19,28.12 301.75,29.05C300.31,27.92 299.7,29.05 299.29,30.38C297.54,29.15 296.62,26.99 294.47,27.4C292.93,28.84 295.7,30.27 293.75,31.61C292.31,31.3 291.08,29.86 289.13,29.86C286.26,31.81 288.92,36.12 285.54,38.38C285.23,38.69 284.51,37.15 283.59,37.87C283.9,39.1 285.23,38.9 285.85,40.03C284,41.06 286.26,43.83 283.8,44.85C283.39,44.54 283.9,43.72 282.77,43.31C276.82,49.67 278.25,57.27 279.59,64.87C275.69,69.69 274.97,79.96 282.36,84.07C283,90.42 285.01,96.54 281.13,103.27C280.6,104.19 280.42,105.24 279.28,105.73C275.82,107.23 272.81,109.62 269.53,111.48C254.72,119.85 258.58,122.15 247.66,125.44C245.51,126.09 243.24,126.35 241.19,127.39C232.11,132.03 227.07,139.61 225.69,149.67C224.89,155.51 224.82,156.46 214.91,184.16C207.58,204.66 214.32,210.84 213.78,224.91C211.77,224.91 213.09,226.68 208.65,240.72C203.41,257.27 209.85,284.34 209.47,301.7C209.44,302.93 209.16,304.37 210.6,305.29C212.65,303.87 211.34,302.08 210.39,281.68C208.96,250.94 206.34,252.36 214.5,227.68C218.41,228.98 215.27,226.03 216.14,220.39C217.99,221.93 220.04,222.34 222.2,222.75C220.04,221.11 218.81,218.64 216.25,217.93C210.41,203.18 215.15,186.28 221.9,172.04C230.2,154.51 225.78,132.91 245.61,128.31C259.19,125.16 261.25,118.25 268.81,114.35C269.27,120.82 267.38,116.44 266.86,118.35C268.3,124.3 266.04,144.32 262.04,149.86C259.06,149.24 255.78,149.65 253.21,146.68C252.49,147.81 250.95,146.78 249.51,148.01C251.77,148.73 253.92,148.32 255.46,149.86C257,151.4 259.26,151.61 261.72,152.53C256.48,164.03 252.38,175.83 246.12,186.41C244.79,186.41 244.17,185.18 243.14,186.51C245.19,189.9 242.83,192.67 241.29,196.16C235.95,184.02 230.82,160.97 230.82,169.37C232.89,181.8 236.63,193.3 242.11,204.37C245.13,210.46 240.44,210.05 238,219.97C235.6,229.74 233.55,226.51 231.53,231.88C230.13,235.59 231.63,239.68 229.99,243.38C233.67,259.62 227.34,281.89 227.12,285.88C225.96,306.87 222.77,306.71 226.4,310.82C232.1,316.52 234,316.9 235.84,321.6C237.21,323.45 236.96,323.55 237.13,322.98C237.9,318.36 234.62,314.83 232.55,313.7C229.04,311.79 228.24,308.36 227.11,304.56C231.73,303.33 235.73,304.35 239.94,306.2C238.91,313.49 237.99,320.67 236.96,328.27C235.01,325.81 234.8,323.75 235.83,321.6C234.29,320.68 233.98,322.83 232.34,323.24C227.21,318.31 221.77,314.1 215.5,310.82C205.13,305.38 191.7,310.07 187.37,321.09C180.22,339.26 180.78,351.78 196.61,363.49C204.47,369.31 209.8,365.78 211.8,367.08C219.59,372.14 229.65,361.24 232.74,352.2C243.36,321.16 226.44,381.39 221.86,406.4C221.77,406.91 221.65,407.63 222.78,407.73C223.09,405.68 225.13,404.34 225.24,402.49C225.51,398.18 227.38,394.28 227.7,390.07C228.86,374.9 237.51,359.77 238.07,341.31C238.58,324.42 242.12,314.66 244.02,295.94C244.34,292.77 250.29,284.94 250.39,284.83C250.95,287.78 249.03,290.22 247.92,293.47C252.03,290.29 252.44,286.28 253.05,282.38C254.18,281.76 255.21,281.15 256.23,280.53C257.15,281.25 257.98,281.76 258.39,282.79C257.57,286.28 255.21,289.26 254.39,292.95C256.34,288.74 261.68,286.38 260.96,280.73C270.11,281.87 261.7,281.22 266.5,277.86C267.94,277.76 268.14,279.4 269.37,279.3C269.88,278.89 269.58,278.07 270.6,277.86C278.52,280.5 288.65,275.96 287.23,280.43C283.95,279.71 280.76,279.71 277.58,280.12C281.38,280.33 284.97,281.25 288.67,281.76C289.7,280.73 288.77,279.5 289.59,278.58C295.39,277 291.47,281.45 295.13,283.1C296.36,282.38 297.3,280.61 299.34,281.66C300.89,282.46 302.52,281.25 304.27,281.66C303.69,279.13 302.94,277.55 305.4,277.96C306.53,279.09 305.81,281.04 307.04,282.27C309.55,279.76 303.31,276.54 314.94,277.65C315.85,279.33 313.13,280.41 313.31,280.6C313.28,280.6 313.24,280.61 313.19,280.62L311.03,280.62C311.99,281.15 313.24,280.73 313.36,280.62C313.69,280.69 315.52,280.34 320.89,279.49C321.2,278.05 321.61,276.82 323.46,277.54C324.49,278.26 324.28,279.8 325.72,280.52C327.36,280.21 328.49,281.75 329.72,282.68C331.61,281.84 328.17,280.69 333.72,281.24C334.54,281.86 334.44,283.4 336.29,283.29C337.01,281.54 338.86,280.21 338.55,277.75C337.32,277.44 337.32,279.08 336.29,278.67C335.67,278.16 335.67,277.44 335.88,276.72C336.8,275.8 338.96,276.62 339.06,274.56C337.84,274.15 285.28,278.67 263.71,275.07C262.89,274.56 262.48,273.12 261.25,272.91C260.43,273.53 261.66,274.04 260.94,274.66C258.27,274.97 255.5,274.45 253.24,273.33C249.76,274.15 250.78,288.86 250.78,247.26C253.14,247.16 255.3,247.98 258.17,247.26C251.94,245.96 252.28,246.52 251.81,245.1C250.99,240.99 248.94,237.09 250.78,232.78C245.66,224.17 255.51,225.51 241.85,198.19C244.34,193.66 244.08,189.39 246.57,187.1C251.64,182.44 268.3,143.25 268.44,136.39C268.6,128.69 270.08,121.09 270.29,113.4C274.94,110.69 274.19,110.12 274.29,115.56C274.47,125.52 278.14,139.9 285.58,142.56C298.79,147.28 298.79,143.96 303.54,144C317.25,144.11 325.94,128.1 330.02,115.15C330.55,113.46 332.47,115.52 333,117C323.91,148.18 331.72,191.24 344.29,195.43C344.29,206 343.67,215.76 341.83,225.51C334.64,226.02 327.77,227.46 320.79,227.36C327.77,227.87 334.85,226.95 341.73,227.05C342.65,231.26 343.06,235.06 341.63,238.86C340.5,239.68 338.96,238.76 337.83,239.58C339.16,240.2 340.5,239.27 341.94,240.2C341.22,243.79 342.58,247.49 342.04,251.29C340.09,265.08 343.01,270.83 340.5,275.21C337.5,280.45 343.6,282.16 343.99,284.96C345.07,292.62 345.25,314.75 346.66,323.46C347.25,327.08 343.27,328.43 341.32,338.65C339.11,350.27 340.41,361.59 350.46,368.01C350.48,368.11 348.58,382.89 352.82,401.48C353.45,404.25 353.64,406.82 352,409.59C332.39,410.41 312.48,410.72 292.56,410.1C291.66,407.58 288.86,341.69 288.86,407.84C281.03,412.32 282.16,407.91 264.02,408.87C234.98,410.4 226.13,403.27 223.99,406.71C227.27,408.76 231.07,408.46 234.67,409.99C234.53,418.76 237.03,425.06 237.03,429.9C237.59,439.25 229.19,452.12 228.82,456.59C226.92,479.08 225.52,467.86 229.13,493.85C237,550.53 241.93,548.85 236.11,551.85C236.8,558.71 239.88,558.77 221.74,556.57C212.12,555.4 214.44,558 203.06,563.24C200.81,564.28 198.34,564.99 196.9,567.14C198.8,586.19 189.62,576.55 232.83,583.26C231.19,585.83 230.78,588.39 230.47,590.96C233.5,595.41 234.82,592.82 244.43,594.24C248.74,594.88 252.55,596 256.95,593.32C260.14,591.38 263.11,590.14 264.34,586.44C308.43,586.44 295.11,585.04 294.73,593.42C295.92,596.1 317.13,604.66 326.76,596.6C329.44,594.35 332.61,592.49 333.74,589.11C337.41,588.79 360.1,589.45 369.67,592.91C372.43,594.29 381.3,587.16 382.19,586.65C387.4,583.65 389.22,579.82 384.55,583.06C369.46,593.54 372.54,592.37 372.54,582.55C361.15,581.63 349.75,582.24 338.46,581.11C339.49,576.8 344.41,574.54 344.11,569.2C392.94,575.35 389.08,564.97 372.03,581.52C377.16,579.77 380.96,575.77 385.58,572.9C385.74,573.92 387.01,581.62 387.33,581.93C391.03,581.68 386.67,577.9 387.84,570.64C372.96,568.59 358.07,569.31 343.6,566.94C341.96,564.37 341.48,561.68 340.01,559.34C335.9,552.82 328.99,551.74 326.67,553.28C326.16,554.31 327.59,554.61 326.88,555.44C326.06,555.65 325.24,555.85 324.62,555.03C323.32,552.28 339.46,490.57 338.07,480.61C337.04,473.22 336.8,465.83 335.71,458.44C335.29,455.57 334.18,452.79 333.96,449.82C333.07,437.29 336.32,425.29 338.58,412.97C344.64,412.25 350.69,413.07 356.24,410.1C355.73,407.74 357.09,405.68 356.45,403.32C355.07,398.27 354.22,393.15 353.68,387.92C351.49,366.79 352.07,370.27 356.96,373.04C364.13,377.1 370.06,376.07 379.13,376.53C388.25,376.99 392.42,368.99 396.17,363.49C408.88,344.88 399.94,319.36 384.49,315.97ZM334.6,57.18C333.06,55.95 332.85,54.82 332.44,53.07C333.78,54.3 334.29,55.33 334.6,57.18ZM332.55,64.47C333.17,65.09 332.64,65.56 332.24,65.29C331.54,64.59 332.44,64.57 332.55,64.47ZM326.8,51.12C327.52,51.74 327.72,52.56 327.83,53.58C326.8,52.87 326.7,52.05 326.8,51.12ZM282.56,81.82C277.02,77.93 278.17,67.35 280.3,67.35C280.3,69.92 280.45,72.49 280.3,75.05C280.14,77.61 283.38,79.04 282.56,81.82ZM226.51,359.6C225.16,361.85 219.84,364.84 214.4,366.79C210.31,363.29 205.92,368.54 191.71,355.81C184.57,349.41 184.1,323.98 195.61,315.57C204.33,309.2 204.01,313.37 207.62,313.21C207.41,312.7 207.31,312.39 207,311.77C217.37,309.87 225.19,319.39 231.53,325.53C229.53,331.15 239.56,337.76 226.51,359.6ZM236.26,333.42C235.64,332.09 235.85,330.85 235.85,328.8C237.39,330.85 236.16,332.19 236.26,333.42ZM329.67,277.06C331.21,277.37 330.8,278.39 330.8,279.42C329.57,278.91 329.57,278.09 329.67,277.06ZM327.52,277.17C328.34,278.09 327.73,278.81 327.11,279.74C326.59,278.5 326.08,277.58 327.52,277.17ZM320.13,277.99C318.9,279.12 317.97,279.53 316.74,278.2C317.87,277.37 318.79,277.58 320.13,277.99ZM302.68,280.96C300.52,281.06 300.52,279.73 299.91,278.5C302.27,278.4 301.85,279.94 302.68,280.96ZM298.06,280.35C296.31,280.86 295.6,280.45 295.7,278.81C297.34,277.99 297.75,278.91 298.06,280.35ZM259.56,277.17C260.49,278.1 258.94,278.52 258.94,277.99C258.74,277.47 259.05,277.27 259.56,277.17ZM255.46,277.17C256.18,276.99 256.39,278.2 255.77,278.2C255.01,278.38 255.01,277.17 255.46,277.17ZM251.86,279.63C252.27,281.48 251.24,283.12 250.73,284.87C251.11,278.4 251.02,279.63 251.86,279.63ZM250.72,282.95C250.73,283.39 250.89,283.96 250.6,284.5C250.82,283.93 250.71,283.38 250.72,282.95ZM245.19,211.57C246.32,213.42 246.97,215.57 247.04,220.09C247.23,233.03 253.42,278.31 245.6,288.15C242.01,292.67 240.67,297.9 240.26,303.96C236.77,300.06 232.66,299.44 227.94,301.29C230,295.26 226.65,295.62 232.66,271.42C237.64,251.37 229.55,241.22 235.74,230.97C247.04,212.26 243.5,212.92 245.19,211.57ZM324.23,60.16C322.9,59.65 322.9,58.62 322.69,57.29C323.93,58 323.82,59.03 324.23,60.16ZM323.41,72.68C323.62,75.25 322.28,74.73 320.95,74.01C321.77,73.6 322.49,73.09 323.41,72.68ZM319,47.84C319.92,47.84 320.33,48.35 320.33,49.59C319.51,49.17 318.79,48.97 319,47.84ZM320.85,60.05C320.13,60.97 319.21,61.38 317.98,62C319.63,55.03 319.43,56.16 320.85,60.05ZM320.85,73.91C320.03,75.14 319.31,76.37 318.28,78.12C317.77,76.37 316.84,75.25 316.95,73.6C318.38,73.19 319.61,75.04 320.85,73.91ZM316.94,88.28C317.86,88.69 317.66,89.2 317.25,89.82C316.84,89.41 316.02,89 316.94,88.28ZM313.66,78.12C312.84,77.2 313.25,76.27 313.25,74.53C315.1,76.17 316.02,77.09 313.66,78.12ZM313.04,84.07C312.12,83.35 312.53,82.63 313.25,81.61C313.97,82.74 313.66,83.46 313.04,84.07ZM312.94,39.93C314.17,40.55 314.27,41.16 313.15,42.09C311.81,41.47 311.91,40.75 312.94,39.93ZM308.12,54.1C310.48,57.38 310.48,57.38 309.56,59.44C307.8,57.9 306.04,56.96 308.12,54.1ZM307.3,95.16C308.58,96.99 307.08,98.1 306.58,97.62C305.37,96.47 305.65,95.67 307.3,95.16ZM303.91,40.34C304.01,41.57 305.45,43.11 302.37,43.42C302.68,41.99 302.78,41.06 303.91,40.34ZM302.27,94.54C303.5,95.26 304.12,95.67 303.71,96.9C301.96,97.11 302.06,95.98 302.27,94.54ZM300.83,40.86C301.96,41.48 300.73,41.99 300.83,42.5C300.11,41.78 299.9,41.27 300.83,40.86ZM299.9,60.16C300.62,60.88 300.52,61.29 299.69,61.91C299.08,61.08 299.49,60.67 299.9,60.16ZM298.36,39.83C299.18,40.45 298.98,40.86 298.05,41.47C297.54,40.65 297.65,40.24 298.36,39.83ZM298.06,54.71C297.44,56.76 297.03,58.3 296.52,60.15C295.39,57.28 295.39,57.28 298.06,54.71ZM294.67,99.37C293.34,98.65 293.34,97.73 292.92,96.6C294.77,97.01 295.08,97.73 294.67,99.37ZM292.41,43.32C292,43.63 291.69,44.04 291.49,43.94C290.92,43.71 291.51,43.32 292.41,43.32ZM292.21,76.17C291.49,76.27 290.67,76.68 289.95,76.07C290.15,73.81 293.51,72.7 292.21,76.17ZM289.54,67.75C290.16,65.39 289.54,62.82 290.67,60.36C292,62.82 291.69,64.88 289.54,67.75ZM290.36,33.05C290.36,35.65 290.05,36.49 290.05,33.05L290.36,33.05ZM289.54,40.04C289.85,42.2 288.92,43.22 287.38,44.04C288,42.81 288.72,41.57 289.54,40.04ZM283.07,51.43C284.2,48.45 286.66,47.63 288.72,46.4C287.07,47.84 285.33,49.38 283.07,51.43ZM285.12,75.55C286.76,76.78 287.07,78.22 286.76,80.07C285.84,78.74 284.4,77.71 285.12,75.55ZM284.71,85.31C284.09,85.1 284.3,84.59 284.5,84.18C284.81,84.48 285.22,84.79 284.71,85.31ZM284.92,56.87C285.13,56.05 285.43,55.95 285.95,56.66C285.74,57.18 285.33,57.08 284.92,56.87ZM328.03,116.2C321.13,132.54 314.47,142.99 299.59,142.99C298.46,141.76 299.59,139.71 297.95,138.47C296.92,139.8 297.64,141.24 297.44,142.58C295.24,145.15 283.02,140.42 279.78,130.88C277.65,124.59 276.6,116.21 276.29,109.63C282.35,108.19 283.58,102.75 285.53,97.62C291.59,95.42 287.95,95.51 290.97,100.8C295.49,101.31 296.92,98.44 297.54,94.74C301.44,96.28 299.9,102.13 305.65,102.34C308.63,100.9 309.86,95.87 313.86,93.92C314.84,93.3 315.89,96.55 317.04,93.1C318.37,93.82 319.61,93.82 321.04,92.89C317.83,118.7 331.81,107.25 328.03,116.2ZM200.23,577.94C199.1,574.96 199.31,572.29 199.41,569.32C210.7,570.65 221.58,573.02 232.98,573.12C232.88,575.89 234.62,578.15 233.6,581.02C222.4,579.99 211.31,577.94 200.23,577.94ZM260.69,588.62C251.06,595.69 254.1,591.18 236.46,591.39C232.85,591.43 230.76,591.71 235.33,583.38C239.09,576.53 232.16,579.1 239.03,566.75C238.93,565.11 239.03,562.85 236.98,560.59C231.02,570.72 246.73,575.68 199.61,567.26C205.26,564.39 210.7,561.31 215.83,557.92C224.59,558.3 236.6,561.32 239.13,558.43C239.23,557.1 239.34,555.56 239.44,554.22C246.52,552.99 254.22,554.12 259.66,547.75C268.67,561.27 252.35,564.58 251.45,565.1C254.24,565.1 263.26,567.34 264.8,555.35C264.91,554.53 264.8,553.71 264.8,552.89C266.55,552.58 267.88,554.33 270.34,553.81C270.75,553.81 270.65,552.48 271.37,551.76C277.02,551.76 277.32,549.36 278.97,555.46C280.52,561.21 278.24,566.74 273.12,569.73C270.14,571.47 268.02,574.32 264.8,575.58C261.95,576.69 264.41,585.89 260.69,588.62ZM281.32,563.26C288.2,564.08 294.87,564.8 301.85,565.62C300.41,569.73 300.31,573.42 298.05,576.91C253.94,571.72 276.76,578.38 281.32,563.26ZM265.93,583.38C265.14,581.41 265.26,575.67 269.01,575.99C299.3,578.58 298.8,576.71 297.45,584.41C286.87,584.72 276.5,582.87 265.93,583.38ZM370.22,583.59C370.73,586.36 370.94,588.72 370.32,591.39C358.72,588 347.02,588.31 335.52,587.18C335.53,580.35 339.85,584.42 370.22,583.59ZM327.21,561.41C328.85,558.84 331.32,560.79 333.57,559.77C332.13,557.72 331,555.66 328.13,554.74C334.93,553.28 344.8,566.35 340.24,573.53C337.15,578.39 333.57,582.97 331,588.21C328.33,593.65 323.71,596.32 317.86,597.04C316.28,597.36 316.52,596.9 297.95,592.42C297.74,591.91 297.74,591.7 297.74,591.7C300.51,587.7 300.14,582.88 301.23,578.46C302.08,574.98 303.49,571.68 303.69,567.99C306.36,567.68 308.41,570.25 311.29,568.81C309.54,566.14 306.26,566.55 304.1,564.5C305.13,562.65 303.69,560.39 304.41,557.83C307.63,560.43 312.01,566.56 321.25,557.32C325.05,563.27 326.69,569.02 319.71,573.85C326.42,574.88 327.66,566.31 327.21,561.41ZM334.6,418.83C328.95,449.03 333.16,448.54 335.32,484.32C335.59,488.87 321.72,552.84 321.36,554.12C319.55,560.55 306.02,562.02 306.27,555.04C306.65,544.56 303.02,537.43 303.91,520.75C304.15,516.23 303.5,511.61 300.21,507.1C302.47,508.23 302.88,510.8 305.34,510.38C294.96,494.97 295.57,498.83 294.87,483.69C294.66,479.03 302.77,457.38 303.39,439.96C303.63,433.17 300.62,434.35 300.62,421.58C299.92,412.45 297.87,414.62 298.16,414.91C299.8,421.17 299.16,427.75 300.52,434.11C303.63,448.6 296.31,459 296.31,467.16C296.31,470.24 292.42,478.53 292.72,480.3C294.45,512.44 301.49,505.56 301.45,516.33C301.4,528.03 302.58,539.74 304.63,551.54C298.85,552.34 302.6,560.25 301.35,563.45C294.88,563.76 288.83,561.5 282.26,561.5C281.43,554.87 281.59,547.99 273.53,549.08C269.39,549.64 267.42,546.25 262.55,548.98C261.83,542.2 257.66,536.77 257.83,530.09C258.32,509.98 274.81,477.53 270.25,441.91C270.07,440.47 270.76,438.93 271.07,437.19C276.72,435.54 275,422.61 278.26,414.81C278.56,414.09 278.16,413.48 277.34,412.86C271.49,420.96 274.7,425.81 269.95,435.14C265.14,444.58 268.28,457.21 267.38,463.88C261.92,504.68 251.88,524.18 258.35,544.67C257.84,546.72 256.19,548.06 254.04,549.49C253.32,546 254.04,542.61 253.53,539.33C252.61,543.13 250.76,546.72 251.89,551.03C248.5,551.65 245.32,552.06 241.83,551.44C239.75,529.71 223.11,472.87 233.72,451.97C245.28,429.21 238.44,425.3 238.85,411.32C265.54,412.14 292.02,413.27 318.71,414.5C320.66,416.86 321.28,420.04 322.71,422.82C322.71,420.05 323.12,417.17 321.48,414.2C339.96,413.05 335.86,412.12 334.6,418.83ZM332.14,159.01C334.81,155.83 338.4,153.77 340.04,149.98C338.29,151.62 335.01,151.11 334.19,154.39C333.37,153.36 332.55,152.64 331.62,152.54C331.94,143.98 332.89,114.24 338.29,120.61C341.14,123.97 358.51,131.27 367.65,137.86C372.62,141.44 373.83,163.73 373.81,163.83C372.78,171.94 375.24,179.64 376.07,187.54C378.43,209.98 366.64,216.54 374.84,229.42C379.19,236.25 376.05,241.16 380.49,253.13C381.52,255.91 379.78,297.56 379.36,300.66C378.72,305.38 379.57,310.1 381.41,314.83C377.51,314.52 374.02,312.57 369.91,312.47C367.96,308.26 365.5,304.46 364.78,299.64C364.27,296.25 361.48,293.28 360.67,289.89C358.9,282.5 354.75,276.23 352.36,269.15C348.83,258.72 349.93,237.18 349.28,233.94C346.3,226.24 348.46,218.23 347.33,210.43C345.44,197.44 351.53,180.51 351.13,169.98C347.95,177.06 348.15,185.17 345.07,192.56C335.59,186.25 334.04,174.23 332.14,159.01ZM344.87,226.76C345.49,227.27 346.2,227.68 345.59,228.51C344.15,228.4 345.07,227.28 344.87,226.76ZM346.1,233.33C346.92,235.08 346.82,236.82 346.51,238.46C345.01,238.46 345.75,239.18 346.1,233.33ZM345.69,283.43C341.7,278.91 345.15,275.62 344.56,268.75C344.26,265.19 345.16,244.77 346.41,241.65C348.83,246.84 345.03,247.6 349.9,269.47C351.93,278.59 361.76,294.53 365.81,310.02C366.12,310.94 366.73,311.77 367.66,312.89C364.17,312.89 361.71,314.94 358.63,314.64C357.25,314.5 352.6,320.39 349.7,323.98C348.41,323.33 348.39,324.88 348.06,306.12C347.72,287.37 348.99,287.17 345.69,283.43ZM385.21,372.63C380.31,376.44 366.94,374.64 361.19,372.22C355.34,369.75 355.74,367.85 352.05,365.65C334.16,354.97 344.91,318.22 371.66,314.73C372.54,314.62 399.62,317.28 399.38,344.6C399.27,356.21 394.28,365.59 385.21,372.63Z" style="fill-rule:nonzero;"/>
        <path d="M558.8,565.21C561.37,564.7 564.45,565.01 565.27,561.51C565.89,558.84 563.83,557.92 561.88,556.99C566.21,550.15 558.24,548.32 555.82,552.37C554.48,554.62 555.41,556.37 558.8,558.22C556.23,560.49 557.46,562.85 558.8,565.21ZM563.62,560.28C563.83,561.61 563.11,562.44 561.67,562.95C561.36,561.62 560.44,561.2 558.9,562.13C560.13,558.74 561.06,558.44 563.62,560.28ZM558.69,555.97C556.64,555.97 555.94,552.97 559.61,551.97C562.94,552.52 562.13,555.97 558.69,555.97Z" style="fill-rule:nonzero;"/>
        <path d="M624.6,385.98C623.83,390.61 626.04,395.2 626.04,400.66C626.04,402.71 627.68,404.15 630.35,405.48C624.81,393.37 629.9,385.73 624.6,385.98Z" style="fill-rule:nonzero;"/>
        <path d="M605.5,344.2C605.5,354.88 620.8,368.43 631.27,368.32C623.25,366.72 612.35,360.25 605.5,344.2Z" style="fill-rule:nonzero;"/>
        <path d="M655.7,272.24C657.24,275.63 656.93,279.43 658.47,282.92C659.42,261.97 658.87,265.04 653.23,256.13C652.83,255.5 652,255.51 651.38,255.21C653.31,260.71 657.23,260.53 657.23,270.3C657.24,271.52 656.63,271.72 655.7,272.24Z" style="fill-rule:nonzero;"/>
        <path d="M343.94,311.66C343.94,293.32 345.49,292.58 337.68,284.25C337.68,284.15 337.27,284.46 337.06,284.56C339.93,289.59 344.86,294.31 341.27,301.5C342.71,304.37 342.3,308.17 343.94,311.66Z" style="fill-rule:nonzero;"/>
        <path d="M290.77,373.66C289.58,375.44 293.65,382.37 296.11,385.16C307.87,398.47 315.83,396.04 313.56,396.04C293.1,387.86 293.21,373.66 290.77,373.66Z" style="fill-rule:nonzero;"/>
        <path d="M572.66,414.72C574.79,413.41 571.85,409.39 573.38,403.53C574.05,400.95 573.38,399.12 571.74,396.65C569.47,403.12 571.53,408.77 572.66,414.72Z" style="fill-rule:nonzero;"/>
        <path d="M626.45,449.32C626.86,455.89 629.43,461.95 631.89,468.11C634.41,460.53 633.91,470.48 626.45,449.32Z" style="fill-rule:nonzero;"/>
        <path d="M593.19,362.98C595.55,358.46 599.35,339.37 598.63,334.75C596.88,344.2 595.03,353.54 593.19,362.98Z" style="fill-rule:nonzero;"/>
        <path d="M278.55,391.62C281.73,382.48 283.48,373.04 284.81,363.6C283.58,363.19 284.61,360.65 278.55,391.62Z" style="fill-rule:nonzero;"/>
        <path d="M600.68,315.15C597.5,307.45 593.7,299.96 592.67,291.64C592.16,300.57 595.86,308.06 600.68,315.15Z" style="fill-rule:nonzero;"/>
        <path d="M286.15,343.58C282.56,335.98 278.96,328.39 278.04,319.87C277.01,326.64 280.71,337.42 286.15,343.58Z" style="fill-rule:nonzero;"/>
        <path d="M661.25,350.97C663.83,373.33 669.99,384.61 664.02,362.26C663.03,358.56 663.5,354.36 661.25,350.97Z" style="fill-rule:nonzero;"/>
        <path d="M554.28,550.02C555.72,549.1 556.84,548.49 558.49,548.79C561.81,549.39 561.86,544.4 559.82,542.73C557.66,543.55 555.3,543.86 553.04,545.09C553.86,546.73 555.4,544.99 555.71,546.42C555.51,547.66 553.77,548.17 554.28,550.02ZM558.9,544.78C560.71,546.23 558.86,548.01 557.98,546.83C557.26,545.71 557.57,544.99 558.9,544.78Z" style="fill-rule:nonzero;"/>
        <path d="M346.3,379.51C347.33,387.21 348.25,394.81 351.54,401.89C346.82,377.29 347.61,379.08 346.3,379.51Z" style="fill-rule:nonzero;"/>
        <path d="M272.8,362.88C268.49,358.67 263.25,355.59 259.35,351.18C260.9,355.9 269.52,363.5 272.8,362.88Z" style="fill-rule:nonzero;"/>
        <path d="M574.09,322.64C575.73,327.26 583.64,334.34 587.85,334.65C583.13,330.13 577.99,327.06 574.09,322.64Z" style="fill-rule:nonzero;"/>
        <path d="M548.53,138.38C548.02,133.25 544.83,129.24 543.81,124.42C543.09,129.55 545.66,137.04 548.53,138.38Z" style="fill-rule:nonzero;"/>
        <path d="M643.23,458.83C643.39,458.78 643.54,458.72 643.69,458.69C643.56,458.63 643.4,458.69 643.23,458.83Z" style="fill-rule:nonzero;"/>
        <path d="M634.15,468.31C638.96,467.31 641.81,460.03 643.24,458.84C639.58,460.08 633.95,465.58 634.15,468.31Z" style="fill-rule:nonzero;"/>
        <path d="M649.75,448.7C650.37,447.78 650.47,445.83 648.52,444.08C649.25,452.13 641.51,456.55 643.73,458.68C643.72,458.68 643.71,458.69 643.7,458.69C643.74,458.71 643.77,458.73 643.8,458.76C648.11,456.71 647.6,451.89 649.75,448.7Z" style="fill-rule:nonzero;"/>
        <path d="M234,166.81C233.08,161.78 230.41,157.67 229.38,153.16C227.49,153.16 230.06,165.4 234,166.81Z" style="fill-rule:nonzero;"/>
        <path d="M223.32,211.06C223.94,210.65 224.55,210.34 224.65,209.62C222.08,206.64 222.19,202.64 220.65,199.15C219.42,201.61 221.68,210.75 223.32,211.06Z" style="fill-rule:nonzero;"/>
        <path d="M535.08,170.82C533.44,175.34 536.52,178.72 537.85,182.52C538.57,182.21 539.08,181.8 539.39,180.98C536.62,178.1 536.83,174.1 535.08,170.82Z" style="fill-rule:nonzero;"/>
        <path d="M572.66,464.3C576.82,462.22 571.98,459.35 568.55,457.11C568.55,461.44 567.73,460.13 572.66,464.3Z" style="fill-rule:nonzero;"/>
        <path d="M639.79,402.81C643.18,397.99 639.28,393.88 640,389.67C639.07,392.14 639.07,400.66 639.79,402.81Z" style="fill-rule:nonzero;"/>
        <path d="M294.67,361.03C300.42,361.03 304.94,358.36 308.94,354.77C304.32,357.24 299.49,359.08 294.67,361.03Z" style="fill-rule:nonzero;"/>
        <path d="M646.36,257.46C645.74,260.85 647.39,266.39 649.13,267.93C647.8,264.54 649.85,260.23 646.36,257.46Z" style="fill-rule:nonzero;"/>
        <path d="M609.51,332.6C614.95,332.09 619.78,330.24 623.68,326.24C618.85,328.18 614.33,330.65 609.51,332.6Z" style="fill-rule:nonzero;"/>
        <path d="M330.8,286.2C331.52,289.9 332.34,293.39 333.88,296.67C334.29,288.66 333.78,287.02 330.8,286.2Z" style="fill-rule:nonzero;"/>
        <path d="M562.7,445.62C563.11,453.83 564.45,456.71 568.14,457.63C564.75,453.94 564.24,449.52 562.7,445.62Z" style="fill-rule:nonzero;"/>
        <path d="M636.71,201.71C642.05,202.22 647.39,202.84 652.62,201.71L636.71,201.71Z" style="fill-rule:nonzero;"/>
        <path d="M601.71,246.37C597.5,243.7 593.29,241.13 588.47,239.9C593.19,241.24 596.78,245.24 601.71,246.37Z" style="fill-rule:nonzero;"/>
        <path d="M337.78,230.15L321.25,230.15C326.8,230.87 332.24,231.48 337.78,230.15Z" style="fill-rule:nonzero;"/>
        <path d="M598.11,257.15C595.18,257.15 595.9,266.49 595.95,268.75C596.68,264.85 597.4,261.05 598.11,257.15Z" style="fill-rule:nonzero;"/>
        <path d="M563.31,399.53C562.9,402.61 562.69,405.28 562.28,408.77C565.16,406.1 565.47,402.81 563.31,399.53Z" style="fill-rule:nonzero;"/>
        <path d="M561.98,457.12C560.75,457.63 560.34,459.17 559,459.48C557.87,457.63 557.56,457.43 555,457.22C555.92,458.66 557.57,459.27 558.18,460.71C562.6,460.3 563.42,459.38 561.98,457.12Z" style="fill-rule:nonzero;"/>
        <path d="M282.66,285.58C280.5,289.28 281.22,293.48 281.22,297.59C283.55,284.64 283.67,285.58 282.66,285.58Z" style="fill-rule:nonzero;"/>
        <path d="M650.78,173.9C647.08,172.05 643.7,170.31 640.31,168.56C644.62,172.77 647.7,174.31 650.78,173.9Z" style="fill-rule:nonzero;"/>
        <path d="M556.03,489.86C556.94,492.59 556.7,501.07 559.21,499.82C556.77,488.32 557.11,489.5 556.03,489.86Z" style="fill-rule:nonzero;"/>
        <path d="M326.18,197.4C330.39,201.61 333.26,202.94 336.03,202.43C332.65,200.69 329.37,199.05 326.18,197.4Z" style="fill-rule:nonzero;"/>
        <path d="M551.92,149.36C551.51,152.23 552.23,154.7 554.59,156.55C553.66,154.08 553.87,151.31 551.92,149.36Z" style="fill-rule:nonzero;"/>
        <path d="M218.19,198.84C217.68,196.17 218.5,193.4 216.75,190.94C215.42,193.91 216.96,196.38 218.19,198.84Z" style="fill-rule:nonzero;"/>
        <path d="M531.29,161.89C530.06,164.87 531.29,166.82 532.42,168.87C532.21,166.71 533.44,164.25 531.29,161.89Z" style="fill-rule:nonzero;"/>
        <path d="M629.42,415.44C630.75,412.57 627.37,410.2 629.01,407.43C626.65,409.59 626.65,409.59 629.42,415.44Z" style="fill-rule:nonzero;"/>
        <path d="M286.76,275.11C287.17,274.29 288.21,275.08 278.14,269.87C280.81,271.93 283.27,274.5 286.76,275.11Z" style="fill-rule:nonzero;"/>
        <path d="M237.18,178C237.08,180.67 237.28,183.24 239.85,184.88C239.13,182.52 239.13,179.85 237.18,178Z" style="fill-rule:nonzero;"/>
        <path d="M561.77,442.54C562.08,440.38 561.98,438.23 561.05,436.18C559.93,438.43 560.85,440.49 561.77,442.54Z" style="fill-rule:nonzero;"/>
        <path d="M214.39,263.41C216.34,261.46 218.19,259.51 220.14,257.46C217.88,259.2 215.42,260.64 214.39,263.41Z" style="fill-rule:nonzero;"/>
        <path d="M331.01,270.18C330.7,267.92 330.39,266.07 330.19,264.23C329.67,268.03 329.67,268.03 331.01,270.18Z" style="fill-rule:nonzero;"/>
        <path d="M231.84,146.28C230.08,153.03 229.96,152.02 231.22,152.44C232.87,150.9 232.36,148.85 231.84,146.28Z" style="fill-rule:nonzero;"/>
        <path d="M248.99,146.18C245.71,144.02 245.5,144.02 243.86,145.05C245.29,145.87 246.63,147.1 248.99,146.18Z" style="fill-rule:nonzero;"/>
        <path d="M546.38,118.57C545.76,120.73 545.05,122.16 545.35,124.22C547.09,121.95 547.09,121.95 546.38,118.57Z" style="fill-rule:nonzero;"/>
        <path d="M563.52,117.74C561.98,115.99 560.44,115.58 558.18,115.89C559.72,117.33 561.06,118.26 563.52,117.74Z" style="fill-rule:nonzero;"/>
        <path d="M645.64,241.44C645.33,239.49 645.13,237.64 644.82,235.69C644.51,237.64 644.1,239.59 645.64,241.44Z" style="fill-rule:nonzero;"/>
        <path d="M654.47,211.06C648.08,211.41 648.72,211.31 648.72,211.47C655.34,211.47 654.47,211.6 654.47,211.06Z" style="fill-rule:nonzero;"/>
        <path d="M316.94,281.68C316.63,284.04 316.53,285.48 317.45,286.92C316.84,285.58 318.69,283.84 316.94,281.68Z" style="fill-rule:nonzero;"/>
        <path d="M650.36,443.26C651.8,440.8 651.18,439.56 649.54,438.13C649.24,439.97 649.85,441.21 650.36,443.26Z" style="fill-rule:nonzero;"/>
        <path d="M266.44,242.47C273.71,242.47 271.96,242.37 266.44,242.37L266.44,242.47Z" style="fill-rule:nonzero;"/>
        <path d="M641.64,199.05C639.48,198.84 637.33,198.95 635.07,199.26C637.33,199.46 639.48,199.56 641.64,199.05Z" style="fill-rule:nonzero;"/>
        <path d="M631.68,253.86C631.27,255.4 631.06,256.94 632.19,259.1C632.74,253.34 633.1,253.86 631.68,253.86Z" style="fill-rule:nonzero;"/>
        <path d="M566.6,222.14C568.86,223.37 570.71,222.96 572.35,223.27C570.81,222.14 569.06,222.04 566.6,222.14Z" style="fill-rule:nonzero;"/>
        <path d="M212.65,266.8C213.47,265.77 214.29,264.75 214.4,263.41C212.96,264.13 212.75,265.46 212.65,266.8Z" style="fill-rule:nonzero;"/>
        <path d="M561.57,393.78C561.06,395.01 560.85,395.83 561.57,396.86C562.6,395.94 562.7,395.11 561.57,393.78Z" style="fill-rule:nonzero;"/>
        <path d="M589.49,214.14C585.45,214.14 586.49,214.24 589.49,214.24L589.49,214.14Z" style="fill-rule:nonzero;"/>
        <path d="M648.82,435.05C649.64,433.82 650.05,433 648.72,431.77C648.72,432.99 648.21,434.02 648.82,435.05Z" style="fill-rule:nonzero;"/>
        <path d="M308.32,193.19C308.01,192.47 307.29,192.27 306.16,191.86C306.88,192.99 307.3,193.71 308.32,193.19Z" style="fill-rule:nonzero;"/>
        <path d="M265.21,151C265,152.13 264.9,152.85 264.7,153.67C265.52,152.95 265.62,152.24 265.21,151Z" style="fill-rule:nonzero;"/>
        <path d="M628.5,467.38C628.4,466.25 627.88,465.84 627.06,465.84C627.16,466.77 627.37,467.28 628.5,467.38Z" style="fill-rule:nonzero;"/>
        <path d="M572.24,223.27C573.27,223.48 574.29,223.89 575.52,223.27L572.24,223.27Z" style="fill-rule:nonzero;"/>
        <path d="M570.19,209.62C570.91,209.52 571.42,209.41 571.94,209.41C571.42,209.31 570.81,208.8 570.19,209.62Z" style="fill-rule:nonzero;"/>
        <path d="M554.18,481.75C554.59,482.78 554.8,483.29 555.21,484.21C555.31,483.09 555.41,482.58 554.18,481.75Z" style="fill-rule:nonzero;"/>
        <path d="M258.74,251.6C257.71,251.5 256.79,251.39 255.76,251.29C256.58,252.22 257.61,251.91 258.74,251.6Z" style="fill-rule:nonzero;"/>
        <path d="M529.54,234.05C528.72,234.56 528.31,235.08 528.31,235.9C527.53,236.68 526.9,237.4 527.49,238.67C528.87,236.6 528.37,235.95 528.52,236.1C529.23,235.69 529.64,235.08 529.54,234.05Z" style="fill-rule:nonzero;"/>
        <path d="M313.97,396.55C314.69,397.27 315.72,397.27 316.74,397.37C316.02,396.45 314.99,396.45 313.97,396.55Z" style="fill-rule:nonzero;"/>
        <path d="M568.04,500.23C566.81,500.85 566.81,501.77 566.81,502.69C567.73,502.18 568.55,501.67 568.04,500.23Z" style="fill-rule:nonzero;"/>
        <path d="M642.56,495.82C642.77,494.9 643.89,494.18 643.07,492.95C642.05,493.76 641.74,494.69 642.56,495.82Z" style="fill-rule:nonzero;"/>
        <path d="M629.42,504.65C630.61,505.25 630.58,503.44 629.73,502.8C629.12,503.31 629.32,504.03 629.42,504.65Z" style="fill-rule:nonzero;"/>
        <path d="M626.96,469.85C626.65,468.72 626.14,468.31 625.21,467.8C625.32,469.03 625.62,469.64 626.96,469.85Z" style="fill-rule:nonzero;"/>
        <path d="M273.52,268.44C273.93,268.95 274.34,269.16 274.96,268.75C274.45,268.54 274.14,267.82 273.52,268.44Z" style="fill-rule:nonzero;"/>
        <path d="M252.48,250.99C253.71,251.5 254.74,251.61 255.76,251.3C254.84,250.48 253.81,250.48 252.48,250.99Z" style="fill-rule:nonzero;"/>
        <path d="M560.54,278.19C561.16,277.57 561.16,277.06 560.75,276.44C559.93,277.06 560.03,277.58 560.54,278.19Z" style="fill-rule:nonzero;"/>
        <path d="M245.6,310.22L245.6,307.45C246.42,306.73 246.93,306.01 245.7,305.09C245.21,305.88 245.47,306.68 245.59,307.38C245.28,308.19 244.99,309.01 245.6,310.22Z" style="fill-rule:nonzero;"/>
        <path d="M622.75,164.45C622.44,164.14 622.03,163.83 621.72,163.63C621.72,164.45 621.93,164.96 622.75,164.45Z" style="fill-rule:nonzero;"/>
        <path d="M571.83,393.68C571.45,393.3 570.58,395.01 572.24,395.01C572.55,394.5 572.66,393.99 571.83,393.68Z" style="fill-rule:nonzero;"/>
        <path d="M574.91,389.06C574.19,389.57 573.78,389.98 574.4,390.81C574.61,390.29 575.22,390.08 574.91,389.06Z" style="fill-rule:nonzero;"/>
        <path d="M625.73,444.29C625.63,443.88 625.41,443.15 624.91,443.88C624.5,444.46 625.73,445.53 625.73,444.29Z" style="fill-rule:nonzero;"/>
        <path d="M312.53,352.72C313.04,352.72 313.25,352.51 313.25,352C312.84,352 312.53,352.21 312.53,352.72Z" style="fill-rule:nonzero;"/>
        <path d="M625.11,325.1C624.39,325.61 623.78,325.61 623.67,326.33C624.39,326.23 624.91,326.13 625.11,325.1Z" style="fill-rule:nonzero;"/>
        <path d="M560.23,281.37L560.23,280.24C559.82,280.66 559.82,280.96 560.23,281.37Z" style="fill-rule:nonzero;"/>
        <path d="M644.51,486.99C644.82,486.58 645.02,486.17 644.41,485.96C644.51,486.37 644.51,486.68 644.51,486.99Z" style="fill-rule:nonzero;"/>
        <path d="M221.89,255.61C222.17,255.61 223.09,254.89 222.3,254.89C222.09,254.89 221.78,255.2 221.89,255.61Z" style="fill-rule:nonzero;"/>
        <path d="M255.46,238.16C255.67,238.26 255.87,238.26 256.08,238.26C255.87,238.05 255.56,237.75 255.46,238.16Z" style="fill-rule:nonzero;"/>
        <path d="M323.41,196.07C323.1,195.86 323,195.35 322.38,195.66C322.69,195.86 322.8,196.38 323.41,196.07Z" style="fill-rule:nonzero;"/>
        <path d="M680.54,237.23C688.55,245.65 687.52,257.25 691.73,267C690.24,258.06 688.19,241.9 680.54,237.23Z" style="fill-rule:nonzero;"/>
        <path d="M676.75,183.65C676.75,175.39 674.71,182.52 672.54,170.72C672.33,169.59 672.54,168.15 671.1,166.92C668.84,174.2 674.08,178.52 676.75,183.65Z" style="fill-rule:nonzero;"/>
        <path d="M671.72,105.73C668.95,103.27 664.02,102.55 661.35,104.29C664.94,104.09 668.02,106.04 671.72,105.73Z" style="fill-rule:nonzero;"/>
        <path d="M684.14,189.4C681.98,187.65 682.39,184.58 680.34,182.11C680.44,185.6 681.26,188.06 684.14,189.4Z" style="fill-rule:nonzero;"/>
        <path d="M680.03,210.34C677.77,208.8 676.54,210.85 675,211.37C676.64,211.47 678.49,212.29 680.03,210.34Z" style="fill-rule:nonzero;"/>
        <path d="M674.59,228.1C673.46,226.15 672.33,224.2 671.2,222.25C671.1,225.02 672.33,226.86 674.59,228.1Z" style="fill-rule:nonzero;"/>
        <path d="M660.22,120.31C658.37,120.62 657.24,121.13 656.42,122.67C658.58,123.39 659.5,122.36 660.22,120.31Z" style="fill-rule:nonzero;"/>
        <path d="M666.58,139.92C668.12,138.69 668.33,137.66 668.22,136.12C667.1,137.15 666.58,138.07 666.58,139.92Z" style="fill-rule:nonzero;"/>
        <path d="M668.94,133.35C670.07,132.73 670.79,131.81 670.48,130.17C669.46,131.09 668.84,132.01 668.94,133.35Z" style="fill-rule:nonzero;"/>
        <path d="M685.37,309.19C676.97,308.84 673.95,321.49 686.6,321.61C693.44,321.68 693.71,309.55 685.37,309.19ZM683.83,319.56C680.81,319.56 678.71,312.99 683.83,312.99C689.8,315.29 686.32,319.56 683.83,319.56Z" style="fill-rule:nonzero;"/>
        <path d="M514.86,308.47C518.97,307.44 519.48,307.55 522.05,310.63C522.15,311.96 521.33,312.99 520.51,313.91C516.31,314.01 514.77,312.48 514.86,308.5C510.25,309.77 512.77,314.19 516.61,315.55C519.79,316.68 522.67,315.34 525.54,314.22C525.31,311.48 526.52,311.1 526.57,310.52C527.16,312.54 526.01,313.83 526.26,314.22C526.67,313.81 527.29,313.5 527.59,313.09C532,307.21 517.9,297.7 514.86,308.47Z" style="fill-rule:nonzero;"/>
        <path d="M545.76,313.61C546.07,309.61 546.89,305.6 544.32,302.11C545.35,305.91 544.63,309.91 545.76,313.61Z" style="fill-rule:nonzero;"/>
        <path d="M527.9,285.79C531.08,287.23 533.44,289.07 536.21,291.13C533.34,287.02 531.39,285.79 527.9,285.79Z" style="fill-rule:nonzero;"/>
        <path d="M544.22,299.85C544.01,296.98 542.37,295.13 540.63,293.28C539.89,294.02 539.21,292.69 544.22,299.85Z" style="fill-rule:nonzero;"/>
        <path d="M537.75,331.78C538.78,331.16 539.19,330.55 539.7,329.21C538.57,330.13 538.06,330.65 537.75,331.78Z" style="fill-rule:nonzero;"/>
        <path d="M545.04,318.33C545.35,317.92 545.45,317.61 545.04,317.2L545.04,318.33Z" style="fill-rule:nonzero;"/>
        <path d="M618.23,94.65C622.44,94.03 625.21,91.57 628.91,89.72C623.88,89 619.77,90.85 618.23,94.65Z" style="fill-rule:nonzero;"/>
        <path d="M640.72,88.49C637.02,87.98 633.33,87.46 630.35,90.65C633.94,90.64 637.02,88.18 640.72,88.49Z" style="fill-rule:nonzero;"/>
        <path d="M613.41,76.48C611.87,78.53 612.08,80.59 613.51,83.56C613.92,80.69 614.03,78.53 613.41,76.48Z" style="fill-rule:nonzero;"/>
        <path d="M603.55,90.03C601.91,88.18 600.06,88.08 598.01,88.18C599.35,89.62 600.99,90.64 603.55,90.03Z" style="fill-rule:nonzero;"/>
        <path d="M614.23,68.37C612.69,70.53 613,72.68 612.69,74.63C613.82,72.88 615.05,71.24 614.23,68.37Z" style="fill-rule:nonzero;"/>
        <path d="M613.2,89.41L613.2,85.1C611.05,86.64 611.77,88.08 613.2,89.41Z" style="fill-rule:nonzero;"/>
        <path d="M633.02,540.16C625.57,537.89 622.11,533.53 617.31,537.8C620.09,539.19 622.91,535.6 630.65,543.34C633.86,546.55 634.68,547.72 635.17,546.01C635.06,545.92 632.18,542.52 632.09,542.42C634.81,543.33 633.36,542.94 641.43,559.46C643.89,565.78 643.5,569.31 648.62,569.31C647.39,567.56 645.34,567.15 645.03,565.51C644.72,563.87 644.22,562.43 643.59,560.89C635.73,541.62 635.9,541.04 633.02,540.16Z" style="fill-rule:nonzero;"/>
        <path d="M240.57,439.26C239.65,443.88 237.59,448.4 238,453.32C241.39,448.08 243.34,441 242.21,438.33C241.49,438.33 240.67,438.54 240.57,439.26Z" style="fill-rule:nonzero;"/>
        <path d="M323.21,443.77C327.42,449.62 328.96,456.6 332.04,462.86C332.34,456.91 326.29,443.88 323.21,443.77Z" style="fill-rule:nonzero;"/>
        <path d="M321.87,424.06C321.05,426.42 321.25,432.48 322.28,436.07C324.03,432.38 323.82,425.6 321.87,424.06Z" style="fill-rule:nonzero;"/>
        <path d="M256.07,426.42C255.56,430.22 255.56,433.5 255.76,437.1C258.53,434.12 258.74,429.61 256.07,426.42Z" style="fill-rule:nonzero;"/>
        <path d="M248.99,436.38C252.07,433.51 250.84,429.91 250.22,426.53C249.6,429.71 247.96,432.89 248.99,436.38Z" style="fill-rule:nonzero;"/>
        <path d="M318.79,440.18C319.1,442.85 320.02,444.29 322.18,444.7C321.87,442.95 321.26,441.31 318.79,440.18Z" style="fill-rule:nonzero;"/>
        <path d="M319.31,555.36C320.13,551.36 320.13,550.23 318.9,548.48C318.18,551.97 318.18,552.28 319.31,555.36Z" style="fill-rule:nonzero;"/>
        <path d="M236.26,462.25C234.62,465.02 234.62,466.05 236.16,467.9C236.67,465.95 236.36,464.1 236.26,462.25Z" style="fill-rule:nonzero;"/>
        <path d="M319.31,526.82C318.39,530.41 318.28,533.29 318.69,536.26C318.28,533.39 319.92,530.62 319.31,526.82Z" style="fill-rule:nonzero;"/>
        <path d="M310.48,433.2C310.79,430.53 310.38,428.89 309.04,427.45C309.25,429.2 307.91,431.25 310.48,433.2Z" style="fill-rule:nonzero;"/>
        <path d="M258.53,445.11C258.94,442.85 258.22,441.41 257.2,439.98C256.79,441.62 257.2,443.16 258.53,445.11Z" style="fill-rule:nonzero;"/>
        <path d="M253.2,532.16C255.15,530.31 254.33,528.05 254.33,526C252.48,527.74 253.61,530.1 253.2,532.16Z" style="fill-rule:nonzero;"/>
        <path d="M249.6,420.78C249.91,419.55 249.7,418.32 248.37,417.29C248.68,420.97 248.46,421.16 249.6,420.78Z" style="fill-rule:nonzero;"/>
        <path d="M254.43,526C255.15,524.46 256.07,522.92 254.94,521.18C254.22,522.71 253.71,524.25 254.43,526Z" style="fill-rule:nonzero;"/>
        <path d="M237.8,493.25C237.49,493.66 237.49,493.97 237.9,494.69C238.31,494.07 238.41,493.56 237.8,493.25Z" style="fill-rule:nonzero;"/>
        <path d="M237.49,484.42C236.57,485.75 236.57,486.58 237.39,487.6C238.11,486.58 238,485.66 237.49,484.42Z" style="fill-rule:nonzero;"/>
        <path d="M263.87,419.55C265.2,418.73 265.31,417.8 265.41,416.57C264.39,417.29 263.77,417.9 263.87,419.55Z" style="fill-rule:nonzero;"/>
        <path d="M304.52,504.85C304.93,506.49 305.14,507.42 306.78,507.42C306.58,506.19 306.17,505.47 304.52,504.85Z" style="fill-rule:nonzero;"/>
        <path d="M236.26,474.67C235.34,475.49 235.64,476.21 236.05,477.13C237.08,476.31 237.29,475.6 236.26,474.67Z" style="fill-rule:nonzero;"/>
        <path d="M256.89,425.5C257.1,424.68 257.71,423.96 256.58,423.34C256.07,424.06 255.66,424.78 256.89,425.5Z" style="fill-rule:nonzero;"/>
        <path d="M316.02,504.03C315.3,504.95 315.92,505.36 316.64,505.78C317.05,504.95 317.05,504.34 316.02,504.03Z" style="fill-rule:nonzero;"/>
        <path d="M256.79,515.12C257.1,514.71 257.3,514.3 256.89,513.89C256.38,514.3 256.28,514.6 256.79,515.12Z" style="fill-rule:nonzero;"/>
        <path d="M365.91,265.77C371.23,272.71 371.18,272.94 374.43,286.71C377.07,297.9 379.33,304 375.05,284.66C373.15,276.08 371.75,269.57 365.91,265.77Z" style="fill-rule:nonzero;"/>
        <path d="M362.42,212.6C360.43,201.64 359.57,210.98 358.01,200.49C357.77,198.85 357.8,197.21 356.88,195.67C354.62,199.76 356.77,206.44 362.42,212.6Z" style="fill-rule:nonzero;"/>
        <path d="M357.49,134.27C353.9,131.5 350.41,131.81 346.81,132.63C354.53,133.99 355.07,134.8 357.49,134.27Z" style="fill-rule:nonzero;"/>
        <path d="M369.4,217.83C367.04,216.29 367.86,212.9 365.6,210.64C365.91,214.03 366.42,216.5 369.4,217.83Z" style="fill-rule:nonzero;"/>
        <path d="M365.6,239.08C362.73,238.26 362.73,238.26 359.95,240.41C362.01,240.21 363.65,240.52 365.6,239.08Z" style="fill-rule:nonzero;"/>
        <path d="M341.79,151.31C344.36,151.31 344.36,151.31 345.38,148.23C343.84,149.46 342.3,149.57 341.79,151.31Z" style="fill-rule:nonzero;"/>
        <path d="M359.03,255.51C358.11,253.76 357.39,252.33 356.67,250.89C356.67,253.76 356.67,253.76 359.03,255.51Z" style="fill-rule:nonzero;"/>
        <path d="M353.39,165.07C352.16,165.79 351.95,166.71 352.26,167.84C353.18,167.22 353.8,166.4 353.39,165.07Z" style="fill-rule:nonzero;"/>
        <path d="M354,162.3C355.64,161.48 355.85,160.35 355.85,159.02C354.72,159.73 354,160.55 354,162.3Z" style="fill-rule:nonzero;"/>
        <path d="M359.65,256.94C359.86,257.35 360.06,257.56 360.47,257.97C360.47,257.25 360.47,256.84 359.65,256.94Z" style="fill-rule:nonzero;"/>
        <path d="M353.49,208.49C353.18,208.7 353.18,209 353.59,209.82C353.9,209 354.31,208.59 353.49,208.49Z" style="fill-rule:nonzero;"/>
        <path d="M370.53,337.63C362.51,337.52 359.27,349.82 371.97,350.15C378.9,350.33 378.97,337.75 370.53,337.63ZM371.97,346.35C370.12,349.44 364.72,348.44 366.73,342.14C369.84,340.59 373.5,342.97 371.97,346.35Z" style="fill-rule:nonzero;"/>
        <path d="M209.67,333.21C206.91,331.56 205.05,330.82 199.82,336.29C196.45,339.81 197.96,342.49 201.98,343.99C204.96,345.1 207.52,343.67 210.3,343.17C214.23,342.46 215.68,336.81 209.67,333.21ZM205.46,342.76C201.56,342.25 200.53,341.22 200.22,337.73C201.07,336.88 201.05,337.19 202.99,336.09C208.13,338.24 208.44,339.17 205.46,342.76ZM211.21,342.15C210.7,341.02 211.11,340.2 211.93,339.38C212.34,340.5 212.24,341.43 211.21,342.15Z" style="fill-rule:nonzero;"/>
        <path d="M231.13,341.94C231.44,338.04 232.05,334.14 229.59,330.55C230.82,334.24 229.79,338.24 231.13,341.94Z" style="fill-rule:nonzero;"/>
        <path d="M225.58,322.13C226.5,324.59 228.45,326.34 229.69,328.49C229.28,325.72 227.94,323.67 225.58,322.13Z" style="fill-rule:nonzero;"/>
        <path d="M214.19,313.81C213.89,314.7 212.73,313.75 219.12,317.51C217.99,315.35 216.34,314.22 214.19,313.81Z" style="fill-rule:nonzero;"/>
        <path d="M230.51,347.07L230.51,346.45C230.41,346.15 230,346.56 230.51,347.07Z" style="fill-rule:nonzero;"/>
        <path d="M222.4,361.03C223.02,361.03 223.32,360.62 223.32,359.9C223.02,360.11 222.3,360.31 222.4,361.03Z" style="fill-rule:nonzero;"/>
        <path d="M224.76,358.36C225.07,358.15 225.27,357.85 225.48,357.54C224.86,357.44 224.66,357.75 224.76,358.36Z" style="fill-rule:nonzero;"/>
        <path d="M303.29,123.18C307.7,122.87 310.37,119.79 313.76,118.46C309.76,117.44 305.45,119.28 303.29,123.18Z" style="fill-rule:nonzero;"/>
        <path d="M315.2,119.8C319.2,119.39 322.18,116.62 325.98,117.44C323,115.59 317.56,116.72 315.2,119.8Z" style="fill-rule:nonzero;"/>
        <path d="M298.57,111.28C299.29,109.23 299.29,107.17 298.67,105.02C297.13,107.07 297.44,109.22 298.57,111.28Z" style="fill-rule:nonzero;"/>
        <path d="M282.35,116.82C284.3,118.05 286.15,118.87 288.3,118.77C286.35,116.61 285.43,116.41 282.35,116.82Z" style="fill-rule:nonzero;"/>
        <path d="M297.95,103.37C299.08,101.62 300.21,99.88 299.49,97.62C297.95,99.37 298.16,101.42 297.95,103.37Z" style="fill-rule:nonzero;"/>
        <path d="M298.16,118.36C299.08,116.82 298.57,115.59 298.57,113.64C296.41,115.49 297.13,116.72 298.16,118.36Z" style="fill-rule:nonzero;"/>
        <path d="M249.3,561.11C246.22,560.49 240.27,560.9 238.73,562.03C243.18,565.21 245.86,560.84 248.48,565.31C249.08,566.34 250.64,567.77 251.46,565.1C249.71,564.29 250.12,562.23 249.3,561.11Z" style="fill-rule:nonzero;"/>
        <path d="M315.41,570.86C315.2,569.83 316.63,568.52 315,567.47C314.07,566.87 313.46,567.37 312.84,567.98C313.35,573.22 314.17,574.24 317.66,573.52C317.46,572.29 316.12,572.19 315.41,570.86Z" style="fill-rule:nonzero;"/>
    </g>
</svg>
