<?xml version="1.0" encoding="UTF-8" standalone="no"?>
<!DOCTYPE svg PUBLIC "-//W3C//DTD SVG 1.1//EN" "http://www.w3.org/Graphics/SVG/1.1/DTD/svg11.dtd">
<svg width="100%" height="100%" viewBox="0 0 900 600" version="1.1" xmlns="http://www.w3.org/2000/svg" xmlns:xlink="http://www.w3.org/1999/xlink" xml:space="preserve" xmlns:serif="http://www.serif.com/" style="fill-rule:evenodd;clip-rule:evenodd;stroke-linejoin:round;stroke-miterlimit:2;">
    <g>
        <path d="M430.29,489.83C429.92,490.58 430.17,490.52 429.87,489.51C430.42,489.87 430.54,489.83 430.29,489.83Z" style="fill-rule:nonzero;"/>
        <path d="M122.28,440.44C122.08,433.09 126.17,429.39 138.18,414.79C135,407.48 130.87,400.8 134.15,392.64C132.35,392.75 130.97,394.12 128.32,394.12C131.92,391.89 134.26,389.56 135.32,386.28C133.73,385.11 131.3,385.11 131.19,382.57C131.09,380.45 133.1,380.45 134.48,379.6C132.47,377.16 130.66,374.83 131.72,371.01C134.48,373.45 135.11,377.16 138.72,378.32C140.57,368.62 156.96,369.21 163.95,362.53C165.62,361.28 160.1,364.25 179,358.71C185.24,356.88 183.17,352.44 186.63,352.67C188.86,353.41 187.27,355.21 188.43,356.7C189.7,353.84 193.02,353.54 194.58,351.08C196.31,348.35 200.2,351.19 201.26,348.11C203.59,348.11 204.33,350.23 206.35,350.65C206.46,348.11 204.97,345.56 206.99,342.91C209,344.82 211.12,343.33 213.03,343.44C214.43,345.93 210.05,352.8 217.48,342.27C224.5,340.4 222.02,348.14 226.17,348.42C226.7,349.9 225.64,350.86 225.75,351.81C226.28,352.34 227.23,351.39 227.66,352.66C225.22,356.9 222.36,361.03 218.97,364.74C226.39,374.55 238.22,374.76 235.4,384.24C240.06,386.89 244.54,390.02 249.6,392.08C254.18,393.94 254.9,396.11 253.2,400.77C252.06,402.48 256.21,404.17 257.02,407.13C257.14,407.55 255.43,408.4 255.96,409.89C257.02,410.31 258.71,410.21 259.25,411.69C261.04,416.68 263.55,421.17 267.2,425.04C268.28,426.19 267.52,428.43 268.9,429.17C263.49,438.99 251.85,441.87 255.44,450.16C287.39,456.86 288.88,456.23 294.23,459.59C312.25,470.89 351.34,483.72 372.66,482.27C391.33,481 395.53,489.74 407.42,486.51C417.25,483.84 421.75,489.5 429.25,486.4C433.82,484.52 438.9,484.7 443.13,488.41C443.13,504.05 439.03,500.8 440.06,502.08C439.46,503.49 438.65,504.57 438.15,503.13C434.58,503.12 431.01,503.02 427.34,502.82C428.82,505.36 432,504.41 434.02,506.95C426.58,506.02 427.31,505.45 426.67,509.82C428.47,509.86 429.62,510.49 431.26,511.61C429.24,511.72 427.78,511.98 426.65,510.05C425.63,517.79 429.66,514.88 430.84,516.8C429.57,518.5 427.66,515.85 426.49,517.54C426.7,519.34 429.14,517.96 429.46,519.66C428.72,520.72 427.02,519.55 426.28,521.04C426.03,526.96 425.38,532.89 424.61,538.96C426.53,535.73 429.52,536.81 431.69,535.98C430.52,534.07 427.45,534.81 427.24,532.38C428.3,530.58 429.89,531.85 431.06,531C430.32,529.2 427.24,529.62 427.56,526.87C429.36,524.86 431.91,525.92 434.13,525.7C432.75,526.34 431.37,527.08 430,527.71C431.7,530.04 434.88,530.04 435.94,532.37C434.88,533.96 433.4,532.79 432.12,533.54C433.18,535.34 436.04,534.71 436.57,537.57C432.68,538.21 428.99,539.35 424.58,539.16C424.38,540.74 424.17,542.33 423.95,543.93L436.88,543.93C433.06,547.32 428.08,544.78 423.95,546.69C423.95,551.99 425.12,556.87 426.18,561.85C429.89,562.17 433.6,561.53 437.31,563.12C433.71,564.39 430.21,563.65 426.82,564.71C427.24,566.51 427.03,568.42 428.2,569.8C430.53,569.16 432.55,567.68 435.3,569.38C427.61,573.73 428.62,567.25 428.62,583.16C433.39,583.58 437.74,583.37 442.5,582.95C441.55,576.38 440.7,570.02 439.74,563.77C442.6,566.84 445.04,585.71 443.34,586.56C442.28,586.14 443.13,584.65 441.64,584.23C437.72,586.24 433.05,585.5 428.6,586.24C430.51,587.41 432.42,587.3 434.43,587.3C446,587.3 439.31,587.09 438.67,589.21C439.2,589.85 440.58,589.21 440.9,590.38C437.51,592.82 428.49,593.9 424.68,592.18C419.14,589.68 401.33,588.83 393.09,592.07C392.46,592.38 386.61,591.87 372.32,594.19C342.93,598.97 303.44,589.58 302.58,591.75C301.24,595.13 265.11,592.68 250.54,584.75C247.03,582.84 231.62,581.39 217.26,573.3C201.6,564.48 201.57,559.42 190.97,551.68C185.22,547.48 175.33,537.57 173.91,530.27C172.54,523.27 167.19,511.25 160.45,507.69C142.52,498.24 135.95,487.03 127.8,484.05C113.97,479.05 122.68,455.3 122.28,440.44ZM440.57,496.08C441.84,495.34 440.99,494.38 441.74,492.79C437.95,495.9 426.37,492.7 440.57,496.08ZM427.43,499.58C430.82,501.17 435.17,499.69 438.35,502.44C439.37,501.42 439.73,502.59 439.73,499.57C435.71,498.79 431.43,499.98 428.05,497.42C426.69,496.74 427.6,496.67 428.57,495.73C428.45,496.19 428.31,496.63 428.14,497.08C428.33,496.63 428.5,496.17 428.62,495.69C431.28,493.03 429.6,490.94 430.45,489.83C434.28,491.96 437.92,491.2 441.76,491.2C439.96,488.97 434.23,488.13 429.15,489.08C427.24,491.52 426.84,496.65 427.43,499.58ZM429.02,589.35C429.02,588.29 428.38,588.29 427.85,587.87C427.32,589.67 428.27,589.14 429.02,589.35ZM138.28,394.54C136.14,395.25 136.42,398.15 138.17,395.81C138.39,395.39 139.03,395.07 138.28,394.54ZM148.56,386.38C147.5,387.23 147.61,387.76 148.45,388.18C149.41,387.76 148.99,387.23 148.56,386.38ZM154.61,401.86C155.67,404.09 157.68,403.87 159.59,404.09C158.1,403.02 157.68,399.84 154.61,401.86ZM165.74,403.13C165.74,405.36 165.74,405.36 168.81,405.78C168.07,404.61 167.01,403.98 165.74,403.13ZM171.03,390.62C169.97,392.95 172.2,393.38 173.15,394.22C173.15,392.74 172.62,391.58 171.03,390.62ZM173.15,389.24C174.74,392.21 176.22,395.07 178.13,398.57C178.45,390.94 177.61,389.46 173.15,389.24ZM181.74,415C183.22,417.23 184.5,418.6 187.57,419.03C185.56,417.22 184.18,416.06 181.74,415ZM184.5,362.11C184.61,363.17 185.56,362.96 186.09,363.38C187.73,361.53 185.96,359.54 184.5,362.11ZM187.68,381.51C186.51,383.52 183.44,380.66 182.38,383.95C186.11,383.94 189.96,384.44 187.68,381.51ZM188.74,401.22C187.04,401.86 187.68,402.7 188.74,404.08C189.27,402.81 189.48,402.07 188.74,401.22ZM191.38,377.69C196.49,380.24 194.96,379.62 195.83,378.75C194.88,377.27 193.19,377.48 191.38,377.69ZM190.33,410.55C190.86,413.09 190.44,416.06 193.83,417.44C193.4,414.58 191.49,412.77 190.33,410.55ZM196.26,358.4C195.09,358.61 194.88,359.14 194.88,359.88C196.37,360.1 196.26,359.35 196.26,358.4ZM196.79,403.87C197.85,403.23 197.11,402.28 197.43,401.54C195.6,401.54 195.44,403.68 196.79,403.87ZM197.21,395.39C197.85,392.95 198.48,390.51 199.12,387.97C196.9,390.09 195.62,392.32 197.21,395.39ZM199.02,377.8C196.79,380.34 197.54,382.68 196.79,384.69C198.59,382.99 198.91,380.87 199.02,377.8ZM204.85,353.63C203.26,353.1 204.64,355.75 203.37,355.22C200.86,356 200.02,350.81 197.22,356.81C200.29,355.64 202.84,355.86 204.64,358.61C206.44,356.49 206.75,355.01 204.85,353.63ZM206.01,368.26C202.72,368.68 201.66,371.33 200.18,373.67C202.94,372.81 204.21,370.16 206.01,368.26ZM202.73,375.57C204.21,375.46 204.74,374.83 204.96,373.66C203.68,373.98 203.26,374.62 202.73,375.57ZM209.19,346.11C207.28,346.64 208.13,347.7 208.45,348.97C209.72,348.12 209.93,347.27 209.19,346.11ZM424.78,491.31C416.83,491.03 414.67,486.27 413.17,489.82C412.83,489.62 408.05,488.4 406.65,492.48C405.2,490.02 398.18,489.06 401.56,495.45C404.85,493.75 408.45,494.28 411.84,494.07C412.92,493.2 412.57,491 413.16,489.82C415.13,490.99 413.53,492.63 413.53,494.18C416.92,495.56 420.74,495.66 423.71,498.84C424.14,495.98 424.35,493.86 424.78,491.31ZM132.24,483.15C134.54,484.23 140.93,490.39 140.93,488.57C139.11,485.97 136.17,484.07 136.37,480.29C138.07,484.53 142.2,486.86 144.32,490.78C143.71,490.69 143.17,490.52 142.2,490.36C143.03,490.88 143.46,492.19 144.77,491.85C165.93,509.58 166.02,502.35 171.88,516.01C178.18,530.7 175.46,534.68 191.81,547.38C206.4,558.72 206.5,564.86 223.82,572.71C229.09,575.1 224.54,572.03 243.64,574.51C251.33,575.51 271.93,568.98 276.6,567.3C285.72,564.03 292.27,558.18 293.77,547.8C295.34,536.99 294.81,526.33 290.8,516C288.26,509.46 267.73,490.27 261.33,485.69C252.28,479.21 227.77,468.44 217.77,470.53C215.76,470.95 213.74,470.21 211.73,469.68C210.78,469.36 209.93,468.83 210.67,466.82C215.44,468.3 220.43,467.6 225.19,466.71C233.47,465.18 241.4,467.37 249.46,468.41C250.98,468.61 279.53,470.06 280.41,470.11C280.62,472.23 282.1,472.77 283.91,473.18C288.14,474.15 292.39,475.26 296.73,475.83C304.7,476.89 288.72,478.85 273.31,472.33C267.56,469.9 257.62,474.17 248.72,472.54C247.02,472.23 245.33,471.48 242.47,472.22C262.29,477.84 277.34,488.33 286.77,505.29C288.04,506.24 288.57,504.87 289.63,505.4C290.48,506.99 291.35,508.78 292.39,510.49C301.95,526.28 304.12,550.56 290.16,563.59C280.32,572.78 271.9,573.3 260.38,576.73C255.91,578.06 251.58,579.49 246.92,579.17C246.5,580.12 247.13,580.23 247.66,580.34C274.9,585.98 267.92,586.89 312.74,588.29C334.89,588.98 348.75,593.19 354.71,589.77C356.19,588.92 358.53,588.8 360.33,589.03C367.12,589.91 373.58,588.22 380.15,587.76C382.91,587.56 384.81,586.06 385.56,582.99C394.89,586.81 404.53,585.21 414.07,585.53C417.14,585.63 420.11,587.01 423.72,586.48C426.38,565.96 423.54,574.85 420.12,550.02C412.18,548.54 405.55,543.24 397.52,542.22C405.01,542.87 412.51,543.34 419.91,546.21C421.29,533.28 423.62,520.35 423.41,507.42C422.88,506.25 421.5,506.57 421.08,505.51C421.08,503.07 423.97,507.03 423.41,501.48C422.03,500.63 420.55,499.45 418.96,498.83C412.77,496.41 400.97,496.66 400.44,499.1C400.39,498.99 387.92,495.92 386.21,495.66C380.59,494.81 375.29,494.71 371.37,500.11C372.22,494.49 373.91,492.27 379.43,492.37C385.79,492.48 392.47,493.01 398.4,496.29C400.2,494.59 398.82,492.69 398.29,490.78C391.4,487.49 384.09,485.48 376.35,485.48C375.4,486.12 375.71,487.81 374.12,488.34C372.74,488.45 374.01,486.64 373.06,486.22C363.63,485.8 354.3,483.78 344.65,483.57C343.37,485.59 353.53,486.16 331.83,484.31C333.95,483.46 336.18,484.2 337.77,482.51C329.93,477 319.81,476.86 311.91,471.49C309.89,470.12 303.05,469.79 298.87,466.72C287.54,458.39 279.29,459.39 256.47,453.05C255.62,455.49 257.85,455.06 258.48,455.91C258.27,458.24 258.37,458.45 263.89,465.98C260.18,463.65 255.19,466.83 252.34,463.86C249.9,461.32 246.3,460.57 244.28,457.82C245.2,456.9 242.8,455.91 255.2,462.8C254.47,455.83 251.41,449.67 251.89,443.13C249.97,443.43 248.19,444.75 245.23,444.04C250.44,441.91 252.19,440.89 252.12,442.49C256.04,437.5 271.56,430.28 262.4,423.16C253.48,416.22 262.17,413.39 253.92,412.56C252.65,413.94 253.18,416.48 250.63,417.12C249.04,416.06 249.49,415.02 250.63,413.62C255.84,407.2 253.88,406.76 249.89,403.34C247.42,407.97 242.79,406.2 243.21,403.02C244.16,401.85 244.91,403.34 245.97,403.02C247.24,402.38 248.1,400.91 249.47,400.05C255.59,396.21 245.77,392.37 238.13,389.13C226.95,384.4 236.57,380.04 229.01,376.2C226.5,374.93 217.81,368.92 217.14,366.02C215.76,365.49 215.02,367.29 213.43,366.76C217.35,361.14 222.65,356.27 221.49,348.64C220.6,355.65 210.63,367.89 206.86,372.91C208.24,373.86 208.77,371.96 209.83,372.38C208.66,376.73 208.45,376.94 202.73,380.12C204.71,387.8 201.32,382.9 198.81,417.11C198.36,423.24 203.05,431.32 201.57,433.96C195.49,429.98 191.47,418.57 186.63,422.51C188.43,424.63 187.59,428.64 191.7,429.18C191.7,428.83 191.9,427.79 193.42,428.55C194.9,429.4 196.07,430.46 196.07,432.58C193.63,434.06 193.42,436.82 192.78,439.05C206.11,458.8 199.82,450 197.97,449.86C195.22,456.28 206.07,451.71 215.78,485.68C218.19,494.12 222.05,491.9 223.52,497.76C218.43,495 214.83,491.82 211.97,487.16C214.3,485.78 213.36,483.76 212.39,482.07C208.46,475.23 194.92,451.46 186.74,447.41C184.31,446.21 186.47,443.35 185.15,441.37C184.41,437.34 181.65,434.06 180.49,429.82C181.66,429.5 181.23,426.53 183.88,428.02C183.77,431.41 184.83,434.27 186.85,436.82C186.43,430.67 185.34,424.76 180.7,420.18C178.67,418.18 177.41,415.52 175.29,413.5C169.04,407.56 156.22,406.51 148.79,412.02C137.66,420.27 140.53,415.71 137.03,420.71C128.7,432.57 126.52,433.41 125.69,441.48C123.24,465.2 118.54,476.69 132.24,483.15ZM189.69,435.99C190.43,435.46 189.9,435.04 189.48,434.51C189.27,435.03 189.37,435.56 189.69,435.99ZM192.76,431.43C192.44,430.58 192.12,430.05 192.02,429.31C191.91,430.05 191.7,430.79 192.76,431.43Z" style="fill-rule:nonzero;"/>
        <path d="M80.41,239.8C84.2,234.83 86.51,227.8 89.63,223.9C92.84,219.89 92.81,219.98 89.52,216.16C90.16,214.57 89.63,212.87 89.2,211.18C87.22,203.25 93.22,206.22 89.2,196.02C88.3,193.32 84.6,189.21 86.55,187.86C88.56,186.91 88.99,189.03 90.58,188.39C88.67,183.3 89.1,178.11 90.16,172.7C91.01,171.32 93.02,171.43 94.51,170.26C92.5,168.46 89.21,168.67 88.26,165.38C91.23,164.96 90.49,161.88 91.86,160.5C93.45,160.61 93.87,162.51 95.46,162.51C95.01,158.74 90.23,155.24 95.46,152.86C98,152.22 100.76,153.92 102.99,151.91C108.2,155.63 105.73,146.89 113.38,166.22C125.59,165.02 130.73,155.03 138.71,161.98C158.13,150.74 156.59,149.38 162.56,155.62C164.57,156.15 166.16,154.24 168.6,154.77C169.55,154.98 169.55,156.78 171.14,157.21C172.2,155.73 173.99,154.7 175.8,155.3C185.71,158.62 187.75,153.08 191.59,155.62C192.67,156.33 193.6,155.41 194.66,155.83C194.98,158.69 197.31,160.92 197.42,163.89C197.94,178.34 208.22,180.54 212.58,177.99C214.7,180.32 218.3,180.43 220.53,182.76C230.17,175.39 261.88,161.08 261.88,164.5C257.26,167.33 268.23,161.22 220.43,184.88C241.73,179.47 261.66,181.59 279.25,195.8C289.39,189.46 286.52,190.34 288.26,189.76C288.9,192.41 286.38,192.54 285.4,193.68C280.29,199.6 279.06,193.3 292.08,208.84C293.99,209.16 294.52,207.46 295.9,206.93C296.64,208.94 294.63,209.69 294.1,211.49C298.55,216.58 299.76,223.45 302.37,229.72C303.34,232.05 302.49,235.23 302.16,238.09C299.52,261.17 295.5,261.39 282.87,267.13C301.1,268.09 384.25,258.65 402.22,255.89C401.61,254.66 390.65,248.75 406.57,254.51C407.74,254.93 408.69,255.57 409.96,255.57C441.71,255.57 435.73,257.42 440.8,256.84C443.69,236.94 440.2,243.78 437.2,219.74C431.37,220.16 427.24,215.39 421.73,214.33C426.92,214.86 432.12,214.33 437.1,216.77C438.37,203.42 440.81,190.38 440.6,176.81C433.29,175.22 426.08,177.55 418.87,176.07C445.57,169.6 439.21,183.39 441.76,160.91C438.16,160.59 434.66,160.7 431.16,161.33C402.83,166.47 397.67,155.93 370.53,154.97C363.32,154.72 356.22,152.76 348.91,153.59C336.73,154.97 329.6,160.05 314.99,157.09C305.34,155.13 293.98,155.08 292.94,155.82C285.1,160.59 275.69,160.91 267.4,164.19C264.9,165.18 259.45,164.83 264.33,162.81C273.31,159.1 299.26,150.94 308.95,152.85C329.75,156.94 347.27,149.71 357.07,150.41C405.02,153.85 414.04,163.75 432.75,157.51C437.93,155.78 440.96,158.14 445.79,156.34C450.75,154.49 455.86,154.33 460.42,158.04C460.68,169.97 456.24,175.02 457.03,169.49C451.65,168.45 450.22,170.4 444.84,166.82C444.08,166.06 448.1,165.39 447.18,159.64C451,161.65 454.81,161.23 458.84,161.02C457.04,158.9 451.42,158.05 446.23,159.01C444.29,161.72 444.11,168.33 444.86,169.5C448.13,170.97 452.78,169.58 455.57,172.36C457.12,171.15 456.74,171.66 457.27,171.93C456.1,174.05 456.1,174.05 455.26,172.67C455.96,171.97 454.56,172.97 444.45,172.14C445.83,174.79 449.11,173.73 450.81,175.96C448.48,176.38 446.36,174.9 444.24,176.07C444.03,177.49 443.9,178.67 443.82,179.68C445.71,179.79 446.77,180.42 448.25,181.37C446.14,181.69 444.77,181.89 443.82,179.71C443.19,187.97 446.6,183.67 447.85,186.35C446.37,187.52 444.56,185.29 443.4,186.99C444.04,188.47 445.94,187.41 446.47,188.9C445.73,190.07 444.03,188.79 443.29,190.28C442.97,197.81 441.91,205.33 440.96,213.39C455.78,213.39 453.89,213.07 453.89,214.34C449.86,216.35 445.09,214.34 440.96,216.04C440.75,221.34 442.13,226.32 443.08,231.3C465.54,232.55 448.07,233.15 443.5,234.16C444.56,235.96 443.82,237.98 445.41,239.35C447.53,238.18 449.65,237.65 452.83,238.5C444.6,243.49 445.62,235.73 445.62,252.7C450.39,253.02 454.84,252.81 459.19,252.49C459.46,247.84 456.18,236.44 457.18,232.67C459.62,236.7 461.95,255.25 460.25,256.09C459.3,255.67 460.04,254.18 458.66,253.76C454.63,255.77 449.97,255.03 445.52,255.77C449.44,257.68 453.68,256.09 457.71,257.04C456.97,257.89 455.8,257.78 455.48,258.84C456.01,259.48 457.39,258.84 457.81,260.32C452.4,263.29 446.79,263.08 441.49,261.59C429.57,258.24 400.95,258.82 389.13,260.85C373.02,263.62 356.59,262.53 340.37,265.73C300.41,273.6 260.41,269.63 268.3,267C274.24,265.73 279.54,263.09 285.15,260.96C292.9,258.01 298.97,249.41 297.97,239.87C296.09,221.86 286.82,211.42 274.12,198.32C257.54,181.21 216.51,180.23 191.13,204.57C190.39,205.21 189.75,206.27 188.06,205.63C195.59,195.77 206.61,190.79 216.68,184.33C213.51,181.72 203.13,181.34 198.34,176.7C194.18,167.33 197.6,153.07 184.14,159.11C178.52,161.63 175.38,154.27 172.8,160.38C173.54,162.18 176.4,163.03 174.71,166C170.68,164.52 171.95,158.47 167.4,157.52C166.13,157.94 164.54,158.37 162.63,159C165.83,163.11 162,167.13 159.24,164.83C159.88,163.56 160.08,161.55 159.77,158.89C158.83,150.73 155.52,154.87 143.45,162.92C134.67,168.77 137.01,158.84 127.66,164.09C123.44,166.46 118.97,168.44 113.88,168.97C112.94,169.6 114.77,172.17 112.19,172.04C112.32,175.18 113.58,178.01 115.04,180.84C116.31,179.99 114.72,178.72 116.1,177.98C119.07,180.63 119.6,184.13 118.64,188.37C126.02,189 148.87,219.79 159.98,204.9C161.25,207.23 158.28,208.61 159.34,210.52C162.31,210.73 165.27,210.75 168.14,211.16C181.89,213.12 183.97,202.39 186.58,203.1C186.26,207.45 183.19,209.88 180.22,212.53C181.7,214.12 184.99,212.74 185.52,215.6C183.53,218.68 172.26,212.76 163.16,214.65C152.78,216.8 142.08,216.5 131.68,219.1C112.12,223.99 94.41,215.27 87.06,235.21C85.51,239.41 81.55,240.42 81.76,248.46C82.02,258.45 92.24,266.63 99.99,270.61C111.61,276.59 112.33,279.91 118.75,279.2C120.98,275.17 126.28,277.72 128.93,274.54C127.13,273.69 124.9,274.96 122.99,272.31C127.12,273.37 129.88,271.14 132.64,270.83C134.44,271.36 132.96,272.84 134.12,273.27C140.83,271.35 148.27,270.88 156.38,268.29C178.93,261.09 188.61,270.58 191.67,270.62C230.92,271.2 216.02,266.63 237.25,267.23C259.93,267.87 259.53,267.32 260.67,269.03C252.61,269.67 244.89,270.96 236.93,269.45C233.97,268.89 230.69,269.37 227.81,270.83C196.73,286.6 182.35,262.8 162.2,270.94C153.6,274.41 144.82,276.24 135.6,276.77C131.78,281.12 126.17,281.22 121.08,282.28C111.56,284.27 110.15,279.62 95.22,271.26C82.87,264.39 74.1,248.08 80.41,239.8ZM458.48,163.17C456.04,165.08 453.39,163.38 450.42,163.91C452.96,165.5 455.61,164.97 457.84,166.24C458.8,165.18 458.59,164.33 458.48,163.17ZM446.19,258.98C446.08,258.34 445.77,258.03 445.02,257.92C444.6,259.09 445.13,259.3 446.19,258.98ZM92.71,164.97C92.39,167.09 93.88,166.88 94.94,167.41C94.93,165.82 94.3,165.18 92.71,164.97ZM136.38,205.24C136.38,203.97 135.53,203.76 134.37,203.33C134.47,205.03 135.21,205.46 136.38,205.24ZM132.14,211.92C132.03,210.75 130.97,210.75 130.13,209.59C130.44,211.92 130.44,211.92 132.14,211.92ZM128.74,201C129.72,200.02 130.12,201.32 123.65,194.85C124.61,197.72 125.88,200.26 128.74,201ZM119.74,195.07C118.79,192.42 117.3,191.57 115.5,190.94C116.34,192.63 117.62,193.69 119.74,195.07ZM114.54,183.09C114.12,184.04 114.33,184.68 115.18,185.32C115.5,184.58 115.6,183.83 114.54,183.09ZM111.79,207.58C113.27,206.1 113.38,204.08 115.18,202.81C114.12,202.07 113.7,201.75 113.38,201.54C112.42,201.75 111.36,205.99 111.79,207.58ZM114.97,193.58C112.74,193.69 112.74,193.69 111.15,196.65C112.32,195.7 113.48,194.75 114.97,193.58ZM112.32,187.12C112.64,184.05 111.37,181.82 110.62,179.06C109.45,181.82 109.98,184.05 112.32,187.12ZM109.24,167.83C110.42,171.23 112.2,171.31 112.2,171.76C113.21,170.75 108.8,157.26 100.33,155.76C105.21,158.82 107.6,163.08 109.24,167.83ZM97.9,184.47C98.43,183.41 97.69,183.09 96.84,182.67C96.63,183.94 96.74,184.68 97.9,184.47ZM101.19,175.35C100.77,172.7 99.39,171.96 97.06,172.59C96.11,173.65 98.54,173.86 97.8,174.71C97.27,176.51 95.57,176.19 94.83,177.25C94.94,178.42 94.83,179.69 96.21,180.75C96.63,177.79 97.8,175.57 101.19,175.35ZM94.3,194.75C96.12,195.15 96.8,192.31 93.98,192.31C93.56,193.37 93.77,194.01 94.3,194.75Z" style="fill-rule:nonzero;"/>
        <path d="M795.32,268.63C781.51,266.07 771.48,273.58 740.84,267.04C725.51,263.77 728.08,270.55 710.63,268.52C699.95,267.28 681.74,269.08 667.17,264.92C658.14,262.34 669.07,249.15 667.17,241.18C661.23,240.44 655.62,239.06 651.17,234.82C652.34,231.22 654.07,228.04 654.03,224.43C653.92,214.54 662,211.31 661.24,205.78C660.69,201.76 662.14,198.16 662.72,194.33C663.07,192 662.4,189.45 663.57,187.33C665.8,186.8 666.22,189.56 668.76,189.66C665.69,186.59 666.21,182.67 664.1,179.59C657.31,169.74 649.29,160.72 643.33,150.23C641.87,147.67 617.07,130.82 612.49,111.54C611.88,108.99 610.37,106.98 608.78,104.76C608.46,116.1 606.55,127.02 601.78,136.56C604.22,143.87 611.85,144.51 615.77,149.07C614.92,151.93 612.61,153.42 612.06,155.85C608.4,171.98 596.58,179.63 579.1,202.06C571.39,211.95 571.61,219.42 570.09,232.8C567.94,251.76 555.44,250.46 548.68,258.34C548.36,258.66 547.73,258.98 546.98,258.23C549.84,253.46 552.17,248.27 558,245.83C544.54,248.27 531.08,250.18 520.06,259.4C519.51,253.61 552.58,241.66 560.02,243.5C564.43,244.59 566.58,236.06 566.7,231.21C567.65,192.65 603.99,178.35 611.43,149.92C592.98,139.07 611.55,147.5 576.35,123.53C565.83,132.73 570.59,136.73 565.22,143.88C550.98,162.84 545.14,170.1 538.4,174.51C527.72,181.51 522.33,193.39 517.84,205.67C516.99,205.03 516.36,204.5 515.72,204.08C517.84,203.76 517.75,201.76 518.26,200.58C530.66,171.97 540.43,174.81 547.51,164.76C557.45,150.65 565.45,144.19 566.59,137.94C569.44,122.3 578.97,125.28 572.74,120.56C561.92,112.35 548.44,93.71 543.17,87.91C531.8,75.42 538.14,71.97 534.16,72.97C524.08,81.88 531.26,76.32 520.38,90.99C515.13,98.07 505.81,107.56 506.18,112.4C506.29,113.88 505.76,115.9 503.95,116.32C499.09,117.18 498.53,138.31 488.05,138.79C481.67,139.08 470.03,141.47 470.67,147.48C471.13,151.79 471.54,150.17 459.96,157.44C460.81,152.46 464.94,151.82 467.49,149.6C467.7,147.27 466.74,144.4 469.4,142.92C474.79,139.93 480.1,136.29 486.68,136.56C495.35,136.92 486.75,129.49 514.98,93.21C517.53,89.93 520.81,87.06 522.19,83.35C524.63,76.78 529.93,72.64 533.74,67.88C535.22,67.14 535.86,68.52 536.92,68.09C551.99,41.72 575.1,14.54 587.05,7.68C608.47,-4.62 606.43,1.85 611.64,0.68C622.56,-1.76 626.8,8.15 633.16,15.09C658.07,42.31 654.59,49.25 658.07,56.53C706.93,158.77 707.31,188.81 713.29,179.06C716.66,173.57 717.58,177.94 724.52,184.89C725.47,185.74 726.85,186.69 725.16,188.39C721.77,186.91 719.65,183.51 716.57,180.97C714.78,186.65 710.27,181.95 718.16,194.54C719.22,196.23 720.6,198.36 716.99,200.48C716.04,194.54 711.93,190.71 709.25,186.07C705.15,178.95 702.35,171.13 698.44,164.02C692.42,153.07 704.03,168.45 668.76,90.99C662,76.14 657.32,60.41 650.42,45.63C649.38,43.4 647.44,41.82 646.29,40.01C640.95,31.66 636.26,22.91 629.33,15.63C626.87,13.05 624.1,3.34 614.92,3.34C603.59,3.34 604.25,2.22 599.76,4.08C584.55,10.38 579.26,16.96 576.44,20.93C567.96,32.91 557.56,41.02 544.54,61.84C542.62,64.91 540.62,68.09 537.54,70.64C547.72,90.46 563.3,105.4 580.15,119.61C581.74,114.52 583.54,110.07 587.68,106.89C591.39,113.14 587.57,117.6 583.97,122.26C589.8,125.65 594.89,129.47 599.34,134.66C609.01,111.8 605.13,122.66 605.06,112.72C605.01,105.3 606.76,97.88 604.85,90.36C603.69,85.8 605.27,81.14 607.29,76.58C611.99,82.62 604.47,79 614.07,105.83C627.67,143.82 637.35,129.66 657.21,163.28C658.05,164.7 673.15,182.27 676.92,202.6C677.35,204.93 678.19,207.26 679.89,209.38C682.22,208.64 684.77,209.49 687.2,208.64C688.05,205.67 686.99,202.6 687.84,199.31C689.96,202.17 690.38,205.14 690.91,208.21C697.48,208.21 703.52,206.51 709.25,204.08C709.04,201.43 707.24,199.52 707.34,196.77C709.46,198.47 709.67,201.12 711.26,202.71C714.33,202.82 716.77,199.42 720.59,201.54C709.36,210.44 696.74,213.2 682.75,213.2C687.41,217.55 693.24,220.19 699.28,221.57C707.29,223.41 706.86,219.94 715.07,214.36C718.07,212.32 722.98,204.34 721.22,194.33C720.15,188.26 728.26,187.78 730.97,188.92C732.56,192.1 735.21,194.75 737.44,197.51C740.51,197.09 743.27,199.1 746.34,197.19C747.4,202.92 752.97,200.94 759.16,208.11C763.08,212.64 766.37,209.12 771.03,209.7C776.97,210.44 782.9,211.4 788.84,212.14C794.78,212.88 799.58,219.36 797.85,226.13C797.23,228.57 795.09,229.42 793.82,231.22C800.29,232.81 806.75,230.05 812.69,232.17C814.17,237.26 819.16,238.53 821.7,242.66C818.22,260.98 800.71,269.63 795.32,268.63ZM665.91,190.72C665.5,195.94 663.53,209.21 660.19,213.72C653.56,222.66 658.78,225.92 654.47,233.12C657.54,236.3 660.41,237.36 667.4,238.1C667.72,232.8 669.27,228.22 671.75,223.9C675.81,216.81 669.17,208.85 674.51,202.49C674.28,196.87 669.19,195.07 665.91,190.72ZM743.49,203.12C741.58,202.27 742.22,198.77 738.83,199.62C741.9,202.69 743.92,206.51 748.05,208.95C748.47,206.83 748.47,205.24 749.22,204.07C747.41,201.53 745.29,202.49 743.49,203.12ZM794.26,224.11C794.93,219.98 793.19,216.84 789.17,215.84C786.3,215.13 783.13,213.85 780.37,214.36C771.04,216.08 763.82,214.04 761.93,214.04C759.49,211.81 756.63,209.91 754.4,206.83C753.23,208.31 752.17,209.59 751.01,211.07C764.91,220.8 763.07,219.97 766.06,220.72C780.89,223.26 786.81,229.53 789.38,230.05C791.4,228.46 793.76,227.19 794.26,224.11ZM818.74,242.87C815.77,239.9 810.68,239.48 809.52,235.03C803.27,234.18 797.53,235.49 791.93,234.29C782.05,232.17 781.78,226.88 777.73,230.26C775.93,226.23 772.22,225.91 769.04,225.07C767.45,225.18 768.3,227.72 766.39,227.3C765.22,226.56 766.81,225.71 766.28,224.65C764.58,223.91 762.78,223.8 761.3,224.97C759.29,224.23 760.45,221.9 758.54,221.05C757.16,220.94 756.53,223.38 754.72,222.85C750.69,221.9 754.93,217.55 751.65,216.07C750.17,215.96 748.68,217.87 746.99,216.71C745.4,215.23 747.94,212.05 744.66,211.09C742.96,211.94 741.9,214.27 739.25,213.53C738.4,211.3 740.42,209.93 740.95,207.7C737.98,201.76 731.94,197.84 728.97,192.01C727.38,191.27 726.32,191.9 725.15,192.43C724.1,194.71 727.66,202.12 723.14,208.22C708.36,228.16 706.31,229.64 686.57,219.77C681.69,217.33 678.3,214.05 676.18,209.06C675.44,211.71 675.63,214.26 676.07,216.69C677.8,226.13 670,228.37 671.51,240.33C672.3,246.63 666.97,256.65 668.01,260.57C675.09,264.2 708.52,264.66 716.45,264.17C729.67,263.36 722.65,259.49 752.38,264.7C771.37,268.03 782.21,262.52 795.94,264.81C798.48,265.23 813.93,261.22 818.74,242.87Z" style="fill-rule:nonzero;"/>
        <path d="M529.81,588.19C532.88,583.63 535,578.33 540.83,576C529.54,577.37 510.92,581.61 503.1,589.78C501.2,584.09 533.21,572.65 543.8,573.67C545.07,573.79 545.71,572.5 546.45,571.44C551.32,564.49 548.05,551.13 553.45,541.02C558.38,531.77 562.8,522.18 570.41,514.63C581.38,503.74 590.76,492.76 594.05,479.76C578.71,471.43 594.02,478.09 558.97,453.47C547.27,463.41 556.09,464.49 542.44,480.92C535.75,488.97 530.48,498.12 521.45,504.13C510.81,511.22 504.93,523.28 500.78,535.4C499.61,535.51 499.4,534.34 498.55,534.23C500.67,533.59 500.56,531.58 501.31,530.52C514.27,500.82 522.79,506.02 530.46,495.12C541.52,479.38 548.82,474.82 550.17,465.97C551.27,458.75 557.91,454.36 557.91,452.72C544.08,441.49 538.51,432.24 531.41,424.21C525.99,418.08 520.42,412.25 518.69,403.97C518.58,403.44 517.95,403.12 517.31,403.23C507.53,411.51 514.07,406.9 503.32,421.46C497.78,428.97 488.94,437.86 489.33,442.66C489.44,444.04 488.91,445.86 487.74,446.26C480.78,448.65 482.16,468.73 471.1,469.26C464.63,469.57 452.74,471.92 453.72,478.27C454.37,482.5 453.28,481.45 443.54,487.49C443.75,482.93 447.99,482.4 450.54,480.18C450.75,477.85 449.69,475.09 452.34,473.5C457.64,470.32 462.94,466.82 469.51,467.03C472.69,467.13 474.48,465.23 475.02,462.58C478.38,446.01 498.74,423.71 503.85,415.52C508.07,408.74 515.62,395.81 519.64,398.77C531.75,377.34 569.18,324.6 592.88,331.04C594.89,331.59 602.07,326.94 610.16,337.93C619.75,350.97 620.88,347.71 629.66,361.99C644.31,385.81 630.53,363.79 647.78,402.37C679.51,473.32 683.79,495.89 693.99,511.96C695.58,510.9 695.69,509.42 696.53,508.36C699.9,504.12 700.51,508.31 707.66,515.46C708.51,516.31 709.36,517.37 707.55,518.53C704.26,516.83 702.14,513.76 698.96,510.9C698.64,513.23 696.63,514.08 695.89,515.78C699.71,524.9 704.98,527.93 699.28,530.3C698.33,524.58 694.42,520.86 691.75,516.31C687.53,509.09 684.65,501.05 680.62,493.63C677.86,488.54 677.2,482.72 675.21,477.41C663.39,445.79 654.47,430.12 648.18,414.35C626.98,361.14 635.18,380.37 628.68,370.15C607.6,337.02 614.31,351.39 608.33,340.58C603.53,331.9 597.31,333.94 587.13,333.27C581.66,332.91 563.98,341.79 556.6,354.15C553.09,360.02 539.98,370.73 527.35,391.35C525.29,394.71 523.32,398.13 520.04,400.78C530.22,420.71 545.8,435.65 562.75,449.85C564.23,444.66 566.14,440.2 570.28,437.03C573.88,443.28 570.49,447.74 566.46,452.4C572.29,455.79 577.48,459.71 582.25,465.33C583.84,459.08 586.7,454.2 588.61,448.69C585.56,444.88 589.82,430.94 587.34,420.71C586.24,416.16 587.87,411.59 589.78,406.93C591.58,408.94 591.78,410.74 591.58,412.87C590.55,423.72 600.84,455.68 616.91,467.67C631.38,478.47 638.06,491.69 641.18,495.44C663.24,526.38 656.34,531.45 662.27,539.74C664.71,538.79 667.36,539.95 670.01,538.57L670.01,529.45C672.55,532.42 672.55,535.7 673.51,538.57C680.08,538.46 686.02,536.77 691.74,534.44C691.53,531.68 689.83,529.67 689.83,526.91C692.06,528.71 692.16,531.57 693.96,533.06C696.93,532.74 699.47,529.77 703.29,531.79C691.74,540.59 679.23,543.55 665.77,543.77C672.18,549.47 686.14,556.21 692.06,548.86C695.14,545.03 697.37,546.22 700.65,541.02C708.74,528.19 698.84,520.66 707.86,518.97C709.76,518.62 711.68,518.23 713.69,519.08C715.28,522.37 718.04,524.8 720.16,527.67C723.13,527.25 725.99,529.26 728.32,527.78C730.12,528.2 729.48,529.91 730.12,530.22C735.57,532.79 739.88,536.99 744.96,539.97C746.65,540.96 788.11,535.95 780.25,557.78C779.64,559.48 777.39,559.58 776.86,561.38C783.22,562.65 789.68,560.11 795.62,562.23C797.1,567.32 802.09,568.7 804.42,572.41C803.36,584.49 791.86,595.72 781,598.59C776.81,599.7 781.17,596.98 758.21,599.44C730.59,602.4 720.57,592.79 707.97,597.64C703.81,599.24 663.92,598.82 649.99,594.88C641.16,592.38 651.89,578.55 650.1,571.03C644.06,570.5 638.55,568.91 633.99,564.78C639.6,548.89 635.14,550.3 641.73,542.1C643.1,540.4 644.29,538.39 644.17,536.16C643.89,531.07 645.49,526.3 646.18,521.43C646.38,520.05 645.23,518.46 646.82,517.3C648.83,516.77 649.15,519.63 651.59,519.53C648.62,516.46 649.03,512.44 646.82,509.25C612.2,459.24 632.17,490.43 604.74,459.01C594.05,446.77 598.3,444.17 591.7,434.74C589.42,449.84 592.57,445.46 584.7,466.75C586.82,473.96 594.88,474.28 598.69,479.36C597.42,481.9 595.39,483.6 594.77,486.04C590.61,502.42 579.41,509.68 562.02,531.93C552.21,544.48 555.1,552.91 552.69,564.68C549.03,582.61 540.18,579.25 530.96,588.74C530.77,588.93 530.24,588.82 529.81,588.19ZM726.64,533.28C724.41,532.54 725.16,528.93 721.55,529.78C724.84,532.96 726.74,536.78 730.77,539.11C731.41,537.31 731.09,535.51 732.15,534.23C730.35,532.12 728.44,531.91 726.64,533.28ZM777.09,554.27C777.82,550.13 776.04,546.92 772,545.9C768.93,545.13 765.64,543.66 762.78,544.31C755.43,545.98 748.89,544.1 744.55,544.1C732.84,533.86 739.67,536.42 733.53,541.03C740,544.85 744.86,550.51 752.71,551.74C759.8,552.84 766.06,556.3 772,560.33C774.33,558.62 776.55,557.34 777.09,554.27ZM650.64,590.94C657.72,594.57 691.15,594.98 699.08,594.54C712.25,593.81 703.64,589.87 734.69,594.96C756.25,598.5 764.64,592.86 778.68,595.17C781.24,595.59 796.45,591.49 801.57,573.02C798.39,570.37 793.51,569.52 792.24,565.18C785.88,564.44 780.04,565.75 774.22,564.33C764.88,562.06 764.62,557.41 760.44,560.3C758.53,556.38 754.93,555.95 751.54,555.21C750.27,555.63 750.8,557.44 749.31,557.54C747.4,557.01 749.63,555.74 748.99,555C747.19,553.94 745.39,554.47 743.69,555.11C741.99,554.26 743.05,552.04 741.15,551.29C739.77,551.18 739.25,553.37 737.55,553.09C733.11,552.36 737.66,547.58 734.16,546.2C732.78,546.09 731.4,547.79 729.39,546.73C727.69,545.56 730.34,542.38 727.27,541.22C726.5,541.46 718.36,549.13 723.56,538.04C720.49,532 714.55,528.08 711.48,522.14C702.98,519.11 712.38,530.94 705.33,539.31C691.58,555.64 690.59,561.4 669.4,550.23C664.62,547.71 660.71,544.61 658.8,539.31C658.06,542.07 658.19,544.6 658.69,547.05C660.62,556.45 652.62,558.73 654.13,570.69C654.93,577 649.6,587.02 650.64,590.94ZM648.63,520.88C648.1,526.32 645.95,539.7 642.69,544.09C636.23,552.8 641.38,554.88 636.97,563.7C640.79,566.77 645.13,567.62 650.01,568.36C650.68,556.06 657.49,553.46 655.63,546.42C654.79,543.24 655.26,539.96 655.21,536.67C655.18,534.76 656.69,533.7 657.22,532.75C656.9,526.93 651.91,525.23 648.63,520.88Z" style="fill-rule:nonzero;"/>
        <path d="M445.02,588.72C451.32,591.22 458.29,589.69 461.55,590.63C493.98,598.03 529.65,585.25 530.55,590.63C527.6,598.01 439.75,598.66 441.94,589.15C442.79,588.08 443.96,588.3 445.02,588.72Z" style="fill-rule:nonzero;"/>
        <path d="M461.13,261.63C460.06,261.22 458.8,260.68 459.22,258.66C486.23,260.62 490.75,266.73 547.72,258.77C546.74,268.91 479.26,268.57 461.13,261.63Z" style="fill-rule:nonzero;"/>
        <path d="M477.77,522.37C473.79,503.84 473.91,471.88 480.95,465.45C472.31,504.72 487.01,565.34 477.77,522.37Z" style="fill-rule:nonzero;"/>
        <path d="M495.05,192.21C491.27,173.64 491.19,141.72 498.23,135.29C490.04,172.57 503.47,233.58 495.05,192.21Z" style="fill-rule:nonzero;"/>
        <path d="M458.16,487.39C463.46,490.28 468.24,484.92 468.65,478.91C468.65,477.85 468.01,476.37 469.6,475.41C470.55,482.83 468.55,486.78 462.6,489.72C457.84,492.07 457.65,492.15 458.47,497.56C459.57,504.87 459,511.87 454.12,518.02C449.58,513.48 457.84,512.17 455.71,495.13C451.68,498.63 447.76,501.38 443.2,503.93C442.05,497.14 457.5,493.32 458.16,487.39Z" style="fill-rule:nonzero;"/>
        <path d="M475.33,156.59C478.16,161.6 485.33,155.63 485.82,149.28C485.92,148.01 485.4,146.63 486.56,145.25C488.15,151.82 485.93,156.61 480.09,159.56C475.01,162.12 474.81,162.1 475.64,167.62C476.73,174.93 476.06,181.82 471.29,187.97C466.78,183.46 474.88,182.01 472.77,164.86C468.85,168.78 464.71,171.01 460.37,174.08C459.21,166.8 474.77,164.15 475.33,156.59Z" style="fill-rule:nonzero;"/>
        <path d="M209.3,208.64C231.48,207.32 237.97,213.4 249.79,211.93C250.32,211.82 251.06,211.82 251.59,212.35C250.42,215.86 224.57,211.4 207.6,212.67C203.32,212.98 202.86,209.02 209.3,208.64Z" style="fill-rule:nonzero;"/>
        <path d="M437.92,512.62C442.05,517.81 449.05,515.91 454.03,520.04C448.94,521.95 444.49,521.31 439.51,519.51C439.62,527.78 440.25,535.41 438.13,542.93C437.81,532.97 435.69,523.11 437.92,512.62Z" style="fill-rule:nonzero;"/>
        <path d="M455.2,182.24C459.33,187.75 466.54,185.53 471.2,189.98C466.01,191.68 461.55,191.04 456.68,189.45C457,197.51 457.32,205.14 455.41,212.66C455.09,202.81 452.97,192.95 455.2,182.24Z" style="fill-rule:nonzero;"/>
        <path d="M278.83,220.51C255.95,217.56 272.26,217.92 243.11,220.93C242.26,221.02 241.1,221.57 240.67,219.66C245.29,217.09 255.94,219.97 263.03,217.65C269.55,215.51 287.12,221.28 292.28,224.65C284.46,225.24 282.11,220.93 278.83,220.51Z" style="fill-rule:nonzero;"/>
        <path d="M535.75,178.64C539.25,197.93 539.46,217.43 539.46,236.93C537.23,217.54 537.97,198.04 535.75,178.64Z" style="fill-rule:nonzero;"/>
        <path d="M518.58,508.8C522.18,528.09 522.29,547.59 522.4,567.2C520.06,547.81 520.8,528.2 518.58,508.8Z" style="fill-rule:nonzero;"/>
        <path d="M138.28,189.56C131.92,184.47 129.27,174.19 132.56,167.94C139.59,167.94 131.62,178.13 137.54,184.58C138.81,185.96 138.81,187.65 138.28,189.56Z" style="fill-rule:nonzero;"/>
        <path d="M579.42,484C580.25,485.86 573.29,494.17 559.81,499.9C546.76,505.45 556.91,524.15 546.77,531.17C554.42,517.95 547.33,503.95 558.22,499.27C573.53,492.68 574.4,488.68 579.42,484Z" style="fill-rule:nonzero;"/>
        <path d="M595.85,154.58C596.17,153.94 597.53,153.79 596.06,155.75C585.1,172.19 571.23,165.6 570.09,179.81C568.94,194.2 568.28,197.79 564.05,201.01C568.27,193.54 567.36,189.75 569.14,177.37C570.76,166.02 584.47,169.9 595.85,154.58Z" style="fill-rule:nonzero;"/>
        <path d="M454.03,207.47C449.79,208 446.19,209.27 441.63,209.06C443.75,205.77 446.61,206.73 448.94,205.99C447.77,204.08 444.59,204.93 444.49,202.39C445.34,200.48 447.25,201.86 448.31,200.91C447.14,199.32 444.6,199.43 444.71,196.88C446.41,194.76 448.95,195.93 451.49,195.08C450.22,196.67 448.31,196.46 447.25,197.84C448.84,199.96 451.81,200.07 453.08,202.19C452.34,204.42 450.22,202.4 449.16,203.78C450.53,205.14 452.86,204.82 454.03,207.47Z" style="fill-rule:nonzero;"/>
        <path d="M503.74,223.05C492.32,230.86 491.2,227.54 478.62,228.46C472.05,228.94 465.27,228.67 458.38,231.64C461.48,223.57 490.76,230.52 503.74,223.05Z" style="fill-rule:nonzero;"/>
        <path d="M484.24,554.06C490.41,551.08 482.4,558.51 470.89,558.51C461.73,558.51 449.46,558.29 440.89,561.69C445.61,553.5 470.87,560.52 484.24,554.06Z" style="fill-rule:nonzero;"/>
        <path d="M465.16,216.27C473.11,210.44 475.23,203.23 469.82,194.22C479.86,198.76 475.93,215.79 465.16,216.27Z" style="fill-rule:nonzero;"/>
        <path d="M447.56,546.85C455.72,540.6 458.16,533.5 452.44,524.17C461.33,528.51 460.86,543.75 447.56,546.85Z" style="fill-rule:nonzero;"/>
        <path d="M493.88,492.37C494.94,479.23 494.52,466.19 493.99,453.05C496.96,459.41 496.96,483.68 493.88,492.37Z" style="fill-rule:nonzero;"/>
        <path d="M511.26,162.21C512,149.07 511.79,136.03 511.37,122.89C513.91,136.03 514.13,149.07 511.26,162.21Z" style="fill-rule:nonzero;"/>
        <path d="M210.36,235.66C204.09,225.89 184.84,225.6 183.01,219.34C188.95,220.61 193.62,223.23 198.48,225.28C206.67,228.72 207.39,229.41 210.36,235.66Z" style="fill-rule:nonzero;"/>
        <path d="M593.3,88.97C593.3,87.49 594.25,85.9 596.59,85.47C595.42,91.83 593.94,97.98 590.34,104.12C586.68,100.04 593.3,95.9 593.3,88.97Z" style="fill-rule:nonzero;"/>
        <path d="M572.42,433.44C569.99,431.01 576.02,425.28 576.02,419.24C576.02,417.76 577.08,416.17 578.99,415.21C579.84,419.98 575.6,431.43 572.42,433.44Z" style="fill-rule:nonzero;"/>
        <path d="M462.93,231.95C467.71,228.2 488.26,242.23 480.63,249.86C481.59,241.39 474.17,234.81 462.93,231.95Z" style="fill-rule:nonzero;"/>
        <path d="M445.76,562.22C447.59,557.35 471.78,571.95 463.46,579.81C464.42,570.91 455.83,564.55 445.76,562.22Z" style="fill-rule:nonzero;"/>
        <path d="M141.99,170.48C145.49,173.77 143.16,177.69 143.9,181.19C140.19,178.54 138.71,175.04 138.07,170.59C139.56,171.96 140.83,170.69 141.99,170.48Z" style="fill-rule:nonzero;"/>
        <path d="M597.12,338.69C598.64,337.96 598.9,338.3 604.86,346C597.25,348.28 593.88,340.24 597.12,338.69Z" style="fill-rule:nonzero;"/>
        <path d="M615.14,8.1C618,10.11 619.59,13.29 622.24,16.05C613.6,17.74 611.01,10.08 615.14,8.1Z" style="fill-rule:nonzero;"/>
        <path d="M443.85,491.84C446.71,488.66 458.79,480.18 461.02,479.97C456.26,485.48 451.17,489.83 443.85,491.84Z" style="fill-rule:nonzero;"/>
        <path d="M244.38,263.64C238.55,260.35 232.72,262.16 226.47,261.2C233.04,257.71 241.73,258.77 244.38,263.64Z" style="fill-rule:nonzero;"/>
        <path d="M461.13,161.05C463.89,159.04 466.76,157.36 469.4,155.33C487.62,141.31 473.27,158.9 461.13,161.05Z" style="fill-rule:nonzero;"/>
        <path d="M630.08,422.84C628.38,418.49 623.3,416.59 621.92,412.03C625.52,410.23 628.7,414.36 630.08,422.84Z" style="fill-rule:nonzero;"/>
        <path d="M647.36,92.79C645.56,88.55 641,86.43 638.99,81.87C642.8,80.28 646.19,84.84 647.36,92.79Z" style="fill-rule:nonzero;"/>
        <path d="M630.4,63.43C633.58,66.4 636.12,69.68 637.5,73.92C630.06,67.72 626.36,65.45 630.4,63.43Z" style="fill-rule:nonzero;"/>
        <path d="M620.22,403.98C612.86,397.58 608.99,395.66 613.12,393.59C616.3,396.56 618.85,399.84 620.22,403.98Z" style="fill-rule:nonzero;"/>
        <path d="M668.55,526.5C667.28,520.14 666.01,513.89 664.63,507.53C667.92,513.36 669.4,519.61 668.55,526.5Z" style="fill-rule:nonzero;"/>
        <path d="M500.98,439.06C505.43,443.62 508.82,448.71 509.78,455.17C507.45,449.45 503.63,444.57 500.98,439.06Z" style="fill-rule:nonzero;"/>
        <path d="M518.26,109C522.71,113.56 526.1,118.65 527.06,125.11C524.62,119.39 520.8,114.52 518.26,109Z" style="fill-rule:nonzero;"/>
        <path d="M685.73,196.34C685.2,189.98 683.61,183.73 681.91,177.37C685.09,183.3 686.68,189.56 685.73,196.34Z" style="fill-rule:nonzero;"/>
        <path d="M473.53,247.75C470.03,246.8 465.9,249.34 461.87,246.37C465.58,244.57 468.55,244.99 473.53,247.75Z" style="fill-rule:nonzero;"/>
        <path d="M445.23,575.57C449.36,574.51 452.86,576.1 456.36,577.58C446.61,577.8 446.61,577.8 445.23,575.57Z" style="fill-rule:nonzero;"/>
        <path d="M207.5,224.96C211.32,225.28 215.03,223.48 218.84,224.64C215.13,226.34 211.42,227.61 207.5,224.96Z" style="fill-rule:nonzero;"/>
        <path d="M468.23,205.88C465.05,204.18 461.23,206.2 457.52,204.5C461.13,201.96 464.42,202.38 468.23,205.88Z" style="fill-rule:nonzero;"/>
        <path d="M451.59,536.89C447.77,534.13 443.85,536.47 440.36,534.45C444.28,532.01 448.41,532.75 451.59,536.89Z" style="fill-rule:nonzero;"/>
        <path d="M438.87,574.51C436.22,576.42 433.36,577.16 430.07,576.21C432.73,574.3 435.8,574.2 438.87,574.51Z" style="fill-rule:nonzero;"/>
        <path d="M457,244.04C453.71,246.48 450.64,246.58 447.46,246.37C450,243.93 453.08,244.04 457,244.04Z" style="fill-rule:nonzero;"/>
        <path d="M453.5,222.2C450.43,224 447.14,224.43 443.75,223.79C446.72,221.99 450.11,221.99 453.5,222.2Z" style="fill-rule:nonzero;"/>
        <path d="M436.01,552.26C432.51,554.27 429.76,554.7 425.62,553.53C429.44,552.26 432.73,552.15 436.01,552.26Z" style="fill-rule:nonzero;"/>
        <path d="M176.44,224.11C179.73,225.28 183.65,224.11 187.36,227.08C183.44,227.4 180.57,226.55 176.44,224.11Z" style="fill-rule:nonzero;"/>
        <path d="M600.51,383.73L590.76,383.73C593.73,381.4 597.65,381.4 600.51,383.73Z" style="fill-rule:nonzero;"/>
        <path d="M439.4,579.71C436.64,580.77 433.78,580.98 430.92,579.92C433.15,578.22 437.39,578.33 439.4,579.71Z" style="fill-rule:nonzero;"/>
        <path d="M617.68,52.62C617.07,53.83 618.87,53.47 608.14,53.47C611.32,51.45 614.39,51.56 617.68,52.62Z" style="fill-rule:nonzero;"/>
        <path d="M457,249.44C453.93,250.61 451.06,251.14 447.25,249.65C450.53,248.28 453.92,248.28 457,249.44Z" style="fill-rule:nonzero;"/>
        <path d="M559.91,221.78C559.59,225.17 559.49,228.56 557.05,231.43C557.26,228.03 558.43,224.85 559.91,221.78Z" style="fill-rule:nonzero;"/>
        <path d="M539.67,561.48C540.41,558.19 540.94,554.91 542.74,551.94C542.32,555.33 542.32,558.93 539.67,561.48Z" style="fill-rule:nonzero;"/>
        <path d="M106.8,238.21C103.83,240.12 100.55,241.28 97.05,241.39C96.63,240.12 95.5,240.76 106.8,238.21Z" style="fill-rule:nonzero;"/>
        <path d="M90.16,250.5C93.66,250.39 96.94,251.14 100.23,252.51C96.74,252.62 93.24,252.52 90.16,250.5Z" style="fill-rule:nonzero;"/>
        <path d="M606.66,55.16C604.22,57.28 602.31,59.82 600.94,62.58C601.14,58.13 602.73,56.11 606.66,55.16Z" style="fill-rule:nonzero;"/>
        <path d="M589.06,385.11C587.15,387.55 584.93,389.77 583.76,392.74C583.44,388.82 585.88,386.59 589.06,385.11Z" style="fill-rule:nonzero;"/>
        <path d="M252.65,265.66C254.88,265.13 257.21,265.02 259.43,265.66C257.1,266.82 254.87,266.82 252.65,265.66Z" style="fill-rule:nonzero;"/>
        <path d="M492.29,543.67C492.65,541.52 494.74,537.96 495.58,538.79C495.26,540.38 493.46,541.23 493.78,543.14C494.2,544.09 495.69,544.09 496.11,546.11C494.84,544.84 493.35,545.37 492.29,543.67Z" style="fill-rule:nonzero;"/>
        <path d="M580.05,413.2C578.99,412.67 578.76,414.04 581.11,407.37C581.43,407.48 581.75,407.58 582.17,407.69C582.6,410.02 581.64,411.71 580.05,413.2Z" style="fill-rule:nonzero;"/>
        <path d="M262.93,211.5C260.17,213.09 258.05,213.51 255.19,212.14C257.95,211.29 260.07,210.54 262.93,211.5Z" style="fill-rule:nonzero;"/>
        <path d="M596.8,82.93C597.22,79.43 597.22,79.22 599.03,77.42C599.34,80.7 599.34,80.7 596.8,82.93Z" style="fill-rule:nonzero;"/>
        <path d="M613.65,15.63C611.53,17.33 609.52,18.07 606.55,18.7C608.88,16.47 610.47,14.78 613.65,15.63Z" style="fill-rule:nonzero;"/>
        <path d="M596.27,346.21C594.15,347.27 592.24,348.44 589.7,348.65C592.88,345.36 593.2,345.26 596.27,346.21Z" style="fill-rule:nonzero;"/>
        <path d="M467.81,587.87C469.61,587.76 471.1,588.4 473.22,589.88C470.25,590.73 468.66,589.99 467.81,587.87Z" style="fill-rule:nonzero;"/>
        <path d="M484.98,257.6C486.78,257.92 488.58,258.13 489.96,259.83C486.67,260.15 486.67,260.15 484.98,257.6Z" style="fill-rule:nonzero;"/>
        <path d="M650.85,102.11C649.05,101.16 647.67,99.88 647.46,97.66C649.37,98.4 650.22,100.21 650.85,102.11Z" style="fill-rule:nonzero;"/>
        <path d="M224.24,250.61C226.89,253.26 226.89,254 224.03,256.12C223.29,255.17 224.35,254.42 224.24,253.58C224.35,252.62 223.39,251.67 224.24,250.61Z" style="fill-rule:nonzero;"/>
        <path d="M633.47,432.28C631.99,431.11 630.18,430.05 629.87,427.3C632.41,428.57 633.05,430.37 633.47,432.28Z" style="fill-rule:nonzero;"/>
        <path d="M583.02,402.39C584.29,400.59 585.35,399.1 586.41,397.51C585.88,401.11 585.88,401.11 583.02,402.39Z" style="fill-rule:nonzero;"/>
        <path d="M600.4,72.23C601.35,70.64 602.41,69.05 603.37,67.46C603.9,69.89 602.73,71.38 600.4,72.23Z" style="fill-rule:nonzero;"/>
        <path d="M227.95,232.06C225.62,231.42 224.13,230.89 222.23,229.41C225.09,228.77 226.26,229.94 227.95,232.06Z" style="fill-rule:nonzero;"/>
        <path d="M196.47,177.58C196.66,176.3 197.64,176.73 198.38,176.84C197.11,178.43 197.96,180.87 196.05,182.35C195.31,180.65 196.23,179.17 196.47,177.58Z" style="fill-rule:nonzero;"/>
        <path d="M608.56,69.58C608.77,72.12 608.14,73.61 607.08,75.62C606.66,73.18 606.66,71.48 608.56,69.58Z" style="fill-rule:nonzero;"/>
        <path d="M591.08,400.16C591.19,402.81 591.19,402.81 589.81,405.14C589.59,403.23 589.38,401.54 591.08,400.16Z" style="fill-rule:nonzero;"/>
        <path d="M629.02,20.18C627.54,18.8 625.63,18.27 623.08,17.21C626.58,16.58 628.17,17.75 629.02,20.18Z" style="fill-rule:nonzero;"/>
        <path d="M608.67,68.09C608.56,64.8 608.56,64.8 610.15,63C610.26,64.81 609.84,66.08 608.67,68.09Z" style="fill-rule:nonzero;"/>
        <path d="M705.12,192.84C703.42,191.67 703.11,190.51 702.79,188.49C704.59,189.66 705.02,190.93 705.12,192.84Z" style="fill-rule:nonzero;"/>
        <path d="M634.64,435.56C636.23,437.36 636.97,438.74 636.97,440.54C635.8,439.38 634.32,438.32 634.64,435.56Z" style="fill-rule:nonzero;"/>
        <path d="M623.93,54.31C622.23,54.63 620.75,54.95 619.48,53.25C621.18,53.15 622.66,52.51 623.93,54.31Z" style="fill-rule:nonzero;"/>
        <path d="M687.85,522.58C686.26,520.88 686.26,520.88 686.26,518.98C687.32,519.93 687.95,520.99 687.85,522.58Z" style="fill-rule:nonzero;"/>
        <path d="M611.85,350.34C610.37,348.96 608.35,348.43 606.02,347.37C609.41,346.74 611,347.91 611.85,350.34Z" style="fill-rule:nonzero;"/>
        <path d="M606.87,384.58C605.07,384.79 603.58,385.11 602.1,383.2C604.01,383.31 605.49,382.78 606.87,384.58Z" style="fill-rule:nonzero;"/>
        <path d="M652.13,106.25C653.3,107.42 654.36,108.69 654.46,111.23C653.08,109.32 651.7,108.37 652.13,106.25Z" style="fill-rule:nonzero;"/>
        <path d="M591.5,397.62C591.29,396.03 590.86,394.44 592.88,392.85C593.2,395.07 592.56,396.34 591.5,397.62Z" style="fill-rule:nonzero;"/>
        <path d="M192.34,189.66C194.35,190.83 195.84,191.57 196.16,194.43C194.67,192.63 192.66,192.42 192.34,189.66Z" style="fill-rule:nonzero;"/>
        <path d="M171.99,223.05C169.66,224 167.86,223.9 166.37,222.41C168.07,222.1 169.87,222.2 171.99,223.05Z" style="fill-rule:nonzero;"/>
        <path d="M495.68,538.8C495.14,538.26 495.06,539.01 498.65,534.35C498.97,536.68 497.06,537.63 495.68,538.8Z" style="fill-rule:nonzero;"/>
        <path d="M168.07,193.69C167.96,195.39 167.75,196.45 165.95,196.76C165.95,195.39 166.27,194.43 168.07,193.69Z" style="fill-rule:nonzero;"/>
        <path d="M231.56,220.4C232.73,219.87 233.68,218.28 235.27,219.76C234.1,220.61 233.04,221.25 231.56,220.4Z" style="fill-rule:nonzero;"/>
        <path d="M165.1,199.1C165.63,200.48 165.1,201.33 163.3,202.6C163.19,200.58 163.51,199.52 165.1,199.1Z" style="fill-rule:nonzero;"/>
        <path d="M613.97,355.01C612.38,353.84 611.85,352.15 611.85,350.24C613.44,351.51 613.86,353.21 613.97,355.01Z" style="fill-rule:nonzero;"/>
        <path d="M607.5,37.46C606.55,38.84 605.49,39.69 604,39.9C604.64,38.41 605.6,37.46 607.5,37.46Z" style="fill-rule:nonzero;"/>
        <path d="M590.02,367.83C589.07,369 588.32,370.16 586.2,370.37C587.37,368.68 588.43,367.83 590.02,367.83Z" style="fill-rule:nonzero;"/>
        <path d="M629.13,20.08C630.61,21.35 631.04,23.05 631.89,25.59C629.55,23.68 629.13,21.99 629.13,20.08Z" style="fill-rule:nonzero;"/>
        <path d="M511.05,212.87C511.47,214.04 512.96,213.93 513.38,215.94C512.11,214.67 510.62,215.2 509.67,213.71C509.54,210.89 511.04,210.16 515.71,204.17C516.44,207.52 510.48,209.58 511.05,212.87Z" style="fill-rule:nonzero;"/>
        <path d="M272.89,206.2C272.57,208.11 271.51,208.32 270.13,208.43C270.45,206.83 271.62,206.62 272.89,206.2Z" style="fill-rule:nonzero;"/>
        <path d="M215.23,239.58C216.61,239.79 217.14,240.32 217.46,241.38C216.19,241.6 215.55,241.17 215.23,239.58Z" style="fill-rule:nonzero;"/>
        <path d="M699.61,178.75C700.14,179.6 701.62,180.23 700.78,182.04C699.72,180.97 699.19,180.02 699.61,178.75Z" style="fill-rule:nonzero;"/>
        <path d="M694.84,166.13C695.69,167.72 696.54,168.67 695.79,170.26C695.26,168.99 694.52,168.15 694.84,166.13Z" style="fill-rule:nonzero;"/>
        <path d="M677.67,496.4C678.52,497.88 679.37,498.84 678.41,500.64C678.31,499.05 677.14,498.2 677.67,496.4Z" style="fill-rule:nonzero;"/>
        <path d="M682.23,509.01C682.67,509.01 684.27,509.98 683.61,512.51C682.76,511.03 681.59,510.39 682.23,509.01Z" style="fill-rule:nonzero;"/>
        <path d="M120.05,238.52C121.43,237.67 122.7,238.2 123.97,238.52C122.7,239.16 121.43,239.27 120.05,238.52Z" style="fill-rule:nonzero;"/>
        <path d="M166.37,222.52C165.2,222.31 163.93,222.73 162.45,221.88C164.25,221.25 165.31,221.67 166.37,222.52Z" style="fill-rule:nonzero;"/>
        <path d="M656.37,128.72C657.43,129.36 658.07,129.89 657.75,131.37C656.58,130.52 655.73,129.99 656.37,128.72Z" style="fill-rule:nonzero;"/>
        <path d="M638.98,458.88C640.36,459.3 640.68,460.15 640.68,461.42C639.51,460.89 638.88,460.36 638.98,458.88Z" style="fill-rule:nonzero;"/>
        <path d="M581.43,357.87C581.11,359.35 580.48,360.1 578.99,360.94C579.1,358.93 579.84,358.29 581.43,357.87Z" style="fill-rule:nonzero;"/>
        <path d="M599.13,27.39C597.96,29.09 597.96,30.46 596.27,30.36C596.38,28.98 597.01,28.24 599.13,27.39Z" style="fill-rule:nonzero;"/>
        <path d="M264.73,211.39C264.84,209.91 265.68,210.01 266.64,210.33C266.32,211.39 265.79,211.92 264.73,211.39Z" style="fill-rule:nonzero;"/>
        <path d="M663.04,501.38C663.46,501.8 664.31,502.12 663.57,502.97C662.62,502.76 662.73,502.12 663.04,501.38Z" style="fill-rule:nonzero;"/>
        <path d="M680.43,171.33C680.75,171.75 681.6,172.07 680.75,172.81C679.9,172.49 679.68,172.07 680.43,171.33Z" style="fill-rule:nonzero;"/>
        <path d="M112,236.62C111.36,237.15 110.83,237.26 110.09,236.73C110.73,236.51 110.94,235.56 112,236.62Z" style="fill-rule:nonzero;"/>
        <path d="M113.38,272.02C114.02,271.7 114.55,271.6 115.39,272.34C114.33,272.97 113.59,273.29 113.38,272.02Z" style="fill-rule:nonzero;"/>
        <path d="M652.97,115.26C653.71,115.79 654.14,116 654.03,116.64C653.4,116.74 653.19,116.32 652.97,115.26Z" style="fill-rule:nonzero;"/>
        <path d="M622.24,383.94C622.35,384.47 622.98,384.68 622.56,385.64C622.34,385 621.49,385 622.24,383.94Z" style="fill-rule:nonzero;"/>
        <path d="M156.51,220.19C157.46,220.4 157.99,220.61 157.36,221.46C156.73,221.46 156.41,221.14 156.51,220.19Z" style="fill-rule:nonzero;"/>
        <path d="M639.3,53.89C639.72,54.31 640.15,54.53 639.94,55.16C639.09,55.05 638.88,54.74 639.3,53.89Z" style="fill-rule:nonzero;"/>
        <path d="M654.78,122.57C655.42,122.46 655.84,122.57 655.95,123.95C655.31,123.31 654.56,123.31 654.78,122.57Z" style="fill-rule:nonzero;"/>
        <path d="M118.36,272.87C117.62,272.87 118.54,271.13 119.42,272.23C119.31,272.87 118.89,273.18 118.36,272.87Z" style="fill-rule:nonzero;"/>
        <path d="M246.29,264.7C246.93,264.17 247.56,264.28 248.09,264.81C247.45,265.45 246.82,265.34 246.29,264.7Z" style="fill-rule:nonzero;"/>
        <path d="M107.44,253.47C106.59,253.05 106.05,252.82 106.8,252.3C107.12,252.09 107.44,252.62 107.44,253.47Z" style="fill-rule:nonzero;"/>
        <path d="M224.24,222.2C223.82,222.84 223.39,223.58 221.8,222.84C222.86,222.31 223.18,221.14 224.24,222.2Z" style="fill-rule:nonzero;"/>
        <path d="M637.61,452.63C638.35,452.63 638.99,452.63 638.56,453.9C638.03,453.58 637.5,453.47 637.61,452.63Z" style="fill-rule:nonzero;"/>
        <path d="M636.76,446.8C636.23,446.91 635.91,446.48 636.02,445.85C636.33,446.05 636.97,446.16 636.76,446.8Z" style="fill-rule:nonzero;"/>
        <path d="M266,509.75C257.97,514.07 256.08,510.08 239.4,506.25C236.12,505.5 233.48,503.77 230.39,502.75C228.7,502.2 227.21,501.27 227.42,498.3C240.14,502.87 252.86,507.21 266,509.75Z" style="fill-rule:nonzero;"/>
        <path d="M227.32,385.11C225.41,386.17 223.62,387.36 221.6,388.29C212.36,392.55 217.16,396.59 211.32,397.62C212.45,386.1 229.47,376.51 227.32,385.11Z" style="fill-rule:nonzero;"/>
        <path d="M400.93,505.52C401.04,512.73 403.05,519.83 399.87,526.72C400.08,520.68 399.55,514.74 399.02,508.7C397.43,512.09 396.16,515.38 393.4,517.92C393.58,515.52 400.61,501.89 400.61,499.27C403.9,501.28 403.9,502.34 400.93,505.52Z" style="fill-rule:nonzero;"/>
        <path d="M341.36,502.76C345.9,505.41 340.71,511.31 337.12,511.88C331.05,512.83 327.28,518.56 321.75,517.18C329.07,512.83 337.33,510.6 341.36,502.76Z" style="fill-rule:nonzero;"/>
        <path d="M258.9,524.81C251.16,521.84 243.64,519.62 236.11,516.01C240.03,513.89 254.34,519.72 258.9,524.81Z" style="fill-rule:nonzero;"/>
        <path d="M221.49,398.46C221.28,393.69 223.93,390.83 227.53,387.44C227.32,389.67 228.8,390.3 229.44,391.36C228.38,395.71 223.82,395.71 221.49,398.46Z" style="fill-rule:nonzero;"/>
        <path d="M225.2,445.74C218.42,448.81 214.6,447.33 212.69,441.08C215.55,445.31 220.32,444.78 225.2,445.74Z" style="fill-rule:nonzero;"/>
        <path d="M175.7,460.68C173.05,453.9 167.22,449.76 162.35,444.78C168.07,449.02 174.32,452.84 175.7,460.68Z" style="fill-rule:nonzero;"/>
        <path d="M144.01,434.5C144.54,433.02 145.49,433.23 146.24,433.23C146.74,436.21 151.93,436.07 156.1,441.29C151.96,439.16 146.66,438.85 144.01,434.5Z" style="fill-rule:nonzero;"/>
        <path d="M216.5,516.43C216.5,511.34 214.8,506.47 215.44,500.96C218.2,507.21 218.73,513.36 216.5,516.43Z" style="fill-rule:nonzero;"/>
        <path d="M129.38,461.85C133.2,465.56 133.51,470.75 134.68,475.52C132.03,471.28 130.65,466.62 129.38,461.85Z" style="fill-rule:nonzero;"/>
        <path d="M359.17,488.13C366.27,488.77 368.82,489.61 370.83,491.73C367.65,492.27 361.5,490.36 359.17,488.13Z" style="fill-rule:nonzero;"/>
        <path d="M232.51,449.87C236.54,449.87 238.55,453.47 241.63,455.06C238.23,454.11 234.63,453.37 232.51,449.87Z" style="fill-rule:nonzero;"/>
        <path d="M418.1,512.19C417.46,506.15 417.89,502.65 419.48,500.96C420.11,504.99 419.48,508.59 418.1,512.19Z" style="fill-rule:nonzero;"/>
        <path d="M313.06,479.02C309.67,478.6 306.59,478.17 302.67,477.75C305.96,475.52 309.88,476.05 313.06,479.02Z" style="fill-rule:nonzero;"/>
        <path d="M182.91,441.39C180.64,438.67 177.82,436.62 175.28,434.18C179.52,435.24 182.49,438.21 185.14,441.39C184.39,442.66 183.53,442.14 182.91,441.39Z" style="fill-rule:nonzero;"/>
        <path d="M145.17,450.08C143.58,446.79 142.31,443.51 142.52,439.8C144.64,442.98 145.17,446.48 145.17,450.08Z" style="fill-rule:nonzero;"/>
        <path d="M306.17,506.04C302.99,507.63 300.02,508.58 295.78,508.16C299.39,505.94 299.39,505.94 306.17,506.04Z" style="fill-rule:nonzero;"/>
        <path d="M350.79,518.66C349.84,522.37 347.93,523.75 343.26,524.38C346.56,523 347.51,519.61 350.79,518.66Z" style="fill-rule:nonzero;"/>
        <path d="M267.7,530.53C261.23,529.26 260.6,528.94 260.49,525.34C262.93,527.56 266,527.88 267.7,530.53Z" style="fill-rule:nonzero;"/>
        <path d="M346.24,549.5C343.7,551.51 341.36,553 338.4,553.32C340.73,552.04 342,548.87 346.24,549.5Z" style="fill-rule:nonzero;"/>
        <path d="M150.05,433.76C148.6,434.28 147.56,432.89 146.22,433.11C144.95,431.74 143.15,433.01 141.25,432.38C146.34,430.37 148.14,430.79 150.05,433.76Z" style="fill-rule:nonzero;"/>
        <path d="M146.23,433.12L146.12,433.12C146.14,433.12 146.23,433.11 146.23,433.12Z" style="fill-rule:nonzero;"/>
        <path d="M364.36,534.13C363.72,536.99 361.6,537.52 359.7,538.05C360.86,536.46 360.86,533.5 364.36,534.13Z" style="fill-rule:nonzero;"/>
        <path d="M301.09,554.91C304.69,555.55 307.34,556.71 309.99,558.83C305.01,557.98 303.95,557.56 301.09,554.91Z" style="fill-rule:nonzero;"/>
        <path d="M349.52,486.54C350.79,486.43 351.53,487.07 352.28,487.6C353.02,488.13 354.29,487.28 355.04,488.66C353.77,489.93 352.28,489.93 351.33,490.04C350.69,488.77 350.16,487.71 349.52,486.54Z" style="fill-rule:nonzero;"/>
        <path d="M170.5,503.29C167.74,501.81 167.96,498.84 167.11,496.4C169.23,498.2 169.87,500.75 170.5,503.29Z" style="fill-rule:nonzero;"/>
        <path d="M316.03,480.61C319.21,480.19 321.33,481.03 323.24,482.52C320.91,482.62 318.57,482.3 316.03,480.61Z" style="fill-rule:nonzero;"/>
        <path d="M328.96,529.36C326.63,531.37 324.61,531.9 321.75,532.01C323.98,530.32 325.46,528.52 328.96,529.36Z" style="fill-rule:nonzero;"/>
        <path d="M180.89,524.81C178.77,523.54 177.18,522.8 176.01,520.89C179.62,521.2 179.62,521.2 180.89,524.81Z" style="fill-rule:nonzero;"/>
        <path d="M217.99,523.64C217.67,526.29 217.25,528.2 215.87,529.89C215.97,527.88 215.13,525.44 217.99,523.64Z" style="fill-rule:nonzero;"/>
        <path d="M357.68,539.43C356.2,542.19 355.24,544.09 352.7,544.84C354.19,543.35 354.29,540.6 357.68,539.43Z" style="fill-rule:nonzero;"/>
        <path d="M342.42,524.7C340.62,526.18 340.3,528.3 337.54,528.2C338.61,526.4 339.03,524.49 342.42,524.7Z" style="fill-rule:nonzero;"/>
        <path d="M145.81,454.53C148.04,456.65 147.93,458.98 148.35,461.21C147.08,459.3 146.34,457.29 145.81,454.53Z" style="fill-rule:nonzero;"/>
        <path d="M271.94,535.62C268.87,534.67 268.23,532.65 267.81,530.43C269.29,531.8 270.98,532.97 271.94,535.62Z" style="fill-rule:nonzero;"/>
        <path d="M200.08,536.57C198.38,535.83 196.79,534.98 196.05,533.07C198.06,533.5 199.76,534.24 200.08,536.57Z" style="fill-rule:nonzero;"/>
        <path d="M317.3,498.63C316.35,500.33 315.29,501.92 312.53,501.92C313.7,499.69 315.71,499.47 317.3,498.63Z" style="fill-rule:nonzero;"/>
        <path d="M335.85,528.62C334.68,529.79 333.09,530.32 331.61,530.95C332.88,527.99 333.52,527.67 335.85,528.62Z" style="fill-rule:nonzero;"/>
        <path d="M156.83,422.95C158.31,421.04 159.48,419.45 160.65,417.97C159.59,421.78 159.59,421.78 156.83,422.95Z" style="fill-rule:nonzero;"/>
        <path d="M139.98,434.18C139.66,436.3 138.18,436.94 136.69,437.57C137.12,435.99 137.54,434.29 139.98,434.18Z" style="fill-rule:nonzero;"/>
        <path d="M185.45,526.29C188.63,526.5 190.11,527.88 192.13,529.58C189.16,529.68 187.78,528.09 185.45,526.29Z" style="fill-rule:nonzero;"/>
        <path d="M222.23,448.81C224.35,448.92 226.05,449.23 228.17,449.98C224.14,450.72 224.14,450.72 222.23,448.81Z" style="fill-rule:nonzero;"/>
        <path d="M238.13,444.68C238.66,446.59 238.34,447.97 236.86,449.45C236.54,447.54 236.11,445.95 238.13,444.68Z" style="fill-rule:nonzero;"/>
        <path d="M176.97,425.39C175.27,424.01 174.43,423.16 174.21,421.47C176.02,421.89 176.86,422.74 176.97,425.39Z" style="fill-rule:nonzero;"/>
        <path d="M390.97,542.51C389.27,544.21 389.27,544.21 387.15,543.78C388.21,542.72 389.38,542.4 390.97,542.51Z" style="fill-rule:nonzero;"/>
        <path d="M213.64,495.13C212.79,493.96 211.94,492.8 212.47,490.89C213.75,492.27 214.07,493.54 213.64,495.13Z" style="fill-rule:nonzero;"/>
        <path d="M307.97,522.05C309.45,520.35 309.45,520.35 311.04,520.57C310.52,521.52 309.67,522.16 307.97,522.05Z" style="fill-rule:nonzero;"/>
        <path d="M280.74,544.84C278.94,543.36 277.24,543.36 276.39,540.6C278.19,541.98 279.89,542.08 280.74,544.84Z" style="fill-rule:nonzero;"/>
        <path d="M208.34,482.41C208.13,480.93 206.64,479.65 207.49,477.85C208.98,479.23 209.19,480.71 208.34,482.41Z" style="fill-rule:nonzero;"/>
        <path d="M216.72,425.92C215.24,426.56 214.28,427.09 212.9,425.92C214.17,424.54 215.23,424.43 216.72,425.92Z" style="fill-rule:nonzero;"/>
        <path d="M277.77,510.5C276.18,510.82 275.12,510.29 274.17,509.33C275.44,509.22 276.81,508.8 277.77,510.5Z" style="fill-rule:nonzero;"/>
        <path d="M318.68,517.92C317.51,518.45 316.56,519.19 314.76,518.66C316.88,517.39 316.88,517.39 318.68,517.92Z" style="fill-rule:nonzero;"/>
        <path d="M166.69,430.79C168.07,430.26 169.13,430.37 170.51,432.06C168.91,432.38 167.64,432.49 166.69,430.79Z" style="fill-rule:nonzero;"/>
        <path d="M218.94,424.96C220.32,424.64 221.27,424.22 222.44,425.38C220.96,426.55 220,426.66 218.94,424.96Z" style="fill-rule:nonzero;"/>
        <path d="M351.32,546.22C350.68,547.7 349.73,548.34 347.61,548.66C348.89,547.06 349.42,545.69 351.32,546.22Z" style="fill-rule:nonzero;"/>
        <path d="M164.89,490.46C163.3,490.25 162.56,489.82 162.98,488.02C164.15,488.13 164.68,488.87 164.89,490.46Z" style="fill-rule:nonzero;"/>
        <path d="M289.74,551.73C288.26,551.94 287.41,551.84 286.98,550.56C288.15,550.14 288.79,550.77 289.74,551.73Z" style="fill-rule:nonzero;"/>
        <path d="M320.48,563.92C319.31,564.24 319,563.6 318.68,562.44C319.95,562.54 320.48,562.96 320.48,563.92Z" style="fill-rule:nonzero;"/>
        <path d="M381.11,512.4C380.9,513.35 380.58,513.99 379.41,513.99C379.31,512.93 379.84,512.51 381.11,512.4Z" style="fill-rule:nonzero;"/>
        <path d="M305.85,212.13C307.65,209.27 311.26,208.53 312.95,205.45C312.63,203.65 312,201.63 314.33,199.62C313.8,206.73 311.79,213.51 305.85,212.13Z" style="fill-rule:nonzero;"/>
        <path d="M419.9,213.83C417.36,215.1 417.36,215.1 413.75,213.62C416.09,212.98 417.99,211.5 419.9,213.83Z" style="fill-rule:nonzero;"/>
        <path d="M299.5,171.33C298.44,173.66 296.85,175.78 294.94,177.37C295.36,174.61 297.27,172.07 299.5,171.33Z" style="fill-rule:nonzero;"/>
        <path d="M385.67,246.16C383.66,245.95 382.38,245.31 381.11,243.4C383.55,243.29 384.82,243.93 385.67,246.16Z" style="fill-rule:nonzero;"/>
        <path d="M412.8,164.86C413.12,167.72 412.16,169.31 410.26,171.33C410.79,168.78 410.89,166.98 412.8,164.86Z" style="fill-rule:nonzero;"/>
        <path d="M298.44,198.57C298.65,195.71 298.65,195.71 301.41,194.12C300.77,196.02 299.92,197.4 298.44,198.57Z" style="fill-rule:nonzero;"/>
        <path d="M312.96,238.1C311.16,237.89 309.89,237.36 308.93,235.87C311.47,236.09 311.47,236.09 312.96,238.1Z" style="fill-rule:nonzero;"/>
        <path d="M325.89,212.24C326.42,210.01 327.27,208.64 328.86,207.68C328.54,209.38 328.11,210.97 325.89,212.24Z" style="fill-rule:nonzero;"/>
        <path d="M405.17,213.19C406.76,212.34 407.82,212.34 409.2,213.83C407.61,214.68 406.55,214.46 405.17,213.19Z" style="fill-rule:nonzero;"/>
        <path d="M318.57,192.84C317.76,192.84 318.38,190.6 320.69,189.98C320.69,191.68 319.85,192.42 318.57,192.84Z" style="fill-rule:nonzero;"/>
        <path d="M301.72,192.1C301.83,190.19 302.04,189.03 303.63,188.39C303.95,189.98 303.42,190.93 301.72,192.1Z" style="fill-rule:nonzero;"/>
        <path d="M396.05,184.26C397.64,181.72 397.64,181.72 399.23,181.72C398.81,182.99 397.75,183.41 396.05,184.26Z" style="fill-rule:nonzero;"/>
        <path d="M391.39,249.44C389.8,248.8 388.95,247.96 388.63,246.26C390.97,246.26 391.28,247.53 391.39,249.44Z" style="fill-rule:nonzero;"/>
        <path d="M318.04,242.02C316.56,242.23 315.81,241.6 315.28,239.79C316.67,240.33 317.94,240.11 318.04,242.02Z" style="fill-rule:nonzero;"/>
        <path d="M386.62,195.07C387.15,193.59 386.83,192.42 388.53,192.42C389.06,193.69 388.63,194.33 386.62,195.07Z" style="fill-rule:nonzero;"/>
        <path d="M295.26,203.65C294.84,202.27 295.37,201.32 296.64,200.68C296.32,201.64 297.06,203.23 295.26,203.65Z" style="fill-rule:nonzero;"/>
        <path d="M304.79,232.06C306.17,231.53 306.59,232.06 306.27,233.44C305.43,233.44 304.79,233.12 304.79,232.06Z" style="fill-rule:nonzero;"/>
        <path d="M316.45,195.07C317.45,195.74 316.93,197.36 315.39,197.72C314.97,196.55 315.5,195.7 316.45,195.07Z" style="fill-rule:nonzero;"/>
        <path d="M333.62,159.77C332.48,160.91 332.2,161.28 331.18,160.09C332.03,159.35 332.67,159.24 333.62,159.77Z" style="fill-rule:nonzero;"/>
        <path d="M330.55,205.14C330.02,203.87 330.44,203.23 331.5,202.81C331.82,203.87 332.03,204.82 330.55,205.14Z" style="fill-rule:nonzero;"/>
        <path d="M343.69,157.23C343.05,158.08 342.31,158.71 341.04,157.87C341.89,156.7 342.74,156.7 343.69,157.23Z" style="fill-rule:nonzero;"/>
        <path d="M390.01,172.6C388.74,172.92 388,172.81 387.15,171.86C388.21,171.64 389.06,171.64 390.01,172.6Z" style="fill-rule:nonzero;"/>
        <path d="M399.02,173.76C399.76,173.65 400.29,173.97 400.61,174.61C399.66,175.14 398.91,175.14 399.02,173.76Z" style="fill-rule:nonzero;"/>
        <path d="M387.15,160.3C386.6,160.3 386.65,159 388,159.45C388,160.3 387.57,160.41 387.15,160.3Z" style="fill-rule:nonzero;"/>
        <path d="M411.74,176.31C412.69,175.57 413.44,175.78 414.07,176.31C413.33,177.16 412.69,176.73 411.74,176.31Z" style="fill-rule:nonzero;"/>
        <path d="M292.08,181.61C292.34,182.86 291.28,183.03 291.02,183.41C289.85,185.64 288.58,187.76 285.08,187.97C286.67,185.53 288.58,184.15 290.49,182.99C290.7,182.24 291.02,181.5 292.08,181.61Z" style="fill-rule:nonzero;"/>
        <path d="M718.48,247.75C716.89,247.51 715.41,247.43 713.18,247.75C713.82,245.52 712.78,243.83 712.54,242.03C711.16,231.42 727.45,231.25 727.06,241.08C726.9,245.1 722.83,248.41 718.48,247.75ZM723.46,238.63C721.13,234.3 713.67,236.72 715.83,242.55C717.1,242.23 718.37,240.11 719.65,242.44C720.29,243.39 718.59,243.92 719.01,244.98C721.02,246.34 725.85,243.09 723.46,238.63Z" style="fill-rule:nonzero;"/>
        <path d="M752.29,241.81C747.9,240.09 749.17,248.36 744.34,245.84C745.08,244.46 745.82,243.08 746.57,241.71C744.77,239.7 742.44,237.68 744.34,234.82C746.88,231 750.91,232.81 754.62,232.17C755.47,236.83 755.36,241.07 755.47,245.31C752.19,246.29 752.95,245.13 752.29,241.81ZM751.65,235.13C747.2,234.71 747.09,234.81 747.41,238.1C749.54,239.58 753.65,238.8 751.65,235.13Z" style="fill-rule:nonzero;"/>
        <path d="M735.33,247.11C725.96,247.36 725.24,233.01 735.33,233.01C744.89,233.01 744.89,246.85 735.33,247.11ZM735.12,235.66C729.11,235.79 729.86,244.58 735.33,244.46C741.03,244.34 741,235.54 735.12,235.66Z" style="fill-rule:nonzero;"/>
        <path d="M705.33,563.17C715.7,562.66 715.39,577.69 705.44,577.16C703.53,577.06 701.62,576.52 699.4,577.16C699.54,574.11 695.46,563.66 705.33,563.17ZM701.94,571.97C703.21,571.44 704.46,569.55 705.65,571.76C706.17,572.72 704.59,573.24 704.91,574.3C707.1,575.64 711.65,572.2 709.36,567.94C707.09,563.72 699.79,565.96 701.94,571.97Z" style="fill-rule:nonzero;"/>
        <path d="M730.56,564.13C733.04,560.24 737.03,562.01 740.63,561.37C741.8,565.82 741.27,570.06 741.8,574.62C739.02,574.85 739.08,575.68 738.62,571.12C734.25,569.22 735.43,577.64 730.88,575.25C730.88,573.55 732.47,572.49 732.68,570.8C730.56,569 728.79,566.9 730.56,564.13ZM733.53,567.52C735.02,568.66 739.48,568.67 737.88,564.66C735.79,563.27 731.42,564.62 733.53,567.52Z" style="fill-rule:nonzero;"/>
        <path d="M721.13,562.33C731,562.08 731.35,576.17 721.45,576.43C712.18,576.67 711.32,562.57 721.13,562.33ZM721.44,573.77C726.78,573.77 727.3,564.97 721.44,564.97C715.5,564.98 715.87,573.77 721.44,573.77Z" style="fill-rule:nonzero;"/>
    </g>
</svg>
