<?xml version="1.0" encoding="UTF-8" standalone="no"?>
<!DOCTYPE svg PUBLIC "-//W3C//DTD SVG 1.1//EN" "http://www.w3.org/Graphics/SVG/1.1/DTD/svg11.dtd">
<svg width="100%" height="100%" viewBox="0 0 900 600" version="1.1" xmlns="http://www.w3.org/2000/svg" xmlns:xlink="http://www.w3.org/1999/xlink" xml:space="preserve" xmlns:serif="http://www.serif.com/" style="fill-rule:evenodd;clip-rule:evenodd;stroke-linejoin:round;stroke-miterlimit:2;">
    <g>
        <path d="M434.18,461.22C432.04,452.03 431.59,442.35 420.77,431.94C413.56,425 396.36,421.37 387.19,431.02C370.54,448.53 376.56,461.43 373.98,464.7C360.67,465.01 347.26,465.42 333.95,466.85C334.26,462.86 332.63,459.37 330.98,456.31C326.1,447.25 331.12,440.47 329.96,431.64C329.27,426.45 332.27,422.34 331.29,419.05C329.27,412.29 335.95,402.24 330.98,389.36C328.53,383.01 333.16,379.47 328.83,375.23C327.93,374.35 326.68,358.03 328.32,346.36C330.72,329.3 320.57,326.34 321.77,314.11C322.52,306.5 318.95,292.16 311.53,289.74C298.75,285.58 298.74,278.02 288.8,275C290.54,269.98 293.05,265.68 293,260.67C292.96,256.36 297.4,250.5 293.1,245.93C291.97,256.58 291.36,267.33 286.24,277.36C273.05,277.36 274.77,277.05 274.77,278.28C278.76,279.61 282.96,279.61 287.57,277.97C286.55,282.78 289,287.39 287.26,292.1C281.53,293.74 275.9,294.25 270.27,295.17C275.9,296.4 281.33,294.15 287.26,293.84C278.46,313.85 281.26,311.16 264.23,313.09C266.43,299.9 262.4,311.9 261.47,312.89C258.4,310.94 254.51,310.23 252.15,307.46C242.24,295.81 249,289.04 242.01,271.32C246.47,271.42 249.14,267.81 252.96,266.74C253.14,267.86 252.35,269.07 253.06,270.29C254.89,268.15 254.9,268.14 252.99,266.73C253.01,266.72 253.04,266.71 253.06,266.71C253.26,265.79 254.49,266.2 254.6,265.48C255.52,261.79 253.99,257.8 255.83,254.01C254.81,253.5 253.17,253.7 253.27,251.86C253.99,251.66 254.91,251.86 255.42,251.04C255.83,249.91 255.32,248.58 256.14,247.46C258.09,248.07 256.86,250.02 258.29,251.76C261.16,244.7 263.61,238.14 267.81,232.1C270.06,232.82 270.98,230.87 272.42,229.64C272.11,228.21 271.09,227.29 271.09,225.95C271.08,225.95 271.07,225.94 271.07,225.94C273.04,225.51 272.95,227.8 274.06,228.61C276.43,223.23 285.42,229.07 291.77,226.05C291.46,230.66 293.1,234.55 293.92,238.64C292.08,239.46 290.65,239.98 289.31,240.69C286.56,242.14 284.81,247.55 286.96,247.96C287.88,247.35 287.06,245.91 288.19,245.3C290.03,245.91 291.77,244.99 293.72,244.38C293.82,241.62 296.08,239.05 295.05,236.39C293.62,232.7 294.03,228.92 293.21,225.54C294.95,222.78 298.02,222.16 299.86,220.11L299.86,216.83C298.73,215.81 297.3,216.73 295.97,216.42C296.79,215.19 298.94,215.4 298.63,213.45C296.99,212.02 295.56,213.76 294.13,213.86C293.52,212.22 294.74,210.28 293.11,208.64C292.09,209.56 291.16,210.38 290.04,211.4C289.12,209.97 287.68,209.76 286.46,210.27C282.25,212.05 279.43,211.4 268.65,211.4C267.73,212.12 267.83,213.75 266.4,213.65C265.58,213.24 266.4,211.6 264.76,211.7C262.71,214.05 260.15,215.9 256.67,215.69C255.13,214.67 253.91,212.72 251.65,214.05C251.55,215.48 253.08,215.79 253.19,216.71C251.55,219.78 250.4,222.74 249.3,225.82C246.89,232.56 243.46,238.92 247.97,246.09C249.16,247.28 245.84,245 249.61,255.2C250.78,258.36 249.92,261.96 252.17,264.72C241.13,273.72 231.89,264.3 220.84,277.01C212.66,286.42 202.27,279.49 197.81,301.58C195.9,311.02 188.83,316.57 192.18,322.16C193.51,317.55 196.32,313.88 197.2,309.77C198.17,305.27 202.52,302.91 203.44,298.51C201.6,298.1 201.9,300.15 200.78,300.05C199.8,295.9 202.39,293.46 205.9,290.43C216.95,280.88 216.05,286.78 221.77,280.29C225.65,275.3 230.01,273.17 234.26,272.61C240.4,283.26 239.19,294.72 239.48,305.78C239.69,313.87 237.56,321.8 229.86,326.77C226.49,328.94 223.8,332.16 220.54,334.55C218.48,336.06 216.36,337.93 216.14,340.9C214.47,363.07 201.63,374.26 204.26,386.46C204.33,386.66 202.68,401.87 197.61,414.1C193.13,424.89 193.23,441.28 194.03,455.56C194.83,469.8 201.83,469.42 200.99,474.81C200.28,479.42 197.82,483.41 196.08,487.5C194.75,487.81 193.83,488.01 192.7,488.22C192.7,484.22 198.3,480.98 196.9,477.06C192.27,482.2 191.2,489.05 187.69,485.15C188.3,482.39 190.35,480.24 191.07,477.06C185.63,478.71 187.88,485.41 182.98,486.68C185.54,488.22 188.41,486.37 189.94,488.73C188.38,490.12 187.15,483.73 184.21,496.2C183.51,499.17 183.78,502.74 181.86,505.11C179.38,508.16 180.32,511.97 178.07,515.04C193.11,523.98 185.55,536.1 224.55,527.02C226.33,527.02 224.02,517.06 223.53,515.35C222.16,510.61 221.4,515.22 216.36,507.36C210.45,498.15 217.73,496.09 213.7,491.9C213,491.17 211.86,490.98 211.35,489.75C215.43,480.24 197.07,483.57 267.66,479.21C269.61,485.55 262.86,480.42 264.59,485.45C263.05,484.02 262.13,484.73 261.52,485.86C258.29,491.03 262.19,490.11 260.8,499.07C260.06,503.88 257.32,508.18 257.42,513.3C270.59,518.57 272.89,512.88 287.72,519.65C295.3,523.11 303.38,521.54 311.27,521.6C313.93,521.62 316.22,520.19 317.41,517.81C318.68,515.27 315.75,508.43 313.11,507.27C290.02,497.08 293.96,487.01 287.52,477.99C293.76,477.58 299.5,477.17 305.33,476.86C307.38,480.55 310.76,482.18 314.34,483.21C315.57,483.01 315.77,481.78 316.29,481.57C322.64,481.88 327.86,480.44 331.34,474.92C345.67,474.51 359.8,473.28 374.13,472.46C378.72,500 386.98,517.22 413.44,508.6C429.45,503.39 432.49,482.07 434.22,468.88C476.26,466.29 473.78,467.24 474.76,463.76C477.39,454.36 452.06,463.07 434.18,461.22ZM292.39,242.65C292.12,242.92 291.67,242.97 291.67,242.34C292.28,241.73 292.68,242.21 292.39,242.65ZM297.1,218.29C296.9,219.01 296.79,219.62 295.77,220.24C295.25,218.9 295.15,218.08 297.1,218.29ZM291.06,212.55C291.98,213.47 291.57,213.98 290.65,214.6C290.34,213.78 290.65,213.27 291.06,212.55ZM282.05,223.3C283.9,225.15 280.76,223.42 280.62,223.4C281.02,222.38 281.53,223.2 282.05,223.3ZM278.16,215.52C277.75,216.34 277.14,216.85 276.11,217.26C275.9,215.62 276.72,215.32 278.16,215.52ZM271.09,225.76C270.04,226.02 268.97,226.53 268.02,225.04C269.56,224.02 270.38,224.53 271.09,225.76ZM265.97,230.57C266.17,231.39 265.77,231.7 265.05,232C264.66,231.09 264.83,230 265.97,230.57ZM264.03,222.99C264.39,221.19 265.98,222.32 264.23,223.19C263.82,224.01 263.31,224.73 262.08,225.03C262.39,223.81 262.9,223.2 264.03,222.99ZM260.55,235.79C260.86,236.71 260.24,236.92 259.32,237.22C259.42,236.1 259.63,235.48 260.55,235.79ZM253.89,233.95C254.71,235.18 253.58,235.79 253.28,237.02C253.18,235.69 252.56,234.67 253.89,233.95ZM253.79,242.34C256.14,242.24 255.74,243.98 256.55,245.21C254.41,244.6 254.41,244.6 253.79,242.34ZM258.09,235.07C258.09,235.79 257.58,235.89 256.76,236.09C257.07,235.28 257.27,234.77 258.09,235.07ZM257.48,222.59C256.97,224.02 256.97,224.02 254.92,223.2C255.84,223.1 256.45,222.18 257.48,222.59ZM252.77,220.95C254.41,221.36 255.02,221.97 255.02,223.1C253.79,223.2 252.67,223.71 251.54,224.53C251.85,223.2 253.18,222.48 252.77,220.95ZM251.44,248.9C248.93,246.13 250.37,243.52 252.87,246.44C252.36,247.26 251.95,247.97 251.44,248.9ZM220.01,338.68C222.67,339.91 225.64,340.32 229.33,341.24C226.36,338.99 223.39,337.86 222.47,334.38C228.31,332.13 232.15,327.48 236.09,323.02C241.65,316.7 239.78,312.26 240.08,311.66C243.15,303.37 240.95,294.97 241,286.58C241.08,273.7 233.15,271.09 239.87,271.84C242.5,273.94 244.03,289.27 244.07,291.5C244.53,318.11 278.24,320.85 284.1,305.83C291.17,287.71 290.46,296.24 289.22,277.57C291.27,277.67 291.57,278.8 291.68,280.44C293.33,304.54 280.59,309.14 286.97,328.56C288.73,333.92 294.3,331.84 270.08,342.07C266.65,343.52 261.31,339.86 258.92,341.25C261.2,345.81 283.83,344.11 297.11,328.96C295.16,340.63 296.5,351.89 299.16,363.46C297.42,362.85 295.47,363.26 294.55,361.11C294.2,360.06 284.87,358.98 281.86,359.68C278.26,360.52 279.37,356.67 272.44,359.17C269.98,355.59 267.32,357.84 264.66,358.86C262.61,357.63 262.51,354.36 259.23,354.56C263.53,352.1 265.07,348.21 267.01,343.81C265.17,344.42 257.39,353.13 256.67,355.07C252.17,353.74 247.46,354.46 242.23,354.05C273.95,347.98 240.5,353.95 232.91,352.1C232.6,353.64 233.93,353.23 234.14,354.15C228.82,353.84 224.21,350.87 218.89,351.08C222.17,352.72 225.75,353.13 229.23,354.87C224.93,356.1 221.04,355.79 216.84,354.15C219.93,342.87 216.51,341.3 220.01,338.68ZM311.74,450.58C309.91,456.83 306.01,461.94 302.83,468.09L292.29,468.09C297.61,455.29 303.45,442.8 311.95,431.54C311.12,437.88 313.59,444.23 311.74,450.58ZM306.72,433.99C300.02,443.87 297.23,452.38 290.14,468.59C284.3,469.1 278.57,469.61 272.63,469.51C282.14,433.85 276.79,438.69 275.19,449.75C274.21,456.5 272.43,463.06 270.07,469.82C251.03,470.84 231.99,471.97 212.74,472.99C214.25,454.14 236.04,429.99 231.07,421.09C229.19,417.73 230.76,415.36 233.02,412.9C247.86,414.14 250.09,413.72 254.31,416.07C256.78,417.44 265.73,418.81 267,417.61C271.2,413.61 277.21,412.16 281.33,407.99C282.55,406.75 284.3,406.45 286.35,405.33C271.94,425.31 275.04,434.55 277.44,441.88C277.44,439.04 277.42,436.22 276.83,433.38C274.82,423.86 291.16,403.46 291.16,399.7C290.2,398.86 289.65,399.99 289.19,399.87C289.19,397.46 287.12,399.42 283.07,401.85C285.39,401.95 287.33,401.55 288.96,400.25C291.56,402.85 274.62,406.75 265.98,410.24C263,411.44 259.84,410.44 256.66,410.44C254.92,408.39 254.31,405.94 253.79,403.38C255.33,402.66 256.86,403.28 258.5,402.77C256.76,401.95 255.02,401.85 253.48,400.62C253.17,397.65 253.59,394.99 255.94,392.53C274.92,372.68 270.52,373.03 275.08,369.9C281.45,365.53 283.99,359.87 293.2,364.37C299.01,367.21 298.18,364.16 312.55,373.28C317.25,376.26 320.14,380.04 319.2,386.49C316.59,404.62 317.99,417.36 306.72,433.99ZM239.37,402.14C240.71,398.39 238.82,390.91 245.6,384.74C256.97,374.39 268.74,369.76 269.56,366.52C260.35,371.84 252.05,377.47 244.27,384.33C243.96,380.75 243.14,377.88 240.48,375.83C240.89,374.09 242.83,373.58 243.35,371.63C241.4,371.73 240.48,373.47 238.85,373.68C236.5,372.04 234.04,370.4 231.38,368.56C232.77,362.72 211.91,357.68 236.7,364.67C236.39,366.21 234.35,365.9 234.24,367.54C237.21,368.36 238.85,363.65 241.82,365.9C244.3,363.42 234.93,364.98 252.26,361.7C250.83,363.54 248.57,362.72 246.94,364.36C253.29,363.44 259.12,361.9 265.16,360.88C263.01,362.83 260.25,363.54 258.4,365.79C261.78,363.95 265.98,363.84 268.23,360.06C269.66,360.06 269.25,362.11 271.4,362.31C273.96,360.98 277.44,361.39 281.02,362.31C281.4,363.44 275.55,365.86 271.29,371.42C266.23,378.03 245.76,385.59 240.88,394.76C248.15,388.21 256.54,383.5 265.04,378.58C250.01,395.92 248.26,398.81 255.31,413.8C229.92,408.2 233.49,414.28 239.24,402.34C241.7,404.8 245.08,403.41 247.74,402.13C244.99,402.14 242.22,402.14 239.37,402.14ZM232.29,357.62C237.41,357.93 241.81,360.69 246.93,360.08C244.47,361.41 241.5,361.21 239.35,363.36C230.03,360.37 231.67,361.37 232.29,357.62ZM251.23,359.67C253.38,356.19 256.75,358.21 259.42,357.42C260.13,357.21 260.65,358.24 260.65,359.37C259.32,360.39 257.48,360.29 255.63,361.21C254.51,359.67 252.97,359.36 251.23,359.67ZM257.27,413.41C261.88,413.31 266.48,413.31 270.99,412.08C269.45,413.82 266.89,414.33 266.18,416.79C262.7,416.38 259.83,415.26 257.27,413.41ZM229.22,357.93C229.83,358.44 229.94,359.06 229.73,359.77C228.42,360.79 224.3,357.58 224.61,361.1C221.23,359.77 217.24,357.11 216.22,355.57C222.57,358.13 222.57,358.13 229.22,357.93ZM215.4,361.61C214.68,362.22 214.27,362.22 213.56,362.22C213.76,360.49 214.48,360.9 215.4,361.61ZM204.55,398.16C205.68,398.06 206.29,398.77 207.11,399.39C206.29,400.72 205.47,401.23 204.04,400.62C203.63,399.7 204.14,398.98 204.55,398.16ZM202.5,405.02C203.32,405.33 203.01,405.74 202.81,406.25C202.19,405.94 202.09,405.53 202.5,405.02ZM196.36,432.15C196.3,425.96 199.34,414.42 200.46,413.93C200.46,415.26 199.74,416.39 200.77,418.03C201.9,410.66 207.63,406.05 209.57,399.6C208.75,397.35 206.6,396.84 205.27,395.1C206.5,389.88 207.19,384.54 206.19,379.13C205.47,375.24 207.71,375.65 212.95,363.88C221.15,362.56 231.92,371.04 234.65,373.5C240.18,378.48 243.67,382.27 240.18,388.34C236.06,395.51 237.7,402.4 233.94,406.46C231.67,408.9 231.4,412.52 228.51,414.65C227.39,415.48 227.42,417.61 227.59,419.26C227.85,421.81 226.73,424.34 228.31,426.84C228.63,427.34 228.01,428.58 227.8,429.5C224.53,443.73 214.1,449.68 210.6,472.91C208.55,473.73 206.4,473.63 204.36,473.63C203.64,472.71 203.55,471.57 202.72,470.66C193.53,460.6 196.48,445.71 196.36,432.15ZM209.15,481.9C209.85,487.82 209.28,486.88 199.94,484.05C202.91,481.6 206.08,482.72 209.15,481.9ZM222.26,523.88C215.84,529.01 197.17,529.78 189.4,521.93C188.28,520.8 188.47,519.07 187.45,518.14C185.8,516.62 184.07,514.97 181.92,514.45C181.41,507.8 185.76,507.98 188.37,491.21C199.89,490.75 192.72,494.43 198.81,487.32C201.47,488.04 204.44,487.73 207.1,489.37C206.28,491.32 205.87,493.47 207.92,495.1C203.42,494.49 199.01,494.59 194.71,495.51C194.51,496.64 195.43,496.33 195.84,496.84C195.33,497.45 194.3,496.94 193.89,497.76C193.99,499.09 195.32,498.37 196.14,499.09C195.22,499.91 193.48,498.89 193.07,500.52C193.79,501.95 195.42,501.75 196.55,502.36C196.35,503.08 195.12,502.67 195.32,503.9C196.86,504.92 198.9,504.72 200.85,505.13C200.24,506.36 198.5,506.05 198.29,507.79C199.11,509.02 201.57,509.33 201.05,512.09C205.45,511.17 210.57,514.14 212.93,508.1C218.06,512.31 224.31,515.79 222.26,523.88ZM208.34,504.02C208.95,502.89 209.36,501.87 210.8,501.46C211.11,503.3 212.64,504.84 211.31,507.5C210.49,505.76 210.49,503.81 208.34,504.02ZM210.79,500.13C210.28,497.67 208.33,496.96 207.82,495.22C208.84,494.81 209.15,493.68 209.77,492.97C213.79,493.13 212.47,494.76 210.79,500.13ZM267.92,485.08C271.2,483.85 274.68,484.36 278.26,484.06C278.26,485.9 277.34,486.82 275.91,487.23C272.29,484 266.35,492.14 267.92,485.08ZM269.25,481.9C270.19,478.12 270.41,478.85 285.53,477.91C280.82,481.49 275.39,482.52 269.25,481.9ZM289.21,487.53C285.63,489.27 281.43,488.66 278.15,491.42C292.08,490.76 280.17,491.62 277.84,494.18C282.65,495.41 286.54,493.16 290.74,492.54C287.67,494.69 283.57,494.59 280.5,496.94C282.96,498.68 286.23,498.07 292.17,494.69C290.5,498.45 286.38,497.03 284.49,499.6C277.66,496.41 277.02,508.33 284.49,506.25C284.69,504.71 285,503.18 285.31,501.54C286.74,502.05 288.18,501.44 289.61,501.44C291.45,505.13 294.52,505.43 299.75,502.46C304.25,504.3 307.95,507.66 312.55,509.32C314.95,510.18 314.04,513.99 315.93,517.2C313.17,518.53 310.7,519.8 307.64,519.45C302.62,518.89 297.49,521.41 285.63,516.28C271.1,509.99 267.04,515.89 260.14,511.06C261.88,503.38 265.05,495.7 262.49,487.31C264.43,492.95 267.88,489.16 278.77,488.23C281.43,485.77 281.12,480.24 286.86,480.96C288.39,482.62 288.5,485.08 289.21,487.53ZM281.84,505.14C280.1,503.19 280,501.76 281.94,500.33C285.63,502.38 281.53,503.3 281.84,505.14ZM308.05,473.51C189.42,480.75 201.6,480.22 202.19,478.42C204.13,474.54 195.4,477.65 310.2,470.74C310.51,472.9 309.69,473.41 308.05,473.51ZM331.6,465.83C330.72,469.74 331.82,473.53 327.71,476.27C327.2,474.94 328.94,474.22 328.22,472.69C324.53,473.2 325.66,478.53 321.98,479.04C321.67,477.2 323.41,475.76 322.9,473.72C319.73,474.74 320.95,478.84 318.29,479.86C317.78,477.3 320.75,475.56 319.52,472.8C316.45,474.64 316.86,478.53 314.4,480.58C313.27,480.89 312.35,479.97 311.23,479.35C310.51,475.15 315.63,470.44 310.62,466.25C309.39,466.86 308.67,469.12 306.32,467.38C308.67,461.75 313.79,457.35 314.31,450.18C315.54,451.92 315.03,453.66 316.87,454.48C318.1,452.13 316.77,449.87 315.95,448.13C314.17,443.69 316.48,438.98 314.41,429.29C314.12,427.95 314.63,426.84 315.13,425.6C320.55,412.24 319.74,395.23 321.58,386.59C322.63,381.68 320.93,377.62 317.28,374.2C305.34,363.01 297.09,376.04 298.85,332.53C298.75,331.2 299.26,330.69 300.28,330.38C298.13,323.93 297.93,323.62 295.06,323.83C294.65,324.96 295.98,325.26 296.29,326.18C294.96,328.43 293.12,330.17 290.45,330.99C282.43,317.14 292.52,305.93 293.32,294.54C294.96,293.41 296.6,294.54 298.44,294.23C297.31,292.08 295.27,292.18 293.53,291.16C293.53,272.86 289.63,279.7 313.08,293.11C318.32,296.11 321.87,318.61 318.2,328.33C320.76,326.79 320.04,324.64 321.17,323.11C322.81,324.44 322.54,326.57 323.32,328.02C330.03,340.45 324.98,347.41 326.39,355.15C326.82,357.5 325.34,359.66 325.57,362.01C327.58,382.76 329.33,378.57 328.54,381.36C326.84,389.3 333.01,389.95 329.77,407.67C327.64,419.34 330.64,422.55 327.93,429.17C326.66,432.26 327.81,439.05 326.7,440.74C324.05,444.77 325.88,449.24 324.75,453.43C326.49,453.43 326.18,451.89 327,451.28C327.1,451.38 327.31,451.59 327.31,451.69C326.32,456.46 332.97,459.76 331.6,465.83ZM326.27,446.69C325.39,445.81 325.7,444.25 326.88,444.85C326.79,445.46 327.09,446.17 326.27,446.69ZM358.42,470.23C346.91,470.9 337.4,471.77 333.24,471.77C332.74,469.05 332.46,469.44 357.2,468.29C393.3,466.61 390.26,466.29 391.39,466.86C390.87,469.55 391.33,468.32 358.42,470.23ZM393.74,476.79C391.28,475.87 389.24,474.64 388.11,471.98C389.95,470.64 395.94,469.95 394.56,465.33C394.04,463.59 393.23,463.28 390.06,463.38C390.78,461.64 390.78,461.64 392.31,460.41C398.35,463.48 399.27,472.08 393.74,476.79ZM395.17,459.79C410.73,457.8 410.15,478.02 396.81,476.99C399.78,470.85 400.91,465.11 395.17,459.79ZM395.17,508.01C382.5,502.22 377.77,484.92 376.74,472.38C377.91,472.12 385.06,471 385.65,472.18C390.37,480.25 403.45,481.4 408.28,472.59C411.75,466.24 406.44,457.69 399.17,457.75C392.96,457.79 388.08,457.71 386.78,463.69C383.4,463.89 380.13,464.1 376.44,464.3C376.94,430.71 401.46,418.87 413.5,432.05C433.86,454.35 426.07,488.86 418.31,500.23C414.04,506.49 401.92,511.1 395.17,508.01ZM419.64,502.69C429.36,483.97 427.29,480.28 428.65,466.04C430.45,447.13 417.26,432.97 416.06,430.82C436.46,444.78 436.74,483.62 419.64,502.69ZM472.67,463.58C430.75,465.95 434.38,466.5 434.38,464.5C435.72,463.92 449.63,463.28 449.74,463.27C475.69,462.25 472.67,461.38 472.67,463.58Z" style="fill-rule:nonzero;"/>
        <path d="M183.15,475.97C180.59,478.43 181.82,481.81 181.1,484.67C176.84,483.6 177.5,475.37 178.34,467.78C179.71,455.3 180.8,462.79 175.99,416.69C175.35,410.56 172.17,413.04 174.66,400.62C178.27,382.57 178.52,381.61 178.14,378.51C174.97,379.02 171.9,376.97 168.21,378.1C170.87,379.53 173.74,379.02 175.99,380.76C174.36,389.34 175.12,390.51 173.53,393.25C166.88,389.36 166.06,381.89 162.78,374.92C166.67,371.03 167.59,365.5 166.77,359.67C168.92,358.03 171.17,356.8 171.07,353.63C174.35,355.17 177.31,356.19 180.08,353.73C181,353.01 181.82,352.09 180.59,350.66C178.95,350.97 177.72,352.73 175.68,352.5C174.04,352.32 172.3,351.78 170.46,352.4C170.05,354.65 169.54,356.9 166.67,357.62C165.95,355.98 167.08,354.04 165.13,352.71C175.72,346 176.64,350.28 181.92,342.98C182.2,349.31 182.72,370.06 176.8,372.36C177,373.69 178.03,372.87 178.64,373.49C178.64,374.92 177.62,376.66 178.13,378.51C179.91,377.92 182.57,367.6 183.15,364.28C187.16,341.19 182.74,340.26 187.25,329.88C189.77,324.08 192.91,322.68 189.5,321.49C187.04,327.33 183.05,332.34 181.72,338.79C181,339.1 180.39,339.3 179.98,339.92C172.3,351.51 164.48,343.46 163.5,355.17C163.03,360.8 164.01,366.68 160.94,372.06C160.3,373.17 160.51,374.53 161.14,375.75C164.25,381.7 162.19,388.49 172.71,395.82C172.71,408.37 169.46,395.67 174.35,428.99C174.37,429.09 177.78,452.91 177.11,457.55C174.98,472.43 177.26,472.71 174.96,475.16C156.63,474.85 138.41,477.51 119.88,477.82C118.86,470.24 117.45,463.16 114.04,456.53C105.11,439.14 99.55,436.98 84.25,436.98C83.74,438.31 83.12,439.44 81.79,439.74C73.21,441.72 65.1,462.02 63.98,480.79C59.17,481.61 54.46,481.42 49.75,481.71C4.98,484.44 0,482.5 0,489.17C0,493.41 3.55,494.39 7.78,494.39C64.83,490.87 62.42,490.8 65.01,491.42C68.61,511.37 71.67,511.59 69.31,516.91C68.99,517.62 68.59,518.34 68.7,519.16C69.21,520.7 70.34,521.91 71.77,522.23C76.55,523.29 77.58,526.61 83.54,532.47C103.08,551.66 123.13,516.74 120.4,488.04C123.3,486.77 123.99,487.36 165.45,484.76C179.73,483.86 179.34,486.81 181.11,486.81C183.25,484.98 184.38,479.45 183.15,475.97ZM4.1,491.94C1.34,490.3 2.36,488.25 3.28,486.21C6.69,485.45 8.22,490.63 4.1,491.94ZM35.63,489.68C-2.61,492.03 12.65,492.25 8.81,487.12C9.53,486.04 4.51,486.55 80.99,482.72C83.14,482.61 85.7,481.8 86.21,485.07C85.39,487.51 88.06,486.46 35.63,489.68ZM67.26,490.61C91.65,489.05 81.19,490.4 71.66,510.06C69.41,503.4 68.69,497.16 67.26,490.61ZM70.84,518.86C73.6,509.85 78.83,502.28 84.25,494.6C82.61,503.4 82.92,512.41 82,521.42C77.7,521.73 74.02,521.32 70.84,518.86ZM93.98,535.86C87.63,533.91 83.33,529.51 79.14,524.19C89.49,524.96 82.59,507.91 85.79,507.91C88.6,516.34 88.97,522.54 95.41,518.76C98.91,516.71 101.02,513.85 99.91,509.96C95.96,495.98 88.15,496.67 90.7,490.82C90.39,490.57 86.63,492.42 88.75,495.73C90.25,498.07 94.66,500.97 97.25,508.12C98.88,512.63 98.45,513.81 94.59,516.51C93.87,517.01 93.16,517.64 92.13,517.74C89.57,517.27 85.91,500.6 85.68,495.22C85.58,492.87 83.53,491.84 82.3,489.69C89.3,488.69 90.41,480.29 82.2,479.35C82.61,478.02 83.63,477.3 84.66,476.59C90.9,476.9 92.65,478.94 91.93,485.09C91.83,486.83 91.42,488.47 90.8,489.9C101.1,481.92 88.16,469.31 81.69,476.59C79.21,479.38 81.54,480.82 65.82,480.48C66.84,468.51 69.64,455.85 77.8,445.36C88.78,431.24 98.9,447.24 105.95,463.69C117.89,491.49 109.44,532.76 93.98,535.86ZM106.47,529.82C105.83,530.93 104.93,531.97 103.5,532.28C119.57,509.35 117.73,464.2 93.67,439.73C100.31,439.73 116.99,456.32 117.73,481.91C118.6,512.18 113.81,517.06 106.47,529.82ZM175.78,481.39C115.8,484.72 119,486.23 119.78,480.78C179.79,477.78 176.52,476.55 175.78,481.39Z" style="fill-rule:nonzero;"/>
        <path d="M605.86,329.16C607.35,331.54 609.65,330.9 611.8,330.7C613.64,329.06 614.07,326.61 614.56,324.46C615.1,322.11 618.35,321.8 618.14,318.42C617.01,319.65 615.58,319.44 614.86,320.06C612.71,322.93 612.4,326.1 610.97,328.86C603.95,330.26 610.33,325.96 608.93,318.63C610.34,319.13 610.35,319.13 611.07,317.8C609.83,317.3 608.92,319.08 608.92,318.52C605.75,320.26 606.97,323.74 606.16,326.1C603.19,327.23 601.45,327.02 601.04,325.38C601.45,324.56 602.68,325.28 603.29,324.05C600.83,319.95 602.78,314.73 600.73,309.92C602.33,307.58 602.16,292.91 602.27,290.98C602.38,289.04 600.19,288.32 600.22,286.48C600.27,283.1 599.2,279.93 598.58,276.65C591.62,239.69 596.69,251.14 595.51,242.46C594.7,236.52 596.94,231.3 598.79,225.16C600.33,231.3 604.32,235.09 607.7,239.29C609.15,235.14 602.79,231.54 601.76,228.13C600.62,224.35 597.15,220.86 599.3,216.36C599.3,215.47 597.19,208.6 598.17,200.49C598.34,199.05 596.83,197.62 597.66,196.19C599.49,193.01 597.15,190.35 597.15,187.39C596.13,189.54 597.55,191.79 596.95,193.74C593.61,204.54 599.37,214.01 595.82,229.67C595.19,232.43 592.73,234.59 593.47,237.66C595.31,245.39 589.47,248.06 595.52,273.29C595.94,275.02 600.61,298.86 599.92,299.81C597.72,302.85 599.2,305.75 599.92,308.82C597.36,310.97 598.69,313.32 600.02,316.09C581.39,315.17 563.16,317.22 544.84,316.81C544.53,314.35 544.31,312.31 544.02,310.26C541.66,293.72 530.95,280.48 528.05,278.73C522.67,275.48 516.79,274.74 510.44,274.94C510.03,276.07 509.21,277.18 507.98,277.4C500.99,278.65 492.76,295.83 490.99,305.14C488.4,318.75 489.62,318.03 487.1,318.04C473.78,318.11 484.31,318.58 430.49,318.86C423.07,318.9 422.27,328.39 429.77,329.3C431.62,329.64 433.44,328.68 482.49,328.07C494.93,327.91 486.12,325.87 493.34,346.91C495.66,353.65 488.91,357.08 495.39,359.5C500.6,361.45 501.54,364.93 506.96,370.45C525.84,389.69 547.15,354.84 544.74,326.53C563.07,326.02 580.78,325.61 598.59,325.1C600.96,329.79 605.01,327.79 605.86,329.16ZM428.85,327.11C426.29,325.27 426.19,324.76 428.34,321.07C432.03,323.22 432.03,324.65 428.85,327.11ZM433.26,321.69C513.88,321.69 510.18,316.98 510.55,324.56C415.69,327.2 437.12,328.63 433.26,321.69ZM491.71,327.93C515.32,327.93 506.46,327.17 495.5,347.48C493.45,340.73 492.84,334.48 491.71,327.93ZM494.38,356.39C497.35,347.48 502.77,340.11 508.41,332.64C506.77,341.34 506.57,350.25 505.44,359.36C501.13,359.26 497.55,358.85 494.38,356.39ZM516.8,374.2C510.45,372.15 506.36,367.55 502.47,362.22C507.13,360.76 507.72,365.06 509.23,345.02C511.79,354.23 512.3,360.81 518.55,357.31C521.11,355.87 523.26,354.03 524.28,350.86C522.95,348.81 523.17,346.14 522.13,343.8C517.7,333.8 512.82,334.48 514.86,329.26C514.99,329.13 511.07,330.08 512.91,333.76C514.09,336.12 520.57,340.29 522.12,351.16C520.48,353.51 518.33,355.26 515.77,356.18C514.54,355.87 514.34,354.85 514.03,354.03C507.53,331.68 511.64,330.99 506.45,328.33C515.6,325 513.41,318.38 507.17,317.27C508.93,312.77 516.01,314.66 516.59,319.52C517.2,322.69 516.08,325.66 515.26,328.73C526.11,319.05 511.78,306.93 505.94,315.11C503.51,318.52 506.38,317.77 490.58,317.77C492.49,304.18 494.71,294.51 503.89,283.06C515.29,268.86 525.15,286.37 531.53,303.43C542.15,331.86 531.83,371.77 516.8,374.2ZM541.47,342.37C539.36,351.98 534.16,367.76 525.29,371.96C542.66,350.13 544.77,307.55 519.86,277.98C526.38,278.52 541.12,295.52 542.08,312.99C542.62,322.82 543.6,332.64 541.47,342.37ZM545.15,323.73C544.02,322.5 544.23,321.38 544.74,319.74C562.96,319.43 581.29,319.13 599.61,318.72C602.55,323.32 606.08,322.03 545.15,323.73Z" style="fill-rule:nonzero;"/>
        <path d="M515.26,328.75C515.16,328.85 515.06,329.06 514.95,329.16C515.18,328.93 515.26,328.84 515.26,328.75Z" style="fill-rule:nonzero;"/>
        <path d="M899.89,312.68C899.23,308.72 899.16,310.61 863.85,310.94C858.4,310.99 859.54,312.01 858.01,303.06C852.93,273.13 825.52,267.16 813.37,278.9C799.76,292.06 801.05,302.12 799.45,311.97C783.68,311.66 768.12,312.38 752.46,312.89C737.01,291.65 746.55,245.48 732.19,218.09C729.37,212.71 734.29,217.3 727.79,190.24C725.41,180.33 719.73,179.27 722.36,171.71C723.28,168.48 719.4,154.2 718.47,150.93C715.65,141.02 711.98,145.4 701.58,139.05C701.08,138.75 700.49,138.85 699.99,139.03C697.62,133.13 681.87,134.35 681,118.47C680.6,111.1 684.72,114.84 688.27,98.3C688.91,95.34 688.81,92.17 690.01,89.19C691.16,86.33 690.42,83.15 688.78,79.57C687.35,91.14 687.04,102.2 681.61,112.02L669.53,112.02C672.7,114.78 675.98,113.35 678.85,113.97C679.46,116.02 678.97,117.96 678.95,119.91C678.82,131.35 685.14,129.4 686.32,136.39C688.26,147.86 690.36,156.66 678.64,158.3C664.19,160.32 658.81,146.45 653.56,137.52C655.3,135.06 654.07,132.71 653.25,129.74C652.23,131.89 653.25,133.73 652.43,135.88C649.56,131.58 646.39,128.2 642.91,124.72C651.82,118.68 652.33,109.88 651.71,100.15C665.15,109.62 663.51,108.76 664.2,107.73C661.85,104.56 658.16,103.02 655.19,100.87C653.86,97.59 652.73,94.42 652.94,90.94C651.3,90.94 651.71,92.68 650.69,93.19C650.28,91.55 650.79,90.22 651.71,88.89C650.58,88.17 648.74,88.58 648.95,86.64C649.56,86.33 650.48,86.64 651,85.82C651.71,84.69 650.69,83.16 651.92,82.13C653.35,83.05 652.64,84.69 653.66,85.92C656.73,79.47 659.19,72.92 663.39,66.88C665.64,67.6 666.56,65.65 668.1,64.32C666.05,60.81 666.71,60.73 666.54,60.73C668.5,60.4 668.42,62.59 669.73,63.61C671.28,57.78 680.76,63.93 687.24,60.85C686.93,65.35 688.47,69.35 689.39,73.44C687.65,74.26 686.22,74.78 684.89,75.49C682.14,76.94 680.39,82.35 682.54,82.76C683.46,82.15 682.64,80.71 683.77,80.1C685.61,80.51 687.35,79.79 689.3,79.08C689.4,76.32 691.66,73.75 690.63,71.09C689.2,67.4 689.71,63.62 688.79,60.24C690.53,57.48 693.6,56.86 695.65,54.61C694.73,53.69 695.75,52.56 695.45,51.54C694.32,50.41 692.89,51.44 691.56,51.03C692.28,49.8 694.53,50.11 694.22,48.06C692.58,46.63 691.15,48.47 689.61,48.47C689.3,46.63 690.12,44.89 688.69,43.25C687.67,44.17 686.74,44.99 685.62,46.01C683.34,42.4 679.28,46.91 676.1,46.32C672.09,45.58 668.11,46.32 664.22,46.12C663.09,46.53 663.3,48.27 661.87,48.17C661.05,47.86 661.87,46.22 660.23,46.22C658.28,48.47 655.73,50.32 652.24,50.21C650.7,49.19 649.48,47.24 647.22,48.47C646.91,49.9 648.55,50.31 648.55,51.34C648.51,51.44 639.87,67.28 641.38,75.4C641.99,78.68 644.25,81.64 643.33,85.23C643.33,85.33 643.33,85.43 643.43,85.54C646.3,89.84 644.91,95.62 648.14,99.77C648.54,100.29 648.24,101.31 648.24,102.12C648.24,109.54 649.97,114.79 641.28,123.21C623.35,140.57 613.05,139.36 607.29,147.58C603.2,153.42 600.64,159.97 600.64,167.34C600.64,174.5 597.18,176.81 596.14,182.39C594.24,192.56 600.73,178.2 602.9,164.06C603.5,160.17 604.44,156.38 607,152.39C606.9,160.48 606.9,160.48 608.74,162.32C607.31,157.92 610.58,154.03 608.23,150.14C611.53,142.89 621.37,142.95 637.82,129.97C658.63,156.77 649.45,162.51 647.14,169.79C645.19,175.94 638.34,184.85 631.37,184.43C631.47,179.62 632.19,175.22 630.55,170.92C627.22,172.03 632.39,195.75 619.49,224.67C614.81,235.16 618.6,229.89 614.78,267.36C614.78,269.75 612.89,269.32 613.55,275.04C616.28,298.73 613.82,305.45 622.76,313.02C627.4,316.95 623.13,326.36 621.53,331.65C620.2,332.41 618.87,332.47 617.62,332.71C618.85,335.13 620.75,333.08 622.35,333.49C624.3,330.73 625.01,327.76 625.93,324.38C655.41,324.38 684.69,322.95 714.38,322.43C715.06,328.13 718.73,342.77 718.99,343.21C722.48,349.21 720.02,352.4 722.27,370.03C716.48,368.33 707.89,379.49 672.92,376.99C671.28,367.06 667.19,358.15 663.6,348.63C661.65,350.58 660.44,352.52 660.43,354.77C660.37,363.88 656.72,377.59 657.97,378.32C660.22,378.12 660.02,376.17 660.32,374.74C664.19,356.79 662.25,354.65 663.8,353.96C665.75,357.94 672.05,374.27 669.23,378.22C672.2,378.73 674.66,379.04 677.32,379.45C679.18,386.27 684.52,389.59 683.56,393.78C681.69,401.97 688.17,407.55 687.25,415.69C684.43,440.38 680.36,442.59 683.26,451.52C688.16,466.63 688.08,465.8 687.76,468.51C685.65,486.6 691.87,502.62 685.61,509.15C683.27,511.59 683.02,521.1 683.97,526.14C688.73,525.22 684.15,519.67 687.35,512.52C688.27,512.32 688.88,512.81 689.81,512.62C698.56,510.84 696.49,517.29 701.17,515.18C702.92,514.39 702.6,512.83 702.6,511.19C705.57,511.39 705.67,507.71 708.54,507.4C711.82,508.53 711.61,512.21 713.35,515.08C709.05,514.98 705.26,515.28 701.47,517.03C703.21,517.03 703.11,518.26 703.31,519.28C707.41,520.3 711.6,518.97 715.8,520C711.91,522.15 707,520.51 702.8,523.38C704.95,524.51 707,524.2 708.94,524.61C708.74,525.53 707.2,525.43 707.71,526.76C711.4,526.45 715.18,526.56 718.66,525.02C722.35,529.52 727.05,532.51 732.28,534.54C737.44,536.54 735.11,538.47 736.99,544.57C734.91,547.9 730.05,545.67 714.77,545.29C702,544.97 698.28,535.73 684.88,537.1C678.53,537.75 684.21,530.77 683.45,527.07C679.87,528.91 679.87,528.91 679.35,538.23C680.78,539.87 682.83,539.56 684.57,539.56C699.49,539.56 702.8,546.39 709.35,547.03C747.25,550.77 737.95,543.59 738.42,540.48C739.15,535.67 736.06,533.02 732.48,531.78C713.78,525.28 717.62,504.04 705.66,505.26C701.67,505.67 697.67,505.67 693.48,505.87C693.38,503.72 693.17,501.88 693.07,500.03C691.72,502.6 693.41,507.47 689.9,505.97C688.88,504.54 689.54,503.87 689.39,475.15C689.28,455.55 680.82,452.61 685.6,436.14C687.89,428.26 691.06,414.82 687.44,407.47C685.69,403.92 683.7,398.94 684.57,395.08C686.51,386.54 678.83,384.26 679.25,378.8C691.64,380.64 703.21,376.75 715.08,373.89C715.28,377.78 713.85,380.85 714.16,384.13C710.24,387.49 712.91,384.65 713.85,387.71C718.97,404.38 712.55,405.38 713.24,412.69C714.37,424.74 716.35,428.23 715.08,437.67C710.74,470.1 703.11,501.63 706.89,502.58C708.02,501.76 707.82,500.43 707.81,499.41C707.69,488.65 709.86,487.16 710.27,479.24C710.74,470.14 713.29,468.2 714.88,459.38C716.4,450.93 718.97,430.61 716.11,420.58C712.04,406.3 721.38,405.45 716.93,392.22C712.68,379.59 717.3,386.05 717.75,373.59C719.49,371.95 721.74,372.57 723.69,372.16C724.82,369.4 723.68,366.74 723.38,364.17C722.42,355.88 723.61,347.37 720,339.29C717.66,334.06 717.54,328.13 716.42,322.4C718.16,321.89 719.9,322.09 721.85,322.2C721.85,324.15 723.49,325.25 724.92,325.27C728.4,325.32 731.06,327.62 734.65,327.83C736.39,323.84 737.52,319.44 739.56,315.44C736.08,318 734.34,321.48 733.32,325.47C731.99,325.37 730.86,325.27 730.04,324.24C733.4,314.89 728.9,309.49 724.1,312.88C731.63,298.05 733.98,277.51 729.12,273.67C728.39,281.35 732.16,279.04 729.22,284.52C728.61,283.6 728.79,282.58 728.71,281.55C727.85,270.63 723.13,269.56 717.86,249.92C715.93,242.73 718.28,241.74 713.46,232.21C711.33,228 710.39,223.61 709.26,219.52C709.26,218.5 710.49,219.11 710.28,217.47C710.18,215.22 707.86,212.77 708.44,209.59C709.2,205.4 709.17,201.09 709.05,196.79C708.76,186.09 710.8,190.46 711.92,183.69C713.04,176.9 717.04,155.02 711.1,155.02C711.2,159.01 712.64,162.8 712.23,166.9C695.38,164.24 696.54,146.57 693.29,138.75C690.82,132.82 697.18,139.39 699.94,139.07C703.18,145.02 714.71,142.09 717.45,154.72C722.22,176.7 718.31,176.41 721.65,181.13C725.41,186.45 728.82,201.45 728.71,204.37C728.16,220.04 733.29,221.24 734.55,228.63C737.59,246.59 739.77,245.31 739.36,256.68C738.54,256.68 738.75,255.86 737.93,255.96C738.13,259.44 739.28,262.72 739.67,266.1C740.4,272.39 740.46,293.68 748.99,311.15C750.2,313.64 748.3,325.69 745.1,323.95C745,321.49 747.15,319.75 747.76,316.99C743.77,318.53 744.38,322.52 741.72,325.08C743.77,324.26 744.69,325.59 745.82,325.8C748.28,324.78 749.3,322.42 751.14,320.78C767.11,320.98 782.98,320.06 799.15,319.76C799.66,326.82 800.97,333.48 803.04,340.03C806.64,351.44 817.3,361.21 828.12,358.97C833.24,357.91 841.49,357.51 846.85,351.19C856.33,340.01 857.44,327.93 859.14,318.33C891.09,315.64 901.21,320.58 899.89,312.68ZM687.97,77.42C687.97,77.58 687.25,77.72 687.25,77.22C687.25,76.44 688.4,76.98 687.97,77.42ZM692.99,52.95C692.48,53.87 692.48,54.59 691.66,54.79C691.24,53.56 691.24,53.56 692.99,52.95ZM686.84,47.42C687.76,48.55 687.04,48.96 686.33,49.26C686.02,48.65 686.13,48.03 686.84,47.42ZM678.45,58.78C677.32,59.29 676.91,58.06 675.99,58.17C677.01,57.55 677.63,58.27 678.45,58.78ZM673.84,50.29C673.33,51.11 672.82,51.62 671.79,52.03C671.59,50.39 672.41,50.08 673.84,50.29ZM666.78,60.52C665.45,60.96 664.5,61.06 663.7,59.91C665.14,58.78 666.06,59.29 666.78,60.52ZM649.58,68.71C650.3,69.94 649.17,70.66 648.97,71.88C648.86,70.56 648.25,69.53 649.58,68.71ZM649.27,77.21C651.73,76.9 651.32,78.85 651.83,79.87C649.99,79.77 649.58,78.64 649.27,77.21ZM661.04,66.77C659.91,66.16 660.94,65.64 661.04,65.13C662.17,65.85 661.56,66.26 661.04,66.77ZM659.71,57.76C660.03,55.85 661.75,57.23 659.91,57.96C659.4,58.88 658.78,59.8 657.25,60.31C657.77,58.89 658.38,58.07 659.71,57.76ZM656.23,70.45C656.54,71.37 655.92,71.68 655.1,71.99C655,70.86 655.31,70.45 656.23,70.45ZM653.67,69.84C653.77,70.76 653.26,70.76 652.54,70.66C652.65,69.94 652.96,69.63 653.67,69.84ZM647.12,83.76C645.99,82.53 645.07,81.51 646.3,80.07C647.43,79.76 647.84,80.58 648.35,81.09C648.45,82.23 647.12,82.64 647.12,83.76ZM646.71,59.7C647.43,58.06 648.55,57.24 648.45,55.81C650.09,56.12 650.6,56.83 650.6,57.96C651.52,57.86 652.24,57.04 653.16,57.24C651.85,60.53 652.85,56.02 646.71,59.7ZM701.99,507.6C700.76,509.34 699.84,510.67 699.53,513.33C696.77,509.44 692.88,510.67 689.7,509.23C693.6,507.81 697.59,507.5 701.99,507.6ZM617.12,262.51C623.12,230.12 613.22,241.44 624.8,218.28C626.85,225.14 631.45,230.97 628.08,238.14C628.9,244.18 629.39,250.24 626.03,255.75C624.86,257.67 626.23,259.03 626.34,260.56C625.52,259.84 624.8,258.82 623.27,259.02C621.73,260.04 621.41,261.79 621.53,263.52C621.85,268.19 618.55,265.93 615.69,272.94C615.08,268.86 616.52,265.79 617.12,262.51ZM622.35,309.3C615.13,303.24 618,298.41 616.21,282.89C615.4,275.93 618.36,271.01 623.38,266.71C625.84,269.17 625.05,270.14 628.19,268.35C628.91,268.86 628.19,269.78 629.01,270.19C630.14,270.19 629.93,268.55 631.06,268.45C631.26,269.47 630.04,270.29 630.65,271.52C631.88,271.72 631.78,270.09 632.6,269.78C634.44,270.7 636.29,271.62 638.23,272.65C637.72,275.11 637.92,277.26 640.99,278.38C640.79,276.43 639.76,275.1 639.86,273.26C644.13,274.26 652.1,278.46 661.87,280.43C665.45,281.15 669.04,280.23 672.72,281.04C673.13,282.17 671.39,283.29 672.62,284.42C674.16,283.81 673.64,281.35 675.28,280.94C676.92,280.94 676.2,282.37 676.82,282.99C678.87,282.79 680.71,281.04 683.37,281.56C684.7,278.9 687.87,278.49 690.84,277.67C689.51,279.21 686.54,279.31 687.26,282.48C688.8,282.48 688.69,281.05 689.21,280.33C690.13,279.2 690.95,279.92 692.18,280.02C692.28,277.05 696.38,278.07 696.38,275C698.12,276.23 696.38,277.15 696.79,278.07C698.84,279.61 700.81,281.2 702.83,282.68C711.98,289.36 705.38,297.56 710.41,304.69C712.06,307.03 712.46,310.01 713.17,313.49C604.07,315.8 632.8,318.08 622.35,309.3ZM628.18,266.2C627.87,266.92 627.16,266.81 626.64,267.02C626.17,266.44 625.84,263.38 628.18,266.2ZM701.48,272.24C704.34,273.77 701.18,279.3 706.29,280.43C707.82,280.77 708.13,282.78 707.42,285.24C705.78,281.96 703.32,280.22 700.77,278.28C702.51,276.64 701.18,274.39 701.48,272.24ZM724.52,322.81C725.24,321.99 725.75,322.2 726.36,322.61C725.75,324.04 725.23,323.22 724.52,322.81ZM729.12,316.46C730.23,319.3 730.29,318.88 707.62,319.53C615.53,322.16 634.99,321.07 626.85,321.58C625.29,316.9 614.45,318.52 729.12,316.46ZM694.52,149.18C696.11,158.59 702.74,166.03 707.73,167.4C709.36,167.85 711.11,168.01 712.44,169.35C711.31,174.47 711.03,179.9 708.96,184.5C705.46,192.28 708.96,192.49 704.97,215.01C702.29,230.1 704.87,226.18 704.25,234.15C705.99,233.13 706.32,231.99 705.89,230.57C704.63,226.45 705.89,222.69 706.61,218.28C714.9,241.98 715.24,241.72 715.21,243.16C714.93,256.5 725.36,267.21 728.01,288.41C729.43,299.79 724.88,305.8 722.48,312.98C709.75,314.57 717.92,310.4 710.71,301.31C709.89,300.28 709.68,298.85 709.89,297.62C710.68,293.01 708.95,288.3 710.3,283.7C711.65,279.11 700.34,275.23 704.46,260.87C705.58,256.98 705.18,253.19 704.66,249.3C704.66,249 704,248.81 703.69,248.52C702.8,250.73 702.1,253.04 702.31,255.44C702.7,260.05 700.77,264.55 702.31,269.47C683.34,279.92 675.1,278.42 667.6,277.56C654.61,276.07 631,268.66 626.34,260.67C627.36,258.42 628.29,256.17 629.41,253.71C633.91,253.4 637.8,256.37 642.72,256.78C638.62,254.12 634.02,253.5 630.33,251.25C629.51,245.51 637.55,257.73 656.13,256.06C647.63,254.83 639.24,253.4 631.56,248.18C631.05,247.57 631.36,246.54 631.56,245.62C632.79,245.11 633.71,246.54 635.14,245.62C634.01,244.49 631.45,244.08 632.38,241.32C637.81,243.37 643.33,245.42 649.27,245.42C644.89,244.29 635.32,242.19 630.13,238.97C635.09,229.75 624.99,215.54 626.34,211.53C628.07,206.41 629,200.99 629.82,195.66C631.46,195.76 632.38,197.4 634.32,197.2C633.09,195.46 631.25,194.85 629.92,193.51C629.72,191.26 630.64,189.11 631.05,186.86C632.28,185.94 633.81,186.45 634.94,185.73C638.22,189.01 639.65,189.31 646,187.68C642.62,186.14 638.94,187.78 636.38,185.02C642.52,181.64 646.19,176 649.18,169.87C661.32,144.89 635.23,131.79 641.71,125.85C654.99,135.81 655.79,160.77 678.67,160.35C690.62,160.13 691.65,146.09 687.58,134.45C689.93,134.45 690.15,134.45 690.55,135.99C691.69,140.47 693.74,144.57 694.52,149.18ZM767.82,317.79C750.4,318.2 751.46,319.84 752.26,315.84C773.55,315.43 795.05,315.02 816.65,314.71C815.81,317.73 818.29,316.61 767.82,317.79ZM818.5,325.06C816.04,324.04 814.2,322.6 812.97,320.25C815.08,318.13 820.32,319.36 819.73,314.01C819.4,311.04 817.07,311.86 815.12,311.66C816.36,302.97 828.61,316.94 818.5,325.06ZM820.44,307.97C829.24,308.07 831.7,311.25 831.6,316.88C831.49,323.12 827.91,325.99 821.36,325.38C824.95,319.33 825.97,313.5 820.44,307.97ZM827,357.31C811.74,360.46 801.71,336.55 801.71,319.74C812.36,319.74 808.97,318.81 813.07,323.32C818.19,328.95 828.54,328.14 832.83,321.99C835.4,318.31 833.72,314.63 832.63,311.14C831.08,306.18 825.62,306.34 821.06,306.23C816.86,306.13 813.18,306.74 811.95,311.76L801.71,311.76C801.3,297.63 807.36,286.6 818.09,277.87C822.4,274.36 825.95,275.55 831.4,275.82C840.01,276.25 849.49,294.06 850.95,303.15C852.23,311.06 851.35,330.03 846.14,342.67C842.55,351.37 835.59,355.54 827,357.31ZM843.99,350.86C847.88,343.9 851.4,336.84 852.38,328.95C853.34,321.28 854.62,313.59 853.81,305.92C852.16,290.35 842.6,281.74 842.75,280.33C861.19,292.3 861.6,334.38 843.99,350.86ZM859.45,315.44C860.58,313.08 860.39,313.69 880.85,313.29C898.04,312.95 896.9,312.74 897.64,314.42C885.04,314.72 872.45,315.13 859.45,315.44Z" style="fill-rule:nonzero;"/>
        <path d="M657.67,378.5C652.39,379.61 652.69,377.63 614.98,375.43C614.06,375.33 613.14,375.43 612.32,374.61C614.98,336.1 616.24,374.48 612.83,332.74C618.51,333.74 617.25,331.95 617.6,332.65C622.16,324.1 622.65,322.67 621.94,320.87C619.28,324.25 618.56,328.65 616.41,331.93C614.67,332.34 613.54,331.21 612.01,331.73C611.6,332.86 610.8,333.98 610.99,335.42C611.65,340.43 610.79,345.61 612.73,350.47C613.05,351.28 612.85,352.31 612.73,353.23C610.05,373.97 610.48,353.23 610.48,376.98C613.86,377.8 617.65,377.29 621.23,378.41C622.46,384.65 622.89,390.6 621.54,396.74C619.79,404.64 621.85,403.86 621.13,408.72C620.29,414.38 606.93,424.22 608.64,449.47C609.35,459.89 611.16,468.46 610.69,470.35C609.23,478.39 611.97,495.42 611.92,503.11C611.9,505.36 611.61,507.72 613.35,509.87C613.25,491.14 611.4,472.4 613.45,453.67C613.04,455.62 612.53,457.46 612.12,459.4C606.77,431.4 617.78,420.98 623.89,410.05C622.46,404.11 624.16,399.09 625.02,394.08C625.91,388.85 624.41,383.64 624.41,378.31C630.76,378.82 636.7,379.74 643.04,379.64C640.79,383.39 647.74,391.33 649.8,395.2C655.35,405.65 648.86,416.82 643.25,427.14C639.71,433.65 642.22,432.27 640.69,446.08C638.35,467.25 634.66,459.49 630.15,483.45C628.13,494.18 631.7,508.91 630.76,513.24C624.92,510.99 618.78,513.55 613.36,510.58C611.41,511.19 610.38,512.71 608.86,513.45C606.59,514.55 605.18,516.42 605.28,518.88C605.51,524.92 601.99,530.47 603.23,536.59C603.57,538.27 601.3,540.31 600.88,542.83C602.21,546 604.87,546.72 607.74,546.72C609.99,549.48 611.84,552.33 615.32,553.27C634.43,558.47 637.54,556.94 646.95,554.81C651.63,553.75 648.49,548.65 647.67,546.01C640.84,524.07 633.86,538.77 636.61,514.68C635.18,513.76 633.13,513.66 632.92,511.3C631.69,496.99 628.9,481.52 639.27,463.49C640.94,460.59 644.38,447.81 643.88,437.49C643.05,420.65 654.9,419.27 653.71,406.67C652.81,397.15 658.09,398.83 657.81,382.3C657.75,381.06 659.3,379.73 657.67,378.5ZM621.42,513.95C628.94,513.19 628.11,514.18 629.2,518.25C625.62,518.56 622.24,518.76 618.55,518.86C617.84,515.48 618.56,514.24 621.42,513.95ZM616.1,513.64C615.49,515.99 614.26,515.48 612.62,514.46C613.54,512 614.77,512.51 616.1,513.64ZM633.91,525.62C628.79,526.23 623.37,524.8 618.35,527.67C619.68,529.1 621.32,528.08 622.24,529.31C621.79,529.71 612.49,530.39 626.54,532.07C626.74,533.2 624.9,532.89 625.21,534.22C626.34,535.35 627.97,535.24 629.51,535.65C630.23,536.37 628.9,536.78 629.2,537.39C631.66,539.13 632.78,539.03 635.96,536.67C635.76,535.44 635.14,534.01 635.96,532.88C634.94,531.04 633.3,531.96 631.76,531.45C632.17,530.43 631.86,528.89 633.71,528.99C640.57,535.03 644.87,542.5 646.61,551.41C645.74,552.36 633.68,556.57 613.64,549.67C608.79,548 611.05,543.67 606.06,544.14C601.44,544.58 604.18,540.16 604.32,539.84C607.48,534.05 602.7,539.09 606.47,527.55C608.31,521.92 606.74,518.13 609.95,515.88C612.92,517.11 615.58,518.23 617.53,520.69C623.73,521.05 627.8,521.25 630.27,521.35C626.07,521.33 618.76,521.56 615.18,522.94C621.63,525.21 627.87,523.98 633.91,525.62ZM652.96,398.77C651.1,400.63 652.54,394.15 647.94,389.86C646.03,388.08 647.48,386.07 644.97,379.93C648.66,380.13 652.03,381.06 655.62,380.85C656.23,387.31 655,393.14 652.96,398.77Z" style="fill-rule:nonzero;"/>
        <path d="M195.54,396.62C196.32,395.45 196.36,395.58 191.44,387.2C189.16,383.31 189.85,383.02 193.28,373.58C187.83,368.86 187.14,390.75 187.14,396.61C187.14,407.79 185.04,406.92 185.91,413.3C187.55,411.76 186.42,410.23 186.63,408.8C190.93,402.56 187.45,395.18 189.19,388.43C193.08,389.87 193.29,394.07 195.54,396.62Z" style="fill-rule:nonzero;"/>
        <path d="M623.68,421.4C622.86,430.72 623.03,439.57 620.4,448.02C620.11,448.95 620.3,450.07 621.32,451.4C624.07,438.56 627.56,424.17 623.68,421.4Z" style="fill-rule:nonzero;"/>
        <path d="M193.39,346.46C187.86,337.83 191.93,333.39 189.4,332.43C186.46,332.85 187.81,341.96 189.09,344.61C192.34,351.34 192.53,347.35 194.93,354.85C195.75,354.44 196.36,353.31 196.06,352.9C194.21,351.07 194.63,348.4 193.39,346.46Z" style="fill-rule:nonzero;"/>
        <path d="M692.88,424.88C690.93,429.28 694.12,432.45 694.83,435.94C695.56,439.52 694.01,443.41 696.16,447.3C697.9,439.11 696.26,427.54 692.88,424.88Z" style="fill-rule:nonzero;"/>
        <path d="M270.79,244.29C279.67,246.34 287.02,240.46 278.57,238.97C275.29,238.87 271.61,237.95 269.05,241.43C270.69,242.04 271.51,240.51 273.04,240.41C274.27,241.64 276.42,240.61 278.06,241.95C273.34,242.55 271.91,243.06 270.79,244.29Z" style="fill-rule:nonzero;"/>
        <path d="M677.83,77.01C676.6,72.81 668.82,72.3 664.62,76.5C666.16,76.91 666.97,75.58 668.72,75.27C669.85,76.7 672.2,75.37 673.53,76.91C670.87,77.42 668.31,77.42 665.44,78.96C670.36,80.08 674.35,80.08 677.83,77.01Z" style="fill-rule:nonzero;"/>
        <path d="M710.08,395.7C711.61,393.66 712.57,391.35 710.08,390.68C708.22,392.27 706.58,398.09 705.37,398.97C702.48,401.09 702.5,404.29 705.27,407.06C707.47,404.87 702.74,404.38 710.08,395.7Z" style="fill-rule:nonzero;"/>
        <path d="M259.63,265.89C258.5,262.51 257.17,259.54 257.17,256.06C254.1,259.23 257.48,262.41 256.76,265.58C269.52,274.65 267.97,274.01 268.74,272.85C266.28,269.68 262.6,268.04 259.63,265.89Z" style="fill-rule:nonzero;"/>
        <path d="M227.48,278.38C225.13,279.61 225.02,282.78 222.46,284.11C220.11,284.11 217.55,283.8 215.09,285.75C222.19,282.2 227.13,291.77 228.4,289.23C227.17,287.39 225.84,285.65 224.61,283.8C228.71,279.92 228.71,279.92 227.48,278.38Z" style="fill-rule:nonzero;"/>
        <path d="M185.4,435.83C187.24,430.3 185.09,424.98 185.3,419.45C181.72,424.16 180.69,426.92 181.41,430.92C182.95,428.87 182.13,425.9 183.97,423.96C185.3,427.85 184.48,431.94 185.4,435.83Z" style="fill-rule:nonzero;"/>
        <path d="M180.49,408.09C180.18,398.67 181.31,389.46 183.05,379.94C180.49,382.19 179.16,396.62 180.49,408.09Z" style="fill-rule:nonzero;"/>
        <path d="M206.6,336.02C203.02,330.8 200.56,324.96 198.92,318.41C195.38,321.94 201.92,333.01 206.6,336.02Z" style="fill-rule:nonzero;"/>
        <path d="M598.39,196.38C601.25,206.04 597.68,213.01 601.65,211.77C601.33,212.37 600.45,212.99 601.26,213.89C602.46,212.86 601.57,211.81 601.77,211.74C601.25,205.29 602.13,201.22 598.39,196.38Z" style="fill-rule:nonzero;"/>
        <path d="M705.88,532.68C705.88,532.13 707.65,525.21 703.42,525.21C699.59,525.21 698.44,534.34 705.88,532.68ZM703.12,526.85C704.96,528.08 704.96,528.08 702.71,531.15C701.38,529.51 701.38,528.08 703.12,526.85Z" style="fill-rule:nonzero;"/>
        <path d="M634.32,410.34C635.74,409.87 634.64,411.45 636.98,404.81C635.07,401.37 633.03,397.41 632.37,401.33C631.65,401.43 631.65,400.2 630.12,400.92C633.5,403.18 636.27,405.74 634.32,410.34Z" style="fill-rule:nonzero;"/>
        <path d="M626.34,412.6C626.54,418.13 628.8,422.94 632.58,426.93C630.24,421.5 627.97,413.68 626.34,412.6Z" style="fill-rule:nonzero;"/>
        <path d="M697.49,532.38C701.64,531.68 700.69,524.23 697.39,524.5C692.6,524.88 694.31,532.91 697.49,532.38ZM697.28,526.03C699.63,528.28 699.63,528.9 697.08,530.74C695.44,529 695.24,527.56 697.28,526.03Z" style="fill-rule:nonzero;"/>
        <path d="M667.29,140.17C666.88,138.53 664.94,139.15 664.42,137.92C663.91,134.23 662.47,131.06 659.92,127.38C659.72,131.99 662.68,135.06 662.38,139.05C664.01,139.15 665.45,140.38 667.29,140.17Z" style="fill-rule:nonzero;"/>
        <path d="M693.19,524.29C690.07,523.6 689.12,522 689.5,530.94C690.83,530.94 690.42,529.61 691.24,529.4C692.37,529.6 692.06,531.35 693.9,531.45C692.17,529.1 695.44,526.85 693.19,524.29ZM691.86,527.36C690.74,527.15 690.84,526.44 691.35,525.62C693.45,525.62 692.9,527.56 691.86,527.36Z" style="fill-rule:nonzero;"/>
        <path d="M721.65,530.43C720.98,526.09 715.4,527.88 713.56,530.12C716.53,530.64 718.89,533.19 721.65,530.43Z" style="fill-rule:nonzero;"/>
        <path d="M638.21,161.67C641.28,158.91 639.34,154.2 642.82,151.94C638.73,152.66 636.68,157.17 638.21,161.67Z" style="fill-rule:nonzero;"/>
        <path d="M181,438.39C179.98,445.25 180.59,452.11 180.49,458.97C182.64,452.22 180.28,445.25 181,438.39Z" style="fill-rule:nonzero;"/>
        <path d="M635.35,411.88C632.79,413.72 632.79,414.13 635.15,419.66C634.23,423.14 634.23,423.65 635.97,425.8C636.38,423.75 634.95,421.5 637.2,419.96C635.76,417.1 635.04,414.64 635.35,411.88Z" style="fill-rule:nonzero;"/>
        <path d="M277.54,264.15C280.1,265.58 287.06,264.97 289.72,263.23C285.12,262.72 281.33,263.64 277.54,264.15Z" style="fill-rule:nonzero;"/>
        <path d="M280.82,268.86C286.92,271.26 290.65,266.75 283.38,266.3C281.84,266.3 280.92,267.22 280.82,268.86Z" style="fill-rule:nonzero;"/>
        <path d="M744.07,316.77C740.79,319.94 740.69,324.86 736.8,327.21C740.69,326.19 744.48,320.76 744.07,316.77Z" style="fill-rule:nonzero;"/>
        <path d="M673.12,98.91C675.27,100.45 682.74,99.93 685.3,97.99C680.8,97.79 676.91,98.4 673.12,98.91Z" style="fill-rule:nonzero;"/>
        <path d="M678.65,101.27C677.22,101.47 676.6,102.5 676.5,104.03C683.98,106.21 685.41,100.85 678.65,101.27Z" style="fill-rule:nonzero;"/>
        <path d="M598.7,252.58C599.42,256.98 600.03,260.77 600.65,264.66C601.67,258.72 600.85,254.22 598.7,252.58Z" style="fill-rule:nonzero;"/>
        <path d="M600.54,231.9C598.67,231.53 598.86,230.93 598.19,240.4C598.5,240.5 598.8,240.5 599.11,240.5C599.93,237.74 601.77,234.97 600.54,231.9Z" style="fill-rule:nonzero;"/>
        <path d="M722.98,225.76C726.36,223.81 727.38,221.05 728.51,217.88C725.85,218.8 723.08,222.69 722.98,225.76Z" style="fill-rule:nonzero;"/>
        <path d="M185.92,370.52C182.54,372.98 182.03,374.92 183.87,378.61C185.71,376.05 184.69,372.87 185.92,370.52Z" style="fill-rule:nonzero;"/>
        <path d="M600.33,250.84C599.72,247.87 600.94,245.21 600.02,242.45C597.26,244.29 597.26,247.77 600.33,250.84Z" style="fill-rule:nonzero;"/>
        <path d="M693.19,392.63C693.8,396.32 696.36,398.06 699.74,398.98C697.39,397.03 696.26,393.86 693.19,392.63Z" style="fill-rule:nonzero;"/>
        <path d="M641.39,381.06C638.83,383.11 637.5,385.87 636.58,388.84C638.93,386.69 641.39,384.65 641.39,381.06Z" style="fill-rule:nonzero;"/>
        <path d="M717.56,239.78C718.99,236.61 719.1,233.13 721.66,230.77C723.5,229.95 722.89,228.31 723.2,226.47C721.15,227.6 721.46,229.13 721.46,230.57C717.56,232.41 715.92,236.1 717.56,239.78Z" style="fill-rule:nonzero;"/>
        <path d="M624.8,173.34C624.29,170.17 623.88,167.3 623.47,164.23C621.53,167.2 622.04,171.6 624.8,173.34Z" style="fill-rule:nonzero;"/>
        <path d="M675.89,140.79C678.76,140.28 681.73,139.87 684.59,139.46C681.28,138.35 675.73,137.32 675.89,140.79Z" style="fill-rule:nonzero;"/>
        <path d="M668.41,139.97C671.38,142.73 671.79,142.73 675.88,140.69C675.37,140.18 674.86,139.56 674.14,138.85C672.61,140.58 670.56,139.86 668.41,139.97Z" style="fill-rule:nonzero;"/>
        <path d="M637.19,162.69C635.04,164.84 633.5,167.19 630.95,168.63C634.12,169.66 636.17,167.61 637.19,162.69Z" style="fill-rule:nonzero;"/>
        <path d="M202.5,302.95C199.74,305.51 199.63,308.99 199.12,312.27C200.56,309.3 201.99,306.33 202.5,302.95Z" style="fill-rule:nonzero;"/>
        <path d="M661.25,113.55C659.3,110.68 658.08,107.51 655.72,105.16C656.54,108.84 659.1,112.63 661.25,113.55Z" style="fill-rule:nonzero;"/>
        <path d="M203.52,353.01C202.5,355.98 201.68,358.33 200.65,361.51C203.83,358.64 204.24,357.11 203.52,353.01Z" style="fill-rule:nonzero;"/>
        <path d="M603.92,176.52C606.27,179.59 607.81,180.82 611.6,182.36C603.32,175 604.48,175.96 603.92,176.52Z" style="fill-rule:nonzero;"/>
        <path d="M678.75,93.08C680.59,92.88 682.23,92.57 684.48,92.26C682.13,89.91 679.78,90.42 678.75,93.08Z" style="fill-rule:nonzero;"/>
        <path d="M288.5,256.98C286.45,255.34 284.92,255.55 283.07,258.11C284.81,257.29 286.96,258.72 288.5,256.98Z" style="fill-rule:nonzero;"/>
        <path d="M637.19,439.62C637.19,437.16 637.09,434.71 634.94,432.86C635.24,435.22 635.45,437.68 637.19,439.62Z" style="fill-rule:nonzero;"/>
        <path d="M276.62,282.78C275.08,283.7 273.45,283.7 271.6,284.01C274.68,286.37 275.8,286.06 276.62,282.78Z" style="fill-rule:nonzero;"/>
        <path d="M640.88,162.29C643.44,162.09 645.28,160.65 647.23,159.53C643.95,159.62 642.31,160.34 640.88,162.29Z" style="fill-rule:nonzero;"/>
        <path d="M268.53,295.58C264.95,296.6 264.74,296.81 264.43,299.37C266.79,299.16 267.3,297.22 268.53,295.58Z" style="fill-rule:nonzero;"/>
        <path d="M603.61,216.75C605.56,215.32 606.78,213.58 606.99,210.2C602.08,217.55 602.7,215.84 603.61,216.75Z" style="fill-rule:nonzero;"/>
        <path d="M204.96,351.07C206.19,349.33 207.42,347.49 208.54,345.75C206.19,346.67 204.34,348 204.96,351.07Z" style="fill-rule:nonzero;"/>
        <path d="M664.73,142.83C667.29,143.85 669.23,144.37 671.59,144.47C668.93,142.32 668.93,142.32 664.73,142.83Z" style="fill-rule:nonzero;"/>
        <path d="M259.83,274.49C260.03,276.95 259.73,278.99 261.37,280.63C260.85,278.79 262.39,276.54 259.83,274.49Z" style="fill-rule:nonzero;"/>
        <path d="M673.64,146.01C675.07,147.85 674.46,149.8 676.4,151.33C676.5,147.44 676.5,147.44 673.64,146.01Z" style="fill-rule:nonzero;"/>
        <path d="M624.19,161.16C625.52,158.7 625.93,156.76 626.03,154.81C624.6,156.35 623.88,158.19 624.19,161.16Z" style="fill-rule:nonzero;"/>
        <path d="M713.15,225.14C712.95,223.4 713.05,221.45 711,220.64C711.11,222.48 711.11,224.33 713.15,225.14Z" style="fill-rule:nonzero;"/>
        <path d="M633.2,395.91C631.87,393.45 633.81,392.43 634.12,390.28C630.64,393.14 630.64,393.35 633.2,395.91Z" style="fill-rule:nonzero;"/>
        <path d="M600.64,281.76C600.95,279.71 600.13,277.87 599.62,275.92C599.41,277.97 600.13,279.81 600.64,281.76Z" style="fill-rule:nonzero;"/>
        <path d="M627.57,147.34C626.03,149.49 625.93,149.9 627.06,152.77C626.95,150.51 628.39,149.18 627.57,147.34Z" style="fill-rule:nonzero;"/>
        <path d="M677.01,153.69C676.81,155.53 676.6,156.97 679.16,158.19C679.06,156.04 678.86,154.71 677.01,153.69Z" style="fill-rule:nonzero;"/>
        <path d="M619.68,181.74C621.73,181.23 623.16,180.1 623.78,178.05C621.94,178.67 620.61,180 619.68,181.74Z" style="fill-rule:nonzero;"/>
        <path d="M613.85,228.11C614.05,229.44 613.44,230.98 615.49,232.1C615.69,230.16 614.87,229.14 613.85,228.11Z" style="fill-rule:nonzero;"/>
        <path d="M207.72,316.26C208.13,313.39 208.13,311.24 207.52,308.99C206.9,311.24 206.7,313.5 207.72,316.26Z" style="fill-rule:nonzero;"/>
        <path d="M262.7,295.68C263.08,294.55 263.94,295.12 257.99,293.63C259.11,295.68 260.85,295.99 262.7,295.68Z" style="fill-rule:nonzero;"/>
        <path d="M179.77,414.11C179.68,415.54 178.33,416.92 179.77,418.84L179.77,414.11Z" style="fill-rule:nonzero;"/>
        <path d="M677.01,143.24C678.65,144.37 680.08,143.14 681.62,142.73C680.09,142.32 678.45,142.22 677.01,143.24Z" style="fill-rule:nonzero;"/>
        <path d="M665.65,124.82C665.34,122.77 665.04,121.34 663.91,120.11C664.22,121.54 663.4,123.38 665.65,124.82Z" style="fill-rule:nonzero;"/>
        <path d="M673.53,119.59C675.37,118.36 676.4,117.34 676.81,115.6C675.27,116.22 674.25,117.24 673.53,119.59Z" style="fill-rule:nonzero;"/>
        <path d="M209.77,340.11C208.13,339.19 208.54,336.63 206.49,336.12C206.39,338.37 208.13,339.19 209.77,340.11Z" style="fill-rule:nonzero;"/>
        <path d="M189.7,475.45C191.13,474.43 191.44,473.5 190.21,472.17C189.5,473.2 188.47,474.02 189.7,475.45Z" style="fill-rule:nonzero;"/>
        <path d="M618.15,155.12C618.66,157.17 619.38,158.4 620.81,159.32C620.3,157.88 619.89,156.35 618.15,155.12Z" style="fill-rule:nonzero;"/>
        <path d="M231.06,287.7C232.49,288.31 233.62,287.9 235.26,286.68C233.32,286.57 232.09,286.37 231.06,287.7Z" style="fill-rule:nonzero;"/>
        <path d="M695.65,450.37C694.83,451.39 694.63,452.42 695.45,453.85C696.47,452.62 696.36,451.5 695.65,450.37Z" style="fill-rule:nonzero;"/>
        <path d="M715.2,227.6C715.2,225.96 714.79,225.04 713.25,225.04C712.95,226.58 713.36,227.4 715.2,227.6Z" style="fill-rule:nonzero;"/>
        <path d="M263.93,291.69C264.13,290.26 264.34,289.13 262.91,287.9C262.7,289.44 262.29,290.67 263.93,291.69Z" style="fill-rule:nonzero;"/>
        <path d="M619.99,458.15C620.96,453.77 618.84,455.37 619.07,456.72C619.07,457.23 618.76,458.15 619.99,458.15Z" style="fill-rule:nonzero;"/>
        <path d="M747.35,314.11C745.1,314.01 745.1,314.01 745.3,315.85C746.53,315.95 747.04,315.13 747.35,314.11Z" style="fill-rule:nonzero;"/>
        <path d="M614.67,435.02C616,433.28 616.41,431.95 616.41,430.41C615.28,431.43 615.08,432.87 614.67,435.02Z" style="fill-rule:nonzero;"/>
        <path d="M623.88,178.05C624.29,177.03 625.21,176.21 624.6,174.67C623.16,175.7 622.86,176.72 623.88,178.05Z" style="fill-rule:nonzero;"/>
        <path d="M724.82,255.65C725.02,254.52 725.43,253.4 724.31,252.07C723.29,253.71 724.21,254.63 724.82,255.65Z" style="fill-rule:nonzero;"/>
        <path d="M196.66,400.41C196.97,399.08 197.17,398.06 195.74,397.44C195.13,398.77 195.44,399.7 196.66,400.41Z" style="fill-rule:nonzero;"/>
        <path d="M662.68,142.73C661.76,141.6 660.73,141.81 659.3,142.01C660.63,143.04 661.45,143.14 662.68,142.73Z" style="fill-rule:nonzero;"/>
        <path d="M695.54,458.05C695.13,459.48 695.13,459.48 695.74,460.71C696.47,459.79 696.47,458.87 695.54,458.05Z" style="fill-rule:nonzero;"/>
        <path d="M695.54,465.73C694.31,466.75 694.21,467.57 694.72,468.7C695.65,467.98 696.06,467.26 695.54,465.73Z" style="fill-rule:nonzero;"/>
        <path d="M618.56,190.44C619.17,189.31 619.07,188.29 618.46,186.86C618.05,188.29 617.84,189.21 618.56,190.44Z" style="fill-rule:nonzero;"/>
        <path d="M608.63,163.21C607.5,164.03 607.71,164.75 608.73,165.67C609.24,164.74 609.34,164.03 608.63,163.21Z" style="fill-rule:nonzero;"/>
        <path d="M618.66,151.23C618.86,149.8 618.46,148.88 617.53,147.75C617.23,149.28 617.43,150.21 618.66,151.23Z" style="fill-rule:nonzero;"/>
        <path d="M196.77,473.2C195.85,473.92 195.64,474.63 195.75,475.86C197.28,475.25 197.69,474.64 196.77,473.2Z" style="fill-rule:nonzero;"/>
        <path d="M193.7,360.69C192.57,361.51 192.16,362.23 192.88,363.35C193.8,362.74 194.31,362.12 193.7,360.69Z" style="fill-rule:nonzero;"/>
        <path d="M208.13,301.93C209.26,301.52 209.26,300.6 209.15,299.17C208.03,300.08 207.31,300.7 208.13,301.93Z" style="fill-rule:nonzero;"/>
        <path d="M606.99,300.08C607.5,298.95 607.19,298.13 605.86,297.52C605.35,298.86 605.86,299.57 606.99,300.08Z" style="fill-rule:nonzero;"/>
        <path d="M194.21,469.72C194.21,470.85 194.41,471.56 195.85,471.67C195.64,470.64 195.54,469.93 194.21,469.72Z" style="fill-rule:nonzero;"/>
        <path d="M694.21,489.38C694.52,488.25 694.62,487.33 694.01,486.1C693.6,487.33 693.29,488.25 694.21,489.38Z" style="fill-rule:nonzero;"/>
        <path d="M615.9,487.33C616.1,486.2 616.41,485.49 615.49,484.36C615.38,485.49 615.08,486.31 615.9,487.33Z" style="fill-rule:nonzero;"/>
        <path d="M682.54,149.9C681.72,149.39 681.11,149.39 681.21,150.62C681.83,150.82 682.34,150.61 682.54,149.9Z" style="fill-rule:nonzero;"/>
        <path d="M724.52,229.75C723.91,230.98 724.62,231.39 725.44,232C725.85,230.67 725.54,230.16 724.52,229.75Z" style="fill-rule:nonzero;"/>
        <path d="M726.87,263.64C727.28,262.72 727.07,262.1 725.85,261.39C725.85,262.61 725.75,263.33 726.87,263.64Z" style="fill-rule:nonzero;"/>
        <path d="M729.23,272.34C729.64,271.32 729.33,270.8 728.1,269.58C728.2,271.01 728,271.93 729.23,272.34Z" style="fill-rule:nonzero;"/>
        <path d="M735.06,299.78C735.37,298.96 735.16,298.45 734.24,297.94C734.14,298.86 733.83,299.57 735.06,299.78Z" style="fill-rule:nonzero;"/>
        <path d="M265.05,304.08C265.56,303.47 265.66,302.95 264.74,302.44C264.23,303.05 264.03,303.56 265.05,304.08Z" style="fill-rule:nonzero;"/>
        <path d="M213.86,336.94C212.62,336.63 211.09,337.87 212.32,338.58C213.15,338.48 213.76,337.96 213.86,336.94Z" style="fill-rule:nonzero;"/>
        <path d="M194.51,356.7C194.2,357.52 193.49,358.03 195.02,358.85C195.33,358.03 195.74,357.31 194.51,356.7Z" style="fill-rule:nonzero;"/>
        <path d="M626.44,412.6C626.95,411.78 627.98,411.06 626.75,409.53C626.24,410.75 625.11,411.47 626.44,412.6Z" style="fill-rule:nonzero;"/>
        <path d="M655,117.96C655,118.57 655.41,118.88 656.33,119.29C655.92,118.47 655.92,117.65 655,117.96Z" style="fill-rule:nonzero;"/>
        <path d="M659.82,125.63C659.92,125.12 659.82,124.71 659.41,124.4C659,125.02 659.1,125.33 659.82,125.63Z" style="fill-rule:nonzero;"/>
        <path d="M707.11,155.22C707.83,155.83 708.24,156.65 709.26,156.04C708.85,155.53 708.34,155.12 707.11,155.22Z" style="fill-rule:nonzero;"/>
        <path d="M718.27,175.59C717.86,176.72 718.07,177.23 719.09,177.33C719.5,176.31 718.99,176 718.27,175.59Z" style="fill-rule:nonzero;"/>
        <path d="M608.52,207.64C609.54,206.82 609.54,206.82 609.54,205.69C608.83,206 608.42,206.41 608.52,207.64Z" style="fill-rule:nonzero;"/>
        <path d="M251.23,290.67C251.54,291.49 251.95,291.9 253.07,291.49C252.46,290.67 251.95,290.46 251.23,290.67Z" style="fill-rule:nonzero;"/>
        <path d="M207.72,292.71C206.39,293.6 208.43,294.53 208.95,292.71C208.64,292.41 208.13,292.41 207.72,292.71Z" style="fill-rule:nonzero;"/>
        <path d="M694.52,474.33C693.91,474.74 693.7,475.15 694.11,475.76C694.52,475.35 695.24,475.04 694.52,474.33Z" style="fill-rule:nonzero;"/>
        <path d="M631.76,398.16C631.76,397.65 631.66,397.24 630.22,396.93C631.05,397.65 630.95,398.47 631.76,398.16Z" style="fill-rule:nonzero;"/>
        <path d="M180.49,422.32C179.88,422.93 180.08,423.45 180.49,424.06C181.1,423.45 180.9,422.94 180.49,422.32Z" style="fill-rule:nonzero;"/>
        <path d="M644.77,417.71C644.36,417.91 644.05,418.22 644.05,419.14C644.77,418.74 645.38,418.43 644.77,417.71Z" style="fill-rule:nonzero;"/>
        <path d="M706.5,416.38C706.3,417.1 706.4,417.51 707.42,417.51C707.32,416.69 707.22,416.28 706.5,416.38Z" style="fill-rule:nonzero;"/>
        <path d="M687.35,403.18C687.96,402.67 687.66,402.26 687.15,401.64C686.84,402.36 686.64,402.87 687.35,403.18Z" style="fill-rule:nonzero;"/>
        <path d="M704.66,408.6C704.46,409.32 704.86,409.62 705.38,409.83C705.68,409.01 705.68,408.5 704.66,408.6Z" style="fill-rule:nonzero;"/>
        <path d="M257.87,293.63C257.37,293.55 256.98,293.01 256.35,293.63L257.87,293.63Z" style="fill-rule:nonzero;"/>
        <path d="M690.84,409.83C691.04,409.11 690.84,408.81 690.02,408.7C689.91,409.63 690.22,409.83 690.84,409.83Z" style="fill-rule:nonzero;"/>
        <path d="M306.41,378.81C300.47,383.21 293.82,386.28 286.96,389.15C292.54,388.55 299.17,388.09 306.62,381.47C307.13,380.86 307.54,380.14 306.41,378.81Z" style="fill-rule:nonzero;"/>
        <path d="M309.07,382.09C309.44,393.15 302.71,385.24 309.27,395.91C312.03,393.45 309.17,391.92 308.76,390.07C310.51,383.62 310.51,383.62 309.07,382.09Z" style="fill-rule:nonzero;"/>
        <path d="M279.9,444.64C284,443.51 286.04,440.03 287.89,436.45C277.79,444.46 278.76,443.5 279.9,444.64Z" style="fill-rule:nonzero;"/>
        <path d="M290.03,433.89C293,430.72 294.02,426.72 295.05,422.63C292.9,426.11 290.85,429.69 290.03,433.89Z" style="fill-rule:nonzero;"/>
        <path d="M289.21,445.05C292.9,442.29 294.23,438.09 295.86,434.2C294.93,433.73 296.01,431.81 289.21,445.05Z" style="fill-rule:nonzero;"/>
        <path d="M286.65,450.88C284.7,452.72 283.58,454.87 282.96,457.84C285.53,455.9 286.45,453.55 286.65,450.88Z" style="fill-rule:nonzero;"/>
        <path d="M304.47,415.46C302.93,417.61 301.81,419.76 301.19,422.42C302.73,420.38 304.57,418.33 304.47,415.46Z" style="fill-rule:nonzero;"/>
        <path d="M295.77,420.79C296.79,419.36 297.41,418.33 297,416.18C295.87,417.71 295.15,418.74 295.77,420.79Z" style="fill-rule:nonzero;"/>
        <path d="M279.18,466.45C280.82,464.91 281.33,463.69 281.33,461.74C279.9,462.96 279.28,464.3 279.18,466.45Z" style="fill-rule:nonzero;"/>
        <path d="M281.53,389.87C282.55,390.69 283.48,390.59 284.81,389.87C283.38,388.74 282.46,388.74 281.53,389.87Z" style="fill-rule:nonzero;"/>
        <path d="M309.59,377.89C309.79,376.25 309.28,375.54 307.95,374.72C307.85,376.25 308.26,377.07 309.59,377.89Z" style="fill-rule:nonzero;"/>
        <path d="M297.91,415.87C299.04,414.74 299.86,414.03 299.14,412.08C297.91,413.52 297.61,414.34 297.91,415.87Z" style="fill-rule:nonzero;"/>
        <path d="M304.77,403.38C305.9,402.97 305.9,402.25 305.59,400.92C304.57,401.74 303.96,402.26 304.77,403.38Z" style="fill-rule:nonzero;"/>
        <path d="M304.98,409.32C306,408.5 306,407.78 305.29,406.35C304.98,407.48 304.26,407.99 304.98,409.32Z" style="fill-rule:nonzero;"/>
        <path d="M309.07,295.17C306.72,293.63 304.26,292.2 301.39,293.84C303.75,295.78 306.41,294.97 309.07,295.17Z" style="fill-rule:nonzero;"/>
        <path d="M319.31,340.73C317.16,343.39 317.16,343.49 318.8,346.77C320.34,344.92 319.11,342.88 319.31,340.73Z" style="fill-rule:nonzero;"/>
        <path d="M316.14,353.83C316.86,352.09 318.09,350.66 318.19,348.61C315.22,350.04 314.91,350.76 316.14,353.83Z" style="fill-rule:nonzero;"/>
        <path d="M315.22,358.95C315.12,357.93 316.76,356.8 315.42,355.37C314.5,356.8 313.68,357.72 315.22,358.95Z" style="fill-rule:nonzero;"/>
        <path d="M314.3,463.78C313.79,464.8 313.69,465.73 315.02,466.34C315.63,465.22 315.52,464.4 314.3,463.78Z" style="fill-rule:nonzero;"/>
        <path d="M315.52,363.97C315.72,362.54 315.93,361.72 315.01,360.8C313.89,362.02 314.09,362.84 315.52,363.97Z" style="fill-rule:nonzero;"/>
        <path d="M300.78,331.51C301.29,333.15 302.32,333.35 303.75,333.35C303.14,331.92 302.32,331.31 300.78,331.51Z" style="fill-rule:nonzero;"/>
        <path d="M316.04,444.54C316.96,443.52 316.96,442.7 315.94,441.78C315.42,442.9 315.32,443.72 316.04,444.54Z" style="fill-rule:nonzero;"/>
        <path d="M306.72,334.28C306.92,335.51 307.85,335.82 309.28,336.33C308.46,334.99 308.05,334.07 306.72,334.28Z" style="fill-rule:nonzero;"/>
        <path d="M263,314.83C261.57,317.49 261.36,320.46 261.16,323.33C262.29,320.66 264.64,318.2 263,314.83Z" style="fill-rule:nonzero;"/>
        <path d="M260.24,324.86C258.6,326.4 257.89,327.93 257.89,330.18C259.52,328.65 261.37,327.62 260.24,324.86Z" style="fill-rule:nonzero;"/>
        <path d="M270.79,323.12C269.15,323.32 267.51,322.1 265.26,322.51C267.41,324.14 269.15,323.12 270.79,323.12Z" style="fill-rule:nonzero;"/>
        <path d="M235.47,342.88C234.86,342.16 234.24,341.55 232.81,342.16C234.85,343.7 235.26,343.9 235.47,342.88Z" style="fill-rule:nonzero;"/>
        <path d="M255.43,334.38C254.2,334.58 253.89,335.1 253.79,336.33C254.81,335.71 255.43,335.51 255.43,334.38Z" style="fill-rule:nonzero;"/>
        <path d="M235.06,387.82C234.67,391 234.34,394.06 232.4,397.65C240.38,394.1 237.47,383.92 231.38,379.22C231.98,382.6 235.49,384.24 235.06,387.82Z" style="fill-rule:nonzero;"/>
        <path d="M224.41,413.82C221.44,416.89 221.03,426.92 223.59,431.02C223.59,425.09 224,419.45 224.41,413.82Z" style="fill-rule:nonzero;"/>
        <path d="M211.71,400.21C210.05,404.97 216.65,404.76 217.14,411.06C217.25,412.49 217.45,414.23 219.09,415.26C218.99,410.24 218.35,407.62 216.22,405.94C212.12,402.71 214.02,399.98 211.71,400.21Z" style="fill-rule:nonzero;"/>
        <path d="M218.37,386.8C218.68,384.55 217.76,382.4 217.14,380.15C218.06,378.72 220.31,378.1 219.9,375.75C215.37,376.75 213.67,383.2 218.37,386.8Z" style="fill-rule:nonzero;"/>
        <path d="M208.44,443.51C208.44,427.06 208.68,432.47 207.52,445.86C208.75,445.15 208.44,444.23 208.44,443.51Z" style="fill-rule:nonzero;"/>
        <path d="M230.04,379.84C229.22,376.67 228.81,376.15 225.43,374.72C226.66,376.56 227.68,378.61 230.04,379.84Z" style="fill-rule:nonzero;"/>
        <path d="M209.77,419.15C211.1,417.1 212.12,414.95 212.02,412.39C210.79,414.54 210.18,416.79 209.77,419.15Z" style="fill-rule:nonzero;"/>
        <path d="M207.72,450.68C206.18,453.44 206.18,453.75 207.11,457.33C208.23,455.18 207.82,453.03 207.72,450.68Z" style="fill-rule:nonzero;"/>
        <path d="M213.86,383.62C212.02,384.75 211.1,385.97 211.3,388.23C212.94,386.9 214.07,385.88 213.86,383.62Z" style="fill-rule:nonzero;"/>
        <path d="M219.8,391.81C219.6,389.66 219.49,388.12 218.26,386.9C218.88,388.23 217.34,390.28 219.8,391.81Z" style="fill-rule:nonzero;"/>
        <path d="M226.46,404.3C227.59,402.46 226.97,401.33 225.95,400.31C225.74,401.54 225.53,402.77 226.46,404.3Z" style="fill-rule:nonzero;"/>
        <path d="M212.74,394.17C213.35,393.04 213.56,392.33 212.13,391.1C212.23,392.43 211.92,393.25 212.74,394.17Z" style="fill-rule:nonzero;"/>
        <path d="M232.7,399.39C233.52,399.39 233.62,399.08 233.31,398.16C232.7,398.47 232.19,398.67 232.7,399.39Z" style="fill-rule:nonzero;"/>
        <path d="M275.9,498.08C271.63,498.56 272.73,505.96 275.9,505.96C279.93,506.21 279.72,497.65 275.9,498.08ZM275.8,504.43C274.06,502.59 274.06,501.15 275.8,499.72C278.26,501.66 278.26,502.17 275.8,504.43Z" style="fill-rule:nonzero;"/>
        <path d="M272.12,497.98C269.05,496.75 267.73,496.32 268.33,505.35C271.63,500.4 269.66,505.48 272.53,504.84C270.79,502.58 274.16,500.43 272.12,497.98ZM271.4,500.43C271.13,501.5 269.24,501.16 269.86,499.3C270.89,499.21 271.6,499.31 271.4,500.43Z" style="fill-rule:nonzero;"/>
        <path d="M681.11,207.54C682.34,213.89 683.67,219.72 681.31,225.66C685,220.64 684.9,210.81 681.11,207.54Z" style="fill-rule:nonzero;"/>
        <path d="M682.75,179.18C682.03,181.74 682.03,181.74 688.18,186.14C689.61,187.16 690.94,188.29 692.89,186.65C689.3,184.19 684.9,183.37 682.75,179.18Z" style="fill-rule:nonzero;"/>
        <path d="M703.43,248.68C705.43,246.11 702.74,241.99 705.89,237.73C705.48,236.4 704.97,235.58 703.43,235.38C704.62,238.43 700.44,244.44 703.43,248.68Z" style="fill-rule:nonzero;"/>
        <path d="M679.98,190.23C680.49,194.22 681,198.11 681.62,202.11C683.46,198.63 682.54,191.67 679.98,190.23Z" style="fill-rule:nonzero;"/>
        <path d="M638.52,198.83C640.87,201.7 644.36,201.39 647.94,202.31C645.18,198.73 640.98,201.5 638.52,198.83Z" style="fill-rule:nonzero;"/>
        <path d="M668.11,248.08C664.32,247.57 660.53,247.16 656.85,246.65C660.43,248.18 664.22,249 668.11,248.08Z" style="fill-rule:nonzero;"/>
        <path d="M647.33,240.71C643.54,239.38 639.86,238.15 636.07,236.92C639.34,239.68 643.33,240.5 647.33,240.71Z" style="fill-rule:nonzero;"/>
        <path d="M692.06,260.16L682.95,260.16C686.02,260.46 689.09,260.57 692.06,260.16Z" style="fill-rule:nonzero;"/>
        <path d="M648.76,188.7C650.5,190.75 652.04,190.75 654.19,189.52C652.24,188.9 651.01,187.88 648.76,188.7Z" style="fill-rule:nonzero;"/>
        <path d="M682.13,172.52C682.13,174.26 681.62,175.59 682.13,177.13C683.67,175.7 683.46,174.47 682.13,172.52Z" style="fill-rule:nonzero;"/>
        <path d="M680.6,248.28C680.5,246.03 680.5,246.03 679.58,244.49C678.75,246.03 678.96,247.16 680.6,248.28Z" style="fill-rule:nonzero;"/>
        <path d="M697.18,246.34C698.82,246.34 699.84,245.83 701.28,244.5C699.33,244.6 698.31,245.21 697.18,246.34Z" style="fill-rule:nonzero;"/>
        <path d="M691.35,198.53C690.33,198.02 689.4,197.2 688.07,197.71C689.09,199.04 690.22,198.73 691.35,198.53Z" style="fill-rule:nonzero;"/>
        <path d="M634.22,202.11C635.04,203.13 635.96,203.13 637.5,202.72C636.17,201.91 635.45,201.09 634.22,202.11Z" style="fill-rule:nonzero;"/>
        <path d="M668.11,167.1C670.26,167.1 669.44,167 668.21,167C668.21,167.1 668.11,167.1 668.11,167.1Z" style="fill-rule:nonzero;"/>
        <path d="M680.8,239.89C680.8,240.09 680.6,240.3 680.6,240.4C681,241.99 682.01,240.13 680.8,239.89Z" style="fill-rule:nonzero;"/>
        <path d="M670.77,336.84C666.27,338.99 662.07,344.72 663.4,346.87C664.01,347.59 664.83,346.56 665.35,347.18C666.58,350.76 667.3,354.65 670.16,357.62C669.27,351.86 660.86,344.99 670.26,339.09C675.89,349.63 684.9,356.9 694.93,362.94C688.28,356.59 679.78,351.99 674.66,343.28C681.62,346.97 686.64,348.5 692.47,348.81C684.69,346.66 677.22,343.69 670.66,338.16C669.95,337.96 672.31,337.25 670.77,336.84Z" style="fill-rule:nonzero;"/>
        <path d="M671.59,335.92C681.21,340.94 692.07,339.91 702.1,342.37C696.54,337.6 683.94,339.79 672.21,335.1C672.1,335.1 671.9,335.4 671.59,335.92Z" style="fill-rule:nonzero;"/>
        <path d="M651.22,327.93C657.46,329.47 663.1,332.54 669.34,335.3C668.21,330.69 657.36,326.29 651.22,327.93Z" style="fill-rule:nonzero;"/>
        <path d="M618.15,345.54C616.95,341.84 617.2,338.53 615.39,334.89C615.38,338.5 616.06,341.83 618.15,345.54Z" style="fill-rule:nonzero;"/>
        <path d="M693.5,331.82C689.81,331 686.03,331.72 682.24,332.13C685.92,333.36 689.61,332.03 693.5,331.82Z" style="fill-rule:nonzero;"/>
        <path d="M682.34,329.16C680.09,329.36 677.84,329.06 675.89,330.39C678.24,330.9 680.39,330.28 682.34,329.16Z" style="fill-rule:nonzero;"/>
        <path d="M651.52,336.12C653.77,337.66 656.43,337.35 658.99,337.96C656.64,336.53 654.08,336.22 651.52,336.12Z" style="fill-rule:nonzero;"/>
        <path d="M660.74,347.69C659.82,348 658.59,347.79 658.39,349.33C659.51,349.33 660.33,348.82 660.74,347.69Z" style="fill-rule:nonzero;"/>
        <path d="M683.16,366.83C683.06,366.01 682.44,365.81 681.21,365.29C681.93,366.32 682.34,366.83 683.16,366.83Z" style="fill-rule:nonzero;"/>
        <path d="M671.08,359.05C671.18,358.33 670.88,357.82 670.16,357.72C670.16,358.34 670.26,358.95 671.08,359.05Z" style="fill-rule:nonzero;"/>
        <path d="M703.73,343.08C703.42,342.26 702.71,342.36 702.09,342.47C702.4,343.18 702.92,343.29 703.73,343.08Z" style="fill-rule:nonzero;"/>
        <path d="M649.17,336.12C650.4,336.02 651.01,336.02 651.52,336.02C651.01,335.81 650.5,335.51 649.17,336.12Z" style="fill-rule:nonzero;"/>
        <path d="M631.97,311.24C633.81,303.25 628.59,298.44 623.06,293.02C623.16,295.27 631.05,310.63 631.97,311.24Z" style="fill-rule:nonzero;"/>
        <path d="M698.41,282.58C697.69,289.95 700.56,296.61 702.51,303.57C702.2,296.4 700.36,289.44 698.41,282.58Z" style="fill-rule:nonzero;"/>
        <path d="M661.45,296.71C659.81,292.92 662.68,288.42 659.3,284.53C657.15,287.7 658.38,294.35 661.45,296.71Z" style="fill-rule:nonzero;"/>
        <path d="M668.52,296.4C667.32,300.71 667.5,305.1 666.88,309.4C666.78,310.63 666.78,311.86 668.52,312.68C667.91,304.69 670.87,297.12 668.52,289.03C667.6,291.89 669.15,294.15 668.52,296.4Z" style="fill-rule:nonzero;"/>
        <path d="M649.48,300.9C651.53,294.55 652.45,288 653.06,281.45C650.7,287.7 650.19,294.35 649.48,300.9Z" style="fill-rule:nonzero;"/>
        <path d="M674.15,296.6C674.58,293.84 675.89,290.97 674.76,288.1C673.74,294.04 671.48,299.87 673.12,305.91C673.74,302.85 673.66,299.78 674.15,296.6Z" style="fill-rule:nonzero;"/>
        <path d="M689.91,311.04C694.41,311.14 698.71,310.32 702.5,307.46C698.41,309.09 693.8,308.68 689.91,311.04Z" style="fill-rule:nonzero;"/>
        <path d="M634.53,275.1C631.05,276.12 629.72,279.3 630.33,283.8C630.84,280.73 632.69,278.28 634.53,275.1Z" style="fill-rule:nonzero;"/>
        <path d="M621.83,278.79C624.18,276.03 626.85,274.59 629.41,272.95C626.24,272.54 623.37,274.69 621.83,278.79Z" style="fill-rule:nonzero;"/>
        <path d="M681.01,305.51C680.81,307.46 678.96,309.4 680.91,312.06C681.72,309.5 681.31,307.56 681.01,305.51Z" style="fill-rule:nonzero;"/>
        <path d="M617.94,279.51C618.86,277.56 619.78,275.72 619.37,273.37C617.94,275.92 617.74,276.95 617.94,279.51Z" style="fill-rule:nonzero;"/>
        <path d="M666.78,284.73C666.78,283.6 667.91,282.48 666.78,281.35C664.83,282.48 665.45,283.6 666.78,284.73Z" style="fill-rule:nonzero;"/>
        <path d="M673.12,307.86C672.61,309.91 673.43,311.14 674.25,313.18C674.35,310.94 675.17,309.4 673.12,307.86Z" style="fill-rule:nonzero;"/>
        <path d="M684.28,284.22C682.95,285.65 683.26,287.09 683.56,288.52C683.77,287.18 685.31,286.06 684.28,284.22Z" style="fill-rule:nonzero;"/>
        <path d="M647.73,277.05C647.42,278.59 647.42,278.59 648.45,280.12C648.66,278.79 649.17,277.77 647.73,277.05Z" style="fill-rule:nonzero;"/>
        <path d="M644.77,277.97C645.59,276.43 644.46,275.92 644.36,275C642.21,276.43 643.95,276.84 644.77,277.97Z" style="fill-rule:nonzero;"/>
        <path d="M178.54,361.61C176.7,361.81 174.75,361.41 173.22,362.94C175.17,363.25 177.11,363.35 178.54,361.61Z" style="fill-rule:nonzero;"/>
    </g>
</svg>
