<?xml version="1.0" encoding="UTF-8" standalone="no"?>
<!DOCTYPE svg PUBLIC "-//W3C//DTD SVG 1.1//EN" "http://www.w3.org/Graphics/SVG/1.1/DTD/svg11.dtd">
<svg width="100%" height="100%" viewBox="0 0 900 600" version="1.1" xmlns="http://www.w3.org/2000/svg" xmlns:xlink="http://www.w3.org/1999/xlink" xml:space="preserve" xmlns:serif="http://www.serif.com/" style="fill-rule:evenodd;clip-rule:evenodd;stroke-linejoin:round;stroke-miterlimit:2;">
    <g>
        <path d="M404.38,285.7C397.17,286.72 390.16,283.77 382.95,285.19C380.21,283.56 376.93,282.27 374.32,279.91C359.06,266.13 359.65,241.76 351.06,223.23C347.81,216.22 346.49,208.4 341.21,201.9C343.24,197.02 345.58,192.25 346.59,186.97C347.6,181.69 345.47,176.41 347.2,170.62C356.73,163.36 349.66,126.34 349.43,123.79C348.69,115.47 345.09,117.65 332.06,106.93C327.22,102.94 324.34,99.57 326.68,82.96C327.52,76.98 329.11,81.2 336.33,78.59C345.53,75.27 337.92,67.97 342.73,62.95C343.03,62.64 343.14,62.04 343.03,61.63C341.91,58.48 343.84,55.33 342.73,52.49C345.78,49.75 345.72,49.73 344.05,46.09C343.06,43.94 341.58,41.71 342.83,39.18C347.21,30.37 342.97,27.17 343.64,24.15C345.37,21.51 348.11,20.49 350.55,18.46C348.82,17.65 349.23,15.82 347.91,14.9C346.49,14.7 345.47,16.12 343.85,15.92C346.08,13.69 350.05,13.79 351.77,9.93C349.94,10.95 348.72,11.56 347.2,12.27C347.71,8.71 344.76,8.11 343.54,6.28C323.51,8.71 338.74,6.8 340.8,3.54C312.16,1.83 323.08,3.44 321.91,0.7C318.96,-0.32 307.49,0.9 305.96,2.43C299.96,-1.75 297.65,7.04 294.38,5.78C292.46,5.04 290.24,5.55 288.59,3.85C287.59,2.82 286.05,2.22 284.73,4.05C286.05,5.68 288.89,5.37 289.5,7.71C287.47,8.01 285.34,6.49 283.41,8.32C284.32,10.25 286.46,10.35 287.98,11.16C287.47,13.5 285.34,12.38 284.02,12.99C283.51,14.11 285.23,14.51 284.63,15.83C281.94,21.8 282.4,28.22 282.09,34.52C281.99,36.55 283.59,38.68 283.11,40.21C280.67,47.85 289.7,57.03 288.49,67.74C288.41,68.06 289.56,71.63 289.4,74.55C288.93,83.62 286.29,82.38 264.82,94.05C260.17,96.58 260.34,99.92 253.04,102.28C243.03,105.51 229.98,123.02 231,136.92C231.13,138.65 232.56,139.98 232.12,141.8C231.08,146.09 230.08,150.43 228.06,154.29C220.23,169.28 230.54,177.9 229.18,183.65C226.93,193.16 228.12,208.21 225.32,220.12C221.39,236.83 237.19,271.99 230.81,285.74C223.6,285.13 216.49,284.11 209.27,282.9C204.5,287.57 201.96,293.87 197.08,298.54C202.16,314.42 197.96,319.79 222.07,321.19C226.95,321.47 231.82,322.1 233.65,316.31C235.17,315.9 235.99,317.12 237.41,316.61C238.22,316.51 238.73,315.39 239.75,315.09C240.97,315.7 241.78,317.12 243.2,317.02C244.62,316.82 245.23,315.29 246.45,314.99C246.45,313.06 247.77,311.84 248.89,310.52C252.56,306.16 252.65,306.15 250.21,301.17C251.84,302.49 252.75,303.81 253.87,305.23C252.45,308.68 251.53,312.24 249.2,315.19C247.36,315.86 244.88,312.53 247.88,318.03C247.37,323.82 247.94,329.6 247.17,335.4C245.96,344.51 250.19,347.01 249,353.99C248.01,359.78 248.74,365.57 248.29,371.36C247.23,384.9 245.85,377.51 245.45,392.79C250.02,392.89 254.29,393.92 258.45,392.38C262.82,390.76 264.27,396.43 269.32,393.8C271.45,396.14 269.93,399.79 272.77,401.62C269.92,403.9 272.2,402.76 272.16,404.67C271.58,434.31 265.85,426.71 263.32,449.47C260.45,475.29 266.18,470.02 269.21,488.48C274.76,522.32 271.84,529.81 273.07,536.33C274.03,541.42 273.78,546.49 273.17,551.57C272.26,552.28 270.83,551.67 269.92,552.48C265.74,560.29 269.45,563.89 267.08,568.53C263.69,575.16 261.39,582.04 263.12,589.46C265.35,591.59 268.21,591.47 270.74,592.2C287.84,597.17 286.75,592.51 294.92,596.16C304.86,600.61 324.32,602.3 338.6,595.25C345.73,591.73 342.08,586.88 344.69,586.01C354.19,591.71 372.27,585.52 382.07,580.32C383.27,579.68 383.8,578.59 383.49,577.37C382.5,573.42 381.89,565.36 377.7,564.77C365.97,563.13 360.57,563.95 352.3,556.64C348.15,552.97 344.65,548.65 340.31,545.06C337.75,542.95 334.93,540.49 336.04,537.03C334.72,533.06 331.88,538.85 332.28,527.48C332.61,518.04 336.86,438.27 340.81,424.07C343.39,414.82 339.21,414.62 340.4,410.56C344.85,395.4 341.64,394.41 345.07,394.41C348.6,394.41 358.62,390.92 359.09,388.01C361.9,370.69 353.47,370.13 353.6,327.26C353.62,321.46 356.28,326.62 363.25,326.35C372.78,325.97 372.64,325.87 378.69,315.79C381.23,315.79 383.45,313.37 386.11,314.77C389.04,316.32 392.41,316.2 395.56,316.6C405.74,317.88 404.88,312.45 411.41,303.09C412.96,300.87 412.94,298.82 411.61,296.69C409.26,292.91 406.92,288.95 404.38,285.7ZM285.53,19.66C285.43,18.44 285.73,18.03 286.44,17.73C286.65,18.64 286.04,18.95 285.53,19.66ZM349.02,142.27C339.98,133.74 337.13,122.56 334.7,110.98C338.67,119.16 349.96,113.94 349.02,142.27ZM341.7,10.62C341.19,11.43 340.79,11.64 340.07,11.23C340.18,10.31 340.79,10.21 341.7,10.62ZM339.57,15.6C338.55,16.62 337.64,17.63 335.91,16.51C337.13,15.5 338.35,15.29 339.57,15.6ZM323.52,9.5C323.11,10.62 322.1,10.62 320.68,11.33C321.79,10.11 322.2,9.2 323.52,9.5ZM312.45,12.45C312.75,13.67 312.15,13.47 311.33,13.16C311.74,12.85 312.04,12.65 312.45,12.45ZM306.46,26.16C307.17,26.77 307.27,27.28 306.76,28.09C305.54,27.69 305.34,27.08 306.46,26.16ZM300.97,6.86C301.38,7.88 300.97,7.88 300.16,7.57C300.26,7.06 300.46,6.76 300.97,6.86ZM299.14,22.71C298.73,24.74 297.31,24.03 296.19,23.83C297.01,23.01 297.52,21.39 299.14,22.71ZM295.59,11.23C294.57,11.74 293.86,11.13 292.44,10.93C294.06,10.11 294.67,10.72 295.59,11.23ZM291.73,39.67C291.83,39.47 292.24,39.47 292.75,39.37C293.53,41.74 290.92,41.29 291.73,39.67ZM291.83,18.14C291.83,19.66 291.22,19.97 290.61,20.48C290.2,19.15 291.22,19.15 291.83,18.14ZM290.51,31.95C290.61,33.17 289.9,33.58 289.29,34.08C289.19,33.17 289.59,32.66 290.51,31.95ZM288.78,45.77C287.87,44.45 288.27,43.13 288.17,41.61C289.19,43.34 289.69,40.59 290.51,41.41C290.3,43.23 290.3,43.23 288.78,45.77ZM290.81,52.47C289.59,52.47 289.39,52.06 289.69,51.45C290.3,51.35 290.41,51.96 290.81,52.47ZM283.29,85.89C293.53,81.84 290.42,69.97 292.64,55.21C294.47,54.3 294.87,56.43 296.4,56.84C296.91,56.64 297.62,56.33 298.53,56.03C299.04,58.16 299.85,60.19 299.85,62.23C299.85,67.26 307.46,70.43 312.04,70.56C308.08,68.53 304.83,66.19 301.78,63.86C300.26,59.7 302.39,54.62 298.02,51.57C296.7,52.28 297.41,53.4 296.6,54.01C288.12,47.34 296.69,51.53 290.2,47.2C289.9,45.47 291.11,44.36 291.83,42.73C292.89,43.01 293.68,44.2 294.89,44.07C295,43.92 294.95,43.92 295.08,44.05C292.23,44.86 293.36,51.05 298.84,49.43C299.79,47.68 297.62,46.38 297.62,46.28C299.25,42.01 295.69,40.19 293.86,37.65C301.26,39.36 295.85,45.76 300.16,47.5C302.47,46.06 298.09,41.99 307.37,33.68C315.16,26.72 309.6,28.7 309.6,26.87C310.82,26.26 312.14,27.28 313.36,26.87C314.78,24.33 317.32,23.21 319.76,21.99C320.16,21.43 319.68,20.99 319.51,20.49C318.76,20.63 318.09,20.44 317.33,19.96C318.79,19.17 322.1,22.19 328.1,18.64C330.49,17.05 333.5,19.94 339.78,19.05C346.22,37.45 340.11,30.12 340.49,33.78C338.46,34.19 339.18,35.61 339.47,36.73C344.01,53.89 345.25,47.01 341.1,51.76C340.49,53.79 341.51,55.92 341.1,57.85C337.75,58.87 334.19,58.46 331.04,60.29C334.19,61.81 337.34,59.88 340.69,60.49C341.8,62.34 339.98,63.77 339.65,64.43C337.8,62.58 335.94,62.92 333.17,63.54C335.45,65.71 337.44,65.57 339.61,64.63C336.77,74.93 345,76.09 327.18,77.46C325.66,79.19 324.98,81.12 324.95,83.45C324.79,94.69 323.18,94.04 325.66,101.23C328.26,108.77 334.63,128.47 326.88,130.69C320.12,132.63 309.21,125.86 304.13,116.67C301.09,111.18 296.71,106.51 294.07,100.82C293.87,100.31 293.26,100 292.85,99.6C280.31,87.53 275.41,89.01 283.29,85.89ZM294.27,41.3C295.9,42.62 295.9,42.62 295.29,44.45C295.28,43.33 293.66,42.72 294.27,41.3ZM340.28,35.91C339.57,35.1 340.48,34.49 340.48,33.88C343.41,34.21 341.97,37.39 340.28,35.91ZM277.1,89.65C308.78,111.28 295.39,122.63 319.87,132.82C324.28,134.95 332.35,133.57 332.16,128.35C331.53,110.4 331.9,113.81 328.5,107.02C333.01,109.82 332.93,111.99 335.81,123.98C337.63,131.56 345.98,141.38 346.68,141.96C351.61,146.08 348.73,150.41 349.02,157.71C349.53,170.75 342.57,167.08 344.65,184.12C345.09,187.74 339.37,200.4 339.37,202.1C339.37,208.3 337.03,214.19 337.24,220.28C337.73,235.09 332.28,248.52 335.01,254.21C331.16,257.42 298.29,251.67 293.87,250.76C290.05,249.97 288.7,247.45 285.44,246.6C285.74,248.43 287.88,248.12 288.59,250.05C280.67,247.31 273.25,244.36 265.12,243.45C265.93,237.86 263.6,232.89 263.8,227.4C269.79,228.62 275.69,229.74 281.58,230.35C276.3,228.12 270.51,228.12 265.23,226.39C264.72,223.95 264.91,221.72 264.93,219.38C265.06,201.54 262.43,202.53 259.85,191.95C258.73,187.38 259.95,187.16 264.73,174.88C280.9,178.52 292.45,160.15 298.86,144.81C302,137.29 300.65,130.09 299.06,122.67C297.19,113.94 291.22,107.96 285.35,101.74C272.79,88.48 275.53,91.85 277.1,89.65ZM331.34,258.07C330.32,258.68 329.47,256.84 331.95,257.26C332.16,257.87 331.65,257.97 331.34,258.07ZM266.13,249.24C266.13,247.02 266.09,247.31 266.23,247.31C266.23,249.52 266.27,249.24 266.13,249.24ZM262.57,239.28C263.98,253.2 256.37,246.13 251.09,274.63C248.55,262.18 254.4,231.07 254.04,212.16C254.02,211.14 254.05,210.13 254.65,209.11C258.95,201.81 255.4,195.28 257.49,192.15C267.28,213.68 260.43,218.16 262.57,239.28ZM235.25,314.35C235.66,311.83 238.86,310.7 238.6,307.91C231.33,311.76 232.31,321.31 223.97,319.63C221.45,319.12 218.64,319.71 216.21,318.24C215,319.41 213.69,318.91 212.39,318.41C201,314.07 204.71,318.49 200,301.24C199.1,297.93 199.69,298 209.75,284.48C214.22,285.5 218.69,286.51 223.57,286.41C223.27,287.83 221.74,287.12 221.54,288.44C224.79,289.15 227.94,287.73 231.29,287.63C240.59,315.05 236.94,307 241.45,304.9C243.18,304.29 243.38,302.87 243.68,301.45C245.51,304.6 245.37,307.2 242.26,309.68C239.44,311.92 239.71,315.32 235.25,314.35ZM236.46,296.57C240.42,298.91 241.23,300.84 240.22,304.7C237.68,302.57 237.79,299.62 236.46,296.57ZM248.45,308.15C244.89,312.97 245.1,313.87 243.47,315.06C242.47,315.39 240.68,314.39 241.74,313.33C247.08,307.23 248.65,308.59 245.6,301.95C242.27,296.95 253.08,301.88 248.45,308.15ZM249.47,299.32C247.96,297.99 245.82,298.21 243.98,299.02C242.2,299.79 245.9,304.49 241.51,298.11C244.2,298.38 245.61,296.96 246.52,293.74C244.69,295.12 241.46,295.72 241.46,298.04C234.08,290.65 237.81,300.7 232.81,286.34C232.16,284.48 237.53,274.78 234.44,270.59C233.9,269.86 228.54,246.57 228.04,241.23C225.97,219.3 228.6,237.37 227.13,217.66C228.53,218.44 229.4,229.22 228.76,209.74C228.5,201.92 230.44,194.3 230.59,186.58C230.66,182.87 233.84,186.41 235.77,178.35C233.43,178.76 233.23,181.19 231.2,182.01C230.29,177.69 225.5,164.41 227.75,160.47C230.39,156.41 230.44,151.45 232.52,147.16C233.45,145.24 234.04,143.1 234.15,140.66C235.57,145.84 239.43,148.69 243.5,151.02L243.5,148.07C235.7,146.55 236.68,138.32 233.34,134.76C229.55,130.72 242.46,112.84 246.24,108.04C247.27,106.73 248.88,106.21 250.4,105.81C251.31,106.11 250.3,107.33 251.31,107.54C253.2,107.54 249.98,106.28 257.51,105.61C258.83,105.49 260.46,106.83 261.47,104.9C261.89,104.48 255.25,103.55 254.66,103.48C261.47,100.03 267.05,94.85 274.27,91.7C281.35,102.45 294.65,111.8 296.41,122.07C298.18,132.41 301.07,136.38 297.02,142.59C294.47,146.49 292.93,156.46 283.41,164.63C281.17,166.55 279.87,169.45 276.81,170.72C275.3,171.35 273.46,171.13 272.24,172.35C269.12,167.67 273.51,174.86 265.94,172.45C265.64,171.23 266.55,170.42 266.55,169.4C267.87,169.6 267.57,171.23 269.29,171.23C267.26,166.76 268.17,162.29 269.19,157.62C274.79,157.99 273.12,158.01 278.74,162.7C280.97,161.68 280.57,159.75 280.16,157.72C276.34,158.36 279.79,155.7 276.91,150.61C274.98,151.63 276.2,153.15 275.49,154.37C272.34,149.7 275.59,144.72 274.88,139.64C266.75,147.47 266.04,147.84 266.25,149.49C267.77,161.72 260.65,180.51 255.18,191.04C252.08,197.01 247.92,268.39 247.97,269.56C248.19,274.44 248.59,279.21 248.38,284.19C248.1,290.77 255.43,290.33 251.83,299.63C253.66,301.76 257.78,303.31 256.6,306.74C255.83,308.99 255.28,312.43 252.13,313.55C253.42,303.64 259.22,307.91 249.47,299.32ZM272.02,559.67C271.45,551.72 271.25,555.8 289.59,557.94C284.12,560.36 283.43,567.24 280.45,566.57C277.2,566.16 274.05,565.45 271.82,562.71C272.94,561.59 273.65,563.22 274.36,562.3C274.15,560.99 272.63,560.89 272.02,559.67ZM340.99,582.53C340.45,585.39 340.58,588.32 339.36,591.37C334.28,593.81 329,595.85 322.9,596.65C312.07,598.07 297.11,594.66 295.17,593.7C286.27,589.31 279.48,594.52 264.39,586.59C264.59,578.87 270.69,572.98 269.98,564.65C272.62,566.99 275.06,568.39 277.9,569.02C286.21,570.85 283.08,564.78 293.34,557.74C291.82,556.72 290.9,555.3 288.97,555.3C287.55,555.3 286.71,554.29 286.33,552.96C285.57,550.33 283.99,547.88 284.7,544.93C282.47,547.67 283.99,550.82 283.28,553.87C280.33,554.38 277.69,552.96 274.54,552.35C278.87,548.43 273.4,541.19 274.64,532.24C276.33,520.03 272.68,488.84 265.7,470.78C257.77,450.26 280.25,417.19 273.73,396.83C273.31,395.51 272.51,394.29 272.82,392.46C296.93,392.46 293.78,397.95 313.25,393.78C314.48,405.56 304.62,409.68 307.16,421C308.16,425.47 305.6,428.84 304.42,432.58C304.23,433.19 303,432.68 302.69,434C301.41,473.56 296.38,462.53 297.2,542.49C297.25,547.17 295.44,544.73 293.75,545.74C290.09,550.62 289.69,552.55 292.12,554.37C293.24,552.24 293.85,549.9 295.57,547.77C297.3,548.99 299.33,548.18 301.77,548.79C302.07,555.9 307.56,559.35 313.45,562.5C311.42,564.53 309.18,562.8 307.46,563.92C307.05,563.01 308.37,562.4 307.66,561.69C306.65,560.51 306.98,560.97 290.49,563.01C288.86,563.21 287.65,563.82 286.93,565.75C289.98,568.29 293.23,565.45 296.38,566.05C294.86,567.68 292.11,567.17 291,569.61C292.32,571.64 294.25,571.35 296.18,571.03C303.1,569.87 310.2,569.4 316.39,564.83C316.69,566.66 314.66,567.57 315.78,568.79C311.82,570.62 307.04,569.4 304.1,573.56C306.84,575.9 309.18,573.39 311.52,573.15C324.36,571.85 312.31,567.77 326.86,573.76C323.78,574.49 319.26,574.98 320.66,577.32C324.01,576.71 327.67,578.03 330.62,575.49C339.06,579.13 341.62,579.25 340.99,582.53ZM304.73,542.71C303.61,543.73 302.29,544.54 302.5,546.27C300.16,546.27 299.44,544.95 299.35,543.32C298.33,523.72 297.52,504.21 300.98,484.1C303.48,491.18 306.97,511.46 305.55,528.29C305.15,532.96 303.71,537.73 304.73,542.71ZM333.07,537.83C332.13,544.42 334.41,543.44 340.28,549.31C335.81,553.98 329.11,553.07 324.03,556.01C324.64,558.96 326.97,558.73 328.5,558.65C340.29,558.01 336.23,559.46 346.58,556.01C348.51,557.13 350.03,558.85 351.96,560.58C347.23,562.16 344.87,554.05 336.93,561.39C339.06,563.73 341.5,560.78 343.74,561.8C343.54,563.22 341.4,562.61 341.2,564.24C343.73,566.96 347.48,562.53 349.83,563.22C350.03,564.13 348.71,564.64 349.22,565.76C351.76,567.89 353.89,567.08 355.62,562.61C362.12,566.98 369.94,565.56 377.05,567.69C379.28,570.64 379.08,574.29 379.79,577.75C372.58,583.24 357.34,586.28 345.46,584.45C344.16,583.58 345.27,578.12 338.96,575.71C337.64,575.21 326.91,570.69 325.75,569.72C308.7,555.37 306.24,556.87 305.84,552.86C312.89,550.85 317.56,558.41 325.04,546.77C322.93,534.06 328.06,541.03 333.07,537.83ZM317.02,546.26C317.63,547.89 317.22,549 317.12,550.32C312.21,551.41 310.3,548.5 306.96,548.69C303.21,543.07 313.17,546.81 317.02,546.26ZM318.85,546.26C324.89,544.4 319.8,549.42 319.56,549.82C318.54,548.5 319.46,547.38 318.85,546.26ZM356.03,372.25C357.59,377.74 356.79,381 356.54,388.1C336.25,397.68 329.91,390.42 324.85,394.7C329.83,397.75 335.41,394.6 340.6,396.12C340.6,400.08 340.28,403.73 339.08,407.29C335.85,416.83 340.29,412.46 337.25,425.47C333.33,442.23 334.41,433.66 334.41,440.81C334.41,440.91 328.94,528.47 328.92,528.58C328.52,531.12 330.55,533.66 329.63,536.5C327.9,537.41 325.77,536.4 323.84,537.21C321.91,538.73 322.32,541.07 321.91,543.41C316.93,543.11 312.16,543.31 307.18,542.19C305.65,533.95 311.29,524.6 308.2,505.42C303.14,474.03 300.66,478.49 302.71,468.24C305.74,453.13 302.21,442.81 308.09,429.64C312.37,420.05 304.5,419.85 311.04,409.32C313.93,404.67 316.32,400.18 315.31,394.49C318.66,392.26 322.83,394.9 326.38,391.95C323.2,377.27 322.36,318.96 321.5,360.46C321.28,371.02 321.37,368.59 322.72,390.12C320.58,391.23 309.73,391.42 305.35,393.68C303.83,394.46 284.02,388.79 267.36,390.73C260.65,391.51 253.95,390.93 247.25,391.14C246.64,389.82 247.15,388.7 247.15,387.58C247.96,387.68 248.71,388.09 248.88,386.67C254.76,336.56 247.39,346.08 249.79,317.19C250.4,320.03 252.43,320.84 254.87,321.35C262.71,323.01 259.28,326.06 277.12,325.21C281.37,325.01 281.59,321.57 288.4,310.68C289.31,308.95 289.52,307.73 287.49,307.84C285.26,313.33 281.9,318.1 278.65,323.08C258.29,322.76 268.78,323.05 254.88,319.02C252.04,318.2 252.04,318.21 251.22,314.75C252.34,314.24 253.45,315.26 254.57,314.65C256.6,313.33 256.2,310.59 257.92,309.16C262.8,308.86 263.6,308.35 263.91,305C264.61,297.55 254.19,302.67 256.39,293.62C257.07,290.82 252.41,289.23 252.43,286.2C252.47,280 253.65,259.76 260.05,254.1C259.24,258.77 260.15,263.55 259.14,268.22C262.13,264.23 260.17,253.61 264.02,250.44C266.15,252.98 270.93,254.91 274.79,254.71C272.86,253.29 270.32,253.19 268.59,251.15C269.71,250.13 270.01,248.71 270.42,247.39C271.74,247.09 272.86,247.39 273.87,248C274.29,249.45 271.81,252.67 276.31,253.49C276.65,252.68 276.96,247.02 280.43,250.01C279.16,250.65 278.49,251.2 279.35,252.58C280.3,252 280.27,250.97 280.53,250.1C289.63,253.59 299.53,253.31 308.81,256.03C308.61,257.66 306.98,256.44 306.37,257.25C306.07,258.06 305.56,258.88 306.17,259.79C306.88,260.2 306.88,259.49 307.19,259.18C308,259.59 307.19,260.7 308,261.11C308.91,261.31 308.81,260.2 309.42,259.99C309.83,260.19 309.72,260.9 310.33,260.9C312.06,259.99 312.56,258.16 313.07,256.23C324.66,256.98 322.42,255.8 322.42,259.79C319.58,260.4 316.73,259.69 313.89,259.99C316.08,261.08 322.34,261.1 324.05,259.08C324.66,258.27 326.69,256.54 328.72,257.56C328.72,260.17 322.93,259.82 334.51,262.33C336.24,260.81 335.63,258.47 336.74,256.54C340.19,272.19 346.85,272.08 348.93,291.38C353.63,335.02 349.2,348.17 356.03,372.25ZM257.59,301.86C261.35,301.56 262.26,302.57 261.96,306.23C261.25,306.94 260.33,306.94 259.22,306.94C258.91,305.21 258.51,303.48 257.59,301.86ZM371.77,321.97C368.95,326.05 358.29,324.61 353.99,322.07C351.23,316.27 354.72,308.55 350.03,284.38C347.17,269.64 338.76,265.97 338.86,256.24C338.87,254.82 338.86,252.99 336.73,253.19C336.22,245.88 337.62,238.97 338.36,231.96C339.59,220.22 337.98,219.06 341.31,207.07C344.96,210.51 354,239.58 355.13,243.84C369.93,299.76 379.28,273.82 394.75,299.61C394.34,301.74 392.01,303.47 393.63,306.11C390.45,305.91 389.15,304.36 390.28,300.42C390.69,299.3 392.31,299.91 392.72,298.59C391.3,297.57 389.67,298.49 388.15,297.47C387.34,296.76 388.66,295.64 387.85,294.42C385.72,297.57 382.16,295.94 379.32,297.47C377.19,295.13 374.14,293.91 372.82,290.97C371.7,291.48 372.92,292.39 371.91,293C368.76,293.2 365.31,292.39 361.95,292.19C357.68,284.77 353.72,277.26 347.22,271.67C347.63,275.63 350.76,277.98 352.71,281.02C362.74,296.7 357.39,288.74 351.9,291.58C359.32,293.81 366.22,294.53 373.44,294.42C376.08,299.7 376.79,305.59 379.33,310.88C376.75,314.66 374.27,318.35 371.77,321.97ZM381.83,311.51C381.63,312.53 381.32,313.54 379.9,314.05C380.2,312.73 380.81,311.92 381.63,311.31C383.23,305.27 377.06,301.84 377.77,299.53C378.68,299.53 378.38,300.65 379.8,300.85C380,300.85 381.02,300.65 381.83,300.55C386.58,301.86 384.91,309.07 381.83,311.51ZM382.95,313.23C389.66,302.98 384.47,303 384.47,300.13C385.59,299.11 387.11,301.35 388.23,298.81C388.74,301.96 387.62,304.6 389.75,306.53C387.72,308.97 386.91,312.22 382.95,313.23ZM387.72,313.84C387.72,311.2 389.65,309.68 390.77,307.85C392.19,307.34 392.7,309.58 394.12,308.46C396.35,306.02 394.12,302.26 396.86,300.03C393.6,288.63 382.27,289.77 396.66,289.77C393.57,288.12 373.59,285.65 403.26,288.45C405.8,292.31 407.42,296.58 410.88,300.03C401.8,316.18 403.15,317.13 387.72,313.84Z" style="fill-rule:nonzero;"/>
        <path d="M504.03,83.96C503.89,83.96 503.92,83.95 504.04,83.99C504.03,83.98 504.03,83.96 504.03,83.96Z" style="fill-rule:nonzero;"/>
        <path d="M595.76,252.69L595.86,252.59C595.83,252.62 595.76,252.65 595.76,252.69Z" style="fill-rule:nonzero;"/>
        <path d="M539.28,249.74C536.53,253.86 540.01,253.39 539.28,249.74Z" style="fill-rule:nonzero;"/>
        <path d="M686.78,118.4C685.96,115.56 683.43,116.17 680.99,115.35C681.9,117.48 683.73,117.08 685.26,118.19C685.77,123.47 690.24,128.15 689.02,134.34C687.39,136.07 685.18,136.72 683.23,137.49C656.03,148.22 658.43,171.53 638.23,195.6C629.84,205.59 620.06,210.87 615.58,218.05C609.08,216.53 604.91,211.75 600.04,207.89C600.04,197 606.03,194.83 606.03,182.49C606.44,181.78 607.45,182.79 607.86,181.98C608.16,180.35 606.84,179.95 605.73,179.44L605.73,171.42C609.18,168.27 610.82,164.51 610.61,159.94C610.34,154.02 612.65,142.55 608.38,131.29C607.67,134.95 608.79,138.5 608.28,142.16C599.24,133.83 596.6,122.66 593.75,111.18C601.85,117.25 608.5,117.96 609.8,127.53C610.27,130.99 611.77,134.33 611.12,138.09C610.79,140.02 612.24,141.85 613.25,143.47C618.03,151.13 616.7,154.07 616.7,171.3C612.84,175.06 611.72,180.04 611.11,185.22C613.81,177.11 617.26,171.28 624.21,169.58C639.74,165.78 640.71,157.31 647.6,152.74C646.86,154.94 644.22,155.99 644.22,159.31C645.84,156.83 647.88,155.06 647.88,152.5C654.44,145.55 655.57,144.17 658.24,144.17C660.07,144.17 661.08,141.73 662.91,140.61C661.49,139.49 660.88,141.63 659.86,141.12C658.1,137.61 668.71,140.36 671.14,138.17C670.43,136.75 671.37,136.86 652.45,138.37C648.49,134.1 645.75,128.92 642.8,123.84C651.46,107.15 654.11,98.5 642.29,122.62C640.83,125.6 648.81,136.82 651.03,139.28C656.15,139.54 658.01,139.41 656.31,141.11C630.95,163.39 643.08,159.84 618.22,169.86C619.13,165.39 618.78,160.92 619.24,156.55C619.7,152.08 618.85,148.11 616.29,144.36C612.05,138.14 615.88,139.92 611.72,125.36C607.89,111.95 598.27,113.5 590.9,106.67C583.08,99.43 585.09,93.3 585.72,83.1C585.81,81.58 586.23,80.15 587.75,79.14C588.16,79.24 588.77,79.45 589.27,79.44C606.58,79.33 596.33,68.52 602.37,61.87C600.44,58.72 603.39,55.47 601.56,52.63C604.91,49.68 604.79,49.69 603.08,45.82C599.06,36.72 605.84,37.87 603.59,28.86C601.98,22.44 601.41,24.05 609.58,18.4C608.06,17.38 608.16,15.45 606.94,14.64C605.31,14.74 604.4,16.06 602.67,15.86C605.11,13.52 608.97,13.63 610.9,9.77C609.07,10.68 607.85,11.29 606.53,11.9C606.33,10.68 606.02,9.77 605.82,8.55C604.3,8.35 603.59,6.72 602.57,6.01C581.92,8.51 598.82,6.43 599.62,3.06C592.92,3.26 586.52,2.04 580.12,2.35C579.82,1.23 581.64,1.54 581.03,0.42C578.39,-0.7 566.71,0.42 565.18,2.05C558.97,-1.93 557.24,6.1 554.11,5.3C552.18,4.8 550.06,5.28 548.32,3.78C547.01,2.65 545.48,1.85 543.55,3.78C545.58,5.1 547.92,5.41 548.93,7.44C546.9,7.85 544.66,6.12 542.73,8.05C543.44,10.28 545.78,9.98 547.1,11.1C546.59,13.44 544.36,12.12 543.34,12.83C542.83,14.05 544.15,14.05 544.15,14.76C539.9,23.81 541.58,45.97 543.95,50.62C546.01,54.67 545.81,59.24 548.11,63.01C548.42,63.52 548.41,64.23 548.21,64.74C547.13,67.54 550.92,80.46 545.57,82.82C538.37,85.99 532.36,91.56 524.03,92.27C521.5,88.73 521.98,81.4 511.43,83.53C509.03,84.01 506.43,82.67 504.03,83.98C508.66,85.76 513.5,85.66 518.54,84.75C526.81,104.04 528.22,91.79 520.98,117.36C520.19,118.35 518.53,118.23 517.99,117.96C513.08,121.58 507.79,119.81 497.51,118.78C494.16,114.92 493.74,109.95 492.13,105.37C489.87,98.95 492.37,96.89 496.19,86.27C498.93,85.46 501.98,86.57 503.91,83.93C500.89,84.02 497.68,83.84 494.67,85.35C490.11,97.82 488.8,99.69 489.59,102.01C491.59,107.91 492.23,114.2 494.87,119.79C486.81,131.16 491.53,141.93 493.96,148.74C495.89,154.17 493.85,161.7 492.64,178.71C491.84,190.02 498.49,191.85 500.97,198.72C503.58,205.96 509.26,204.73 513.57,210C516.37,213.41 518.11,214.01 522.14,210.78C521.95,211.56 522.43,216.65 521.9,220.97C521.2,226.66 520.65,232.46 522,238.14C522.99,242.31 520.27,245.96 520.17,249.92C520.15,250.86 516.08,253.47 514.58,257.74C511.33,267.01 510.98,269.84 507.37,309.24C503.36,352.92 508.91,343.95 507.27,355.26C506.09,363.4 507.87,371.91 504.63,383.09C503.81,385.93 503.41,389.39 504.22,392.84C508.79,392.64 513.14,393.82 517.43,392.13C521.87,390.38 520.71,395.84 528.2,393.65C535.87,416.93 523.15,430.77 521.5,451.25C519.25,479.12 525.38,469.3 527.8,489.65C528.79,497.98 530.49,506.21 530.95,514.54C531.4,522.77 530.46,531.09 531.86,539.22C532.58,543.38 531.66,547.45 531.56,551.41C530.44,552.22 529.01,551.5 528.41,552.32C523.38,559.27 528.29,560.14 524.45,570.2C515.85,592.74 523.24,590.43 529.02,592.04C547.99,597.33 544.57,592.07 553.2,595.9C562.44,600.01 582.81,602.45 598.1,594.58C602.94,592.09 600.85,587.97 602.77,586.05C611.1,591.84 635.78,584.93 642.08,578.74C640.06,566.28 640.59,563.95 626.94,563.4C615.04,562.92 609.33,555.73 594.33,540.24C595.55,537.19 594.53,535.26 591.38,534.75C589.04,526.71 593.7,487.99 595.85,449.32C596.57,436.3 594.37,442.83 599.91,422.5C601.59,416.35 597.82,415.11 599.1,410.21C603.02,395.16 600.02,394.52 603.77,394.57C607.28,394.61 617.41,391.23 617.89,387.76C620.2,371.06 613.04,369.11 612.51,335.65C612.51,335.55 612.53,312.73 610.88,294.71C608.63,270 598.08,267.51 598.08,255.8C598.08,254.41 597.68,253.22 595.95,253.45C595.97,259.2 597.88,264.56 600.83,269.41C615.59,293.75 606.02,337.91 615.56,374.24C616.71,378.6 615.86,383.08 615.86,387.75C596.74,397.18 589.45,390.72 584.06,393.84C584.06,398.54 594.14,393.66 599.81,396.18C599.06,408.92 596,409.43 597.47,416.5C598.89,423.31 594.36,422.96 593.2,451.95C593.2,452.06 589.35,502.13 589.34,502.23C588.49,510.86 589.2,519.6 588.12,528.24C587.8,530.78 589.64,533.32 588.63,536.16C586.8,537.28 584.37,535.65 582.74,537.18C581.22,538.6 581.42,540.84 581.11,542.97C550.03,541.67 579.47,549.32 561.5,476.13C560.11,470.47 563.48,470.18 563.94,441.9C564.09,432.38 570.51,427.73 568.21,419.86C565.42,410.32 577.29,404.47 574.51,393.96C577.86,391.73 582.03,394.26 585.68,391.42C582.73,376.49 582.94,360.84 582.02,345.4C577.05,385.45 587.66,390.04 578.36,390.6C567.35,391.27 565.92,393.65 562.82,393.14C535.13,388.58 532.17,390.5 506.14,390.5C506.34,389.08 505.43,387.35 507.77,386.84C509.29,378 509.19,368.66 509.8,359.41C510.75,344.91 507.88,345.48 508.48,333.91C508.74,328.93 509.13,324.05 508.28,319.08C508.17,318.43 511.53,276.57 514.48,262.8C515.2,259.45 516.92,256.4 519.36,253.66C518.24,258.43 519.87,263.41 518.24,268.08C521.19,262.59 519.26,255.79 522.91,250.3C526.16,253.14 529.72,254.16 533.58,254.57C531.95,253.15 529.72,252.84 527.99,251.12C530.34,248.77 527.67,245.73 533.27,247.77C533.37,249.29 532.46,250.41 532.86,251.73C533.47,252.75 534.49,252.85 535.6,253.46C535.9,252.76 536.43,247.15 539.25,249.71C541.41,251.87 560.76,253.82 568.41,255.9C567.6,257.32 564.14,256.51 565.57,259.56C569.33,261.9 570.65,261.29 572.68,256C577.23,256.78 583.67,254.88 581.72,259.76C578.77,260.17 575.93,259.76 572.98,259.86C576.03,260.88 579.07,260.47 582.22,260.27C584.23,256.66 583.91,256.95 584.45,258.85C586.38,256.11 589.12,257.94 591.97,257.02C590.45,258.14 589.94,258.24 588.52,257.73C587.71,258.44 586.69,259.15 586.59,260.47C587.71,261.49 587.81,259.66 588.62,259.86C589.33,260.16 588.42,261.18 589.64,261.69C592.32,259.98 595.33,267.17 595.33,254.78C586.47,257.06 557.67,251.39 553.78,251.12C549.87,250.85 546.25,246.18 541.59,245.63C542.1,245.9 544.24,247.05 546.09,248.03C546.31,248.48 547.58,249.51 547.68,249.59C539.96,247.56 532.54,244.31 524.42,243.6C525.03,238.01 523.1,232.93 522.9,227.35C529.1,228.67 535.09,229.89 541.08,230.5C535.7,228.27 529.8,228.27 524.42,226.44C523.22,220.57 525.77,211.01 522.79,210.09C526.45,206.67 530.38,203.63 532.95,198.81C535.8,193.47 542.31,175.96 543.11,172.2C544.14,167.3 543.35,133.66 548.6,129.33C550.83,127.49 551.55,124.45 553.17,121.71C554.8,122.32 555.91,123.23 556.32,124.96C559.84,139.72 559.13,136.11 553.37,149.44C547.44,163.17 543.85,160.65 544.93,165.88C546.68,166.27 553.73,154.07 555.31,150.97C561.54,138.73 560.21,135.36 559.37,127.4C573.28,126.29 562.37,125.62 579.28,132.78C583.43,134.54 591.21,133.22 591.17,128.72C590.96,109.32 591.08,113.97 587.92,107.08C596.22,112.47 591.04,126.1 603.26,138.47C611.23,146.53 608.09,149.77 608.24,158.48C608.41,168.4 601.28,169.9 603.97,183.88C604.42,185.69 596.04,205.84 596.55,219.03C597.12,233.86 590.1,257.56 595.74,252.63C596.65,238.42 598.69,224.3 599.3,209.58C604.58,214.15 609.15,218.82 616.16,219.13C629.99,202.74 642.49,199.6 654.66,172.91C668.45,142.66 672.11,144.62 686.85,137.67C694,134.34 690.76,132.23 686.78,118.4ZM544.77,19.46C543.86,18.65 545.28,18.55 545.28,18.04C545.68,18.85 545.28,19.15 544.77,19.46ZM584.28,546.77C582.19,534.78 587.29,540.64 592.51,537.93C591.8,541.69 592.89,544.38 596.37,546.06C597.68,546.69 598.6,548.29 599.72,549.41C595.15,553.78 588.55,553.07 583.26,556.01C585.8,559.87 596.06,559.77 606.01,556.01C607.84,557.33 609.57,558.85 611.19,560.58C609.87,561.29 609.05,560.99 607.84,559.97C604.48,557.14 599.41,557.94 596.26,561.6C598.6,563.53 600.93,560.79 603.27,561.8C602.97,563.12 600.93,562.51 600.53,563.83C601.55,564.74 601.55,564.74 609.16,563.02C608.86,564.44 607.42,566.2 609.77,566.88C611.59,567.41 613.73,565.56 614.54,562.41C621.14,566.88 629.07,565.66 636.28,567.59C638.62,570.54 638.21,574.29 639.02,577.65C631.91,583.14 616.37,586.18 604.48,584.35C602.26,576.23 602.89,577.67 587.11,570.74C584.17,569.45 579.41,563.47 568.52,556.82C566.15,555.78 560.44,550.71 572.18,553.26C577.78,554.49 581.54,551.85 584.28,546.77ZM581.24,546.36C580.83,547.99 579.72,548.8 578.5,549.92C578.49,546.99 578.1,544.66 581.24,546.36ZM565.69,545.75C569.25,544.84 572.6,546.66 576.05,546.26C576.96,547.68 576.25,548.9 576.35,550.12C572.69,551.54 569.75,548.8 566.09,548.7C565.9,547.68 565.39,546.87 565.69,545.75ZM563.46,542.81C562.55,543.72 561.94,544.94 561.63,546.26C559.4,546.26 558.77,544.74 558.68,543.21C558.28,536.11 556.48,490.18 560.61,484.39C565.19,503.9 566.91,523.1 563.46,542.81ZM563.46,395.31C567.18,395.52 568.4,393.56 572.5,393.79C573.9,404.5 565.08,408.14 566.3,420C567.39,430.55 561.59,431.99 561.63,435.03C561.68,439.81 560.5,444.48 560.61,449.25C560.7,452.81 561.02,456.46 559.29,459.81C558.9,460.69 556.2,492.1 556.14,493.13C552.95,548.55 560.67,544.37 552.79,545.24C549.03,550.22 548.63,552.25 551.06,553.77C556.01,543.86 552.07,549.06 560.71,547.98C561.01,555.7 566.7,558.85 572.39,562.1C570.46,564.23 568.23,562.3 566.6,563.42C565.79,562.61 567.31,561.9 566.5,561.19C562.34,559.87 547.81,562.41 545.98,564.95C548.43,567.85 560.63,563.53 552.18,567.29C546.23,570.6 554.72,574.07 575.24,564.95C575.75,566.37 573.72,567.18 574.63,568.4C570.87,570.33 566,569.01 563.05,573.28C565.79,575.41 568.23,573.01 570.57,572.77C573.22,572.5 575.85,572.06 577.99,569.93C591.7,576.49 580.97,571.24 579.01,577.14C582.87,576.33 586.63,577.65 589.68,575.01C598.28,580.84 602.08,574.49 598.31,590.96C573.46,603.85 553.68,591.05 544.98,591.16C537.36,591.26 528.83,589.23 523.34,585.88C523.54,578.36 529.74,572.47 528.83,563.94C533.11,568.06 540.87,571.34 543.86,566.28C546.02,562.64 548.63,559.47 552.29,557.34C551.48,556.22 550.77,557.64 549.95,557.54C540.84,562.4 543.38,568.39 537.25,566.17C534.92,565.33 532.58,564.65 530.95,562.72C531.97,561.3 532.78,563.13 533.59,562.31C533.39,560.99 531.86,560.99 531.25,559.87L531.25,554.59C535.43,555.65 552.34,559.89 550.35,555.91C545.58,554.39 543.75,551.34 543.95,544.53C541.72,546.48 543.28,550.84 542.53,553.67C539.48,554.38 536.94,552.65 533.59,552.35C538.35,548.24 532.81,542.26 533.89,532.85C535.08,522.5 532.27,502.98 532.26,502.88C529.26,467.3 520.49,475.69 524.23,450.77C527.09,431.74 529.9,434.93 534.29,406.38C535.01,401.71 532.87,397.34 531.65,392.56C542.94,391.04 547.67,394.41 563.46,395.31ZM600.84,10.52C600.64,11.33 600.23,11.84 599.21,11.23C599.42,10.42 599.93,10.21 600.84,10.52ZM598.91,15.09C597.59,16.82 597.59,16.82 595.46,16.51C596.37,15.6 597.49,15.29 598.91,15.09ZM582.86,9.5C582.25,10.41 581.74,10.72 580.93,10.62C581.24,9.71 581.74,9.4 582.86,9.5ZM565.59,25.76C566.5,26.88 566.71,27.39 566,27.99C564.47,27.48 565.39,26.97 565.59,25.76ZM560.31,6.86C560.78,6.86 560.57,8.31 559.29,7.67C559.5,7.17 559.7,6.66 560.31,6.86ZM559.29,10.72C559.57,10.15 560.1,10.43 560.1,10.82C560.11,11.81 559,11.01 559.29,10.72ZM557.77,22.2C557.97,24.23 557.97,24.23 555.33,23.83C555.94,22.91 556.65,22.3 557.77,22.2ZM557.26,43.02C556.24,41.5 555.33,39.97 554.31,38.55C556.45,39.27 557.97,40.28 557.26,43.02ZM553.5,40.99C554.62,41.5 554.92,42.41 555.33,43.73C553.5,43.23 553.3,42.41 553.5,40.99ZM550.46,19.25C550.36,20.47 549.95,21.08 548.94,21.28C548.93,20.37 549.44,19.86 550.46,19.25ZM548.83,33.27C549.34,34.08 548.42,34.29 548.12,34.29C548.32,33.98 548.63,33.68 548.83,33.27ZM548.22,45.46C547,44.44 547.51,43.12 547.1,41.8C548.22,42.31 548.93,42.1 549.64,40.89C550.15,43.13 549.03,44.24 548.22,45.46ZM548.63,56.94C549.44,57.24 549.34,57.65 548.93,58.16C548.42,57.86 548.12,57.45 548.63,56.94ZM537.66,90.67C536.75,91.18 536.03,91.08 535.12,90.97C535.83,90.46 536.44,88.94 537.66,90.67ZM564.47,123.38C563.12,124.73 567.46,124.48 560,125.41C558.88,122.57 556.44,120.84 553.7,119.42C553.9,116.88 555.63,115.15 556.04,112.92C562.03,112.11 564.57,106.22 558.58,99.41C557.26,98.8 555.94,99.31 554.52,99.41C552.18,97.07 555.01,95.95 555.64,94.33C557.54,89.42 561.26,91.17 565.49,87.93C562.14,86.81 559.5,90.47 556.14,88.23C556.34,91.07 555.23,93.21 552.99,94.83C551.36,94.83 550.45,91.27 547.81,94.02C551.16,94.22 551.45,96.56 552.08,98.9C556.17,114.09 554.3,113.16 549.03,122.98C548.04,124.82 547.71,127.14 545.47,128.26C544.76,128.67 544.53,130.29 544.25,131.41C537.27,159.15 545.6,159.03 535.51,186.47C529.79,202.03 522.88,205.81 518.85,209.83C517.73,210.95 516.21,210.94 515.19,209.53C512.77,206.17 509.29,204.47 505.74,202.72C502.48,201.11 502.9,197.44 501.17,195.1C501.88,192.76 504.73,192.66 505.54,190.33C502.9,189.62 502.29,193.07 498.84,191.96C485.69,183.4 501.35,163.25 494.89,145.37C493.88,145 493.74,144.34 494.78,143.3C490.31,137.71 492.24,125.02 496.91,120.55C522.1,124.56 518.62,118.66 522.31,119.03C531.47,124.99 516.45,145.89 515.81,154.28C511.65,156.92 508.18,160.47 504.43,163.42C499.54,167.27 497.01,172.56 496.41,178.76C502.13,169.13 504.13,164.34 511.95,160.27C520.35,155.91 517.36,152.13 519.16,149.4C524.06,142 525.99,133.56 527.49,124.92C528.11,121.37 525.56,119.74 522.92,118.01C527.31,101.64 529.1,98.72 524.34,93.83C527.29,92.61 530.13,93.83 533.08,92.1C533.59,97.38 532.06,102.16 533.69,106.93C535.52,102.56 534.71,97.79 536.23,93.01C536.94,92.4 538.06,92.5 539.18,92.6C540.09,93.72 539.99,95.04 539.99,96.16C539.69,97.18 538.67,96.46 537.96,97.28C541.92,98.3 539.69,101.85 541.31,104.8C543.04,100.53 541.21,96.67 541.61,93.12C546.08,89.15 546.62,99.77 548.92,102.67C548.92,96.81 545.93,88.17 541.1,91.39C540.08,90.48 539.27,89.66 538.36,88.75C539.58,88.04 540.79,87.11 542.12,86.62C554.15,82.12 550.07,60.94 551.87,55.54C553.8,54.93 554.1,56.86 555.22,57.06C556.24,57.47 556.64,56.25 557.45,56.35C560.68,62.8 555.4,67.62 569.84,70.17C556.75,61.07 561.81,66.94 559.48,54.93C559.17,53.31 558.36,52.19 556.74,51.98C555.72,52.39 556.23,53.5 555.42,54.11C554.3,52.48 551.46,52.18 552.07,49.23C545.31,45.17 552.81,45.54 550.95,39.17C551.76,41.03 550.42,43.68 553.49,44.55C552.98,45.97 552.37,47.09 553.19,48.61C554.51,49.63 556.14,50.34 557.96,49.52C558.47,47.89 556.84,47.08 556.44,45.56C557.96,45.86 557.86,47.9 559.49,47.39C561.17,46.55 557.42,42.72 566.3,33.98C574.35,26.05 568.96,29.37 568.64,26.97C569.96,26.56 571.18,27.17 572.6,27.17C573.51,23.82 577.78,23.82 579.51,20.47C587.64,20.81 586.45,17.39 590.58,18.54C593.31,19.3 596.07,19.56 599.01,19.25C604.36,35.71 600.85,31.02 599.62,32.46C599.21,33.78 601.55,33.88 600.84,35.3C599.21,35.81 599.21,35.81 598.3,34.08C598.5,39.57 600.64,44.54 602.46,49.11C601.95,50.84 600.2,50.63 599.82,51.95C599.27,53.87 600.84,55.81 599.92,57.74C596.57,58.55 593.11,58.45 589.96,60.08C593.11,61.81 596.36,59.67 599.51,60.38C600.63,61.8 599.71,62.72 598.7,63.63C596.77,62.82 594.74,62.51 592.4,62.82C593.42,65.97 595.96,64.34 597.89,65.26C599.08,80.16 596.14,75.52 586.11,77.45C583.75,79.81 583.62,82.69 583.27,91.98C581.44,90.76 581.75,89.03 580.93,87.92C578.09,85.69 574.12,88.83 571.48,85.58C571.07,88.53 567.82,86.09 566.81,88.53C570.97,90.16 575.14,88.33 579.51,88.83C585.86,104.39 585.97,105.32 584.79,108.33C582.88,113.22 580.32,117.78 579.61,123.16C574.43,123.68 569.35,125.31 564.47,123.38ZM555.43,102.25C560,102.05 561.63,105.2 560.2,110.68C559.29,111.29 558.27,111.09 557.05,110.98C555.84,108.34 556.75,105.19 555.43,102.25ZM589.46,116.98C589.91,130.37 589.32,130.4 585.3,131.4C580.52,132.6 574.51,128.52 571.28,126.42C575.04,125.81 578.09,125.4 581.24,124.9C582.15,119.31 584.59,114.34 586.83,108.85C588.55,111.49 589.37,114.13 589.46,116.98Z" style="fill-rule:nonzero;"/>
        <path d="M665.24,107.02C665.54,107.53 664.73,107.93 665.54,108.24C666.86,108.24 667.88,106.92 669.5,107.12C673.26,112.4 677.22,117.68 680.78,123.37C678.04,128.04 675.32,132.73 672.55,137.39C671.88,138.51 671.28,138.24 671.21,138.53C672.6,138.18 668.93,145.64 682.51,124.08C683.12,124.59 683.63,124.89 684.34,125.4C684.34,124.89 684.54,124.49 684.44,124.28C681.48,119.1 680.5,121.41 679.56,118.29C679.8,118.15 678.71,118.51 677.53,114.94C682.53,113.81 690.13,115.18 692.67,113.35C694.38,112.11 682.11,112.3 676.33,113.52C671.59,107.52 670.66,105.47 668.2,105.6C648.13,106.63 650.45,105.84 652.45,108.85C672.71,108.85 647.07,108.67 665.24,107.02Z" style="fill-rule:nonzero;"/>
        <path d="M701.92,122.36C692.77,113.37 694.88,112.44 692.89,113.24C694.92,117.5 698.07,120.75 701.82,123.99C700.5,129.78 697.35,134.96 695.83,140.95C695.68,140.96 677.43,142.71 677.55,142.6C677.32,142.69 678.2,143.98 679.17,143.9C695.72,142.47 696.39,143.28 697.15,141.16C702.95,124.9 704.11,124.51 701.92,122.36Z" style="fill-rule:nonzero;"/>
        <path d="M677.33,142.57L677.33,142.67C677.39,142.65 677.44,142.65 677.33,142.57Z" style="fill-rule:nonzero;"/>
        <path d="M666.16,130.08C668.09,127.64 669.41,124.9 670.32,121.85C668.29,124.19 667.28,127.13 666.16,130.08Z" style="fill-rule:nonzero;"/>
        <path d="M663.82,110.98C665.04,113.62 666.46,116.06 668.8,117.89C667.68,115.25 665.95,113.01 663.82,110.98Z" style="fill-rule:nonzero;"/>
        <path d="M676.62,121.45C676.62,121.17 677.15,121.25 672.86,121.25C672.86,121.52 672.34,121.45 676.62,121.45Z" style="fill-rule:nonzero;"/>
        <path d="M261.35,325.73C260.94,325.93 260.74,325.93 260.64,326.14C254.17,358.47 259.96,357.1 259.22,362.3C257.59,370.02 258.97,377.84 258.92,385.56C258.89,389.93 260.32,388.67 260.34,387.39C260.49,378.45 259.11,369.62 260.14,360.67C260.36,358.74 258.73,357.22 258.72,355.08C258.59,335.36 262.76,328.74 261.35,325.73Z" style="fill-rule:nonzero;"/>
        <path d="M320.58,302.67C314.08,290.18 311.03,276.97 308.39,263.66C307.17,274.33 315.09,299.42 320.58,302.67Z" style="fill-rule:nonzero;"/>
        <path d="M263.38,283.57C262.97,279.71 262.87,276.15 260.64,273.51C263.48,267.11 267.95,261.73 268.77,254.82C266.27,254.2 269.46,250.77 258.71,274.43C261.56,276.87 259.83,281.34 263.38,283.57Z" style="fill-rule:nonzero;"/>
        <path d="M323.93,415.32C326.13,415.11 335.08,419.2 336.32,400.59C336.42,400.18 336.12,399.78 335.2,399.57C332.36,403.84 333.47,410.13 328.5,413.59C325.96,414.3 323.42,413.29 320.37,413.29C321.49,415.22 322.61,415.45 323.93,415.32Z" style="fill-rule:nonzero;"/>
        <path d="M336.52,351.53C334.49,347.06 330.53,343.91 327.99,339.64C331.04,335.48 332.76,330.6 333.58,325.32C330.74,331.31 328.2,337.51 322.81,341.98C324.74,343.2 325.45,341.17 327.08,341.37C329.17,343.6 336.22,352.95 337.64,352.95C336.18,351.49 336.41,351.64 336.52,351.53Z" style="fill-rule:nonzero;"/>
        <path d="M333.68,292.61C332.97,282.76 332.26,272.8 330.12,262.34C329.35,265.29 333.68,301.21 333.68,292.61Z" style="fill-rule:nonzero;"/>
        <path d="M334.7,267.93C334.18,270.84 336.81,285.02 338.36,290.48C338.97,292.61 339.17,292.71 341.1,293.63C337.64,285.4 337.95,276.26 334.7,267.93Z" style="fill-rule:nonzero;"/>
        <path d="M315.6,476.58C314.48,481.56 310.32,484 306.76,486.94C308.39,488.57 309.6,486.74 310.82,487.14C310.82,487.75 310.31,488.26 311.84,488.66C317.38,474.65 320.99,474.55 315.6,476.58Z" style="fill-rule:nonzero;"/>
        <path d="M321.18,424.67C325.28,428.71 326.33,434.93 327.88,434.93C327.37,429.04 323.61,424.37 321.48,418.47C319.25,421.01 320.16,423.66 321.18,424.67Z" style="fill-rule:nonzero;"/>
        <path d="M267.85,283.57C269.58,274.73 271.61,266 272.01,257.06C270.19,265.79 267.55,274.53 267.85,283.57Z" style="fill-rule:nonzero;"/>
        <path d="M314.18,277.17C316.92,271.28 316.41,266.5 312.45,263.66C311.84,268.64 314.48,272.8 314.18,277.17Z" style="fill-rule:nonzero;"/>
        <path d="M259.22,285.6C266.13,287.73 273.34,289.05 280.25,290.98C273.54,287.43 266.43,286.01 259.22,285.6Z" style="fill-rule:nonzero;"/>
        <path d="M287.46,306.22C282.99,295.63 284.17,290.58 281.87,290.58C281.7,294.16 283.89,307.49 287.46,307.85C287.46,307.34 287.67,306.73 287.46,306.22Z" style="fill-rule:nonzero;"/>
        <path d="M299.95,261.63C300.25,267.01 297.21,271.38 296.7,277.27C299.55,272.9 305.1,262.73 299.95,261.63Z" style="fill-rule:nonzero;"/>
        <path d="M332.87,425.99C332.06,426.19 332.97,427.31 332.16,428.22C330.94,428.52 329.62,428.93 328.1,429.44C335.47,434.36 336.89,423.98 332.87,425.99Z" style="fill-rule:nonzero;"/>
        <path d="M322.4,264.37C322.5,268.43 324.63,271.58 326.67,274.83C325.76,271.18 324.84,267.52 322.4,264.37Z" style="fill-rule:nonzero;"/>
        <path d="M332.66,302.26C331.33,313.26 331.16,312.42 332.25,312.42C333.88,309.27 333.27,305.72 333.37,302.26L332.66,302.26Z" style="fill-rule:nonzero;"/>
        <path d="M334.9,327.56C335.81,331.12 336.73,334.77 337.64,338.33C337.03,334.67 338.56,330.4 334.9,327.56Z" style="fill-rule:nonzero;"/>
        <path d="M274.86,312.83C272.32,315.67 269.98,318.62 268.46,322.28C276.58,312.04 275.57,313.54 274.86,312.83Z" style="fill-rule:nonzero;"/>
        <path d="M283.5,268.94C284.11,266.3 285.63,263.66 283.91,260.91C283.19,263.66 282.99,266.3 283.5,268.94Z" style="fill-rule:nonzero;"/>
        <path d="M295.28,363.21C295.08,360.06 293.65,357.52 291.83,355.08C292.94,357.73 294.16,360.47 295.28,363.21Z" style="fill-rule:nonzero;"/>
        <path d="M316.31,536.92C318.54,535.7 318.54,535.7 316.92,532.15C316.92,533.77 315.9,535.19 316.31,536.92Z" style="fill-rule:nonzero;"/>
        <path d="M317.73,469.97C315.8,472.1 315.8,472.1 316.41,474.74C317.63,473.33 318.44,472.01 317.73,469.97Z" style="fill-rule:nonzero;"/>
        <path d="M253.95,289.06C256.18,289.36 257,287.84 258.11,285.91C256.15,286.25 254.63,287.23 253.95,289.06Z" style="fill-rule:nonzero;"/>
        <path d="M320.68,456.67C322,455.96 322.71,455.15 322.2,453.32C320.88,454.23 320.37,455.14 320.68,456.67Z" style="fill-rule:nonzero;"/>
        <path d="M346.28,306.53C346.69,307.75 347.09,308.97 348.82,309.78C348.21,308.05 347.6,307.04 346.28,306.53Z" style="fill-rule:nonzero;"/>
        <path d="M279.33,310.69C283.41,310.32 282.51,310.53 282.78,309.98C278.81,310.34 279.33,310.14 279.33,310.69Z" style="fill-rule:nonzero;"/>
        <path d="M271.1,250.66C271.71,249.75 272.52,249.14 272.12,247.71C270.8,248.53 270.6,249.34 271.1,250.66Z" style="fill-rule:nonzero;"/>
        <path d="M340.28,343.2C340.89,344.52 341.4,345.33 342.92,345.94C342.31,344.62 341.81,343.81 340.28,343.2Z" style="fill-rule:nonzero;"/>
        <path d="M304.53,256.25C302.8,256.35 302.6,257.16 302.8,258.79C304.02,258.18 304.32,257.36 304.53,256.25Z" style="fill-rule:nonzero;"/>
        <path d="M318.04,466.93C319.97,466.22 319.87,465.1 319.46,463.37C318.65,464.59 318.04,465.4 318.04,466.93Z" style="fill-rule:nonzero;"/>
        <path d="M319.76,459.31C319.46,459.92 318.85,460.33 319.86,461.34C320.37,460.53 320.68,460.02 319.76,459.31Z" style="fill-rule:nonzero;"/>
        <path d="M288.48,254.01C288.18,254.42 288.28,254.82 288.58,255.23C289.08,254.72 289.59,254.32 288.48,254.01Z" style="fill-rule:nonzero;"/>
        <path d="M261.15,288.04C261.86,288.24 262.37,288.34 262.88,287.94C262.27,287.53 261.76,287.43 261.15,288.04Z" style="fill-rule:nonzero;"/>
        <path d="M266.43,289.36C266.94,289.77 267.24,290.48 268.06,289.97C267.75,289.16 267.24,288.95 266.43,289.36Z" style="fill-rule:nonzero;"/>
        <path d="M305.03,378.86C304.9,377.53 303.73,376.56 303.68,376.67C296.38,363.46 297.24,365.24 296.4,365.66C306.66,385.67 307.29,379.98 305.03,378.86Z" style="fill-rule:nonzero;"/>
        <path d="M339.47,356.1C339.57,356.4 339.67,356.71 340.08,356.51C339.98,356.3 339.88,356 339.47,356.1Z" style="fill-rule:nonzero;"/>
        <path d="M338.05,165.94C332.56,161.27 329.72,155.48 329.01,148.47C328.3,151.62 328.5,154.67 329.52,157.51C330.93,161.47 331.65,166.34 338.05,165.94Z" style="fill-rule:nonzero;"/>
        <path d="M331.34,178.13C331.37,177.01 331.85,175.69 330.12,174.78C328.49,183.62 332.66,192.46 328.8,200.99C333.68,193.79 330.97,193.88 331.34,178.13Z" style="fill-rule:nonzero;"/>
        <path d="M329.72,212.06C329.72,209.58 327.1,217.4 329.52,222.83C328.6,219.17 330.63,215.71 329.72,212.06Z" style="fill-rule:nonzero;"/>
        <path d="M262.88,185.95C266.84,187.78 270.5,190.42 275.07,191.03C271,189.3 267.45,186.56 262.88,185.95Z" style="fill-rule:nonzero;"/>
        <path d="M286.65,167.46C288.58,169.9 291.02,169.59 293.05,170.1C291.52,168.68 289.8,167.26 286.65,167.46Z" style="fill-rule:nonzero;"/>
        <path d="M329.41,227.4C329.21,229.03 329,230.65 328.8,232.38C329.92,230.85 330.02,229.22 329.41,227.4Z" style="fill-rule:nonzero;"/>
        <path d="M329.21,211.75C329.41,209.92 329.92,207.99 329.01,205.45C328.5,207.99 328.5,209.92 329.21,211.75Z" style="fill-rule:nonzero;"/>
        <path d="M308.18,228.41C307.16,227.9 306.25,227.6 305.13,228.11C306.15,228.61 306.96,229.33 308.18,228.41Z" style="fill-rule:nonzero;"/>
        <path d="M304.32,250.86C303.41,248.83 302.29,247.91 300.87,247.41C301.27,248.93 302.19,250.05 304.32,250.86Z" style="fill-rule:nonzero;"/>
        <path d="M282.68,186.56C282.17,185.75 281.56,185.54 280.34,186.26C281.26,187.07 281.87,187.58 282.68,186.56Z" style="fill-rule:nonzero;"/>
        <path d="M269.99,183.21C269.38,182.19 269.08,181.38 267.65,181.79C268.06,182.7 268.67,183.21 269.99,183.21Z" style="fill-rule:nonzero;"/>
        <path d="M269.48,222.42C269.78,223.13 270.39,223.33 271.11,223.33C270.9,222.42 270.29,222.32 269.48,222.42Z" style="fill-rule:nonzero;"/>
        <path d="M275.37,185.95C275.67,185.14 275.57,184.63 274.66,184.73C274.46,185.44 274.76,185.75 275.37,185.95Z" style="fill-rule:nonzero;"/>
        <path d="M329.21,253.6C330.12,253.5 330.02,252.99 329.72,252.38C329.21,252.69 328.6,252.89 329.21,253.6Z" style="fill-rule:nonzero;"/>
        <path d="M332.46,241.11C332.87,241.52 333.27,241.52 333.58,241.21C333.27,240.7 332.87,240.8 332.46,241.11Z" style="fill-rule:nonzero;"/>
        <path d="M267.04,215.1C274.96,219.44 290.64,222.09 291.32,221.7C290.19,220.77 278.26,218.69 268.77,215C268.26,214.8 267.55,214.19 267.04,215.1Z" style="fill-rule:nonzero;"/>
        <path d="M270.8,196.51C271.1,197.32 271.51,197.42 272.22,196.92C271.82,196.21 271.41,196.01 270.8,196.51Z" style="fill-rule:nonzero;"/>
        <path d="M279.43,192.45C279.23,192.25 278.92,192.25 278.62,192.35C278.93,192.65 279.13,192.55 279.43,192.45Z" style="fill-rule:nonzero;"/>
        <path d="M278.42,186.26C278.15,184.89 276.84,185.57 277.3,186.26C277.61,186.56 278.01,186.66 278.42,186.26Z" style="fill-rule:nonzero;"/>
        <path d="M241.75,240.7C242.12,240.27 243.26,238.65 243.01,238.28C243.38,238.09 247.95,232.73 247.95,223.83C244.1,240.96 240.57,237.69 241.75,240.7Z" style="fill-rule:nonzero;"/>
        <path d="M250.79,109.15C250.49,108.95 250.18,108.74 249.88,108.54C246.32,111.82 240.13,126.08 250.79,109.15Z" style="fill-rule:nonzero;"/>
        <path d="M244.29,192.15C245.71,189.1 246.63,186.06 245.61,182.8C243.98,185.75 244.49,189 244.29,192.15Z" style="fill-rule:nonzero;"/>
        <path d="M245.4,208.7C245.7,211.75 243.77,214.79 245.7,217.74C245.61,214.8 247.44,211.65 245.4,208.7Z" style="fill-rule:nonzero;"/>
        <path d="M244.19,192.05C242.06,193.88 241.24,198.86 243.07,201.6C243.47,198.24 243.17,195.09 244.19,192.05Z" style="fill-rule:nonzero;"/>
        <path d="M249.26,194.58C248.96,197.53 249.97,199.15 252.41,199.76C251.09,196.11 251.09,196.11 249.26,194.58Z" style="fill-rule:nonzero;"/>
        <path d="M255.77,167.16C255.97,170.72 254.25,173.97 254.04,177.42C255.97,174.27 256.17,170.81 255.77,167.16Z" style="fill-rule:nonzero;"/>
        <path d="M237.99,245.78C235.65,248.32 235.25,251.57 234.54,254.72C235.64,254.72 234.65,256.9 237.99,245.78Z" style="fill-rule:nonzero;"/>
        <path d="M253.94,177.42C252.21,179.96 251.6,182.91 250.79,185.85C252.21,183.21 253.53,180.46 253.94,177.42Z" style="fill-rule:nonzero;"/>
        <path d="M245.2,119.92C243.37,121.65 243.37,122.87 244.69,125.1C244.9,122.97 245,121.75 245.2,119.92Z" style="fill-rule:nonzero;"/>
        <path d="M238.29,167.46C236.87,168.78 236.87,169.9 237.58,171.93C238.4,170.21 239.11,169.09 238.29,167.46Z" style="fill-rule:nonzero;"/>
        <path d="M265.01,102.25C263.32,102.33 262.55,103.24 261.8,104.74C261.5,105.33 263.97,105.19 265.01,102.25Z" style="fill-rule:nonzero;"/>
        <path d="M237.99,245.78C239.31,245.17 240.12,244.15 240.43,242.73C239.51,243.65 238.29,244.36 237.99,245.78Z" style="fill-rule:nonzero;"/>
        <path d="M246.22,221.71C246.22,220.39 246.63,219.07 245.71,217.85C245.61,219.07 245.61,220.39 246.22,221.71Z" style="fill-rule:nonzero;"/>
        <path d="M245.71,207.38C246.22,206.36 246.32,205.65 245.51,204.84C244.69,205.66 244.9,206.27 245.71,207.38Z" style="fill-rule:nonzero;"/>
        <path d="M236.97,173.46C235.75,174.17 235.55,174.88 236.36,175.8C237.58,175.39 237.58,174.57 236.97,173.46Z" style="fill-rule:nonzero;"/>
        <path d="M283.09,162.89C283.44,162.18 283.04,161.61 281.87,162.59C282.48,162.99 282.79,163.4 283.09,162.89Z" style="fill-rule:nonzero;"/>
        <path d="M243.88,134.04C243.17,134.75 243.47,135.36 243.88,135.97C244.39,135.26 244.59,134.65 243.88,134.04Z" style="fill-rule:nonzero;"/>
        <path d="M244.08,129.17C244.28,128.56 244.49,128.15 243.78,127.54C243.47,128.15 242.97,128.66 244.08,129.17Z" style="fill-rule:nonzero;"/>
        <path d="M299.45,576.23C296.9,575.04 294.98,576.03 293.36,578.36C291.02,575.01 288.6,574.21 286.25,575.92C282.33,578.78 285.77,586.89 293.26,580.9C294.99,584.56 298.03,584.05 301.18,583.34C301.38,580.7 302.78,577.79 299.45,576.23ZM288.78,581.41C285.55,580.95 285.85,576.39 289.08,576.64C292.15,576.87 291.79,581.2 288.78,581.41ZM297.72,582.12C294.13,581.78 294.7,577.83 297.21,577.55C298.84,577.37 299.85,578.16 299.85,580.19C298.94,580.5 296.6,579.38 297.72,582.12Z" style="fill-rule:nonzero;"/>
        <path d="M303.31,398.05C299.71,399.74 300.73,411.33 296.4,412.68C292.9,413.77 286.57,417.91 282.99,415.02C282.69,417.25 283.9,417.76 285.33,418.37C287.56,419.18 289.49,417.94 291.32,417.25C296.95,415.15 300.57,416.19 303.31,398.05Z" style="fill-rule:nonzero;"/>
        <path d="M277.81,470.99C276.18,478 275.58,485.21 274.15,492.32C278.72,485.82 277.71,478.3 277.81,470.99Z" style="fill-rule:nonzero;"/>
        <path d="M278.01,574.91C276.46,586.81 279.75,579.98 280.14,579.89C281.56,580.19 281.46,582.53 283.59,582.12C283.29,580.8 282.75,579.56 283.89,578.16C286.3,575.22 280.07,573.44 278.01,574.91ZM279.54,576.43C280.66,575.82 281.57,576.02 282.49,576.94C280.65,578.36 280.65,578.36 279.54,576.43Z" style="fill-rule:nonzero;"/>
        <path d="M278.22,456.16C277.51,469.26 277.35,467.54 278.42,467.54C278.59,465.99 281.33,456.16 278.22,456.16Z" style="fill-rule:nonzero;"/>
        <path d="M322.71,573.18C318.75,572.37 316.01,573.38 314.69,576.53C317.03,574.9 319.36,575.11 321.6,574.9C321.69,574.3 323.11,574.3 322.71,573.18Z" style="fill-rule:nonzero;"/>
        <path d="M278.93,451.69C279.03,449.76 280.76,448.13 279.34,445.19C278.62,447.83 277,449.56 278.93,451.69Z" style="fill-rule:nonzero;"/>
        <path d="M279.84,439.09C280.96,437.26 281.06,435.53 281.06,433.6C278.93,435.54 278.93,435.74 279.84,439.09Z" style="fill-rule:nonzero;"/>
        <path d="M283.29,523.71C282.48,525.34 282.58,526.55 283.59,527.87C283.9,526.56 284.61,525.24 283.29,523.71Z" style="fill-rule:nonzero;"/>
        <path d="M283.5,535.49C284.82,534.37 284.92,533.46 284.31,532.14C283.29,533.16 283.19,534.07 283.5,535.49Z" style="fill-rule:nonzero;"/>
        <path d="M295.48,427.82C296.29,429.24 297.11,429.75 298.53,429.04C297.82,428.22 297.11,427.61 295.48,427.82Z" style="fill-rule:nonzero;"/>
        <path d="M335.3,32.46C330.53,28.19 323.72,28.8 319.86,33.88C324.54,29.51 330.02,33.78 335.3,32.46Z" style="fill-rule:nonzero;"/>
        <path d="M332.05,34.59C329.1,36.01 325.24,34.49 322.91,37.84C325.04,39.26 327.68,38.35 329.51,40.38C329.1,37.74 331.54,38.75 332.25,37.43C331.55,36.73 332.16,35.81 332.05,34.59Z" style="fill-rule:nonzero;"/>
        <path d="M312.96,86.5C312.55,91.48 315.7,95.95 315.8,100.92C317.53,95.54 314.28,91.17 312.96,86.5Z" style="fill-rule:nonzero;"/>
        <path d="M297.82,88.53C296.91,92.19 298.94,94.93 300.26,98.18C301.78,94.02 299.34,91.48 297.82,88.53Z" style="fill-rule:nonzero;"/>
        <path d="M333.68,49.42C333.17,50.23 333.27,51.15 333.68,51.86C336.12,52.27 338.66,53.28 340.38,50.23C338.65,48.71 337.33,49.82 336.22,50.84C334.9,50.54 335,49.02 333.68,49.42Z" style="fill-rule:nonzero;"/>
        <path d="M291.83,79.39C292.85,81.02 293.66,82.23 294.47,83.45C294.27,80.61 294.27,80.61 291.83,79.39Z" style="fill-rule:nonzero;"/>
        <path d="M307.78,75.53C307.78,73.7 307.07,72.89 305.44,71.77C305.95,73.6 306.15,74.72 307.78,75.53Z" style="fill-rule:nonzero;"/>
        <path d="M309.91,79.39C310.52,78.48 309.91,78.17 309.3,77.87C308.69,78.78 308.99,79.19 309.91,79.39Z" style="fill-rule:nonzero;"/>
        <path d="M311.64,82.95C311.34,81.93 311.34,81.93 310.52,81.73C310.62,82.34 310.82,82.95 311.64,82.95Z" style="fill-rule:nonzero;"/>
        <path d="M359.79,276.97C360.09,277.27 360.81,277.07 361.42,277.07C351.19,267.98 341.79,262.67 359.79,276.97Z" style="fill-rule:nonzero;"/>
        <path d="M363.24,295.86C359.68,295.56 356.23,295.05 352.68,294.13C355.93,296.47 359.58,296.47 363.24,295.86Z" style="fill-rule:nonzero;"/>
        <path d="M365.88,283.77C365.47,280.32 364.25,278.69 361.31,277.17C362.63,279.3 363.75,281.64 365.88,283.77Z" style="fill-rule:nonzero;"/>
        <path d="M366.08,297.28C366.99,300.33 368.11,303.37 370.35,305.91C369.33,302.87 368.52,299.62 366.08,297.28Z" style="fill-rule:nonzero;"/>
        <path d="M367.1,320.55C368.22,319.43 369.13,318.82 369.03,317.6C368.01,318.11 367.51,318.92 367.1,320.55Z" style="fill-rule:nonzero;"/>
        <path d="M369.14,317.45C370.06,317.12 370.45,316.44 370.45,315.47C369.59,315.85 369.11,316.6 369.14,317.45Z" style="fill-rule:nonzero;"/>
        <path d="M369.13,317.6C369.12,317.55 369.14,317.5 369.14,317.45C368.99,317.49 369.03,317.5 369.13,317.6Z" style="fill-rule:nonzero;"/>
        <path d="M370.55,315.57C371.06,315.27 371.57,314.86 371.46,313.84C370.86,314.35 370.45,314.76 370.55,315.57Z" style="fill-rule:nonzero;"/>
        <path d="M346.48,263.56C345.97,264.27 346.07,264.78 347.19,264.58C347.19,264.07 346.99,263.76 346.48,263.56Z" style="fill-rule:nonzero;"/>
        <path d="M338.35,549.61C338.05,548.29 337.44,547.68 336.62,547.78C309.77,553.04 329.34,556.68 338.35,549.61Z" style="fill-rule:nonzero;"/>
        <path d="M224.48,303.68C223.57,299.52 224.28,295.05 222.04,291.08C223.16,295.25 222.75,299.62 224.48,303.68Z" style="fill-rule:nonzero;"/>
        <path d="M225.39,309.07C228.44,308.66 231.38,309.58 234.33,308.97C229.66,307.44 227.53,307.44 225.39,309.07Z" style="fill-rule:nonzero;"/>
        <path d="M216.3,318.16C216.28,318.18 216.27,318.19 216.25,318.21C219.96,317.35 226.35,307.8 216.3,318.16Z" style="fill-rule:nonzero;"/>
        <path d="M211.07,287.13C213.61,288.55 215.74,288.35 217.77,288.04C215.74,287.94 213.81,286.82 211.07,287.13Z" style="fill-rule:nonzero;"/>
        <path d="M399.3,313.64C408.43,300.5 407.08,303.3 406.51,302.16C402.95,305.21 401.13,309.37 398.69,313.13C398.9,313.33 399.1,313.44 399.3,313.64Z" style="fill-rule:nonzero;"/>
        <path d="M404.79,301.14C402.86,297.69 402.25,294.03 400.02,290.47C400.62,295.76 402.15,299.42 404.79,301.14Z" style="fill-rule:nonzero;"/>
        <path d="M553.4,334.06C553.4,327.53 550.48,322.64 556.75,311.51C559.41,306.8 555.53,305.1 548.01,290.99C547.03,289.14 546.49,287.03 544.76,285.5C547.3,293.93 552.68,300.94 556.85,308.76C546.13,325.35 554.75,339.45 553.4,334.06Z" style="fill-rule:nonzero;"/>
        <path d="M579.91,302.67C573.31,290.28 570.36,276.97 567.62,263.66C567.22,277.37 574.33,299.62 579.91,302.67Z" style="fill-rule:nonzero;"/>
        <path d="M594.24,399.58C591.6,404.05 592.51,410.25 588.35,413.19C585.2,414.61 582.66,413.19 579.41,413.39C581.34,415.02 581.34,415.04 585.2,415.42C593.48,416.24 593.81,409.94 595.66,401.81C595.87,400.9 595.66,399.98 594.24,399.58Z" style="fill-rule:nonzero;"/>
        <path d="M527.59,254.66C526.62,253.9 527.81,251.37 518.15,274.53C520.69,276.97 519.17,281.23 522.72,283.77C522.21,279.91 522.21,276.25 519.98,273.31C521.32,270.73 529.71,256.33 527.59,254.66Z" style="fill-rule:nonzero;"/>
        <path d="M587.03,339.75C591.52,334.17 596.66,316.35 589.77,331.62C588.89,333.57 587.66,335.49 586.52,337.31C585.42,339.05 582.76,339.85 582.66,342.49C584.18,342.69 584.79,341.17 586.32,341.37C597.58,354.45 600.39,358.9 587.03,339.75Z" style="fill-rule:nonzero;"/>
        <path d="M600.64,294.14C596.78,285.61 597.19,276.36 594.04,267.93C593.62,268.99 595.56,292.31 600.64,294.14Z" style="fill-rule:nonzero;"/>
        <path d="M516.83,350.62C516.75,353.35 516.03,356.48 518.32,358.82C518.09,358.92 518.72,361.13 518.35,362.71C516.59,370.3 518.35,377.95 518.25,385.57C518.24,386.59 517.95,387.8 518.96,388.72C521.12,386.38 518.21,372.94 519.37,361.6C519.77,357.69 517.96,359.25 518.56,358.65C516.65,350.78 519.58,333.56 520.69,328.68C522.14,322.33 517.58,326.15 516.83,350.62Z" style="fill-rule:nonzero;"/>
        <path d="M588.45,149.18C587.54,153.65 588.58,157.6 590.28,161.67C591.63,164.91 593.84,165.94 597.49,166.04C592.1,161.27 588.96,155.88 588.45,149.18Z" style="fill-rule:nonzero;"/>
        <path d="M584.49,428.94C585,432.7 585.3,433.41 587.23,435.03C586.72,429.04 582.96,424.36 580.83,418.78C578.39,422.13 579.41,424.77 584.49,428.94Z" style="fill-rule:nonzero;"/>
        <path d="M527.3,283.57C529.03,274.63 530.65,265.89 531.57,257.06C529.43,261.22 526.48,279.3 527.3,283.57Z" style="fill-rule:nonzero;"/>
        <path d="M565.9,486.54C565.66,486.64 565.63,486.59 565.98,486.91C567.65,488.39 568.7,486.96 569.76,487.25C569.96,487.66 569.56,488.57 571.18,488.37C572.7,484.41 574.84,480.45 576.56,476.18C573.06,479.68 571,484.42 565.9,486.54Z" style="fill-rule:nonzero;"/>
        <path d="M590.89,190.83C589.52,183.6 591.85,176.85 589.47,174.48C587.44,183.52 592.01,192.05 588.45,200.38C590.17,197.43 591.5,194.08 590.89,190.83Z" style="fill-rule:nonzero;"/>
        <path d="M519.78,302.77C519.68,309.98 518.15,317.19 521.1,324.31C519.98,317.09 521,309.88 519.78,302.77Z" style="fill-rule:nonzero;"/>
        <path d="M588.85,263.15C590.58,273.31 590.78,283.67 592.61,293.83C592.1,283.47 591.8,273.11 588.85,263.15Z" style="fill-rule:nonzero;"/>
        <path d="M571.58,263.66C571.28,268.74 573.51,272.8 573.61,277.17C576.05,270.47 575.55,266.3 571.58,263.66Z" style="fill-rule:nonzero;"/>
        <path d="M560,261.83C559.29,266.6 556.95,270.97 556.65,275.75C558.89,271.38 562.34,267.32 560,261.83Z" style="fill-rule:nonzero;"/>
        <path d="M550.25,221.71C542.43,218.87 534.1,217.65 526.28,214.7C533.69,218.96 542.02,220.18 550.25,221.71Z" style="fill-rule:nonzero;"/>
        <path d="M588.24,206.06C589.36,211.65 586.72,217.34 588.75,222.92C588.96,217.24 589.87,211.65 588.24,206.06Z" style="fill-rule:nonzero;"/>
        <path d="M553.41,359.56C553.47,361.23 557.37,371.41 564.98,379.76C550.94,356.66 555.28,361.29 553.41,359.56Z" style="fill-rule:nonzero;"/>
        <path d="M591.5,428.12C590.28,428.63 588.96,428.93 587.44,429.34C593.61,433.08 596.33,426.55 593.03,425.58C591.39,425.99 592.1,427.21 591.5,428.12Z" style="fill-rule:nonzero;"/>
        <path d="M581.74,264.27C581.74,268.33 583.97,271.48 586.11,274.73C584.89,271.18 584.18,267.42 581.74,264.27Z" style="fill-rule:nonzero;"/>
        <path d="M532.58,324C532.28,329.08 531.87,334.06 531.56,339.14C533.39,334.16 532.88,328.98 532.58,324Z" style="fill-rule:nonzero;"/>
        <path d="M594.14,327.35C595.05,330.91 595.97,334.26 597.09,338.32C597.18,331.21 596.57,328.88 594.14,327.35Z" style="fill-rule:nonzero;"/>
        <path d="M542.53,269.45C544.36,265.69 544.56,262.75 542.94,260.61C542.74,263.66 541.92,266.4 542.53,269.45Z" style="fill-rule:nonzero;"/>
        <path d="M592,302.06C591.49,305.51 591.09,308.97 590.68,312.32C593.43,309.17 592.21,305.61 592,302.06Z" style="fill-rule:nonzero;"/>
        <path d="M521,287.23C519.91,287.23 519.86,286.52 520.9,295.15C522.11,292.41 521.4,289.87 521,287.23Z" style="fill-rule:nonzero;"/>
        <path d="M546.7,167.67C548.12,169.7 550.36,169.9 552.59,170.01C550.96,168.58 549.14,167.46 546.7,167.67Z" style="fill-rule:nonzero;"/>
        <path d="M563.05,250.46C562.14,248.33 560.51,246.9 558.68,245.89C559.8,247.71 560.92,249.54 563.05,250.46Z" style="fill-rule:nonzero;"/>
        <path d="M576.66,470.18C575.64,471.5 574.63,472.82 575.44,474.95C576.87,473.43 577.78,472.11 576.66,470.18Z" style="fill-rule:nonzero;"/>
        <path d="M576.66,532.14C575.85,533.66 575.24,535.09 575.85,537.32C578.29,535.6 576.87,533.77 576.66,532.14Z" style="fill-rule:nonzero;"/>
        <path d="M553.4,359.35C553.3,357.42 551.88,355.9 550.96,354.27C551.67,356 551.78,358.03 553.4,359.35Z" style="fill-rule:nonzero;"/>
        <path d="M588.45,227.5C588.45,229.33 588.25,231.06 588.04,232.88C588.96,231.15 589.06,229.43 588.45,227.5Z" style="fill-rule:nonzero;"/>
        <path d="M577.58,466.93C579,466.02 579.41,465.1 578.6,463.68C577.88,464.59 577.07,465.4 577.58,466.93Z" style="fill-rule:nonzero;"/>
        <path d="M529.83,364.84C529.63,362.91 529.63,360.88 529.73,358.75C529.53,360.77 528.82,362.91 529.83,364.84Z" style="fill-rule:nonzero;"/>
        <path d="M580.02,456.57C581.34,455.96 581.85,455.15 581.34,453.62C580.32,454.23 579.41,455.04 580.02,456.57Z" style="fill-rule:nonzero;"/>
        <path d="M533.39,315.87C533.39,320.05 533.32,319.63 533.59,319.63C533.59,314.54 533.73,314.86 533.39,315.87Z" style="fill-rule:nonzero;"/>
        <path d="M531.56,339.14C531.56,338.77 531.25,339.2 531.56,344.12L531.56,339.14Z" style="fill-rule:nonzero;"/>
        <path d="M553.4,359.35L553.3,359.45C553.46,359.57 553.4,359.67 553.4,359.35Z" style="fill-rule:nonzero;"/>
        <path d="M564.27,228.01C564.59,228.66 565.99,229.05 567.42,228.72C566.4,227.7 565.39,227.7 564.27,228.01Z" style="fill-rule:nonzero;"/>
        <path d="M563.81,255.92C563.89,255.68 563.9,255.72 563.53,255.92C560.41,257.63 562.44,261.26 563.81,255.92Z" style="fill-rule:nonzero;"/>
        <path d="M606.02,306.63C606.32,308.36 606.32,308.36 608.15,309.47C607.55,308.15 607.14,307.24 606.02,306.63Z" style="fill-rule:nonzero;"/>
        <path d="M601.96,345.84C601.76,344.42 601.05,343.81 599.93,343.5C600.23,344.52 600.64,345.43 601.96,345.84Z" style="fill-rule:nonzero;"/>
        <path d="M530.34,352.65C530.14,352.55 530.14,352.55 530.24,352.35C529.95,352.64 529.75,354.11 530.24,354.69C530.24,353.97 530.34,353.26 530.34,352.65Z" style="fill-rule:nonzero;"/>
        <path d="M530.55,250.15C531.06,249.44 532.07,248.93 531.36,247.81C530.04,248.32 530.24,249.24 530.55,250.15Z" style="fill-rule:nonzero;"/>
        <path d="M547.92,253.81C547.31,254.42 547.62,254.72 548.12,255.13C548.42,254.62 548.63,254.21 547.92,253.81Z" style="fill-rule:nonzero;"/>
        <path d="M579.31,459.41C578.29,459.71 578.29,460.32 578.8,461.14C579.91,460.83 580.02,460.32 579.31,459.41Z" style="fill-rule:nonzero;"/>
        <path d="M541.82,186.76C541.62,185.95 541.21,185.54 539.99,186.05C540.5,187.07 541.01,187.37 541.82,186.76Z" style="fill-rule:nonzero;"/>
        <path d="M529.63,364.94C529.83,365.65 529.83,366.36 529.73,367.17C530.14,366.36 529.94,365.65 529.63,364.94Z" style="fill-rule:nonzero;"/>
        <path d="M587.63,370.22C588.56,370.69 588.13,370.94 588.65,370.42C588.18,369.95 587.96,369.56 587.63,370.22Z" style="fill-rule:nonzero;"/>
        <path d="M585.51,365.28C585.36,365.42 585.31,365.82 585.91,365.65C585.61,365.51 585.48,365.35 585.51,365.28Z" style="fill-rule:nonzero;"/>
        <path d="M600.19,357.72C600.2,357.72 600.21,357.72 600.23,357.73C600.11,357.66 600.14,357.68 600.19,357.72Z" style="fill-rule:nonzero;"/>
        <path d="M600.33,357.83C600.29,357.79 600.23,357.75 600.19,357.72C600.02,357.7 599.96,358.11 600.33,357.83Z" style="fill-rule:nonzero;"/>
        <path d="M530.65,348.58C530.55,348.88 530.55,349.09 530.55,349.39C530.85,349.09 530.75,348.89 530.65,348.58Z" style="fill-rule:nonzero;"/>
        <path d="M543.45,252.79C542.74,252.79 542.54,253.3 542.74,254.82C543.35,253.81 544.26,253.6 543.45,252.79Z" style="fill-rule:nonzero;"/>
        <path d="M588.85,252.39C588.04,252.59 588.14,253 588.44,253.61C589.06,253.4 589.46,252.99 588.85,252.39Z" style="fill-rule:nonzero;"/>
        <path d="M593.02,241.11C592.79,240.88 592.47,240.85 592.11,241.21C592.4,241.31 592.8,241.7 593.02,241.11Z" style="fill-rule:nonzero;"/>
        <path d="M550.05,583.14C552.09,583.51 553.4,582.02 554.93,580.7C556.66,584.56 559.7,583.95 562.85,583.44C563.05,580.9 564.48,578.15 561.33,576.33C559.2,575.1 557.37,575.72 555.03,578.26C548.63,569.36 542,581.66 550.05,583.14ZM556.96,579.28C557.2,577.15 561.53,576.4 561.53,579.99C561.02,581.01 557.77,578.87 559.5,582.12C557.26,581.92 556.79,580.8 556.96,579.28ZM550.46,576.74C553.84,576.74 553.28,581.84 550.26,581.41C547.41,581.21 547.28,576.74 550.46,576.74Z" style="fill-rule:nonzero;"/>
        <path d="M558.48,412.38C561.36,405.62 564.04,392.14 560,401.82C559.64,403.55 557.76,411.92 556.04,412.38C551.45,413.62 547.41,417.66 541.82,415.02C542.3,422.91 557.45,414.78 558.48,412.38Z" style="fill-rule:nonzero;"/>
        <path d="M534.1,492.42C537.66,485.82 537.35,478.4 536.84,471.09C532.52,494.4 532.15,492.42 534.1,492.42Z" style="fill-rule:nonzero;"/>
        <path d="M539.59,574.71C539.08,577.05 538.78,579.48 539.49,581.82C541.47,582.04 540.92,577.72 543.25,581.21C543.66,581.82 544.16,582.33 545.18,582.23C545.38,580.91 544.27,580 545.18,578.47C548.02,574.85 541.58,573.54 539.59,574.71ZM541.11,577.04C542.13,575.41 543.14,576.33 544.67,576.94C543.14,578.57 542.13,578.36 541.11,577.04Z" style="fill-rule:nonzero;"/>
        <path d="M538.16,456.26C537.08,456.26 537.44,454.56 536.74,467.54L537.65,467.54C538.16,463.78 539.89,460.12 538.16,456.26Z" style="fill-rule:nonzero;"/>
        <path d="M581.84,573.18C578.89,573.18 575.85,572.67 574.02,576.02C576.46,574.4 579.81,576.03 581.84,573.18Z" style="fill-rule:nonzero;"/>
        <path d="M538.47,451.59C537.96,449.66 540.5,447.83 538.17,445.19C538.37,447.73 536.13,449.56 538.47,451.59Z" style="fill-rule:nonzero;"/>
        <path d="M540.09,433.91C538.16,435.23 538.67,437.06 538.67,439.6C540.6,437.37 540.09,435.64 540.09,433.91Z" style="fill-rule:nonzero;"/>
        <path d="M542.33,523.31C542.13,525.24 541.72,526.46 543.04,528.19C543.04,526.35 543.65,525.13 542.33,523.31Z" style="fill-rule:nonzero;"/>
        <path d="M554.82,427.92C555.53,429.34 556.45,429.65 557.77,428.94C556.86,428.53 556.35,427.21 554.82,427.92Z" style="fill-rule:nonzero;"/>
        <path d="M542.94,535.7C543.75,534.48 544.06,533.67 543.24,532.55C543.24,533.46 542.13,534.28 542.94,535.7Z" style="fill-rule:nonzero;"/>
        <path d="M584.79,553.58C587.29,553 600.81,551.13 596.98,548.09C595.19,546.67 584.14,550.7 582.15,551.85C582.76,553.48 583.47,553.98 584.79,553.58Z" style="fill-rule:nonzero;"/>
        <path d="M535.93,158.02C531.36,168.38 528.51,179.56 520.9,188.29C528.92,179.65 534.71,169.9 535.93,158.02Z" style="fill-rule:nonzero;"/>
        <path d="M594.54,32.66C589.77,28.09 581.94,28.9 579.1,34.08C583.67,29.62 588.96,33.37 594.54,32.66Z" style="fill-rule:nonzero;"/>
        <path d="M582.45,37.64C584.08,39.57 586.92,37.84 588.75,40.59C588.04,37.54 590.48,38.66 591.49,37.75C591.39,36.73 591.19,35.72 591.79,34.19C588.55,36.12 584.69,34.29 582.45,37.64Z" style="fill-rule:nonzero;"/>
        <path d="M573.11,106.82C572.81,106.72 572.6,106.62 572.3,106.52C565.71,119.99 563.74,130.76 573.11,106.82Z" style="fill-rule:nonzero;"/>
        <path d="M529.94,158.73C529.03,163.3 526.49,166.55 524.35,170.11C527.5,168.58 530.55,162.28 529.94,158.73Z" style="fill-rule:nonzero;"/>
        <path d="M592.61,51.96C595.35,52.37 597.89,53.28 599.42,50.33C597.69,48.6 596.47,50.03 595.36,50.84C594.62,50.85 591.89,46.9 592.61,51.96Z" style="fill-rule:nonzero;"/>
        <path d="M568.54,91.68C569.76,94.83 570.57,98.18 572.7,100.92C571.99,97.57 571.18,94.22 568.54,91.68Z" style="fill-rule:nonzero;"/>
        <path d="M538.67,110.88C538.97,108.54 539.28,106.21 536.44,104.48C535.93,107.43 536.54,109.36 538.67,110.88Z" style="fill-rule:nonzero;"/>
        <path d="M519.17,133.43C516.22,134.14 513.28,134.85 511.55,137.7C514.29,136.78 517.14,135.77 519.17,133.43Z" style="fill-rule:nonzero;"/>
        <path d="M517.14,180.87C520.19,179.04 521.41,177.11 521.71,174.27C520.08,176.3 518.46,178.23 517.14,180.87Z" style="fill-rule:nonzero;"/>
        <path d="M575.34,105.09C578.18,106.92 580.83,105.7 583.37,105.19C580.73,104.28 577.98,104.79 575.34,105.09Z" style="fill-rule:nonzero;"/>
        <path d="M540.3,126.73C538.07,127.64 535.63,127.95 533.39,129.07C536.23,129.88 538.47,128.76 540.3,126.73Z" style="fill-rule:nonzero;"/>
        <path d="M551.47,79.49C551.88,81.22 552.99,82.13 553.91,83.35C553.5,80.71 553.5,80.71 551.47,79.49Z" style="fill-rule:nonzero;"/>
        <path d="M565.08,71.77C565.59,74.31 565.59,74.31 567.11,75.12C566.91,73.7 566.1,72.89 565.08,71.77Z" style="fill-rule:nonzero;"/>
        <path d="M544.77,104.58C544.67,106.1 544.97,106.92 546.29,107.22C546.8,105.7 546.6,104.89 544.77,104.58Z" style="fill-rule:nonzero;"/>
        <path d="M534.71,118.6C535.3,115.39 532.51,117.86 533.49,119.82C534.41,119.72 534.6,119.21 534.71,118.6Z" style="fill-rule:nonzero;"/>
        <path d="M536.23,155.88C537.25,155.17 537.55,154.56 536.94,153.34C536.13,154.16 535.73,154.66 536.23,155.88Z" style="fill-rule:nonzero;"/>
        <path d="M537.76,151.21C538.47,150.6 538.88,150.09 538.47,148.47C537.66,149.38 536.64,149.79 537.76,151.21Z" style="fill-rule:nonzero;"/>
        <path d="M541.41,125.2C542.93,125.1 543.54,124.29 543.75,123.07C542.74,123.38 542.13,123.99 541.41,125.2Z" style="fill-rule:nonzero;"/>
        <path d="M529.53,94.22C528.51,93.81 528.11,94.22 527.3,94.93C528.31,95.24 529.12,95.34 529.53,94.22Z" style="fill-rule:nonzero;"/>
        <path d="M544.87,114.54C546.09,114.54 546.09,113.83 546.09,112.71C544.77,113.01 544.67,113.62 544.87,114.54Z" style="fill-rule:nonzero;"/>
        <path d="M543.04,119.72C544.36,119.01 545.17,118.3 544.77,117.08C543.75,117.48 543.55,118.4 543.04,119.72Z" style="fill-rule:nonzero;"/>
        <path d="M538.88,146.94C539.79,146.74 539.9,146.23 539.79,145.21C539.08,145.62 538.67,146.13 538.88,146.94Z" style="fill-rule:nonzero;"/>
        <path d="M570.98,83.15C571.08,82.03 570.78,81.42 569.66,81.22C569.55,82.23 569.86,82.84 570.98,83.15Z" style="fill-rule:nonzero;"/>
        <path d="M509.11,140.54C507.69,140.54 507.59,141.35 507.59,142.67C508.71,142.07 509.11,141.56 509.11,140.54Z" style="fill-rule:nonzero;"/>
        <path d="M512.57,201.9C513.69,202 513.89,201.19 514.2,200.38C512.87,200.17 512.36,200.68 512.57,201.9Z" style="fill-rule:nonzero;"/>
        <path d="M569.25,79.39C569.86,78.48 569.35,78.17 568.54,77.87C567.93,78.88 568.44,79.19 569.25,79.39Z" style="fill-rule:nonzero;"/>
        <path d="M507.08,150.5C507.08,150.15 506.56,150.21 506.37,150.6C506.77,151 506.74,151.18 507.08,150.5Z" style="fill-rule:nonzero;"/>
        <path d="M511.55,137.7C510.74,137.6 510.23,138.11 510.23,138.92C510.74,138.61 511.45,138.51 511.55,137.7Z" style="fill-rule:nonzero;"/>
        <path d="M698.26,125.81C695.62,128.55 695.21,132.11 694.4,135.56C695.82,132.31 697.45,129.27 698.26,125.81Z" style="fill-rule:nonzero;"/>
        <path d="M690.03,116.87C692.06,119.61 695.11,121.24 697.24,123.88C695.52,120.84 693.59,117.99 690.03,116.87Z" style="fill-rule:nonzero;"/>
        <path d="M624,188.79C624,191.33 622.88,193.46 621.97,195.7C624.92,194.08 624.1,191.33 624,188.79Z" style="fill-rule:nonzero;"/>
        <path d="M609.68,194.08C610.59,192.66 611.61,191.24 611.61,188.8C609.58,190.52 609.37,192.25 609.68,194.08Z" style="fill-rule:nonzero;"/>
        <path d="M691.01,114.77C691.06,114.57 689.1,114.48 687.92,115.15C686.81,115.77 689.56,116.43 690.03,116.78C689.45,115.81 690.79,115.58 691.01,114.77Z" style="fill-rule:nonzero;"/>
        <path d="M656.3,146.64C654.82,146.91 653.58,147.5 652.95,148.86C652.04,150.82 655.23,148.4 656.3,146.64Z" style="fill-rule:nonzero;"/>
        <path d="M608.87,208.6C609.38,207.08 609.07,206.06 608.06,205.04C607.65,206.27 607.24,207.28 608.87,208.6Z" style="fill-rule:nonzero;"/>
        <path d="M623.39,179.86C622.78,180.27 622.58,180.67 623.39,181.38C623.8,180.67 624,180.16 623.39,179.86Z" style="fill-rule:nonzero;"/>
        <path d="M608.97,200.48C608.16,201.19 608.16,201.8 608.77,202.51C609.37,201.9 609.68,201.29 608.97,200.48Z" style="fill-rule:nonzero;"/>
        <path d="M691.05,139.43C691.55,139.53 691.35,139.43 691.05,139.43Z" style="fill-rule:nonzero;"/>
        <path d="M698.46,125.92C699.24,125.81 700,125.87 700.19,124.8C699.15,124.5 698.79,125.04 698.46,125.92Z" style="fill-rule:nonzero;"/>
        <path d="M680.48,118.7C681.09,117.68 680.38,117.38 679.67,116.77C679.35,119.01 679.46,117.61 680.48,118.7Z" style="fill-rule:nonzero;"/>
        <path d="M506.4,86.37C505.37,83.92 506.87,93.37 510.74,98.18C509.02,94.38 508.02,90.22 506.4,86.37Z" style="fill-rule:nonzero;"/>
        <path d="M510.53,100.93C508.6,104.69 506.57,108.35 505.65,112.41C507.69,108.75 509.72,105.09 510.53,100.93Z" style="fill-rule:nonzero;"/>
        <path d="M517.95,117.99C516,117.56 512.14,117.08 507.69,117.08C510.99,117.98 514.52,118.21 517.95,117.99Z" style="fill-rule:nonzero;"/>
        <path d="M516.22,99.91C517.85,100.11 519.37,100.32 521.2,100.42C519.57,99.1 517.95,99.5 516.22,99.91Z" style="fill-rule:nonzero;"/>
        <path d="M503.12,117.38C501.98,116.65 501.27,117.32 500.17,117.99C501.46,117.99 502.52,118.67 503.12,117.38Z" style="fill-rule:nonzero;"/>
    </g>
</svg>
