<?xml version="1.0" encoding="UTF-8" standalone="no"?>
<!DOCTYPE svg PUBLIC "-//W3C//DTD SVG 1.1//EN" "http://www.w3.org/Graphics/SVG/1.1/DTD/svg11.dtd">
<svg width="100%" height="100%" viewBox="0 0 900 600" version="1.1" xmlns="http://www.w3.org/2000/svg" xmlns:xlink="http://www.w3.org/1999/xlink" xml:space="preserve" xmlns:serif="http://www.serif.com/" style="fill-rule:evenodd;clip-rule:evenodd;stroke-linejoin:round;stroke-miterlimit:2;">
    <g>
        <path d="M723.32,21.08C714.99,4.82 696.22,9.33 692.07,17.62C691.26,18.94 690.14,19.45 688.71,19.05C688,18.34 687.98,17.43 687.69,16.61C681.24,-1.62 662.86,-5.43 651.15,8.16C640.58,20.43 637.04,41.13 644.33,55.29C639.24,58.65 637.92,64.55 634.15,69.03C622.85,67.91 616.85,76.16 610.13,83.18C586.34,78.68 588.64,85.81 565.14,97.33C565.55,93.27 569.83,95.44 570.43,92.55C571.51,87.35 574.99,82.98 575.32,77.49C575.99,66.09 580.3,66.67 576.03,57.84C576.12,59.86 573.65,79.5 570.43,88.17C567.29,96.62 561.99,92.35 554.65,93.77C557.09,96.62 560.35,94.99 563,96.31C561.47,102.01 561.47,107.61 563,113.72C565.95,110.97 564.73,107.82 564.83,104.97C570.16,106.04 577.6,151.84 554.75,148.94C554.85,146.6 555.46,144.16 554.14,141.2C553.12,143.95 553.63,146.49 552.71,148.63C551.21,148.63 539.52,146.11 535.61,137.74C525.19,115.41 531.78,125.43 524.01,106.59C522.96,104.06 522.08,101.3 521.87,98.35C526.29,96.65 531.47,96.16 531.64,91.22C531.82,85.93 533.51,80.73 532.76,75.34C532.37,72.59 531.95,69.74 534.19,66.99C532.05,67.19 530.83,66.68 530.73,64.75C531.54,64.24 532.77,64.95 533.27,63.63C533.46,62.05 533.38,60.38 534.02,58.79C535.39,60.11 535.41,62.02 536.22,63.83C539.58,56.6 542.53,48.97 547.11,42.25C549.45,42.86 550.47,40.52 552.4,39.81C551.69,38.38 551.18,37.16 550.67,36.04C549.14,35.84 547.72,35.63 545.78,36.14C547.21,35.12 547.51,33.8 548.83,33.8C551.07,34.92 553.31,35.84 554.43,39.5C555.58,31.47 566.17,39.05 574.48,35.63C573.97,41.02 576.01,45.71 576.62,50.29C568.17,53.95 567.46,54.87 568.78,60.98C570.12,54.72 568.65,59.43 576.31,56.3C577.12,53.55 579.03,50.51 578.14,47.85C576.67,43.49 576.92,39.1 576,34.92C577.83,31.76 581.39,31.15 583.84,28.51C582.41,27.49 584.25,26.17 583.64,25.15C581.91,24.03 580.28,25.46 578.75,24.84C579.36,23.21 582.21,23.72 582.21,21.28C580.07,19.65 578.44,21.59 576.71,22.3C576.4,20.06 577.42,17.82 576,15.79C574.47,16.71 573.76,18.33 572.13,18.95C569.64,14.93 564.67,20.11 561.54,19.36C557.05,18.28 552.58,19.46 548.41,19.05C547.09,19.86 547.09,21.9 545.05,21.59C544.34,21.08 545.86,19.15 543.83,19.25C540.98,22.41 539.35,23.22 534.67,23.93C532.94,22.91 531.72,20.47 528.97,21.79C528.66,23.52 530.6,23.83 530.9,25.15C529,26.55 529.16,28.83 528,30.55C527.59,30.65 527.03,30.74 527.03,30.85C527.47,37.24 520.48,44.1 522.65,53.65C523.37,56.8 525.92,59.46 524.48,63.12C524.28,63.63 524.98,64.65 525.4,65.46C528.12,70.79 527.08,74.33 529.37,79.2C531.43,83.57 527.74,91.82 523.57,94.26C517.15,98.02 509.74,99.58 503.42,103.62C490.67,111.77 491.3,108.08 481.74,115.53C471.82,123.26 470.81,145.89 472.58,150.65C473.44,152.96 468.03,158.92 469.12,172.53C470.74,192.81 474.93,188.53 476.14,197.57C477.35,206.6 473.35,232.94 487.64,258.24C495.37,271.92 494.76,272.28 492.32,280.63C473.91,259.59 471.25,304.33 480.31,335.8C481.13,338.65 482.85,340.79 485.7,341.91C484.95,355.43 482.47,367.08 485.6,379.78C485.82,380.69 485.81,381.72 485.19,382.63C482.57,386.51 483.56,390.77 483.46,395.35C493.92,391.58 488.52,397.26 492.11,409.09C496.55,423.74 487.99,422.87 484.48,446.65C482.7,458.7 480.43,455.53 489.06,505.69C492.01,522.82 490.66,531.4 492.72,540.71C492.82,541.52 493.02,542.13 492.62,542.85C489.92,547.71 491.91,553.54 489.77,558.53C489.57,558.94 489.76,559.55 489.97,559.96C491.25,562.42 490.58,564.44 489.05,566.47C486.09,570.43 486.23,576.7 490.88,580.01C492.01,580.81 493.45,581.94 493.42,583.37C493.31,589.31 504.48,591.92 510.32,591.92C516.02,591.92 521.7,590.98 527.32,590.19C529.05,589.95 530.68,589.48 531.8,587.54C514.69,549.48 516.33,554.05 518.26,554.05C518.69,550.91 512.77,551.86 516.84,545.3C517.85,543.67 516.65,542.15 517.15,540.62C517.78,538.69 517.55,536.86 516.34,535.02C515,532.99 513.08,533.39 511.25,533.39C508.78,517.45 519.32,490.49 522.75,470.99C524.26,462.41 523.65,453.71 521.83,431.9C519.2,433.42 520.84,434.98 521.12,449C521.64,475.39 522.01,467.32 511.14,505.49C510.12,496.84 511.34,488.39 510.63,479.94C507.19,488.26 510.3,501.05 509.92,506C509.2,515.16 507.48,524.22 510.02,533.38C506.76,534.6 503.61,534.5 500.66,535.11C499.85,532.67 501.07,530.12 499.44,527.58C498.11,532.23 501.28,537.34 494.05,536.44C489.23,468.32 478.94,465.07 492.22,427.02C496.66,414.28 492.91,401.65 492.32,396.79C496.19,392.14 510.15,396.68 529.47,392.51C534.83,390.98 527.78,397.64 523.97,424.78C522.77,427.58 518.15,430.44 516.64,434.65C522.95,430.38 527.21,422.79 527.63,413.17C528.01,404.51 530.29,408.79 534.14,394.14C535.87,391.19 538.62,391.7 540.45,391.39C548.07,386.06 543.52,379.9 547.98,373.07C550.59,387.41 544.32,391.24 554.6,392.31C555.75,392.31 555.19,394.41 555.92,399.33C558.06,413.68 563.15,419.24 560.3,435.87C555.51,463.75 560.55,461.2 563.96,484.32C566.08,498.68 570.42,512.72 570.27,527.38C570.26,527.99 570.37,528.7 571.49,528.6C576.61,521.51 564.29,473.84 564.26,473.74C555.82,444.88 565.79,435.17 563.04,418.16C560.59,403.03 554.83,393.22 559.99,393.22C571.09,395.56 582.08,397.7 593.99,395.46C595.31,400.75 592.53,405.75 593.28,410.83C593.86,414.8 591.14,418.16 590.23,421.93C593.6,425.3 588.98,421.86 589.31,433.53C591.85,429.62 591.07,418.95 593.89,437.7C597.84,464 593.45,464.33 593.08,483.3C592.8,497.45 590.64,511.6 590.43,525.85C586.26,525.34 582.39,527.38 578.42,527.38C577.45,524.64 578.95,519.77 576.89,517.71C575.87,521.37 576.69,524.73 576.18,527.89C574.75,528.7 573.1,528.69 572.31,529.93C571.68,530.93 572.62,531.76 572.31,532.58C564.99,539.31 571.32,540.98 568.24,545.61C564.98,550.5 566.31,556.77 563.25,561.59C561.88,563.75 568.42,570.01 570.88,571.06C580.96,575.34 581.94,571.85 586.25,574.62C588.18,580.52 589.41,581.4 595.72,582.25C616.56,585.08 620.72,576.8 622.29,576.45C627.87,575.69 623.49,567.92 619.54,563.73C615,558.9 611.27,553.47 606.61,548.87C601.59,543.91 598.37,538.39 598.26,531.36C597.04,529.73 595.1,531.05 593.48,529.73C593.89,526.07 592.38,522.3 592.87,518.43C594.49,505.63 595.19,477.81 596.23,473.85C602.73,448.98 591.03,423.39 595.31,419.19C595.46,419.04 595.57,411.71 595.31,409.52C594.69,404.33 597.85,400.36 598.47,395.88C604.13,394.94 607.87,397.67 608.04,393.34C610.42,332.6 599.57,320.25 598.98,311.09C596.23,268.03 580.32,259.97 584.93,227.72C588.03,206.04 585.06,194.64 589.92,177.74C594.74,160.96 585.84,168.47 584.02,203.81C582.07,241.54 582.17,232.74 577.81,234.75C578.93,235.56 580.15,234.85 581.58,235.56C581.17,241.57 582.39,247.57 582.39,254.19C558.77,251.44 535.36,253.58 511.85,252.87C509.47,246.84 508.79,235.11 508.39,230.07C511.65,229.97 515.21,229.97 518.67,229.97C516.56,228.21 511.7,229.68 507.47,228.04C506.63,197.77 498.27,217.13 508.49,194.55C508.08,190.27 508.39,185.39 510.42,180.3C508.49,174.7 510.73,168.8 510.11,163C520.42,154.57 517.27,153.04 520.29,151.19C528.4,122.29 511.69,100.24 519.27,99.48C523.34,116.38 527.72,132.97 537.9,147.63C538.71,148.14 539.43,146.61 540.75,147.53C543.29,149.57 546.66,149.97 549.71,151.09C558.47,154.33 567.26,149.28 570.78,141.42C575.27,131.38 572.41,115.72 569.35,108.85C569.55,108.75 569.76,108.65 569.96,108.54C583.01,130.91 574.59,120.98 584.52,143.66C586.44,148.04 590.12,151.19 592.36,155.98C592.06,159.93 591.67,164.46 591.27,169.01C591.68,168.48 598.49,142.75 600.1,129.31C600.49,126.05 602.04,123.71 604.99,122.39C610.18,120.05 615.27,117.19 620.87,115.98C644.62,110.84 644.02,94.94 659.14,87.89C680.02,78.15 681.92,47.07 683.77,56.34C687.43,69.08 704.63,77.2 716.85,63.06C726.92,51.42 729.2,32.55 723.32,21.08ZM564.63,101.39C563.92,100.58 564.02,100.17 564.73,99.66C565.54,100.27 565.34,100.78 564.63,101.39ZM572.67,54.97C573.48,54.36 574.2,54.05 575.72,54.36C574.3,55.58 573.48,55.18 572.67,54.97ZM580.61,27.18C579.31,30.05 578.52,30.69 578.07,27.49C578.78,26.88 579.59,26.88 580.61,27.18ZM573.59,20.87C574.71,22.19 573.59,22.6 572.67,23.92C572.67,22.3 572.57,21.48 573.59,20.87ZM561.17,32.48C562.19,32.68 563.21,32.99 563.82,34.31C560.53,33 560.67,33.47 561.17,32.48ZM560.25,29.83C560.45,30.64 559.94,30.75 559.64,31.15C559.13,30.24 559.54,30.03 560.25,29.83ZM559.03,23.93C558.42,25.15 557.6,25.86 556.38,26.07C555.98,23.83 557.3,23.72 559.03,23.93ZM551.29,22.2C551.51,22.42 550.71,23.44 550.37,22.1C550.68,21.79 550.99,21.89 551.29,22.2ZM531.24,44.79C532.16,46.52 530.43,47.64 530.73,49.07C530.32,47.64 529.82,46.22 531.24,44.79ZM530.83,54.87C533.58,55.07 533.68,55.38 533.78,59.15C532.56,57.82 530.63,57.11 530.83,54.87ZM544.07,40.72C545.7,41.74 544.99,42.45 543.87,43.26C543.35,42.25 543.56,41.54 544.07,40.72ZM542.44,24.84C543.05,25.65 542.54,26.06 540,26.77C540.81,25.66 541.52,25.05 542.44,24.84ZM543.66,31.46C543.46,33.6 541.62,34.51 539.79,36.45C540.2,33.29 542.34,32.78 543.66,31.46ZM538.98,46.52C539.18,48.15 538.47,48.56 537.45,48.86C536.84,47.34 537.86,47.03 538.98,46.52ZM533.99,47.85C534.5,46.83 534.7,45.92 536.23,46.42C535.72,47.24 535.31,47.75 533.99,47.85ZM528.93,30.89C531.85,30.16 530.67,29.97 532.77,32.07C533.79,32.68 534.7,31.36 535.72,32.07C536.13,32.99 535.52,33.39 534.8,34.11C532.66,32.48 530.42,32.79 528.39,34.92C527.98,33.29 529.51,32.99 529.51,31.76C529.31,31.05 528.19,31.35 527.78,30.84C528.18,30.96 528.55,30.95 528.93,30.89ZM528.49,62.4C527.47,60.97 525.44,59.65 527.78,57.51C529,57.82 529.41,58.63 530.02,59.34C529.71,60.37 528.49,61.08 528.49,62.4ZM520.45,568.81C519.96,569.79 519.43,569.17 519.43,568.81C519.43,568.14 520.29,568.14 520.45,568.81ZM519.74,566.06C518.62,567.08 518.42,565.86 517.5,565.65C518.72,564.94 519.43,565.04 519.74,566.06ZM500.6,539.69C515.95,535.09 512.31,537.86 512.92,538.88C514.04,539.29 514.14,537.76 515.36,537.96C515.36,542.34 513.32,546.41 513.02,550.89C509.25,551.2 505.59,551.2 501.82,552.21C501.31,565.52 505.07,558.45 518.21,562.39C513.63,562.59 509.15,561.47 504.67,562.49C504.87,564.53 506.91,564.22 507.32,565.65C507.83,566.57 506.2,567.38 506.81,568.91C511.19,571.15 516.07,571.56 521.37,570.44C523.3,573.7 524.32,577.46 526.05,581.03C526.56,581.13 526.15,580.42 526.97,580.11C527.89,582.25 528.5,584.59 528.9,587.44C517.91,588.56 506.91,592.02 496.23,585.81C496.03,582.86 494.18,580.23 491.95,578.18C488.77,575.25 487.96,569.51 490.83,566.27C494.39,562.25 491.75,560.57 491.75,558.84C491.95,557.11 492.56,555.38 492.46,553.75C491.8,542.91 493.11,552.79 497.85,549.88C501.46,547.66 500.6,545.99 500.6,539.69ZM510.48,554.55C511.7,553.43 512.82,553.63 513.94,553.94C513.94,555.28 514.46,554.55 510.48,554.55ZM494.7,540C495.92,538.98 497.04,538.47 498.36,538.57C499.68,544.17 499.07,547.02 495.1,547.73C493.47,547.12 494.08,545.29 492.86,544.07C495.21,543.46 494.09,541.53 494.7,540ZM574.5,530.94C580,530.02 585.29,528.19 590.79,529.31C587.43,532.16 582.75,529.62 579.39,532.16C579.08,534.6 580.71,535.82 581.63,537.45C581.63,538.77 581.02,539.99 580.41,541.52C578.88,540.09 577.16,541.81 575.52,541.01C573.6,540.07 574.2,538.36 573.99,536.94C569.79,537.55 574.79,534.43 574.5,530.94ZM609.21,556.59C607.89,556.28 606.56,555.98 605.24,555.67C607.58,554.05 607.58,554.05 609.21,556.59ZM599.95,553.03C599.03,553.13 598.52,553.13 598.02,553.34C598.42,552.72 598.93,552.72 599.95,553.03ZM598.32,542.44C598.86,543.53 598.26,543.39 597.2,543.15C597.81,542.85 598.12,542.65 598.32,542.44ZM594.55,533.28C596.38,535.52 595.16,538.27 597.3,540.51C593.84,540.1 591.07,538.85 588.34,540.61C587.11,541.41 588.24,542.34 588.03,543.15C586.5,544.07 584.26,542.03 582.94,544.17C583.75,546.71 585.99,545.8 587.62,546.21C587.52,547.64 585.18,547.13 585.48,549.06C587.31,550.99 589.96,549.57 592.2,550.08C592.51,550.89 591.18,551.61 592.3,553.13C593.73,554.35 596.07,552.72 597.9,553.23C597.8,554.55 595.36,554.66 595.97,556.49C597.4,557.92 598.72,556.08 600.04,556.39C602.99,559.85 606.66,558.32 610.52,557.92C613.47,563.21 619.78,566.16 622.02,572.48C619.98,575.74 617.34,577.36 613.67,578.18C606.79,579.73 589.71,581.8 589.04,574.72C588.55,569.57 580.12,570.85 576.83,570.04C570.41,568.46 569.7,568 565.43,562.2C566.75,559.86 567.88,557.31 567.06,554.26C566.41,551.85 571.74,548.84 571.34,540.72C573.27,544.49 576.22,544.79 579.58,543.77C582.63,542.85 582.63,540.21 583.24,537.97C582.83,536.34 581.2,535.63 580.9,533.39C585.6,533.79 590.18,533.18 594.55,533.28ZM592.42,543.26C592,543.05 591.71,543.52 591.71,543.06C592.19,543.05 592.16,543 592.42,543.26ZM490.02,281.56C493.59,289.64 497.37,314.67 494.19,333.98C493.3,339.36 492.26,340.29 487.78,340.49C492.06,319.42 490.73,298.86 483.81,278.6C487.06,277.69 488.54,278.22 490.02,281.56ZM496.84,302.83C493.58,294.18 493.48,285.63 496.94,276.77C501.31,285.22 501.21,300.08 496.84,302.83ZM499.48,313.62C498.87,314.23 498.16,314.23 497.04,313.82C497.04,302.15 496.63,304.96 499.08,304.96C500.5,308.02 499.99,310.87 499.48,313.62ZM487.98,326.14C487.98,325.73 487.98,325.33 488.08,325.02C488.08,326.31 488.13,326.14 487.98,326.14ZM488.08,314.33C488.08,313.92 488.08,313.62 488.18,313.31C488.18,313.62 488.08,313.92 488.08,314.33ZM486.02,293.74C485.89,293.19 485.37,292.7 486.05,291.94C485.96,292.61 485.96,293.2 486.02,293.74ZM486.45,295.7C486.35,295.09 486.14,294.58 485.94,294.17C486.45,294.48 486.86,294.89 486.45,295.7ZM483.91,339.47C484.52,339.06 485.13,338.66 485.64,338.25C485.44,339.17 485.54,340.7 483.91,339.47ZM484.11,337.74C483.8,338.05 483.91,338.86 483.91,339.37C476.15,333.16 474.43,276.05 481.16,279.42C482.18,280.74 480.24,280.23 480.35,281.25C486.99,288.39 490.11,331.03 484.11,337.74ZM548.44,367.87C549.15,369.09 549.46,370.31 549.56,371.43C548.65,370.52 546.41,370.01 548.44,367.87ZM575.93,257.64C577.66,257.84 578.98,258.05 580.82,258.25C578.89,258.66 579.5,260.49 578.38,261.1C577.67,260.69 578.28,259.88 577.77,259.37C576.34,258.76 576.85,261.81 575.02,260.8C574.7,259.77 575.62,258.96 575.93,257.64ZM509.05,159.41C508.44,160.02 508.13,158.19 506.91,159.21C506.2,173.56 508.13,188.53 502.02,202.57C500.8,201.86 501.71,199.52 499.58,199.01C498.46,200.33 499.26,201.66 499.58,202.88C502.56,214.07 509.03,261.81 512.41,274.13C513.94,279.73 516.33,285.04 518.42,290.42C519.21,292.46 521.06,293.69 522.9,294.7C527.47,297.21 526.75,299.93 528.4,308.65C528.94,311.49 529.31,314.14 526.57,316.39C525.45,317.3 525.25,319.44 524.64,321.07C523.11,321.48 521.69,321.88 520.26,320.56C521.58,317.91 524.54,316.28 524.64,313.03C521.38,316.69 519.14,321.58 512.53,320.87C514.57,323.21 516.5,323.01 518.43,321.58C519.55,322.19 520.47,322.8 521.38,323.31C532.33,322.94 524.99,309.19 532.88,334.1C533.78,336.95 535.53,337.95 538.27,338.27C544.18,338.95 546.65,337.67 547.94,331.86C548.57,329.01 550.99,327.99 552.72,326.16C550.99,325.55 550.48,327.48 548.95,327.28C549.79,315.58 550.29,275.51 538.47,275.16C537.25,270.68 536.94,266.2 535.93,261.83C534.34,263.82 535.01,265.14 537.25,274.55C535.72,276.18 533.48,275.87 531.55,277.2C532.06,271.3 532.16,265.7 531.35,260.1C528.91,265.6 530.93,271.3 530.33,276.9C529.71,282.7 526.97,288 527.17,294.1C518.32,291.72 518.73,285.85 513.63,265.8C513.22,264.17 514.04,262.95 514.14,261.52C513.94,260.71 512.61,261.01 512.72,259.89C513.74,258.67 515.26,259.69 516.49,259.38C515.94,255.69 511.4,261.05 511.81,254.9C580.99,256.27 573.68,256.68 573.29,260.6C571.36,261.41 570.54,260.29 569.83,258.77C566.11,263.88 565.45,253.59 565.45,260.6C566.37,261.92 567.89,261.62 568.81,262.43C569.83,264.77 567.89,268.03 570.95,270.17C572.47,266.21 568.94,261.58 574.21,262.54C574.01,267.53 578.99,268.24 581.44,271.29C580.63,268.03 577.16,266.1 576.66,262.74C578.39,261.72 579.82,262.94 581.55,262.54C581.96,261.32 582.47,260 582.98,258.67C585.04,269.36 592.01,275.99 595.91,311.3C597.98,330.11 597.94,329.76 599.37,330.33C601.19,331.06 605.43,362.57 605.68,366.67C606.19,375.12 605.17,383.47 604.76,392.12C593.77,391.61 583.18,393.2 572.49,392.73C566.06,392.45 555.27,388.22 550.91,388.05C550.9,387.95 548.96,371.56 548.87,371.46C549.93,370.4 550.86,381.02 553.04,384.79C550.93,364.49 543.69,363.12 550.29,362.29C553.14,367.28 555.07,372.57 557.82,377.66C554.5,360.6 545.04,368.91 555.68,331.35C551.81,336.85 549.59,343.14 548.25,349.67C547.71,352.31 546.22,354.56 545.71,357.2C541.07,381.26 545.88,373.11 539.81,389.06C522.3,391.3 504.59,391.2 486.68,392.22C488.61,385.6 488.61,379.29 487.19,372.78C485.91,366.89 486.46,362.61 488.51,342.04C498.66,342.04 495.97,327.8 497.26,316.8C498.18,316.49 499.1,316.59 499.4,317.21C501.19,320.95 504.97,320.74 508.05,321.79C509.97,322.44 511.69,321.98 512.73,319.86C513.33,318.63 514.77,318.03 515.27,316.09C512.73,316.8 511.91,319.14 510.08,320.37C508.55,320.17 506.72,320.57 505.19,319.45C505.6,318.02 507.23,317.31 507.43,315.38C505.5,315.99 504.99,317.82 503.56,318.54C501.52,317.93 500.23,317.12 501.12,314.37C503.87,305.83 498.82,303.54 501.22,294.93C503.54,286.62 498.82,280.84 501.22,278.24C498.86,276.86 500.89,279.24 488.7,254.22C484.33,245.26 481.01,236 480.76,225.82C480.67,222.26 477.8,218.59 479.03,215.34C480.95,210.25 478.86,205.47 479.34,200.58C480.4,189.76 473.14,185.26 473.44,175.34C480.75,177.63 477.92,179.55 480.46,180.73C480.87,178.08 476.9,171.87 472.83,168.72C471.51,161.8 476.39,156.2 476.49,149.28C478.02,149.69 478.02,151.62 479.95,152.03C478.02,147.35 477.2,142.67 476.08,138.08C474.35,140.62 476.18,143.27 475.47,146.22C473.13,140.93 474.63,136.04 475.27,131.26C476.35,123.11 481.97,118.39 489.01,115.69C495.7,113.12 496.88,110.81 513.64,102.86C522.64,137.85 521.49,149.77 509.05,159.41ZM530.32,316.16C531.64,314.41 537.26,316.93 537.55,310.15C537.7,306.58 537.04,303.02 535.72,299.67C533.68,299.36 531.65,300.08 529.41,299.16C529.1,291.93 529.1,284.81 533.89,278.19C545.4,290.47 542.29,373.83 530.32,316.16ZM536.84,277.69C548.51,273.8 550.11,319.59 546.41,332.55C545.39,336.11 544.27,336.83 540.4,336.83C544.47,316.98 543.56,297.33 536.84,277.69ZM535.21,301.81C536.23,305.37 536.33,308.63 535.92,311.99C534.39,313.01 532.66,312.19 531.03,313.42C530.04,299.52 527.2,302.66 535.21,301.81ZM641.68,38.58C641.68,0.63 682.12,-15.28 682.29,26.37C682.47,66.86 641.68,77.22 641.68,38.58ZM669.98,75.33C662.37,82.03 663.98,82.02 661.94,82.96C645.03,90.83 640.8,108.3 619.09,113.7C614.2,114.92 609.53,117.17 604.94,119.3C601.18,121.04 598.84,123.68 598.12,127.95C593.42,155.74 594.93,121.25 597.71,110.24C596.59,110.55 596.39,112.99 594.15,111.77C590.88,144.81 597.29,137.89 593.13,151.57C574.95,126.04 587.44,122.82 566.56,99.86C577.25,95.02 590.33,80.87 608.09,85.91C607.48,90.29 602.49,92.32 602.8,97.01C616.19,78.26 621.32,73.19 631.91,73.09C642.85,72.98 633.65,69.12 645.45,57.62C649.52,62.81 655.32,65.29 661.63,66.17C668.55,67.13 673.64,63.12 678.43,58.64C676.8,64.85 675.02,70.9 669.98,75.33ZM660.82,64.64C681.89,58.02 690.85,21.48 676.8,4.89C698.25,16.81 684.27,67.68 660.82,64.64ZM690.34,64.95C679.22,55.44 687.18,44.72 690.54,34.92C691.88,31.01 688.15,24 689.01,21.08C692.17,21.79 692.17,21.79 696.44,31.16C695.01,33.5 694.01,36.25 693.59,39.1C692.65,45.48 689.13,44.3 686.77,45.72C689.21,47.35 691.05,46.64 694.61,42.67C699.54,46.53 703.94,37.03 700.92,34.12C695.89,29.27 696.87,24.38 692.17,20.07C702.05,3.48 721.52,12.47 720.16,36.97C718.99,58.05 702.35,75.22 690.34,64.95ZM697.46,34C700.94,36.46 698.95,41.66 694.92,40.82C695.83,38.38 696.14,36.04 697.46,34ZM700.41,69.33C721.18,61.49 727.67,30.65 715.27,14.97C735.18,27.06 722.46,71.63 700.41,69.33Z" style="fill-rule:nonzero;"/>
        <path d="M311.48,274.74C312.28,265.08 322.68,247.95 319.52,230.36C318.8,226.37 323.85,221.53 320.44,215.5C312.11,200.81 324.9,193.82 317.18,176.62C312.57,166.34 318.2,154.11 314.43,143.33C311.98,136.31 302.52,124.34 295.09,123.58C289.92,123.05 286.19,119.57 285.01,119.41C275.98,118.12 273.58,110.45 268.42,108.82C269.03,106.58 268.42,103.63 270.76,103.12C274.53,102.3 275.11,99.65 276.05,96.81C277.44,92.62 279.9,88.77 279.82,84.09C279.66,75.52 284.97,75.55 280.33,65.97C280.49,68.48 277.74,87.97 274.83,95.69C271.34,104.96 266.09,100.49 258.85,101.7C261.19,104.75 264.45,102.92 267.3,104.35C265.47,109.95 265.77,115.65 267.1,121.76C270.26,119.11 268.93,115.86 269.03,113.01C273.74,113.87 282.55,159.46 258.85,156.98C259.16,154.64 259.56,152.3 258.04,150.06C257.73,152.3 257.43,154.54 257.02,156.98C250.4,154.84 243.68,153.12 240.33,146.6C231.04,128.52 236.16,133.61 228.01,114.13C224.35,105.36 226.25,106.08 230.05,104.97C232.99,104.11 235.77,102.43 235.85,99.07C235.98,93.57 237.85,88.27 236.97,82.78C236.59,80.43 235.95,77.69 238.29,75.45C236.56,75.04 234.73,74.94 234.93,72.7C235.74,72.5 236.66,73.01 237.58,71.68C237.89,70.56 237.17,68.73 238.5,67.3C239.62,68.73 239.82,70.35 239.93,71.88C241.25,71.68 241.67,70.66 241.97,69.74C244.3,62.43 250.76,50.24 251.54,50.4C254.28,50.96 254.9,48.47 256.73,47.75C256.12,46.43 255.61,45.31 255.1,44.29C254.08,43.58 252.35,44.6 251.94,42.56C253.47,41.03 254.48,42.87 255.71,43.17C257.44,43.59 257.54,45.51 258.66,46.33C259.88,45.82 258.86,44.69 259.68,44.4C265.96,42.16 272.3,46.44 279.12,43.48C278.2,48.98 280.85,53.46 281.16,58.24C272.81,61.7 271.8,63.23 273.42,68.62C274.13,67.7 273.52,66.38 274.54,65.46C275.56,65.36 276.58,65.87 277.7,65.46C278.72,65.15 279.74,64.75 280.86,64.44C281.67,61.49 283.63,58.53 282.69,55.79C281.19,51.4 281.47,46.93 280.55,42.96C282.38,39.7 285.84,39.09 288.29,36.65C287.58,35.53 288.19,34.31 288.29,33.09C286.86,32.07 285.34,33.09 283.91,32.48C284.42,30.95 286.76,31.36 286.86,29.53C284.62,28.31 284.62,28.41 281.26,30.24C281.06,28 282.07,25.66 280.55,23.62C279.02,24.43 278.51,26.16 276.89,26.57C273.85,23.33 269.19,27.79 266,27.18C261.51,26.32 257.25,27.18 253.07,26.87C251.64,27.68 251.54,29.92 249.51,29.52C249,28.71 250.12,27.38 248.39,26.98C246.05,29.73 243.1,31.76 239.03,31.76C237.4,30.74 236.08,28.4 233.43,29.52C233.12,31.35 234.96,31.76 235.36,32.98C233.85,34.69 232.55,36.5 233.01,39C232.64,38.68 232.26,38.6 231.8,38.79C231.9,41.03 231.09,42.76 229.87,44.59C228.65,46.42 229.34,48.96 228.24,51C223.19,60.35 231.22,65.28 229.16,71.05C228.94,71.66 229.68,72.67 230.08,73.39C232.85,78.47 231.9,82.67 234.05,87.13C236.17,91.52 232.52,99.75 228.35,102.19C221.93,105.95 214.52,107.51 208.2,111.55C187.92,124.52 180.96,118.03 176.85,147.18C176.35,150.74 175.86,154.7 177.16,158.48C177.97,160.85 172.5,166.92 173.7,180.36C175.59,201.67 179.37,195.19 180.93,206.21C182.2,215.2 180.56,221.44 180.93,222.9C184.41,236.65 180.43,245.42 192.43,266.57C199.69,279.36 199.61,279.8 197.01,288.35C195.38,287.03 194.77,285.19 192.84,284.48C187.55,282.54 182.44,285.29 181.44,291.5C179.38,304.28 178.59,344.91 190.4,350.03C189.76,362.82 186.72,374.99 190.3,387.49C191.47,391.57 187.7,388.14 188.37,403.47C198.23,398.74 193.89,406.92 196.92,416.91C201.46,431.88 192.89,430.91 189.29,455.18C187.67,466.09 185.48,463.47 193.97,513.81C197.13,532.52 195.4,539.73 197.63,548.83C197.83,549.65 197.74,550.26 197.43,550.97C195.23,555.98 196.62,561.66 194.68,566.75C193.87,568.36 197.44,568.86 194.07,574.38C187.36,585.4 198.59,588.24 198.35,591.68C197.55,603.05 233.71,600.88 236.52,596.06C235.67,592.56 221.91,562.47 221.86,562.37C222.17,561.45 223.31,562.57 223.18,561.45C223.01,559.92 220.84,559.72 220.53,557.89C221.55,552.39 225.11,546.59 220.12,541.81C218.49,541.1 217.47,541.91 216.46,541.2C214.88,535.19 218.4,513.56 220.23,508.63C228.49,486.37 229.12,472.34 228.47,461.4C227.18,439.42 227.58,440.2 226.22,440.2C225.4,445.25 227.75,465.84 226.64,474.64C224.26,493.41 222.42,492.25 216.77,513.73C215.75,504.98 216.87,496.53 216.16,488.08C214.23,492.86 214.12,497.85 214.84,502.64C217.01,517.1 212.21,527.4 215.55,541.22C212.5,542.44 209.44,542.54 206.39,542.95C205.87,541.57 205.1,527.69 204.46,543.15C202.93,544.37 201.41,544.47 199.47,544.07C199.47,524.52 196.45,515.25 195.7,507.63C190.56,455.43 190.48,490.05 192.54,453.99C192.96,446.66 196.22,440.56 198.14,433.84C201.81,420.99 199.48,415.36 197.94,404.52C203.09,400.23 215.58,403.87 234.99,400.35C235.6,400.24 236.21,400.35 237.13,400.35C228.27,423.62 233,430.85 225.32,437.6C223.91,438.84 222.57,440.35 221.76,442.59C227.67,441.41 233.26,428.34 233.26,419.89C233.26,413.85 235.39,417.1 239.88,401.57C241.2,401.57 241.61,399.97 243.14,399.74C254.25,398.07 248.58,388.37 253.62,381.21C254.64,385.59 253.92,389.56 254.13,393.53C254.61,402.93 256.37,398.42 261.05,400.76C260.83,411.58 265.75,423.15 265.94,425.39C268.11,450.92 259.33,458.88 267.47,479.85C267.6,480.1 266.82,476.7 273.27,511.3C277.94,536.37 274.31,535.17 276.83,536.54C285.84,526.47 261.22,478.21 268.08,441.67C272.84,416.28 258.53,406.74 265.23,401.16C306.63,408.49 295.8,399.3 300.86,406.05C300.76,405.13 300.66,404.22 301.78,403.71C302.09,404.83 300.86,405.14 300.86,406.05C295.2,413.97 299.98,418.62 294.14,429.26C294.95,429.67 295.67,430.18 295.67,431.3C293.33,433.95 293.43,437.31 293.63,441.38C296.33,433.28 295.93,429.59 298.21,445.15C302.18,472.23 297.78,470.72 297.4,490.34C297.12,504.69 294.86,518.94 294.75,533.3C290.58,532.28 286.71,534.73 282.54,534.52C282.13,531.26 282.85,528.11 281.52,525.26C280.4,528.42 280.91,531.67 280.6,534.83C279.38,535.95 277.34,535.64 276.32,537.68C276.01,538.09 277.03,538.9 276.63,539.92C270.33,544.82 274.46,546.85 272.76,552.44C271.52,556.51 268.57,560.05 269.6,564.76C269.97,566.45 266,568.77 267.87,570.87C270.32,573.61 272.15,577.25 276.01,578.5C288.06,582.41 286.44,578.89 290.87,581.96C292.4,587.35 293.92,588.84 299.32,589.39C306.61,590.13 322.22,591.18 325.17,583.89C329.55,582.97 329.86,582.36 329.04,578.6C328.24,574.93 325.68,572.7 323.24,570.15C318.86,565.57 315.5,560.18 310.92,555.8C305.93,551.02 302.78,545.52 302.78,538.5C301.56,536.97 299.62,538.09 298.1,537.07C297.9,533.3 297.1,529.44 297.49,525.67C298.8,513.1 300.01,484.35 300.85,480.78C306.51,456.79 297.34,430.5 298.1,429.48C301.26,425.82 300,421.34 299.73,417.37C299.37,412.08 302.38,408.01 302.99,403.42C306.25,402.5 309.2,403.73 312.35,402.71C317.13,352.4 302.45,326.32 308.18,330.13C316.87,337.04 331.6,336.9 337.48,323.29C335.9,326.43 331.94,332.34 324.87,333.39C342.58,321.58 339.32,286.77 322.53,276.8C337.78,280.29 342.83,300.64 340.04,315.14C344.32,295.05 332.87,270.26 311.48,274.74ZM278.6,62.51C279.31,62 279.82,61.9 280.74,62.31C280.13,63.52 279.52,63.12 278.6,62.51ZM286.13,34.72C285.93,36.04 285.21,36.76 284.6,37.47C283.49,35.43 283.49,35.43 286.13,34.72ZM278.9,28.51C280.02,29.94 279.21,30.55 278.09,31.46C277.89,30.14 278.19,29.42 278.9,28.51ZM270.35,42.05C268.42,41.95 267.3,41.64 266.07,40.22C267.81,40.42 268.83,41.03 270.35,42.05ZM263.43,40.11C262.92,40.11 262.62,39.8 262.72,38.99C264.21,38.78 264.5,40.38 263.43,40.11ZM264.55,31.87C264.14,33.19 262.82,33.4 261.9,34.82C262.11,31.97 262.11,31.97 264.55,31.87ZM249.69,48.56C251.22,49.58 250.3,50.29 249.18,51.31C248.98,50.19 248.88,49.37 249.69,48.56ZM248.16,32.78C247.85,34.1 247.24,34.61 246.02,34.41C246.33,33.29 247.04,32.88 248.16,32.78ZM249.18,38.99C248.67,41.33 248.57,41.53 245.31,43.47C246.13,41.13 247.76,40.21 249.18,38.99ZM244.7,51.72C244.8,52.23 244.6,52.53 244.09,52.64C243.99,52.12 243.89,51.61 244.7,51.72ZM244.3,54.46C245.01,55.99 243.79,56.19 243.08,57.31C242.36,55.28 243.18,54.97 244.3,54.46ZM243.18,64.34C243.38,64.95 243.18,65.36 242.37,65.77C242.46,64.85 242.57,64.44 243.18,64.34ZM236.56,52.63C237.78,54.26 235.85,55.38 236.15,56.7C235.75,55.28 235.24,53.95 236.56,52.63ZM236.36,62.1C239.11,62.51 239.11,64.34 239.31,66.38C237.27,65.46 236.15,64.44 236.36,62.1ZM241.65,54.06C241.65,55.38 240.53,55.28 239.41,55.99C240.02,54.67 240.02,53.55 241.65,54.06ZM234.3,39.03C234.89,38.7 235.53,38.38 236.25,37.97C237.47,39.5 238.9,40.72 240.83,39.7C241.54,40.82 240.63,41.13 240.52,42.24C238.08,40.41 235.94,40.81 234.01,42.44C232.48,41.32 236.76,40.2 233.81,39.28C234.53,38.87 234.41,39.07 233.08,39.07C233.51,38.95 233.91,38.95 234.3,39.03ZM234.02,70.14C232.7,68.61 231.17,67.29 233,65.66C234.43,65.46 234.83,66.47 235.44,67.09C235.34,68.41 233.71,68.71 234.02,70.14ZM225.16,573.69C224.45,574.71 223.94,574.1 223.12,573.59C224.24,572.37 224.65,572.98 225.16,573.69ZM200.02,548.14C201.24,546.82 202.36,546.31 203.79,546.61C205.11,552.31 204.4,554.96 200.53,555.57C197.07,553.13 200.63,550.48 200.02,548.14ZM203.07,557.71C208.2,554.5 204.82,552.74 206.33,547.33C209.3,546.14 215.82,544.89 217.43,544.89C218.65,545.3 217.74,546.21 218.35,546.52C219.37,546.72 219.57,545.3 220.79,545.6C220.69,549.88 218.75,553.95 218.45,558.32C214.68,558.93 210.82,558.73 207.25,559.85C206.46,571.3 210.14,567.32 216.41,569.01C218.75,569.64 221.4,567.89 223.94,570.13C220.49,570.99 214.57,568.62 210.2,569.93C209.89,572.27 212.24,571.86 212.64,573.19C213.25,574.31 211.52,575.12 212.33,576.75C216.71,578.99 221.69,578.99 227.09,578.28C233.09,592.43 230.95,588.03 232.48,587.64C233.4,589.88 234.21,592.22 234.41,595.17C220.17,596.05 218.53,599.88 201.94,593.85C201.53,590.69 199.91,587.94 197.56,585.81C194.2,582.75 193.48,577.15 196.54,573.7C198.17,571.86 198.29,570.23 197.76,568C196.88,564.33 198.17,560.37 197.96,556.4C199.61,557.61 200.94,559.04 203.07,557.71ZM219.56,562.6C218.13,562.4 216.61,562.19 215.18,561.99C216.71,561.78 218.34,560.97 219.56,562.6ZM279.82,538.57C285.62,537.65 290.92,536.03 296.51,536.74C293.25,539.9 288.57,537.35 285.11,539.79C284.5,542.23 286.43,543.45 287.35,545.39C286.84,546.51 286.43,547.73 286.03,549.05C279.62,548.24 279.62,548.24 279.31,544.67C278.8,544.67 278.39,544.77 277.88,544.77C277.89,542.44 280.64,541.22 279.82,538.57ZM314.33,564.43C313.11,564.12 311.89,563.82 310.46,563.51C312.8,562.09 312.8,562.09 314.33,564.43ZM299.98,540.81C301.91,543.05 300.79,545.7 302.42,547.83C301.37,547.92 291.23,545.63 293.56,550.68C291.83,551.39 290.1,550.17 288.57,551.49C288.98,554.03 291.32,553.32 292.95,554.03C292.64,555.05 290.91,554.95 291.12,556.68C292.75,558.72 295.4,556.88 297.53,557.9C298.09,559.21 294.52,561.06 303.84,560.85C303.23,562.07 301.3,562.17 301.3,564.01C302.62,566.05 304.15,563.6 305.98,564.52C307.61,566.35 310.56,566.76 315.96,565.33C318.91,570.83 325.43,573.78 327.56,579.99C325.42,583.65 322.37,585.17 318.6,585.89C311.1,587.34 295.57,589.29 294.27,581.72C293.03,574.47 278.8,582.97 270.96,569.71C275.21,563.03 270.61,562.14 274.01,558.31C276.45,555.56 276.45,552.2 276.86,548.64C278.39,549.76 279.2,552.01 281.34,551.9C286.21,551.65 287.8,551.46 288.77,545.28C288.36,543.85 286.63,543.24 286.63,541.21C291.22,541.53 295.7,540.81 299.98,540.81ZM297.74,550.89C297.23,550.89 296.82,550.89 296.21,550.79C296.82,550.28 297.43,550.59 297.74,550.89ZM297.02,127.55C304.55,130.2 314.47,140.88 314.32,153.4C314.24,159.81 313.97,166.22 314.32,172.64C314.75,180.47 321.3,183.64 317.07,197.88C312.74,212.46 323.47,216.99 319.41,225.26C316.55,231.09 320.33,229.11 317.27,250.2C315.67,261.21 309.9,262.32 309.53,289.8C309.5,291.83 306.08,298.78 310.34,306.39C311.65,308.74 309.83,311.17 309.93,313.52C308,314.44 305.96,313.93 304.23,316.06C303.93,312.86 304.52,299.81 298.43,289.7C295.56,284.94 300.52,280.12 297.82,264.05C292.76,233.97 301.36,232.89 299.75,226.29C288.7,239.29 296.87,258.84 296.09,276.17C290.33,265.87 296.01,265.87 291.92,262.53C287.53,258.94 291.67,225.33 292.33,213.98C294.98,218.46 296.3,222.84 297.01,227.42C298.64,224.26 297.93,220.9 296.81,218.16C286.53,192.95 299.78,180.03 302.92,171.34C304.45,171.03 303.73,173.07 304.85,173.07C305.9,173.25 305.89,171.22 305.77,171.03C301.94,162.96 307.51,152.68 303.63,149.35C302.1,158.1 302.1,166.65 298.03,174.19C295.89,174.6 295.87,172.58 295.08,171.54C288.4,162.8 291.03,159.06 288.46,152.51C284.46,142.27 285.65,138.8 280.32,120.85C285.83,124.09 291.53,125.62 297.02,127.55ZM288.98,266.69C291.83,272.08 295.29,277.28 295.49,284.6C290.4,279.82 284.39,277.17 282.56,270.55C284.6,269.53 286.22,271.26 287.95,270.55C287.86,269.14 288.37,267.92 288.98,266.69ZM283.89,268.93C283.08,268.73 283.79,267.71 283.08,267.1C281.96,267.3 282.16,268.93 280.84,269.03C279.82,267.71 281.15,266.79 281.25,265.67C283.08,265.36 284.71,265.67 286.64,266.08C284.4,265.88 285.11,268.02 283.89,268.93ZM283.69,276.26C281.35,276.87 279.62,276.57 277.68,276.36C276.23,270.57 277.56,270.13 280.12,270.56C280.33,272.7 280.94,274.74 283.69,276.26ZM287.76,284.61C298.03,295.93 301.12,321.29 289.49,335.1C281.07,345.1 269.04,340.17 263.53,330.11C246.09,298.27 269.5,264.47 287.76,284.61ZM283.99,279.42C304.71,280.03 311.34,337.26 285.62,340.6C303.84,328.79 301.91,291.53 283.99,279.42ZM224.04,107.5C227.01,105.27 227.11,132.23 243.48,155.65C244.4,155.55 243.89,154.84 244.29,154.33C269.82,171.06 285.51,148.35 275.64,118.91C274.91,116.74 274.92,117.39 275.23,116.77C279.8,116.77 284.34,168.25 297.42,176.01C296.81,178.25 294.88,179.98 294.06,182.32C292.13,181.71 290.9,182.83 289.48,183.75C290.6,184.77 291.82,183.75 292.74,184.46C288.77,203.19 289.99,222.43 287.24,241.36C284.89,243.17 278.5,242.58 287.24,243.09C287.04,249.2 287.95,255.2 288.26,261.82C264.64,258.87 241.13,261.21 217.62,260.39C214.8,253.51 214.97,241.48 213.96,237.18C228.02,236.83 234.46,238.36 213.35,235.96C213.15,228.43 212.13,221.1 209.07,214.18C211.11,208.38 213.55,203.39 214.67,202.78C213.35,198.2 214.87,193.82 215.18,189.65C216.3,188.73 217.01,190.06 217.62,189.65C212.94,183.54 216.91,176.72 215.79,170.51C241.8,151 218.94,110.55 224.04,107.5ZM195.54,289.39C199.4,298.03 203.44,321.22 199.92,341.3C198.69,348.32 196.84,348.41 192.79,348.02C197.78,332.96 195.84,301.91 188.82,286.34C192.69,285.53 194.03,286.03 195.54,289.39ZM202.56,311.38C198.79,300.39 198.79,295.3 202.15,285.02C206.02,290.01 207.37,303.37 202.56,311.38ZM202.97,322.17C202.32,320.54 202.46,319.52 202.46,312.7C205.62,311.99 205.22,314.53 205.51,316.16C206.05,319.21 205.11,321.36 202.97,322.17ZM193.71,332.45C193.71,333.79 193.55,333.37 193.4,333.37C193.4,332.35 193.51,332.45 193.71,332.45ZM193.5,321.05C193.61,321.25 193.61,321.46 193.5,321.05ZM191.37,299.37C191.37,299.57 191.35,300.57 191.06,300.29C191.06,299.88 190.96,299.57 191.37,299.37ZM187.19,343.34C183.52,333.19 180.56,309.79 183.53,292.95C184.69,286.37 187.51,286.04 187.81,288.67C187.1,288.87 186.59,287.75 185.98,288.47C185.98,290.74 193.85,292.79 192.6,336.01C192.55,337.83 191.06,346.1 190.87,345.17C190.26,344.86 189.55,344.46 188.94,344.15C189.65,345.07 189.04,347 190.98,346.59C190.96,348.23 189.16,348.77 187.19,343.34ZM311.17,392.61C310.77,395.05 311.27,397.5 310.66,400.04C277.4,398.42 296.42,404.23 262,396.99C260.48,396.67 258.95,395.87 257.11,396.07C253.01,365.62 256.38,388.2 259.25,392.51C257.62,386.61 257.93,380.09 254.06,374.8C254.26,375.92 254.47,377.14 254.77,378.36C252.84,377.65 252.84,377.65 254.06,374.8C254.76,375.5 253.64,372.07 253.86,371.64C254.37,370.21 255.59,370.72 256.2,370.01C259.15,374.79 260.88,380.19 263.63,384.97C260.39,371.11 255.27,371.81 256.81,362.58C257.29,359.68 260.27,340.91 260.16,341.02C256.71,346.01 254.9,351.6 253.86,357.39C253.36,360.14 251.71,362.48 251.21,365.23C248.33,381.23 248.71,396.86 243.88,397.29C226.87,398.81 209.88,399.53 192.27,399.94C196.75,385.22 189.7,393.24 194.1,349.96C204.6,349.96 201.59,333.29 202.75,324C215.62,334.11 217.24,329.01 221.38,324C218.33,324.51 217.61,326.75 215.78,328.07C214.35,327.97 212.73,327.87 211.1,327.76C210.9,325.72 213.03,325.22 212.93,323.38C211.1,323.69 210.69,325.72 209.16,326.33C206.82,325.62 205.92,324.5 206.82,321.75C209.43,313.77 204.52,311.34 206.82,302.61C210.34,289.25 198.42,270.05 191.25,255.28C186.02,244.51 187.59,232.68 183.92,222.1C186.45,220.58 185.78,227.16 184.94,206.12C184.5,195.17 178.93,193.57 178.93,182.5C180.36,183.62 181.68,184.43 183.1,184.64C184.42,185.66 184.32,187.59 185.85,188.3C186.36,185.86 182.69,179.95 178.32,176.29C177,169.37 181.88,163.77 181.98,157.15C183.61,157.35 183.41,159.29 185.44,159.49C183.61,154.91 182.79,150.23 181.57,145.65C179.94,148.4 181.57,151.35 181.47,154.2C178.86,153.4 177.53,129.23 192.06,124.38C200.33,121.61 216,110.73 219.44,110.94C227.39,145.39 227.91,156.89 214.66,167.13C213.95,167.33 213.74,165.81 212.62,166.82C211.91,181.27 213.84,196.24 207.73,210.28C206.61,209.36 207.12,207.43 205.59,206.51C204.16,207.63 204.96,208.96 205.28,210.17C210.23,228.61 212.27,266.53 224.52,298.42C226.19,302.78 231.69,301.71 232.76,307.07C237.03,328.39 232.94,317.93 230.72,328.55C228.99,329.26 227.56,329.47 226.14,328.14C227.57,325.6 230.42,323.86 230.52,320.51C227.26,324.17 224.92,329.06 218.71,328.55C221.46,330.69 221.46,330.69 224.31,329.26C228.08,331.5 230.93,331.7 234.18,326.82C236.24,329.4 235,331.32 239.17,342.39C240.31,345.43 242.11,346.05 247.92,345.75C255.97,345.34 250.45,338.07 259.12,333.74C255.04,332.77 254.99,338.75 255.15,331.09C255.38,320 255.69,283.56 244.67,282.94C243.35,278.36 243.04,273.78 242.02,269.4C239.88,273.88 243.55,278.05 243.04,282.53C241.61,283.65 239.58,283.55 237.65,284.77C237.96,278.87 238.36,273.27 237.85,267.47C233.86,268.8 237.96,280.65 235.92,287.62C234.6,292.1 233.38,296.68 233.27,301.67C228.28,300.35 225.76,297.08 224.62,292.71C217.88,266.86 219.89,273.18 220.34,269.5C220.24,267.97 218.71,268.58 218.91,267.46C219.83,266.03 221.35,267.36 222.57,266.85C222.06,264.2 220.13,266.54 218.7,265.42C218.19,264.91 217.68,264.1 218.09,262.47C286.42,265.19 279.97,262.97 279.37,268.37C277.33,269.08 276.62,267.76 276.01,266.44C275.09,266.85 275.4,268.17 274.18,268.17C272.65,268.17 272.75,266.54 272.04,265.42C271.43,266.64 271.53,267.66 271.84,268.58C275.39,272.13 275.3,265.75 275.3,276.42C255.46,281.53 253.5,306.06 259.93,325.69C262.84,334.58 260.13,340.87 260.13,340.97C263.33,338.23 261.06,334.4 262.17,330.37C267.95,340.48 298.91,359.9 276.52,342.48C274.95,337.78 293.98,352.62 302.88,322.63C305.2,324.8 314.16,374.3 311.17,392.61ZM242.67,344.87C237.58,338.66 238.09,331.03 235.65,324.41C237.09,321.77 242.6,324.77 242.98,318.3C243.2,314.53 242.57,310.97 241.05,307.51C239.01,307.2 236.98,307.82 234.84,307C234.53,299.77 234.53,292.75 239.32,286.03C247.64,293.07 249.12,336.43 242.67,344.87ZM246.54,285.63C255.18,299.29 254.44,331.43 252.04,339.78C250.84,343.93 250.11,344.56 245.83,344.77C255.56,298.21 234.39,281.07 246.54,285.63ZM240.63,309.65C241.75,313.31 241.95,316.67 241.34,320.03C239.81,320.84 238.29,320.44 236.66,320.74C234.22,306.92 234.91,310.29 240.63,309.65ZM330.41,326.45C321.25,339.81 305.96,331.57 303.44,318.21C306.49,318.21 308.03,315.78 310.57,315.05C312.3,314.55 312,312.1 312.71,310.57C316.48,308.74 317.46,307.01 316.99,303.75C316.44,299.99 315.56,299.17 310.17,298.15C313.69,284.08 308.22,273.48 318.21,276.77C336.42,282.77 340,312.45 330.41,326.45ZM312.19,300.9C314.63,302.43 315.04,304.26 313.51,307.01C312.29,304.87 312.5,302.83 312.19,300.9Z" style="fill-rule:nonzero;"/>
        <path d="M337.94,321.97C337.78,322.42 337.6,322.85 337.42,323.27C338.31,321.49 338.45,320.6 337.94,321.97Z" style="fill-rule:nonzero;"/>
        <path d="M559.03,51.1C555.26,50.9 551.29,50.18 548.24,53.95C550.17,54.36 551.09,52.73 553.02,52.42C554.14,54.35 556.89,52.62 558.92,54.46C555.66,54.87 552.61,55.07 549.96,56.6C563.18,59.47 567.25,51.53 559.03,51.1Z" style="fill-rule:nonzero;"/>
        <path d="M268.73,62.1C266.9,57.62 258.55,57.21 253.67,62.1C257.33,59.45 260.69,60.98 264.05,62.3C261,62.81 257.94,62.91 254.69,64.64C260.28,65.86 264.86,65.86 268.73,62.1Z" style="fill-rule:nonzero;"/>
        <path d="M580.61,446.56C579.53,442 577.63,443.31 577.96,445.24C580.68,461.16 577.75,463.08 580.61,466.51C579.68,465.11 583.71,459.68 580.61,446.56Z" style="fill-rule:nonzero;"/>
        <path d="M283.89,451.44C282.33,452.69 284.64,451.79 284.81,472.71C284.82,473.42 285.32,473.73 285.93,473.93C288.07,463.15 287.35,454.6 283.89,451.44Z" style="fill-rule:nonzero;"/>
        <path d="M520.65,399.53C519.63,401.16 518.19,402.46 516.68,403.91C504.74,415.31 500.32,406.31 498.66,408.8C505.9,415 518.42,409.91 520.65,399.53Z" style="fill-rule:nonzero;"/>
        <path d="M242.97,89.48C241.85,85.82 240.22,82.25 240.43,78.28C236.77,81.64 240.84,85.2 239.92,88.66C250.57,98.01 263.8,102.78 242.97,89.48Z" style="fill-rule:nonzero;"/>
        <path d="M548.04,89.38C540.76,81.73 535.21,84.95 535.21,70.45C531.44,73.71 535.21,77.37 534.4,80.83C540.71,86.22 545.69,89.38 548.04,89.38Z" style="fill-rule:nonzero;"/>
        <path d="M498.77,429.56C498.77,426.37 493.4,432.83 493.27,437.4C493.33,437.3 497.81,428.87 498.16,430.27C497.66,435.99 493.85,438.52 493.99,442.48C494.18,447.87 495.52,453.37 493.89,458.87C496.43,455.41 496.43,451.64 495.72,447.88C493.76,437.46 502.68,429.07 498.77,429.56Z" style="fill-rule:nonzero;"/>
        <path d="M247.04,127.14C250.6,128.87 254.03,130.44 257.12,132.94C261.35,136.37 265.41,129.38 262.11,130.7C256.88,133.32 256.49,127.75 247.04,127.14Z" style="fill-rule:nonzero;"/>
        <path d="M551.7,123.17C548.65,120.42 544.78,120.01 541.11,119.1C544.57,121.14 548.41,122.29 551.7,125.21C554.02,127.27 557.3,125.82 558.01,122.97C556.66,122.4 553.5,124.79 551.7,123.17Z" style="fill-rule:nonzero;"/>
        <path d="M585.9,410.62C587.32,410 588.04,408.38 587.22,405.94C584.68,412.45 578.36,410.11 574.19,412.76C575.31,415.84 581.81,412.4 585.9,410.62Z" style="fill-rule:nonzero;"/>
        <path d="M508.03,432.31C506.4,427.12 505.59,421.93 508.54,416.74C503.96,419.18 503.66,427.01 508.03,432.31Z" style="fill-rule:nonzero;"/>
        <path d="M279.62,420.8C284.1,422.94 292.75,418.76 292.95,413.98C287.88,421.01 283.17,417.84 279.62,420.8Z" style="fill-rule:nonzero;"/>
        <path d="M585.29,449.51C585.29,443.23 591.03,442.19 589.46,436.18C588.24,441.47 582.44,444.93 584.07,451.14C584.99,450.93 585.29,450.22 585.29,449.51Z" style="fill-rule:nonzero;"/>
        <path d="M290.71,457.35C290.71,450.96 296.39,450.18 294.99,444.02C293.36,445.95 293.27,448.71 291.63,450.53C289.41,452.99 289.09,455.92 289.49,459.18C290.41,458.77 290.71,458.06 290.71,457.35Z" style="fill-rule:nonzero;"/>
        <path d="M267.1,92.84C269.85,93.96 272.29,93.55 274.84,92.53C274.13,89.78 271.99,89.99 270.36,89.88C268.62,89.68 267.5,90.8 267.1,92.84Z" style="fill-rule:nonzero;"/>
        <path d="M263.53,86.63C263.53,87.14 263.53,87.65 263.63,88.16C268.01,88.77 272.38,87.96 276.66,86.63C272.19,85.92 267.91,87.14 263.53,86.63Z" style="fill-rule:nonzero;"/>
        <path d="M569.31,84.7C568.6,82.05 566.66,82.2 564.93,82.05C561.52,81.76 558.47,88.03 569.31,84.7Z" style="fill-rule:nonzero;"/>
        <path d="M557.4,80.52C562.49,80.93 566.76,79.81 571.04,79.3C567.99,77.98 559.44,78.79 557.4,80.52Z" style="fill-rule:nonzero;"/>
        <path d="M250.4,110.04C252.03,112.99 250.71,116.76 253.25,119.4C252.24,116.25 253.66,112.38 250.4,110.04Z" style="fill-rule:nonzero;"/>
        <path d="M544.88,102.41C546.61,105.36 545.29,109.23 547.83,111.77C546.51,108.72 548.34,104.75 544.88,102.41Z" style="fill-rule:nonzero;"/>
        <path d="M249.49,103.83C247.56,100.67 246.44,97.01 243.48,94.47C244.91,97.93 246.64,101.29 249.49,103.83Z" style="fill-rule:nonzero;"/>
        <path d="M574.91,429.86C575.01,433.12 575.93,435.97 577.66,438.61C577.05,435.66 577.35,432.31 574.91,429.86Z" style="fill-rule:nonzero;"/>
        <path d="M279.82,437.6C280.33,440.96 281.45,443.71 282.87,446.46C282.87,441.57 282.06,439.13 279.82,437.6Z" style="fill-rule:nonzero;"/>
        <path d="M570.53,70.65C566.15,69.73 565.24,70.04 564.83,72.99C566.05,70.75 569.51,73.91 570.53,70.65Z" style="fill-rule:nonzero;"/>
        <path d="M543.46,95.28C542.03,92.12 540.51,89.07 538.07,86.73C539.49,89.89 540.71,93.04 543.46,95.28Z" style="fill-rule:nonzero;"/>
        <path d="M273,79.91C279.4,81.19 272.4,74.39 269.95,80.42C271.27,80.93 271.98,79.71 273,79.91Z" style="fill-rule:nonzero;"/>
        <path d="M272.19,410.93C275.14,412.05 278.2,412.66 281.45,412.05C278.29,411.85 275.34,410.42 272.19,410.93Z" style="fill-rule:nonzero;"/>
        <path d="M291.73,427.73C289.49,427.73 288.07,429.05 286.03,429.97C289.49,431.29 290.31,430.98 291.73,427.73Z" style="fill-rule:nonzero;"/>
        <path d="M566.66,403.09C569.71,404.41 572.87,404.62 576.13,404.62C572.97,404.01 570.02,402.58 566.66,403.09Z" style="fill-rule:nonzero;"/>
        <path d="M586.41,419.68C583.97,420.19 582.44,421.11 580.51,422.12C584.07,423.45 584.68,423.14 586.41,419.68Z" style="fill-rule:nonzero;"/>
        <path d="M548.14,114.42C547.22,116.86 547.43,118.49 549.26,120.22C549.87,117.98 549.66,116.35 548.14,114.42Z" style="fill-rule:nonzero;"/>
        <path d="M512.41,467.73C511.19,470.38 511.09,473.12 512.41,475.97L512.41,467.73Z" style="fill-rule:nonzero;"/>
        <path d="M254.68,128.26C255.39,125.72 255.19,124.19 253.46,122.36C252.85,124.7 253.05,126.23 254.68,128.26Z" style="fill-rule:nonzero;"/>
        <path d="M285.11,481.88C286.03,479.34 286.54,476.69 285.92,473.94C284.3,476.48 284.61,479.13 285.11,481.88Z" style="fill-rule:nonzero;"/>
        <path d="M579.69,473.63C580.2,471.29 581.32,468.95 580.5,466.5C578.47,468.75 579.29,471.19 579.69,473.63Z" style="fill-rule:nonzero;"/>
        <path d="M559.64,122.56C561.17,122.25 562.69,122.56 564.63,121.54C561.27,120.83 561.27,120.93 559.64,122.56Z" style="fill-rule:nonzero;"/>
        <path d="M521.67,404.52C521.06,406.96 522.48,407.68 523.4,408.8C523.2,407.37 523.71,405.74 521.67,404.52Z" style="fill-rule:nonzero;"/>
        <path d="M575.32,505.59C575.42,504.37 575.93,502.94 574.81,501.21C574.2,503.15 573.99,504.47 575.32,505.59Z" style="fill-rule:nonzero;"/>
        <path d="M265.16,130.4C267.4,130.09 269.54,129.89 271.78,129.59C269.54,129.38 267.2,128.16 265.16,130.4Z" style="fill-rule:nonzero;"/>
        <path d="M280.94,513.43C281.14,512.21 281.25,510.99 280.63,509.26C279.72,511.91 279.72,511.91 280.94,513.43Z" style="fill-rule:nonzero;"/>
        <path d="M553.74,137.73C554.15,136 553.94,134.68 552.72,132.95C552.51,134.98 552.11,136.51 553.74,137.73Z" style="fill-rule:nonzero;"/>
        <path d="M575.82,510.48C575.82,516.94 575.69,515.67 576.13,515.67C576.13,509.86 576.23,510.48 575.82,510.48Z" style="fill-rule:nonzero;"/>
        <path d="M259.06,145.16C259.16,143.84 259.87,142.41 258.04,141.39C258.04,142.92 257.73,144.24 259.06,145.16Z" style="fill-rule:nonzero;"/>
        <path d="M281.45,523.2C281.86,521.47 282.16,519.84 281.45,517.6C280.94,519.95 281.14,521.58 281.45,523.2Z" style="fill-rule:nonzero;"/>
        <path d="M512.72,462.54C512.92,461.62 514.14,460.71 513.33,459.38C512.92,460.5 512.21,461.32 512.72,462.54Z" style="fill-rule:nonzero;"/>
        <path d="M488.79,453.68L488.79,455.61C488.9,455 488.9,454.29 488.79,453.68Z" style="fill-rule:nonzero;"/>
        <path d="M498.87,524.22C499.07,523.3 499.28,522.39 499.68,520.76C497.96,522.19 498.16,523.1 498.87,524.22Z" style="fill-rule:nonzero;"/>
        <path d="M545.9,98.74C545.9,97.8 544.09,97.69 544.48,98.84C544.89,99.68 546.24,99.42 545.9,98.74Z" style="fill-rule:nonzero;"/>
        <path d="M249.49,106.17C250.3,106.88 250.1,108 251.63,106.78C251.32,106.17 251.01,105.77 249.49,106.17Z" style="fill-rule:nonzero;"/>
        <path d="M498.67,515.57C498.73,515.35 498.91,514.49 498.57,514.14C498.24,515.8 498.37,515.57 498.67,515.57Z" style="fill-rule:nonzero;"/>
        <path d="M557.1,104.04C556.08,103.63 555.78,103.84 556.29,104.96C556.79,104.85 556.99,104.54 557.1,104.04Z" style="fill-rule:nonzero;"/>
        <path d="M263.13,111.57C261.6,110.96 261.6,111.98 261.09,112.49C262.62,112.99 262.52,111.97 263.13,111.57Z" style="fill-rule:nonzero;"/>
        <path d="M509.15,381.31C502.84,374.27 497.61,382.65 501.72,385.89C504.93,388.14 507.87,386.64 509.46,382.94C511.6,387.22 514.75,386.3 518.01,385.28C518.32,382.63 519.24,379.55 515.97,378.15C512.83,376.81 510.68,378.56 509.15,381.31ZM504.67,385.28C501.35,385.28 500.88,380.19 504.57,380.19C508.15,380.19 508.01,385.28 504.67,385.28ZM513.53,379.48C515.26,379.31 516.38,379.99 516.58,382.13C515.87,382.74 515.26,382.13 514.75,382.33C513.73,382.84 515.16,384.06 514.04,384.57C510.55,384.36 510.78,379.75 513.53,379.48Z" style="fill-rule:nonzero;"/>
        <path d="M536.74,342.83C526.15,354.43 519.33,370.82 520.15,380.7C525.74,355.19 531.89,353.4 536.74,342.83Z" style="fill-rule:nonzero;"/>
        <path d="M481.77,208.27C480.34,211.83 480.9,215.36 483.4,217.53C493.1,225.98 491.7,225.03 493.17,224.15C488.39,219.57 483.71,214.88 481.77,208.27Z" style="fill-rule:nonzero;"/>
        <path d="M492.66,379.58C493.17,381.92 492.25,384.57 493.37,387.11C494.9,386.7 495.1,385.18 496.22,384.67C497.24,384.98 497.34,386.6 499.38,386.3C498.87,384.87 498.06,383.76 499.38,382.33C501.53,379.75 495.66,377.08 492.66,379.58ZM495.11,381.92C495.31,379.68 496.54,380.49 498.16,380.7C497.14,382.63 496.33,382.73 495.11,381.92Z" style="fill-rule:nonzero;"/>
        <path d="M497.96,162.16C503.66,162.26 511.4,155.44 511.91,149.74C507.63,154.32 503.35,158.9 497.96,162.16Z" style="fill-rule:nonzero;"/>
        <path d="M579.29,341.71C572.47,336.11 565.65,330.51 559.03,324.51C564.42,331.84 571.55,337.13 579.29,341.71Z" style="fill-rule:nonzero;"/>
        <path d="M561.78,359.53C560.46,352.91 557,347.11 555.16,340.8C555.67,347.62 559.33,353.42 561.78,359.53Z" style="fill-rule:nonzero;"/>
        <path d="M485.94,221.91C483.9,226.19 485.43,232.7 489.5,236.77C487.27,231.48 486.15,226.69 485.94,221.91Z" style="fill-rule:nonzero;"/>
        <path d="M500.5,112.99C496.33,113.09 494.39,114.72 492.97,118.69C495.31,116.86 498.36,115.94 500.5,112.99Z" style="fill-rule:nonzero;"/>
        <path d="M556.08,319.83C553.64,323.6 555.77,327.46 555.67,331.33C557.5,327.46 555.77,323.59 556.08,319.83Z" style="fill-rule:nonzero;"/>
        <path d="M542.74,357.19C541.2,360.99 540.4,365.53 540.4,367.85C540.81,365.81 542.99,365.83 542.74,357.19Z" style="fill-rule:nonzero;"/>
        <path d="M503.35,290.11C504.17,291.02 504.78,292.65 507.01,291.64C505.79,289.91 504.77,288.38 504.06,286.25C502.23,287.66 502.24,288.88 503.35,290.11Z" style="fill-rule:nonzero;"/>
        <path d="M556.08,262.22C555.37,265.68 555.67,269.24 556.08,272.7L556.08,262.22Z" style="fill-rule:nonzero;"/>
        <path d="M498.26,350.16C498.06,352.09 498.16,353.93 499.58,355.45C499.18,353.72 498.67,351.89 498.26,350.16Z" style="fill-rule:nonzero;"/>
        <path d="M538.57,260.38C540.1,261.3 541.73,261.19 543.96,260.69C541.83,259.87 540.2,260.28 538.57,260.38Z" style="fill-rule:nonzero;"/>
        <path d="M523.81,260.08C525.54,260.59 527.17,260.49 529,259.16C526.86,258.55 525.34,259.67 523.81,260.08Z" style="fill-rule:nonzero;"/>
        <path d="M519.43,313.31C517.6,313.72 516.38,313.51 515.56,315.35C517.09,315.25 518.21,315.04 519.43,313.31Z" style="fill-rule:nonzero;"/>
        <path d="M510.17,310.06C510.78,308.53 511.49,307.01 510.17,305.38L510.17,310.06Z" style="fill-rule:nonzero;"/>
        <path d="M488.08,127.96C489.4,126.43 489.71,125.42 490.01,123.48C487.88,124.6 488.18,125.92 488.08,127.96Z" style="fill-rule:nonzero;"/>
        <path d="M488.79,237.28C488.18,238.91 489.2,239.72 490.11,240.64C490.02,239.52 490.22,238.19 488.79,237.28Z" style="fill-rule:nonzero;"/>
        <path d="M510.58,311.79C509.77,312.3 509.87,313.22 509.66,314.74C512.07,313.77 511.68,311.34 510.58,311.79Z" style="fill-rule:nonzero;"/>
        <path d="M525.34,308.02C524.63,308.83 524.22,309.55 524.93,310.87C525.85,309.96 525.95,309.14 525.34,308.02Z" style="fill-rule:nonzero;"/>
        <path d="M484.72,158.39C484.72,156.86 484.52,156.15 483.5,155.85C482.89,157.07 483.5,157.58 484.72,158.39Z" style="fill-rule:nonzero;"/>
        <path d="M509.86,303.75C510.57,303.24 510.57,302.63 509.96,302.02C508.85,302.52 508.95,303.14 509.86,303.75Z" style="fill-rule:nonzero;"/>
        <path d="M517.8,307.82C518.41,307.11 518.31,306.5 517.09,305.68C516.89,306.7 516.58,307.51 517.8,307.82Z" style="fill-rule:nonzero;"/>
        <path d="M561.78,259.87C562.09,259.26 562.7,258.75 561.58,257.94C561.27,258.65 560.25,259.06 561.78,259.87Z" style="fill-rule:nonzero;"/>
        <path d="M558.01,258.04C557.4,258.96 557.4,258.96 558.11,259.87C558.32,259.16 558.93,258.65 558.01,258.04Z" style="fill-rule:nonzero;"/>
        <path d="M540.4,367.84C540.29,368.39 539.94,368.87 540.4,369.4L540.4,367.84Z" style="fill-rule:nonzero;"/>
        <path d="M492.56,226.69C492.56,227.3 492.76,227.81 493.37,228.12C493.78,227.2 493.78,226.59 492.56,226.69Z" style="fill-rule:nonzero;"/>
        <path d="M494.7,230.66C494.11,231.45 495.31,231.73 495.31,231.37C495.41,230.86 495.21,230.56 494.7,230.66Z" style="fill-rule:nonzero;"/>
        <path d="M502.74,283.59C502.94,283.08 502.64,282.67 502.13,282.37C502.33,282.68 501.42,283.69 502.74,283.59Z" style="fill-rule:nonzero;"/>
        <path d="M492.87,118.59C492.06,119 491.75,119.61 491.65,120.73C492.56,120.02 492.97,119.41 492.87,118.59Z" style="fill-rule:nonzero;"/>
        <path d="M482.48,154.42C481.67,153.91 482.38,152.89 480.95,153.3C480.96,153.81 480.86,154.52 482.48,154.42Z" style="fill-rule:nonzero;"/>
        <path d="M495.61,376.12C495.61,374.52 495.41,375.92 495.51,376.02C495.51,376.12 495.61,376.12 495.61,376.12Z" style="fill-rule:nonzero;"/>
        <path d="M559.44,219.67C557.61,223.74 558.93,227.91 558.22,232.5C561.17,230.05 561.47,223.43 559.44,219.67Z" style="fill-rule:nonzero;"/>
        <path d="M559.64,216C560.35,212.03 561.17,208.16 559.64,204.09L559.64,216Z" style="fill-rule:nonzero;"/>
        <path d="M547.93,211.42C550.58,212.34 553.12,213.66 556.07,212.64C553.53,210.71 550.68,211.63 547.93,211.42Z" style="fill-rule:nonzero;"/>
        <path d="M555.06,248.17C556.79,244.81 558.22,241.35 558.22,237.48C556.89,240.94 555.36,244.4 555.06,248.17Z" style="fill-rule:nonzero;"/>
        <path d="M558.83,242.06C558.11,244.77 556.95,248.24 557.91,251.12C559.25,248.44 559,244.72 558.83,242.06Z" style="fill-rule:nonzero;"/>
        <path d="M554.65,164.29C553.43,166.53 552.31,168.67 550.48,170.19C555.36,168.37 556.18,167.25 554.65,164.29Z" style="fill-rule:nonzero;"/>
        <path d="M561.57,213.36C564.32,215.29 565.23,215.4 568.49,213.97C566.05,213.56 564.02,212.85 561.57,213.36Z" style="fill-rule:nonzero;"/>
        <path d="M561.27,183.84C560.66,185.67 559.54,187.4 560.25,190.15C562.18,187.81 561.47,185.87 561.27,183.84Z" style="fill-rule:nonzero;"/>
        <path d="M537.86,212.24C538.98,213.36 539.9,213.77 541.32,212.65C540.1,211.63 539.18,211.73 537.86,212.24Z" style="fill-rule:nonzero;"/>
        <path d="M520.35,171.22C519.43,170.2 518.52,169.39 516.38,169.29C518.31,171.32 518.31,171.32 520.35,171.22Z" style="fill-rule:nonzero;"/>
        <path d="M550.58,224.04C552.31,224.55 553.23,225.67 554.96,224.55C553.43,223.54 552.41,223.74 550.58,224.04Z" style="fill-rule:nonzero;"/>
        <path d="M523.81,172.54C524.52,173.35 525.13,173.76 526.15,173.05C525.44,172.23 524.73,172.03 523.81,172.54Z" style="fill-rule:nonzero;"/>
        <path d="M532.26,173.56C532.57,174.58 533.07,174.58 533.79,173.97C533.48,173.05 532.97,172.95 532.26,173.56Z" style="fill-rule:nonzero;"/>
        <path d="M516.07,183.33C515.97,184.45 516.88,184.55 517.7,184.96C518.01,183.53 517.3,183.23 516.07,183.33Z" style="fill-rule:nonzero;"/>
        <path d="M520.55,229.85C519.93,229.85 519.46,229.92 518.94,229.94C519.46,229.98 519.93,230.38 520.55,229.85Z" style="fill-rule:nonzero;"/>
        <path d="M572.36,213.66C573.07,214.17 573.68,214.17 574.19,213.56C573.48,212.95 573.08,212.75 572.36,213.66Z" style="fill-rule:nonzero;"/>
        <path d="M624.17,105.46C617.15,107.9 610.33,109.74 602.59,111.47C607.18,114.21 620.71,110.14 624.17,105.46Z" style="fill-rule:nonzero;"/>
        <path d="M641.48,77.57C646.16,78.38 650.34,79.5 655.32,78.28C649.72,75.43 643.92,75.03 641.48,77.57Z" style="fill-rule:nonzero;"/>
        <path d="M632.83,102.1C630.59,102.61 628.15,102.81 626.21,104.54C628.86,105.26 630.99,104.14 632.83,102.1Z" style="fill-rule:nonzero;"/>
        <path d="M598.83,104.95C600.46,104.03 601.07,103.02 601.48,101.08C599.24,101.59 599.24,103.02 598.83,104.95Z" style="fill-rule:nonzero;"/>
        <path d="M661.53,78.08C662.45,77.98 663.06,78.08 663.46,77.06C662.75,77.06 661.94,76.76 661.53,78.08Z" style="fill-rule:nonzero;"/>
        <path d="M639.95,72.48C640.05,73.8 640.36,74.31 641.38,74.31C641.68,73.19 640.97,72.99 639.95,72.48Z" style="fill-rule:nonzero;"/>
        <path d="M636.8,98.64C636.29,98.74 635.99,99.15 635.68,100.07C637.23,99.92 637.68,98.64 636.8,98.64Z" style="fill-rule:nonzero;"/>
        <path d="M657.76,79C658.47,79.1 659.19,79.31 659.59,78.19C658.58,77.67 658.07,78.08 657.76,79Z" style="fill-rule:nonzero;"/>
        <path d="M599.64,113.2C600.35,112.18 601.17,112.18 600.66,111.16C599.95,111.26 599.34,111.47 599.64,113.2Z" style="fill-rule:nonzero;"/>
        <path d="M664.38,28.71C663.85,24.95 661.83,23.4 658.07,24.33C657.26,24.53 656.44,23.62 655.22,24.94C655.17,25.04 648.8,32.32 653.29,38.68C655.01,41.13 657.16,41.43 659.3,39.8C660.79,41.92 662.62,37.66 660.53,39.05C660.52,38.56 665.26,34.96 664.38,28.71ZM653.59,36.04C652.9,35.35 653.69,34.44 653.69,35.43C653.69,35.63 653.59,35.84 653.59,36.04ZM657.97,37.97C654.66,35.86 654.12,33.27 656.24,29.22C656.24,34.84 656.53,29.2 658.78,28.91C661.32,31.05 657.46,32.98 658.58,35.12C664.28,29.86 660.9,25.92 656.85,27.59C662.24,20.4 666.76,33.95 657.97,37.97Z" style="fill-rule:nonzero;"/>
        <path d="M658.48,6.83C685.08,-7.89 686.29,59.43 655.53,60.45C669.84,66.74 690.88,29.34 673.95,6.93C668.86,0.19 658.81,2.99 654.41,8.86C650.44,11.71 649.42,16.39 647.28,20.36C653.99,11.67 652.9,9.91 658.48,6.83Z" style="fill-rule:nonzero;"/>
        <path d="M655.53,60.47C654.36,59.3 651.76,58.48 650.14,58.13C652.12,59.99 653.68,60.47 655.53,60.47Z" style="fill-rule:nonzero;"/>
        <path d="M643.72,36.04C644.13,34.92 644.64,33.7 643.92,32.38C643.51,33.6 642.8,34.82 643.72,36.04Z" style="fill-rule:nonzero;"/>
        <path d="M646.26,21.99C645.85,22.8 645.45,23.42 646.16,24.33C645.86,23.52 647.48,23.21 646.26,21.99Z" style="fill-rule:nonzero;"/>
        <path d="M644.13,29.02C645.05,28.1 645.25,27.39 644.74,26.27C644.23,27.18 643.92,27.9 644.13,29.02Z" style="fill-rule:nonzero;"/>
        <path d="M692.48,33.5C694.21,33.07 692.32,31.81 692.07,32.79C691.86,33.19 692.07,33.5 692.48,33.5Z" style="fill-rule:nonzero;"/>
        <path d="M485.03,313.21C483.75,287.59 476.11,312.64 483.1,319.42C485.74,318 485.14,315.35 485.03,313.21ZM482.08,305.17C483.2,307.92 481.67,310.87 482.89,313.62C480.45,311.07 482.79,307.92 482.08,305.17ZM482.99,316.37C481.97,315.45 482.48,314.54 482.79,313.62C482.89,314.54 484.01,315.35 482.99,316.37Z" style="fill-rule:nonzero;"/>
        <path d="M215.29,389.35C212.75,386.5 209.85,385.94 207.66,387.92C202.61,392.48 212.14,399.69 215.5,391.28C218.45,394.94 218.86,394.94 224.25,393.21C225.28,384.77 219.44,383.94 215.29,389.35ZM211.01,393.42C208.13,393.61 206.81,388.83 210.81,388.33C214.54,388.57 214.1,393.42 211.01,393.42ZM220.17,392.71C218.44,392.61 217.5,391.59 217.63,389.76C217.83,386.8 222.46,386.47 222.82,390.47C218.49,390.47 221.98,391.95 220.17,392.71Z" style="fill-rule:nonzero;"/>
        <path d="M243.08,349.45C233.82,360.44 226.39,372.35 225.57,387.32C228.01,373.17 235.03,361.16 243.08,349.45Z" style="fill-rule:nonzero;"/>
        <path d="M198.8,231.98C193.91,227.5 189.23,222.82 187.2,216.2C185.88,219.86 186.63,223.28 189.03,225.26C199.03,233.51 197.14,232.81 198.8,231.98Z" style="fill-rule:nonzero;"/>
        <path d="M217.53,157.07C213.05,161.96 208.98,166.74 203.48,169.9C209.38,170.1 217.53,162.67 217.53,157.07Z" style="fill-rule:nonzero;"/>
        <path d="M199.1,387.32C199,389.86 198.9,392.51 199.3,394.95C202.16,395.45 200.64,390.16 203.58,393.83C203.99,394.34 204.5,394.75 205.82,394.34C204.8,393.12 204.36,392.08 205.51,390.57C208.09,387.21 201.32,385.65 199.1,387.32ZM200.73,389.15C202.05,388.34 203.07,388.23 204.39,389.76C202.77,390.88 201.65,391.69 200.73,389.15Z" style="fill-rule:nonzero;"/>
        <path d="M191.06,229.64C189.84,234.93 190.86,239.72 194.32,243.89C192.49,239.31 191.77,234.53 191.06,229.64Z" style="fill-rule:nonzero;"/>
        <path d="M206.13,120.42C201.24,121.23 199.72,122.66 197.68,127.55C199.81,125 203.58,123.99 206.13,120.42Z" style="fill-rule:nonzero;"/>
        <path d="M212.33,299.67C211.82,297.63 209.89,296.62 209.99,294.68C206.16,294.48 208.67,300.26 212.33,299.67Z" style="fill-rule:nonzero;"/>
        <path d="M245.93,375.61C248.17,371.84 249.09,366.96 247.76,365.02C247.04,368.48 245.93,371.94 245.93,375.61Z" style="fill-rule:nonzero;"/>
        <path d="M261.5,270.46C260.89,273.72 261.19,277.08 261.5,280.23L261.5,270.46Z" style="fill-rule:nonzero;"/>
        <path d="M248.37,268.02L243.48,268.02C245.52,269.34 246.94,269.34 248.37,268.02Z" style="fill-rule:nonzero;"/>
        <path d="M203.78,358.2C203.27,360.24 203.78,362.17 205.1,363.7C204.7,361.87 204.29,360.04 203.78,358.2Z" style="fill-rule:nonzero;"/>
        <path d="M229.23,267.81C231.57,268.32 231.57,268.32 234.62,267C232.59,266.8 230.86,267 229.23,267.81Z" style="fill-rule:nonzero;"/>
        <path d="M215.9,318.1C216.51,316.47 216.71,314.84 216.21,313.21C215.29,314.74 215.39,316.37 215.9,318.1Z" style="fill-rule:nonzero;"/>
        <path d="M195.13,131.42C193.4,132.44 193.5,133.76 194.01,135.08C194.62,134.06 195.54,133.05 195.13,131.42Z" style="fill-rule:nonzero;"/>
        <path d="M215.59,322.68C216.81,321.46 217.42,320.64 216.51,319.12C215.39,320.13 215.18,321.05 215.59,322.68Z" style="fill-rule:nonzero;"/>
        <path d="M194.22,245.32C193.71,246.64 194.63,247.46 195.44,248.27C195.54,247.15 195.74,245.93 194.22,245.32Z" style="fill-rule:nonzero;"/>
        <path d="M224.65,321.46C223.12,321.36 222,321.36 221.19,322.99C222.62,323.09 223.74,322.98 224.65,321.46Z" style="fill-rule:nonzero;"/>
        <path d="M190.25,165.82C190.25,164.8 190.15,163.89 188.72,163.58C188.72,164.8 188.72,165.72 190.25,165.82Z" style="fill-rule:nonzero;"/>
        <path d="M267.4,265.88C266.28,266.29 266.08,266.9 266.79,267.81C267.91,267.51 267.91,266.8 267.4,265.88Z" style="fill-rule:nonzero;"/>
        <path d="M263.53,267.61C264.04,267.1 264.14,266.49 263.33,265.47C262.82,266.49 261.8,267.2 263.53,267.61Z" style="fill-rule:nonzero;"/>
        <path d="M223.23,315.76C223.94,314.64 223.64,314.03 222.72,313.62C222.11,314.43 222.11,315.04 223.23,315.76Z" style="fill-rule:nonzero;"/>
        <path d="M230.76,315.86C230.05,316.67 229.44,317.39 230.45,318.61C231.37,317.69 231.37,316.88 230.76,315.86Z" style="fill-rule:nonzero;"/>
        <path d="M222.82,311.38C223.43,310.87 223.23,310.36 222.51,309.75C222.31,310.57 222.11,311.07 222.82,311.38Z" style="fill-rule:nonzero;"/>
        <path d="M197.78,234.43C198.09,235.04 198.29,235.55 198.8,236.57C199.1,235.04 199.31,234.33 197.78,234.43Z" style="fill-rule:nonzero;"/>
        <path d="M215.29,309.65C214.58,310.36 214.48,310.97 215.29,311.69C216.1,310.97 216.1,310.36 215.29,309.65Z" style="fill-rule:nonzero;"/>
        <path d="M207.45,290.31C207.35,290.72 207.25,291.23 208.06,291.63C208.26,290.82 208.47,290.21 207.45,290.31Z" style="fill-rule:nonzero;"/>
        <path d="M197.58,127.55C196.97,127.86 196.56,128.26 196.97,129.08C197.68,128.67 197.68,128.16 197.58,127.55Z" style="fill-rule:nonzero;"/>
        <path d="M187.4,162.46C187.4,161.65 187.5,161.14 186.59,160.73C186.38,161.44 186.28,162.06 187.4,162.46Z" style="fill-rule:nonzero;"/>
        <path d="M200.53,170.81C201.34,170.91 201.65,170.4 201.85,169.49C200.63,169.49 200.22,169.79 200.53,170.81Z" style="fill-rule:nonzero;"/>
        <path d="M205.41,205.11C205.68,204.57 204.49,203.82 204.49,204.8C204.5,205.53 205.27,205.4 205.41,205.11Z" style="fill-rule:nonzero;"/>
        <path d="M245.93,377.75L245.93,375.61C245.93,376.32 245.21,376.83 245.93,377.75Z" style="fill-rule:nonzero;"/>
        <path d="M265.06,227.4C263.13,231.47 264.45,235.75 263.84,240.53C266.59,237.68 267,231.37 265.06,227.4Z" style="fill-rule:nonzero;"/>
        <path d="M265.47,212.03C264.35,215.9 265.06,219.77 265.06,223.63C265.98,219.77 266.59,216 265.47,212.03Z" style="fill-rule:nonzero;"/>
        <path d="M263.43,244.61C262.51,248.89 260.78,252.24 260.17,256.52C262.62,252.85 263.94,248.17 263.43,244.61Z" style="fill-rule:nonzero;"/>
        <path d="M275.04,221.81C268.23,221.05 268.3,220.38 267,221.4C270.46,223.23 271.37,223.23 275.04,221.81Z" style="fill-rule:nonzero;"/>
        <path d="M260.28,172.34C258.85,174.38 257.94,176.62 255.29,178.35C260.48,176.71 261.7,175.08 260.28,172.34Z" style="fill-rule:nonzero;"/>
        <path d="M263.84,259.06C264.65,256.11 264.65,253.16 264.45,249.59C262.72,254.99 262.62,257.13 263.84,259.06Z" style="fill-rule:nonzero;"/>
        <path d="M262.01,220.38C259.26,218.45 256.72,219.57 254.27,219.57C256.71,220.18 258.95,221.81 262.01,220.38Z" style="fill-rule:nonzero;"/>
        <path d="M266.59,191.57C266.39,193.5 264.66,195.34 265.88,197.98C267.5,195.65 267,193.61 266.59,191.57Z" style="fill-rule:nonzero;"/>
        <path d="M221.9,176.92C222.82,179.16 224.34,179.36 225.97,179.36C224.96,178.14 223.94,177.22 221.9,176.92Z" style="fill-rule:nonzero;"/>
        <path d="M256.51,231.98C257.63,232.59 258.65,233.2 260.07,232.49C258.95,231.48 257.73,231.48 256.51,231.98Z" style="fill-rule:nonzero;"/>
        <path d="M246.74,220.48C245.42,219.77 244.6,219.26 243.28,220.38C244.4,220.99 245.31,221.3 246.74,220.48Z" style="fill-rule:nonzero;"/>
        <path d="M221.5,191.37C221.81,192.18 222.31,192.49 223.64,192.59C222.62,191.37 222.62,191.37 221.5,191.37Z" style="fill-rule:nonzero;"/>
        <path d="M231.37,180.78C230.76,180.17 230.25,179.46 229.23,180.27C229.84,181.19 230.45,181.7 231.37,180.78Z" style="fill-rule:nonzero;"/>
        <path d="M280.74,183.53C282.68,183.53 281.38,181.95 279.62,182.61C279.82,183.53 280.33,183.53 280.74,183.53Z" style="fill-rule:nonzero;"/>
        <path d="M287.46,182.41C286.75,181.9 286.03,181.8 285.22,182.51C285.93,182.51 286.54,183.84 287.46,182.41Z" style="fill-rule:nonzero;"/>
        <path d="M239.51,181.7C238.8,181.09 238.29,180.99 237.78,181.6C238.29,182.31 238.8,182.21 239.51,181.7Z" style="fill-rule:nonzero;"/>
        <path d="M266.59,209.49C267.1,209.08 267.1,208.68 266.69,208.27C266.28,208.57 266.38,209.08 266.59,209.49Z" style="fill-rule:nonzero;"/>
        <path d="M279.62,221.19C279.11,220.68 278.6,220.68 277.38,221.5C278.6,221.7 279.11,222.11 279.62,221.19Z" style="fill-rule:nonzero;"/>
        <path d="M203.58,436.48C200.93,438.92 198.8,441.47 198.49,445.74C200.42,443.09 200.83,440.14 203.58,438.51C202.92,444.27 199.05,446.6 199.51,451.23C200.98,466.14 198.28,467.37 200.02,466.5C204.69,458.9 197.03,452.09 203.99,442.17C204.6,441.46 204.59,440.33 205.01,439.42C205.7,437.9 205.11,436.99 203.58,436.48Z" style="fill-rule:nonzero;"/>
        <path d="M226.08,407.37C220.17,414.26 214.19,420.34 206.13,416.43C201.21,414.04 206.53,421.1 213.05,419.38C219.45,417.69 224.65,414.7 226.08,407.37Z" style="fill-rule:nonzero;"/>
        <path d="M213.56,440.14C212.24,434.95 211.02,429.76 213.97,424.57C209.28,427.22 209.18,435.26 213.56,440.14Z" style="fill-rule:nonzero;"/>
        <path d="M217.63,483.81C217.63,480.96 218.34,478.21 217.83,475.36C216.51,478.11 216.61,480.96 217.63,483.81Z" style="fill-rule:nonzero;"/>
        <path d="M228.82,416.43C228.72,415 229.13,413.48 227.29,412.26C226.38,414.7 227.91,415.41 228.82,416.43Z" style="fill-rule:nonzero;"/>
        <path d="M195.03,456.33L195.03,454.9C195.03,455.67 194.81,456.33 195.03,456.33Z" style="fill-rule:nonzero;"/>
        <path d="M204.09,531.75C204.19,530.94 205.31,530.22 204.6,529.1C203.38,529.92 203.68,530.84 204.09,531.75Z" style="fill-rule:nonzero;"/>
        <path d="M203.89,521.37L203.89,523.61C204.29,522.9 204.4,522.29 203.89,521.37Z" style="fill-rule:nonzero;"/>
        <path d="M218.85,468.44C219.16,468.44 219.16,467.63 218.85,466.81C218.65,467.63 218.24,468.24 218.85,468.44Z" style="fill-rule:nonzero;"/>
        <path d="M306.08,288.38C307.81,285.53 307.81,285.43 306.69,283.49C306.29,285.12 305.06,286.54 306.08,288.38Z" style="fill-rule:nonzero;"/>
        <path d="M305.98,296.62C307.3,294.99 307.81,293.67 307,292.04C306.29,293.36 305.17,294.58 305.98,296.62Z" style="fill-rule:nonzero;"/>
        <path d="M307,218.34C308.73,218.34 309.65,217.63 310.36,216.41C309.03,216.31 307.61,216.31 307,218.34Z" style="fill-rule:nonzero;"/>
        <path d="M306.29,312.7C306.8,311.28 306.8,311.28 306.09,310.46C305.68,311.18 305.37,311.79 306.29,312.7Z" style="fill-rule:nonzero;"/>
        <path d="M316.36,234.33C315.24,234.74 315.24,235.45 315.95,236.26C316.87,235.75 317.28,235.24 316.36,234.33Z" style="fill-rule:nonzero;"/>
        <path d="M307.51,174.27C308.02,173.46 307.71,172.95 306.19,172.23C306.69,173.35 306.08,174.27 307.51,174.27Z" style="fill-rule:nonzero;"/>
        <path d="M267.3,367.57C266.08,360.85 262.41,355.05 260.68,348.64C261.09,355.66 264.96,361.36 267.3,367.57Z" style="fill-rule:nonzero;"/>
        <path d="M269.13,281.86C257.56,290.39 259.15,310.63 261.09,298.35C262.35,290.38 266.89,282.45 274.53,281.66C294.78,279.56 303.19,334.82 278.09,338.36C295.43,340.98 303.7,299.92 282.16,282.27C277.8,278.69 272.71,279.23 269.13,281.86Z" style="fill-rule:nonzero;"/>
        <path d="M278.5,305.37C276.83,301.73 274.53,300.99 271.17,303.13C270.46,303.64 269.74,303.23 268.83,303.94C265.81,312.43 269.19,321.42 276.46,318.8C276.77,317.99 276.26,317.27 277.17,316.36C280.43,313.11 280.28,309.26 278.5,305.37ZM269.95,314.84C271.48,316.06 272.39,316.88 273.92,318C271.78,317.89 270.97,316.88 269.95,314.84ZM274.94,316.06C267.65,313.46 271.51,306.1 271.38,305.79C271.4,305.79 271.44,305.78 271.48,305.79C271.6,305.79 271.57,305.84 271.57,305.69C271.44,305.76 271.39,305.78 271.38,305.78C275.75,298.73 281.92,310.93 274.94,316.06Z" style="fill-rule:nonzero;"/>
        <path d="M260.68,318.71C261.09,317.39 261.09,316.06 260.27,314.23C259.57,316.27 260.28,317.49 260.68,318.71Z" style="fill-rule:nonzero;"/>
        <path d="M273.41,337.44C274.33,338.36 275.14,338.66 276.36,338.15C275.55,337.03 274.63,336.93 273.41,337.44Z" style="fill-rule:nonzero;"/>
        <path d="M259.67,304.56C258.75,305.27 258.96,305.99 259.77,306.7C259.87,305.99 260.58,305.27 259.67,304.56Z" style="fill-rule:nonzero;"/>
        <path d="M259.26,311.28C259.77,310.47 259.67,309.85 259.26,309.24C258.65,309.85 258.75,310.46 259.26,311.28Z" style="fill-rule:nonzero;"/>
        <path d="M187.5,309.85C184.55,313.11 185.06,323.69 188.42,327.26C191.88,324.41 191.26,313.11 187.5,309.85ZM188.01,313.21C188.01,316.16 188.01,319.11 188.11,322.07C186.58,319.22 187.6,316.16 188.01,313.21ZM188.01,322.17C189.44,322.68 189.03,323.49 188.42,324.51C187.8,323.7 187.8,322.88 188.01,322.17Z" style="fill-rule:nonzero;"/>
        <path d="M271.57,306.01C271.53,307.52 271.03,308.95 271.78,310.47C272.7,309.55 271.68,307.82 273.41,307.21C276.06,308.43 273.51,311.18 274.84,312.81C277.28,309.45 277.28,308.13 274.64,305.38C274.06,305.16 271.57,305.71 271.57,306.01Z" style="fill-rule:nonzero;"/>
    </g>
</svg>
