<?xml version="1.0" encoding="UTF-8" standalone="no"?>
<!DOCTYPE svg PUBLIC "-//W3C//DTD SVG 1.1//EN" "http://www.w3.org/Graphics/SVG/1.1/DTD/svg11.dtd">
<svg width="100%" height="100%" viewBox="0 0 900 600" version="1.1" xmlns="http://www.w3.org/2000/svg" xmlns:xlink="http://www.w3.org/1999/xlink" xml:space="preserve" xmlns:serif="http://www.serif.com/" style="fill-rule:evenodd;clip-rule:evenodd;stroke-linejoin:round;stroke-miterlimit:2;">
    <g>
        <path d="M720.35,185.57C720.34,185.6 720.33,185.62 720.32,185.65C720.35,185.71 720.36,185.67 720.35,185.57Z" style="fill-rule:nonzero;"/>
        <path d="M718.76,174.13C709.78,172.82 712.33,174.95 694.7,176.31C697.81,173.09 701.96,170.19 697.4,165.63C699.16,161.38 699.16,161.38 695.53,158.16C697.4,154.22 693.77,153.49 691.49,151.83C691.7,149.44 689.93,148.1 688.07,146.64C691.49,145.08 694.6,143.84 697.72,142.28C713.25,134.52 707.47,124.75 701.45,123.82C692.49,122.44 679.09,126.44 668.68,129.63C649.49,135.5 649.46,141.44 650.84,132.02C652.19,122.85 641.62,112.37 637.67,108.37C632.39,103.02 629.85,105.91 621.28,101.11C616.68,98.04 615.58,101.44 606.86,92.4C605.49,90.97 604.37,89.18 602.09,88.98C602.3,85.66 602.19,82.65 606.45,82.03C609.27,81.62 608.75,77.8 610.91,73.42C615.26,64.61 612.16,62.78 615.68,54.23C617.06,50.88 615.78,47.39 614.33,44.07C614.85,49.26 612.36,54.03 612.36,59C612.36,65.53 609.95,71.33 608,77.36C605.61,84.77 593.76,79.29 592.44,81.92C594.51,84.62 597.94,82.85 600.84,84.1C599.18,90.12 599.39,96.03 600.63,102.04C603.39,101.32 603.02,99.58 603.02,93.12C608.44,95.29 611.97,134.87 602.09,134.29C601.99,126.1 597.94,119.98 592.13,114.9C595.55,113.24 595.55,113.24 595.86,111.27C594.72,110.65 593.99,111.79 592.96,111.79C584.77,111.16 594.08,111.06 578.34,107.12C580.73,109.09 584.04,109.3 586.33,111.58C579.59,109.09 572.64,109.19 565.69,109.61C559.17,90.99 558.23,90.46 558.02,86.17C561.58,83.58 568.89,85.12 568.49,75.9C568.32,72.07 570.15,69.12 569.42,62.21C569.12,59.41 568.59,56.4 570.98,53.39C568.39,53.8 567.45,52.77 567.04,51C569.1,49.46 569.57,53.97 570.57,44.47C569.22,43.23 567.46,42.29 567.56,40.01C569.22,39.28 570.15,40.32 570.36,41.57C570.86,44.48 572.33,47.07 572.33,50.07C575.44,49.68 576.88,38.75 579.07,36.48C583.83,31.57 582.21,25.55 587.47,28.08C585.77,24.15 591.94,28.29 588.09,21.24C586.95,20.72 585.5,21.34 584.67,20.1C584.77,19.37 585.19,18.86 586.12,18.65C588.19,19.89 590.99,20.41 591.62,23.52C593.18,23 592.03,21.96 592.45,21.13C594.21,21.65 595.77,20.38 597.64,20.51C602.52,20.85 607.39,22.79 612.78,20.3C612.37,25.9 614.23,30.77 615.27,35.65C607.39,38.76 604.8,40.32 607.18,47.27C607.59,45.61 607.28,44.26 608.11,43.02C610.29,43.95 612.36,42.92 614.75,42.19C615.37,39.18 617.66,36.07 616.62,33.06C615.07,28.6 615.38,24.04 614.44,19.78C616.41,16.67 620.04,15.84 622.53,13.35C621.6,12.21 622.74,10.86 622.43,9.62C620.67,8.79 619.01,9.83 617.24,9.41C618.07,7.85 620.77,8.17 620.97,5.78C618.58,4.33 616.93,6.19 614.95,7.02C614.95,4.53 615.99,2.25 614.12,-0.03C612.67,1.73 611.32,3.19 609.35,4.12C609.45,3.29 610.39,2.77 609.56,2.15C605.52,0.8 602.1,4.31 597.84,3.39C593.9,2.54 589.65,3.18 585.5,3.18C584.15,4.11 584.15,6.71 581.87,6.08C581.56,5.25 582.7,3.9 580.83,3.49C578.34,6.5 575.13,8.36 571.18,8.57C569.31,7.43 567.97,4.73 565.06,6.39C565.16,8.15 566.93,8.57 567.13,9.4C565.57,11.68 564.64,13.65 564.54,16.14C568.14,13.44 568.25,16.31 569.62,17.07C570.55,17.38 571.28,16.24 572.32,16.66C572.84,17.59 572.22,18.22 571.39,19.05C569,16.87 566.72,18.01 564.44,19.98C564.33,17.92 568.16,16.14 564.54,16.14C564.23,15.62 563.81,15.62 562.67,15.93C562.77,16.76 563.29,17.48 562.67,18.63C561.21,21.32 559.71,24.23 559.66,27.45C559.65,28.33 555.65,32.98 558.62,40.83C562.42,50.85 558.39,47.14 560.8,51.2C563.23,55.29 563.01,62.26 564.33,64.37C567.12,68.85 565.93,78.61 558,82.62C551.86,85.73 551.56,83.55 519.83,101.39C505.76,109.3 502.98,123.37 502.93,123.48C496.35,137.1 504.18,143.31 498.47,152.62C489.52,167.21 498.18,169.18 490.9,183.42C487.33,190.42 492.9,195.02 492.56,200.32C492.01,208.97 498.07,219.06 507.39,216.6C519.86,213.31 522.72,215.4 526.78,211.62C528.66,209.87 531.03,208.92 533.21,206.85C533.21,206.95 531.15,234.32 534.14,245.64C531.65,247.4 531.87,250.1 532.17,252.9C534.02,270.42 529.17,262.97 526.26,274.47C523.24,286.38 524.94,286.71 523.67,287.64C517.91,291.85 521.39,329.02 518.07,340.95C521.87,345.26 514.83,361.04 519.52,379.22C520.64,383.56 517.45,379.76 517.45,391.35C517.45,392.59 516.41,394.25 518.38,395.5C520.25,393.94 522.32,394.46 524.4,394.77C528.59,430.37 529.78,411.28 521.81,435.42C514.92,456.29 516.56,468.82 521.5,499.1C529.15,546.01 524.6,538.59 526.48,543.59C528.88,549.97 523.99,551.01 525.44,555.1C526.78,558.87 522.65,562.9 524.2,566.4C525.57,569.5 524.52,571.7 522.96,574.07C520.28,578.13 520.4,584.08 525.14,587.55C530.89,591.77 525.03,593.77 532.09,596.88C542.7,601.57 552.95,599.97 564.97,597.81C566.21,597.59 567.25,596.77 568.08,595.22C566.73,594.7 566.83,593.25 566.52,592.11C564.19,583.34 561.66,584.55 561.33,582.15C560.86,578.7 554.25,564.68 552.1,560.47C552.93,559.64 553.24,561.2 553.97,560.57C553.65,557.39 549.19,557.91 551.38,553.93C552.97,551.04 552.61,547.91 552.83,544.91C553.13,540.86 550.76,538.69 546.5,539.1C546.29,536.3 545.47,533.5 545.98,530.6C547.17,523.79 548.52,509.01 550.85,503.53C563.29,474.39 558.02,445.04 557.49,433.42C555.42,434.46 555.82,436.12 555.93,437.46C559.42,479.03 551.31,489.96 546.39,510.27C545.49,500.7 545.8,504.56 546.18,486.73C546.37,478.01 542.55,487.65 544.42,502.49C545.75,513.02 542.13,525.4 544.11,534.74C545.19,539.81 546.75,539.22 534.88,540.76C534.88,537.96 535.4,535.57 534.05,532.98C532.52,538.51 536.08,542.11 528.55,542.11C528.5,542.01 521.62,478.48 520.77,475.22C517.77,463.62 520.5,456.03 521.18,447.22C522.29,433.03 530.06,427.82 528.85,409.16C528.85,404.12 528.47,408.76 526.78,396.51C531.73,391.87 545.44,396.41 565.05,392.26C565.88,392.16 566.81,391.85 567.54,392.57C565.67,400.45 562.58,407.94 561.42,416.01C560.28,423.95 559.66,426.94 556.13,430.22C554.7,431.55 550.33,436.13 552.29,436.13C565.98,425.76 561.97,412.24 565.05,407.19C567.72,402.82 569.3,398.06 570.65,393.19C572.1,392.78 572.82,391.14 574.59,391.43C576.66,391.77 577.7,390.39 579.15,389.15C581.95,386.76 581.69,383.75 582.16,380.85C585.65,359.12 585.38,385.88 585.48,386.76C586.01,391.32 586,391.32 590.67,391.84C594.41,392.46 591.99,392.6 593.26,399.62C596.68,418.43 601.38,420.87 596.79,443.7C593.24,461.33 598.72,469.62 599.69,476.27C602.96,498.47 608.44,516.54 608.09,531.86C608.01,535.26 611.65,534.45 610.99,525.02C609.75,507.03 601.9,477.66 600.2,470.26C594.64,446.02 603.32,433.84 600.72,418.82C597.22,398.64 595.69,403.48 595.43,394.03C598.17,391.68 597.71,392.28 597.71,392.99C609.12,394.96 620.53,397.45 632.35,395.06C633.49,396.62 633.91,397.97 633.28,399.73C630.74,406.81 634.1,411.36 630.06,419.23C629.53,420.26 629.65,421.41 628.82,422.34C632.41,427.72 626.91,422.56 628.3,435.3C629.13,432.5 629.44,430.01 630.69,427.21C633.24,437.96 635.1,457.02 634.94,458.12C628.3,505.27 631.73,537.54 627.27,530.1C623.74,531.66 620.11,531.55 616.69,532.59C615.76,529.17 617,525.64 615.24,522.01C614.2,525.95 614.83,529.37 614.41,532.9C613.06,533.63 611.3,533.63 610.37,535.08C609.85,536.01 610.68,536.95 610.27,537.98C602.08,545.21 610.87,540.27 603.74,557.48C603.31,558.51 602.47,559.56 602.91,560.7C604.74,565.45 599.06,567.35 601.35,569.93C603.94,572.84 605.8,576.71 609.85,577.92C623.91,582.09 620.15,578.38 625.51,581.45C625.92,586.12 628.72,588.44 633.08,589.02C641.23,590.11 658.17,591.14 661.08,583.52C663.26,583 665.88,583.1 665.54,580.1C664.65,572.18 661.45,572.84 653.92,563.09C645.25,551.86 637.74,548.69 637.74,536.23C636.39,534.67 634.53,535.61 632.66,534.78C633.07,530.74 631.53,526.59 632.04,522.33C634.68,500.07 633.79,483.54 636.19,472.76C640.7,452.5 632.54,423.67 632.77,422.15C634.33,421.11 634.73,419.45 634.64,417.48C633.78,398.64 637.03,403.49 637.75,395.6C641.28,394.56 644.49,396.01 647.71,394.77C647.92,384.61 649.28,374.55 648.12,364.38C647.13,355.66 646.09,334.02 645.11,331.5C642.47,324.74 638.82,291.65 638.06,284.52C636.66,271.41 625.61,260.24 626.86,252.68C627.25,250.29 626.45,248.64 624.58,248.01C621.16,232.56 624.48,217.73 625.41,202.17C631.3,208.06 634.02,212.7 639.2,210.88C644.49,209.03 653.23,213.06 664.92,202.58C672.18,205.17 703.34,198.17 719.26,189.2C727.77,184.49 723.85,174.87 718.76,174.13ZM601.05,97.7L601.05,96.14C601.46,96.76 601.46,97.18 601.05,97.7ZM611.21,40.45C611.94,39.93 612.77,39.62 613.8,40.04C613.08,41.69 612.04,40.55 611.21,40.45ZM619.41,11.62C617.32,15.45 617.01,15.2 616.61,12.03C617.33,11.41 618.27,11.51 619.41,11.62ZM611.73,5.19C613.08,6.64 611.83,7.16 610.8,7.89C610.59,6.74 611.42,6.02 611.73,5.19ZM609.35,19.6C608.94,19.91 608.62,19.91 608,19.39C608.83,18.46 609.14,19.08 609.35,19.6ZM602.4,18.88C600.84,19.29 599.91,18.26 598.87,17.53C600.22,17.53 601.36,17.84 602.4,18.88ZM594.62,16.49C595.66,15.35 595.97,16.18 596.38,16.8C595.66,17.42 595.14,17.01 594.62,16.49ZM596.9,8.19C596.28,9.75 594.93,10.16 593.79,11.3C593.58,8.82 594.41,7.88 596.9,8.19ZM588.81,6.95C588.19,7.47 587.88,7.05 587.77,6.43C588.4,6.02 588.71,6.33 588.81,6.95ZM580.41,28.94C580.62,27.8 580.82,26.87 580.93,25.93C582.59,26.96 582.59,26.96 580.41,28.94ZM580.93,16.18C580.31,18.15 578.86,19.5 576.78,20.85C577.09,18.05 579.48,17.42 580.93,16.18ZM579.89,9.44C579.27,11.31 578.02,11.51 576.47,11.31C577.4,10.47 578.23,9.54 579.89,9.44ZM577.09,15.45C577.09,16.38 576.68,16.38 576.36,16.69C575.95,15.76 576.47,15.66 577.09,15.45ZM576.16,28.94C576.68,29.56 575.95,29.77 575.64,30.08C575.43,29.45 575.74,29.14 576.16,28.94ZM575.74,31.74C576.15,33.61 575.12,33.92 574.29,34.75C573.57,32.77 574.71,32.46 575.74,31.74ZM575.12,41.69C574.6,42.83 574.71,43.76 573.46,43.87C573.46,42.94 573.88,42.42 575.12,41.69ZM569.83,9.85C570.97,9.33 570.97,9.95 571.28,10.58C570.25,10.99 570.14,10.37 569.83,9.85ZM572.74,46.98C572.43,46.46 572.33,45.94 573.15,45.74C573.57,46.36 573.36,46.67 572.74,46.98ZM572.94,31.84C572.63,32.57 572.11,32.88 571.28,32.98C571.18,31.53 571.7,31.22 572.94,31.84ZM567.65,30.39C568.48,31.84 567.13,32.98 567.34,34.43C566.72,32.98 566.62,31.63 567.65,30.39ZM564.44,51.96C564.96,52.06 565.06,52.48 565.06,52.89C564.34,52.79 564.34,52.79 564.44,51.96ZM565.27,48.64C563.92,46.98 561.64,45.63 564.23,43.25C565.47,43.66 565.89,44.49 566.62,45.32C565.79,46.26 564.96,47.19 565.27,48.64ZM555.94,572.9C554.8,573 554.18,572.8 553.66,572.07C554.69,571.34 555.31,571.34 555.94,572.9ZM556.77,575.39C556.15,576.12 555.53,576.01 554.8,575.49C555.31,574.97 555.94,574.97 556.77,575.39ZM529.7,545.52C530.53,544.38 531.98,543.76 533.64,544.17C534.68,550.81 534.47,551.53 530.43,553.61C529.08,552.57 529.08,552.57 528.04,549.46C530.32,548.84 528.97,546.97 529.7,545.52ZM532.5,555.68C536.66,553.36 535.82,551.56 535.82,544.79C552.83,540.23 547.68,542.99 548.58,544.06C549.82,544.58 549.93,542.61 551.17,543.02C551.27,547.58 548.78,551.84 548.99,556.4C544.84,557.02 540.8,556.71 536.54,558.16C538.1,560.23 536.14,562.09 537.37,564.38C538.31,566.14 539.24,566.74 540.9,566.77C544.84,566.82 548.67,568.1 552.62,567.29C553.66,567.08 554.07,567.81 554.28,568.95C549.51,569.16 544.74,567.19 540.07,568.64C540.28,570.82 542.14,570.51 542.66,571.34C543.39,572.79 542.25,573.73 541.93,575.28C546.91,577.98 552.09,578.29 557.8,577.04C564.34,592.74 561.61,587.25 563.4,586.89C564.23,589.28 565.06,591.76 565.58,594.88C549.52,595.68 550.28,599.81 531.15,593.43C531.05,589.7 529.08,587.2 526.69,585.03C523.48,582.12 522.64,575.79 525.65,572.58C529.49,568.5 526.2,566.42 526.58,565.01C527.54,561.46 526.79,557.85 527.51,553.81C528.97,555.48 530.31,556.91 532.5,555.68ZM549.92,560.77C548.36,560.67 546.7,560.46 545.15,560.36C546.81,559.83 548.47,559.31 549.92,560.77ZM612.67,535.98C618.37,534.94 623.87,533.49 629.57,533.59C631.7,537.84 620.01,534.33 617.95,537.53C617.43,539.71 619.51,541.06 620.34,542.82C620.13,544.17 619.61,545.41 618.89,546.86C617.33,545.51 615.68,547.06 614.02,546.45C612.05,545.72 611.95,544.06 612.46,542.41C611.63,541.79 611.32,542.62 610.59,542.51C610.49,540.13 613.18,538.78 612.67,535.98ZM649.28,562.32C647.52,562.94 646.27,561.59 644.3,562.11C646.58,559.73 647.93,560.25 649.28,562.32ZM638.18,548.32C637.77,549.25 637.04,548.73 636.42,548.53C636.93,548.22 637.56,548.01 638.18,548.32ZM634.13,538.47C635.79,540.75 634.96,543.55 636.41,545.83C627.91,544.38 626.45,545.62 627.18,548.84C625.62,549.36 623.96,548.43 621.99,549.25C622.4,552.36 625.1,551.43 626.97,551.95C626.87,553.4 624.48,552.68 624.79,555.17C626.24,557.24 629.15,555.17 631.32,556.21C631.01,559.74 631.01,559.74 639.2,559.01C635.88,560.98 635.88,560.98 635.57,563.05C636.46,564.06 637.12,563.13 639.61,562.64C642.82,566.37 646.66,564.82 650.6,564.2C653.98,570.18 661.94,574.49 662.42,579.76C660.24,583.08 657.23,584.74 653.4,585.57C645.7,587.24 629.06,589.02 627.78,581.21C626.49,573.32 612.58,583.21 603.41,568.14C608,561.55 603.02,560.27 606.83,556.32C609.68,553.36 609.32,549.68 609.63,545.64C612.97,549.82 612.43,550.57 618.45,549.27C621.57,548.59 621.56,545.43 622.29,542.94C621.46,541.59 619.9,540.66 619.8,538.58C624.7,538.99 629.47,538.26 634.13,538.47ZM631.85,548.63C631.23,548.63 630.5,548.94 629.78,548.32C630.64,548.32 633.2,548.29 631.85,548.63ZM693.77,155.26C695.37,158.47 691.52,156.78 696.78,161.38C696.88,163.14 695.54,164.08 695.64,165.63C698.34,169.47 698.34,169.88 694.81,173.62C691.91,172.89 689.22,171.98 686.2,173.62C683.31,175.19 680.91,174.24 679.98,171.75C684.34,171.23 692.43,168.74 694.5,166.98C691.6,166.67 689.1,167.69 686.83,168.74C683.71,170.18 680.3,169.99 677.08,170.61C674.9,171.03 674.59,169.16 675.01,167.39C679.57,162.93 686.42,164.38 691.4,160.96C685.49,160.44 680.1,164.9 674.08,163.14C678.23,157.75 685.28,157.95 689.74,153.6C686.32,154.01 683.21,155.36 679.99,157.23C679.58,154.74 678.43,152.77 678.43,150.39C678.43,147.69 677.08,146.76 674.18,146.66C673.77,145.52 673.35,144.38 672.94,143.03C675.64,140.33 679.47,140.75 682.69,139.4C684.66,141.99 684.76,144.79 685.18,147.49C683.62,148.94 681.34,148.32 679.68,149.56C682.17,150.39 682.48,150.39 687.56,148.52C689.72,150.69 691.07,154.01 693.77,155.26ZM692.32,177.35C684.13,178.26 684.83,183.09 682.88,175.79C686.09,176.41 688.69,174.13 691.9,174.86C692.42,175.48 692.11,176.41 692.32,177.35ZM705.69,133.06C702.47,138.25 699.16,140.42 687.64,144.47C686.08,142.91 686.08,140.74 685.15,138.66C678.46,138.13 667.71,140.6 671.56,147.58C666.48,150.59 654.24,151.52 649.88,149.34C651.25,141.9 696.11,127.86 705.69,133.06ZM664.42,169.36C662.45,170.81 660.38,172.26 658.3,173.82C655.91,172.99 653.74,171.64 651.14,172.37C649.69,164.49 649.69,156.5 647.2,148.83C649.61,153.49 652.91,152.57 664.62,151.84C665.77,157.74 661.51,163.34 664.42,169.36ZM651.04,139.08C660.44,132.95 684.85,124.47 701.96,125.91C704.65,126.14 705.07,128.19 705.38,130.37C684.53,130.27 665.87,136.18 648.34,146.55C647.2,143.22 647.83,141.17 651.04,139.08ZM596.38,122.48C580.2,107.96 540.89,115.95 533.43,138.87C528.81,114.02 584,99.15 596.38,122.48ZM556.25,86.91C555.4,90.72 556.3,92.34 561.85,109.73C560.81,110.87 559.57,110.87 558.12,111.18C553.99,92.64 550.08,86.91 556.25,86.91ZM514.04,211.88C511.97,211.67 509.69,213.13 507.51,213.75C500.72,215.67 496,209.55 495.89,202.55C495.72,191.78 492.29,195.59 493.19,187.93C493.63,184.2 493.29,180.05 496.72,177.25C499.09,175.56 494.14,164.72 501.8,151.01C507.38,141.03 499.15,133.24 508.54,120C510.72,116.92 517.97,106.14 522.96,104.13C534.73,99.4 525.92,102.44 549.72,90.54C554.17,103.89 550.1,96.97 546.71,99.36C550.91,102.51 551.97,95.03 554.28,112.12C553.68,112.72 529.89,121.52 531.88,137.94C532.25,140.96 528.36,141.78 531.98,141.78C535.71,148.11 537.88,154.64 536.54,162.11C534.65,172.64 527.61,166.64 512.27,169.68C510.71,169.99 509.05,168.33 507.4,169.58C511.54,171.23 505.99,169.08 502.11,176.32C509.27,171.86 517.25,171.55 525.24,171.55C537.41,171.55 536.53,167.58 546.5,164.5C558.04,160.93 558.32,144.76 556.56,140.75C556.35,146.77 555,152.47 552.1,157.86C501.65,143.67 572.56,94.6 598.04,126.95C603.64,134.07 600.24,140.1 596.38,146.76C594.63,149.78 592.46,152.56 588.81,153.29C587.95,153.46 587.85,154.21 587.85,154.46C580.94,156.08 573.72,154.83 567.03,157.34C548.56,164.27 537.34,173.65 543.9,191.36C537.35,199.21 524.23,212.94 514.04,211.88ZM537.58,165.21C539.03,162.1 540.69,159.09 541.11,155.25C544.33,157.01 547.02,158.47 550.55,158.78C547.02,163.24 541.31,162.1 537.58,165.21ZM608,186.37C602.18,199.11 583.91,205.18 569.63,205.25C550.67,205.34 536.98,190.73 549.82,176.21C570.78,152.5 619.07,162.14 608,186.37ZM606.65,168.63C606.96,168.94 607.17,169.25 607.48,169.67C606.75,169.88 606.44,169.46 606.65,168.63ZM543.18,185.54C539.23,159.63 593.23,146.17 605.61,167.6C585.54,154.15 551.2,162.2 543.18,185.54ZM536.23,257.2C534.26,254.71 534.99,252.01 535.61,249.42C535.82,252.02 536.02,254.61 536.23,257.2ZM585.49,366C586.63,367.24 586.94,368.9 586.94,370.46C586.22,369.11 583.63,368.38 585.49,366ZM634.86,396.8C634.55,396.18 634.45,395.56 635.59,395.35C635.9,396.07 635.38,396.38 634.86,396.8ZM629.88,272.55C631.12,271.1 630.4,269.85 631.02,268.71C635.13,273.57 633.37,276.98 642.22,335.4C645.1,354.42 647.89,369.34 645.64,383.73C644.19,393.03 648.34,391.75 639,391.82C604.74,392.09 622.26,394.82 595.55,389.02C593.58,388.59 591.71,387.57 589.22,387.88C583.86,353.31 589.01,380.32 591.09,383.84C590.26,375.65 587.56,368.49 585.28,361.44C586.42,360.51 587.35,361.03 588.08,360.2C591.09,365.07 592.85,370.57 595.75,375.45C592.87,362.6 587.35,361.23 588.7,353.36C593.74,323.99 591.86,332.22 594.51,325.88C593.37,322.66 593.49,319.56 594.61,316.65C598.41,306.82 596.46,294.46 594.09,291.14C595.13,297.67 595.85,304.1 594.61,310.64C594.57,310.54 592.25,294.46 593.05,315.62C593.13,317.8 591.71,319.77 592.32,321.74C593.23,324.63 592.99,326.85 592.53,329.62C589.85,329.62 581.03,358.8 580.6,371.73C580.41,377.33 579.36,382.62 576.66,388.22C558.51,390.4 540.05,390.61 521.49,391.33C525.75,367.46 519.11,384.22 522.32,349.85C524.31,328.54 522.88,325.02 524.08,300.28C524.58,290.05 527.75,286.09 528.85,279.12C529.59,274.45 530.63,269.9 533.83,266.16C535.82,263.83 536.68,255.22 540.57,256C540.88,256.1 541.4,254.55 541.92,253.72C543.48,253.93 542.13,256 543.68,256.31C544.72,255.79 543.89,254.44 544.41,253.92C546.44,252.29 547.58,254.55 549.1,254.64C549.56,251.9 551.59,253.61 553.12,253.51C552.91,251.85 552.09,251.46 550.63,252.06C549.29,252.6 548.66,251.33 547.62,250.19C546.27,254.34 543.78,249.78 542.02,251.43C541.29,250.7 542.23,249.25 540.78,248.94C539.64,248.94 536.98,262.47 537.56,247.9C562.55,249.66 587.55,248.73 612.44,251.32C613.59,254.77 610.17,256.84 608.81,252.77C607.46,252.77 608.08,254.33 607.25,254.43C604.86,254.95 605.28,252.77 604.66,251.63C603.52,252.87 603.93,254.02 604.25,255.05C605.29,255.98 606.64,255.98 607.98,256.71C607.36,262.93 609.12,268.64 613.79,273.3C610.99,268.32 610.06,262.93 610.06,257.54C610.99,256.3 612.03,256.71 613.28,256.71C612.97,262.1 618.26,262.83 620.64,266.04C619.91,262.51 616.08,260.65 615.77,256.81C617.95,255.88 619.81,257.54 621.79,257.02C620.75,255.36 622,254.12 622.41,252.35C625.32,258.97 630.4,264.36 629.88,272.55ZM616.3,253.16C614.74,252.64 615.57,256.06 613.4,254.92C612.99,253.78 614.13,252.95 614.02,251.81C619.45,251.42 618.23,252.7 617.13,255.44C615.88,254.82 617.23,253.78 616.3,253.16ZM620.13,226.82C618.64,227.78 609.83,228.06 620.13,228.06C619.92,234.7 620.86,241.02 621.17,247.87C593.06,244.65 564.96,247.77 536.75,246.21C537.89,238.74 536.75,231.07 536.44,222.98C543.6,221.84 550.44,222.98 557.29,222.98C550.65,221.94 544.01,220.91 536.96,221.74C536.55,215.72 537.27,209.61 536.34,203.8C539.24,201 542.04,198.2 544.84,195.5C560.61,214.91 583.34,202.63 591.1,205.46C591.93,205.76 592.86,205.98 593.59,204.94C592.91,202.04 584.64,205.63 597.01,199.96C597.01,209.75 596.77,208.46 597.74,208.46C598.12,200.85 597.64,199.43 600.75,197.05C614.46,186.58 616.45,167.15 593.28,157.22C592.87,156.91 593.69,155.56 592.24,155.04C590.04,157.61 586.02,156.49 587.68,154.83C587.58,154.98 592.3,156.22 597.12,149.23C599.54,145.72 602.41,142.18 601.99,137.41C608.01,136.17 608.94,131.08 610.18,126.62C614.36,111.65 607.28,98.5 607.79,96.96C612.46,98.63 618.89,157.73 631.44,157.73C630.61,160.22 628.74,162.29 627.5,164.78C625.63,164.88 623.87,165.51 622.42,166.96C623.66,167.58 624.81,166.86 626.05,167.17C621.79,186.89 623.14,207.11 620.13,226.82ZM646.89,207.63C634.07,207.21 640.8,213.57 626.36,199.13C626.05,194.46 629.78,190.31 627.71,185.44C629.68,185.44 630.41,184.3 630.51,182.64C621.25,168.75 642.84,158.29 639.12,138.04C638.7,135.76 640.05,133.37 639.02,130.78C636.66,132.55 637.38,144.68 631.55,157.85C628.04,153.11 623.8,147.08 623.56,141.15C623.27,133.76 620.23,134.14 616.72,112.01C616.13,108.27 614.75,104.75 613.4,100.81C616.3,102.05 618.27,104.13 621.28,104.34C620.04,105.07 618.27,104.24 617.55,106.1C619.62,107.97 621.39,106 623.15,105.58C661.47,115.52 642.22,145.92 644.62,151.84C646.21,155.77 646.71,159.82 647.01,163.97C647.23,166.98 649.6,169.26 649.19,172.89C647.74,174.24 645.87,175.9 644.11,177.56C646.7,176.83 648.88,175.59 651.16,173.83C652.82,174.45 654.89,174.35 656.76,175.7C659.87,173.42 664.23,173.11 666.2,168.86C662.47,163.26 667.96,157.87 666.41,151.96C670.04,151.34 672.53,149.16 675.43,148.12C677.5,150.61 678.13,156.11 676.47,158.59C675.54,157.97 674.6,157.24 673.88,156.72C672.15,153.5 674.64,149.29 671.49,155.58C671.49,157.86 673.36,158.48 674.7,159.52C673.87,160.87 672.31,161.59 672.31,162.84C672.41,164.81 674.07,164.71 674.9,165.43C674.8,166.88 673.14,167.09 673.03,168.33C674.17,171.55 674.27,171.55 677.9,171.75C678.73,174.76 681.74,176.83 681.74,180.36C680.29,180.98 678.84,181.71 676.97,182.64C676.56,180.25 674.27,180.15 672.72,179.01C671.24,173.83 672.39,174.27 668.88,173.1C667.74,173.72 666.6,174.24 666.18,175.59C667.42,175.9 668.36,174.86 669.71,174.76C673.36,188.01 680.75,178.41 665.04,187.72C658.56,191.56 660.27,195.47 662.97,200.58C658.4,205.35 653.22,207.84 646.89,207.63ZM662.55,197.26C660.1,191.32 664.89,188.57 678.63,183.26C689.19,179.18 705.66,174.91 717,175.48C720.63,175.66 721.77,176.83 722.39,180.46C700.82,180.77 680.91,186.16 662.55,197.26ZM707.77,183.36C706.94,183.67 706.32,183.88 705.49,183.46C706.21,183.05 706.94,183.05 707.77,183.36ZM665.97,200.99C665.97,199.43 667.21,200.68 667.63,199.95C667.73,199.22 666.8,199.22 666.7,198.29C672.51,192.48 697.9,185.73 711.3,183.87C719.03,182.8 720.27,185.05 720.35,185.56C721.42,182.76 722.1,183.05 719.28,183.05C720.11,182.22 720.63,182.32 721.15,183.05C729.6,187.24 679.75,204.44 665.97,200.99Z" style="fill-rule:nonzero;"/>
        <path d="M361.58,266.64C360.75,266.44 359.71,266.54 358.88,265.19C359.09,257.83 356.46,250.35 357.53,242.58C358.2,237.74 356.32,237.45 355.35,226.5C355.12,223.91 354.52,221.52 352.45,219.66C353.59,214.79 352.31,209.81 352.14,204.93C351.96,199.63 349.39,197.5 348.92,194.46C346.06,175.71 354.16,169.7 346.33,155.26C345.6,153.91 345.1,152.67 345.5,151.32C347.32,145.22 345.19,138.98 345.71,132.86C346.51,123.32 336.19,112.56 332.12,108.59C325.87,102.48 323.75,106.49 315.22,100.92C312.68,98.89 309.29,101.29 300.8,92.21C299.55,90.87 298.52,89.51 296.65,89.31C296.44,84.54 296.75,83.91 300.59,82.36C304.3,80.86 303.04,77.11 305.36,73.13C309.07,66.79 306.84,62.87 309.92,54.67C311.25,51.14 310.02,47.62 308.47,44.2C309.2,49.7 306.46,54.57 306.5,59.76C306.55,66.19 303.93,71.77 302.14,77.7C299.98,84.88 287.61,79.38 286.69,82.16C288.87,84.65 292.08,83.09 295.19,84.13C293.43,90.04 293.74,96.06 294.88,102.07C300.64,98.74 294.38,90.7 298.61,93.98C301.78,96.43 311.06,141.34 286.37,139.2C287.1,136.4 287.1,133.7 285.85,130.59C285.44,133.6 285.02,136.19 284.61,138.99C260.2,131.67 265.45,121.08 254.12,93.77C247.68,78.24 262.73,91.13 262.73,76.04C262.73,72.24 264.53,68.44 263.56,61C263.26,58.72 262.94,56.23 265.32,53.95C262.93,54.05 261.48,53.43 261.28,51.36C263.87,50.21 263.79,54.04 264.81,44.93C263.36,43.58 261.7,42.65 261.8,40.37C263.77,39.75 264.57,40.89 264.81,42.34C265.27,45.15 266.78,47.63 266.99,50.53C269.69,47.73 270.38,44.19 271.55,40.78C273.9,33.97 274.87,36.77 276.94,30.82C277.74,28.53 278.91,26.98 281.81,28.23C280.77,25.43 284.2,26.88 283.99,24.6C283.58,23.87 283.06,22.73 282.43,21.49C281.29,21.08 279.84,21.7 279.01,20.35C279.41,17.15 285.18,20.78 286.06,23.88C287.51,23.26 286.47,22.32 286.89,21.49C288.65,22.11 290.11,20.76 291.87,20.87C296.85,21.17 301.83,23.26 307.43,20.66C306.39,26.36 309.19,31.03 309.71,35.91C301.21,39.54 299.34,40.78 301.72,47.53C301.93,45.77 301.62,44.52 302.55,43.28C304.83,44.32 306.91,43.07 308.88,42.55C309.81,41.1 309.83,39.55 310.23,38.09C310.66,36.54 311.78,34.78 310.96,33.11C308.86,28.87 309.61,24.09 308.68,20.04C310.75,16.82 314.18,16.1 316.67,13.71C316.26,12.47 316.67,11.01 316.67,9.67C314.8,9.15 313.14,9.88 311.38,9.57C312.52,7.91 315.32,8.33 315.11,5.73C312.83,4.49 311.27,6.14 309.41,7.08C309.1,4.69 310.45,2.31 308.68,0.13C306.92,1.37 305.88,3.35 303.81,4.07C303.29,3.45 304.64,2.93 303.71,2.1C299.98,0.75 296.55,4.29 292.41,3.45C288.36,2.63 284.01,3.24 280.48,3.24C278.51,4.38 278.51,6.87 276.23,6.14C275.47,-0.7 275.27,8.12 265.55,8.63C263.68,7.39 262.33,5 259.53,6.35C259.32,8.11 261.4,8.53 261.71,9.88C259.64,11.54 259.01,13.82 258.91,16.21C262.63,13.42 262.68,16.44 263.89,17.04C264.82,17.35 265.55,16.21 266.69,16.73C267.21,17.66 266.59,18.29 265.86,18.91C262.75,17.56 262.75,17.56 258.7,19.43C258.59,18.02 262.35,16.21 258.91,16.21C258.7,15.69 258.29,15.69 257.25,15.9C257.15,16.63 257.98,17.36 257.25,18.6C255.71,21.2 254.29,24.2 254.24,27.42C254.22,28.53 249.59,34.31 254.34,43.18C256.73,47.64 253.02,47.15 255.48,51.37C257.75,54.77 257.66,62.21 258.9,64.23C261.82,68.97 260.38,78.49 252.68,82.48C245.75,86.07 246.76,83.12 212.96,102.08C203.22,107.54 203.16,113.94 200.72,124.17C198.21,134.72 205.2,141.77 198.23,150.93C194.59,155.72 193.55,161.91 195.12,173.95C195.62,177.78 188.7,189.14 192.01,201.54C194.89,212.33 184.23,214.41 200.41,269.89C200.92,271.65 201.14,273.21 200.51,274.97C170.02,282.59 170.81,313.68 186.09,328.69C200.34,342.68 212.26,334.86 214.4,336.57C213.14,356.68 211.04,366.76 214.19,378.68C215.24,383.92 212.58,378.79 212.12,388.74C211.6,399.91 212.35,392.38 219.17,394.65C218.84,408.53 222.91,411.84 221.76,420.47C221.46,422.74 214.23,436.29 212.84,450.03C211.62,462.11 208.46,454.88 218.03,511.63C220.94,528.87 219.32,535.47 221.56,544.82C222.89,550.39 218.48,550.66 220.11,554.98C221.46,558.56 217.14,562.64 218.87,566.39C220.21,569.3 219.18,571.36 217.63,573.65C214.82,577.79 214.97,583.8 219.6,587.13C224.87,590.92 220.32,593.28 225.93,596.15C236.29,601.46 247.73,599.44 259.43,597.5C266.97,596.25 256.78,584.01 254.66,577.79C252.6,571.77 249.89,565.86 246.78,560.16C247.71,559.75 247.92,560.57 248.54,560.57C249.82,557.68 243.61,559.07 246.67,552.27C248.03,549.27 247.43,546.15 247.6,543.14C247.73,540.96 245.94,539.72 244.38,538.58C243.34,538.06 242.41,539.31 241.48,538.68C238.3,525.26 248.63,495.04 250.4,485.58C251.8,478.09 255.84,484.55 252.27,432.79C249.45,434.98 251.44,435.51 251.44,450.63C251.44,490.61 247.73,482.01 241.28,509.85C239.36,495.66 242.38,485.34 240.14,483.09C236.75,499.05 241.55,495.61 238.69,523.64C236.87,541.49 246.69,538.09 229.77,540.65C230.08,537.85 230.08,535.46 229.15,533.08C228.22,535.67 229.25,538.58 227.91,541.17C219.21,544.9 226.12,538.08 220.13,510.26C218.22,501.4 217.08,480.32 215.77,475.31C212.64,463.32 215.54,455.67 216.08,447.2C217,432.83 224.1,429.64 223.75,409.24C223.66,403.95 223.26,408.69 221.57,396.48C227.77,391.52 239.74,396.27 260.05,392.02C266.34,390.22 257.47,402.21 255.28,421.68C254.9,425.11 253.41,427.7 251.03,430.08C237.74,443.37 257.51,433.95 258.5,414C258.96,404.82 260.32,410.97 265.66,393.05C267.01,393.05 267.42,391.27 268.88,391.39C277.99,392.15 276.47,375.95 279.77,372.1C281.92,380.71 277.26,391 284.64,391.81C289.51,392.34 286.76,391.96 288.17,399.69C291.67,418.96 296.1,419.58 291.49,444.49C288.24,462.04 293.43,469.02 294.5,476.43C297.97,500.6 303.4,516.95 302.8,531.71C302.37,535.15 306.3,535.17 305.6,524.97C304.41,507.7 297.06,479.63 294.92,470.52C289.07,445.64 298.04,433.75 295.33,418.77C292.23,401.57 286.93,393.42 292.43,392.32C293.05,392.42 293.05,393.47 293.88,393.56C304.86,394.76 315.76,397.6 327.48,394.8C328.41,400.61 326.01,405.8 326.65,411.08C327.15,415.23 324.26,418.65 323.54,422.59C327.25,425.84 320.9,425.89 322.92,434.72C323.65,432.33 324.27,429.95 324.89,427.56C333.39,456.94 326.31,472.14 324.99,508.97C324.74,516.02 322.5,523.07 323.95,530.23C323.95,530.47 322.94,531.65 321.77,529.71C318.45,531.47 314.61,531.16 311.09,532.3C310.36,528.77 311.3,525.35 309.95,522.03C308.75,523.64 309.02,524.95 309.02,532.4C307.57,533.54 305.8,533.44 304.98,534.58C304.25,535.72 305.08,536.76 304.67,537.8C302.8,539.56 300.31,541.33 300.94,544.02C302.72,551.68 296.07,558.17 297.21,561.13C298.82,565.33 293.2,567.5 295.55,570.05C298.33,573.07 300.11,576.99 304.47,578.14C308,579.07 311.52,580.39 315.26,580.11C322.67,579.55 317.06,587.52 326.98,589.03C335.44,590.32 351.64,591.35 355.19,583.53C356.95,583.32 358.92,583.22 359.65,581.04C359.24,576.48 357.23,572.89 353.74,569.84C349.36,566.01 345.64,559.04 340.78,554.7C335.08,549.62 331.86,543.71 331.76,536.24C330.41,534.79 328.54,535.72 326.78,534.79C327.3,530.64 325.75,526.49 326.26,522.24C327.63,510.83 328.2,499.32 328.75,487.81C329.48,472.41 332.45,467.66 331.86,458.36C331.57,453.73 329.57,431.26 327.92,426.94C325.23,419.9 328.85,423.47 328.85,418.23C328.85,396.86 331.15,403.8 332.07,395.41C340.34,395.41 340.43,395.97 341.61,394.79C344.51,371.87 340.68,349.36 339.02,326.34C343.06,329.14 347.11,331.32 351.88,332.15C395.5,339.72 398.42,275.65 361.58,266.64ZM295.41,98.32L295.41,96.25C295.93,96.76 295.72,97.18 295.41,98.32ZM305.58,40.55C306.31,39.62 307.24,40.03 308.59,39.62C307.34,41.59 306.51,40.65 305.58,40.55ZM311.18,11.93C311.91,11.52 312.74,11.52 313.77,11.62C311.51,16.59 310.75,13.65 311.18,11.93ZM306.41,5.29C306.41,6.85 306.41,6.85 304.85,7.99C305.27,6.74 305.47,5.81 306.41,5.29ZM303.92,19.5C303.3,19.91 302.99,19.81 302.57,19.5C303.09,18.46 303.4,19.19 303.92,19.5ZM296.97,18.98C295.31,19.19 294.27,18.36 293.24,17.42C294.48,17.53 295.72,17.84 296.97,18.98ZM289.5,15.87C290.23,15.66 290.43,16.18 290.85,16.91C289.92,17.01 288.88,17.53 289.5,15.87ZM291.47,8.3C290.43,9.65 289.5,10.27 288.46,11C288.46,8.4 288.46,8.4 291.47,8.3ZM283.07,6.53C283.42,7.06 282.35,7.83 282.14,6.12C282.66,6.33 282.97,6.33 283.07,6.53ZM265.34,10.79C264.72,10.89 264.51,10.38 264.2,9.96C265.04,9.12 265.9,10.5 265.34,10.79ZM267.2,46.98C266.89,46.46 266.79,45.94 267.61,45.74C268.03,46.36 267.72,46.67 267.2,46.98ZM267.31,44.18C267.93,43.14 268.35,42.52 268.66,42C268.97,42.83 268.97,43.56 267.31,44.18ZM275.5,25.31C277.68,27.18 275.91,27.9 274.88,28.73C274.98,27.79 275.19,26.86 275.5,25.31ZM275.19,16.08C275.09,18.47 272.91,19.19 271.56,20.54C271.66,18.05 273.95,17.53 275.19,16.08ZM274.36,9.33C273.74,11.51 272.29,11.51 270.83,11.3C271.87,10.68 272.6,9.54 274.36,9.33ZM271.25,15.45C271.63,16.2 270.81,16.67 270.52,16.38C270.42,15.76 270.83,15.66 271.25,15.45ZM270.52,28.94C271.04,29.56 270.52,29.87 269.79,30.29C269.8,29.45 270,29.14 270.52,28.94ZM270,31.84C270.83,33.5 269.69,33.91 268.65,34.54C267.83,32.88 268.86,32.46 270,31.84ZM267.31,31.74C267,32.57 266.48,32.98 265.44,32.88C265.65,31.42 266.37,31.53 267.31,31.74ZM262.02,29.87C263.16,31.84 261.5,33.09 261.61,34.33C261.29,32.88 260.88,31.53 262.02,29.87ZM258.6,51.96C259.33,52.17 259.43,52.48 259.43,53.1C258.28,53 258.6,52.48 258.6,51.96ZM259.63,48.64C258.39,46.98 256,45.53 258.49,43.35C259.84,43.35 260.15,44.39 260.88,45.01C260.46,46.26 259.22,47.19 259.63,48.64ZM249.47,571.76C250.85,571.76 249.87,574.28 248.12,572.17C248.33,571.45 248.95,571.65 249.47,571.76ZM250.92,575.28C250.51,576.42 249.88,575.8 249.16,575.49C249.68,574.97 250.3,574.97 250.92,575.28ZM227.9,544.17C229.35,550.39 228.63,552.67 224.27,553.61C222.92,552.47 223.34,550.91 222.51,549.77C224.79,548.11 222.92,542.82 227.9,544.17ZM226.76,555.58C232.36,552.44 229,550.45 230.49,544.48C234.53,543.65 238.58,542.3 242.52,541.99C243.45,542.72 242.42,543.23 242.93,543.86C243.97,544.48 244.17,542.3 245.42,542.82C245.42,547.38 243.14,551.64 243.14,556.09C238.99,556.71 234.95,556.4 230.8,557.85C232.29,559.84 229.53,566.21 235.16,566.46C239.1,566.63 242.93,567.79 246.88,566.98C247.92,566.77 248.33,567.39 248.64,568.64C243.87,568.95 239.1,566.88 234.43,568.33C234.53,570.51 236.38,570.21 237.02,571.23C237.82,572.49 236.4,573.3 236.5,575.07C241.27,577.56 246.46,577.97 252.16,576.73C257.59,591.47 256.75,588.48 257.45,586.17C258.59,589.18 259.42,591.77 259.94,594.78C248.77,595.33 238.88,599.6 227.17,593.74C226.55,593.53 225.72,593.64 225.51,593.33C225.41,589.49 223.44,587 221.05,584.83C217.74,581.82 217.01,575.6 220.22,572.18C223.89,568.27 220.42,566.24 220.95,564.92C222.09,561.29 221.05,557.56 221.88,553.72C223.33,555.27 224.57,556.81 226.76,555.58ZM244.39,560.25C242.83,560.87 241.28,560.35 239.72,560.15C241.28,559.73 242.83,559.52 244.39,560.25ZM306.3,539.4C307.23,538.47 306.82,537.22 307.44,535.87C312.94,534.83 318.43,533.28 324.14,533.48C325.31,535.81 323.46,535.44 315.84,536.07C309.11,536.63 313.86,540.89 314.8,543.02C314.39,544.16 313.97,545.41 313.56,546.86C311.49,545.51 308.72,547.98 306.92,545.2C306.31,544.26 307.13,543.13 306.61,542.19C305.99,541.78 305.68,542.5 305.05,542.6C304.95,541.27 305.37,540.23 306.3,539.4ZM343.85,562.74C341.88,562.33 340.53,562.01 339.18,561.7C341.56,559.94 341.56,559.94 343.85,562.74ZM332.85,548.32C332.23,549.05 331.61,548.53 330.26,548.84C331.5,548.11 332.13,548.01 332.85,548.32ZM328.81,538.67C330.37,540.64 329.22,543.44 331.09,545.72C327.67,545.51 324.64,543.83 321.86,546.03C320.82,546.85 321.86,547.69 321.65,548.52C320.09,549.25 318.43,548.31 316.98,548.83C316.88,551.32 316.88,551.32 321.44,551.94C321.03,553.18 319.26,552.77 318.95,554.74C320.71,556.81 323.41,555.26 325.9,555.98C324.36,560.59 329.02,559.17 333.68,558.68C332.44,560.03 329.74,560.03 329.95,562.62C331.61,563.97 332.85,562.21 334.2,562.41C337.31,566.04 341.15,564.59 345.3,563.86C348.1,569.77 355.15,572.47 357.12,579.21C354.84,583.15 351.41,584.58 347.37,585.33C339.63,586.77 323.73,588.59 322.48,580.77C321.25,573.06 306.91,582.57 298.11,568.22C299.67,565.73 300.55,563.05 299.87,559.92C299.08,556.27 303.68,558.35 304.33,545.71C306.09,549.75 309.2,550.36 312.83,549.34C315.83,548.5 315.84,545.5 316.77,542.91C313.34,537.57 310.23,538.67 328.81,538.67ZM326.63,548.42C325.7,548.83 324.76,548.73 323.83,548.42C324.76,548.11 325.7,548.11 326.63,548.42ZM324.04,107.65C334.14,110.75 345.58,124.22 342.6,142.81C340.44,156.3 351.72,160.45 346.85,175.48C345,181.19 347.15,186.99 347.26,192.8C347.43,201.39 350.99,200.12 350.99,215.2C350.99,218.42 349.85,221.94 353.06,224.43C353.26,224.63 355.69,242.74 355.55,245.69C355.28,251.39 354.45,257.14 356.69,262.7C357.02,263.52 356.9,264.57 356.38,265.71C352.44,265.3 348.6,267.06 344.76,268.1C333.87,233.34 332.71,242.14 332.11,225.27C331.82,217.18 329.23,209.42 328.38,201.52C328.25,200.28 327.96,199.04 326.31,198.72C324.96,198.46 315.12,179.48 326.41,162.73C330.32,156.94 334.58,145.62 332.84,138.98C332.34,137.09 333.68,133.69 332.84,130.99C329.86,132.48 332.74,138.68 325.89,157.85C314.28,141.35 320.03,144.44 316.24,134.2C310.54,118.81 313.18,114.48 307.32,100.7C312.94,104.44 318.55,105.97 324.04,107.65ZM318.96,247.97C315.23,229.82 320,212.09 320.62,194.14C325.18,202.33 327.05,211.15 326.95,220.28C326.75,237.95 335.33,240.27 341.88,269.02C337.94,271.51 334,273.48 331.41,277.94C320.99,257.11 320.58,255.76 321.35,251.18C321.66,249.32 320.1,248.6 318.96,247.97ZM249.99,86.81C250.43,93.31 255.77,115.65 269.18,137.21C270.42,136.8 269.39,136.17 269.7,135.65C270.15,135.2 292.92,150.91 302.37,131.81C307.47,121.5 305.8,105.99 301.64,96.44C307.93,98.54 312.76,157.73 325.8,157.73C325.07,160.32 323.1,162.29 321.86,164.89C319.99,164.99 318.13,165.3 316.88,166.96C318.02,167.58 319.16,166.86 320.51,167.17C316.26,186.77 317.61,207 314.7,226.7C312.9,227.98 304.92,227.55 314.6,228.15C314.39,234.68 315.43,241.01 315.64,247.75C287.53,244.53 259.32,247.75 231.12,245.99C232.16,242.36 231.64,238.52 231.74,234.58C232.16,218.92 223.7,222.65 251.65,222.65C245.01,221.51 238.27,220.58 231.22,221.41C231.6,196.34 229.96,195.26 227.38,188.43C226.56,186.25 227.07,184.8 228.83,183.35C226.96,180.13 230.28,177.44 230.18,173.91C232.25,174.84 232.67,176.92 234.43,177.64C234.95,177.23 234.53,176.81 234.33,176.5C228.98,170 233.84,164.97 232.57,156.38C233.61,155.24 235.27,155.34 235.99,154.1C238.27,155.86 240.24,157.52 243.35,158.04C242.11,155.97 239.93,155.55 238.89,153.37C244.7,150.67 247.5,145.18 250.82,140.41C259.2,110.11 241.14,86.17 249.99,86.81ZM310.56,253.16C309.21,252.95 309.94,255.75 307.86,254.92C307.45,253.78 308.59,252.95 308.38,251.91C309.73,251.39 310.97,251.7 312.42,252.12C312.63,253.36 312.11,254.3 311.49,255.34C310.35,254.92 311.7,253.57 310.56,253.16ZM206.22,273.07C193.26,292.88 204.35,319.53 223.23,326.9C197.33,320.17 192.18,285.58 206.22,273.07ZM200.21,308.75C198.45,307.92 198.34,306.57 198.45,304.91C200,305.84 199.48,307.5 200.21,308.75ZM217.53,321.61C204.79,312.87 198.94,295.57 203.94,280.96C209.31,265.29 226.74,259.11 240.76,267.79C255.34,276.82 260.24,295.6 255.69,308.86C250.05,325.29 231.86,331.43 217.53,321.61ZM227.48,208.77C227.67,241.13 227.35,241.37 229.24,245.28C223.39,249.25 230.8,255.11 225.3,262.29C222.19,262.19 219.39,264.26 215.86,264.68C213.67,250.69 222.28,261.14 216.9,209.51C216.6,206.61 216.9,203.6 216.9,200.9C220.84,197.89 222.6,193.74 226.03,190.32C226.24,193.95 227.58,197.06 227.07,200.48C226.65,203.27 227.47,205.97 227.48,208.77ZM229.97,249.53C229.45,252.43 231.63,255.34 229.66,259.07C229.35,255.44 229.04,252.43 229.97,249.53ZM232.25,152.25C233.81,153.29 234.32,154.01 232.77,155.05C231.94,154.22 232.36,153.39 232.25,152.25ZM194.81,186.58C195.64,190.52 194.4,193.32 193.88,196.33C193.15,193.21 193.57,190.21 194.81,186.58ZM194.19,210.01C195.37,211.87 198.05,219.94 197.09,212.19C196.22,205.12 196.13,198.18 197.5,191.03C199.59,180.14 195.1,156.95 200.72,182.94C201.94,175.38 201.43,177.9 199.58,171.43C198.96,169.25 199.36,167.08 198.02,164.79C194.53,158.79 206.37,149.6 203.72,135.23C201.87,125.18 205.5,113.24 206.94,112.1C210.6,109.21 213.48,105.37 218.14,103.8C227.77,100.55 223.44,100.48 244.07,90.63C253.21,130.38 252.72,139.18 236.91,151.4C235.67,149.22 234.71,147.14 235.46,144.66C235.86,143.31 234.01,142.69 234.11,140.51C226.69,152.65 234.99,157.65 224.88,185.42C223.59,188.96 218.23,194.71 217.93,197.87C217.2,195.59 218.14,193.2 217.62,190.92C216.89,191.02 216.79,191.65 216.79,192.06C212.62,215.68 214.88,199.17 217.62,234.27C218.13,240.83 211.9,263.72 213.26,265.38C210.04,267.87 206.31,269.53 203.93,272.54C198.06,254.69 190.63,228.54 194.19,210.01ZM183.72,285.72C173.9,303.72 181.51,327.03 201.14,334.88C180.71,331.67 170.23,302.21 183.72,285.72ZM214.83,333.53C194.19,339.91 172.86,311.64 183.92,289.04C187.47,281.79 194.19,276.91 201.55,276.59C197.51,283.54 196.29,290.59 197.3,298.06C197.64,300.6 194.23,308.22 199.58,310.3C203.94,311.99 203.74,318.74 215.34,325.65C215.14,328.35 215.04,330.84 214.83,333.53ZM279.75,366C280.99,367.24 281.31,368.8 281.31,370.46C280.38,369.21 278.2,368.28 279.75,366ZM329.33,396.69C329.02,395.96 328.92,395.34 330.06,395.45C330.16,396.18 329.85,396.49 329.33,396.69ZM339.7,384.25C338.13,392.72 342.8,391.54 333.17,391.61C298.91,391.88 316.43,394.61 289.72,388.81C287.75,388.38 285.78,387.57 283.39,387.46C282.67,381.84 281.36,376.41 281.33,370.7C281.15,370.52 281.33,370.31 281.33,370.7C283.05,372.66 282.68,375.29 283.29,377.61C286.12,388.45 286.91,384.72 279.56,361.33C285.35,359.99 280.55,359.12 290.03,375.64C286.23,357.49 278.17,368.54 287.02,329.8C285.88,329.8 285.88,330.73 285.57,331.36C257.67,395.66 304.15,388.04 215.98,391.51C217.02,385.49 218.29,379.68 216.71,373.57C214.01,363.12 217.62,357.07 217.95,329.6C218.01,324.74 221.42,329.58 228.63,329.19C264.72,327.24 268,284.59 242.01,266.44C246.2,251.36 244.59,256.16 243.36,254.93C240.04,271.07 243.51,264.48 230.4,262.29C230.4,258.04 233.93,256.27 236.73,253.89C237.77,254.1 236.42,256.07 237.97,256.48C239.01,255.96 238.07,254.61 238.7,254.09C240.84,252.56 241.76,254.51 243.48,254.94C243.82,251.96 245.87,253.88 247.41,253.67C247.31,252.01 246.58,251.5 245.02,252.11C243.68,252.64 242.95,251.59 242.01,250.24C240.45,254.18 237.97,249.93 236.1,251.48C235.69,250.75 236.41,249.51 235.06,248.89C232.99,250.13 234.54,253.35 232.05,254.59L232.05,247.95C256.84,249.61 281.83,248.78 306.72,251.37C307.34,252.61 306.72,253.65 306.62,254.69C301.93,254.89 303.92,250.35 301.85,254.48C299.46,255.1 299.88,252.92 299.26,251.68C298.12,252.92 298.53,253.96 298.74,255C299.67,255.93 301.02,256.04 302.27,256.56C302.58,261.9 302.19,267.54 307.1,271.38C305.57,266.86 304.34,262.22 304.55,257.49C305.28,256.14 306.42,256.66 307.66,256.56C307.45,261.95 312.64,262.78 315.13,266C314.3,262.47 310.36,260.61 310.26,256.67C312.33,256.05 314.1,257.4 316.17,256.98C315.24,255.32 316.27,253.97 316.79,252.42C319.59,259.06 324.67,264.45 324.26,272.44C325.5,271.09 324.67,269.85 325.3,268.71C328.72,272.13 326.86,277.32 329.66,280.95C321.47,296.92 327.48,310.51 336.61,324.4C334.74,339.62 343.65,362.97 339.7,384.25ZM330.99,312.9C324.96,299.94 326.32,285.21 334.83,276.5C322.59,294.13 331.41,322.24 351.94,329.91C345.19,330.42 334.71,320.89 330.99,312.9ZM384.29,312.38C378.9,328.7 360.75,334.89 346.44,325.34C333.37,316.63 327.46,298.89 332.75,284.17C345.3,249.27 396.98,274 384.29,312.38Z" style="fill-rule:nonzero;"/>
        <path d="M307.33,271.66C307.35,271.67 307.28,271.47 307.33,271.66Z" style="fill-rule:nonzero;"/>
        <path d="M295.72,40.65C295.52,35.57 289.92,36.71 284.83,36.71C282.86,36.71 281.2,37.95 279.75,39.72C281.93,39.93 282.86,38.16 284.94,38.06C286.18,40.24 289.19,38.27 291.16,40.34C287.74,40.44 284.63,40.96 281.83,42.52C299.03,45.21 286.77,41.77 295.72,40.65Z" style="fill-rule:nonzero;"/>
        <path d="M587.26,42.42C590.58,43.15 593.9,43.46 597.32,42.94C597.63,40.76 599.6,40.87 601.36,40.55C601.14,35.45 594.77,36.97 592.65,36.61C589.54,36.08 587.57,37.54 585.18,39.51C587.46,40.13 588.5,37.95 590.47,38.06C591.92,39.93 594.72,38.47 597.21,40.45C593.17,40.34 590.16,40.86 587.26,42.42Z" style="fill-rule:nonzero;"/>
        <path d="M310.87,442.74C310.97,443.05 311.28,443.36 311.28,443.67C310.76,449.89 312.32,455.91 312.32,462.13C312.32,479.75 318.75,454.65 310.87,442.74Z" style="fill-rule:nonzero;"/>
        <path d="M616.68,443.21C616.76,443.37 616.81,443.52 616.81,443.68C616.29,449.9 617.85,455.92 617.85,462.14C617.85,479.59 624.09,454.95 616.68,443.21Z" style="fill-rule:nonzero;"/>
        <path d="M557.28,398.67C551.27,405.44 545.33,413.2 536.12,408.83C530.64,406.23 536.75,415.33 547.01,410.7C552.01,408.44 556.25,405.2 557.28,398.67Z" style="fill-rule:nonzero;"/>
        <path d="M251.23,398.98C247.5,404.27 242.83,408.21 236.3,410.28C226.85,407.82 228.68,408.2 228.21,409.14C237.49,416.87 250.77,406.84 251.23,398.98Z" style="fill-rule:nonzero;"/>
        <path d="M279.55,76.43C276.54,72.9 272.39,70.83 268.66,68.34C267.52,64.4 265.76,60.77 265.96,56.52C262.64,60.25 266.27,63.99 265.75,67.93C281.15,78.93 278.52,77.46 279.55,76.43Z" style="fill-rule:nonzero;"/>
        <path d="M584.97,77.68C584.97,74.63 580.21,71.82 575.95,69.38C572.73,67.54 571.59,59.44 571.59,55.9C567.96,60.26 571.8,63.99 571.18,67.93C575.64,71.04 580,74.15 584.97,77.68Z" style="fill-rule:nonzero;"/>
        <path d="M533.84,430.5C533.84,429.98 533.84,429.57 533.43,429.46C530.53,432.16 528.24,435.16 527.83,439.93C529.85,436.9 530.21,433.49 533.09,431.78C532.84,434.17 531.94,436.27 530.84,438.38C526.32,447.02 532,450.34 528.87,460.26C528.11,462.67 532.57,458.91 530.84,449.68C528.82,438.92 533.42,440.11 535.09,430.49C534.57,430.5 534.16,430.5 533.84,430.5Z" style="fill-rule:nonzero;"/>
        <path d="M228.21,430.4C228.21,427 222.64,433.97 221.99,439.94C224.06,436.62 224.58,433.2 227.59,431.54C228.03,430.67 227.65,434.12 225.41,438.28C220.88,446.71 226.23,450.05 223.34,460.58C223.24,460.68 223.55,460.79 223.75,460.99C225.82,457.46 225.92,453.52 225.2,449.69C223.1,438.5 228.27,439.56 229.45,430.5C228.83,430.4 228.52,430.4 228.21,430.4Z" style="fill-rule:nonzero;"/>
        <path d="M272.6,107.44C276.23,109.51 280.1,110.62 283.39,113.46C286.01,115.71 289.41,114.39 290.34,110.97C280.92,113.66 288.8,111.6 272.6,107.44Z" style="fill-rule:nonzero;"/>
        <path d="M540.28,425.84C539.38,428.55 541.21,431.34 543.6,433.41C542.46,427.91 540.7,422.52 543.91,417.02C540.17,418.99 541.24,422.94 540.28,425.84Z" style="fill-rule:nonzero;"/>
        <path d="M234.85,424.9C233.4,427.91 235.47,431.02 237.96,433.4C236.72,427.9 235.16,422.51 238.48,417.01C234.33,418.37 236.09,422.31 234.85,424.9Z" style="fill-rule:nonzero;"/>
        <path d="M319.06,410.8C320.94,409.99 321.13,408.52 320.1,405.41C319.19,412.83 310.88,410.09 306.82,413.08C308.56,415.81 313.68,413.12 319.06,410.8Z" style="fill-rule:nonzero;"/>
        <path d="M624.7,410.9C626.36,410.19 626.88,408.41 626.15,406.13C624.4,413.29 612.67,410.32 612.67,413.39C613.89,416.15 622.27,411.94 624.7,410.9Z" style="fill-rule:nonzero;"/>
        <path d="M318.44,451.25C318.56,444.13 324.17,444.19 323.31,437.04C321.05,437.85 322.22,440.78 319.06,444.51C316.87,447.09 316.99,450.01 317.09,453.22C318.33,452.91 318.43,451.87 318.44,451.25Z" style="fill-rule:nonzero;"/>
        <path d="M624.07,451.25C624.07,444.61 629.57,444.18 628.94,437.25C627.01,436.97 628.63,439.08 623.86,445.86C622.4,447.93 622.51,450.53 623.13,453.02C623.66,452.49 624.07,451.87 624.07,451.25Z" style="fill-rule:nonzero;"/>
        <path d="M595.76,65.75C597.63,67.72 607.69,67.1 610.07,64.82C604.89,64.61 600.43,66.06 595.76,65.75Z" style="fill-rule:nonzero;"/>
        <path d="M290.12,65.75C290.12,68.9 299.1,66.38 303.91,66.27C303.92,64.34 305.8,64.68 290.12,65.75Z" style="fill-rule:nonzero;"/>
        <path d="M599.6,71.98C602.4,73.02 604.89,72.6 608,71.36C604.26,67.72 601.15,68.03 599.6,71.98Z" style="fill-rule:nonzero;"/>
        <path d="M293.96,72.08C296.76,73.01 299.25,72.7 302.36,71.35C298.52,67.72 295.41,68.03 293.96,72.08Z" style="fill-rule:nonzero;"/>
        <path d="M613.49,430.82C611.99,433.06 615.63,438.33 616.39,442.75C616.5,438.49 615.78,434.45 613.49,430.82Z" style="fill-rule:nonzero;"/>
        <path d="M308.07,434.34C308.83,437.24 310.35,439.73 310.87,442.74C310.87,432.17 305.79,425.64 308.07,434.34Z" style="fill-rule:nonzero;"/>
        <path d="M581.97,89.92C583.84,92.93 582.49,97.08 585.08,99.88C583.83,96.55 585.39,92.41 581.97,89.92Z" style="fill-rule:nonzero;"/>
        <path d="M279.55,100.18C278.2,89.71 278.41,90.33 275.82,89.91C278.32,93.34 276.93,97.88 279.55,100.18Z" style="fill-rule:nonzero;"/>
        <path d="M581.66,83.49C579.27,80.07 577.72,76.33 575.02,73.43C575.95,77.37 579.17,82.14 581.66,83.49Z" style="fill-rule:nonzero;"/>
        <path d="M275.71,83.38C273.64,80.06 272.18,76.22 269.49,73.32C270,76.33 273.12,81.21 275.71,83.38Z" style="fill-rule:nonzero;"/>
        <path d="M608.41,56.52C606.13,56.62 603.64,55.69 601.88,58.8C607.27,58.91 607.79,58.7 608.41,56.52Z" style="fill-rule:nonzero;"/>
        <path d="M303.19,57.04C298.63,55.9 296.86,56.52 297.17,59.74C298.52,57.25 301.95,60.15 303.19,57.04Z" style="fill-rule:nonzero;"/>
        <path d="M604.26,402.71C607.68,404.37 611.42,404.16 615.05,404.27C611.42,404.06 608,402.4 604.26,402.71Z" style="fill-rule:nonzero;"/>
        <path d="M298.73,402.71C302.36,404.27 306.2,404.78 309.41,404.06C305.78,404.06 302.36,402.4 298.73,402.71Z" style="fill-rule:nonzero;"/>
        <path d="M319.27,420.34C317.2,420.65 315.64,421.79 313.67,422.73C316.99,424.49 318.85,423.66 319.27,420.34Z" style="fill-rule:nonzero;"/>
        <path d="M624.8,420.24C622.83,420.55 621.27,421.8 618.99,422.63C622.83,424.39 624.59,423.56 624.8,420.24Z" style="fill-rule:nonzero;"/>
        <path d="M548.16,470.23C547.23,473.13 546.19,476.04 548.16,479.67L548.16,470.23Z" style="fill-rule:nonzero;"/>
        <path d="M242.52,470.23C241.59,473.13 240.65,476.04 242.52,479.67L242.52,470.23Z" style="fill-rule:nonzero;"/>
        <path d="M279.75,103.09C279.23,104.85 279.02,106.62 280.79,108.48C281.72,106.2 281.41,104.64 279.75,103.09Z" style="fill-rule:nonzero;"/>
        <path d="M586.74,108.38C587.15,106.2 586.95,104.54 585.18,102.36C584.77,104.96 584.46,106.82 586.74,108.38Z" style="fill-rule:nonzero;"/>
        <path d="M312.42,476.97C313.87,474.69 313.46,472.1 313.56,469.5C311.49,471.78 312.42,474.48 312.42,476.97Z" style="fill-rule:nonzero;"/>
        <path d="M618.16,476.97C619.2,474.48 619.4,471.99 619.4,468.88C617.02,471.78 618.16,474.48 618.16,476.97Z" style="fill-rule:nonzero;"/>
        <path d="M614.53,520.42C614.94,518.55 615.15,516.69 614.43,514.82C614.01,516.69 613.81,518.66 614.53,520.42Z" style="fill-rule:nonzero;"/>
        <path d="M298.84,110.14C296.45,109.83 294.17,109.1 291.89,110.14C291.89,111.28 290.88,110.86 298.84,110.14Z" style="fill-rule:nonzero;"/>
        <path d="M597.42,110.97C599.91,110.66 602.29,110.45 604.99,110.14C599.29,109.31 599.29,109.31 597.42,110.97Z" style="fill-rule:nonzero;"/>
        <path d="M252.89,404.68C251.65,406.55 251.65,406.55 254.65,409.35C253.93,407.48 254.24,405.82 252.89,404.68Z" style="fill-rule:nonzero;"/>
        <path d="M557.7,404.68C557.18,406.86 558.63,407.9 559.77,408.93C559.05,407.58 560.29,405.41 557.7,404.68Z" style="fill-rule:nonzero;"/>
        <path d="M308.9,520.42C309.31,518.55 309.52,516.69 308.8,514.82C308.58,516.69 308.17,518.66 308.9,520.42Z" style="fill-rule:nonzero;"/>
        <path d="M308.07,509.74C308.17,508.39 308.59,507.15 307.76,505.8C307.03,507.04 306.82,508.39 308.07,509.74Z" style="fill-rule:nonzero;"/>
        <path d="M613.29,505.8C612.88,507.15 612.15,508.6 613.91,510.16C613.81,508.39 614.12,507.04 613.29,505.8Z" style="fill-rule:nonzero;"/>
        <path d="M285.35,126.42C285.45,124.97 286.18,123.41 284.52,121.86C284.01,123.73 284.63,125.08 285.35,126.42Z" style="fill-rule:nonzero;"/>
        <path d="M228.62,529.86L228.62,525.71C227.69,527.06 227.28,527.99 228.62,529.86Z" style="fill-rule:nonzero;"/>
        <path d="M534.47,526.13C533.43,527.79 533.43,527.79 534.16,529.24C534.26,528.1 534.36,527.16 534.47,526.13Z" style="fill-rule:nonzero;"/>
        <path d="M548.57,464.94C549.09,463.7 549.81,462.66 549.3,460.79C548.78,462.45 547.95,463.48 548.57,464.94Z" style="fill-rule:nonzero;"/>
        <path d="M242.94,465.04C243.35,463.69 244.08,462.76 243.67,460.68C243.25,462.34 242.42,463.38 242.94,465.04Z" style="fill-rule:nonzero;"/>
        <path d="M523.68,457.68C523.78,456.44 523.78,455.29 523.78,454.05C523.64,454.05 523.68,453.64 523.68,457.68Z" style="fill-rule:nonzero;"/>
        <path d="M218.25,457.47C218.25,455.24 218.19,454.47 218.15,454.22C218.15,457.83 218.11,457.47 218.25,457.47Z" style="fill-rule:nonzero;"/>
        <path d="M218.13,454.14C218.13,454.16 218.14,454.18 218.14,454.21L218.14,454.14C218.14,454.15 218.14,454.15 218.13,454.14Z" style="fill-rule:nonzero;"/>
        <path d="M218.13,454.14C218.12,454.07 218.11,454.13 218.13,454.14Z" style="fill-rule:nonzero;"/>
        <path d="M228.1,517.93C227.69,518.66 228.2,519.17 228.31,519.8C228.42,519.18 228.83,518.45 228.1,517.93Z" style="fill-rule:nonzero;"/>
        <path d="M524.41,449.9L524.41,448.55C524.41,450.1 524.19,449.9 524.41,449.9Z" style="fill-rule:nonzero;"/>
        <path d="M218.77,449.79C218.77,449.48 218.77,448.96 218.87,448.44C218.73,448.45 218.77,448.25 218.77,449.79Z" style="fill-rule:nonzero;"/>
        <path d="M594.52,92.3C594.83,91.89 595.66,91.57 594.93,90.95C592.46,91.23 593.58,93.7 594.52,92.3Z" style="fill-rule:nonzero;"/>
        <path d="M533.53,517.73C533.53,518.46 533.53,519.08 534.05,519.39C534.16,518.87 534.36,518.24 533.53,517.73Z" style="fill-rule:nonzero;"/>
        <path d="M277.78,86.6C277.26,85.56 276.74,85.15 275.91,85.98C276.23,87.22 276.85,87.12 277.78,86.6Z" style="fill-rule:nonzero;"/>
        <path d="M583.42,86.6C582.9,85.56 582.38,85.15 581.55,85.98C581.86,87.22 582.49,87.12 583.42,86.6Z" style="fill-rule:nonzero;"/>
        <path d="M616.81,480.29C616.08,480.6 616.19,481.12 616.5,481.64C617.23,481.32 617.44,480.91 616.81,480.29Z" style="fill-rule:nonzero;"/>
        <path d="M310.97,480.39C310.45,480.6 310.56,481.12 310.87,481.84C311.86,481.1 311.75,480.17 310.97,480.39Z" style="fill-rule:nonzero;"/>
        <path d="M289.5,90.85C288.46,91.16 287.74,91.58 287.84,93.24C288.67,92.3 289.5,92.2 289.5,90.85Z" style="fill-rule:nonzero;"/>
        <path d="M531.56,341.21C534.92,349.36 531.1,345.5 534.98,355.73C535.19,353.14 533.34,350.76 534.15,348.99C535.42,346.2 534.16,344.11 533.32,341.94C528.98,330.75 533.18,330.65 533.94,318.81C534.67,307.55 537.48,309.21 536.53,302.63C535.8,297.56 533.69,280.04 536.43,275.67C539.92,270.11 543.96,260.71 537.88,258.25C538.29,267.58 533.84,274.95 530.21,283.04C532.49,282.52 532.49,280.55 534.46,279.51C533.29,288.09 534.7,299.75 535.7,304.61C536.44,308.18 533.27,307.96 532.8,318.61C532.35,328.89 527.62,331.66 531.56,341.21Z" style="fill-rule:nonzero;"/>
        <path d="M572.32,341.21C560.07,356.72 558.76,363.98 555.73,375.23C549.28,372.7 546.04,378.25 548.26,381.87C550.58,385.65 554.07,383.94 557.18,383.74C558.22,379.59 556.68,375.45 558.01,371.4C565.74,347.76 571.05,347.55 573.15,340.7C572.84,340.9 572.53,340.9 572.32,341.21ZM553.55,382.28C550.85,382.28 549.82,381.04 549.92,379.06C549.92,375.56 555.42,375.18 555.42,379.27C554.97,381.22 552.6,377.99 553.55,382.28Z" style="fill-rule:nonzero;"/>
        <path d="M530.63,373.67C530.94,375.64 528.56,374.91 528.04,376.47C528.26,381.85 527.44,386.22 530.22,384.56C530.95,383.73 529.81,382.49 530.84,381.66C533.02,381.25 532.81,385.39 535.71,384.25C535.09,383.32 534.67,382.49 534.15,381.55C539.02,374.82 531.87,376.98 530.63,373.67ZM531.04,379.79C529.55,378.8 530.18,375.94 533.63,378.23C533.43,380.1 532.08,379.69 531.04,379.79Z" style="fill-rule:nonzero;"/>
        <path d="M541.52,375.12C534.76,375.37 535.2,384.97 541.52,384.97C548.29,384.98 548.23,374.88 541.52,375.12ZM541.52,383C537.36,382.51 538.12,376.78 541.62,376.98C545.33,377.2 545.58,382.78 541.52,383Z" style="fill-rule:nonzero;"/>
        <path d="M568.07,254.09C566,260.62 567.66,267.16 567.76,273.69C568.8,267.16 569.52,260.63 568.07,254.09Z" style="fill-rule:nonzero;"/>
        <path d="M617.75,338.93C610.7,333.12 603.65,327.42 596.9,321.2C602.4,328.76 609.76,334.16 617.75,338.93Z" style="fill-rule:nonzero;"/>
        <path d="M600.01,358.01C598.45,350.96 594.41,344.94 593.17,337.27C592.13,340.79 596.59,353.34 600.01,358.01Z" style="fill-rule:nonzero;"/>
        <path d="M572.43,255.96C571.6,261.25 574.5,266.02 574.61,271.21C575.02,271.11 575.44,271.11 575.75,271C572.84,253.2 574.09,255.96 572.43,255.96Z" style="fill-rule:nonzero;"/>
        <path d="M577.71,366C579.06,362.47 580.41,358.95 579.68,355.11C578.65,358.74 577.4,362.26 577.71,366Z" style="fill-rule:nonzero;"/>
        <path d="M554.79,263.63C555,267.26 551.99,269.75 551.89,273.48C556.04,266.54 556.25,265.71 554.79,263.63Z" style="fill-rule:nonzero;"/>
        <path d="M623.45,287.28C622.1,283.86 620.65,280.33 619.3,276.81C619.2,280.85 621.27,284.06 623.45,287.28Z" style="fill-rule:nonzero;"/>
        <path d="M593.69,268.72L593.69,255.96C592.75,260.21 593.38,264.46 593.69,268.72Z" style="fill-rule:nonzero;"/>
        <path d="M550.54,255.13C550.03,255.06 549.68,255.04 549.38,255C548.85,255 547.67,259.09 548.36,261.25C549.61,259.38 550.13,257.41 550.54,255.13Z" style="fill-rule:nonzero;"/>
        <path d="M549.09,254.82L548.99,254.92C549.08,254.97 549.06,254.91 549.09,254.82Z" style="fill-rule:nonzero;"/>
        <path d="M565.37,253.37C563.3,252.64 561.64,253.47 559.77,254.1C561.85,254.92 563.61,254.2 565.37,253.37Z" style="fill-rule:nonzero;"/>
        <path d="M555.11,273.38C553.87,274.42 555.42,275.87 554.7,277.11C555.42,275.97 556.14,274.83 555.11,273.38Z" style="fill-rule:nonzero;"/>
        <path d="M580.51,254.4L575.32,254.4C577.09,255.44 578.75,255.34 580.51,254.4Z" style="fill-rule:nonzero;"/>
        <path d="M604.99,303.35C604.26,302.21 603.12,301.9 601.88,302C602.81,302.84 603.64,303.56 604.99,303.35Z" style="fill-rule:nonzero;"/>
        <path d="M599.7,251.91C598.46,252.64 598.77,253.36 599.18,254.4C599.91,253.57 600.53,253.05 599.7,251.91Z" style="fill-rule:nonzero;"/>
        <path d="M595.45,253.99C596.28,253.26 596.38,252.64 595.55,251.81C594.62,252.54 594.62,253.16 595.45,253.99Z" style="fill-rule:nonzero;"/>
        <path d="M607.17,304.5C606.65,303.26 605.72,303.36 604.89,303.46C605.41,304.29 606.24,304.18 607.17,304.5Z" style="fill-rule:nonzero;"/>
        <path d="M576.99,369.94C577.09,369.42 577.2,369.01 577.2,368.59C576.68,369 576.37,369.42 576.99,369.94Z" style="fill-rule:nonzero;"/>
        <path d="M585.29,326.59C586.92,326.08 587.75,325.27 588.57,324.36C588.68,324.47 590.37,323.99 590.17,322.75C588.98,322.62 586.32,325.2 585.29,326.59Z" style="fill-rule:nonzero;"/>
        <path d="M591.51,253.26C592.03,253.26 592.44,253.78 593.38,252.85C592.55,253.05 592.34,251.81 591.51,253.26Z" style="fill-rule:nonzero;"/>
        <path d="M531.25,370.87C531.35,370.56 531.66,370.35 531.25,370.04L531.25,370.87Z" style="fill-rule:nonzero;"/>
        <path d="M573.15,340.69C573.98,340.28 574.39,339.76 574.39,338.51C573.57,339.24 572.94,339.76 573.15,340.69Z" style="fill-rule:nonzero;"/>
        <path d="M561.95,135.97C567.22,138.61 575.53,133.8 576.37,138.25C568.12,138.94 571.4,138.82 561.95,139.18C562.99,140.94 564.33,141.02 565.68,140.94C578.96,140.18 579.64,138.7 579.78,146.33C574.8,146.43 569.82,146.12 564.85,146.23C573.55,150.41 583.23,145.12 581.34,150.79L568.06,150.79C571.83,154.56 578.44,149.01 583.31,155.04C584.35,151.82 583.72,149.23 582.79,146.74C586.94,144.15 587.66,141.87 586.01,137.41C583.94,136.58 581.97,137.41 579.99,137.82C579.68,137.92 579.99,138.44 580.2,138.65C581.47,139.97 583.1,138.34 584.45,139.17C585.18,142.9 584.76,143.63 581.44,144.04C581.81,141.7 580.2,139.42 580.2,138.65C575.51,139.69 580.01,134.61 574.91,134.09C572.11,133.8 555.79,132.74 558.52,139.59C559.98,138.77 560.19,136.79 561.95,135.97Z" style="fill-rule:nonzero;"/>
        <path d="M529.49,106.1C531.12,104.1 534.26,104.03 534.99,101.02C525.58,102.53 518.08,120.08 529.49,106.1Z" style="fill-rule:nonzero;"/>
        <path d="M516.53,187.09C514.25,188.54 512.07,189.89 509.48,191.45C514.87,190.1 515.59,189.69 516.53,187.09Z" style="fill-rule:nonzero;"/>
        <path d="M523.68,174.86C521.19,174.86 519.64,175.79 518.18,177.25C519.84,176.62 522.02,177.03 523.68,174.86Z" style="fill-rule:nonzero;"/>
        <path d="M560.81,152.77C560.5,155.26 560.5,155.26 562.68,156.19C562.78,154.74 562.05,153.8 560.81,152.77Z" style="fill-rule:nonzero;"/>
        <path d="M559.88,146.03C558.01,148 558.74,148.93 560.61,149.87C560.81,148.51 560.6,147.48 559.88,146.03Z" style="fill-rule:nonzero;"/>
        <path d="M526.17,142.81C527.87,143.31 529.01,142.69 530.32,141.67C530.19,141.54 527.21,140.62 526.17,142.81Z" style="fill-rule:nonzero;"/>
        <path d="M559.05,141.05C558.12,142.09 558.74,142.81 560.09,144.06C559.98,142.5 560.4,141.57 559.05,141.05Z" style="fill-rule:nonzero;"/>
        <path d="M523.47,142.5C522.43,142.5 521.81,142.71 521.29,143.54C522.23,143.74 522.96,143.95 523.47,142.5Z" style="fill-rule:nonzero;"/>
        <path d="M515.8,144.99C514.24,145.09 513.73,145.72 513.31,147.06C514.45,146.65 515.18,146.13 515.8,144.99Z" style="fill-rule:nonzero;"/>
        <path d="M514.45,125.91C513.52,126.01 513.41,126.53 513.83,127.26C514.45,126.94 514.76,126.53 514.45,125.91Z" style="fill-rule:nonzero;"/>
        <path d="M518.08,118.54C516.94,118.95 516.94,119.58 517.35,120.3C518.08,119.99 518.5,119.58 518.08,118.54Z" style="fill-rule:nonzero;"/>
        <path d="M499.31,196.53C500.14,196.74 500.55,196.43 500.87,195.7C500.04,195.29 499.62,195.6 499.31,196.53Z" style="fill-rule:nonzero;"/>
        <path d="M503.04,185.64C504.18,185.85 504.6,185.23 505.32,184.6C504.08,184.29 503.46,184.71 503.04,185.64Z" style="fill-rule:nonzero;"/>
        <path d="M503.56,194.77C504.29,194.67 504.91,194.56 505.22,193.53C504.39,193.73 503.67,193.63 503.56,194.77Z" style="fill-rule:nonzero;"/>
        <path d="M510.51,149.34C509.89,149.55 509.47,149.86 509.58,150.69C510.72,150.8 511.13,150.38 510.51,149.34Z" style="fill-rule:nonzero;"/>
        <path d="M495.26,183.78C495.78,183.57 495.88,183.16 495.47,182.43C495.06,183.05 494.95,183.36 495.26,183.78Z" style="fill-rule:nonzero;"/>
        <path d="M500.76,188.65C499.83,188.65 499.62,188.96 499.93,189.69C500.55,189.69 500.86,189.27 500.76,188.65Z" style="fill-rule:nonzero;"/>
        <path d="M547.02,112.11C547.12,112.11 547.33,111.8 547.43,111.7C546.84,110.52 545.82,112.11 547.02,112.11Z" style="fill-rule:nonzero;"/>
        <path d="M595.86,225.36C598.97,223.18 599.28,220.17 597.73,211.57C595.03,216.13 596.9,220.7 595.86,225.36Z" style="fill-rule:nonzero;"/>
        <path d="M596.18,233.97C595.15,231.73 598.66,220.53 592.14,241.75C594.59,239.61 594.23,236.38 596.08,234.11C596.38,237.63 594.42,241.14 595.77,244.86C597.96,238.07 595.81,234.46 596.18,233.97Z" style="fill-rule:nonzero;"/>
        <path d="M598.98,205.56C602.3,207.74 605.1,207.53 608.73,205.87C605.2,206.28 602.5,204.93 598.98,205.56Z" style="fill-rule:nonzero;"/>
        <path d="M588.29,216.55C589.43,217.17 590.57,218.21 592.23,217.28C591.09,215.72 589.64,216.34 588.29,216.55Z" style="fill-rule:nonzero;"/>
        <path d="M542.14,224.85L542.14,224.95C546.03,224.95 545.1,224.85 542.14,224.85Z" style="fill-rule:nonzero;"/>
        <path d="M612.25,165.42C612.98,166.35 613.6,166.77 614.95,165.94C614.12,165 613.29,165 612.25,165.42Z" style="fill-rule:nonzero;"/>
        <path d="M617.75,165.32C619.1,165.63 619.82,166.46 620.65,165.11C619.82,164.59 619.1,164.28 617.75,165.32Z" style="fill-rule:nonzero;"/>
        <path d="M610.69,205.56C611.31,206.18 611.93,206.29 612.66,205.56C612.04,204.93 611.42,204.93 610.69,205.56Z" style="fill-rule:nonzero;"/>
        <path d="M634.34,205.04C635.79,206.28 636.93,206.08 638.18,205.14C637.04,204.62 635.9,204 634.34,205.04Z" style="fill-rule:nonzero;"/>
        <path d="M656.22,198.09C657.71,197.89 659.7,198.14 660.16,196.02C658.61,196.32 657.16,196.84 656.22,198.09Z" style="fill-rule:nonzero;"/>
        <path d="M664,183.05C665.87,182.64 667.11,182.53 668.15,180.66C666.39,181.29 665.14,181.49 664,183.05Z" style="fill-rule:nonzero;"/>
        <path d="M635.9,125.49C636.42,127.15 635.69,128.39 637.46,129.22C637.66,127.77 637.76,126.73 635.9,125.49Z" style="fill-rule:nonzero;"/>
        <path d="M664.62,177.35C663.38,176.83 662.86,177.45 662.13,178.18C663.28,178.9 664,178.69 664.62,177.35Z" style="fill-rule:nonzero;"/>
        <path d="M656.22,180.66C655.7,180.97 654.66,180.66 655.08,182.11C655.71,181.81 656.33,181.81 656.22,180.66Z" style="fill-rule:nonzero;"/>
        <path d="M641.81,181.7C642.54,181.18 643.37,180.87 642.85,179.73C641.91,180.25 641.39,180.56 641.81,181.7Z" style="fill-rule:nonzero;"/>
        <path d="M631.23,185.12C631.13,186.05 631.44,186.47 632.27,186.57C632.47,185.75 632.06,185.33 631.23,185.12Z" style="fill-rule:nonzero;"/>
        <path d="M660.99,185.33C660.26,185.02 659.75,185.12 659.85,186.16C660.48,186.16 660.89,186.06 660.99,185.33Z" style="fill-rule:nonzero;"/>
        <path d="M629.88,187.09C628.92,186.61 629.03,188.36 630.19,188.13C630.5,187.72 630.4,187.3 629.88,187.09Z" style="fill-rule:nonzero;"/>
        <path d="M639.84,191.14C640.57,191.24 640.98,190.93 640.67,190.21C639.94,190.1 639.63,190.31 639.84,191.14Z" style="fill-rule:nonzero;"/>
        <path d="M597.73,167.7C573.61,157.03 541.83,175.5 547.43,190.31C547.43,167.93 585.22,159.86 601.57,171.33C610.77,177.78 605.68,190.22 595.45,195.7C593.36,196.82 591.09,197.67 588.61,199.64C601.24,197.73 619.87,177.49 597.73,167.7Z" style="fill-rule:nonzero;"/>
        <path d="M572.53,203.38C574.29,204 575.54,203.28 576.78,202.76C575.43,202.44 574.08,202.03 572.53,203.38Z" style="fill-rule:nonzero;"/>
        <path d="M572.84,186.89C572.53,186.48 572.53,185.54 571.7,186.27C566.84,201.16 590.4,194.91 588.29,190C591.01,180.59 578.28,179.92 572.84,186.89ZM575.85,193.84C575.95,193.22 576.58,193.74 576.99,193.84C576.57,194.15 575.74,194.15 575.85,193.84ZM586.22,189.69C580.97,195.74 568.8,190.5 576.26,185.85C582.71,181.84 589.96,185.38 586.22,189.69Z" style="fill-rule:nonzero;"/>
        <path d="M584.97,201.1C585.8,200.89 586.94,201.51 587.46,200.06C586.53,200.27 585.6,200.06 584.97,201.1Z" style="fill-rule:nonzero;"/>
        <path d="M548.36,193.42C548.98,194.25 548.67,195.6 550.64,196.12C549.82,194.77 549.82,193.63 548.36,193.42Z" style="fill-rule:nonzero;"/>
        <path d="M580.31,202.86C581.55,202.86 582.49,202.86 583.11,201.72C582.07,201.82 581.14,201.61 580.31,202.86Z" style="fill-rule:nonzero;"/>
        <path d="M683.19,158.78C683.09,159.92 683.5,160.44 684.23,160.65C684.74,159.51 684.43,158.99 683.19,158.78Z" style="fill-rule:nonzero;"/>
        <path d="M680.6,152.97C680.91,153.18 680.39,154.32 681.64,153.59C681.53,153.08 681.22,152.87 680.6,152.97Z" style="fill-rule:nonzero;"/>
        <path d="M683.81,194.67C687.85,196.95 698.54,193.84 700.4,189.9C696.77,187.41 685.26,190.62 683.81,194.67ZM686.4,193.94C687.54,191.76 688.89,193.53 690.13,193.53C690.67,193.53 690.94,191.97 694.69,191.97C693.14,193.53 688.03,194.19 686.4,193.94ZM698.12,190.62C696.98,191.66 695.94,191.97 694.8,192.07C695.43,190.83 696.36,190.21 698.12,190.62Z" style="fill-rule:nonzero;"/>
        <path d="M266.58,341.42C253.49,358.44 253.18,365.25 250.3,375.13C243.78,372.57 240.63,378.27 242.83,381.77C245.16,385.47 248.64,383.84 251.65,383.64C252.79,379.8 251.16,376.08 252.27,372.34C259.09,349.39 265.46,347.65 267.52,340.71C267,340.59 266.79,341 266.58,341.42ZM247.91,382.07C243.82,383.24 242.7,376.94 246.67,376.47C248.64,376.06 249.78,377.3 249.78,379.69C248.12,379.79 246.57,379.79 247.91,382.07Z" style="fill-rule:nonzero;"/>
        <path d="M288.36,323.47C286.63,317.51 292.32,314.62 290.85,300.76C290.51,297.55 290.54,294.12 288.46,291.22C289.5,297.75 290.12,304.18 288.98,310.72C288.94,310.62 287.12,294.54 287.42,315.28C287.45,317.46 286.06,319.54 286.59,321.4C287.38,324.13 287.44,327.05 287,329.8C288.15,327.83 289.11,326.06 288.36,323.47Z" style="fill-rule:nonzero;"/>
        <path d="M226.03,375.33C225.2,375.02 225.41,374.4 224.99,373.88C224.8,376.98 220.9,372.08 222.71,384.77C226.13,385.5 223.85,382.28 225.41,381.76C227.48,381.66 227.28,385.39 229.87,384.56C230.18,383.32 228.83,382.8 228.73,381.76C231.32,377.72 231.01,376.78 226.03,375.33ZM224.89,379.79C225.1,376.78 225.1,376.78 228,378.13C227.9,380.1 226.55,379.89 224.89,379.79Z" style="fill-rule:nonzero;"/>
        <path d="M236.19,375.12C229.31,374.87 229.25,384.97 235.98,384.97C242.33,384.98 242.84,375.37 236.19,375.12ZM236.09,383C231.94,382.54 232.47,376.98 235.99,376.98C239.85,376.99 239.98,382.79 236.09,383Z" style="fill-rule:nonzero;"/>
        <path d="M261.91,274.73C263.36,267.99 263.78,261.04 262.53,254.09C260.26,260.83 262.43,267.89 261.91,274.73Z" style="fill-rule:nonzero;"/>
        <path d="M312.11,338.93C305.06,333.23 298.01,327.31 291.26,321.2C296.87,328.76 304.13,334.26 312.11,338.93Z" style="fill-rule:nonzero;"/>
        <path d="M294.17,358.01C292.93,350.96 288.88,344.84 287.12,337.89C287.53,345.25 291.58,351.37 294.17,358.01Z" style="fill-rule:nonzero;"/>
        <path d="M266.89,255.96C266.06,261.35 269.07,266.02 269.07,271.21C269.48,271.11 269.8,271.11 270.21,271C267.33,253.35 268.55,255.96 266.89,255.96Z" style="fill-rule:nonzero;"/>
        <path d="M271.77,366.31C274.05,362.58 274.99,356.98 273.64,355.11C273.01,358.74 271.87,362.26 271.77,366.31Z" style="fill-rule:nonzero;"/>
        <path d="M288.15,268.51L288.15,255.96C287.22,260.21 287.74,264.36 288.15,268.51Z" style="fill-rule:nonzero;"/>
        <path d="M317.4,286.14C316.16,282.82 315.01,279.92 313.87,276.91C313.77,280.54 314.7,282.92 317.4,286.14Z" style="fill-rule:nonzero;"/>
        <path d="M227.9,345.36C226.86,348.89 228,352.1 229.46,356.15C229.35,352 227.48,348.78 227.9,345.36Z" style="fill-rule:nonzero;"/>
        <path d="M253.51,254.3C256.21,255.03 257.97,254.09 259.73,253.37C257.77,252.74 256,253.37 253.51,254.3Z" style="fill-rule:nonzero;"/>
        <path d="M296.24,302.01C297.8,303.25 299.56,303.98 301.43,304.19C299.87,303.15 298.21,302.11 296.24,302.01Z" style="fill-rule:nonzero;"/>
        <path d="M284.21,322.54C282.55,323.47 281.1,324.72 280.27,326.58C285.58,322.7 284.98,323.31 284.21,322.54Z" style="fill-rule:nonzero;"/>
        <path d="M274.77,254.3L269.79,254.3C271.46,255.44 273.12,255.23 274.77,254.3Z" style="fill-rule:nonzero;"/>
        <path d="M294.17,252.02C292.72,252.43 293.13,253.26 293.44,254.2C294.48,253.68 294.79,253.05 294.17,252.02Z" style="fill-rule:nonzero;"/>
        <path d="M290.02,254.09C290.43,253.26 290.85,252.64 289.92,251.81C289.19,252.43 288.88,253.05 290.02,254.09Z" style="fill-rule:nonzero;"/>
        <path d="M271.35,369.94C271.45,369.42 271.56,369.01 271.56,368.59C271.15,369 270.83,369.42 271.35,369.94Z" style="fill-rule:nonzero;"/>
        <path d="M285.98,252.85C286.39,253.58 286.91,253.58 287.43,253.26C287.12,252.74 286.81,252.12 285.98,252.85Z" style="fill-rule:nonzero;"/>
        <path d="M308.17,273.17C307.86,272.44 307.65,271.82 306.93,271.51C306.93,272.35 307.03,273.07 308.17,273.17Z" style="fill-rule:nonzero;"/>
        <path d="M225.72,370.04C225.72,371.51 225.68,370.33 225.82,370.04L225.72,370.04Z" style="fill-rule:nonzero;"/>
        <path d="M267.62,340.69C268.45,340.28 268.76,339.65 268.86,338.41C267.93,339.24 267.41,339.76 267.62,340.69Z" style="fill-rule:nonzero;"/>
        <path d="M291.89,211.88C289.71,216.24 291.06,220.7 290.44,225.26C293.34,223.29 293.86,217.27 291.89,211.88Z" style="fill-rule:nonzero;"/>
        <path d="M234.33,163.86C233.4,168.42 235.68,170.91 241.07,171.53C237.85,169.88 236.09,166.87 234.33,163.86Z" style="fill-rule:nonzero;"/>
        <path d="M290.64,229.62C288.67,233.56 286.91,239.78 287.22,241.96C288.12,240.76 291.2,231.7 290.64,229.62Z" style="fill-rule:nonzero;"/>
        <path d="M292.72,195.81C291.48,195.81 291.79,193.92 291.79,208.46C292.51,204.21 293.03,200.06 292.72,195.81Z" style="fill-rule:nonzero;"/>
        <path d="M286.81,154.32C285.15,156.6 284.32,159.09 282.14,160.54C287.01,158.99 288.05,157.64 286.81,154.32Z" style="fill-rule:nonzero;"/>
        <path d="M303.09,205.87C299.56,206.28 296.87,204.83 293.34,205.56C296.66,207.73 299.46,207.53 303.09,205.87Z" style="fill-rule:nonzero;"/>
        <path d="M290.33,244.86C291.06,241.33 291.78,237.7 290.54,234.07C290.75,237.6 288.88,241.13 290.33,244.86Z" style="fill-rule:nonzero;"/>
        <path d="M288.05,204.62C285.35,203.06 282.35,203.69 279.55,203.38C282.24,204.52 285.04,205.66 288.05,204.62Z" style="fill-rule:nonzero;"/>
        <path d="M293.55,174.34C293.14,176.52 291.48,178.49 292.51,181.5C294.38,178.9 293.75,176.52 293.55,174.34Z" style="fill-rule:nonzero;"/>
        <path d="M246.57,159.82C247.92,161.48 249.37,162.1 251.13,161.89C249.88,160.96 248.95,159.2 246.57,159.82Z" style="fill-rule:nonzero;"/>
        <path d="M281.93,216.44C283.9,217.27 285.04,218.1 286.7,217.37C285.46,215.82 284.01,216.34 281.93,216.44Z" style="fill-rule:nonzero;"/>
        <path d="M272.6,204.73C271.46,203.59 270.42,203.8 268.76,204.11C270.21,205.35 271.15,205.56 272.6,204.73Z" style="fill-rule:nonzero;"/>
        <path d="M236.51,224.85C236.51,225 236.11,224.95 239.21,224.95C239.06,224.8 239.48,224.85 236.51,224.85Z" style="fill-rule:nonzero;"/>
        <path d="M235.26,180.56C235.67,181.6 236.19,182.22 237.54,182.43C236.92,181.39 236.51,180.56 235.26,180.56Z" style="fill-rule:nonzero;"/>
        <path d="M241.9,172.68C242.42,173.92 243.25,174.44 244.91,174.55C244.18,173.09 243.45,172.58 241.9,172.68Z" style="fill-rule:nonzero;"/>
        <path d="M309.1,165.63C308.37,165.11 307.65,165.01 306.51,165.53C307.45,166.15 309.1,167.35 309.1,165.63Z" style="fill-rule:nonzero;"/>
        <path d="M315.33,165.42C314.29,164.49 313.57,164.38 312.11,165.21C313.25,165.73 313.98,165.94 315.33,165.42Z" style="fill-rule:nonzero;"/>
        <path d="M246.15,174.34C246.67,175.27 247.19,175.79 248.95,175.79C247.81,174.65 247.4,173.72 246.15,174.34Z" style="fill-rule:nonzero;"/>
        <path d="M256.63,163.34C256.01,163.13 255.39,162.2 254.45,162.82C254.97,163.97 255.69,163.86 256.63,163.34Z" style="fill-rule:nonzero;"/>
        <path d="M265.13,164.38C264.51,163.65 263.99,163.55 263.06,164.17C263.68,164.69 264.09,165.42 265.13,164.38Z" style="fill-rule:nonzero;"/>
        <path d="M243.97,225.57C244.38,225.67 244.8,225.67 245.21,225.67C244.02,225.37 243.87,225.57 243.97,225.57Z" style="fill-rule:nonzero;"/>
        <path d="M293.44,193.42C293.96,192.8 293.96,192.18 293.54,191.55C293.03,192.18 293.13,192.8 293.44,193.42Z" style="fill-rule:nonzero;"/>
        <path d="M306.93,205.45C306.31,205.45 305.69,204.62 305.17,205.66C305.78,206.18 306.3,206.18 306.93,205.45Z" style="fill-rule:nonzero;"/>
        <path d="M233.08,134.1C230.38,135.03 229.63,137.7 227.89,139.39C222.09,145.02 217.95,144.78 216.17,149.76C218.89,149.57 220.04,147.09 227.68,142.09C230.39,140.32 232.36,137.62 233.08,134.1Z" style="fill-rule:nonzero;"/>
        <path d="M198.24,217.07C196.89,222.36 196.37,227.75 198.55,233.04C198.03,227.65 198.55,222.25 198.24,217.07Z" style="fill-rule:nonzero;"/>
        <path d="M229.56,101.12C224.89,101.12 223.13,104.34 221.68,107.96C223.54,104.85 227.9,104.44 229.56,101.12Z" style="fill-rule:nonzero;"/>
        <path d="M225.51,151C223.12,154.63 222.5,158.57 222.4,162.72C223.33,158.89 224.37,154.94 225.51,151Z" style="fill-rule:nonzero;"/>
        <path d="M210.89,199.64C210.68,202.34 210.89,204.2 212.45,205.86C212.34,204 212.55,201.93 210.89,199.64Z" style="fill-rule:nonzero;"/>
        <path d="M218.67,111.8C217.32,113.25 217.01,114.5 217.63,116.05C218.05,114.81 219.39,113.87 218.67,111.8Z" style="fill-rule:nonzero;"/>
        <path d="M207.16,150.28C207.47,148.83 206.95,147.69 206.23,146.65C206.22,147.79 205.7,149.14 207.16,150.28Z" style="fill-rule:nonzero;"/>
        <path d="M209.64,193.84C210.26,192.49 209.95,191.45 208.81,189.9C208.71,191.66 208.3,192.8 209.64,193.84Z" style="fill-rule:nonzero;"/>
        <path d="M198.96,238.95C199.37,240.09 199.69,241.13 200,242.27C200.41,240.92 200.41,239.78 198.96,238.95Z" style="fill-rule:nonzero;"/>
        <path d="M212.76,151.21C211.41,151.94 211.52,152.87 211.83,154.01C212.24,153.18 213.07,152.56 212.76,151.21Z" style="fill-rule:nonzero;"/>
        <path d="M214.83,122.59C214.93,122.18 215.24,121.76 214.73,121.03C214.52,121.76 214.21,122.17 214.83,122.59Z" style="fill-rule:nonzero;"/>
        <path d="M339.7,200.47C338.56,202.96 341.05,204.2 341.57,206.28C338.01,207.62 342.98,211.55 343.85,215.2C344.89,215.1 345.32,214.47 345.09,213.64C344.22,210.49 343.55,200.28 339.7,200.47Z" style="fill-rule:nonzero;"/>
        <path d="M341.46,187.51C339.37,187.93 339.69,192.84 338.56,196.12C336.9,197.78 334.62,198.51 333.17,200.68C338.35,201.1 341.67,193.84 341.46,187.51Z" style="fill-rule:nonzero;"/>
        <path d="M340.01,164.49L340.01,151.94C339.81,154.71 337.23,164.49 340.01,164.49Z" style="fill-rule:nonzero;"/>
        <path d="M340.53,137.42C338.66,139.39 338.66,141.78 338.87,144.99C340.63,142.29 339.7,139.7 340.53,137.42Z" style="fill-rule:nonzero;"/>
        <path d="M345.4,221.73C345.5,219.34 345.71,216.86 343.74,215.09C343.95,217.48 344.05,219.76 345.4,221.73Z" style="fill-rule:nonzero;"/>
        <path d="M343.43,181.08C341.36,183.47 341.25,183.78 341.56,186.68C343.02,185.02 343.12,183.26 343.43,181.08Z" style="fill-rule:nonzero;"/>
        <path d="M344.05,174.34C343.32,175.9 342.49,176.93 344.05,178.7C344.36,177.03 344.57,175.89 344.05,174.34Z" style="fill-rule:nonzero;"/>
        <path d="M346.23,241.13C345.92,240.82 345.71,240.51 345.4,240.2C345.19,240.92 345.71,241.13 346.23,241.13Z" style="fill-rule:nonzero;"/>
        <path d="M350.69,251.71C350.69,252.02 350.79,252.33 350.79,252.64C351,252.33 351.21,251.91 350.69,251.71Z" style="fill-rule:nonzero;"/>
        <path d="M244.49,320.78C249.86,316.57 255.59,307.43 254.24,304.19C252.83,311.63 243.84,323.83 233.08,322.55C212.61,320.1 199.64,297.59 207.98,279.61C208.29,278.78 209.02,278.05 208.71,277.02C207.67,277.33 207.57,278.26 207.05,279.09C193.77,307.47 227.93,333.77 244.49,320.78Z" style="fill-rule:nonzero;"/>
        <path d="M236.36,285.41C234.36,285.41 231.01,283.5 227.69,287.59C223.84,292.32 227.52,300.99 233.81,301.18C243.34,301.46 244.71,290.56 239.31,286.56C234.95,281.79 228.73,282 226.14,287.49C229.41,285.03 232.49,282.48 236.36,285.41ZM241.07,294.75C241.02,294.64 239.54,288.74 239.51,288.63C241.17,290.39 241.79,292.47 241.07,294.75ZM238.79,293.4C238.92,301.94 228.32,300.12 228.32,292.47C228.31,284.13 238.67,285.64 238.79,293.4Z" style="fill-rule:nonzero;"/>
        <path d="M255.38,300.04C255.07,300.14 254.97,300.45 255.17,300.77C255.59,300.66 255.48,300.35 255.38,300.04Z" style="fill-rule:nonzero;"/>
        <path d="M210.27,274.94C209.23,275.98 208.71,276.29 208.82,277.12C209.75,277.01 209.75,276.18 210.27,274.94Z" style="fill-rule:nonzero;"/>
        <path d="M336.59,283.13C336.9,282.3 337.63,281.57 337.32,280.54C336.28,280.75 336.18,281.78 335.66,282.61C325.81,303.66 342.29,325.11 360.03,327.52C375.78,329.65 384.3,311.2 382.85,307.71C382.12,311.55 380.07,314.88 377.77,317.77C359.19,341.01 324.23,309.6 336.59,283.13Z" style="fill-rule:nonzero;"/>
        <path d="M356.29,291.01C352.44,295.74 356.12,304.41 362.41,304.6C371.94,304.88 373.31,293.98 367.91,289.98C363.55,285.21 357.33,285.42 354.95,290.5C360.35,286.93 361.75,286.78 364.95,288.84C362.98,288.84 359.62,286.92 356.29,291.01ZM369.67,298.27C369.46,296.09 368.63,294.12 367.8,291.43C369.88,293.81 370.29,295.89 369.67,298.27ZM367.39,296.82C367.52,305.35 357.05,303.69 356.81,296.09C356.54,287.68 367.27,288.99 367.39,296.82Z" style="fill-rule:nonzero;"/>
        <path d="M383.98,303.46C383.67,303.67 383.57,303.87 383.77,304.19C384.19,304.08 384.09,303.77 383.98,303.46Z" style="fill-rule:nonzero;"/>
        <path d="M338.87,278.46C337.83,279.39 337.31,279.7 337.42,280.53C338.35,280.43 338.35,279.71 338.87,278.46Z" style="fill-rule:nonzero;"/>
        <path d="M583,185.54C580.51,185.37 578.44,186.47 576.88,188.76C582.69,187.72 582.69,187.72 583.41,189.17C582.68,190.31 581.02,189.9 580.19,191.24C586.58,191.56 586.31,185.77 583,185.54Z" style="fill-rule:nonzero;"/>
        <path d="M234.74,297.65C236.41,296.95 237.02,294.75 236.09,292.46C235.31,299.06 231.75,294.93 230.8,294.85C231.73,296.41 232.17,298.73 234.74,297.65Z" style="fill-rule:nonzero;"/>
        <path d="M363.34,301.18C365,299.94 366.35,298.48 365,295.68C363.49,302.85 360.8,298.39 359.19,298.27C361.37,301.38 362.1,302.01 363.34,301.18Z" style="fill-rule:nonzero;"/>
    </g>
</svg>
