<?xml version="1.0" encoding="UTF-8" standalone="no"?>
<!DOCTYPE svg PUBLIC "-//W3C//DTD SVG 1.1//EN" "http://www.w3.org/Graphics/SVG/1.1/DTD/svg11.dtd">
<svg width="100%" height="100%" viewBox="0 0 900 600" version="1.1" xmlns="http://www.w3.org/2000/svg" xmlns:xlink="http://www.w3.org/1999/xlink" xml:space="preserve" xmlns:serif="http://www.serif.com/" style="fill-rule:evenodd;clip-rule:evenodd;stroke-linejoin:round;stroke-miterlimit:2;">
    <g>
        <path d="M78.01,436.95C78.03,436.94 78.04,436.94 78.05,436.93C77.88,436.76 77.85,436.74 78.01,436.95Z" style="fill-rule:nonzero;"/>
        <path d="M428.22,505.88C418.3,499.11 410.91,497.39 402.56,485.5C404.99,480.43 400.42,478.61 398.4,475.66C396.87,473.43 394.55,473.02 392.42,475.36C391.74,474.45 393.15,446.21 393.94,440.48C394.67,435.17 402.44,412.18 402.26,387.04C402.2,378.96 405.31,377.27 402.06,365.95C399.85,358.26 405.8,353.1 398.92,349.42C396.65,347.91 400.59,345.48 386.24,339.08C355.37,325.31 345.95,314.79 316.88,309.16C314.85,308.77 313.93,306.49 311.4,306.93C309.57,307.25 298.62,308.53 295.88,314.03C311.9,307.44 311.6,308.45 327.82,313.22C319.06,317.75 314.87,334.86 313.12,338.98C305.87,355.99 309.16,347.47 292.74,367.37C295.07,369.8 292.84,373.15 294.87,375.89C292.13,375.69 290.29,374.68 289.39,372.64C288.46,370.52 286.14,370.1 284.52,368.89C298.19,346.38 297.03,344.22 302.88,335.93C303.38,335.22 303.89,334.41 303.69,333.5C303.28,331.07 304.5,328.94 304.6,326.81C308.15,324.27 312,322.75 315.15,320.02C314.74,319.21 315.83,318.75 304.3,325.29C304,322.55 302.27,320.63 301.36,318.7C301.36,317.58 302.68,317.79 302.58,316.77C294.77,318.55 290.76,306.83 273.88,311.8C272.86,312.1 271.95,312.31 270.94,312.1C276.62,309.97 282.37,308.55 288.08,306.93C300.14,303.49 299.21,307.54 302.68,307.54C303.1,307.96 301.99,309.04 301.86,309.16C307.84,306.64 295.23,301.63 287.37,303.48C284.53,300.94 280.78,300.92 277.13,300.74C267.2,300.25 242.73,272.5 239.1,257.54C234.17,237.22 215.6,232.27 211.82,229.75C209.68,223.69 228.07,208.68 226.63,169.72C226.34,161.81 227.53,154 227.34,146.19C227.23,141.63 228.89,136.97 229.98,132.5C234.38,114.36 214.43,84.88 218.82,83.42C230.28,82.91 237.06,76.82 241.53,66.52C250.64,45.49 227.71,6.23 197.82,30.22C194.44,27.82 187.02,23.76 183.22,24.64C159.93,30.07 154.05,53.7 163.55,74.33C169.27,86.77 179.48,91.79 196,88.12C199.99,110.53 199.55,94.77 193.26,133.45C192.73,136.69 193.41,139.92 194.38,142.88C196.77,150.23 194.08,155.31 195.9,156.98C201.22,154.85 191.52,143.41 200.36,109.11C202.35,101.4 197.74,92.94 198.33,87C202.69,82.94 207.96,79.8 209.99,73.31C211.41,75.74 211.7,77.88 212.12,79.8C214.37,90.06 219.77,97.53 224.19,110.93C224.51,111.89 227.62,131.31 223.18,140.64C223.08,140.84 223.18,141.15 223.18,140.94C223.18,142.36 224.5,141.85 224.7,142.87C223.58,146.01 223.61,149.45 224.8,152.81C225.63,155.14 224.74,157.17 224.6,159.3C222,198.66 226.82,188.85 208.48,228.16C206.15,227.04 205.23,224.61 203.41,223.09C204.73,220.45 207.37,219.14 208.99,216.09C205.74,217.41 203.72,219.23 201.69,221.26C192.06,213.76 180.9,214.87 169.75,214.87C172.39,211.93 177.36,210.92 177.96,205.54C181.51,205.54 183.33,201.38 187.19,201.59C188.2,200.47 188.1,199.05 188.31,197.74C191.95,161.38 210.54,146.81 205.75,143.08C200.53,155.75 200.64,152.07 196.32,159.51C188.78,172.49 185.81,193.13 185.67,198.86C182.12,199.37 179.31,201.04 176.54,202.92C174.23,204.48 170.86,205.66 171.88,209.61C169.85,211.23 169.24,214.48 166,214.78C165.49,216.2 165.9,218.03 164.38,219.14C160.73,218.43 156.77,219.34 152.72,217.92C151.71,216.8 150.79,214.88 148.46,214.37C149.27,212.24 148.99,210.12 149.58,207.98C150,206.46 149.67,204.64 148.57,203.42C143.97,198.34 146.34,192.57 138.53,190.44C139.65,183.04 139.65,183.04 134.37,180.7C133.36,179.99 133.86,178.67 133.36,177.66C123.21,174.97 130.77,176.98 131.64,179.49C130.32,180 129.21,178.17 127.99,179.59C129.61,181.21 131.74,181.11 133.77,181.52C141.33,183.03 132.08,188.7 140.77,192.67C137.22,192.87 134.99,195.21 132.25,196.22C136.54,197.08 143.49,191.66 143.81,196.52C143.97,198.96 145.27,200.65 146.55,202.4C149.07,205.85 146.16,205.42 146.85,213.05C147.05,215.23 144.58,215.21 145.94,215.89C146.75,216.3 147.87,215.38 149.19,216.3C150.2,217.72 151.52,219.24 153.35,219.95C147.06,222.99 141.59,219.85 135.91,217.62C136.96,216.95 138.28,217.79 139.37,216.87C138.89,216.66 138.44,216.76 139.56,216.71C140.65,215.63 131.06,216.66 129.23,214.57C135.11,216.4 140.28,214.47 145.35,212.14C135.51,211.94 125.68,214.17 115.74,210.52C115.74,202.81 116.55,195 115.03,187.5C117.36,185.27 121.62,187.4 122.53,183.14C119.49,182.43 117.05,184.15 114.62,185.27C112.08,179.18 115.91,183.52 123.85,177.77C120.1,176.86 116.55,177.16 113.3,179.7C112.59,176.05 111.27,173.01 110.16,169.96C110.67,169.05 111.07,168.03 112.29,168.13C111.73,169.68 112.78,169.77 114.22,169.95C121.48,170.82 123.46,176.33 127.73,175.33C127.73,175.01 127.69,175.52 128.01,176.08C128.28,173.6 124.41,173.49 122.64,171.36C123.05,169.74 125.18,169.53 125.68,168.22C125.38,166.7 124.36,168.02 123.75,167.31C123.24,165.69 124.26,163.76 123.24,162.14C121.41,161.23 120.2,162.85 118.58,163.46C118.48,161.43 121.32,161.33 120.61,159.1C118.28,158.8 116.25,160.32 114.42,160.62C113,161.84 113.71,163.87 111.99,164.57C111.38,161.73 113.51,160.11 115.13,157.88C112.29,157.78 111.68,160.01 110.16,161.13C109.65,160.32 110.87,159.2 109.75,158.59C107.92,158.49 108.43,161.02 106.81,161.43C104.16,150.61 114.34,134.63 110.66,110.83C109.66,104.34 109.34,97.85 110.66,91.16C113.5,90.15 113.91,86.6 116.74,85.08C124.3,90.12 123.99,94.87 130.53,94C144.36,92.16 144.62,85.81 146.76,82.44C151.36,75.16 150.1,66.92 149.8,58.91C149.59,53.43 145.95,49.17 144.63,44.1C141.94,33.82 137.04,29.47 128,27.47C122.11,26.17 118.66,30.7 115.12,33.96C110.95,37.8 109.54,42.28 108.83,50.39C105.01,52.3 104.19,48.83 102.46,51.34C104.95,52.52 103.36,54.43 106.95,59.23C107.58,59.1 108.25,58.28 107.1,56.57C103.43,49.7 107.6,51.07 109.64,52.92C110.02,53.38 109.32,54.39 112.07,56.56C112.88,53.52 110.2,52.33 110.04,52.48C110.13,51.68 109.54,50.67 110.65,50.17C117.04,50.88 117.04,53.82 116.13,62.34C114.61,62.75 113.59,64.17 111.67,65.48C113.39,62.44 112.99,59.9 112.48,57.47C110.96,59.09 111.57,61.12 111.06,62.84C109.34,64.26 108.32,63.25 107.31,62.23C107.06,61.31 107.51,60.2 107.31,60.1C107.24,60.08 107.17,60.04 107.1,60.02C107.36,60.01 107.5,59.79 107.11,59.19C106.96,59.34 107.06,59.33 106.96,59.23C106.41,59.36 106.35,59.57 106.49,59.75C106.36,59.68 106.22,59.61 106.1,59.52C105.65,59.68 105.2,59.79 104.68,59.5C104.63,59.4 100.42,50.74 101.94,51.12C97.27,39.09 87.62,27.49 76.49,33.33C79.04,35.88 83.04,29.61 92.61,39.82C102.66,50.54 108.48,76.82 94.94,94.07C88.44,102.36 70.79,98.36 65.73,75.61C69.58,73.99 73.84,74.7 77.49,72.87C80.13,69.02 79.52,65.67 76.17,62.53C72.52,62.12 68.77,62.94 64.61,63.04C64.61,56.35 65.57,49.94 68.26,43.98C71.93,35.85 74.69,35.71 79.72,38C98.37,46.48 103.2,88.26 84.99,95.6C97.42,96.31 102.31,70.6 96.25,54.23C88.44,33.14 75.86,37.21 74.85,33.44C70.9,35.06 68.38,37.6 67.14,41.25C58.7,66.21 63.17,59.53 61.36,63.15C56.29,63.86 54.96,64.67 54.16,67.92C53.44,70.86 53.65,73.6 56.9,75.42C58.73,75.01 60.86,74.81 62.88,75.52C65.72,89.41 71.6,100.16 88.74,99.35C85.65,119.02 78.78,118.4 77.99,147.62C77.58,162.73 78.87,161.2 80.53,186.56C80.62,187.88 80.33,189.3 81.65,190.31C86.31,188.85 77.01,158.53 82.36,132.61C86.84,110.89 90.04,111.59 90.88,99.35C93.92,98.23 96.76,96.61 98.69,92.66C98.99,95.7 97.37,97.73 97.88,99.96C99.5,96.82 101.71,93.98 100.82,89.92C100.4,88 102.24,86.27 103.15,85.66C103.96,79.68 105.28,74.3 105.69,69.03C107.01,68.42 108.02,68.42 109.14,69.23C107.92,70.95 106.81,72.78 105.39,74.81C107.62,75.11 108.03,73.6 108.74,72.48C111.38,68.29 114.92,71.82 116.35,67.92C116.73,66.89 117.08,67.55 117.37,67.47C117.7,69.78 119.79,67.71 117.49,67.43C125.52,64.58 124.93,65.95 123.04,61.12C122.24,59.09 122.33,57.27 124.26,55.64C126.29,57.57 128.42,59.29 131.16,60.61C122.43,76.72 127.11,75.77 121.02,77.44C98.77,83.57 110.42,112.72 107.74,132.81C106.94,138.78 103.48,153.38 103.48,159.99C103.48,167.91 113.06,178.07 112.51,188.99C112.1,197.1 113.52,205.11 112.81,213.13C112.4,217.79 113.01,222.56 115.55,227.53C116.77,224.28 114.43,222.16 114.54,219.72C116.16,220.43 116.16,222.36 117.58,222.86C118.8,219.31 117.07,216.47 115.15,213.43C115.86,213.53 116.47,213.43 116.57,213.53C120.24,221.02 132.76,229.42 136.65,249.83C135.03,248.61 133.81,247.6 132.59,246.69C130.57,249.46 139.6,253.78 118.39,236.85C114.93,234.09 116.66,227.15 110.89,228.74C110.48,227.42 112.11,225.9 110.08,225.19C107.75,227.73 107.34,229.75 108.66,232.49C109.98,233.2 110.89,231.58 112.51,231.98C112,236.64 115.67,239.48 117.88,243.13C118.19,243.64 118.69,244.35 119.2,244.35C123.05,244.86 125.07,248.32 128.23,250.03C132.56,252.37 132.51,249.24 133,249.73C134.42,250.64 133.71,254.09 136.85,252.87C137.76,254.7 138.18,256.62 137.97,258.55C137.1,266.31 143.7,268.73 127.42,285.83C125.49,287.86 122.45,287.86 119.51,288.26C118.62,283.49 109.45,286.61 104.6,278.22C96.11,274.93 88.63,253.78 87.06,250.84C81.98,241.38 85.74,226.55 81.38,228.73C82.32,234.35 79.23,244.96 82.19,249.32C84.75,253.09 83.19,253 88.78,266.05C84.82,262.68 71.17,241.32 63.73,232.38C59.17,226.9 56.53,220.31 52.27,213.92C58.6,201.26 55.95,208.18 58.82,208.13C57.35,205.03 57.65,201.91 58.35,198.3C64.74,197.08 71.33,196.07 77.82,194.24C78.96,196.85 72.47,205.16 77.92,216.25C80.12,220.73 81.4,225.66 84.11,229.94C86.5,233.71 87.27,232.34 85.53,228.52C79.11,212.15 77.93,211.74 79.24,203.17C79.84,199.21 79.65,195.16 81.37,190.39C62.32,196.25 60.62,193.26 54.29,199.82C54.54,203.02 59.21,194.01 49.83,213.71C56.86,233.25 86.75,263.91 96.17,282.47C96.68,283.48 97.08,284.8 98.4,285.31C99.82,284.5 97.99,283.28 99.11,281.96C106.41,289.16 113.81,296.16 118.99,304.98C101.34,348.48 77.72,389.35 63.62,433.87C4.28,447.81 17.4,433.36 0.85,460.95C0.36,461.77 -0.57,462.57 0.75,463.38C1.83,462.95 1.85,462.99 0.45,462.87C5.72,458.41 8.46,452.12 12.01,445.63C30.36,441.47 49.23,439.85 67.28,434.68C73.01,438.24 75.09,438.81 77.91,437.05C77.23,434.15 68.36,433.5 66.78,433.26C77.18,411.3 72.98,410.55 84.12,388.94C90.81,375.96 95.29,361.97 102.47,349.19C126.06,307.22 114.67,298.58 127.32,315.02C119.91,342.12 105.31,359.83 95.27,387.83C84.72,417.26 71.57,428.4 77.76,427.16C77.1,427.82 77.76,427.52 76.99,428.95C74.92,432.79 78.61,430.33 78.62,428.46C78.62,427.46 78.32,427.08 78.44,426.35C96.55,400.19 98.1,381.3 109.67,360.54C127.08,329.31 126.09,319.7 128.73,316.53C130.25,319.57 132.89,321.19 134,324.24C125.68,341.89 119.82,360.61 112.1,378.6C108.54,386.89 100.46,396.31 98.71,403.65C97.89,407.1 96.7,410.46 94.76,413.49C91.75,418.17 90.6,423.63 88.07,428.6C87.12,430.18 90.99,430.99 92.33,425.46C94.31,417.28 99.06,412.22 100.34,406.5C102.9,395.02 106.58,399.64 121.03,362.59C129.18,341.68 133.44,327.59 135.23,325.98C140.53,331.87 172.75,376.19 186.34,390.58C187.05,389.87 186.93,389.13 186.62,388.58C188.03,389.69 191.3,391.92 198.21,395.86C211.63,403.52 201.42,401.41 216.36,410.16C207.52,427.84 224.76,416.92 164.24,429.53C157.7,430.89 160.32,428.02 152.07,425.78C135.17,421.19 120.3,428.02 105.22,428.62C88.12,429.3 91.49,432 87.87,431.07C84.32,431.85 81.49,432.27 78.04,435.71C84.25,435.16 96.52,436.95 143.75,433.88C185.72,431.16 209.37,422.43 211.8,424.85C210.89,437.93 215.15,450.41 216.16,463.18C212.58,464.37 219.48,461.23 189.19,457.5C148.83,452.53 141.46,452.94 102.08,448.88C71.53,445.73 72.75,444.97 71.45,447.46C118.47,454.01 93.32,447.05 17.8,464.8C19.83,460.34 21.86,456.08 23.88,451.72C37.8,449.73 88.5,441.72 74.68,439.74C22.19,452.86 17.19,446.4 11.92,447.46C14.25,449.79 18.2,450.47 20.83,452.03C10.94,473.45 17.18,465.26 1.65,463.03C0.04,463.83 0.93,465.64 3.19,466.33C16.61,470.38 15.49,466.96 43.75,462.68C125.05,450.36 89.66,451.76 124.07,454.36C139.58,455.53 201.89,460.98 216.56,467.24C220.34,501.25 219.84,501.75 218.89,513.18C217.88,513.89 216.76,512.67 216.05,513.69C214.83,514.7 216.15,515.82 215.75,516.83C215.65,516.93 215.45,517.34 215.34,517.34C209.97,517.45 211.17,529.55 209.66,536C208.62,542.24 206.76,539.17 208.44,552.63C209.36,559.99 216.54,555.38 220.91,561.66C229.68,574.23 250.11,577.7 265.12,577.28C274.1,577.03 275.7,574.34 278.61,574.34C287.73,574.34 284.99,560.31 274.86,560.04C266.85,552.64 260.05,545.03 256.1,535.4C256.81,535.5 256.91,536.62 258.13,536.21C256.71,531.95 254.48,528.1 251.64,524.35C252.76,522.63 253.77,520.9 252.96,518.77C258.94,516.44 265.23,516.94 270.61,514C264.63,514.71 258.75,515.52 252.66,516.94C250.53,514.51 248.2,512.48 243.94,512.58C246.71,499.63 239.58,484.87 257.73,453.46C281.57,515.45 273.57,500.36 275.38,495.24C277.71,497.47 278.32,501.12 282.07,503.15C281.26,497.37 277,494.02 275.28,488.75C279.94,493.62 284.2,498.38 289.68,501.93C291,499.7 293.13,499.47 295.05,499.29C321.54,496.84 326.05,488.2 340.79,498.99C343.43,500.92 345.05,505.18 345.05,509.54C315.24,515.83 286.13,524.24 255.81,530.33C257.84,532.26 259.26,531.55 260.58,531.34C276.05,528.88 343.33,512 343.43,511.97C344.85,513.8 344.34,515.62 344.65,516.74C349.72,523.13 356.61,525.21 363.92,526.27C375.49,527.95 372.77,523.06 385.82,526.17C421.99,534.77 412.36,534.38 426.89,536.41C436.31,537.73 437.27,531.18 444.84,527.08C449.58,524.51 448.66,518.16 446.77,514C443.78,507.63 440.47,514.25 428.22,505.88ZM188.59,84.73C189.4,85.14 190.11,85.34 190.31,86.15C190.92,85.44 191.73,85.14 192.85,85.54C192.04,86.25 191.33,86.86 190.31,86.15C183.31,86.66 176.37,87.04 171.14,80.57C156.62,62.58 161.39,50.62 166.17,38.59C177.1,11.1 220.87,37.28 199.53,77.13C197.1,81.69 193.46,83.82 188.59,84.73ZM201.47,78.95C209.58,66.07 210.8,53.19 204.11,39.81C213.64,50.66 209.07,72.46 201.47,78.95ZM211,49.14C208.47,44.92 211.5,44.2 211.01,49.05C214.14,51.99 214.85,55.63 212.72,58.98C212.14,55.62 211,48.66 211,49.14ZM215.97,80.37C211.81,70.23 210.7,68.51 212.02,63.03C220.93,55.86 220.19,47.01 208.17,42.14C206.14,37.88 202.9,34.33 199.14,30.98C203.47,25.44 217.95,21.12 224.8,27.63C238.49,40.64 235.39,53.77 235.25,60.89C235.04,70.97 226.98,73.11 229.57,73.97C233.52,72.04 235.88,68.78 236.97,64.34C237.35,62.81 236.14,61.7 236.77,60.08C239.93,51.92 238.15,44.08 234.23,36.25C235.75,37.67 236.87,39.29 237.17,41.42C236.3,42.29 246.9,52.84 234.53,71.84C230.25,78.41 229.35,75.93 221.14,79.45C219.52,80.27 217.79,80.88 215.97,80.37ZM214.24,48.73C215.36,49.54 216.47,50.45 217.08,52.48C215.16,51.37 214.75,50.05 214.24,48.73ZM227.22,126.92C227.02,129.66 227.93,132.6 226,135.03C226.41,132.4 226.82,129.66 227.22,126.92ZM120.54,166.87C119.73,167.17 119.22,167.48 118.82,166.77C118.44,166.01 119.27,165.09 120.54,166.87ZM112.23,169.08C112.23,168.86 112.96,167.86 113.24,167.58C112.93,168.05 112.5,168.53 112.23,169.08ZM116.89,163.12C116.28,165.86 113.64,166.37 112.12,168.09C112.84,165.56 114.76,164.24 116.89,163.12ZM56.45,72.67C55.64,68.61 55.94,67.5 58.48,66.08C58.89,68.51 60.2,71.04 56.45,72.67ZM60.2,71.96C61.72,69.02 61.92,66.59 59.29,64.66C64.66,65.57 69.63,63.34 74.7,63.34C79.81,72.03 70.72,70.93 60.2,71.96ZM105.74,65.06C104.93,64.76 104.93,64.05 105.13,63.34C106.04,64.05 106.04,64.05 105.74,65.06ZM115.67,64.76C117.09,63.64 118.51,62.73 118.21,60.91C124.2,62.77 120.83,66.04 115.67,64.76ZM119.02,59.28C117.3,56.85 119.43,53.6 116.59,51.78C119.84,50.46 120.75,52.49 121.86,54.62C120.75,56.03 120.85,58.06 119.02,59.28ZM129.57,70.33C130.46,64.23 136.31,63.28 129.47,56.44C129.88,51.98 127.95,50.66 122.68,52.18C121.56,51.06 120.96,48.87 118.83,49.34C115.9,49.99 113.46,48.53 110.62,48.12C118.23,13.12 143.22,43.55 139.72,66.58C138.52,74.49 138.3,82.5 132.62,89.8C137.26,88.02 137.94,89.17 140.53,80.27C143.31,70.7 143.84,52.35 141.04,47.51C136.99,40.51 133.13,33.41 125.63,29.36C128.26,26.97 139.96,35.56 143.07,44.67C158.24,89.01 125.09,102.66 119.44,80.87C123,78.2 128.47,77.88 129.57,70.33ZM92.86,272.24C92.05,271.94 91.74,271.33 91.54,270.21C92.45,270.92 92.96,271.43 92.86,272.24C95.7,273.96 97.02,277.21 100.06,279.24C97.1,280.88 99.15,283.25 92.86,272.24ZM94.38,431.65C131.85,429.95 134.66,422.74 153.1,429.93C135.8,433.9 78.91,433.59 94.38,431.65ZM412.6,501.22C411.99,501.42 411.48,501.63 410.27,502.03C411.38,500.31 411.38,500.31 412.6,501.22ZM409.46,498.38C408.04,498.79 406.92,499.29 405.2,498.79C406.82,498.28 407.73,496.96 409.46,498.38ZM395.46,475.77C396.68,481.35 399.21,485.61 401.44,490.17C398.5,491.49 398.9,487.43 396.78,487.74C396.07,489.16 397.79,489.67 397.79,490.99C392.07,492.02 392.51,480.49 395.46,475.77ZM299.33,363.3C319.18,348.66 311.98,337.04 326.81,317.56C328.21,315.72 330.26,314.1 332.89,315.13C340.91,318.25 349.21,320.62 356.42,325.68C380.24,342.4 391.3,339.31 397.59,349.61C399.01,351.94 400.28,353.96 399.52,356.61C397.62,363.2 401.87,367.86 400.53,378.11C388.26,471.91 392.25,403.19 389.17,484.69C382.48,485.5 376.9,489.15 370.71,488.75C370.35,482.26 370.89,481.74 369.39,480.33C368.48,483.37 369.59,486.41 367.67,488.85C364.93,489.15 363.11,486.42 360.06,486.92C365.61,477.87 367.79,442.1 362.7,433.17C360.74,429.74 360.67,425.46 359.15,422.02C354.64,411.8 360.25,391.29 364.12,380.85C364.93,380.44 365.54,382.37 366.76,381.05C365.95,378.82 363.62,377.5 363.01,374.97C347.8,373.55 334.01,366.15 318.69,365.64C327.21,368.28 336.13,369.49 344.35,373.14C328.23,374.05 312,375.68 296.48,369.39C296.49,366.21 295.24,366.32 299.33,363.3ZM362.4,492.8C361.49,492.09 360.88,491.28 360.57,490.16C362.71,490.98 362.71,490.98 362.4,492.8ZM310.68,376.59C304.8,380.34 298.71,378.52 296.69,371.82C300.95,375.88 305.72,375.98 310.68,376.59ZM280.57,368.27C278.18,372.48 262.09,400.7 260.59,401.94C260.39,400.72 260.5,399.82 261,398.9C266.07,389.41 261.81,385.29 264.35,379.53C269.21,368.5 264.49,353.56 260.29,349.82C258.84,348.53 257.55,347.08 256.03,345.56C269.01,334.4 283.21,327.61 301.06,330.15C296.26,349.44 271.96,374.01 280.57,368.27ZM281.99,366.75C281.79,367.56 281.38,368.07 280.67,368.37C280.67,367.46 280.97,366.75 281.99,366.75ZM287.97,314.22C295.27,316.04 297.6,321.42 300.54,327.3C284.92,325.88 271.74,331.05 259.37,339.67C258.7,338.93 251.54,335.65 258.46,340.28C257.04,341.9 256.13,343.02 254.81,344.64C254.7,341.8 255,329.94 255.22,328.41C256.64,331.15 255.63,334.29 258.77,335.1C257.07,324.55 251.43,328.07 263.03,319.38C270.56,313.75 278.54,311.88 287.97,314.22ZM277.53,311.21C276.72,311.38 274.3,312 272.18,312.56C273.94,311.99 275.73,311.56 277.53,311.21ZM137.61,216.66C136.89,216.7 136.18,216.78 135.65,216.57C136.22,216.56 136.9,216.62 137.61,216.66ZM107.06,283.7C118.17,291.42 121.45,287.86 125.62,291.61C136.4,292.59 131.23,298.41 136.47,299.57C136.42,298.08 134.34,297.37 134.75,295.56C134.95,297.07 138.15,297.28 136.5,299.58C136.71,299.62 136.44,299.39 136.67,299.62L136.66,299.62C138.82,301.76 139.65,305.22 142.65,306.72C143.46,305.91 142.04,305.2 143.06,304.49C147.66,307.42 152,312.37 158.98,315.04C166.43,317.89 161.63,320.8 170.44,323.96C172.33,324.64 168.55,328.95 172.37,330.04C176.41,331.2 177.14,334.7 178.86,337.75C177.34,339.68 176.02,341.5 174.5,343.43C165.59,335.21 173.95,331.41 153.41,345.66C153.37,345.63 112.86,289.96 107.06,283.7ZM178.75,354.58C176.32,348.29 176.42,346.77 179.05,343.42C178.75,347.18 178.65,350.83 178.75,354.58ZM154.01,346.57C158.88,343.43 163.44,340.59 167.9,337.14C171.15,343.73 176.52,349.51 172.77,357.52C173.68,358.13 173.99,356.3 175.31,357.32C176.43,363.91 179.67,370.4 179.47,377.91C169.22,368.68 162.83,356.81 154.01,346.57ZM177.74,330.24C179.26,326.08 182.61,323.45 184.74,320C181.29,322.23 178.86,325.27 176.63,328.62C175.11,327.61 177.04,326.69 176.22,325.88C175,325.98 175.21,327.91 173.68,327.91C174.39,323.35 174.39,323.35 169.12,320.2C171.15,317.26 173.07,314.22 175.51,310.57C171.35,312.4 169.12,315.13 167.09,318.28C162.22,313.82 156.24,311.49 151.17,307.02C153.71,294.34 146.61,285.72 137.58,278.02C140.54,286.54 148.4,283.96 149.95,306.11C135.01,296.92 137.64,290.17 125.81,289.38C123.24,289.38 131.36,287.3 137.47,276.1C141.23,269.2 140.74,261.61 138.69,251.05C133.52,224.45 123.89,222.55 118.71,214.14C125.73,215.06 126.66,218.45 129.36,218.91C137.4,220.26 139.84,224.28 150.66,224.28C155.32,220.33 161.51,221.64 166.58,219.62C166.88,218.4 167.09,217.29 167.39,216.17C169.42,216.27 171.14,217.29 172.76,216.68C177.15,215.03 200.37,216.98 199.63,225.5C204.35,223.68 204.05,228.55 213.32,233.11C218.2,235.51 222.55,238.59 225.89,242.74C227.01,242.94 226.6,241.83 227.21,241.62C229.76,243.77 233.47,249.41 235.42,257.95C238.17,269.93 247.85,272.96 228.12,262.11C236.13,270.62 241.8,268.87 244.95,274.48C250.4,284.18 259.86,290.3 266.75,298.62C265.74,298.72 264.12,299.23 263.3,298.21C260.48,294.71 250.65,295.69 229.33,289.29C225.44,288.12 220.02,290.67 261.07,298.52C244.86,299.26 234.84,296.45 232.37,305.31C230.44,305.72 228.82,304.3 227.1,304.8C213.52,308.76 208.8,297.08 183.6,329.04C182.08,330.97 180.96,333.1 180.76,335.94C179.16,333.89 180.58,330.75 177.74,330.24ZM250.65,301.44C245.28,302.25 239.9,302.25 234.63,304.89C237.47,301.04 241.62,300.23 250.65,301.44ZM226.11,308.04C225.3,308.24 224.49,308.45 223.68,308.04C224.49,307.73 225.2,307.83 226.11,308.04ZM182.2,380.54C186.46,381.86 189.5,384.8 192.24,388.25C188.69,386.02 185.04,383.79 182.2,380.54ZM193.35,384.7C196.7,387.34 200.04,390.07 201.36,394.94C196.6,392.71 195.89,388.05 193.35,384.7ZM191.93,367.16C192.23,373.95 195.88,379.73 197.91,386.43C191.98,380.16 180.69,379.68 182.5,372.23C183.72,373.35 183.41,375.98 185.95,375.78C186.15,373.04 186.13,373.05 185.34,371.01C182.12,362.72 181.26,354.07 181.79,345.25C182.31,336.63 187.24,336.49 187.67,332.37C185.46,329.86 174.84,340.32 197.1,317.56C204.83,309.67 212.96,312.7 217.78,312.2C217.66,313.32 218.43,313.61 219.55,313.61C223.59,313.83 226.92,316.15 230.46,317.67C231.17,317.97 230.76,318.68 230.66,319.5C232.49,318.99 234.11,319.2 235.83,320.11C232.28,317.04 228.64,314.31 224.42,312.95C219.96,311.52 212.31,312.45 225.69,310.88C238.44,309.38 239.68,305.45 246.17,305C261.19,303.95 263.65,305.22 265.13,301.86C269.39,301.66 273.24,302.37 277.7,302.67C275.98,303.58 274.35,302.97 273.34,304.09C279.75,304.89 282.95,302.53 285.2,306.02C275.67,309.67 265.43,310.68 256.3,315.15C260.86,314.78 271,311.65 271,312.31C270.97,312.31 270.93,312.32 270.9,312.32C269.68,313.82 254.76,315.88 251.02,330.97C253.66,333.1 252.14,336.04 252.64,339.49C244.12,328.38 241.35,323.29 234.49,321.84C223.54,319.53 205.96,320.71 206.2,325.39C211.17,326.9 212.62,322.43 232.57,323.46C237.95,323.74 239.27,324.39 248.49,338.06C240.48,336.13 232.97,335.63 225.27,335.83C223.08,341.68 208.8,343.84 206.61,355.3C200.13,389.26 223.78,397.48 215.87,397.5C213.59,397.5 208.63,395.56 206.43,395.69C203.49,395.87 208.74,405.15 191.93,367.16ZM250.14,340.38C249.43,340.38 249.13,339.87 248.72,338.55C249.64,339.37 250.35,339.57 250.14,340.38ZM205.22,397.17C210.22,398.17 222.21,403.06 218.06,397.42C220.87,398.09 221.38,395.61 217.29,407.51C211.51,405.79 208.26,401.53 205.22,397.17ZM217.75,397.21L217.79,397.17C217.78,397.18 217.78,397.19 217.77,397.2L217.75,397.21ZM223.68,520.49C225.31,520.87 226.72,519.78 228.34,520.29C228.24,523.64 227.63,524.14 222.26,524.75C221.45,523.03 219.83,521.61 219.42,519.48C221.14,518.86 222.26,520.16 223.68,520.49ZM253.08,538.64C252.67,536.92 251.66,535.7 249.33,534.89C252.78,535.09 252.78,535.09 253.08,538.64ZM231.69,533.97C237.88,530.83 244.67,530.42 251.36,530.22C244.77,531.34 238.08,532.05 231.69,533.97ZM242.03,527.89C245.88,525.66 247.71,525.46 249.64,527.08C247.2,527.38 244.97,527.59 242.03,527.89ZM249.13,522.82C244.97,524.54 240.21,524.44 236.76,527.18C233.31,529.92 228.44,530.12 225.4,533.47C226.21,534.99 227.53,533.67 228.14,534.59C228.85,536.01 227.02,537.43 228.14,538.85C229.97,539.56 231.39,537.33 233.41,538.04C232.7,538.85 231.48,539.46 231.89,541.08C234.32,543.82 237.37,540.27 240.1,541.59C239.59,542.4 238.98,543.31 238.48,544.13C236.86,544.54 235.03,544.03 234.32,545.96C237.57,548.7 249.44,548.3 252.37,545.15C253.69,543.73 255.01,543.63 256.63,543.63C261.39,552.79 263.82,550.38 253.08,552.96C255.51,555.7 256.43,555.6 261.9,552.66C267.24,556.67 269.03,555.72 270.62,559.45C271.84,562.33 274.81,563.19 278.73,564.82C283.31,576.73 235.1,577.03 224.37,560.46C216.97,549.02 211.96,559.51 210.38,549.71C210.28,549.51 210.58,549.3 210.68,549.2C211.8,549.3 211.49,551.33 213.01,550.92C213.34,549.43 208.4,544.41 212.2,537.23C217.39,527.43 213.69,525.56 214.43,520.4C218.08,521.92 218.59,526.38 221.83,528.31C224.67,526.28 228.22,526.08 230.86,523.65C231.7,517.76 230.73,519.83 234.51,517.46C234.92,516.34 233.29,516.34 233.9,515.43C235.48,513.33 239.21,515.08 243.13,514.82C247.21,514.54 247.94,518.29 249.13,522.82ZM251.56,457.11C247.57,466.06 246.36,475.86 242.53,484.79C240.28,490.06 240.24,495.54 240.6,501.12C241.26,511.16 245.43,511.84 238.67,511.36C228.51,510.64 233.37,518.01 225.28,517.65C215.74,511.29 222.14,516.56 222.14,495.75C222.14,482.39 214.96,432.06 214.84,429.83C214,414.27 218.78,420.03 224.68,389.16C224.95,387.77 225.37,385.59 222.86,385.33C223.3,383.59 221.82,383.36 220.42,382.17C220.93,385.77 222.82,385.47 222.86,385.34C225.36,391.65 219.47,397.63 217.17,393.42C207.76,376.18 209.77,379.84 217.17,386.83C216.87,386.93 216.46,387.03 215.85,387.13C216.36,388.75 217.47,389.56 218.89,390.27C219.29,389.17 218.35,387.87 218.13,387.73C218.62,387.73 219.31,388.97 220.31,387.53C208.45,373.36 208.96,374.3 208.04,369.48C204.26,349.63 221.81,344.26 227.21,337.74C233.29,338.86 239.48,338.25 245.87,339.67C254.79,349.55 269.62,358.12 262.5,375.87C258.07,386.91 265.32,388.8 256.52,401.63C254.13,420.84 264.04,429.12 251.56,457.11ZM345.97,503.15C344.04,500.72 343.23,497.98 342.01,495.44C326.5,490.72 326.75,489.98 323.55,490.98C302.24,497.6 295.32,494.78 288.87,498.38C274.24,486.14 271.73,484.87 270.11,479.62C264.92,462.74 260.79,456.87 259.16,449.91C258.15,445.6 262.67,442.29 260.28,421.21C259.5,414.38 258.11,411.11 266.67,397.78C283.74,371.23 281.35,372.87 283,372.33C284.93,372.53 286.46,373.53 287.97,374.97C292.48,379.28 298.62,379.53 304.09,381.36C306,381.84 312.83,377.18 314.94,377.2C316.84,377.22 306.14,377.1 345.36,377.1C349.56,377.1 343.26,373.41 359.05,378.22C360.27,380.55 360.26,382.78 359.46,384.91C357.21,390.89 356.52,397.38 355.2,403.57C349.4,430.65 370.23,431.69 358.65,483.48C357.64,482.87 357.33,481.55 356.01,481.65C347.99,483.65 353.39,499.18 345.97,503.15ZM430.65,529.41C431.8,536.29 405.95,524.56 381.57,521.8C377.98,521.39 353.47,526.56 346.58,513.08C348.51,510.65 347.09,507.1 349.42,504.66C354.35,499.5 353.69,489.85 356.01,485.9C356.92,486.31 357.43,486.91 357.33,487.73C356.8,492.09 360.19,494.51 362.3,497.57C364.96,501.41 368.69,501.02 372.54,500.11C374,499.62 373.47,501.96 375.28,501.83C381.13,499.68 379.81,493.35 387.35,490.98C387.76,490.88 387.96,490.27 387.76,489.76C380.69,487.87 380.13,495.3 376,497.97C370.72,496.12 368.59,500.24 364.44,495.13C363.43,494.01 364.24,492.9 365.35,491.68C373.26,492.9 380.56,489.75 388.07,487.32C388.78,488.64 389.19,489.55 389.69,490.67C391.31,489.45 392.63,489.66 393.44,491.58C389.69,493.41 384.92,493.1 381.88,496.85C382.69,498.17 383.6,498.17 384.62,497.66C389.99,495.73 395.87,494.9 401.05,492.29C402.67,491.47 403.79,491.48 404.4,493.41C399.33,495.24 393.55,494.83 389.29,498.78C390.61,501.72 393.14,500.71 395.17,501.21C396.79,505.67 401.15,503.54 404.5,504.46C403.28,505.88 400.85,505.27 400.85,507.6C402.37,509.32 402.37,509.44 403.28,509.43C408.45,509.33 411.8,505.58 415.14,502.94C424.37,506.79 432.28,512.78 442.32,514.09C447.38,520.12 444.2,528.97 430.65,529.41Z" style="fill-rule:nonzero;"/>
        <path d="M58.78,208.25L58.88,208.15C58.78,208.17 58.69,208.07 58.78,208.25Z" style="fill-rule:nonzero;"/>
        <path d="M123.89,65.26L123.99,65.16C123.86,65.2 123.93,65.19 123.89,65.26Z" style="fill-rule:nonzero;"/>
        <path d="M87.93,431.03C88.9,431.43 89.86,431.12 90.66,430.47C89.74,430.65 88.84,430.84 87.93,431.03Z" style="fill-rule:nonzero;"/>
        <path d="M730.04,486.38C730.05,486.33 730.06,486.28 730.07,486.24C729.99,486.2 730.01,486.18 730.04,486.38Z" style="fill-rule:nonzero;"/>
        <path d="M470.3,446.35C470.45,446.33 470.59,446.31 470.73,446.29C470.36,446.26 470.3,446.24 470.3,446.35Z" style="fill-rule:nonzero;"/>
        <path d="M897.74,510.65C894.95,506.19 890.22,511.44 880.4,503.75C874.28,498.96 865.01,497.04 855.15,483.98C856.87,478.61 852.69,476.2 850.08,473.13C848.54,471.32 846.53,472.01 844.5,474.14C845.46,450.09 845.5,445.04 846.83,437.63C847.02,436.59 856.06,403.94 854.74,386.01C854.38,381.17 857.82,376.65 855.04,367.05C852.38,357.83 858.19,352.94 851.9,349.71C851.5,349.5 851.09,349.1 850.89,348.59C848.76,342.2 842.79,340.86 837.61,338.45C811.24,326.18 796.03,313.9 770.68,309.55C769.05,309.27 768.65,307.33 767.03,307.42C763.28,307.64 759.51,307.41 756.28,310.26C754.45,311.88 752.02,312.9 750.3,314.92C766.8,306.84 772.1,312.13 781.64,314.11C772.5,320.76 772.27,327.08 765.01,344.84C761.99,352.23 761.89,350.49 746.96,367.76C747.06,368.67 747.77,368.17 748.28,368.67C747.87,370.9 747.77,373.44 749.09,376.07C743.02,376.33 745.86,372.48 738.95,369.48C742.3,363.73 747.43,356.22 751.93,345.55C754.11,340.37 757.5,340.15 758.42,328.01C778.2,315.54 775.48,318.06 758.32,326.29C757.91,323.25 755.89,321.12 754.87,318.68C753.55,317.67 752.11,318 750.92,317.16C736.44,306.97 717.76,314.88 710.76,322.13C708.22,324.76 707.51,328.42 705.49,331.66C708.53,333.79 706.5,337.03 707.82,339.47C703.58,341.59 700.77,313.58 665.13,323.24C660.89,324.39 658.68,327.99 667.87,325.67C674.64,323.96 690.93,321.92 695.55,328.31C697.98,331.66 700.62,334.9 703.76,339.06C697.07,336.93 691.08,337.04 685,336.52C677.77,335.9 681.6,338.17 677.19,340.37C669.81,344.94 661.95,348.31 661.07,360.65C660.11,374.06 664.03,389.44 673.04,396.85C673.58,397.39 671.15,397.7 669.19,397.05C654.71,392.24 663.8,400.11 674.06,399.69C676.03,398.08 671.46,396.34 675.78,397.76C674.77,400.8 673.75,403.84 672.84,406.99C659.8,406.49 650.82,370.62 647.49,367.95C648.1,374.14 651.24,379.41 653.27,385.6C632.09,373.14 640.71,379.11 637.45,371.5C639.48,372.92 639.07,375.76 641.61,375.76C643.66,372.27 637.45,370.5 637.45,346.55C637.45,340.97 639.78,338.64 643.33,333.27C643.03,331.75 641.5,332.66 640.29,331.85C645.16,326.78 649.13,321.02 654.59,316.84C661.88,311.26 663.91,313.19 673.05,313.19C673,313.24 672.98,313.26 672.96,313.27C673.11,313.16 674.55,312.23 679.03,312.07C683.69,311.9 688.57,311.18 692.21,309.03C702.59,302.9 718.35,308.45 719.39,303.05C723.75,302.54 727.71,303.66 731.86,303.96C729.73,304.37 727.5,304.77 724.96,305.28C730.13,306.4 735.3,302.85 739.97,306.7C730.34,310.25 720.4,311.47 711.07,315.22C711.88,316.34 712.49,316.04 713,315.93C743.28,309.33 747.89,304.65 754.37,308.02C760.27,311.08 752.9,300.58 741.29,304.07C736.84,299.04 729.22,303.69 724.86,297.99C722.28,294.62 720.35,295.71 719.28,294.64C712.28,286.43 703.56,279.63 699,269.08C714.87,227.52 703.38,216.81 706.5,199.21C712.58,199.92 717.73,197.24 722.62,194.24C729.48,190.03 731.73,183.18 732.96,175.58C736.61,153.07 704.17,121.44 682.15,152.15C678.6,151.03 675.05,150.02 671.2,150.02C660.39,150.02 644.86,167.86 652.44,188.15C657.3,201.17 663.49,209.53 679.82,213.1C681.14,213.39 682.36,211.98 683.88,212.8C684.49,216.35 684.49,219.9 681.95,222.84C677.24,228.29 677.43,231.58 675.56,235.31C667.32,231.68 663.41,230.39 659.03,225.37C654.39,220.06 648.48,217.14 641.28,216.95C637.22,216.84 633.17,216.01 629.11,216.14C626.57,216.22 624.14,217.26 621.71,215.63C620.7,217.15 621.61,219.18 619.68,220.29C614.71,219.17 608.12,222.01 604.57,214.41C605.08,210.86 606.4,206.59 602.74,202.24C600.01,198.99 600.41,193.21 595.03,192.3C594.32,191.08 594.74,190.28 594.93,189.46C596.88,180.9 590.56,186.26 589.35,179.42C584.89,179.22 582.66,175.26 579.01,173.84C579.21,171.91 581.24,171.81 581.85,170.29C581.75,168.87 580.43,170.29 579.92,169.38C579.37,167.16 582.02,161.07 574.95,165.93C574.85,163.8 577.49,163.6 577.08,161.57C574.65,160.66 572.82,162.79 571,162.79C569.48,164.01 570.39,166.44 568.26,166.85C567.96,164.11 569.88,162.39 571.61,160.16C568.97,159.96 568.26,161.99 566.84,163C565.93,162.49 567.35,161.28 565.83,160.87C564.41,160.87 563.39,166.75 559.24,165.53C557.43,164.87 554.91,168.96 552.85,169.28C541.15,157.58 535.16,159.58 526.18,167.76C518.72,174.56 523.12,187.51 516.65,183.99C515.58,183.41 514.61,183.68 514.08,184.94C511.96,180.7 509.84,176.56 507.11,172.63C501.23,164.15 488.75,164.31 488.75,166.85C489.43,169.57 496.91,161.53 507.41,177.4C517.55,192.73 518.08,226.61 498.08,230.74C493.66,231.65 482.27,226.22 477.8,208.33C481.55,206.91 485.71,207.42 489.36,205.79C492,200.92 491.9,199.71 488.24,195.55C484.59,195.25 480.84,195.96 476.88,196.16C476.88,183.99 480.59,166.32 491.79,171.42C510.13,179.77 514.94,220.22 496.96,228.31C509.6,229.08 514.01,202.27 508.01,187.54C499.59,166.88 488.69,170.63 486.71,166.95C482.65,168.67 480.25,171.42 479,175.16C476.73,181.97 473.52,188.65 473.93,196.46C465.61,194.93 464.09,205.18 469.06,208.22C470.99,208.02 473.01,207.81 475.04,208.32C478.59,230.73 496.74,236.92 508.5,228.91C509.01,229.11 509.21,230.03 510.02,229.82C512.66,226.57 511.01,221.57 514.68,218.77C515.49,218.15 516.61,218.87 517.72,218.67C517.52,217.15 515.89,217.25 514.98,216.24C518.59,206.09 515.19,198.9 521.27,201.94C519.75,203.77 518.33,205.39 517.72,207.72C523.2,203.26 525.83,201.19 536.48,199.71C536.58,196.67 531.82,193.42 535.77,189.37C537.8,191.3 539.93,193.12 542.67,194.44C534.57,208.77 538.98,207.87 533.85,210.67C525.74,214.52 520.54,220.93 518.03,229.43C517.34,231.77 515.89,233.59 515.39,236.12C514.15,242.4 514.34,248.89 513.26,255.18C512.35,260.48 507.95,279.62 511.33,279.62C515.7,253.41 512.01,262.74 525.63,255.18C529.59,252.98 528.53,256.46 546.52,253.66C541.45,251.83 536.28,253.04 531.11,252.65C525.63,252.23 520.87,254.88 515.49,256.6C516.71,247.88 516.1,239.26 519.34,230.13C536.91,249.72 529.75,249.44 530.29,251.32C534.09,253.49 538.87,238.03 555.64,235.8C562.34,234.91 568.54,231.9 575.31,230.93C575.92,230.84 576.43,230.12 577.34,229.41C583.64,239.59 596.93,259.37 586.06,251.82C581.22,248.46 579.02,251.66 575.11,251.62C570.44,251.57 566.39,254.56 561.62,253.95C561.11,253.85 560.5,254.46 560.4,255.27C561.11,260.21 577.09,251.75 584.23,254.97C585.35,255.47 586.36,254.67 587.48,254.46C588.8,255.37 589.91,256.89 591.84,256.29C595.74,266.86 598.28,271.69 584.03,286.51C582.09,288.53 579.06,288.34 576.12,289.15C575.34,283.71 566.79,288.19 560.5,278C560.27,277.62 559.87,277.36 559.48,277.08C559.44,274.96 558.23,274.57 556.04,274.86C556.78,276.35 557.87,276.98 559.13,277.15C559.05,278.48 559.75,279.7 560.3,281.15C546.46,277.63 536.63,290.9 532.72,292.2C528.72,293.82 508.04,301.39 505.24,300.92C507.98,298.79 511.63,298.08 513.56,294.43C510.52,294.53 508.49,296.15 506.66,297.47C499.31,302.81 495.5,299.85 489.32,298.99C484.36,298.31 481.63,295.74 481,290.78C480.6,287.64 480.36,284.38 481.1,281.25C485.44,262.8 482.02,264.73 489.42,251.23C514.72,205.08 474.59,256.08 478.87,292.4C479.4,296.86 481.91,299.71 485.97,300.92C494.89,303.58 503.72,305.28 513.05,301.63C524.56,297.13 540.32,295.03 548.44,285.3C550.47,282.87 553.81,283.88 556.15,282.46C563.15,289.96 570.75,296.56 575.52,305.38C558.18,348.17 534.96,388.54 520.96,432.45C490.84,439.33 469.46,439.3 467.31,444.11C459.73,461.08 456.14,459.59 459.7,461.97C458.99,463.59 460.1,464.32 461.32,464.71C474.78,469.02 473.14,465.6 500.67,461.26C505.01,460.58 554.74,453.4 558.98,451.02C559.35,450.78 656.98,459.33 671.44,465.72C672.23,467.54 676.06,504.06 673.87,511.15C673.06,511.76 671.84,510.74 671.23,511.66C670.32,512.78 671.43,513.89 670.82,515.21C664.5,514.7 666.31,532.57 664.53,535.69C661.99,540.15 663.1,544.92 663.62,549.58C664.02,553.13 666.15,554.78 669.81,555.26C678.7,556.43 676.39,568.35 699.12,572.3C708.73,573.97 721.58,576.16 730.35,571.89C731.88,571.14 740.71,571.76 737.85,563.78C736.4,559.73 733.19,557.49 728.82,557.49C722.43,550.49 715.23,544.41 711.78,534.98C713.82,532.68 708.01,524.45 706.51,522.09C708.03,520.47 708.23,518.44 708.13,516.41C715,514.35 721.92,514.44 725.47,511.75C719.49,512.76 713.4,513.27 707.32,514.89C705.49,512.25 702.86,510.83 699.71,510.43C699.71,486.2 699.42,485.74 700.32,483.05C700.35,482.95 710.19,452.32 712.49,452.32C718.78,467.53 724.15,482.95 729.73,498.66C730.85,496.63 729.22,495.11 729.93,493.39C732.26,495.52 732.77,499.07 736.01,500.79C736.72,498.86 735.69,497.76 735,496.53C724.48,478.01 734.2,494.22 743.92,499.88C746.56,495.61 757.52,498.6 770.49,493.9C782.6,489.51 800.02,495.55 797.97,507.59C704.73,529.61 711.06,526.97 710.97,529.33C712.17,531.33 791.65,510.33 797.06,510.33C798.2,521.92 817.44,526.51 827.99,523.21C835.48,520.86 863.28,530.91 875.55,533.45C888.86,536.21 889.31,528.07 896.14,524.93C901.47,522.54 900.54,515.77 897.74,510.65ZM469.69,206.53C468.88,203.99 469.18,201.87 471.11,199.94C473.04,203.89 472.84,205 469.69,206.53ZM473.45,205.92C474.97,203.28 475.17,201.05 472.84,199.02C476.73,199.18 487.64,197.31 487.75,197.3C492.45,205.64 485.02,205.42 473.45,205.92ZM865.39,499.5C864.78,500.41 864.17,500.51 863.56,499.8C864.07,498.58 864.68,498.99 865.39,499.5ZM861.94,497.26C861.03,497.36 860.22,497.36 859.4,497.46C860.83,496.25 860.83,496.25 861.94,497.26ZM848.46,475.16C849.98,480.13 852.21,484.49 854.44,488.85C851.7,490.37 851.9,485.71 849.57,486.52C849.37,487.94 850.89,488.35 850.89,489.66C847.64,490.37 847.54,487.23 846.43,486.21C847.14,482.36 845.62,478.5 848.46,475.16ZM750.6,366.35C777.08,344.69 764.65,337.36 781.12,318.28C782.34,316.86 784.07,315.42 786.29,316.25C817.83,328 810.36,329.12 819.25,333.08C844.65,344.42 847.04,344.55 850.28,350.02C851.83,352.64 853.27,354.7 852.21,357.63C850.49,362.36 854.56,369.66 853.22,378.72C850.3,398.45 849.84,414.9 846.22,426.99C840.53,446.02 845.82,482.85 840.54,483.68C835.55,484.46 826.05,488.84 823.91,487.13C823.3,484.59 824.21,481.86 822.69,479.42C821.68,481.96 822.49,485 820.97,487.33C817.93,488.34 816.71,484.39 813.36,485.71C819.44,473.88 820.13,440.76 817.01,435.01C806.81,416.21 811.08,399.67 817.31,380.96C818.32,380.76 818.73,382.28 819.95,381.37C819.95,379.44 817.7,378.64 817.21,377.01C816.58,374.89 814.68,374.41 813.15,374.47C804.97,374.83 790.62,367.54 783.23,367.47C778.13,367.43 777.23,364.52 771.97,366.05C780.89,368.99 789.82,369.7 797.83,373.55C781.91,374.46 765.89,376.19 750.57,369.8C750.6,368.58 750.6,367.56 750.6,366.35ZM816.21,491.28C815.2,490.47 814.18,489.76 814.08,487.53C815.19,489.05 816.82,489.25 816.21,491.28ZM764.69,376.99C758.61,380.24 753.33,378.61 751.3,372.22C755.57,375.98 760.13,376.39 764.69,376.99ZM755.57,330.85C751.82,346.06 740.46,357.01 732.75,369.99C734.04,370.38 734.22,368.85 734.78,369.69C728.9,380.64 721.8,390.99 715.92,402.34C715.31,400.82 715.61,399.8 716.12,398.79C720.87,389.41 716.85,385.23 719.37,379.73C724.27,368.99 719.99,354.56 715.42,350.32C714,349 712.38,347.89 711.26,346.06C723.93,335.11 738.02,328.52 755.57,330.85ZM736.4,367.87C735.79,368.58 735.39,369.09 734.88,369.59C734.25,368.96 735.16,367.77 736.4,367.87ZM710.44,330.35C711.86,332.18 710.95,335.01 714.09,336.23C713.89,332.78 712.16,330.25 711.05,327.2C718.27,314.56 746.6,305.07 754.76,328.11C739.65,326.79 726.47,331.76 714.3,340.48C712.64,337.18 709.01,342.23 710.44,330.35ZM710.34,338.97C714.09,341.86 713.49,341.45 709.73,345.46C709.83,342.82 709.73,340.99 710.34,338.97ZM657,394.64C652.44,392.71 651.93,387.95 649.5,384.8C652.33,387.64 656.18,389.77 657,394.64ZM648.17,388.45C644.62,386.02 640.87,383.89 638.13,380.44C642.29,382.06 645.74,384.7 648.17,388.45ZM679.2,309.46C679.2,309.05 678.68,309.16 680.52,309.16C680.52,309.34 680.72,309.46 679.2,309.46ZM690.36,305.5C694.92,300.63 700.7,302.66 706.08,302.46C700.91,303.47 695.43,303.37 690.36,305.5ZM694.82,164.03C693.4,163.32 692.28,162.2 691.68,160.68C693.1,161.5 694.52,162.21 694.82,164.03C695.53,164.03 695.83,164.64 696.14,165.15C709.64,181.98 697.16,206.61 699.99,195.37C704.08,179.13 698.2,172.36 694.82,164.03ZM698.98,164.54C700.1,165.76 700.7,166.67 700.6,167.89C699.79,167.08 698.98,166.37 698.98,164.54ZM700.7,167.79C704.55,169.92 706.18,173.16 704.86,176.71C703.44,173.77 702.12,170.73 700.7,167.79ZM703.64,166.67C704.96,167.08 706.07,167.58 707.09,169.31C705.06,169 704.35,167.79 703.64,166.67ZM708.21,143.85C723.5,152.38 724.69,163.27 726.77,173.26C728.72,182.62 722.52,186.41 724.13,186.95C732.24,181.05 728.08,174.32 728.08,171.33C728.59,164.03 726.15,157.74 721.89,151.96C739.84,168.58 726.59,191.25 724.02,190.6C719.56,189.46 720.98,196.08 709.01,197.6C706.16,197.96 704.64,196.58 704.95,194.15C705.74,187.96 704.75,181.68 707.49,175.59C711.21,167.32 706.41,166.14 699.17,161.8C698.16,161.5 697.65,162.71 696.43,162.21C693.39,158.46 689.13,155.92 684.77,153.59C687.7,147.07 700.17,139.37 708.21,143.85ZM665.62,204.19C644.62,183.76 655.61,145.06 679.51,155.72C696.68,163.38 701.04,177.86 697.46,196.08C695.42,206.47 688.03,206.86 690.06,207.54C691.28,208.15 691.99,206.83 693.31,206.73C692.3,208.66 690.57,208.35 689.46,208.76C680.18,212.76 672.83,211.22 665.62,204.19ZM683.97,225.49C691.09,217.46 683.83,211.85 688.63,212.1C689.64,213.32 688.63,215.24 690.35,216.76L690.35,210.98C696.84,208.65 700.39,203.58 703.23,197.8C704.24,198.31 704.24,198.71 704.04,199.42C701.72,214.99 708.04,230.62 701.5,255.7C695.3,279.49 698.57,263.51 690.14,250.12C692.17,249.82 692.98,251.44 694.6,251.24C693.18,248.7 691.35,247.59 688.92,247.79C684.9,244.2 691.26,246.27 678.17,237.34C680.12,233.3 680.82,229.04 683.97,225.49ZM577.59,169.71C577.18,170.22 576.78,170.32 576.17,170.32C575.66,169.61 576.17,168.29 575.05,167.68C576.27,167.79 576.68,169.11 577.59,169.71ZM518.67,199.12C517.96,199.22 517.66,198.92 517.66,198.51C517.66,197.33 518.99,197.88 518.67,199.12ZM524.76,191.32C523.14,193.45 524.56,196.29 522.33,197.81C518.51,197.55 520.31,193.71 519.67,193.55C518.87,193.46 518.16,194.16 517.16,193.65C516.24,191.25 514.46,189.01 514.53,186.1C514.53,186.04 514.58,185.27 514.62,185.23C514.55,185.66 516.21,185.93 516.85,188.27C517.3,189.92 518.73,193.68 520.04,193.24C521.17,191.56 518.16,190.1 518.37,186.45C522.92,184.51 522.32,192.17 524.78,190.2C525.06,188.05 521.9,187.2 522.93,185.04C528.1,184.63 529.83,187.07 528.71,196.6C527.09,197.01 525.97,198.32 524.45,199.24C525.67,196.6 525.87,194.16 524.76,191.32ZM527.8,198.51C529.83,198 530.44,196.58 530.94,195.26C537.24,197.69 531.8,200.44 527.8,198.51ZM530.94,193.24C530.23,190.91 531.65,188.17 528.91,186.14C532.56,184.92 533.07,187.26 534.39,189.18C532.36,189.89 533.68,192.94 530.94,193.24ZM534.29,213.32C542.05,210.88 540.84,205.67 543.62,200.04C545.77,195.69 545.55,194.36 542,191.12C542.71,186.86 540.28,185.14 535.1,186.56C533.88,185.55 533.38,183.53 531.45,183.82C528.61,184.25 526.18,183.11 523.34,182.7C524.21,169.68 534.79,162.04 539.97,168.4C541.62,170.75 552.2,179.49 552.14,192.13C552.09,202.68 551.84,213.43 545.65,222.96C547.48,222.35 549.49,222.14 550.31,220.02C558.13,200 556.44,174.98 537.74,164.04C539.64,161.72 551.67,169.62 554.98,178.95C569.35,219.43 540.78,237.56 531.86,215.25C532.47,214.13 533.37,213.61 534.29,213.32ZM568.44,229.08C567.44,230.58 566.32,231.78 564.52,232.18C565.53,230.76 566.75,229.54 568.37,228.93C568.98,228.02 569.69,227.21 571.41,227C569.76,228.99 568.59,229.39 568.44,229.08ZM568.87,226C566.64,223.57 564.61,221.34 562.58,219.1C568.16,216.46 568.16,216.46 567.35,213.52C564.61,218.42 556.9,214.82 558.32,220.52C561.06,222.85 565.22,223.46 567.24,227.21C565.31,229.24 562.78,230.76 561.56,233.19C555.88,234.51 550.1,234.41 545.03,237.75C536.14,229.25 536.01,228.89 542.8,239.07C540.06,241.61 537.43,243.94 534.69,246.47C530.13,240.08 525.97,233.59 520.7,228.01C523.64,224.97 524.96,220.81 528.51,218.38C530.03,220.92 526.99,222.44 527.5,224.57C529.02,223.96 529.22,222.14 530.44,221.43C532.87,222.14 531.96,224.88 533.38,226.09C534.6,226.09 533.38,224.67 534.39,224.57C543.34,230.62 557.38,224.48 559.44,213.62C561.06,213.11 562.08,214.13 563.29,213.92C563.59,211.49 561.26,212.4 560.55,211.28C561.28,205.82 561.08,206.43 563.49,207.12C565.21,204.11 561.52,203.18 562.17,198.3C564.38,181.64 555.25,176.77 563.39,174.47C569.85,172.64 569.83,167.67 574.04,165.95C576.23,169.77 573.91,165.18 569.17,172.44C572.92,173.56 576.46,174.38 579.51,176.6C582.44,178.74 586.51,179.24 588.84,182.68C587.52,182.88 586.51,181.46 585.19,182.58C586.91,184.3 589.14,184.23 591.07,184.61C597.62,185.89 589.72,192.41 597.66,195.36C594.31,195.97 592.08,198.2 589.24,199.11C591.88,199.82 594.1,198.59 596.34,197.79C602,195.77 599.66,200.36 603.44,205.29C605.63,208.14 603.17,209.78 603.74,214.52C603.94,216.14 603.64,217.56 602.12,218.37C603.44,219.38 604.45,217.96 604.96,218.27C606.79,220.3 608.1,221.72 609.42,223.14C595.19,225.44 585.46,222.58 583.16,225.27C578.1,224.88 573.23,222.85 568.87,226ZM578.1,226.1C581.55,228.03 584.59,225.37 587.84,225.59C599.71,226.42 611.37,224.78 622.72,221.84C623.73,220.83 623.02,219.41 623.84,218.49C625.46,218.69 626.99,219.23 628.3,218.9C632.79,217.77 637.12,219.2 641.48,219.2C647.67,219.2 652.25,222.22 656.59,225.99C670.8,238.36 675.76,236.87 681.64,244.85C682.65,244.65 682.15,243.43 683.16,243.84C689.44,250.12 688.32,254.17 695.63,270.41C691.78,268.28 687.82,266.05 683.97,263.92C687.32,267.47 691.31,269.91 695.63,271.83C702.19,274.75 696.34,275.78 722.3,300.33C720.58,299.72 719.03,300.75 718.04,299.32C715.94,296.28 712.78,298.87 682.04,290.29C697.95,298.62 725.9,300.05 712.77,299.92C697.47,299.78 689.95,298.68 687.82,306.31C685.79,306.82 684.18,305.33 682.24,305.9C669.39,309.74 664.92,298.95 640.36,328.92C638.67,330.98 637.22,333.18 636.91,336.22C635.19,334.5 636.71,331.25 633.66,331.05C635.69,326.49 639.14,323.44 641.87,319.89C637.81,322.02 635.38,325.77 632.44,329.52C631.73,327.39 633.76,326.68 633.66,325.06C631.83,325.67 631.73,327.9 629.71,328.81C629.71,326.98 630.72,325.27 629.51,323.74C628.39,322.33 626.37,322.32 625.15,321C627.18,318.06 629.41,315.22 631.13,311.67C627.48,313.39 625.35,316.13 623.22,319.17C618.56,314.61 612.37,312.48 607.5,307.81C610.24,295.24 602.84,286.92 594.22,278.81C594.22,283.65 600.2,285 603.85,293.51C605.68,297.77 605.78,302.33 606.59,306.9C601.93,304.57 597.89,301.41 594.02,296.15C589.5,290.01 583.29,291.84 582.26,290.07C613.91,268.98 585.02,239.94 578.1,226.1ZM635.7,343.73C634.99,347.48 634.99,350.93 634.79,354.28C633.87,350.73 631.75,347.18 635.7,343.73ZM594.12,299.92C593.48,301.53 591.54,298 591.38,296.27C592.6,297.89 593.41,298.91 594.12,299.92ZM564.51,285.42C569.28,289.68 575.46,290.29 581.75,291.91C580.13,293.13 579.11,293.94 578.5,295.97C582.31,291.14 589.9,292.58 590.67,299.32C594.42,301.25 596.15,305.4 599.29,308.24C600.2,307.53 599.39,306.82 600,306.31C601.29,306.57 609.23,314.05 615.31,316.35C617.44,317.16 619.5,318.16 620.48,320.2C622.63,324.66 626.09,324.1 627.58,326.08C626.77,327.91 625.86,330.32 628.39,331.05C632.55,332.24 633.26,335.82 635.08,338.76C633.66,340.69 632.24,342.51 630.62,344.64C628.39,341.8 626.46,339.27 624.43,336.63C624.33,336.7 611.45,345.3 610.57,346.56C615.72,344.83 619.68,340.88 624.53,338.15C627.78,344.54 632.95,350.32 629.19,358.13C630,358.74 630.31,356.81 631.12,357.52C632.84,360.56 632.13,364.31 633.55,366.75C635.68,370.4 634.97,374.15 635.88,377.8C631.68,377.8 564.58,285.52 564.51,285.42ZM667.14,460.45C626.26,453.05 615.98,453.54 532.98,445.34C531.87,445.23 530.55,444.53 529.43,446.66C577.14,453.39 547.57,446.56 476.09,464C478.93,459.84 480.25,455.08 482.58,451.02C509.12,446.5 520.63,444.85 532.27,441.39C536.19,440.22 536.23,438.19 532.27,439.16C516.36,443.07 500.12,445.01 484,447.78C479.62,448.53 475.41,446.61 471.04,446.3C469.8,448.29 476.64,449.65 479.54,451.33C468.34,471.93 478.1,464.58 459.93,461.91C459.91,461.93 459.89,461.96 459.87,461.98C459.68,461.79 459.81,461.89 459.93,461.89C462.22,461.89 469.44,446.26 470.34,446.26C470.83,443.82 485.92,443.41 525.17,434.69C537.36,442 539.42,434.14 524.66,433.07C534.84,409.8 531.24,409.3 541.8,388.96C548.32,376.4 552.69,362.72 559.65,350.22C582.86,308.54 571.79,300.56 584.09,316.55C577.36,342.28 561.11,363.36 551.84,389.87C542.8,415.72 536.03,417.94 533.59,427.7C535.18,427.25 535.55,426.79 534.95,428.04C531.94,434.37 538.23,428.58 535.92,426.28C555.46,397.24 553.79,384.01 567.66,359.45C590.96,318.21 579.94,310.68 590.68,324.77C575.12,362 571.71,375.95 565.12,386.63C553.35,405.73 560.66,396.75 545.55,428.11C545.25,428.72 545.55,429.33 546.56,429.73C550.16,428.29 548.19,425.22 554.77,413.1C559.37,404.63 556.54,404.69 562.17,395.96C575.47,375.36 579.01,357.52 591.88,326.49C646.98,398.26 639.87,389.66 642.28,388.45C652.03,396.03 659.65,397.72 665,405.59C666.52,407.82 669.56,408.63 671.9,410.36C669.97,413.71 668.96,417.15 667.95,420.81C616.01,429.58 617.29,431.23 613.19,427.2C611.57,425.61 601.25,422.95 587.84,424.46C579.83,425.36 572.02,427.68 563.81,428.01C557.65,428.26 541.58,429.77 535.82,435.22C539.17,435.12 542.41,435.13 545.66,435.22C609.1,436.95 633.3,429.05 667.65,423.76C666.74,437.15 670.79,449.52 671.91,462.19C669.57,463.19 668.86,460.77 667.14,460.45ZM609.94,429.62C589.96,431.75 569.88,432.56 549.8,433.17C549.8,428.68 553.12,433.72 579.51,428.51C593.69,425.71 599.57,425.53 609.94,429.62ZM708.21,536.61C708.01,534.89 706.89,533.97 705.67,533.16C708.31,533.06 708.31,534.79 708.21,536.61ZM706.38,528.4C699.99,529.41 693.5,530.33 687.21,532.15C693.2,528.8 699.89,528.9 706.38,528.4ZM697.97,525.86C700.1,524.44 702.23,523.73 704.66,524.34C704.66,525.81 706.26,525.11 697.97,525.86ZM703.75,520.89C699.8,523.02 694.85,522.75 691.48,525.55C688.16,528.32 683.37,528.39 680.43,531.63C681.34,533.05 682.46,532.14 683.17,532.95C683.17,536.65 682.57,536.41 683.58,537.21C685.1,537.62 686.32,535.69 688.14,536.3C687.63,537.21 686.42,537.82 687.13,539.34C689.67,541.67 692.5,538.53 695.34,539.44C694.73,540.35 694.02,541.16 693.51,541.98C692.09,542.59 690.37,541.98 689.45,543.7C690.62,547.79 706.21,544.92 706.99,543.4C707.98,541.46 709.73,541.78 711.25,541.37C719.38,554.08 714.33,546.66 708.11,550.9C709.48,555 715.75,550.73 716.93,550.09C718.44,552.94 723.29,552.67 725.65,557.59C727.16,560.74 730.82,561.04 733.56,562.56C734.99,575.45 688.44,572.51 680.22,558.5C673.56,547.15 666.97,556.64 666.23,546.94C667.55,546.94 667.24,549.07 668.66,548.77C669.85,547.58 663.85,543.2 668.05,535.08C670.2,530.93 671.62,526.25 669.77,521.29C669.47,520.48 669.57,519.36 670.18,518.75C673.73,520.27 674.24,524.63 677.48,526.46C680.22,524.33 683.67,524.23 686.3,521.8C685.79,518.86 686.91,516.53 689.85,515.61C690.05,514.6 688.53,514.29 689.65,513.18C692.39,512.17 695.43,513.34 698.07,513.18C702.23,512.93 702.55,516.82 703.75,520.89ZM675.05,517.34C678.09,518.46 680.73,519.47 683.97,518.15C683.67,521.9 682.75,522.61 677.78,523.02C677.07,521.3 675.35,519.88 675.05,517.34ZM710.03,448.08C700.07,472.91 702.19,473.44 698.27,482.56C692.59,495.74 697.82,505.21 697.66,509.53C695.72,510.89 689.24,507.4 686,513.89C684.88,516.12 682.75,516.22 680.93,516.12C669.24,507.68 681.16,518.72 677.18,484.68C673.42,452.47 674.59,455.36 672.82,446.85C665.42,411.32 676.68,420.05 680.22,390.06C680.63,386.61 679.92,384.99 676.27,382.96C675.76,385.09 678.7,385.19 678.81,387.02C678.91,388.64 679.5,390.15 678.1,391.79C677.07,392.99 677.09,395.24 674.25,394.83C670.9,391.58 669.59,386.82 667.25,382.66C668.22,382.17 666.4,380.99 676.99,390.16C669.16,377.03 659.53,374.71 664.52,358.42C668.4,345.77 676,346.51 682.57,338.85C701.59,340.61 700.25,339.89 701.94,341.59C709.69,349.34 720.81,358.26 719.08,369.98C718.08,376.77 715.19,378.83 716.04,385.29C717.33,395.11 711.58,400.85 711.58,402.02C710.42,423.54 716.22,432.65 710.03,448.08ZM730.05,487.68C730.2,487.96 730.22,487.93 730.44,488.24C730.26,488.06 730.13,487.87 730.05,487.68ZM788.22,491.48C781.49,488.86 778.63,488.98 767.94,492.19C759.85,494.62 751.31,494.12 743.2,496.75C735.72,490.51 731.02,485.85 730.12,486.3C729.97,486.55 730.35,487.73 730.23,487.73C730.23,487.47 728.43,487.14 729.61,485.69C729.63,485.73 729.71,485.85 729.71,485.79C724.79,477.29 732.65,496.54 715.11,451.72C714.51,450.19 713.57,448.57 714.1,446.75C719,429.84 713.05,415.46 715.52,409.74C719.37,400.82 736.18,373.14 737.73,372.42C739.76,372.72 741.47,373.54 742.8,375.16C746.24,379.33 749.9,377.87 752.33,379.42C760.35,384.52 767.9,376.84 769.57,377.09C773.64,377.7 777.69,376.35 781.74,376.99C787.32,377.87 793,376.79 798.57,377.19C802.04,377.69 799.63,375.07 806.68,376.48C808.71,376.89 810.63,377.7 812.66,378.31C813.98,380.03 814.29,381.96 813.57,383.89C811.76,388.76 811.34,393.93 809.92,398.9C802.4,425.28 818.68,429.97 815.4,460.05C811.31,497.54 812.78,473.48 806.98,482.56C802.05,490.29 806.73,497.6 799.78,501.73C792.39,490.18 801.31,496.59 788.22,491.48ZM883.14,527.79C882.63,528.5 883.75,528.91 883.14,529.72C876.84,531.61 855.32,522.55 835.07,520.29C830.64,519.8 807.54,525.01 800.29,511.67C801.91,509.44 800.88,505.98 802.83,503.66C806.15,499.69 807.17,495.14 807.9,490.38C809.25,481.61 810.67,485.61 810.54,485.61C810.34,490.78 813.8,493.91 816.83,497.27C821.39,502.34 824.76,496.07 828.09,500.41C830.02,499.7 831.31,498.47 832.25,497.06C838.91,487.04 840.19,491.02 840.77,488.14C833.98,486.92 833.06,493.82 829.11,496.66C824.59,494.28 822.94,498.98 817.95,493.82C816.75,492.58 817.75,491.39 818.86,490.17C826.57,491.39 833.77,488.55 840.36,486.22C842.19,486.93 841.58,488.55 842.69,489.16C844.72,488.55 844.72,488.55 846.34,490.28C842.59,492.11 837.82,491.7 835.39,496.16C842.39,495.04 849.18,493.42 855.77,490.38C855.97,491.19 857.39,491.09 856.99,492.31C852.12,494.03 846.44,493.73 842.29,497.68C843.71,500.42 845.94,499.51 847.97,499.91C849.9,504.47 854.05,502.55 857.5,502.75C857.17,504.73 854.6,503.67 853.75,505.59C855.97,511.37 863.6,505.6 867.74,501.64C876.77,505.49 884.57,511.27 894.51,512.69C899.2,517.38 896.93,527.55 883.14,527.79Z" style="fill-rule:nonzero;"/>
        <path d="M672.93,313.29C672.91,313.3 672.91,313.3 672.93,313.29Z" style="fill-rule:nonzero;"/>
        <path d="M524.2,190.61C524.34,190.65 524.49,190.69 524.66,190.7C524.73,190.63 524.32,190.61 524.2,190.61Z" style="fill-rule:nonzero;"/>
        <path d="M648.38,362.39C649.6,344.24 653.25,327.51 669.57,316.65C649.45,322.94 644.1,356.07 648.38,362.39Z" style="fill-rule:nonzero;"/>
        <path d="M245.99,509.23C250.15,508.62 254.31,508.01 258.26,507.4C255.12,499.59 252.58,491.78 247.31,485.29C246.6,489.35 249.09,492.41 250.56,495.84C252.04,499.31 253.2,502.84 255.53,506.18C252.29,506.95 245.99,505.8 245.99,509.23Z" style="fill-rule:nonzero;"/>
        <path d="M247.71,481.04C255.62,489.46 265.25,496.05 273.97,503.65C266.27,494.93 257.44,487.53 247.71,481.04Z" style="fill-rule:nonzero;"/>
        <path d="M207.96,189.89L208.06,189.99C208.03,189.81 208.04,189.77 207.96,189.89Z" style="fill-rule:nonzero;"/>
        <path d="M210.9,177.72C209.9,181.72 207.23,185.43 208.03,189.81C212.34,184.92 214,174.68 215.16,172.55C217.17,169.39 213.67,166.67 210.9,177.72Z" style="fill-rule:nonzero;"/>
        <path d="M541.19,274.47C547.38,271.53 552.24,266.66 557.72,262.61C554.47,261.69 545.85,267.98 541.19,274.47Z" style="fill-rule:nonzero;"/>
        <path d="M563.8,260.78C560.17,262.88 546.74,270.95 548.28,275.28C554.15,266.17 564.83,264.48 566.33,260.88C565.53,260.68 564.71,260.26 563.8,260.78Z" style="fill-rule:nonzero;"/>
        <path d="M119.22,285.12C116.68,280.05 111.31,277.82 108.17,273.46C107.38,272.51 100.53,273.29 119.22,285.12Z" style="fill-rule:nonzero;"/>
        <path d="M661.66,330.45C657.4,336.64 654.46,343.43 652.53,350.73C655.88,344.14 658.82,337.24 663.48,331.26C662.88,331.06 662.27,330.75 661.66,330.45Z" style="fill-rule:nonzero;"/>
        <path d="M686.4,320.81C688.23,319.69 689.75,320.81 691.47,321.22C676.96,308.9 670.06,314.35 675.04,314.73C678.99,315.03 682.15,317.14 685.69,318.58C686.92,319.08 686.2,319.9 686.4,320.81Z" style="fill-rule:nonzero;"/>
        <path d="M520.3,284.1C526.59,281.16 532.98,278.22 539.57,276.09C531.55,275.08 526.28,280.45 520.3,284.1Z" style="fill-rule:nonzero;"/>
        <path d="M98.13,256.01C99.14,262.09 100.97,267.47 105.03,272.54C104.52,268.28 99.96,257.13 98.13,256.01Z" style="fill-rule:nonzero;"/>
        <path d="M284.83,509.84C285.78,511.27 292.23,507.71 310.79,505.18C320.01,503.91 300.9,504.15 284.83,509.84Z" style="fill-rule:nonzero;"/>
        <path d="M65.68,221.53C66.9,221.63 66.9,223.25 68.22,223.46C68.22,221.84 66.9,220.82 66.6,219C66.7,217.58 68.22,216.57 67.82,214.94C66.1,214.53 66.5,216.77 65.39,216.97C63.97,216.56 64.58,214.74 63.06,214.13C61.74,214.84 61.54,216.97 59.1,216.87C60.93,218.8 61.84,216.87 63.06,217.17C66.41,219.4 62.86,221.53 62.76,223.86C64.56,224.07 64.56,222.14 65.68,221.53Z" style="fill-rule:nonzero;"/>
        <path d="M70.45,228.84C76.41,237.04 71.52,228.04 71.46,227.83C71.56,226.61 72.98,225.9 72.58,224.48C69.44,223.87 67.51,226.2 66.5,231.98C68.42,231.67 68.62,229.34 70.45,228.84Z" style="fill-rule:nonzero;"/>
        <path d="M85.56,148.82C86.78,145.57 87.39,142.84 86.88,140.2C85.67,133.93 89.58,129.57 87.39,126.21C86.48,131.18 84.62,135.24 85.87,139.8C86.55,142.34 84.64,145.17 85.56,148.82Z" style="fill-rule:nonzero;"/>
        <path d="M85.56,168.09C85.36,163.12 85.76,158.15 86.78,152.47C83.53,157.24 83.02,164.64 85.56,168.09Z" style="fill-rule:nonzero;"/>
        <path d="M317.68,503.65C324.07,503.35 330.15,501.22 336.24,499.59C329.85,499.7 323.66,501.32 317.68,503.65Z" style="fill-rule:nonzero;"/>
        <path d="M203.7,202.67C205.32,198.51 207.65,194.56 208.16,190.1C204.51,194.76 202.99,198.92 203.7,202.67Z" style="fill-rule:nonzero;"/>
        <path d="M110.1,200.34C110.1,203.89 109.69,207.54 110.81,211.9C112.94,207.34 112.73,203.79 110.1,200.34Z" style="fill-rule:nonzero;"/>
        <path d="M511.27,283.7C511.07,287.76 508.94,290.6 506,293.23C511.27,292.42 513.91,287.75 511.27,283.7Z" style="fill-rule:nonzero;"/>
        <path d="M107.36,223.66C108.83,224.15 108.04,225.25 110.1,214.63C107.77,217.38 106.75,220.32 107.36,223.66Z" style="fill-rule:nonzero;"/>
        <path d="M219.62,192.53C218.75,192.1 219.25,191.23 215.77,202.27C220.23,199.43 219.31,195.78 219.62,192.53Z" style="fill-rule:nonzero;"/>
        <path d="M59.39,211.9C59.9,212.2 59.59,213.02 60,213.42C63.74,207.81 59.65,209.06 58.99,207.74C59.19,210.07 56.86,211.49 56.66,213.93C58.18,213.83 58.07,211.9 59.39,211.9Z" style="fill-rule:nonzero;"/>
        <path d="M705.88,323.96C703.65,322.34 701.01,321.63 697.87,321.02C701.72,324.57 703.95,325.38 705.88,323.96Z" style="fill-rule:nonzero;"/>
        <path d="M526.08,283.9C522.83,285.83 520.81,288.06 518.68,291.61C521.41,290.19 525.37,285.93 526.08,283.9Z" style="fill-rule:nonzero;"/>
        <path d="M219.01,159.88C218.5,155.42 221.04,151.67 221.34,147.31C219.42,149.43 218.1,155.82 219.01,159.88Z" style="fill-rule:nonzero;"/>
        <path d="M215.46,205.61C212.21,209.06 211.91,209.67 210.9,212.81C213.43,211.9 215.16,209.36 215.46,205.61Z" style="fill-rule:nonzero;"/>
        <path d="M572.42,264.53C572.42,263.31 571.31,263.01 570.8,262.2C569.08,259.46 569.08,259.46 566.54,258.04C564.13,259.17 565.5,261.17 570.49,262.5C570.9,263.31 570.9,264.43 572.42,264.53Z" style="fill-rule:nonzero;"/>
        <path d="M506,239.38C507.42,237.45 509.35,235.73 509.14,232.99C507.52,234.82 506.2,236.85 506,239.38Z" style="fill-rule:nonzero;"/>
        <path d="M210.7,132.19C209.58,133.81 208.27,135.33 207.86,137.97C210.39,136.25 210.59,134.22 210.7,132.19Z" style="fill-rule:nonzero;"/>
        <path d="M97.52,175.49C98.43,173.06 98.43,172.65 97.01,169.71C96.41,172.15 96.41,172.15 97.52,175.49Z" style="fill-rule:nonzero;"/>
        <path d="M214.65,169.61C215.97,167.99 216.78,166.16 216.88,163.22C215.26,165.45 213.84,167.08 214.65,169.61Z" style="fill-rule:nonzero;"/>
        <path d="M99.75,152.68C98.03,154.2 98.53,155.82 99.45,158.26C100.46,155.92 100.16,154.3 99.75,152.68Z" style="fill-rule:nonzero;"/>
        <path d="M207.55,119.82C208.16,117.69 209.38,115.56 207.04,112.82C207.25,115.76 207.45,117.79 207.55,119.82Z" style="fill-rule:nonzero;"/>
        <path d="M762.97,338.97C760.54,339.17 758.2,339.78 756.28,341.2C758.71,341.2 760.84,339.98 762.97,338.97Z" style="fill-rule:nonzero;"/>
        <path d="M76.33,240.9C77.45,239.07 78.36,237.65 76.94,235.02C76.23,237.25 75.42,238.77 76.33,240.9Z" style="fill-rule:nonzero;"/>
        <path d="M89.35,236.41C88.22,233.98 87.3,235.48 89.01,236.85C90.12,238.77 90.03,241.17 92.01,242.69C91.99,242.71 91.98,242.72 91.95,242.73C95.33,250.51 94.99,249.73 95.8,249.32C95.8,244.55 91.94,242.83 92.35,242.42C91.55,240.9 90.68,237.08 89.35,236.41Z" style="fill-rule:nonzero;"/>
        <path d="M498.49,289.98C497.88,288.56 496.56,287.95 495.45,286.33C496.26,289.38 496.26,289.38 498.49,289.98Z" style="fill-rule:nonzero;"/>
        <path d="M497.18,274.27C497.99,275.99 498.8,276.81 500.32,277.21C500.12,275.38 499,274.98 497.18,274.27Z" style="fill-rule:nonzero;"/>
        <path d="M578.61,263.42C578.1,264.43 578.41,264.54 581.35,264.64C580.33,263.42 579.62,263.11 578.61,263.42Z" style="fill-rule:nonzero;"/>
        <path d="M486.83,271.53C487.13,270.21 486.93,269.4 486.12,268.69C485.82,269.7 486.43,270.31 486.83,271.53Z" style="fill-rule:nonzero;"/>
        <path d="M703.04,312.8C700.25,312.8 700.61,312.73 700.61,313C703.84,313 703.04,313.09 703.04,312.8Z" style="fill-rule:nonzero;"/>
        <path d="M495.45,271.43C495.55,270.62 495.15,270.21 494.23,269.71C494.34,270.51 494.54,271.02 495.45,271.43Z" style="fill-rule:nonzero;"/>
        <path d="M125.11,65.67C124.12,64.02 123.5,66.26 123.18,66.79C124.4,67.29 124.8,66.48 125.11,65.67Z" style="fill-rule:nonzero;"/>
        <path d="M313.02,504.26C314.52,504.45 315.94,504.27 317.35,503.76C315.87,503.78 314.41,503.43 313.02,504.26Z" style="fill-rule:nonzero;"/>
        <path d="M317.35,503.76C317.49,503.76 317.64,503.76 317.79,503.75C317.67,503.64 317.74,503.62 317.35,503.76Z" style="fill-rule:nonzero;"/>
        <path d="M209.28,123.07C208.77,123.78 208.77,124.39 209.28,125.1C209.78,124.38 209.78,123.78 209.28,123.07Z" style="fill-rule:nonzero;"/>
        <path d="M552.24,254.69C551.73,253.47 551.33,253.78 550.62,254.18C551.13,255.4 551.63,254.8 552.24,254.69Z" style="fill-rule:nonzero;"/>
        <path d="M494.23,285.83C494.53,285.12 494.33,284.82 493.62,284.82C493.52,285.22 493.73,285.62 494.23,285.83Z" style="fill-rule:nonzero;"/>
        <path d="M776.05,317.06C775.54,316.76 775.24,317.16 775.04,317.47C775.54,317.77 775.95,317.77 776.05,317.06Z" style="fill-rule:nonzero;"/>
        <path d="M249.23,284.41C246.25,279.51 223.45,274.39 218.91,263.22C218.41,262 217.49,260.68 215.66,259.87C223.98,276.21 233.09,275.89 249.23,284.41Z" style="fill-rule:nonzero;"/>
        <path d="M177.84,318.48C180.38,313.71 184.74,310.47 188.18,306.51C181.89,310.67 176.21,315.13 174.39,322.74C179.76,319.6 183.21,314.32 188.38,310.88C183.92,312.19 181.08,315.54 177.84,318.48Z" style="fill-rule:nonzero;"/>
        <path d="M178.85,291.1C184.43,280.96 190.71,271.02 191.53,258.95C189.4,270.51 183.42,280.45 178.85,291.1Z" style="fill-rule:nonzero;"/>
        <path d="M191.83,315.54C197.61,309.56 205.22,307.53 212.72,303.78C204.81,304.38 192.95,311.08 191.83,315.54Z" style="fill-rule:nonzero;"/>
        <path d="M165.67,284.31C160.4,279.44 154.72,275.18 148.43,271.84C153.8,276.5 159.28,280.96 165.67,284.31Z" style="fill-rule:nonzero;"/>
        <path d="M177.13,324.36C178.45,323.75 179.06,323.14 178.96,321.93C178.45,322.54 177.94,323.25 177.13,324.36Z" style="fill-rule:nonzero;"/>
        <path d="M158.17,239.08C156.75,239.69 155.74,239.79 155.43,240.91C156.54,240.9 157.15,240.4 158.17,239.08Z" style="fill-rule:nonzero;"/>
        <path d="M377.01,426.28C378.14,421.72 382.76,418.27 381.88,413.2C381.46,410.77 381.87,408.64 382.18,406.41C383.64,395.92 378.75,405.87 379.64,412.39C380.67,419.9 373.61,421.5 372.14,427.3C371.22,430.9 375.68,431.66 377.01,426.28Z" style="fill-rule:nonzero;"/>
        <path d="M368.69,365.13C374.34,361.56 360.28,357.31 353.78,358.34C356.72,362.59 364.75,367.62 368.69,365.13Z" style="fill-rule:nonzero;"/>
        <path d="M347.6,359.25C346.89,356.61 344.86,355.43 342.43,355.19C331.54,354.11 334.36,348.04 324.58,350.32C330.36,351.84 335.23,355.56 341.21,356C343.74,356.19 345.26,358.33 347.6,359.25Z" style="fill-rule:nonzero;"/>
        <path d="M388.36,401.74C384.65,406.38 387.81,405.45 385.62,415.23C385.05,417.78 383.58,452.81 388.36,401.74Z" style="fill-rule:nonzero;"/>
        <path d="M383.8,354.38C379.54,356.71 376.7,359.96 373.25,361.99C377.92,361.48 382.08,358.64 383.8,354.38Z" style="fill-rule:nonzero;"/>
        <path d="M391.2,367.87C392.39,363.1 390.92,357.59 386.64,359.86C391.31,362.48 387.79,365.09 391.2,367.87Z" style="fill-rule:nonzero;"/>
        <path d="M391.91,376.99C393.13,373.85 391.4,371.92 389.98,369.99C389.48,372.53 389.28,374.97 391.91,376.99Z" style="fill-rule:nonzero;"/>
        <path d="M386.64,345.35C385.9,346.59 385.92,345 387.65,352.65C389.28,349.31 389.07,347.38 386.64,345.35Z" style="fill-rule:nonzero;"/>
        <path d="M381.16,390.28L381.16,399.31C383.29,395.75 383.29,394.23 381.16,390.28Z" style="fill-rule:nonzero;"/>
        <path d="M376.4,462.28C377.72,460.56 377.41,458.53 377.62,456.7C376.19,458.32 375.69,460.15 376.4,462.28Z" style="fill-rule:nonzero;"/>
        <path d="M380.56,368.37C379.55,366.75 378.43,366.24 376.61,365.94C377.31,368.07 378.02,369.08 380.56,368.37Z" style="fill-rule:nonzero;"/>
        <path d="M386.03,388.15C385.02,390.79 385.12,392.31 386.74,394.13C387.25,392 386.44,390.58 386.03,388.15Z" style="fill-rule:nonzero;"/>
        <path d="M313.93,364.32C312.81,363.71 311.6,362.8 309.87,363.61C311.09,365.03 312.51,364.72 313.93,364.32Z" style="fill-rule:nonzero;"/>
        <path d="M381.57,438.14C383.19,437.73 383.19,436.52 383.29,435C381.77,435.81 381.47,436.72 381.57,438.14Z" style="fill-rule:nonzero;"/>
        <path d="M381.67,386.12C380.86,385.82 380.86,386.53 380.76,387.03C381.26,386.93 381.77,386.73 381.67,386.12Z" style="fill-rule:nonzero;"/>
        <path d="M259.07,382.27C259.07,379.13 264.9,371.26 255.72,365.64C254.46,366.9 261.55,374.06 259.27,377.5C256.93,381.04 257.75,385.71 254.91,388.96C254.91,391.06 259.07,387.03 259.07,382.27Z" style="fill-rule:nonzero;"/>
        <path d="M238.89,367.66C232.57,370.82 242.95,385.2 243.05,385.31C243.78,377.19 237.74,375.3 238.89,367.66Z" style="fill-rule:nonzero;"/>
        <path d="M248.52,452.95C245.38,460.25 244.06,467.96 244.16,475.97C246.29,468.46 247,460.55 248.52,452.95Z" style="fill-rule:nonzero;"/>
        <path d="M222.86,512.48C226.92,509.03 228.94,500.62 226.92,495.54C227.53,501.52 223.57,506.39 222.86,512.48Z" style="fill-rule:nonzero;"/>
        <path d="M244.57,402.35C240.38,395.81 249.32,391.35 242.34,388.15C246.07,392.99 239.07,396.07 242.34,400.83C243.05,402.05 243.66,403.26 243.96,404.89C245.07,403.77 244.96,402.96 244.57,402.35Z" style="fill-rule:nonzero;"/>
        <path d="M249.94,425.26C249.64,431.65 248.01,437.94 249.33,444.32C248.93,437.94 251.06,431.65 249.94,425.26Z" style="fill-rule:nonzero;"/>
        <path d="M222.26,376.89C224.09,379.43 223.58,382.16 224.9,384.5C227.33,381.96 226.31,378.82 222.26,376.89Z" style="fill-rule:nonzero;"/>
        <path d="M215.46,371.31C216.17,374.56 218.91,374.66 220.43,376.08C220.33,373.24 218.3,372.43 215.46,371.31Z" style="fill-rule:nonzero;"/>
        <path d="M250.45,420.6C251.26,417.76 251.77,415.33 251.77,412.59C250.04,414.51 249.53,417.25 250.45,420.6Z" style="fill-rule:nonzero;"/>
        <path d="M225.3,483.88C227.02,481.34 227.33,478.71 225.71,475.97C225.5,478.61 225.4,481.24 225.3,483.88Z" style="fill-rule:nonzero;"/>
        <path d="M214.04,315.74C201.16,316.25 185.95,347.79 192.03,361.48C193.56,343.43 197.21,326.59 214.04,315.74Z" style="fill-rule:nonzero;"/>
        <path d="M206.13,329.84C201.26,335.72 198.63,342.62 196.39,349.72C197.92,348.09 206.54,330.95 206.13,329.84Z" style="fill-rule:nonzero;"/>
        <path d="M250.65,323.04C248.52,321.11 245.68,320.91 243.15,320.3C247.41,323.86 248.52,324.26 250.65,323.04Z" style="fill-rule:nonzero;"/>
        <path d="M248.42,311.69C247,311.39 245.99,311.39 244.36,311.79C245.99,312.09 247.1,312.19 248.42,311.69Z" style="fill-rule:nonzero;"/>
        <path d="M270.22,304.38C271.33,304.72 272.37,304.74 273.36,304.08C272.28,303.81 271.23,304 270.22,304.38Z" style="fill-rule:nonzero;"/>
        <path d="M371.02,506.39C367.78,507.83 368.59,510.75 368.69,513.59C371.83,514.3 374.76,515.61 376.9,512.27C379.06,508.91 375.21,504.53 371.02,506.39ZM372.54,512.78C373.66,510.45 372.03,510.24 370.41,510.45C372.2,503.3 379.68,512.44 372.54,512.78Z" style="fill-rule:nonzero;"/>
        <path d="M382.68,506.7C376.86,506.7 376.93,515.1 382.68,515.22C388.54,515.34 388.89,506.7 382.68,506.7ZM382.58,513.49C379.89,513.3 379.34,508.87 382.99,508.42C386.72,509.57 385.62,513.71 382.58,513.49Z" style="fill-rule:nonzero;"/>
        <path d="M388.36,515.32C390.49,516.44 390.59,513.29 392.31,513.6C393.53,514.01 392.41,515.53 393.53,515.93C395.15,515.93 395.56,513.7 395.05,508.02C384.08,507.23 390.27,510.56 388.36,515.32ZM390.19,509.94C391.71,509.43 393.03,508.72 393.44,511.26C392.01,511.66 390.8,511.87 390.19,509.94Z" style="fill-rule:nonzero;"/>
        <path d="M421.32,510.14C420.78,508.38 420.03,508.68 410.87,511.05C412.34,517.67 418.32,511.25 420.81,510.54C421.34,510.67 420.03,514.09 422.94,514.6C425.27,515.01 426.69,513.38 427.91,511.35C425.78,509.84 422.84,513.29 421.32,510.14Z" style="fill-rule:nonzero;"/>
        <path d="M179.16,49.54C172.46,51.52 165.45,51.06 168.21,58.26C170.27,63.62 171.94,64.45 177.64,62.92C179.66,62.38 181.7,62.22 183.52,60.89C189.29,56.69 185.93,47.54 179.16,49.54ZM173.58,54.11C176.42,54.82 177.13,57.05 177.13,59.89C169.56,66.7 166.32,52.29 173.58,54.11ZM179.56,59.89C179.15,57.25 178.34,55.02 176.62,53.1C182.79,48.47 187.13,58.81 179.56,59.89Z" style="fill-rule:nonzero;"/>
        <path d="M255.72,548.98C252.07,547.56 248.72,548.57 245.38,548.57C246.8,551.82 249.84,551.92 255.72,548.98Z" style="fill-rule:nonzero;"/>
        <path d="M155.12,322.94C151.47,324.26 149.14,327.4 146.3,329.63C150.05,328.42 152.69,325.88 155.12,322.94Z" style="fill-rule:nonzero;"/>
        <path d="M154.11,321.83C154.31,318.89 153.6,316.76 150.66,315.04C151.27,317.87 151.27,320.41 154.11,321.83Z" style="fill-rule:nonzero;"/>
        <path d="M147.92,313.92C147.62,311.08 147.01,309.15 145.18,307.63C144.58,310.06 145.49,311.99 147.92,313.92Z" style="fill-rule:nonzero;"/>
        <path d="M161.21,326.49C161.72,328.42 162.12,330.44 164.25,331.97C164.66,329.03 162.83,327.81 161.21,326.49Z" style="fill-rule:nonzero;"/>
        <path d="M146.5,323.45C148.22,322.54 148.63,320.51 149.75,318.99C147.92,319.9 147.11,321.62 146.5,323.45Z" style="fill-rule:nonzero;"/>
        <path d="M130.18,300.84C131.9,300.43 132.82,299.93 133.53,298.3C131.8,298.5 131.19,299.31 130.18,300.84Z" style="fill-rule:nonzero;"/>
        <path d="M147.72,317.57C148.23,317.27 148.84,316.96 148.73,316.25C148.02,316.45 147.52,316.76 147.72,317.57Z" style="fill-rule:nonzero;"/>
        <path d="M122.57,292.52C123.89,292.82 124.7,292.32 125.61,291.61C124.5,291.1 123.48,291 122.57,292.52Z" style="fill-rule:nonzero;"/>
        <path d="M135.4,185.9C133.1,185.25 132.58,187.68 131.29,188.37C135.7,188.37 135.66,185.95 135.4,185.9Z" style="fill-rule:nonzero;"/>
        <path d="M138.19,197.79C140.21,198.57 141.47,198.44 142.75,197.8C140.82,196.38 139.51,196.38 138.19,197.79Z" style="fill-rule:nonzero;"/>
        <path d="M308.76,338.05C306.69,338.49 303.76,338.91 301.86,340.48C304.17,340.49 306.93,338.97 308.76,338.05Z" style="fill-rule:nonzero;"/>
        <path d="M317.68,318.68C319,317.97 320.22,317.26 321.43,316.65C319.91,316.66 318.49,317.16 317.68,318.68Z" style="fill-rule:nonzero;"/>
        <path d="M278.94,315.03C277.7,315.65 277.63,313.89 282.49,326.39C284.22,321.42 279.96,318.89 278.94,315.03Z" style="fill-rule:nonzero;"/>
        <path d="M277.63,327.51C277.83,325.28 276.51,324.26 275.3,323.15C275.39,324.77 275.9,326.29 277.63,327.51Z" style="fill-rule:nonzero;"/>
        <path d="M291.42,320C293.04,321.93 294.16,323.25 295.58,324.87C294.97,321.83 294.97,321.83 291.42,320Z" style="fill-rule:nonzero;"/>
        <path d="M644.22,312.29C640.57,313.2 638.24,315.84 635.5,318.07C637.33,314.12 641.18,311.88 643.61,308.44C637.73,312.19 632.46,316.35 630.83,323.75C635.8,320.51 639.35,315.74 644.22,312.29Z" style="fill-rule:nonzero;"/>
        <path d="M704.46,286.03C698.88,279.97 678.41,275.3 674.75,264.84C674.55,264.13 673.94,263.42 672.52,262.91C677.51,272.9 680.73,275.24 704.46,286.03Z" style="fill-rule:nonzero;"/>
        <path d="M635.7,292.62C640.36,282.99 646.35,273.96 647.26,262.91C640.7,285.22 633.3,291.02 635.7,292.62Z" style="fill-rule:nonzero;"/>
        <path d="M647.97,315.74C653.65,310.67 661.15,308.74 667.54,304.99C660.14,307.02 652.94,309.56 647.97,315.74Z" style="fill-rule:nonzero;"/>
        <path d="M605.18,273.45C610.05,278.01 615.42,281.87 621.2,285.11C616.23,280.76 611.16,276.5 605.18,273.45Z" style="fill-rule:nonzero;"/>
        <path d="M589.86,239.28C591.79,236.34 593.71,233.3 595.84,230.05C592.2,231.98 589.76,235.53 589.86,239.28Z" style="fill-rule:nonzero;"/>
        <path d="M603.55,255.4C600.91,254.49 600.41,254.39 596.55,255.1C598.79,257.33 599.29,257.33 603.55,255.4Z" style="fill-rule:nonzero;"/>
        <path d="M613.69,241.92C612.57,241.92 611.86,242.53 610.75,243.95C612.38,243.24 613.29,243.03 613.69,241.92Z" style="fill-rule:nonzero;"/>
        <path d="M609.84,255.4C609.23,254.18 608.52,253.98 607.61,254.79C608.02,256.01 608.73,256.01 609.84,255.4Z" style="fill-rule:nonzero;"/>
        <path d="M617.85,311.38C617.24,311.79 617.24,312.29 617.14,312.9C618.15,312.79 618.68,310.83 617.85,311.38Z" style="fill-rule:nonzero;"/>
        <path d="M671.7,261.89C671.9,261.69 671.6,261.18 670.28,260.98C671.19,261.49 670.99,262.4 671.7,261.89Z" style="fill-rule:nonzero;"/>
        <path d="M827.67,430.13C837.88,410.44 834.06,420.1 835.58,405.39C836.43,397.14 832.28,405.74 832.94,411.98C833.9,421.09 819.36,427.67 827.67,430.13Z" style="fill-rule:nonzero;"/>
        <path d="M823.41,363.81C821.08,360.36 812.86,357.93 808.1,359.04C811.85,365.43 819.86,367.97 823.41,363.81Z" style="fill-rule:nonzero;"/>
        <path d="M801.71,360.36C800.7,356.81 798.46,355.94 796.13,355.7C785.43,354.57 788.32,348.76 778.69,350.93C784.37,352.15 789.03,356.02 794.92,356.51C797.45,356.72 799.07,358.74 801.71,360.36Z" style="fill-rule:nonzero;"/>
        <path d="M841.05,402.55C839.53,411.27 838.31,419.99 838.01,429.52C841.16,423.7 838.47,425.39 840.95,411.87C841.51,408.83 840.44,405.69 841.05,402.55Z" style="fill-rule:nonzero;"/>
        <path d="M836.59,355.6C832.74,357.12 830.1,360.37 826.55,362.39C831.01,361.98 834.87,359.45 836.59,355.6Z" style="fill-rule:nonzero;"/>
        <path d="M840.04,360.06C843.18,361.99 841.87,365.74 844.3,368.38C845.62,362.59 844.2,359.86 840.04,360.06Z" style="fill-rule:nonzero;"/>
        <path d="M844.91,376.79C846.03,374.15 844.81,372.23 843.08,369.69C842.37,372.94 842.98,375.07 844.91,376.79Z" style="fill-rule:nonzero;"/>
        <path d="M839.84,345.66C838.83,348.7 840.96,350.73 841.16,352.96C841.97,350.53 842.68,347.99 839.84,345.66Z" style="fill-rule:nonzero;"/>
        <path d="M833.95,390.48C834.36,393.32 834.46,395.85 834.36,398.59C836.79,395.96 836.69,393.52 833.95,390.48Z" style="fill-rule:nonzero;"/>
        <path d="M829.8,461.37C830.92,459.75 830.92,457.92 830.81,456.1C829.49,457.61 829.09,459.34 829.8,461.37Z" style="fill-rule:nonzero;"/>
        <path d="M839.33,389.16C837.91,390.88 838.82,392.2 839.53,394.43C840.65,392.1 839.43,390.68 839.33,389.16Z" style="fill-rule:nonzero;"/>
        <path d="M833.55,368.68C833.14,366.96 831.83,366.75 829.9,366.14C830.61,368.48 831.52,369.49 833.55,368.68Z" style="fill-rule:nonzero;"/>
        <path d="M834.77,437.64C836.49,437.23 836.09,435.71 836.49,434.8C835.07,435.2 834.77,436.22 834.77,437.64Z" style="fill-rule:nonzero;"/>
        <path d="M763.98,363.81C765.5,365.33 766.82,365.13 768.75,365.03C767.23,363.71 766.01,363.51 763.98,363.81Z" style="fill-rule:nonzero;"/>
        <path d="M713.68,368.37C712.67,367.46 712.16,366.14 710.43,365.94C710.58,369.06 717.15,373.02 713.37,380.14C711.86,382.98 712.15,386.73 709.72,389.47C712.81,391.52 719.04,374.35 713.68,368.37Z" style="fill-rule:nonzero;"/>
        <path d="M694.42,367.97C691.68,369.49 691.76,371.42 692.29,373.04C693.75,377.52 695.64,381.86 698.48,386.22C698.84,375.81 692.77,375.47 694.42,367.97Z" style="fill-rule:nonzero;"/>
        <path d="M703.64,453.05C700.6,460.05 699.08,467.35 698.87,474.95C700.44,474.95 699.5,477.93 703.64,453.05Z" style="fill-rule:nonzero;"/>
        <path d="M678.39,510.75C682.55,507.91 684.68,498.89 682.34,494.02C683.06,499.9 679.41,504.77 678.39,510.75Z" style="fill-rule:nonzero;"/>
        <path d="M699.69,401.64C695.93,395.7 704.18,391.59 697.76,388.15C700.67,393.43 695.04,396.21 697.35,400.12C698.25,401.65 698.77,403.16 699.38,404.89C700.5,403.77 700.28,402.56 699.69,401.64Z" style="fill-rule:nonzero;"/>
        <path d="M705.17,424.55C705.07,431.04 703.14,437.43 704.66,443.92C704.25,437.43 706.38,431.04 705.17,424.55Z" style="fill-rule:nonzero;"/>
        <path d="M678.29,377.4C679.81,379.53 679,382.37 680.52,384.6C682.75,382.06 681.94,379.43 678.29,377.4Z" style="fill-rule:nonzero;"/>
        <path d="M681.23,482.66C682.75,479.92 682.85,477.29 681.33,474.65C681.54,477.39 680.73,480.03 681.23,482.66Z" style="fill-rule:nonzero;"/>
        <path d="M671.6,372.33C672.21,374.76 674.44,375.17 676.16,376.18C675.76,373.55 673.93,372.63 671.6,372.33Z" style="fill-rule:nonzero;"/>
        <path d="M705.47,419.99C706.59,417.45 706.89,415.12 706.79,412.38C705.06,415.02 704.86,415.83 705.47,419.99Z" style="fill-rule:nonzero;"/>
        <path d="M671.4,386.93C672.21,388.86 673.12,389.67 675.05,390.38C674.03,388.66 673.22,387.74 671.4,386.93Z" style="fill-rule:nonzero;"/>
        <path d="M701.21,507.71C705.27,507.1 709.42,506.39 713.38,505.78C710.13,498.17 707.9,490.37 702.53,484.08C701.82,488.03 704.31,491.1 705.67,494.32C707.14,497.79 708.51,501.11 710.33,504.46C707.19,505.68 703.44,504.16 701.21,507.71Z" style="fill-rule:nonzero;"/>
        <path d="M702.73,480.13C708.64,486.03 720.66,495.29 728.59,502.74C728.31,499.65 711.87,484.7 702.73,480.13Z" style="fill-rule:nonzero;"/>
        <path d="M740.25,508.42C749.28,506.59 758.3,504.47 767.53,503.05C762.16,502.64 745.83,505.88 740.25,508.42Z" style="fill-rule:nonzero;"/>
        <path d="M770.98,502.34C777.47,501.83 783.76,499.91 790.15,498.28C783.45,498.08 777.27,500.61 770.98,502.34Z" style="fill-rule:nonzero;"/>
        <path d="M589.46,217.48C594.34,218.76 597.88,215.65 602.14,214.84C593.42,214.64 584.8,216.16 576.18,214.84C580.43,216.67 585.1,216.33 589.46,217.48Z" style="fill-rule:nonzero;"/>
        <path d="M565.93,186.95C571,185.02 576.07,183.2 581.45,181.27C576.58,179.04 571.31,181.07 565.93,186.95Z" style="fill-rule:nonzero;"/>
        <path d="M571.91,189.59C574.45,188.58 577.89,190.2 579.52,186.85C576.78,185.53 574.45,186.24 571.91,189.59Z" style="fill-rule:nonzero;"/>
        <path d="M584.49,217.98C584.49,219.87 591.75,219.57 595.85,220.01C595.85,218.42 598.03,219.05 584.49,217.98Z" style="fill-rule:nonzero;"/>
        <path d="M568.87,218.39C572.22,218.59 575.36,219.81 578.81,219.3C575.26,217.98 573.23,217.78 568.87,218.39Z" style="fill-rule:nonzero;"/>
        <path d="M591.89,188.37C590.17,188.57 589.35,189.99 587.83,190.8C591.08,191.31 591.49,191.11 591.89,188.37Z" style="fill-rule:nonzero;"/>
        <path d="M599.6,200.54C597.67,199.12 596.25,198.82 594.53,200.64C596.35,201.15 597.77,201.35 599.6,200.54Z" style="fill-rule:nonzero;"/>
        <path d="M531.86,233.09C533.18,232.28 534.09,231.37 533.89,229.34C532.06,230.25 531.96,231.67 531.86,233.09Z" style="fill-rule:nonzero;"/>
        <path d="M577.9,221.94C578.31,222.55 578.81,222.55 579.42,222.04C578.91,221.64 578.4,221.43 577.9,221.94Z" style="fill-rule:nonzero;"/>
        <path d="M876.24,510.04C874.31,509.63 874.31,508.11 873.1,507.61C869.85,507.2 867.02,509.33 863.67,509.23C864.68,513.39 866.1,513.29 873.1,509.23C874.01,510.55 873.51,513.19 876.04,513.08C878.17,512.99 879.49,511.66 880.4,509.53C878.37,508.83 877.15,510.14 876.24,510.04Z" style="fill-rule:nonzero;"/>
        <path d="M823.71,504.67C820.36,506.18 821.28,509.03 821.38,511.87C834.92,514.92 830.55,501.57 823.71,504.67ZM825.44,511.06C825.85,509.34 824.73,508.52 823.21,508.52C824.58,501.99 832.4,509.96 825.44,511.06Z" style="fill-rule:nonzero;"/>
        <path d="M835.27,504.97C829.7,504.97 829.41,513.47 835.47,513.59C841.48,513.71 841.36,504.97 835.27,504.97ZM835.58,511.66C832.28,511.9 832.04,506.69 835.58,506.69C838.75,506.7 838.94,511.42 835.58,511.66Z" style="fill-rule:nonzero;"/>
        <path d="M844.1,506.09C838.59,506.19 842.43,510.09 841.16,513.7C842.38,514 842.78,513.4 843.29,512.89C846.45,509.73 844.74,513.99 846.74,514.21C848.57,511.98 847.86,509.24 847.86,506.71C846.53,505.99 845.31,506.07 844.1,506.09ZM842.68,508.32C844.3,507.71 845.62,507 846.03,509.64C844.7,509.84 843.59,510.24 842.68,508.32Z" style="fill-rule:nonzero;"/>
        <path d="M669.57,176.91C665.47,179.68 657.98,181.04 661.96,187.05C665.32,192.11 667.18,192.44 672.51,189.48C674.02,188.64 675.65,187.96 676.87,186.74C682.68,181.71 677.05,171.86 669.57,176.91ZM663.18,184.72C663.69,181.41 669.32,180.45 671.29,186.85C667.53,192.51 662.63,188.32 663.18,184.72ZM673.73,186.34C672.31,184.01 671.19,181.78 668.96,180.66C669.97,179.24 671.19,178.73 672.41,178.23C677.28,180.56 677.68,182.49 673.73,186.34Z" style="fill-rule:nonzero;"/>
        <path d="M710.84,546.75C707.19,545.63 704.05,546.45 700.9,546.34C701.72,549.79 704.86,550 710.84,546.75Z" style="fill-rule:nonzero;"/>
        <path d="M603.05,330.35C606.8,329.44 609.24,326.6 611.77,323.96C608.22,325.07 606.09,328.32 603.05,330.35Z" style="fill-rule:nonzero;"/>
        <path d="M607.91,316.55C607.81,319.59 608.01,320.1 610.14,322.53C611.36,320.61 610.55,318.48 607.91,316.55Z" style="fill-rule:nonzero;"/>
        <path d="M604.47,314.83C604.59,311.43 602.31,308.74 602.31,308.18C602.17,307.9 599.79,311.09 604.47,314.83Z" style="fill-rule:nonzero;"/>
        <path d="M620.79,332.78C621.09,330.04 619.67,328.72 617.85,327.61C618.16,329.53 618.66,331.36 620.79,332.78Z" style="fill-rule:nonzero;"/>
        <path d="M603.45,324.77C604.57,323.25 605.58,321.73 606.7,320.21C604.57,321.02 603.76,322.74 603.45,324.77Z" style="fill-rule:nonzero;"/>
        <path d="M605.58,316.66C604.87,317.47 604.06,318.28 602.94,319.6C604.67,318.89 605.38,318.07 605.58,316.66Z" style="fill-rule:nonzero;"/>
        <path d="M587.53,301.95C589.36,301.65 590.27,300.73 590.67,299.31C589.36,299.82 588.04,300.13 587.53,301.95Z" style="fill-rule:nonzero;"/>
        <path d="M690.77,224.37C691.28,226.7 692.09,228.93 690.77,231.27C693.2,229.14 693.2,227.31 690.77,224.37Z" style="fill-rule:nonzero;"/>
        <path d="M697.05,257.74C698.27,256.02 698.06,255 696.04,254.19C696.55,255.2 695.53,256.52 697.05,257.74Z" style="fill-rule:nonzero;"/>
        <path d="M733.46,316.05C734.07,320.11 736.3,323.45 737.52,327.2C739.14,322.33 734.68,319.9 733.46,316.05Z" style="fill-rule:nonzero;"/>
        <path d="M730.11,323.86C730.11,325.69 730.82,327 732.54,328.83C732.65,326.09 731.02,325.17 730.11,323.86Z" style="fill-rule:nonzero;"/>
        <path d="M750.29,325.38C749.99,323.45 748.77,322.13 746.54,320.82C747.45,323.15 748.87,324.36 750.29,325.38Z" style="fill-rule:nonzero;"/>
    </g>
</svg>
