<?xml version="1.0" encoding="UTF-8" standalone="no"?>
<!DOCTYPE svg PUBLIC "-//W3C//DTD SVG 1.1//EN" "http://www.w3.org/Graphics/SVG/1.1/DTD/svg11.dtd">
<svg width="100%" height="100%" viewBox="0 0 900 600" version="1.1" xmlns="http://www.w3.org/2000/svg" xmlns:xlink="http://www.w3.org/1999/xlink" xml:space="preserve" xmlns:serif="http://www.serif.com/" style="fill-rule:evenodd;clip-rule:evenodd;stroke-linejoin:round;stroke-miterlimit:2;">
    <g>
        <path d="M169.46,412.96L169.56,412.86C169.56,412.81 169.49,412.92 169.46,412.96Z" style="fill-rule:nonzero;"/>
        <path d="M288.36,386.08C288.54,386.26 288.47,386.16 288.36,386.08Z" style="fill-rule:nonzero;"/>
        <path d="M467.62,479.21C460.85,474.4 448.55,469.48 443.04,460.42C444.64,456.02 440.95,454.02 438.84,451.43C437.45,449.72 435.64,450.53 433.94,452.03C435.25,424.57 434.7,425.95 437.94,412.86C444.91,384.72 441.39,381.14 443.44,370.79C444.99,362.99 441.02,359.39 442.44,353C444.01,345.93 439.77,346.63 439.34,344.91C436.96,337.29 432.05,340.42 400.17,321.53C389.71,315.33 371.79,311.76 371.69,311.74C367.38,310.68 366.56,306.16 353.7,316.24C362.49,310.64 371.39,312.44 380.28,315.74C374.58,319.84 372.09,326.13 369.89,332.73C363.84,350.88 359.6,350.37 351.3,361.11C352.9,363.31 350.7,366.21 353.2,368.6C348.2,369 348,363.4 343.71,363C349.81,354.41 353.19,344.91 358.6,336.62C360.49,333.72 359.7,330.52 360.9,327.43C363.6,324.83 367.1,324.13 369.19,321.53C366.19,321.93 364.09,324.43 361.2,325.43C360.6,323.13 359.1,321.33 358.1,319.04C357.2,318.34 355.9,318.65 354.8,317.84C341.65,308.17 319.8,315.94 316.43,330.13C318.53,331.93 317.03,334.73 317.43,337.22C311.44,329.52 305.83,316.29 281.06,323.03C279.2,323.54 274.84,327.22 285.26,324.53C290.51,323.17 303.6,322.08 307.24,327.03C309.61,330.25 312.04,333.33 314.63,336.72C307.94,334.22 301.24,334.42 294.55,334.22C292.9,340.62 276.06,338.95 277.86,361.5C278.91,374.6 283.24,380.4 288.36,386.08C291.11,386.08 290.79,385.2 287.95,394.07C277.44,399.32 256.73,332.68 271.46,376.88C262.63,369.73 257.87,372.05 257.87,364.49C259.47,365.19 258.87,367.69 261.07,367.79C262.46,364.54 257.47,363.03 257.47,342.91C257.47,336.14 262.8,332.63 262.37,331.32C261.27,330.12 260.37,332.02 259.07,331.62C268.53,320.77 273.12,313.74 283.05,314.33C291.83,314.85 305.02,311.79 307.23,309.23C307.99,308.35 321.42,307.93 323.42,308.03C325.22,308.12 326.82,307.83 327.42,306.03C331.12,305.83 334.41,306.33 337.81,306.63C337.51,307.73 336.31,306.93 335.81,307.73C338.21,308.43 340.51,306.93 342.8,307.73C352.22,310.42 319.26,313.95 320.42,317.42C358.12,307.69 351.37,307.81 355.99,309.73C363.54,312.86 355.31,304.3 345.9,306.93C341.7,302.73 335.98,306.46 332.31,302.33C331.18,301.06 330.01,299.83 328.21,299.53C326.92,299.21 314.15,285.82 309.52,277.75C306.25,272.04 305.03,265.46 301.73,259.86C296.57,251.12 299.77,257.23 290.04,247.07C293.34,244.77 293.94,240.88 296.04,237.88C301.05,230.69 299.61,222.11 301.64,214.3C302.33,211.65 300.12,206.5 304.34,200.61C306.89,197.05 308.15,192.22 310.24,188.12C319.67,169.56 313.65,151.62 316.04,138.36C342.95,179.95 394.69,165.3 395.38,116.38C395.45,111.61 392.56,112.84 411.17,111.08C411.77,109.88 412.57,108.78 412.97,107.48C414.27,103.98 411.28,100.53 407.67,100.99C391.95,102.97 394.59,103.26 392.98,97.59C385.95,72.74 366.33,57.39 341.82,62.92C320.14,67.81 312.36,83.36 309.25,105.19C309.25,106.85 302.1,106.52 300.46,106.29C295.4,105.57 297.84,111.6 288.17,111.79C279.14,111.97 160.08,123.97 159.97,123.98C157.47,121.48 153.84,120.64 150.68,118.88C148.76,117.82 146.48,118.36 144.98,118.68C123.56,123.31 137.21,125.81 125.2,101.59C113.83,78.68 97.02,71.97 76.74,74.71C48.31,78.55 37.87,105.38 37.87,134.06C37.77,134.07 9.22,136.75 5.2,136.66C1.7,136.58 -1.17,141.64 0.5,144.65C3.82,150.62 5.85,146.69 38.47,145.05C39.99,147.79 40.19,160.73 50.66,176.23C70.91,206.19 123.59,205.59 132.3,152.55C136.11,155.24 133.01,161.08 141.59,184.92C142.88,188.51 146.81,205.56 150.28,211.1C152.9,215.28 154.98,219.69 156.48,224.19C148.07,237.45 146.33,238.49 149.19,242.58C160.65,258.96 168.89,263.58 171.07,267.76C173.3,272.04 177.1,275.1 179.76,279.05C180.57,280.25 183.1,285.31 187.35,288.84C194.23,294.55 200.24,301.13 204.84,308.62C189.95,345.39 170.17,379.66 158.28,417.23C112.2,428.07 116.91,416.65 105.02,441.21C109.92,438.11 111.61,432.62 114.61,427.72C129.6,424.22 145.29,422.92 160.37,418.73C161.37,414.83 163.71,411.55 164.87,407.74C176.03,371.1 191.77,350.07 205.84,310.52C207.94,313.22 209.84,315.52 211.64,317.91C205.49,341.01 194.6,352.35 182.96,383.66C178.01,396.98 174.97,399.86 168.87,411.44C166.43,417.01 177.42,405.79 188.15,375.37C195.7,353.99 204.89,345.18 211.33,322.51C212.56,318.18 211.78,318.08 217.33,325.11C204.3,355.34 201.37,370.31 191.05,384.86C186.21,391.68 188.23,394.22 184.85,399.45C181.95,403.94 180.65,409.14 178.45,414.04C180.35,414.94 181.05,413.54 181.25,412.54C183.05,405.55 187.66,399.75 189.34,392.76C190.45,388.17 193.54,384.47 195.83,380.47C203.65,366.87 211.51,341.51 216.91,328.91C219.84,322.08 217.37,330.93 260.38,380.57C261.18,381.27 261.68,379.47 262.68,380.37C265.47,382.87 269.07,384.28 272.17,386.37C284.49,394.65 272.97,389.07 286.26,397.76C284.96,400.66 283.56,403.66 283.06,406.85C235.82,415.11 239.58,414.83 238.39,413.94C226.03,404.65 207.17,412.47 194.02,413.14C188.27,413.43 174.41,414.78 170.04,418.94C208.01,419.64 245.38,417.54 282.55,408.75C282.15,420.54 285.35,431.23 286.35,442.32C282.31,443.37 294.51,441.24 247.78,435.83C219.78,432.58 215.54,433.26 167.84,427.74C166.94,427.64 166.04,427.44 164.54,428.44C171.63,430.34 178.43,430.34 184.92,431.74C163.14,436.14 141.05,438.53 119.27,443.73C121.37,440.23 122.67,436.44 124.67,432.64C149.45,428.35 159.41,427.38 169.63,423.55C169.23,421.95 168.33,422.36 167.63,422.55C153.88,426.31 139.76,427.68 125.76,430.04C121.75,430.72 120.37,428.66 115.07,429.14C117.27,431.14 119.97,431.64 122.36,432.84C120.46,436.84 118.76,440.93 116.36,445.03C112.66,444.53 109.27,442.23 105.47,442.33C105.17,443.63 105.97,443.93 106.67,444.23C117.86,448.05 112.71,445.43 161.13,438.13C194.69,433.08 185.66,432.07 200.3,433.43C223.6,435.6 274.32,439.96 286.43,445.22C287.03,458.01 290.13,470.8 288.23,483.79C287.43,484.59 286.33,483.59 285.83,484.39C285.03,485.39 286.03,486.29 285.53,487.49C283.83,487.59 282.77,488.7 282.43,490.49C282.16,491.9 281.45,493.39 281.53,494.79C281.9,500.88 279.01,506.58 279.13,512.68C279.37,524.79 286.02,519.01 289.42,523.87C294.9,531.71 302.82,535 311.9,536.26C336.45,539.67 333.99,535.06 338.58,535.06C346.14,535.06 344.12,523.13 334.58,523.57C333.78,521.77 332.8,519.95 331.08,518.77C326.14,515.39 323.95,510.1 320.89,505.28C320.38,504.48 319.59,503.48 321.29,502.88C319.89,499.48 318.19,496.29 315.89,493.19C316.59,491.69 317.69,490.19 316.99,488.29C321.79,486.39 326.88,486.79 331.38,484.49C326.58,485.09 321.79,485.59 316.79,486.89C315.09,484.99 313.19,483.19 310.39,483.19C308.09,465.2 312.39,448.82 321.08,433.23C340.36,480.86 333.05,471.62 336.17,468.5C337.97,470.3 338.67,473 340.97,474.4C340.57,470.1 337.07,467.21 335.67,462.61C339.77,467.01 343.26,470.8 347.76,473.9C350.81,469.68 355.83,473.88 376.54,467.11C378.89,466.34 378.9,466.73 387.23,469.51C391.43,470.91 394.32,475.31 394.12,480.4C369.34,485.6 344.96,492.69 319.38,497.79C322.9,501.06 382.69,483.59 393.22,482.6C394.08,484.01 392.65,492.19 411.81,494.69C417.3,495.41 419.87,492.92 423.6,493.59C454.56,499.18 431.3,495.83 463.27,502.98C470.57,504.61 472.62,498.08 477.76,495.49C480.83,493.94 481.39,491.49 481.16,488.4C480.5,478.71 473.62,483.47 467.62,479.21ZM412.27,105.2C412.68,106.9 411.17,108.91 409.27,109.1C394.11,110.6 396.2,111.88 395.48,104C408.81,102.84 411.33,101.35 412.27,105.2ZM3.49,144.67C1.79,141.87 1.79,141.77 4.59,138.67C10.26,142.65 5.31,145.71 3.49,144.67ZM7.88,145.37C17.12,136.5 -21.88,139.25 81.02,131.88C85.84,131.54 86.77,134.3 85.22,137.18C82.08,139.14 85.97,138.41 7.88,145.37ZM84.92,140.17C87.82,138.17 88.3,135.48 87.22,132.58C86,129.29 82.72,130.08 79.73,129.68C89.73,120.08 98.1,138.89 86.82,143.17C85.82,142.37 85.52,141.17 84.92,140.17ZM89.32,164.56C84.09,165.43 86.02,154.18 82.73,142.08C82.63,141.58 82.83,140.98 83.73,140.68C87.62,148.27 92.62,155.56 89.32,164.56ZM81.63,141.17C76.93,148.36 76.43,156.86 74.84,165.25C58.09,160.91 74.8,146.6 78.04,141.87C78.84,140.68 80.13,140.67 81.63,141.17ZM41.16,144.57C45.9,143.68 45.13,143.89 46.16,148.37C53.79,181.73 78.52,193.4 87.43,187.04C65.65,190.18 51.95,166.28 48.26,149.97C46.46,142 42.23,144.32 75.34,141.48C76.25,143.3 75.99,138.58 64.65,155.77C64.95,163.36 69.55,167.86 76.94,166.96C79.77,150.44 79.98,148.32 81.74,145.18C81.19,154.51 83.29,158.65 82.44,162.77C81.45,167.59 95.23,173.44 93.63,158.77C93.05,153.47 91.03,148.78 87.83,144.58C105.51,134.33 84.58,114.93 77.54,130.19C67.15,131.09 56.76,132.09 45.96,132.99C45.75,102.32 64.46,78.6 79.93,82.43C82.33,83.02 84.83,82.73 87.22,82.43C81.72,80.33 76.12,78.82 70.33,81.53C50.81,90.68 45.37,111.36 44.05,132.99C42.75,133.29 41.65,133.69 40.25,132.89C40.56,82.64 75.73,63.07 100,85.93C113.51,98.65 123.82,124.74 118.19,154.28C108.46,205.29 54.37,209.49 41.16,144.57ZM90.12,193.73C134.17,180.22 131.75,89.28 84.02,75.12C145.87,72.63 148.64,197.85 90.12,193.73ZM294.06,311.14C293.55,310.63 294.78,310.74 296.66,310.74C296.66,311.14 296.88,310.83 294.06,311.14ZM302.75,307.94C306.65,303.44 311.74,305.54 316.44,305.14C311.85,306.24 307.15,306.14 302.75,307.94ZM315.04,129.78C311.85,135.1 317.55,167.9 312.44,179.74C299.32,210.18 301.35,195.13 299.15,219.01C298.64,224.51 298.53,229.89 295.65,234.9C293.53,238.59 292.75,242.99 289.16,245.79C265.68,230.92 269.08,237.25 247.09,231.5C265.8,222.84 268.33,225.48 270.07,218.11C271.81,210.73 277.05,196.42 282.46,190.03C287.29,184.34 283.7,177.35 290.45,167.45C295.68,159.78 298.22,150.95 301.54,142.57C303.32,138.07 304.84,133.18 302.84,128.18C305.04,127.48 307.44,128.98 310.13,127.48C307.13,126.08 304.23,127 301.64,126.58C298.14,126.01 297.44,123.58 295.24,121.98C298.84,119.88 298.34,124.48 300.34,124.58C298.84,116.69 299.64,114.59 305.14,111.79C307.14,113.79 304.64,114.69 303.94,116.09C304.64,117.39 304.44,119.09 305.34,120.49C307.94,120.19 310.44,119.69 312.73,121.19C313.13,118.69 314.63,119.99 315.83,119.79C316.64,123.29 316.64,126.58 315.04,129.78ZM306.55,116.29C307.05,116.49 307.45,116.89 307.55,117.79C306.05,117.59 306.05,117.59 306.55,116.29ZM312.45,108.4C316.59,109.44 315.75,110.01 315.75,115.39C315.24,112.9 314.44,110.7 312.45,108.4ZM362.21,159.66C397.94,143.58 397.37,79.76 354.52,63.44C402.35,63.91 410.11,153.55 362.21,159.66ZM313.45,94.91C321.45,62.62 351.25,55.08 370.31,74.43C387.3,91.68 392.57,123.81 376.31,146.67C361.4,167.62 330.82,164.95 316.86,133.78C316.37,132.68 315.77,131.09 316.46,130.18C318.98,126.9 317.46,123.09 318.06,119.39C323.56,118.99 329.05,118.49 334.55,117.99C341.53,131.18 355,127.79 358.13,119.99C366.48,99.19 340.67,85.55 333.45,107.2C322.96,109.4 318.16,109.2 311.97,106.2C311.75,102.3 312.53,98.6 313.45,94.91ZM317.74,110.9C326.33,110.1 334.63,109.37 343.02,108.8C348.33,108.44 349.51,114.74 343.72,115.29C334.93,116.13 326.23,116.79 317.34,117.49C317.74,115.29 317.84,113.3 317.74,110.9ZM354.41,119.29C350.32,128.82 339.57,127.12 336.52,117.99C339.62,117.39 342.83,117.53 345.81,116.39C352.11,113.98 350.08,106.27 344.11,106.6C341.31,106.75 338.51,107 335.32,107.3C335.52,102.7 339.62,98.54 343.21,98.11C351.77,97.08 358.97,108.66 354.41,119.29ZM352.31,99.61C359,103.21 361.1,117.6 353.71,123.29C358.91,115.49 358.51,108.7 352.31,99.61ZM312.05,117.89C312.25,114.29 312.25,111.1 310.05,108.4C313.45,110.9 314.34,114.69 312.05,117.89ZM308.95,117.29C307.25,114.09 306.85,110.3 304.45,107.5C310.36,108.16 312.63,116.02 308.95,117.29ZM300.56,107.1C302.06,107.8 303.66,108.3 304.66,110C301.58,112.24 301.99,112.1 299.76,109.6C298.76,110.9 297.76,111.4 296.46,110.3C297.56,108.8 298.76,107.7 300.56,107.1ZM162.76,125.59C208.72,120.29 254.39,116.3 300.25,112.7C291.91,121.97 329.49,116.4 162.46,131.49C163.56,129.18 163.16,127.38 162.76,125.59ZM298.96,127.78C304.21,130.15 302.85,128.27 295.36,153.56C291.14,167.83 282.15,171.29 283.37,184.04C283.94,189.98 279.54,188.35 275.58,197.43C272.82,203.74 269.88,209.9 268.59,216.61C268.26,218.3 267.79,220.11 266.59,221.61C261.19,221.94 257.67,224.32 244.51,230.8C238.84,233.59 241.14,230.81 237.82,233.1C233.67,235.95 235.04,234.51 229.93,231.1C233.26,217.64 221.16,211.85 221.74,209.42C222.59,205.83 222.44,205.22 219.04,203.62C217.54,202.92 217.54,201.52 216.84,200.32C213.04,200.32 211.24,196.72 208.15,195.62C208.75,193.92 210.45,193.82 210.65,192.52C210.15,191.52 209.35,193.12 208.95,192.22C208.75,190.62 209.55,189.02 208.85,187.92C206.89,186.65 205.89,189.78 204.16,188.4C204.12,190.23 206.16,190.64 206.75,192.22C205.18,192.22 203.61,189.88 204.14,188.38C203.57,188 206.55,187.79 206.55,185.22C204.45,184.82 202.85,186.02 201.25,186.42C200.05,187.42 200.75,189.32 199.05,189.82C198.35,187.32 200.85,186.12 201.35,183.92C199.45,184.22 198.95,185.92 197.75,186.62C196.95,186.12 198.35,184.92 196.95,184.62C195.98,184.94 194.57,189.41 192.25,188.82C188.75,187.93 189.75,190.42 189.75,191.92C184.35,193.62 182.06,197.82 180.66,202.91C171.8,197.74 174.49,190.01 169.47,179.83C158.04,156.65 152.8,157.19 151.88,145.76C153.41,142.92 158.77,141.68 162.37,133.27C333.29,118.06 283.75,120.91 298.96,127.78ZM153.57,128.78C152.17,125.58 150.77,122.88 149.87,119.89C153.67,120.69 155.77,125.39 153.57,128.78ZM155.87,129.88C155.77,132.28 154.77,130.88 153.87,130.58C154.57,129.68 155.27,129.88 155.87,129.88ZM149.07,121.99C151.05,126.97 154.48,132.29 149.57,130.98C150.07,126.28 146.77,123.39 144.17,119.99C146.78,118.99 148.36,120.2 149.07,121.99ZM146.88,131.48C145.68,131.08 144.38,130.58 144.38,129.18C144.38,127.48 144.19,127.56 139.48,121.29C144.78,120.59 148.57,126.09 146.88,131.48ZM143.08,128.58C139.68,129.28 139.68,126.58 138.58,124.78C136.88,125.38 135.68,124.28 134.08,123.28C137.58,119.29 139.67,123.68 143.08,128.58ZM142.78,130.58C143.68,130.48 144.08,131.28 144.48,131.98C145.14,133.31 143.68,133.05 134.19,134.08C133.99,131.58 133.79,129.58 133.59,127.68C137.98,124.89 139.28,130.98 142.78,130.58ZM167.86,260.18C155.27,247.31 156.8,246.61 151.87,240.7C150.96,239.61 150.56,238.19 151.37,237.2C153.44,234.68 153.97,231.3 156.27,228.21C156.57,231.11 158.17,232.61 159.77,234.01C157.69,237.48 155.71,240.73 155.09,244.58C156.98,242.98 158.08,240.49 161.17,238.6C160.07,242.8 162.87,246.09 160.87,249.69C161.47,249.29 161.97,249.09 162.47,248.89C168.11,257.37 168.77,257.45 167.86,260.18ZM156.77,226.91C158.82,226.5 158.19,225.57 159.77,232.51C157.77,230.8 157.67,228.71 156.77,226.91ZM160.46,236.3C160.56,236.9 160.26,237.3 159.56,237.6C159.17,236.5 159.47,236.1 160.46,236.3ZM171.36,261.58C185.7,270.76 175.85,265.8 169.16,255.48C162.89,245.82 162.98,247.02 162.17,234.5C161.99,231.7 162.16,228.41 161.07,226.21C158.05,220.12 157.37,213.02 152.28,207.92C153.58,207.52 153.88,209.22 154.98,208.42C155.18,207.32 154.28,206.82 153.78,206.12C141.32,188.68 145.73,189.33 143.69,183.94C137.42,167.36 138.48,160.33 135.8,152.66C134.12,147.86 133.6,142.87 134.2,137.97C138.7,134.67 144.79,136.27 148.69,132.17C151.49,133.67 154.79,131.07 157.48,133.77C157.28,132.47 156.28,131.47 157.08,130.27C157.18,130.07 156.28,130.07 155.88,129.97C156.38,128.27 158.28,130.17 158.88,128.47C155.48,127.47 155.98,124.47 155.28,121.98C157.48,123.98 160.38,125.08 162.07,127.58C158.48,136.26 161.06,138.73 156.67,139.87C153.78,140.62 151.67,142.37 149.68,144.27C150.58,151.66 153.08,158.35 157.67,164.05C163.63,171.45 169.74,185.75 169.76,187.03C169.89,193.82 175.31,201.99 176.16,202.42C184.83,206.86 190.55,224.38 190.55,233C190.55,236.2 191.95,238.6 194.45,240.89C194.45,239.19 193.15,238.09 193.75,236.09C197.25,241.29 199.46,246.38 200.64,251.88C201.76,257.07 207.13,262.37 213.33,263.17C206.34,258.87 201.64,253.68 201.34,245.38C202.94,244.58 205.14,245.08 206.54,243.38C209.04,245.38 209.55,248.37 211.34,250.57C216.31,256.71 218.98,266.56 219.03,266.66C224.73,277.18 221.26,281.36 213.63,290.84C208.31,297.45 196.79,282.33 186.95,280.95C184.59,280.63 175.22,269.9 171.36,261.58ZM199.83,242.09C200.13,240.89 201.13,240.39 202.53,239.79C201.83,241.2 200.83,241.69 199.83,242.09ZM235.1,343.8C235.1,342.17 239.4,341.09 244.9,336.42C235.5,338.84 235.89,347.86 231.11,338.82C230.16,337.02 203.13,298.08 195.14,292.36C191.87,290.02 189.04,286.96 186.04,284.16C191.64,286.36 197.43,287.86 201.73,292.05C202.03,292.65 201.03,293.25 201.83,294.05C203.33,293.95 204.42,295.63 206.13,295.25C207.95,294.84 209.24,295.78 210.4,296.92C209.66,296.77 209.11,296.91 208.73,297.85C209.95,297.99 210.18,297.65 210.5,297.02C210.55,296.92 216.7,296.61 217.82,301.75C218.17,302.97 219.16,303.09 219.72,303.65C222.02,305.35 222.72,308.35 225.02,309.85C225.92,309.35 224.82,308.35 225.92,308.15C230.22,311.35 234.23,315.21 239.41,317.14C241.51,317.92 243.11,319.34 243.91,321.04C245.49,324.39 248.7,323.32 249.31,325.34C248.91,326.64 247.91,328.73 249.91,329.34C253.51,330.43 254.21,333.54 255.81,336.13C254.51,337.83 253.31,339.33 252.01,341.03C247.44,336.19 247.43,333.51 245.91,335.03C249.51,340.23 253.5,345.42 250.91,352.42C251.51,352.52 251.81,351.42 252.71,352.12C254.01,357.92 256.41,363.61 256.51,370.01C247.79,362.39 242.39,352.2 235.1,343.8ZM218.62,300.05C221.62,304.24 220.46,302.73 221.12,303.65C219.5,303.65 219.81,303.74 219.42,303.35C219.62,302.15 218.02,301.55 218.62,300.05ZM255.89,341.12L255.89,350.71C253.39,345.61 253.49,343.22 255.89,341.12ZM254.9,329.53C255.6,326.83 258,325.33 258.9,322.64C256.3,324.14 255.4,326.54 253.7,328.24C252.84,327.49 253.51,326.82 253.41,326.24C254.1,326.13 254.1,325.64 254.3,325.14C253.55,325.23 253.34,325.6 253.4,326.14C252.3,326.04 252.6,327.74 251.1,327.54C252.7,323.74 250.3,322.24 247.2,321.24C249,318.54 250.7,316.04 252.7,313.05C249.2,314.45 247.6,317.05 245.61,319.35C241.61,315.55 236.32,313.75 232.22,309.76C234.52,299.17 228.42,292.07 221.03,285.68C223.95,293.35 229.78,289.93 231.42,309.26C220.83,303.61 220.84,297.01 214.13,295.47C207.58,293.29 228.53,286.88 221.82,267.19C216.8,252.43 210.67,247.3 207.03,240.31C208.78,240.31 210.53,240.08 211.41,239.75C207.38,238.76 203.16,237.36 198.84,240.01C197.44,237.71 195.04,236.21 193.74,233.81C198.24,231.81 198.24,231.81 197.64,229.31C196.64,230.91 195.44,231.91 193.74,231.51C192.94,230.21 194.54,230.01 194.54,228.91C191.84,227.61 192.04,224.91 191.34,222.42C193.14,222.82 193.94,224.72 196.44,224.22C186.58,211.55 186.27,211.42 190.74,199.14C192.13,195.31 195.63,196.85 198.63,193.84C205.12,195.94 210.92,198.74 216.32,202.83C214.92,203.53 214.02,202.03 213.12,203.13C215.4,205.83 221.14,202.55 220.21,208.73C219.99,210.23 220.81,211.23 220.91,212.23C221.81,213.33 223.11,213.23 223.61,214.23C220.81,214.13 218.91,216.23 216.52,217.13C221.29,217.85 224.6,212.51 226.21,218.43C226.4,219.13 226.71,220.03 227.21,220.53C231.13,224.5 228.01,229.12 228.51,233.42C231.51,232.82 232.01,236.32 234.81,237.32C220.59,239.72 214.68,236.67 211.66,239.69C211.66,239.79 229.65,240.5 239.6,237.52C241.9,236.83 245.1,238.22 245.9,234.82C251.3,234.42 256.29,236.11 261.29,236.32C268.28,236.61 274.21,239.17 279.98,242.72C287.57,247.38 283.18,245.14 283.38,247.12C287.98,249.22 292.27,251.92 295.27,255.81C296.17,256.31 296.27,255.01 297.47,255.81C307.9,272.4 298.6,263.09 308.26,278.39C297.94,273.23 299.69,273.63 298.27,273.39C299.62,275.32 300.82,275.2 300.97,275.49C306.5,280.33 307.85,277.31 311.96,283.48C313.76,286.18 315.27,289.06 317.76,291.07C322.18,294.64 325.65,299.16 330.25,303.56C319.06,299.66 307.67,298.86 296.98,295.37C305.77,299.97 315.57,301.07 325.16,303.06C320.96,304.64 303.57,299.75 300.98,308.56C291.69,308.96 282.1,307.86 274.4,313.46C267.11,318.76 260.91,325.55 257.02,334.04C256.3,332.52 256.7,330.33 254.9,329.53ZM258.19,371.69C263.59,374.39 265.28,375.79 267.18,379.18C263.88,376.59 260.59,374.79 258.19,371.69ZM268.08,375.59C271.88,377.89 274.08,380.89 274.48,384.28C271.08,381.79 270.88,381.49 268.08,375.59ZM182.85,416.86C182.99,413.88 181.1,416.7 219.12,411.16C224.52,410.37 229.41,411.86 234.41,413.76C217.22,415.66 200.03,416.26 182.85,416.86ZM452.34,473.71C451.64,474.01 451.24,474.21 450.34,473.71C451.14,472.61 451.64,472.51 452.34,473.71ZM449.64,471.32C448.24,471.62 447.24,471.82 446.14,472.02C447.04,471.12 447.94,469.72 449.64,471.32ZM437.65,452.23C439.15,456.63 441.05,460.52 442.95,464.32C440.55,465.02 440.65,462.12 439.05,462.12C438.35,463.52 440.25,463.82 439.85,465.02C435.08,466.17 435.13,456.39 437.65,452.23ZM356.91,356.9C372.57,344.7 367.2,335.07 379.79,318.73C380.88,317.32 382.48,315.95 384.49,316.73C391.06,319.29 397.9,321.1 403.77,325.12C425.2,339.77 433.93,337.22 439.24,345.8C440.54,347.9 441.6,349.59 440.84,352C439.35,356.7 442.84,362.38 441.74,370.19C438.3,394.68 438.16,403.67 434.75,415.65C432.88,422.23 433.29,452.88 432.25,459.72C426.85,460.32 422.16,463.32 416.56,463.22C416.26,460.82 416.66,458.52 415.66,456.03C414.86,458.63 415.36,461.03 414.16,463.12C411.66,464.02 410.36,460.82 407.57,461.62C412.24,452.95 412.96,424.6 411.47,420.65C405.65,405.25 401.51,400.33 410.97,372.29C411.77,371.89 412.37,373.89 413.27,372.49C412.87,370.99 411.14,370.2 410.67,368.69C410.24,367.3 408.67,366.8 407.67,366.89C401.55,367.47 389.47,361.66 384.49,361.19C375.3,360.34 376.12,358.28 372.6,359.69C380.29,361.99 387.79,362.69 394.58,365.99C380.99,366.79 367.4,368.39 354.31,362.89C353.9,358.4 353.97,360.58 356.91,356.9ZM410.17,466.52C409.37,465.72 408.37,464.92 408.27,463.22C409.27,464.32 410.87,464.62 410.17,466.52ZM367,368.6C361.2,371.8 356.61,370.4 354.91,365.4C358.23,365.71 354.86,367.2 367,368.6ZM346.52,351.91C334.74,368.5 340.39,360.88 341.92,361C341.72,360.1 342.32,359.8 343.12,359.3C342.75,360.41 330.45,379.8 324.63,390.58C323.11,387.04 327.52,385.92 326.93,377.09C326.3,367.67 333.12,366.65 326.83,349.81C325.29,345.69 322.25,345.16 320.27,342.02C320.57,342.01 321.48,341.47 323.43,340.02C340.91,326.95 351.71,329.23 358.4,329.23C357.43,336.55 350.23,346.68 346.52,351.91ZM319.94,328.63C321.44,330.03 320.34,332.83 323.14,333.93C322.74,331.03 321.44,328.83 320.44,326.54C326,316.94 350.05,306.45 358.11,327.14C345.02,326.04 333.83,330.34 323.54,337.63C322.74,337.33 322.44,336.33 321.24,336.73C321.14,337.63 322.34,337.83 322.24,338.73C321.8,339.54 320.18,341.42 320.16,341.91C318.89,341.61 320.06,331.23 319.94,328.63ZM317.84,505.39C317.74,503.89 317.14,502.89 315.84,502.19C318.14,502.49 318.44,502.89 317.84,505.39ZM317.24,498.49C311.04,499.09 305.45,499.69 300.05,501.49C302.85,499.09 314.34,497 317.24,498.49ZM308.65,496C311.15,494.5 313.05,493.9 315.74,495C313.35,496.1 311.35,495.8 308.65,496ZM311.45,485.1C314.15,485.51 313.85,489 314.75,491.49C311.25,492.99 307.16,493.09 304.26,495.39C301.36,497.69 297.37,497.99 294.77,500.49C295.57,501.79 296.67,500.79 297.07,501.39C297.67,502.69 296.47,503.99 297.27,505.09C298.87,505.49 300.07,503.49 301.77,504.29C301.17,505.09 299.87,505.49 300.37,506.99C302.57,508.99 304.97,506.39 307.26,507.09C307.06,510.19 303.76,509.19 302.06,511.19C305.16,513.39 308.45,512.01 311.55,512.29C315.24,512.62 317.45,509.49 320.84,508.79C327.1,518.63 324.94,514.14 318.34,517.28C320.94,519.58 323.24,517.98 325.43,516.48C327.43,518.78 330.71,518.89 332.02,521.28C335.96,528.42 341.52,524.39 339.61,530.57C327.69,537.58 299.95,534.07 293.25,521.98C289.97,516.05 286.86,520.23 282.96,516.88C282.66,515.88 281.96,514.88 282.26,513.68C283.56,513.38 283.16,515.68 284.76,514.88C278.01,503.63 289.4,502.28 285.36,491.8C285.05,491 285.36,490 285.76,489.4C288.66,490.8 289.26,494.4 291.96,496.09C294.26,494.29 297.26,494.29 299.45,492.09C298.85,489.59 300.05,487.79 302.75,486.69C302.15,486.29 301.85,485.99 301.25,485.59C304.65,483.11 308.25,484.62 311.45,485.1ZM289.66,488.4C292.26,489.3 294.56,490.4 297.45,489.1C297.85,493.6 294.45,492.7 292.15,493.9C291.66,491.9 289.86,490.7 289.66,488.4ZM316.34,437.44C313.18,444.41 312.39,452.11 309.35,459.12C302.61,474.64 313.23,483.03 306.85,482.2C297.48,480.98 301.78,487.16 294.76,487.6C293.16,486.5 291.66,485.4 290.06,484.3C291.96,476.61 292.41,468.92 291.56,461.22C286.41,414.83 282.93,409.43 289.36,398.37C290.91,395.71 294.79,383.05 293.56,380.88C291.86,381.08 292.36,383.18 291.06,383.98C287.25,385.89 283.91,375.11 283.47,373.29C299.8,388.06 281.06,369.16 279.77,362.8C278.56,356.81 282.37,345.21 288.36,342.32C303.11,335.19 285.86,335.32 310.34,337.32C312.45,337.49 321.03,346.9 321.93,348.01C327.15,354.48 329.46,360.09 325.73,368.69C323.16,374.61 325.75,375.72 324.33,382.38C323.48,386.37 318.78,389.27 320.93,402.46C323.36,417.33 322.15,424.64 316.34,437.44ZM392.88,468.72C379.16,464.37 379.96,464.21 377.59,464.92C359.36,470.39 353.81,468.28 348.11,471.22C335.74,460.81 334.04,460.29 332.62,456.13C326.59,438.41 322.21,430.29 322.93,428.25C328.24,413.09 321.01,402.94 325.33,394.38C328.86,387.38 336.78,374.55 342.72,365C348.09,365 346.12,368.72 353.01,370.1C357.35,370.97 360.02,374.63 365.9,370.9C370.3,368.11 375.09,368.61 379.69,368.8C384.59,369.01 389.48,368.5 394.28,369C398.95,369 395.16,366.39 404.67,369.1C408.08,370.07 409.04,371.29 407.97,374.7C395.88,412.89 411.2,412.59 409.87,433.15C409.34,441.34 408.74,451.16 406.87,458.43C402.16,454.57 400.27,462.46 399.88,468.42C399.7,471.22 398.88,473.72 396.18,475.21C394.68,473.21 393.88,470.92 392.88,468.72ZM467.42,497.39C467.02,497.89 467.92,498.39 467.32,498.99C463.1,500.87 443.89,492.99 427.65,491.1C420.96,490.32 403.2,495.15 396.57,483.71C398.17,481.81 397.07,478.91 398.27,477.12C403.49,471.22 401.91,463.4 404.47,460.63C406.53,464.06 403.2,462.94 409.87,471.02C414.36,476.46 417.64,470.29 420.06,474.32C426.16,471.52 424.08,467.23 429.75,465.43C430.55,465.23 431.15,464.73 430.55,463.73C425.35,463.33 424.25,468.33 421.26,471.02C416.31,469.65 414.6,472.83 411.27,468.42C410.45,467.34 411.37,466.32 412.37,465.32C418.96,466.62 425.06,463.82 431.36,461.82C434.56,468.87 431.59,460.7 436.06,465.62C432.56,467.12 428.57,467.02 426.47,470.52C432.47,469.62 438.16,468.22 443.66,465.72C449.15,468.47 437.73,467.27 432.37,471.62C433.37,474.32 435.67,473.12 437.27,473.72C439.17,477.72 442.97,475.72 446.16,476.02C445.06,477.62 442.96,477.02 442.16,478.62C442.16,479.92 442.96,480.64 444.06,480.62C448.46,480.52 451.35,477.42 454.15,475.02C461.84,478.42 468.64,483.21 477.03,484.51C481.17,488.2 479.15,497.39 467.42,497.39Z" style="fill-rule:nonzero;"/>
        <path d="M899.98,489.09C899.51,479.5 892.32,483.8 886.19,479.6C880.04,475.38 872.99,472.52 867.5,467.31C857.82,458.12 863.05,460.37 862.3,458.12C860.9,455.82 859.37,453.37 857,451.53C855.38,450.26 854.1,451.33 852.4,452.63C853.58,437.82 853.05,432.4 854.2,423.25C854.94,417.35 861.29,400.31 861.19,377.99C861.16,370.52 863.57,370.43 861.29,361.1C859.31,353.02 861.82,356.2 860.99,348.31C855.09,344.47 858.5,342.32 852.4,339.52C819.63,324.48 814.44,317.09 789.85,312.24C785.88,311.46 784.92,306.64 772.26,316.84C781.05,311.04 789.95,313.04 798.84,316.24C791.01,321.74 790.46,329.55 784.75,342.62C780.27,352.88 779.38,348.85 769.96,361.41C771.06,363.71 769.46,366.51 771.36,369C766.46,369.4 766.56,363.5 761.87,363.7C768.17,354.91 771.56,345.31 777.06,336.92C778.96,334.02 777.96,330.72 779.46,327.63C781.96,325.73 785.26,324.43 788.35,321.63C784.55,322.83 782.15,325.03 778.86,326.43C778.3,311.27 739.82,308.78 734.49,330.93C735.69,332.33 735.69,332.33 735.59,337.52C732.69,338.05 730.38,323.24 714.41,322.53C710.2,322.34 698.14,322.44 696.62,326.33C701.25,327.58 705.62,323.25 720,325.03C723.71,325.49 725.61,326.96 731.79,336.72C725.59,335.92 719.5,335.42 713.1,335.42C712.3,338.32 709.6,339.21 707.4,340.32C691.29,348.46 693.95,372.75 706.6,386.88C702.9,387.98 699.91,385.18 696.51,386.48C699.81,388.18 703.3,388.88 706.3,389.38C708,389.08 706.7,386.98 708.8,387.38C708.8,390.28 707,392.68 706.7,395.47C697.04,395.47 690.07,373.42 685.12,362.8C685.52,368.1 688.52,372.59 690.12,378.19C684.62,372.69 676.39,372.79 676.93,366.1C678.03,366.7 677.82,368.22 678.93,368.8C682.53,370.68 676.13,362.73 676.13,344.02C676.13,339.42 678.63,335.93 681.33,332.63C680.23,330.93 679.23,332.83 677.93,332.13C681.83,327.83 685.54,323.45 689.62,319.64C697.87,311.95 702.74,318.06 718.7,313.05C731.16,309.13 722.97,309.97 728.69,309.45C744.35,308.05 745.22,309.39 746.38,306.65C750.08,306.45 753.37,306.95 757.17,307.35C755.97,308.35 754.77,307.95 753.97,308.25C756.97,309.65 760.66,306.35 763.66,309.85C755.77,313.05 747.17,313.85 739.48,317.44C740.78,318.09 770.66,309.61 770.76,309.55C771.86,308.85 773.55,309.87 774.96,310.45C782.91,313.74 774.29,305.2 764.87,307.65C760.79,303.57 754.84,307.19 751.28,303.05C747.86,299.08 747.54,301.74 745.28,298.95C736.04,287.54 736.98,297.91 742.48,276.27C746.63,259.94 741.19,240.75 743.28,231.01C744.09,227.22 743.88,223.42 739.28,221.22C741.08,220.72 742.38,220.32 743.98,220.32C754.65,249.13 768.84,262.88 800.64,256.59C820.32,252.7 830.02,231.13 828.92,210.43C828.49,202.35 826.47,207.31 844.21,202.54C844.71,201.34 845.3,200.24 845.61,199.04C846.59,195.24 843.5,192.09 839.61,192.84C835.3,193.68 830.92,194.44 826.42,195.24C809.51,142.52 752.02,150.07 743.29,192.14C739.12,212.25 747.64,209.18 733.5,211.03C730.72,211.39 726.21,207.34 724.86,211.21C724.85,211.2 724.84,211.2 724.84,211.2C724.84,211.7 726.33,210.08 727.91,210.93C730.61,213.13 733.11,215.83 733.21,219.92C732.11,220.02 731.21,220.72 730.21,220.32C730.33,216.29 726.78,213.78 726.2,214.06C726.09,215.34 723.99,213.42 721.81,214.61C721.01,217.01 721.11,219.51 721.01,222.1C680.64,229.19 640.47,236.19 600,243.28C601.08,231.89 578.74,243.86 720.21,215C720.11,213.5 720.81,212.4 722.51,212.1C724.95,213.12 727,214.22 726.11,213.71C726.6,212.54 724.43,211.49 724.76,211.16C720.29,209.56 720.44,213.26 717.22,213.91C618.04,233.86 660.35,223.61 649.37,225.8C648.37,222.8 645.97,220.4 645.17,217.21C644.47,214.41 642.27,213.01 639.87,212.11C639.38,210.33 642.11,205.73 637.77,204.62C635.87,204.13 635.47,202.72 635.17,201.32C627.19,199.3 633.49,201.1 634.28,203.32C633.38,203.82 632.38,202.62 631.48,203.62C633.84,205.69 639.79,204.38 638.87,208.32C638.2,211.22 639.07,213.32 642.47,214.62C639.17,214.92 637.17,216.82 634.78,217.62C639.07,218.79 643.51,213.01 644.67,218.82C646.01,228.19 660.8,223.28 614.09,232.71C613.39,232.81 612.69,232.71 612.39,231.91C612.89,230.71 614.89,230.61 614.59,228.61C613.29,228.71 611.79,227.31 611.19,227.71C607.68,230.09 605.99,226.01 603.2,226.11C605.7,223.71 607.2,227.71 609.5,226.71C610.3,225.71 609.9,224.91 609,224.21C608.2,223.91 607.8,225.01 606.8,224.61C606.6,223.41 603.9,223.91 604.7,221.51C608.1,220.91 610.2,223.81 612.89,224.61C616.6,222.59 605.17,218.15 607.89,202.53C609.17,195.21 613.11,198.95 618.38,192.64C619.29,191.55 620.08,190.24 621.68,189.54C622.48,190.84 624.18,191.44 624.78,193.14C622.38,194.24 623.68,190.84 621.28,191.54C619.29,192.54 617.45,194.97 617.51,195.35C623.09,195.41 629.9,201.98 630.84,200.1C630.44,197.58 627.45,198.02 626.37,196.25C626.77,194.85 628.37,194.75 628.87,193.55C628.57,192.15 627.77,193.65 627.17,193.15C626.77,191.75 627.87,189.95 626.77,188.45C625.27,187.95 624.27,189.45 622.77,189.65C623.07,188.15 624.67,187.85 624.87,186.25C622.77,185.65 621.27,186.95 619.87,187.25C618.27,188.15 619.17,189.95 617.47,190.55C616.57,188.15 618.97,186.95 619.77,184.95C617.87,184.95 617.47,186.55 616.27,187.15C615.47,186.95 616.17,185.85 615.37,185.55C614.17,185.75 614.19,186.96 613.57,187.75C609.84,192.51 609.64,186.84 604.28,193.25C591.82,208.13 592.16,208.2 592.39,213.43C591.59,214.03 591.09,212.73 590.19,213.73C590.39,215.13 589.29,216.83 589.69,218.73C582.15,220.82 576.62,217.77 573.4,224.43C571.18,229.03 574.73,231.35 574.13,234.43C577.61,235.73 579.93,230.77 583.79,243.21C578.14,243.84 582.41,239.49 574.95,234.92C571.33,233.47 569.55,235.33 567.31,238.52C566.11,235.12 565.19,232.03 564.01,229.03C541.77,172.22 470.39,183.58 474.78,251.81C475.07,256.36 475.33,256.33 472.38,256.91C467.72,257.82 441.1,262.26 440.7,262.61C436.93,265.84 437.1,268.81 441.6,272.9C453.29,272 464.88,268.9 476.77,267.3C478.17,271.3 479.19,275.39 480.77,279.17C488.78,298.38 502.29,312.9 522.84,313.74C556.39,315.11 570.18,289.7 569.7,255.99C571,257.09 571.88,257.68 571.5,259.19C570.04,265.02 572.38,266.06 572.9,274.18C573.95,290.6 569.19,308.45 579.3,326.84C580.61,329.23 582.7,330.94 584.2,333.23C585.5,335.23 588.2,334.54 590.2,333.93C597.95,331.55 598.6,329.93 613.38,315.54C623.07,306.11 617.5,300.5 623.27,308.75C614.82,333.58 586.38,384.59 577.01,417.76C576.9,417.78 536.07,425.01 534.34,425.45C531.03,426.31 532.34,426.12 523.05,442.14C527.2,440.33 530.71,433.38 531.94,430.35C534.3,424.57 562.94,424.85 579.7,418.76C589.87,425.18 588.9,419.25 588.39,419.76C573.15,413.45 579.8,425.53 585.19,402.07C589.25,384.39 609.08,351.62 624.56,310.34C626.46,313.54 628.86,315.54 630.26,318.13C624.29,339.59 611.68,357.33 606.08,372.29C601.51,384.49 596.74,396.64 589.39,407.56C588.38,409.05 587.69,410.76 587.29,412.86C588.08,412.47 589.07,411.7 588.28,413.3C586.4,417.11 589.31,414.44 589.33,413.1C589.39,408.26 595.7,405.05 603.97,382.68C616.95,347.6 623.61,346.57 630.35,320.83C630.45,320.43 630.45,319.73 631.45,319.63C632.65,321.73 634.85,323.13 635.75,325.73C627.17,344.12 620.45,367.55 613.77,378.29C604.46,393.26 608.92,386.34 597.28,413.46C597.07,413.95 597.38,414.36 598.08,414.76C601.2,413.31 599.22,410.67 605.57,399.67C608.37,394.82 606.81,392.7 611.77,385.38C620.58,372.35 629.27,346.8 635.05,330.42C638.38,321.01 635.58,330.11 678.12,379.78C679.32,380.38 678.92,379.08 679.72,379.28C685.84,384.31 695.11,387.64 698.11,392.87C699.6,395.47 702.81,396.27 705.2,398.07C697.62,410.28 710.51,405.17 685.42,409.76C656.66,415.02 658.31,414.98 657.04,414.06C644.43,404.86 626.28,412.87 611.98,413.46C606.97,413.67 601.68,414.48 594.59,416.17C590.15,417.23 588.58,419.15 588.89,419.47C590.84,419.31 576.28,419.89 648.94,417.37C660.91,416.95 664.08,415.28 701.5,409.38C701,420.77 704.4,431.46 705.2,442.25C683.27,436.03 650.87,435.08 586.79,427.96C585.89,427.86 584.89,427.56 583.29,428.86C590.58,430.36 597.28,430.86 604.27,431.96C582.09,436.36 560,438.85 538.42,443.95C540.12,440.25 541.82,436.66 543.62,432.86C558.71,430.06 574.1,428.66 588.98,423.77C588.08,422.17 587.18,422.57 586.38,422.87C580.63,424.4 545.98,431.46 539.92,429.96C538.01,429.49 536.12,429.36 533.72,429.36C536.22,431.26 538.82,431.96 541.41,433.06C532.43,451.91 538.35,443.6 524.62,442.45C523.47,445.45 534.45,446.67 538.31,445.75C562.51,439.98 589.7,438.09 605.56,433.96C615.33,431.41 695.56,441.52 705.38,445.45C705.88,458.14 709.18,470.93 707.18,484.22C706.68,485.12 705.48,483.82 704.98,484.62C704.08,485.62 704.98,486.72 704.28,487.92C699.75,487.49 701.1,496.92 698.58,507.01C697.32,512.06 697.05,521.14 703.28,521.8C712.05,522.72 708.44,533.18 730.66,536.69C739.4,538.07 747.1,539.48 755.14,536.29C757.54,535.34 762.96,536.11 762.03,530.29C761.42,526.49 757.93,523.89 754.14,524.09C748.24,517.79 742.05,512 738.95,503.81C739.05,503.31 739.65,503.91 740.05,503.61C739.75,502.01 739.15,500.81 738.15,499.91C737.75,497.21 735.75,495.61 734.75,493.42C736.25,492.32 736.15,490.52 736.15,488.82C741.02,487.07 747.35,487.22 751.24,484.72C745.54,485.72 740.55,486.52 735.35,487.42C733.85,485.02 731.55,484.02 728.66,483.62C728.07,455.99 731.38,453.3 739.75,433.46C745.25,446.75 749.94,459.84 754.54,473.23C755.54,471.43 754.04,470.13 754.64,468.53C756.64,470.53 757.14,473.73 760.04,474.92C759.24,470.92 756.14,468.23 754.84,463.83C771.86,480.02 762.77,472.85 771.73,472.32C792.88,471.08 792.31,464.87 805.8,470.02C810.2,471.7 813.09,475.72 812.99,480.91C792.26,486.36 738.74,497.81 738.15,499.9C763.03,495.7 787.11,487.81 812.19,483.01C812.89,489.9 818,491.86 823.38,493.6C835.2,497.43 837.51,493.08 842.47,494C868.71,498.84 847.87,495.35 881.44,503.29C889.43,505.18 891.19,498.47 896.83,495.7C899.77,494.27 900.11,491.79 899.98,489.09ZM840.13,194.63C844.79,194.11 844.98,199.94 841.73,200.73C837.33,201.8 832.84,202.53 828.24,203.33C827.74,201.03 827.44,199.23 826.94,197.03C831.64,196.13 835.94,195.33 840.13,194.63ZM800.26,254.58C831.96,234.68 824.73,177.98 790.27,162.35C787.46,161.08 784.37,160.75 780.98,159.55C833.19,157.23 843.08,245.64 800.26,254.58ZM798.87,169.05C817.94,184.61 825.69,215.98 812.36,239.99C797.99,265.88 762.71,262.46 748.21,226.9C747.31,224.7 746.41,222.5 746.11,219.81C776.87,214.18 763.45,215.9 772.19,221.31C785.43,231.74 800.65,211.79 787.58,197.33C782.09,191.26 770,190.22 765.6,205.62C758.71,206.82 751.61,208.02 744.32,209.32C740.19,171.57 772.6,147.63 798.87,169.05ZM781.88,207.12C779.98,201.05 771.61,205.5 767.29,205.02C766.43,199.41 775.7,189.61 783.98,198.82C797.24,213.58 777.88,233.5 769.39,215.71C770.81,215.27 784.11,214.27 781.88,207.12ZM783.88,196.53C795.21,203.55 789.92,219.51 787.08,219.51C787.28,218.81 787.58,218.21 788.18,217.91C788.27,218.01 793.47,206.6 783.88,196.53ZM739.31,212.22C779.68,205.33 775.54,204.9 778.38,206.52C780.54,207.76 781.48,211.38 775.68,212.52C752.14,217.13 758.35,215.59 739.31,218.72C741.31,216.31 740.51,214.32 739.31,212.22ZM608.61,218.81C608.91,219.31 609.81,219.41 609.21,220.21C608.71,220.01 608.31,219.81 608.61,218.81ZM711.83,312.04C711.83,311.51 711.14,311.64 714.13,311.64C714.13,312.05 714.32,311.73 711.83,312.04ZM720.83,308.74C724.73,304.44 729.72,306.34 734.32,306.04C729.82,307.04 725.22,307.04 720.83,308.74ZM738.51,214.02C739.42,215.52 739.41,216.62 737.51,217.32C736.11,216.02 735.01,214.62 733.91,212.62C736.21,211.32 737.42,212.21 738.51,214.02ZM732.42,213.22C737.62,219.61 737.82,220.61 734.12,221.41C735.81,218.11 733.12,216.11 732.42,213.22ZM727.92,228.51C725.99,222.72 721.11,228.55 722.92,215.82C727.72,215.92 728.02,216.32 728.32,223.31C731.02,221.81 733.54,222.18 735.91,223.91C736.97,224.68 741.91,221.88 741.91,226.81C741.91,231.52 740.08,232.58 741.01,243.4C741.55,249.66 744.49,276.46 736.21,289.86C724.06,271.87 728.57,279.81 724.22,268.78C720.71,259.88 723.63,261.36 725.42,256.69C728.32,249.14 727.72,241.1 728.22,233.21C729.52,232.91 731.22,233.51 732.52,231.61C729.62,231.01 726.92,232.42 724.33,230.51C722.03,228.82 720.03,226.81 717.04,225.31C723.87,222.79 720.32,225.41 727.92,228.51ZM715.43,225.21C718.63,229.41 723.42,230.51 726.72,233.6C727.22,237.6 725.15,241.09 725.62,244.79C726.36,250.58 723.62,255.18 721.12,260.28C717.77,254.42 712.43,251.36 703.13,246.59C691.87,240.81 698.09,241.65 689.14,236C678.89,229.52 650.95,236.19 715.43,225.21ZM662.27,235C660.87,237.7 659.17,235 657.87,235.5C659.27,235.2 660.57,234.4 662.27,235ZM652.18,237.8C647.78,239 643.29,239.1 638.79,238.7C643.29,238.6 647.58,235.4 652.18,237.8ZM619.01,242.09C618.31,242.89 618.01,243.49 617.31,242.99C617.51,242.39 618.01,242.29 619.01,242.09ZM600.32,245.29C605.02,244.39 609.71,243.99 614.31,242.99C612.91,244.19 612.01,245.59 611.11,246.99C597.07,249.51 599.49,250.31 600.32,245.29ZM602.92,209.52C602.52,210.42 603.22,211.22 602.02,211.62C601.32,210.72 601.62,210.22 602.92,209.52ZM605.02,229.4C601.97,229.5 601.55,229.13 601.52,226.15C601.72,228.09 604.46,227.35 605.02,229.4ZM599.22,224.61C599.42,225.51 599.82,226.41 598.32,227.01C598.12,225.81 598.42,225.21 599.22,224.61ZM575.34,229.4C574.34,225.87 575.51,223.91 577.64,222.73C577.45,224.41 578.25,225.61 579.34,226.8C579.04,225.41 579.43,223.62 577.66,222.72C581.33,220.71 587.82,221.03 590.93,219.81C590.73,223.51 590.85,223.69 593.13,226.11C595.75,228.89 597.53,232.41 600.12,235.4C598.02,233.9 595.26,234.77 593.33,233C591.66,231.47 589.83,230.9 588.23,232.8C577.84,227.6 577.87,238.28 575.34,229.4ZM586.43,237C586.93,235.4 585.43,234.4 584.93,232.9C586.53,233.1 587.63,233.5 588.63,234.2C589.03,236 590.33,237.5 590.33,239.5C588.13,239.7 588.03,237.2 586.43,237ZM591.73,240.3C592.33,242.1 591.23,242.31 590.03,242.5C588.63,242.72 588.53,241.9 588.73,240.8C589.73,240.7 590.83,240.8 591.73,240.3ZM578.67,233.03C577.29,233.03 580.67,232.56 581.24,232.9C588.07,238.22 585.63,235.48 587.64,242.29C582.75,244.38 588.17,238.13 578.67,233.03ZM445.34,270.47C448.73,266.95 443.63,264.43 445.94,263.28C522.62,249.96 518.26,249.65 520.68,252.29C522.44,259.32 520.8,257.23 445.34,270.47ZM520.08,259.28C524.83,256.9 523.86,247.41 516.18,249.29C512.96,250.08 517.33,244.79 521.68,246.09C528.91,248.25 529.25,259.03 522.68,261.88C521.48,261.28 521.48,259.68 520.08,259.28ZM527.78,279.57C527.87,284.17 525.05,284.47 523.88,281.27C521.53,274.86 521.12,267.8 518.58,261.39C518.07,260.1 519.08,259.59 520.18,259.39C520.42,264.85 527.52,266.22 527.78,279.57ZM517.39,260.28C513.69,267.87 513.39,275.97 512.59,284.16C502.06,280.95 506.12,273.58 513.69,261.58C514.58,260.17 515.79,259.98 517.39,260.28ZM478.52,266.78C482.6,265.91 482.16,264.62 483.52,269.28C493.34,303.08 518.37,312.18 527.49,304.75C508.06,311.74 488.61,285.48 484.32,265.48C514.12,259.97 511.18,260.57 511.9,261.28C507.3,265.18 505.8,270.87 502.81,275.97C504.01,282.86 508.71,287.16 514.7,286.26C516,279.07 515.3,271.37 517.7,264.18C518,269.08 518.6,273.87 520,278.47C520.27,279.13 518.6,285.81 525.5,286.56C533.8,287.46 532.34,272.37 523.8,263.18C540.92,250.34 517.11,234.44 512.41,249.59C502.32,251.29 492.43,253.09 482.33,254.79C479.26,220.16 498.6,199.62 511.41,201.53C513.51,201.84 515.81,201.93 517.9,201.13C512.7,199.93 507.5,198.51 502.31,201.53C489.39,209.06 482.9,222.77 480.83,237.7C478.18,256.77 484.26,254.58 477.03,255.79C474.96,246.48 476.38,224.53 487.12,209.23C499.93,190.98 525.14,191.01 541.58,215.13C560.54,242.95 558.7,279.42 544.38,298.96C526.72,323.04 490.69,313.27 478.52,266.78ZM530.78,311.94C574.8,292.2 560.04,200.33 512.89,194.43C575.41,187.49 589.26,306.42 530.78,311.94ZM571.84,235.7C576.24,237 578.04,238.6 578.53,242.29C575.93,242.09 574.73,239.99 573.03,238.29C572.23,239.39 571.14,237.8 570.63,238.59C570.04,239.5 569.63,240.19 568.03,239.59C569.25,237.9 570.14,236.4 571.84,235.7ZM568.15,241.99C570.25,241.69 572.65,240.59 573.75,241.29C577.91,244.56 594.94,243.85 569.15,248.68C568.99,247.97 568.15,243.62 568.15,241.99ZM618.21,301.85C618.38,304.35 617.89,307.13 616.21,308.84C613.59,311.51 611.28,314.68 608.02,316.83C601.15,321.38 605.97,325.63 590.13,331.52C588.53,332.11 587.03,332.32 585.33,331.72C584.23,329.32 581.85,327.82 580.43,325.42C572.58,312.12 576.24,304.02 573.54,266.67C573.35,264.07 572.57,261.48 572.74,258.88C573.07,253.84 568.1,253.69 569.64,251.19C570.54,250.49 570.94,251.89 571.54,251.49C574.45,249.51 578.04,249.31 581.23,247.69C585.14,245.71 589.02,243.09 594.12,243.89C592.32,242.59 593.22,241.09 593.32,239.69C590.62,238.29 590.42,235.89 589.82,232.8C592.92,234.1 594.92,236.3 597.71,236.3C598.31,241.1 598.01,246.39 597.11,248.99C581.08,256.3 590.45,271.3 595.71,290.36C597.15,295.58 605.15,307.66 604.1,312.74C607.47,307.77 603.55,305.27 601,298.65C600.18,296.51 591.29,269.77 591.31,269.67C594.81,251.5 596.28,257.88 600.1,252.28C601.12,250.79 602.7,250.16 604.4,249.98C610.79,249.31 616.59,246.28 622.89,245.58C623.79,245.48 623.69,244.18 625.09,244.58C628.79,250.78 633.58,256.77 635.98,264.26C631.97,264.76 631.77,261.5 627.09,262.26C622,263.08 617,264.5 611.8,265.36C609.9,265.67 607.51,266.87 605.6,268.26C604.9,268.76 605.1,269.36 605.2,270.06C607.6,268.16 610.52,270.3 612.79,269.06C620.77,264.71 628.78,264.36 637.37,267.96C639.47,272.86 641.19,278.37 637.67,283.55C634.2,288.66 631.47,294.94 623.38,295.04C623.58,292.34 620.78,293.14 619.38,291.94C619.48,287.54 620.38,283.25 621.08,278.95C617.01,278.97 617.94,297.83 618.21,301.85ZM597.12,251.19C595.32,252.49 593.92,254.29 592.22,255.69C592.63,252.99 594.53,251.69 597.12,251.19ZM590.33,264.68C589.83,262.38 588.43,259.98 590.63,256.99C592.03,260.18 590.03,262.38 590.33,264.68ZM653.58,345.21C653.02,344.66 653.16,344.1 653.34,343.46C650.39,344.08 629.31,308.88 623.2,304.54C619,301.56 621.82,299.81 619.5,295.14C622.76,296.42 626.49,295.28 629.09,298.04C628.09,297.54 627.19,297.44 626.59,298.74C627.78,299.17 628.83,297.67 629.19,298.14C636.55,296.94 635.81,306.39 636.48,300.74C642.21,308.77 636.28,301.93 636.28,302.48C635.99,302.41 636.2,304.11 638.88,305.35C638.88,304.63 641.24,309.76 643.38,310.65C643.88,309.95 642.98,309.35 643.68,308.85C646.25,310.64 652.72,316.3 657.47,317.94C663,319.85 660.57,323.15 665.76,324.73C669.58,325.9 664.66,329.13 667.96,330.13C671.56,331.22 672.36,334.13 673.86,336.92C672.56,338.62 671.36,340.22 670.06,341.92C668.16,339.72 666.46,337.62 664.76,335.52C664.76,336.82 665.56,337.82 666.16,338.72C672.68,351.75 667.6,347 671.26,354.71C672.16,356.61 671.47,359.1 672.46,360.61C674.48,363.69 673.86,367.01 674.26,370.3C667.8,365.68 659.89,352.35 653.58,345.21ZM674.26,341.32C673.46,344.42 674.06,347.62 673.56,350.61C672.76,347.41 670.87,344.21 674.26,341.32ZM672.86,330.73C674.16,327.23 676.96,325.13 678.56,322.14C676.06,324.04 673.86,326.24 672.26,329.33C671.46,328.33 670.36,328.53 669.26,328.53C669.56,327.13 670.26,326.13 669.66,324.93C668.76,323.13 666.76,323.23 665.56,322.03C667.26,319.63 669.06,317.23 670.66,314.14C667.46,315.64 665.66,317.84 663.97,320.44C659.87,316.64 654.68,314.64 650.78,311.05C651.58,297.06 646.78,293.86 639.19,286.57C642.41,294.83 647.62,289.81 649.78,310.15C637.03,302.69 640.21,297.38 630.79,296.36C627.51,295.81 629.79,295.15 630.69,294.46C656.41,274.58 626.5,246.97 625.59,241.2C638.28,240.1 651.07,241.4 663.26,237.2C664.16,236.6 663.46,235.1 664.56,234.3C667.96,235.7 671.25,234 674.65,234.3C693.67,235.97 692.42,244.07 701.43,247.89C718.98,255.33 723.13,274.95 725.61,278.87C722.41,277.17 719.31,275.57 716.12,273.87C719.73,278.74 726.99,279.16 729.31,283.06C734.34,291.53 742.2,297.45 748.69,304.34C747.79,303.84 746.29,304.64 745.59,304.04C742.68,301.52 744.85,303.37 715.01,296.25C723.8,300.85 733.5,301.95 743.09,303.84C728.46,304.77 720.89,302.21 719.01,309.44C709.72,309.84 700.2,308.71 692.63,314.24C685.41,319.51 679.14,326.33 675.34,334.92C673.96,333.92 675.66,330.93 672.86,330.73ZM677.06,372.79C680.96,374.59 682.56,375.79 685.05,379.28C681.16,377.39 678.36,375.19 677.06,372.79ZM686.05,376.39C688.95,378.69 691.95,380.89 692.74,384.98C688.75,383.28 688.15,379.29 686.05,376.39ZM600.82,417.66C601.12,415.26 602.62,415.86 603.42,415.86C636.15,414.07 637.98,408.26 652.38,414.56C635.29,416.46 618.11,417.06 600.82,417.66ZM870.81,474.51C869.71,474.81 869.21,475.11 868.61,474.61C868.91,473.11 869.51,473.21 870.81,474.51ZM867.91,472.11C866.31,472.21 865.31,473.11 863.81,472.31C865.21,471.91 866.01,470.52 867.91,472.11ZM855.72,453.03C857.22,457.43 858.92,461.42 861.02,465.12C858.52,466.42 858.72,462.92 857.02,463.02C856.12,464.32 858.42,464.72 857.82,465.92C852.88,466.8 853.3,456.95 855.72,453.03ZM790.17,334.72C791.43,329.84 797.99,315.93 803.26,317.93C830.99,328.5 825.1,329.86 834.54,333.62C839.04,335.41 843.14,338.2 847.83,339.62C852.43,341.01 855.58,344.15 858.42,347.71C861.76,351.9 857.6,350.92 859.52,360.4C861.35,369.45 855.84,405.36 855.82,405.46C855.02,410.76 852.83,415.75 852.42,421.05C851.1,438.17 851.82,458.17 850.32,460.62C845.22,461.32 840.53,464.12 835.03,464.12C834.53,461.72 835.13,459.52 834.23,456.63C832.83,459.43 834.03,462.03 832.43,464.02C829.93,464.72 828.53,461.92 825.84,462.32C829.66,455.74 830.24,440.54 830.44,432.24C830.98,409.31 815.66,412.91 829.14,373.29C830.04,372.89 830.54,374.39 831.44,373.29C829.07,369.74 828.48,367.53 825.54,367.59C819.14,367.74 813.44,364.92 807.55,363.29C802.25,361.82 796.86,361.29 791.46,360.09C786.49,360.09 806.24,363.69 812.84,366.39C806.15,369.49 775.47,367.09 772.27,363.39C772.27,362.49 772.17,361.59 772.17,360.59C776.34,356.86 785.77,351.72 790.17,334.72ZM828.24,467.52C827.44,466.52 826.44,465.92 826.54,464.02C827.44,465.22 829.04,465.42 828.24,467.52ZM784.88,369.49C779.68,373.59 775.39,370.69 772.99,366.09C776.38,368.8 780.58,368.9 784.88,369.49ZM758.1,362.2C761.05,363.54 764.63,352.14 742.51,391.88C742.01,388.68 744.13,386.99 744.31,384.79C744.87,378 745.84,371.41 747.31,364.81C748.48,359.54 745.07,349.33 740.92,345.72C740.01,344.93 738.42,344.42 738.72,342.62C739.52,342.92 740.02,342.22 740.72,341.72C758.5,326.99 771.32,330.53 776.69,330.03C773.59,342.72 764.59,351.81 758.1,362.2ZM737.91,329.03C739.31,331.23 738.51,333.73 741.31,335.13C739.45,325.54 734.71,328.87 744.91,321.14C751.73,315.98 758.89,314.87 767.09,317.44C772.58,319.16 773.68,323.74 776.37,328.03C762.88,326.93 751.79,331.23 741.5,338.52C740.63,337.74 739.66,337.26 738.5,337.23C738.38,337.58 739.95,338.33 740.31,339.42C739.91,340.72 738.31,341.22 738.61,342.72C737.12,341.44 737.11,339.95 738.47,337.3C737.1,335.24 737.91,331.96 737.91,329.03ZM733.92,339.52C733.22,338.92 732.52,338.62 732.42,337.22C733.22,337.92 733.92,338.32 733.92,339.52ZM736.31,505.89C735.81,504.59 734.81,503.69 733.31,502.49C736.31,502.49 736.21,504.29 736.31,505.89ZM735.12,499.39C729.32,499.79 723.73,500.49 718.33,502.19C721.33,499.79 733.02,497.79 735.12,499.39ZM727.32,496.6C729.22,495.4 731.12,494.6 734.11,495.8C731.42,496.8 729.42,496.7 727.32,496.6ZM729.52,486C732.09,487.16 731.92,489.9 733.02,492.69C725.43,493.99 719.43,498.09 712.94,501.18C713.44,502.98 714.84,501.68 715.64,503.18C716.34,503.68 714.24,504.88 715.34,506.08C716.94,506.48 718.04,504.78 719.64,505.18C719.54,506.18 718.04,506.48 718.44,507.88C720.64,510.08 723.24,507.18 725.43,507.98C725.33,511.08 721.83,510.08 720.23,512.28C723.43,514.18 726.73,512.87 729.82,513.18C733.62,513.56 735.62,509.88 739.01,509.78C745.42,519.86 742.79,514.92 736.61,518.17C739.31,520.77 741.51,518.47 743.7,517.37C745.5,519.67 748.88,519.67 750.19,522.17C751.87,525.37 754.69,526.77 757.98,527.77C757.98,531.17 758.08,531.27 756.38,532.27C746.05,537.62 730.38,534.88 719.61,530.97C710.79,527.77 712.59,519.28 704.02,519.18C700.92,519.14 700.42,517.98 700.42,514.58C701.22,514.68 701.22,516.18 702.42,515.98C701.8,513.49 698.78,510.33 701.82,504.49C707.02,494.5 701.24,493.08 703.82,490.5C706.32,492.1 707.22,495.2 709.62,497.19C712.02,495.49 715.02,495.29 717.31,493.19C716.81,490.59 718.11,488.79 720.61,487.79C720.21,487.39 719.81,487.09 719.51,486.79C721.23,485.4 726.99,484.86 729.52,486ZM707.94,488.9C710.54,490.7 712.94,490.8 715.73,490.1C715.03,493.5 714.83,493.7 710.13,494.3C709.74,492.6 707.74,491.6 707.94,488.9ZM735.91,435.54C732.62,441.87 730.55,453.73 727.62,460.32C724.54,467.24 725.45,475.43 727.42,482.8C725.5,484.08 720.22,480.88 717.23,486.6C716.34,488.3 714.73,488.4 713.03,488.5C711.53,487.4 709.93,486.3 708.43,485.2C709.61,478.14 711.37,470.03 708.63,452.93C706.73,441.09 709.04,447.23 704.93,422.85C703.58,414.85 702.81,406.85 707.33,399.37C710.11,394.76 710.35,389.28 711.83,384.18C712.03,383.48 712.33,382.48 711.33,381.88C709.93,382.38 710.33,384.18 709.13,384.78C706.23,384.68 702.44,379.18 701.34,373.59C718.02,388.76 699.04,369.82 698.04,362.9C695.75,347 709.28,342.16 714.43,337.02C719.73,337.42 724.82,337.62 729.72,338.32C738.23,346.59 749.73,355.18 744.91,367.5C742.65,373.26 742.75,374.94 743.11,377.09C744.34,384.45 739.33,390.46 739.31,391.18C738.93,409.28 744.2,419.61 735.91,435.54ZM810.96,469.52C797.18,465.15 798.07,465.12 795.57,465.82C775.82,471.41 771.66,469.13 766.19,472.12C753.8,461.19 752.09,462.01 749.8,454.63C747.12,446 742.27,435.81 741.21,431.35C739.88,425.78 744.23,426.54 742.01,406.17C740.86,395.66 741.38,397.66 760.7,366C762.2,365.6 763.48,366.01 764.1,366.8C766.64,370.05 770.59,370.42 774.09,372C777.68,373.62 780.98,373.7 784.08,371.7C788.58,368.8 793.67,369.41 798.47,369.6C803.47,369.8 808.36,369.4 813.36,369.8C817.41,369.8 811.36,366.84 825.25,370.7C826.25,372.3 826.56,373.9 825.95,375.6C824.47,379.71 824.13,384.09 822.95,388.19C816.75,409.78 829.82,415.6 827.65,439.15C825.03,467.49 825.23,457.37 822.35,458.04C815.92,460.18 820.72,472.87 814.16,476.03C812.75,473.91 811.96,471.71 810.96,469.52ZM885.3,498.19C885.5,498.89 885.6,499.19 885.8,499.89C882.46,501 867.33,497.38 864.02,496.19C840.45,487.73 821.38,497.56 814.36,484.7C815.66,482.5 814.93,479.68 816.56,477.71C821.48,471.72 819.89,464.91 822.56,461.42C822.96,462.02 823.36,462.32 823.36,462.52C823.24,467.37 829.3,475.58 834.15,473.91C835.85,473.33 837.35,473.51 838.45,475.21C840.85,473.61 842.86,472.02 843.65,469.61C844.56,466.82 848.05,467.21 849.35,464.61C843.45,463.81 842.46,469.21 839.46,471.7C835.86,470.7 831.37,473.3 829.07,468.5C831.01,463.34 827.7,469.7 849.05,462.7C850.35,463.5 849.85,464.8 851.05,465.4C852.45,463.9 853.25,465 854.15,466.4C847.85,468.5 845.3,468.3 844.46,471.8C850.66,470.3 856.35,468.9 861.95,466.3C862.35,466.8 863.25,467 863.15,468C859.05,469.8 854.06,469.1 850.66,472.7C851.96,474.9 853.76,474 855.36,474.4C857.26,478.4 860.96,476.8 864.35,476.8C863.15,478.3 861.25,477.9 860.45,479.2C861.25,481.6 861.95,482.01 864.35,481.2C867.55,480.12 870.15,478.1 872.24,475.9C880.03,479.1 886.73,484.19 895.12,485.29C900.59,493.04 893.14,498.8 885.3,498.19Z" style="fill-rule:nonzero;"/>
        <path d="M284.97,317.64C274.08,318.64 261.39,345.32 266.88,356.21C268.08,340.92 271.08,326.73 284.97,317.64Z" style="fill-rule:nonzero;"/>
        <path d="M703.44,318.24C691.25,321.24 679.66,345.82 685.05,357.31C686.15,341.72 689.25,327.63 703.44,318.24Z" style="fill-rule:nonzero;"/>
        <path d="M311.55,480.31C315.75,479.71 319.14,479.11 322.54,478.61C319.84,472.12 317.74,465.62 313.45,460.12C312.75,463.42 314.97,466.01 316.05,468.71C317.28,471.8 318.25,474.91 320.35,477.7C317.34,478.71 314.24,477.31 311.55,480.31Z" style="fill-rule:nonzero;"/>
        <path d="M314.34,457.13C320.83,464.02 328.63,469.42 335.72,475.62C329.53,468.42 322.14,462.52 314.34,457.13Z" style="fill-rule:nonzero;"/>
        <path d="M270.98,346.01C273.38,340.41 276.18,335.02 279.17,329.62C276.17,331.32 271.48,341.22 270.98,346.01Z" style="fill-rule:nonzero;"/>
        <path d="M721.43,321.83C717.33,318.03 712.74,315.43 706.94,315.63C710.64,316.93 714.33,318.13 717.63,320.43C717.73,320.43 717.63,321.03 717.53,321.63C718.93,320.63 720.13,321.63 721.43,321.83Z" style="fill-rule:nonzero;"/>
        <path d="M689.25,346.51C691.55,341.01 694.45,335.72 698.04,330.22C694.85,331.22 689.55,341.52 689.25,346.51Z" style="fill-rule:nonzero;"/>
        <path d="M296.86,318.04C298.86,318.94 300.56,321.04 304.05,321.04C299.15,317.34 294.76,314.64 289.16,314.84C291.66,316.14 294.36,316.74 296.86,318.04Z" style="fill-rule:nonzero;"/>
        <path d="M161.56,417.36C164.36,420.06 167.06,420.86 170.35,420.96C169.46,418.26 166.06,416.86 161.56,417.36Z" style="fill-rule:nonzero;"/>
        <path d="M278.27,385.38C281.67,387.28 285.26,388.08 288.86,388.38C289.66,387.38 288.96,386.88 288.86,386.28C285.27,386.78 281.97,384.48 278.27,385.38Z" style="fill-rule:nonzero;"/>
        <path d="M387.99,472.61C387.89,472.31 387.89,472.11 387.79,471.81C383.7,472.17 359.68,478.91 387.99,472.61Z" style="fill-rule:nonzero;"/>
        <path d="M733.92,324.83C732.32,323.03 730.12,322.53 727.92,322.43C729.82,323.33 731.32,325.33 733.92,324.83Z" style="fill-rule:nonzero;"/>
        <path d="M316.14,323.73C314.34,322.03 312.04,321.93 309.74,321.03C312.05,323.63 314.14,324.53 316.14,323.73Z" style="fill-rule:nonzero;"/>
        <path d="M777.78,339.22C782.61,337.41 781.52,337.27 778.38,338.32C777.2,338.71 777.52,338.96 777.78,339.22Z" style="fill-rule:nonzero;"/>
        <path d="M345.22,480.71C348.26,480.96 345.08,480.6 367.1,476.51C362.43,476.51 359.59,476.97 345.22,480.71Z" style="fill-rule:nonzero;"/>
        <path d="M169.86,414.76C171.16,414.16 171.16,412.86 171.56,411.86C170.76,411.46 170.56,412.16 170.16,412.16C170.46,413.06 169.06,413.66 169.86,414.76Z" style="fill-rule:nonzero;"/>
        <path d="M312.79,314.3C312.9,314.49 312.92,314.34 312.79,314.3Z" style="fill-rule:nonzero;"/>
        <path d="M311.85,314.34C312.05,314.34 312.35,314.44 312.55,314.34C313.05,314.1 312.31,314.18 311.85,314.34Z" style="fill-rule:nonzero;"/>
        <path d="M370.6,320.63C369.9,320.63 369.4,320.63 369.2,321.43C369.8,321.53 370.3,321.43 370.6,320.63Z" style="fill-rule:nonzero;"/>
        <path d="M263.48,310.14C252.53,315.34 250.08,327.41 253.99,322.53C256.79,319.63 259.59,316.73 262.68,314.14C259.38,315.04 257.48,317.74 254.99,319.74C256.89,315.84 260.39,313.44 263.48,310.14Z" style="fill-rule:nonzero;"/>
        <path d="M266.68,316.54C271.48,312.34 277.77,310.64 283.07,307.55C276.97,309.24 270.98,311.34 266.68,316.54Z" style="fill-rule:nonzero;"/>
        <path d="M230.01,280.96C245.2,292.1 243.55,291.12 244.2,290.15C229.56,279.1 230.55,279.89 230.01,280.96Z" style="fill-rule:nonzero;"/>
        <path d="M216.32,250.79C218.12,250.19 218.22,249.99 221.72,243.5C219.42,245.49 217.42,247.69 216.32,250.79Z" style="fill-rule:nonzero;"/>
        <path d="M222.72,265.18C225.12,267.48 227.02,265.58 228.92,265.08C226.91,264.58 225.01,264.18 222.72,265.18Z" style="fill-rule:nonzero;"/>
        <path d="M263.58,280.56C262.08,282.16 261.68,284.26 261.08,286.26C262.29,284.56 263.48,282.76 263.58,280.56Z" style="fill-rule:nonzero;"/>
        <path d="M265.88,273.97L265.78,273.87C265.69,274.46 265.71,274.29 265.88,273.97Z" style="fill-rule:nonzero;"/>
        <path d="M265.73,274.26C264.62,276.27 263.87,278.37 263.58,280.57C265.19,278.77 265.45,276.53 265.73,274.26Z" style="fill-rule:nonzero;"/>
        <path d="M287.07,271.27C288.07,272.77 289.17,274.27 290.07,275.87C290.26,273.57 288.66,272.37 287.07,271.27Z" style="fill-rule:nonzero;"/>
        <path d="M314.74,290.96C309.15,286.56 302.26,284.76 296.36,280.97C295.58,280.12 294.71,279.45 293.65,279.07C292.6,277.92 291.62,276.69 290.23,275.98C292.23,281.74 313.21,290.19 314.74,290.96Z" style="fill-rule:nonzero;"/>
        <path d="M290.24,275.98C290.21,275.91 290.18,275.84 290.16,275.77C290.06,275.87 290.01,275.86 290.24,275.98Z" style="fill-rule:nonzero;"/>
        <path d="M234.21,265.08C233.71,263.98 233.21,263.98 232.41,264.38C232.51,265.48 233.11,265.68 234.21,265.08Z" style="fill-rule:nonzero;"/>
        <path d="M259.39,289.86C258.29,289.96 258.39,290.86 258.29,291.66C258.99,291.26 259.59,290.76 259.39,289.86Z" style="fill-rule:nonzero;"/>
        <path d="M266.18,272.37C266.08,272.37 265.88,272.37 265.78,272.27C265.78,274.4 265.38,274.37 266.18,272.37Z" style="fill-rule:nonzero;"/>
        <path d="M88.52,83.02C89.42,83.82 90.12,84.12 91.12,83.92C90.62,82.62 89.82,82.72 88.52,83.02Z" style="fill-rule:nonzero;"/>
        <path d="M91.52,185.94C92.32,186.74 92.72,186.04 93.22,185.44C92.52,185.04 91.92,185.24 91.52,185.94Z" style="fill-rule:nonzero;"/>
        <path d="M419.76,413.76C422.96,410.96 426.46,401.97 425.86,397.97C425.57,396.08 427.64,392.36 426.36,390.08C424.96,392.48 424.06,394.78 424.36,397.17C425.4,405.4 419.59,406.54 418.26,411.06C417.35,413.58 419.01,414.14 419.76,413.76Z" style="fill-rule:nonzero;"/>
        <path d="M416.76,356.9C412.36,354.8 408.27,352.8 403.37,353.4C406.37,358.8 413.27,361 416.76,356.9Z" style="fill-rule:nonzero;"/>
        <path d="M397.28,354.21C395.29,348.47 391.12,352.58 385.49,347.62C383.58,345.93 380.89,346.22 378.4,346.42C394.16,353.37 394.32,350.86 397.28,354.21Z" style="fill-rule:nonzero;"/>
        <path d="M431.65,391.08C431.35,391.08 431.15,390.98 430.85,390.98C430.35,398.17 428.85,405.17 428.95,412.46C430.01,412.46 429.65,414.83 431.65,391.08Z" style="fill-rule:nonzero;"/>
        <path d="M434.15,361.4C434.85,356.2 433.95,354.41 430.55,354.51C433.35,356.01 432.15,359.1 434.15,361.4Z" style="fill-rule:nonzero;"/>
        <path d="M427.66,351.01C425.98,350.83 422.21,354.24 419.47,356.21C422.96,355.71 425.76,354.01 427.66,351.01Z" style="fill-rule:nonzero;"/>
        <path d="M425.96,387.78C427.76,384.78 427.36,382.78 425.66,380.89C425.76,382.88 425.86,384.98 425.96,387.78Z" style="fill-rule:nonzero;"/>
        <path d="M435.05,369.3C435.45,366.5 434.45,364.9 433.15,363.3C432.75,365.3 432.85,367.1 435.05,369.3Z" style="fill-rule:nonzero;"/>
        <path d="M431.25,348.11C432.45,344.81 432.35,344.41 430.15,342.31C429.85,344.81 431.55,346.21 431.25,348.11Z" style="fill-rule:nonzero;"/>
        <path d="M429.85,378.79C428.95,380.69 429.35,381.89 430.35,382.79C430.55,381.49 430.55,380.29 429.85,378.79Z" style="fill-rule:nonzero;"/>
        <path d="M425.06,361.7C424.76,360.2 423.36,360.4 422.56,359.9C422.66,361.7 423.36,362.3 425.06,361.7Z" style="fill-rule:nonzero;"/>
        <path d="M422.06,440.84C422.36,439.54 422.56,438.24 422.76,436.94C421.6,438.02 420.58,440.84 422.06,440.84Z" style="fill-rule:nonzero;"/>
        <path d="M369.4,358.5C368.5,357.4 367.4,357.5 366.2,357.8C367.2,358.6 368.1,359.1 369.4,358.5Z" style="fill-rule:nonzero;"/>
        <path d="M426.46,420.36C427.36,420.06 427.26,419.16 427.56,418.46C426.44,417.76 425.94,420.01 426.46,420.36Z" style="fill-rule:nonzero;"/>
        <path d="M160.86,207.52C166.46,209.12 167.45,214.41 169.85,218.61C170.46,213.52 166.86,209.02 160.86,207.52Z" style="fill-rule:nonzero;"/>
        <path d="M197.64,255.88C192.84,258.08 191.64,261.48 194.04,265.27C194.04,261.58 195.84,259.18 197.64,255.88Z" style="fill-rule:nonzero;"/>
        <path d="M143.68,153.96C143.78,157.16 145.78,159.46 148.48,161.35C144.14,152.36 145.03,153.06 143.68,153.96Z" style="fill-rule:nonzero;"/>
        <path d="M141.48,150.67C140.98,148.57 140.38,146.47 139.88,144.37C138.27,144.37 138.3,147.82 141.48,150.67Z" style="fill-rule:nonzero;"/>
        <path d="M188.54,265.58C188,264.5 188.82,264.63 182.84,268.28C185.55,268.67 187.24,267.47 188.54,265.58Z" style="fill-rule:nonzero;"/>
        <path d="M162.56,221.21C163.36,223.51 163.36,225.51 165.56,226.41C165.66,224.31 164.46,222.91 162.56,221.21Z" style="fill-rule:nonzero;"/>
        <path d="M192.94,273.97C194.64,272.77 195.34,271.07 195.74,269.07C194.14,270.47 193.54,272.27 192.94,273.97Z" style="fill-rule:nonzero;"/>
        <path d="M167.76,246.89C168.26,245.19 167.56,244.19 166.96,242.69C165.86,244.69 166.86,245.59 167.76,246.89Z" style="fill-rule:nonzero;"/>
        <path d="M149.97,164.36C149.47,165.66 150.37,166.36 150.97,166.96C151.17,165.85 151.17,164.95 149.97,164.36Z" style="fill-rule:nonzero;"/>
        <path d="M161.76,219.01C162.26,217.61 161.46,216.91 160.46,215.61C160.46,217.21 160.66,218.21 161.76,219.01Z" style="fill-rule:nonzero;"/>
        <path d="M154.07,198.23C154.47,199.63 154.87,200.33 155.57,200.83C156.37,200.43 156.27,200.23 154.07,198.23Z" style="fill-rule:nonzero;"/>
        <path d="M139.88,141.77C139.18,141.37 138.58,141.57 138.18,142.47C139.08,142.97 139.58,142.57 139.88,141.77Z" style="fill-rule:nonzero;"/>
        <path d="M196.24,252.99L196.24,254.29C196.94,253.89 196.44,253.49 196.24,252.99Z" style="fill-rule:nonzero;"/>
        <path d="M144.88,149.37C145.28,148.27 144.48,148.17 143.78,147.67C143.68,148.87 144.28,149.07 144.88,149.37Z" style="fill-rule:nonzero;"/>
        <path d="M153.07,195.73C153.07,193.33 150.4,193.76 152.57,195.93C152.87,196.23 153.17,196.23 152.87,195.93C152.87,196.03 153.07,195.83 153.07,195.73Z" style="fill-rule:nonzero;"/>
        <path d="M157.77,205.42C157.87,205.52 158.07,205.32 158.37,205.32C158.06,203.5 156.24,204.66 157.77,205.42Z" style="fill-rule:nonzero;"/>
        <path d="M306.25,361.4C301.7,363.13 307.03,371.48 309.65,375.59C309.31,366.84 305.12,367.74 306.25,361.4Z" style="fill-rule:nonzero;"/>
        <path d="M311.05,452.23C312.05,446.43 312.95,440.64 313.95,434.84C312.37,438.68 308.54,452.23 311.05,452.23Z" style="fill-rule:nonzero;"/>
        <path d="M292.66,482.91C295.76,480.41 297.46,474.42 296.26,469.32C296.26,474.01 293.66,478.01 292.66,482.91Z" style="fill-rule:nonzero;"/>
        <path d="M310.75,390.08C307.56,384.69 314.69,381.29 309.25,378.69C312.11,383.45 305.36,385.11 310.75,391.78C311.55,391.18 311.05,390.48 310.75,390.08Z" style="fill-rule:nonzero;"/>
        <path d="M322.24,371.89C322.19,374.69 320.94,377.09 319.84,379.48C321.84,378.08 323.18,376.28 323.04,373.78C322.93,371.95 323.64,370.58 323.74,370.68C325.84,367.08 324.14,361.69 319.74,359.59C327.11,372.24 322.28,369.57 322.24,371.89Z" style="fill-rule:nonzero;"/>
        <path d="M315.54,410.06C315.24,415.26 314.14,420.35 315.04,425.55C314.64,420.36 316.04,415.26 315.54,410.06Z" style="fill-rule:nonzero;"/>
        <path d="M292.76,369.39C293.96,371.09 293.16,373.49 294.86,375.49C296.06,372.19 295.56,370.89 292.76,369.39Z" style="fill-rule:nonzero;"/>
        <path d="M286.97,364.8C287.27,366.9 289.27,367.2 290.87,368.7C290.56,365.9 288.76,365.4 286.97,364.8Z" style="fill-rule:nonzero;"/>
        <path d="M295.06,458.53C296.19,456.83 297.07,452.93 295.06,452.93L295.06,458.53Z" style="fill-rule:nonzero;"/>
        <path d="M315.74,404.87C316.84,403.17 316.84,401.27 316.64,399.47C315.64,401.17 315.34,402.97 315.74,404.87Z" style="fill-rule:nonzero;"/>
        <path d="M292.98,376.16C293.08,376.91 293.74,382.51 293.74,380.52C294.55,378.88 295.16,377.27 292.98,376.16Z" style="fill-rule:nonzero;"/>
        <path d="M292.86,376.09C293,376.2 293,376.17 292.96,375.99L292.86,376.09Z" style="fill-rule:nonzero;"/>
        <path d="M290.86,373.99C291.06,375.29 291.56,375.99 292.86,376.09C292.96,374.89 292.16,374.39 290.86,373.99Z" style="fill-rule:nonzero;"/>
        <path d="M286.17,188.54C292.17,187.94 294.56,185.04 293.66,179.55C292.36,183.44 289.86,186.54 286.17,188.54Z" style="fill-rule:nonzero;"/>
        <path d="M301.15,192.73C300.05,193.43 300.25,194.93 301.25,196.03C302.65,195.43 301.65,194.23 302.05,193.33C304.15,191.93 306.25,190.63 305.75,186.93C303.85,189.24 303.16,191.44 301.15,192.73Z" style="fill-rule:nonzero;"/>
        <path d="M285.07,240.6C285.57,237.6 286.87,234.8 288.37,232.11C284.87,235.4 284.17,237.2 285.07,240.6Z" style="fill-rule:nonzero;"/>
        <path d="M311.35,178.34C309.35,180.34 308.75,182.94 307.85,185.43C309.75,183.44 310.85,181.04 311.35,178.34Z" style="fill-rule:nonzero;"/>
        <path d="M295.76,172.05C294.06,174.15 294.16,175.95 294.06,177.75C296.16,176.45 295.56,174.45 295.76,172.05Z" style="fill-rule:nonzero;"/>
        <path d="M272.98,229C273.58,227.4 273.48,225.8 272.88,224.2C272.48,225.91 271.28,227.51 272.98,229Z" style="fill-rule:nonzero;"/>
        <path d="M292.16,227.91C291.46,228.61 290.76,229.41 289.76,230.51C291.06,229.8 291.66,228.8 292.16,227.91Z" style="fill-rule:nonzero;"/>
        <path d="M312.65,131.68C313.55,130.88 313.25,130.08 313.15,129.28C311.65,129.88 312.05,130.68 312.65,131.68Z" style="fill-rule:nonzero;"/>
        <path d="M307.85,130.38C306.75,131.18 307.55,132.18 307.55,132.98C308.25,132.18 308.95,131.48 307.85,130.38Z" style="fill-rule:nonzero;"/>
        <path d="M297.26,163.46C298.66,163.36 298.56,162.36 299.16,161.76C297.66,161.46 297.66,162.46 297.26,163.46Z" style="fill-rule:nonzero;"/>
        <path d="M296.16,169.55C297.06,169.25 297.06,168.65 296.46,167.75C295.66,168.45 295.46,168.95 296.16,169.55Z" style="fill-rule:nonzero;"/>
        <path d="M273.48,219.81C274.08,219.21 273.78,218.51 273.48,217.51C272.88,218.61 272.48,219.21 273.48,219.81Z" style="fill-rule:nonzero;"/>
        <path d="M306.85,139.67C306.55,140.37 306.35,140.77 306.85,141.27C307.65,140.77 307.65,140.27 306.85,139.67Z" style="fill-rule:nonzero;"/>
        <path d="M311.25,178.34C312.05,178.34 312.35,177.74 312.55,176.74C311.55,177.05 311.15,177.35 311.25,178.34Z" style="fill-rule:nonzero;"/>
        <path d="M415.27,477.81C412.07,477.88 411.17,479.61 411.77,485.1C417.27,485.6 419.1,484.8 419.26,481.8C419.39,479.41 417.67,477.76 415.27,477.81ZM417.56,482.31C417.26,483.41 416.46,484.01 415.26,483.81C414.76,483.31 415.76,482.51 414.86,482.11C414.26,481.61 413.56,482.91 412.96,481.91C412.97,477.99 418.64,478.32 417.56,482.31Z" style="fill-rule:nonzero;"/>
        <path d="M461.43,482.31C459.83,482.01 459.73,480.71 458.63,480.21C455.93,480.31 453.43,481.51 450.54,481.91C452.34,484.91 452.34,484.91 458.83,481.61C459.43,482.81 459.13,484.81 461.13,484.81C462.93,484.81 464.23,483.81 464.73,481.91C463.33,481.21 462.23,482.61 461.43,482.31Z" style="fill-rule:nonzero;"/>
        <path d="M428.66,480.21C430.16,481.51 429.06,482.61 429.06,483.91C431.16,484.01 430.86,481.51 432.66,481.71C433.56,481.91 432.86,483.41 434.46,483.81C434.96,481.41 434.76,479.21 434.26,476.92C432.16,475.41 426.16,477.3 428.66,480.21ZM429.95,478.81C430.75,478.11 431.65,477.81 432.95,478.21C432.05,480.61 431.65,480.71 429.95,478.81Z" style="fill-rule:nonzero;"/>
        <path d="M424.66,477.21C422.36,476.72 420.96,477.71 419.46,481.11C424.27,490.71 432.52,478.89 424.66,477.21ZM423.66,483.31C420.61,483.11 420.84,478.51 423.96,478.51C427.43,478.78 426.75,483.51 423.66,483.31Z" style="fill-rule:nonzero;"/>
        <path d="M319.84,513.88C316.94,512.38 314.34,513.78 311.65,513.38C313.15,516.18 315.14,516.18 319.84,513.88Z" style="fill-rule:nonzero;"/>
        <path d="M227.91,230.2C220.12,230.4 212.82,231.8 205.63,230.6C212.92,232.1 220.22,234.5 227.91,230.2Z" style="fill-rule:nonzero;"/>
        <path d="M196.64,206.62C201.14,205.02 205.33,203.42 209.93,201.72C205.63,200.03 200.63,201.93 196.64,206.62Z" style="fill-rule:nonzero;"/>
        <path d="M208.43,206.32C205.03,206.02 204.43,206.22 201.84,208.82C204.03,208.12 207.03,209.42 208.43,206.32Z" style="fill-rule:nonzero;"/>
        <path d="M213.62,233.7C216.32,234.3 219.12,234.8 222.01,234.5C219.32,233.1 216.42,233.7 213.62,233.7Z" style="fill-rule:nonzero;"/>
        <path d="M206.33,233.8C204.03,233.5 201.83,233.3 198.84,232.9C201.63,234 203.93,234.1 206.33,233.8Z" style="fill-rule:nonzero;"/>
        <path d="M219.22,208.02C217.42,208.12 216.72,209.42 216.02,210.32C217.52,210.12 219.02,210.12 219.22,208.02Z" style="fill-rule:nonzero;"/>
        <path d="M225.11,218.31C223.81,216.91 222.71,217.11 221.01,218.31C222.82,218.71 223.92,218.81 225.11,218.31Z" style="fill-rule:nonzero;"/>
        <path d="M229.11,328.83C231.81,327.83 233.81,325.93 235.7,323.73C232.81,324.53 231.11,326.93 229.11,328.83Z" style="fill-rule:nonzero;"/>
        <path d="M235.01,322.43C235.11,320.23 234.31,318.63 232.61,317.43C232.71,319.33 232.71,321.23 235.01,322.43Z" style="fill-rule:nonzero;"/>
        <path d="M228.11,310.64C226.91,312.74 227.01,313.24 229.81,315.04C229.21,313.64 228.71,312.24 228.11,310.64Z" style="fill-rule:nonzero;"/>
        <path d="M240.9,326.93C241.4,328.63 242,329.93 243.3,330.73C242.9,328.43 242.9,328.43 240.9,326.93Z" style="fill-rule:nonzero;"/>
        <path d="M228.21,324.33C229.51,323.73 229.71,322.83 230.11,321.83C229.11,322.33 228.81,323.23 228.21,324.33Z" style="fill-rule:nonzero;"/>
        <path d="M215.52,304.35C216.62,304.65 216.92,303.95 217.42,303.15C216.22,302.95 215.82,303.55 215.52,304.35Z" style="fill-rule:nonzero;"/>
        <path d="M340.62,319.43C341.22,321.73 341.82,324.03 343.22,326.02C343.42,323.53 343.12,321.13 340.62,319.43Z" style="fill-rule:nonzero;"/>
        <path d="M338.93,327.43C338.73,325.63 337.93,324.73 336.83,324.03C337.13,325.33 337.33,326.53 338.93,327.43Z" style="fill-rule:nonzero;"/>
        <path d="M351.12,321.83C351.82,322.63 352.52,323.43 353.22,324.13C353.31,322.73 352.41,322.03 351.12,321.83Z" style="fill-rule:nonzero;"/>
        <path d="M340.52,319.53C340.22,318.63 340.92,317.43 339.62,316.93C338.73,318.24 339.52,318.93 340.52,319.53Z" style="fill-rule:nonzero;"/>
        <path d="M718.23,284.86C735.76,293.97 735.25,291.98 728.72,288.76C723.77,286.31 710.15,281.24 707.54,273.97C704.96,268.82 704.48,277.71 718.23,284.86Z" style="fill-rule:nonzero;"/>
        <path d="M662.17,291.16C657.87,287.46 653.38,284.17 648.28,280.77C649.68,283.26 658.78,290.06 662.17,291.16Z" style="fill-rule:nonzero;"/>
        <path d="M684.85,317.24C689.35,313.54 694.84,311.64 699.84,308.85C694.15,310.44 688.75,312.54 684.85,317.24Z" style="fill-rule:nonzero;"/>
        <path d="M635.29,251.99C636.79,249.69 638.19,247.39 639.89,244.7C636.79,246.79 635.49,248.69 635.29,251.99Z" style="fill-rule:nonzero;"/>
        <path d="M681.46,310.84C680.56,310.64 680.06,311.24 679.76,311.84C680.01,312.46 673,314.79 669.77,324.13C672.83,323.86 670.43,323.77 681.26,314.64C678.12,315.23 676.42,318.12 673.82,319.55C675.32,316.08 680.73,312.53 681.46,310.84ZM673.66,321.42C673.55,321.53 671.44,320.79 673.76,319.53C673.76,319.76 673.48,321.36 673.66,321.42Z" style="fill-rule:nonzero;"/>
        <path d="M640.69,265.88C643.19,268.28 645.09,266.28 646.89,265.88C644.89,265.38 642.99,264.98 640.69,265.88Z" style="fill-rule:nonzero;"/>
        <path d="M681.46,281.06C680.26,283.76 678.96,286.46 677.76,289.15C679.96,286.86 681.06,284.16 681.46,281.06Z" style="fill-rule:nonzero;"/>
        <path d="M682.86,278.57C683.46,277.07 683.86,276.17 683.76,274.37C683.26,275.87 682.56,276.77 682.86,278.57Z" style="fill-rule:nonzero;"/>
        <path d="M675.76,293.65C674.96,294.55 674.56,295.15 674.66,296.45C675.36,295.55 675.86,294.95 675.76,293.65Z" style="fill-rule:nonzero;"/>
        <path d="M716.13,273.87C715.83,273.57 715.43,273.37 715.03,272.97C715.13,273.87 715.63,273.87 716.13,273.87Z" style="fill-rule:nonzero;"/>
        <path d="M655.08,254.38C654.88,254.58 654.68,254.78 654.38,254.98C654.98,255.38 655.08,254.88 655.08,254.38Z" style="fill-rule:nonzero;"/>
        <path d="M651.98,266.08C651.98,264.88 651.28,265.18 650.68,265.08C650.68,266.48 651.28,266.28 651.98,266.08Z" style="fill-rule:nonzero;"/>
        <path d="M705.74,272.57C705.94,271.87 705.54,271.57 704.94,271.37C705.04,271.97 705.14,272.47 705.74,272.57Z" style="fill-rule:nonzero;"/>
        <path d="M519.38,201.93C520.48,202.53 521.08,202.73 521.98,202.23C521.28,201.43 520.58,201.33 519.38,201.93Z" style="fill-rule:nonzero;"/>
        <path d="M530.88,304.25C531.58,304.75 532.08,304.25 532.58,303.55C531.67,303.15 531.27,303.55 530.88,304.25Z" style="fill-rule:nonzero;"/>
        <path d="M837.93,414.46C840.33,409.36 845.12,405.27 843.93,398.77C843.63,396.37 845.43,393.97 844.63,390.88C839.65,397.8 845.6,401.3 839.23,407.67C832.95,413.95 837.93,415.45 837.93,414.46Z" style="fill-rule:nonzero;"/>
        <path d="M832.84,360C838.3,357.27 826.42,353.26 820.95,354.3C823.7,357.87 829.8,361.52 832.84,360Z" style="fill-rule:nonzero;"/>
        <path d="M815.35,354.91C815.15,352.61 813.46,351.89 811.55,351.61C801.73,350.2 806.08,346.51 796.46,347.31C800.36,348.51 803.86,350.67 807.75,351.61C810.56,352.28 813.25,352.81 815.35,354.91Z" style="fill-rule:nonzero;"/>
        <path d="M847.43,412.86C848.23,405.97 849.53,399.07 849.33,392.08C847.63,395.18 849.07,398.89 847.83,402.17C846.57,405.48 847.83,409.26 847.43,412.86Z" style="fill-rule:nonzero;"/>
        <path d="M845.53,351.61C842.53,352.61 840.73,355.01 837.54,356.71C841.13,356.51 843.83,354.81 845.53,351.61Z" style="fill-rule:nonzero;"/>
        <path d="M851.82,361.9C853.62,358.3 852.32,355.31 848.62,355.21C851.22,356.8 850.43,359.8 851.82,361.9Z" style="fill-rule:nonzero;"/>
        <path d="M848.43,342.82C847.73,345.52 849.53,347.22 849.53,349.02C850.23,347.11 850.52,345.21 848.43,342.82Z" style="fill-rule:nonzero;"/>
        <path d="M852.82,369.79C853.82,367.29 852.62,365.79 851.32,364.19C850.82,366.2 850.92,368 852.82,369.79Z" style="fill-rule:nonzero;"/>
        <path d="M844.23,387.88C845.53,385.78 845.33,383.78 844.03,381.68C843.63,383.78 844.23,385.78 844.23,387.88Z" style="fill-rule:nonzero;"/>
        <path d="M839.63,441.74C841.03,440.64 840.53,439.14 840.53,437.84C839.53,438.94 839.13,440.14 839.63,441.74Z" style="fill-rule:nonzero;"/>
        <path d="M843.23,362.7C842.53,361.2 841.63,360.9 840.43,360.6C841.03,362.4 841.03,362.4 843.23,362.7Z" style="fill-rule:nonzero;"/>
        <path d="M847.93,380.29C847.23,381.49 847.43,382.69 848.23,384.19C849.23,382.48 848.03,381.49 847.93,380.29Z" style="fill-rule:nonzero;"/>
        <path d="M787.47,359.4C786.37,358.3 785.47,358.4 784.37,358.6C785.08,359.6 785.98,359.7 787.47,359.4Z" style="fill-rule:nonzero;"/>
        <path d="M844.33,421.25C845.33,420.75 845.53,420.05 845.53,418.95C844.53,419.56 844.13,420.16 844.33,421.25Z" style="fill-rule:nonzero;"/>
        <path d="M737.91,380.29C742.59,376.88 740.05,375.06 742.21,371.2C744.1,367.8 742.01,362.11 737.91,360.31C740.67,365.08 743.19,367.56 740.91,371.8C739.45,374.51 739.81,377.79 737.91,380.29Z" style="fill-rule:nonzero;"/>
        <path d="M723.92,362.5C721.92,365.7 723.82,372.09 727.92,376.79C728.52,371.39 723.42,367.8 723.92,362.5Z" style="fill-rule:nonzero;"/>
        <path d="M728.22,453.03C728.52,453.13 728.72,453.13 729.02,453.23C735.59,416.79 728.61,445.01 728.22,453.03Z" style="fill-rule:nonzero;"/>
        <path d="M711.43,483.41C713.73,479.21 716.13,475.02 714.43,469.92C714.63,474.71 711.53,478.71 711.43,483.41Z" style="fill-rule:nonzero;"/>
        <path d="M728.92,391.18C725.43,385.36 732.85,382.35 727.22,379.39C730.11,384.86 723.8,384.86 728.82,392.48C729.22,392.08 729.12,391.58 728.92,391.18Z" style="fill-rule:nonzero;"/>
        <path d="M710.93,369.99C711.43,372.09 711.83,373.99 712.43,376.48C714.23,373.59 713.83,372.09 710.93,369.99Z" style="fill-rule:nonzero;"/>
        <path d="M733.22,417.86C732.22,420.56 732.42,423.36 732.72,426.95C734.42,423.45 732.82,420.65 733.22,417.86Z" style="fill-rule:nonzero;"/>
        <path d="M704.84,365.2C705.34,367.8 707.44,368 708.84,368.9C708.34,366.9 706.84,366.1 704.84,365.2Z" style="fill-rule:nonzero;"/>
        <path d="M733.12,417.86C734.62,413.26 734.62,413.26 733.22,410.47C733.22,413.06 733.22,415.46 733.12,417.86Z" style="fill-rule:nonzero;"/>
        <path d="M733.92,405.57C734.42,403.77 735.22,402.07 735.02,399.47C733.42,401.77 734.02,403.77 733.92,405.57Z" style="fill-rule:nonzero;"/>
        <path d="M712.93,459.52C714.33,457.12 714.43,456.52 713.43,453.22C713.03,455.63 713.33,457.63 712.93,459.52Z" style="fill-rule:nonzero;"/>
        <path d="M705.14,378.19C705.44,379.79 706.24,380.29 707.74,381.19C707.04,379.59 706.34,378.99 705.14,378.19Z" style="fill-rule:nonzero;"/>
        <path d="M709.34,374.89C709.74,376.37 709.75,376.39 711.51,376.68C710.95,378.05 711.06,379.33 711.94,380.89C713.85,377.75 710.01,374.95 709.34,374.89Z" style="fill-rule:nonzero;"/>
        <path d="M600.82,319.03C602.42,317.13 602.52,316.63 602.32,313.33C601.82,315.14 601.32,316.94 600.82,319.03Z" style="fill-rule:nonzero;"/>
        <path d="M575.54,265.08C575.5,264.61 575.39,259.41 574.44,257.99C574.14,260.88 574.24,262.98 575.54,265.08Z" style="fill-rule:nonzero;"/>
        <path d="M615.41,268.37C614.01,268.87 614.7,269.76 614.41,270.46C612.86,270.29 611.71,270.72 611.61,272.97C613.1,272.48 614.79,272.67 614.51,270.5C615.97,270.83 617.26,271.97 619.21,271.87C618.11,270.27 617.21,268.67 615.41,268.37Z" style="fill-rule:nonzero;"/>
        <path d="M584.73,279.96C585.33,281.26 585.33,282.86 586.63,283.96C586.53,282.36 586.13,280.96 584.73,279.96Z" style="fill-rule:nonzero;"/>
        <path d="M583.43,271.77C583.93,271.67 583.93,271.47 582.63,268.77C582.43,270.27 582.93,270.97 583.43,271.77Z" style="fill-rule:nonzero;"/>
        <path d="M602.02,270.47C603.32,271.77 604.22,270.37 605.22,270.07C604.12,269.97 602.92,268.87 602.02,270.47Z" style="fill-rule:nonzero;"/>
        <path d="M584.83,268.97C584.83,262.61 582.64,263.77 583.33,263.47C582.83,262.07 581.93,261.07 580.63,260.27C580.83,261.87 581.93,262.77 583.13,263.57C583.03,263.68 584.06,267.94 584.83,268.97Z" style="fill-rule:nonzero;"/>
        <path d="M620.8,275.07C619.5,275.97 620.5,276.37 620.5,277.37C621.3,276.37 621.4,275.87 620.8,275.07Z" style="fill-rule:nonzero;"/>
        <path d="M586.73,286.76C587.03,285.66 586.83,284.76 586.73,283.86L586.73,286.76Z" style="fill-rule:nonzero;"/>
        <path d="M627.5,273.67C627.1,272.77 626.5,272.67 625.3,272.77C626.1,274.07 626.8,274.17 627.5,273.67Z" style="fill-rule:nonzero;"/>
        <path d="M577.34,307.54C576.84,308.34 577.64,308.64 577.64,309.34C578.14,309.04 578.24,308.94 578.34,308.84C578.24,308.24 578.24,307.54 577.34,307.54Z" style="fill-rule:nonzero;"/>
        <path d="M575.94,267.87C576.04,268.57 576.24,268.97 576.64,269.17C576.94,268.67 576.94,268.17 575.94,267.87Z" style="fill-rule:nonzero;"/>
        <path d="M738.21,478.51C735.51,479.71 732.21,478.01 729.92,481.11C733.82,480.51 737.21,480.01 740.51,479.51C726.9,445.49 730.45,465.72 738.21,478.51Z" style="fill-rule:nonzero;"/>
        <path d="M731.92,457.63C738.61,464.52 746.51,470.12 753.8,476.42C747.41,469.22 739.91,463.02 731.92,457.63Z" style="fill-rule:nonzero;"/>
        <path d="M805.86,472.71C801.26,473.01 796.77,474.41 792.37,476.41C806.71,473.29 806.44,473.87 805.86,472.71Z" style="fill-rule:nonzero;"/>
        <path d="M778.18,478.51C780.48,478.21 782.88,478.41 785.37,477.31C782.68,477.01 780.28,476.61 778.18,478.51Z" style="fill-rule:nonzero;"/>
        <path d="M766.21,481.17C767.92,480.93 769.78,481.03 771.19,479.71C769.47,480 767.76,480.12 766.21,481.17Z" style="fill-rule:nonzero;"/>
        <path d="M765.89,481.21L765.99,481.31C766.16,481.19 766.42,481.1 765.89,481.21Z" style="fill-rule:nonzero;"/>
        <path d="M774.34,479.04C773.22,479.17 772.11,478.96 771.08,479.61C772.24,479.71 773.38,479.97 774.34,479.04Z" style="fill-rule:nonzero;"/>
        <path d="M778.18,478.51C778.01,478.64 777.97,478.53 778.28,478.61L778.18,478.51Z" style="fill-rule:nonzero;"/>
        <path d="M774.5,478.93C778.85,479.58 778.91,477.5 774.38,478.91C774.54,478.91 774.44,478.94 774.34,479.04C774.65,479 774.61,479.03 774.5,478.93Z" style="fill-rule:nonzero;"/>
        <path d="M765.99,481.31L763.79,481.31C764.79,481.91 765.39,481.61 765.99,481.31Z" style="fill-rule:nonzero;"/>
        <path d="M834.74,479.31C831.64,479.47 830.94,481.31 831.64,486.7C837.34,487 838.98,486.1 838.93,483.1C838.9,480.81 837.13,479.18 834.74,479.31ZM837.34,484.01C837.04,485.11 836.24,485.71 835.14,485.51C834.44,484.91 835.44,484.41 834.84,483.91C834.24,482.91 833.34,484.51 832.84,483.41C832.84,479.46 838.41,480.01 837.34,484.01Z" style="fill-rule:nonzero;"/>
        <path d="M844.23,478.61C842.04,478.19 840.53,479.41 839.33,482.51C843.81,492.35 852.36,480.16 844.23,478.61ZM843.53,484.8C840.64,484.8 840.29,480.1 843.63,480.1C846.83,479.86 846.91,484.8 843.53,484.8Z" style="fill-rule:nonzero;"/>
        <path d="M848.53,481.61C849.83,483.01 848.93,484.01 848.83,485.21C850.93,485.91 850.53,482.91 852.23,483.21C853.33,483.41 852.53,484.91 854.23,485.31C854.83,482.91 854.53,480.71 854.13,478.42C851.94,476.85 846.04,478.92 848.53,481.61ZM849.53,480.41C850.73,479.51 851.63,479.01 852.73,479.91C851.72,482.01 851.72,482.01 849.53,480.41Z" style="fill-rule:nonzero;"/>
        <path d="M877.6,482.41C877.6,482.42 877.59,482.43 877.59,482.44C877.44,480.45 876.51,480.75 868.61,482.81C870.48,488 875.32,482.2 877.57,482.51C876.44,485.64 880.08,487.59 883,482.81C881.1,482.11 879.2,484.01 877.6,482.41Z" style="fill-rule:nonzero;"/>
        <path d="M738.01,514.68C735.01,513.18 732.41,514.58 729.62,514.08C731.22,516.98 733.12,517.08 738.01,514.68Z" style="fill-rule:nonzero;"/>
        <path d="M614.71,206.82C615.07,207.53 613.07,208.13 627.6,202.72C622,200.73 618.61,204.52 614.71,206.82Z" style="fill-rule:nonzero;"/>
        <path d="M620.01,209.62C622.21,209.12 625.11,210.22 626.7,206.92C623.8,206.62 621.6,207.32 620.01,209.62Z" style="fill-rule:nonzero;"/>
        <path d="M636.99,208.82C635.49,209.02 634.89,210.42 633.69,210.92C636.29,211.02 636.29,211.02 636.99,208.82Z" style="fill-rule:nonzero;"/>
        <path d="M639.19,219.01C640.54,219.43 641.74,219.56 643.09,219.11C641.89,217.59 640.76,217.97 639.19,219.01Z" style="fill-rule:nonzero;"/>
        <path d="M726.72,268.47C725.12,269.27 725.82,270.77 725.52,271.87C728.02,271.37 726.42,269.57 726.72,268.47Z" style="fill-rule:nonzero;"/>
        <path d="M735.51,231.9C734.31,232.8 734.41,233.9 734.71,235.6C735.42,234.1 735.81,233.1 735.51,231.9Z" style="fill-rule:nonzero;"/>
        <path d="M734.12,245.39C733.62,246.19 733.82,246.89 734.12,247.69C734.52,246.89 734.72,246.19 734.12,245.39Z" style="fill-rule:nonzero;"/>
        <path d="M739.61,232.4C738.71,233.2 739.21,234 739.61,235.2C740.31,234 740.21,233.2 739.61,232.4Z" style="fill-rule:nonzero;"/>
        <path d="M727.22,258.68C728.12,258.38 728.02,257.98 727.72,257.38C726.72,257.58 727.22,258.18 727.22,258.68Z" style="fill-rule:nonzero;"/>
        <path d="M726.52,263.28C726.72,263.38 726.82,263.58 727.02,263.58C728.54,263.58 726.52,261.48 726.52,263.28Z" style="fill-rule:nonzero;"/>
        <path d="M646.58,329.83C649.68,329.03 651.68,326.73 653.77,324.53C650.78,325.53 648.98,328.03 646.58,329.83Z" style="fill-rule:nonzero;"/>
        <path d="M652.98,323.03C652.98,321.13 652.58,319.43 650.68,317.83C650.38,320.33 650.98,321.93 652.98,323.03Z" style="fill-rule:nonzero;"/>
        <path d="M646.58,311.34C643.84,311.8 645.65,315.33 647.58,316.24C647.88,314.34 646.28,313.04 646.58,311.34Z" style="fill-rule:nonzero;"/>
        <path d="M659.27,327.63C659.37,329.23 659.97,330.53 661.47,331.93C661.77,329.53 660.47,328.53 659.27,327.63Z" style="fill-rule:nonzero;"/>
        <path d="M649.68,320.73C648.38,321.53 647.78,321.93 647.88,322.93C648.68,322.73 648.98,322.03 649.68,320.73Z" style="fill-rule:nonzero;"/>
        <path d="M653.29,343.42C654.46,343.42 655.07,342.92 655.35,342.09C658.82,340.7 662.18,339 664.27,335.63C661.31,337.7 657.96,339.3 655.38,342.03C654.28,341.82 653.78,342.62 653.29,343.42Z" style="fill-rule:nonzero;"/>
        <path d="M646.68,324.43C647.78,324.43 647.88,323.63 647.88,323.03C647.08,323.13 646.88,323.83 646.68,324.43Z" style="fill-rule:nonzero;"/>
        <path d="M633.69,305.05C634.69,305.35 635.09,304.85 635.39,304.05C634.29,303.75 633.99,304.35 633.69,305.05Z" style="fill-rule:nonzero;"/>
        <path d="M759.1,321.13C759.9,323.03 759.7,325.23 761,327.23C761.89,324.53 761.59,323.43 759.1,321.13Z" style="fill-rule:nonzero;"/>
        <path d="M757.1,328.13C756.8,326.23 755.9,325.43 755,324.63C755.1,325.93 755.3,327.13 757.1,328.13Z" style="fill-rule:nonzero;"/>
        <path d="M771.89,325.53C771.99,324.63 771.59,324.03 770.59,323.53C770.49,324.73 771.39,325.03 771.89,325.53Z" style="fill-rule:nonzero;"/>
        <path d="M758,319.63C758.6,319.03 758.6,318.43 757.7,317.53C757.3,318.43 757.3,319.03 758,319.63Z" style="fill-rule:nonzero;"/>
    </g>
</svg>
