<?xml version="1.0" encoding="UTF-8" standalone="no"?>
<!DOCTYPE svg PUBLIC "-//W3C//DTD SVG 1.1//EN" "http://www.w3.org/Graphics/SVG/1.1/DTD/svg11.dtd">
<svg width="100%" height="100%" viewBox="0 0 900 600" version="1.1" xmlns="http://www.w3.org/2000/svg" xmlns:xlink="http://www.w3.org/1999/xlink" xml:space="preserve" xmlns:serif="http://www.serif.com/" style="fill-rule:evenodd;clip-rule:evenodd;stroke-linejoin:round;stroke-miterlimit:2;">
    <g>
        <path d="M366.36,211.5C356.39,208.49 346.24,202.8 328.5,204.74C319.03,205.77 325.39,201.55 323.96,198.38C322.27,194.63 322.55,190.71 322.04,187.07C323.66,184.14 326.89,183.64 328.9,181.32C327.99,180.31 329.4,179.1 328.6,177.99C327.39,176.98 326.18,177.99 324.97,177.59C325.47,176.28 327.7,176.58 327.59,174.66C325.87,172.64 324.26,175.27 322.54,175.16C322.64,173.14 323.45,171.22 321.83,169.51C320.82,170.42 319.91,171.23 319.1,172.03C316.98,171.02 316.38,170.64 315.26,171.12C309.35,173.66 303.15,171.52 296.78,172.53C295.97,172.73 295.97,174.65 294.46,174.65C293.75,174.15 294.56,172.73 293.25,172.63C291.41,172.32 290.46,178.97 282.25,174.95C281.63,174.65 279.42,174.27 279.42,175.25C279.42,176.56 280.93,176.87 280.93,177.57C278.41,182.82 276.39,187.67 275.18,192.41C273.87,193.62 272.14,192.1 271.24,193.72C270.12,195.73 268.31,195.55 266.7,195.13C257.6,192.75 243.78,191.19 235.2,195.74C226.36,200.42 223.57,198.01 221.57,204.42C219.98,209.52 217.15,208.48 217.33,212.19C218.03,226.93 210.29,215.53 222.48,248.23C222.97,249.55 223.59,250.96 225.41,251.06C227.53,248.52 216.98,236.62 219.96,218.65C220.86,213.23 218.05,212.28 219.35,209.66C224.65,207.01 221.98,201.4 228.34,200.98C230.35,200.98 237.18,197.11 240.45,196.54C257.34,193.61 266.72,199.22 271.44,196.54C275.06,194.49 275.6,194.85 276.89,198.96C277.27,200.18 277.67,201.37 277.19,202.59C274.82,208.63 280.87,208.43 276.69,223.08C273.84,233.04 279.66,229.63 274.57,236.2C275.58,231.05 273.96,227.52 270.94,224.49C269.73,223.28 269.93,217.12 270.94,215.81C268.42,211.57 264.15,210.33 260.54,213.08C257.39,215.48 255.09,218.94 250.44,219.95C255.42,227.28 254.92,238.7 256.3,239.84C261.08,243.78 260.99,251.68 264.28,250.95C266.5,247.92 263.37,245.4 263.17,242.47C265.09,241.86 266.8,240.96 268.92,240.85C270.03,243.07 270.84,245.29 270.94,247.72C269.22,248.22 267.71,246.21 266.09,247.92C267.3,250.34 270.13,249.23 271.95,250.75C273.68,258.23 274.79,254.78 264.38,252.26C268.58,260.44 279.71,247.51 269.93,280.93C268.63,285.38 264.98,287.49 261.35,290.32C258.07,276.37 257.71,274.97 254.69,273.97C255.09,280.33 257.01,286.39 258.32,292.65C256.1,294.37 253.98,295.88 251.66,296.39C248.93,290.53 251.76,284.88 251.36,279.23C248.33,284.78 250.65,291.34 248.33,297.2C242.98,298.92 237.53,299.72 231.98,299.72C229.15,299.72 228.26,298.41 228.14,295.48C227.78,286.19 227.1,276.98 229.25,267.82C229.67,266.04 228.38,263.66 226.42,269.23C222,281.83 226.36,291.66 224,316.98C222.52,332.82 208.59,342.54 210.88,356.05C207.14,360.19 204.92,365.34 199.27,367.05C197.55,365.64 196.14,367.05 194.93,368.46C188.43,376.04 189.04,381.79 188.37,383.1C180.43,398.49 191.33,410.93 189.48,416.01C188.78,417.94 193.5,422.39 195.44,423.58C202.56,427.98 200.03,430.29 204.63,434.89C207.25,437.51 210.28,440.04 209.78,444.38C217.64,452.66 221.06,461.94 226.84,464.07C231.91,465.93 237.34,468.41 242.59,463.16C243.48,475.87 226.43,476.88 227.45,500.72C227.87,510.6 228.42,512.4 220.89,551.6C219.19,560.45 214.68,558.04 213.62,564.32C211.7,575.65 211.22,568.61 209.28,584.71C208.98,587.23 206.96,589.05 206.35,591.27C208.21,594.99 231.61,596.82 234.82,598.34C241.47,601.5 248.45,598.98 255.21,599.65C259.45,600.07 263.98,598.59 268.23,597.33C273.87,595.65 275.86,594.81 274.69,588.04C273.98,583.92 281.91,588.82 287.71,587.23C293.76,585.57 299.94,585.84 305.98,587.03C315.58,588.91 317.05,584.73 336.57,584.61C338.49,584.6 340.41,583.9 342.12,582.49C341.82,580.87 342.62,579.56 343.43,578.55C342,570.81 342.84,569.97 336.77,568.56C311.83,562.74 318.27,558.99 310.52,553.82C306.25,533.52 317.16,535.59 331.01,506.98C332.98,502.91 342.23,477.27 341.31,472.86C339.55,464.47 344.79,461.46 343.23,456.71C338.89,443.5 332.45,439.47 328.79,432.68C324.67,425.03 321.64,415.13 309.71,404.41C296.49,392.54 295.23,393.39 289.52,387.35C288,385.74 286.49,384.52 283.87,384.73C284.68,380.99 282.05,380.59 279.63,380.29C278.82,377.67 280.74,375.24 279.93,373.12C278.62,371.3 276.6,372.01 274.78,371.2C286.85,353.72 296.92,353.35 301.13,341.42C301.13,341.15 304.64,338.05 304.16,332.94C303.66,327.58 307.92,321.48 308.2,320.52C317.05,289.75 315.47,295.35 319.71,268.22C327.71,260.22 336.31,262.3 352.02,248.63C356.52,244.72 355.06,241.06 363.13,235C371.31,228.85 371.85,223.41 369.79,215.41C369.27,213.43 368.29,212.09 366.36,211.5ZM324.87,181.52C323.86,181.32 324.26,180.51 323.96,180.01C325.62,179.05 326.44,180.26 324.87,181.52ZM319.52,173.75C320.53,174.86 320.13,175.26 319.42,175.77C318.61,175.16 319.42,174.55 319.52,173.75ZM310.83,185.36C309.92,185.86 309.21,185.46 308.71,184.55C309.62,184.45 310.23,184.85 310.83,185.36ZM306.39,176.77C305.99,177.78 305.38,178.18 304.77,178.59C304.68,177.18 304.68,177.18 306.39,176.77ZM293.77,192.12C294.27,193.43 293.57,193.63 292.86,194.14C292.66,193.13 292.76,192.62 293.77,192.12ZM291.65,177.78C291.85,178.59 291.35,178.79 290.34,178.99C290.64,178.09 290.95,177.58 291.65,177.78ZM290.24,185.66C290.54,185.26 290.85,184.95 291.65,185.05C290.87,187.39 289.23,187 290.24,185.66ZM280.24,181.92C282.26,183.54 283.67,184.54 285.59,184.44C283.67,185.95 280.85,183.53 279.13,186.16C279.54,184.85 280.55,183.94 280.24,181.92ZM286,197.07C285.7,197.68 285.5,198.08 284.69,197.88C284.69,196.86 285.09,196.66 286,197.07ZM281.05,198.88C280.85,197.57 280.44,196.66 281.55,195.75C282.36,196.97 281.05,197.67 281.05,198.88ZM279.44,207.67C280.35,208.28 280.85,208.88 279.54,209.89C279.23,209.18 278.83,208.58 279.44,207.67ZM276.71,193.53C276.38,193.2 276.78,193.16 276.91,193.03C278.97,193.2 279.22,197.63 276.71,193.53ZM278.53,222.81C279.34,225.43 278.33,227.25 278.03,229.17C277.22,227.25 277.32,225.23 278.53,222.81ZM193.72,380.3C197.57,383.43 207.51,378.69 189.88,385.85C191.2,384.04 192.51,382.12 193.72,380.3ZM224.52,458.64C221.29,452.48 217.35,447.03 211.6,442.89C212.41,435.45 216.01,428.71 215.44,421.27C212.72,425.98 212.72,431.16 210.7,439.66C202.92,426.14 203.56,425.13 199.09,422.3C195.55,420.05 196.06,419.15 190.91,406.25C188.61,400.49 188.69,394.54 189.09,388.58C192.72,386.16 196.56,385.55 200.5,384.14C201.22,390.86 195.68,388.75 191.62,395.65C190.08,398.26 190.41,399.79 193.44,402.31C189.21,394.58 203.34,388.93 214.24,384.14C218.47,382.28 218.59,389.19 230.49,388.58C235.54,388.32 239.88,391.41 244.42,392.92C246.41,398.64 253.47,405.84 254.31,408.16C256.54,414.28 259.56,419.77 265.52,424.41C263.1,424.51 261.49,425.1 260.07,424.61C253.29,422.29 240.15,425.36 233.82,437.33C232.81,439.25 231.9,441.37 230.69,443.99C228.37,439.75 225.24,436.72 222.82,433.09C221.24,430.72 223.5,426.83 222.82,423.1C220.6,424.31 221.81,426.43 220.9,428.25C218.78,423.81 217.37,419.16 214.14,415.63C210.91,412.1 206.67,409.67 203.64,405.74C206.87,402.41 210.71,399.88 213.23,395.95C208.08,399.08 203.84,403.42 198.79,406.75C200.2,407.86 201.21,406.55 202.63,406.55C214.77,420.35 208.05,411.06 206.26,423.21C208.68,421.09 209.19,417.66 211.41,415.13C213.23,416.75 215.35,418.26 215.55,421.09C215.22,421.53 219.69,424.55 220.4,433.91C220.64,437.14 219.9,440.47 219.9,443.9C220.71,441.17 221.52,438.35 221.62,434.51C225.05,438.45 228.83,441.88 229.19,446.12C229.51,450.27 227.95,454.91 224.52,458.64ZM201.4,387.47C201.6,382.62 203.62,381.61 211.6,382.83C207.76,384.54 204.63,386.06 201.4,387.47ZM226.94,462.48C226.44,458.54 229.16,456.83 230.68,454.3C234.11,456.52 237.34,458.54 240.47,461.47C235.92,465 231.38,462.48 226.94,462.48ZM224.42,544.66C226.04,528.97 230.94,520.58 229.87,505.49C228.6,487.55 234.29,488.19 243.5,470.96C248.45,461.7 243.28,459.87 231.99,450.77C233,444.31 235.35,438.98 239.76,433.91C244.74,428.18 250.56,427.55 257.12,427.25C258.63,428.36 258.33,430.78 260.25,431.59C261.36,429.67 259.24,428.97 259.04,427.65C264.69,424.72 270.75,428.16 271.46,435.12C271.86,439.06 272.56,442.5 275.4,445.52C279.44,449.83 274.41,453.71 274.69,463.79C274.78,467.04 269.23,486.94 261.77,501.55C261.16,499.83 263.08,498.62 261.47,496.91C252.38,516.19 242.09,534.67 239.46,555.57C236.53,557.59 233.71,557.29 230.98,558.19C232.09,553.55 231.18,548.9 231.59,544.26C229.67,548.5 230.38,553.25 229.07,557.79C226.65,558.6 224.02,559.2 220.99,558.6C223.71,554.15 223.91,549.51 224.42,544.66ZM277.52,463.09C276.5,458.75 277.32,455.11 280.75,451.98C286.91,454.6 293.77,454.92 300.23,456.62C304.87,457.84 307.84,462.9 305.78,467.22C304.19,470.56 302.77,473.9 300.53,477.01C292.78,487.75 300.83,495.49 294.37,516.28C288.5,535.18 287.37,534.57 284.98,547.17C281.55,546.56 281.65,549.49 280.74,551.41C277.21,550.4 273.08,554.64 274.18,558.58C275.46,563.19 272.75,564.77 272.77,566.25C272.82,571.6 269.44,575.84 268.13,581.19C258.64,577.56 252.68,569.58 245.01,564.23C247.23,558.07 247.03,557.57 241.68,555.95C245.72,542.72 247.52,528.78 255.11,516.78C272.43,489.39 272.09,485.35 273.18,476.5C274.19,468.33 278.3,466.41 277.52,463.09ZM293.77,551.32C286.21,559.42 284.55,559.33 282.87,554.95C286.25,547.63 283.71,552.24 293.77,551.32ZM219.77,562.23C223.3,562.73 226.64,562.33 229.87,560.82C232.51,567.16 225.25,562.92 218.97,569C217.45,566.16 218.66,564.35 219.77,562.23ZM268.03,594.83C259.45,594.65 251.27,597.3 242.69,597.25C239.16,597.23 236.14,595.38 232.7,594.83C224.95,593.59 217.05,592.91 209.48,590.19C211.5,586.35 211.43,581.83 213.92,578.18C215.17,576.34 211.33,572.53 215.64,569.6C216.95,570.51 218.47,571.32 220.49,572.02C223.42,570.4 225.94,567.17 230.08,567.68C231.39,565.36 234.82,564.45 234.02,561.02C237.55,560.72 240.48,559 243.91,559.91C244.41,561.93 243.1,562.94 242.5,564.45C239.57,564.85 236.54,565.36 233.92,567.07C234.63,568.48 235.84,567.37 236.65,568.08C236.25,569.49 234.13,568.89 233.82,570.6C238.46,572.22 243.11,570.3 247.75,570.4C244.52,572.02 240.38,570.5 237.45,573.33C237.65,575.45 241.49,573.73 240.18,576.96C244.32,575.95 248.26,576.25 251.49,573.22C268.88,588.75 270.78,579.02 272.19,589.17C272.63,592.52 271.36,594.9 268.03,594.83ZM310.73,564.75C311.54,565.25 310.12,565.36 310.53,566.26C311.44,567.57 313.15,566.46 314.47,567.17C314.77,567.57 313.97,568.28 314.67,568.79C316.89,568.39 319.31,568.59 320.93,566.97C322.55,568.28 320.63,569.19 321.13,570.4C327.29,569.79 333.24,571.51 339.81,572.92C341.22,575.44 339,578.17 337.89,581.3C328.7,581.8 319.72,582.93 310.63,583.62C301.21,584.34 291.49,582.34 287.21,584.02C283.49,585.48 276.21,583.82 271.16,580.79C271.97,578.87 272.28,576.77 274.09,575.14C276.41,573.04 273.33,568.13 276.82,563.13C278.23,561.11 277.63,559.19 276.32,557.38C276.82,555.76 278.04,554.96 278.74,553.64C281.22,555.24 281.26,562.38 287.02,559.6C291,557.68 288.35,558.39 306.5,547.08C306.2,550.11 308.01,552.43 307.11,555.16C306.1,556.37 304.18,556.57 303.78,558.29C304.28,559.1 305.29,558.39 305.9,559.1C304.89,560.01 303.17,560.21 302.47,562.13C305.48,562.23 308.01,563.64 310.73,564.75ZM321.64,424.93C333.02,446.27 341.57,448.5 340.52,461.27C340.32,463.75 338.29,464.97 338.1,468.54C337.25,484.43 330.16,506.96 317.4,521.95C316.9,521.85 317.1,520.84 315.99,521.24C314.68,527.2 310.53,532.14 308.52,538C306.79,543.04 303.17,546.28 299.23,549.41C296.1,547.29 299.43,544.46 298.22,542.14C296,543.55 296,546.28 294.48,548.1C292.46,548.4 290.34,547.9 287.92,547.8C288.97,535.99 292.54,537.64 295.09,525.99C296.14,521.17 300.97,506.3 300.34,502.67C299.24,496.32 301.8,481.35 303.77,477.63C311.94,462.27 311.6,462.82 305.99,456.43C306.8,455.02 308.01,457.24 308.82,456.13C308.82,455.93 308.92,455.52 308.82,455.52C304.91,453.35 304.3,452.15 302.56,452.49C295.98,453.8 290.05,450.71 283.78,449.87C282.17,449.65 279.94,449.47 279.54,446.24C292.78,443.45 308.74,430.44 319.32,422.11C320.73,422.5 321.04,423.81 321.64,424.93ZM275.8,374.65C272.83,375.44 271.76,376.99 271.76,376.74C271.81,378.17 270.64,378.09 269.74,378.39C269.65,378.3 269.57,378.21 269.48,378.06C269.9,379.11 263.55,381.47 264.69,387.48C261.33,390.31 254.96,388.35 252.78,388.89C254.29,391.82 256.31,392.32 263.89,391.72C264.19,393.13 262.68,393.74 262.48,394.85C264.9,394.75 265.51,394.24 269.04,390.11C269.04,389.2 268.23,389.4 267.63,389.1C267.23,383.45 272.48,381.43 274.8,376.99C276.31,379.11 276.62,380.83 276.82,382.74C280.56,382.74 280.76,388.8 285.3,387.28C286.41,388.9 287.92,389.9 289.44,391.32C288.2,391.7 282.98,393.22 282.98,393.74C291.85,392.47 293.39,389.95 317.71,418.78C307.92,428.67 308.83,429.38 278.54,444.42C274.3,442.5 276.12,438.56 275.31,435.13C278.04,434.73 280.66,434.63 282.78,432.51C280.36,432.81 277.93,433.12 275.41,433.42C268.4,419.4 262.77,425.75 275.61,423.12C293.94,419.38 272.44,422.76 264.2,420.7C262.69,419.59 262.08,416.46 259.35,413.63C263.19,413.93 265,409.09 268.64,411.91C269.85,407.97 273.69,409.18 276.31,408.17C279.24,407.05 282.57,407.06 285.9,405.75C279.42,404.42 268.41,408.12 262.18,410.19C258.95,412.31 258.95,412.31 257.13,408.68C257.3,408.53 269.21,403.16 256.63,405.95C253.6,403.93 252.69,400.7 250.67,397.27C255.82,399.79 260.56,402.22 266.22,400.2C264.2,396.71 256.23,401.2 249.36,394.14C244.63,389.28 238.22,387.83 233.21,383.84C230.14,381.39 223.44,380.27 221.5,384.45C219.18,381.02 216.26,378.86 212.41,379.6C210.17,380.03 193.83,378.83 193.83,380.21C193.73,380.21 194.29,372.3 200.59,369.91C204.32,368.49 207.96,366.38 209.17,362.14C210.28,361.53 210.89,362.64 211.79,362.54C212.09,362.54 212.17,359.29 214.58,360.46C213.34,360.69 213.15,362.49 211.82,362.61C211.35,362.61 212.79,363.31 214.2,365.27C217.32,368.97 221.09,369.28 220.34,368.34C219.34,367.09 219.54,365.64 219.15,364.16C222.18,366.38 225.31,368.6 228.94,371.23C225.21,371.63 223.69,367.81 220.68,368.5C225.75,373 234.82,376.78 238.93,375.97C241.35,377.59 243.78,380.31 247.31,378.09C249.13,381.32 251.85,382.63 255.79,382.63C254.88,381.01 253.17,382.13 252.46,380.81C254.98,379.7 257.71,380.81 260.23,379.6C261.14,380.71 259.42,381.42 260.33,382.63C264.43,381.64 270.17,376.54 271.73,376.67C271.57,375.81 271.86,375.13 272.24,374.25C273.48,374.45 274.69,374.55 275.8,374.65ZM214.61,360.44C214.61,360.39 214.63,360.42 214.67,360.42C214.65,360.43 214.63,360.43 214.61,360.44ZM218.99,364.08C217.51,364.58 214.6,360.47 214.77,360.47L214.81,360.43C214.8,360.44 214.8,360.46 214.79,360.48C216.67,360.82 219.45,364.54 218.99,364.08ZM264.29,377.98C264.29,377.07 264.79,376.67 266.11,376.87C265.5,377.48 265.1,377.98 264.29,377.98ZM367.57,224.63C363.64,233.92 359.56,231.16 353.84,241.29C345.41,256.21 329.03,256.3 319.92,264.31C321.03,257.34 320.53,251.08 322.04,244.83C319.82,247.05 318.53,250.08 318.91,252.6C319.55,256.83 317.9,260.47 317.29,264.51C314.26,257.44 310.63,250.78 307.3,243.91C306.9,244.11 306.39,244.31 305.99,244.52C327.82,280.9 305.46,309.18 299.63,336.39C296.39,351.5 287.82,351.05 276.31,363.45C270.78,369.41 273.43,371.42 268.94,373.24C267.81,373.7 258.58,379.12 254.91,377.28C254.41,375.87 255.92,375.16 255.41,373.75C253.79,374.05 253.59,375.87 252.38,376.68C249.55,375.77 246.63,374.86 243.5,373.85C243.7,370.52 243.9,367.19 240.67,364.26C240.37,367.19 241.38,369.71 240.47,372.34C238.35,372.54 236.61,371.66 235.12,370.42C227.45,364.08 216.75,361.64 211.7,352.55C214.02,345.28 218.59,339.94 221.29,333.57C225.36,323.97 229.8,321.4 227.04,315.6C226.54,314.54 227.14,315.98 227.14,302.37C234.11,303.99 240.37,301.76 246.62,300.75C247.63,301.56 246.01,302.37 247.02,303.58C249.54,298.84 254.79,298.13 258.43,295.1C259.34,295 259.64,296.11 260.65,295.71C261.55,294.81 260.62,293.22 263.58,291.07C273.24,284.06 275.39,273.81 276.2,262.8C276.87,253.81 270.3,242.03 271.15,240.19C272.46,239.69 272.96,240.5 273.37,241.2C275.96,245.66 279.54,249.48 281.35,254.43C281.76,255.54 282.27,256.75 282.86,257.86C287.85,267.21 282.91,268.51 295.48,280.37C301.4,285.96 308.09,274.54 308.6,266.14C308.94,260.6 308.43,249.97 303.65,247.16C304.48,253.41 299.22,250.44 297.39,262.51C301.93,260.39 300.82,254.74 304.25,251.91C310.48,264.36 302.75,286.82 294.56,276.24C285.56,264.62 292.98,263.72 277.09,241.91C271.84,234.71 269.6,236.06 260.94,240.4C259.83,239.59 258.82,238.89 257.61,237.98C257.41,232.43 257.41,226.67 253.87,221.63C257.2,220.32 259.93,218.5 261.64,215.47L266.69,215.47C271.06,220.51 265.94,220.51 270.63,226.88C275.08,232.93 270.48,234.72 274.16,237.48C275.88,238.19 276.49,236.04 278.2,236.27C279.52,236.45 279.9,234.55 279.82,233.04C279.58,228.8 280.96,224.76 281.13,220.52C281.2,218.8 282.24,217.69 283.75,216.78C282.94,215.47 281.02,216.17 281.02,214.05C281.22,213.34 282.64,214.45 283.14,213.55C283.34,211.83 283.54,210.22 283.75,208.6C282.94,207.19 281.02,206.58 281.53,203.86C284.66,206.59 284.05,210.22 285.67,213.45C288.19,210.52 288.61,206.89 289.91,203.66C291.24,200.34 294.15,197.91 294.96,194.17C297.08,193.87 298.8,192.86 300.21,191.44C300.61,190.03 299,189.32 299.1,188.31C298.09,187.4 296.68,188.21 295.97,187.1C298.19,185.89 299.91,186.8 302.23,190.33C302.84,187.91 304.96,187.39 306.57,187.71C309,188.19 311.52,187.59 313.84,188.42C315.76,189.11 317.68,188.52 319.7,187.51C320.71,191.45 320.14,195.26 322.22,198.51C324.82,202.57 312.58,199.85 315.05,210.42C316.26,209.61 315.55,208.2 316.36,207.29C318.18,207.79 319.69,206.99 321.31,207.09C324.57,204.92 320.08,207.39 330.7,207.39C339.28,207.39 347.96,207 356.14,210.92C358.26,211.93 360.68,211.74 362.9,212.84C367.46,215.06 369.62,219.79 367.57,224.63ZM321.23,204.44C320.52,205.05 320.02,204.74 319.31,204.64C320.12,204.13 320.63,204.13 321.23,204.44Z" style="fill-rule:nonzero;"/>
        <path d="M571.6,540.22C575.91,538.94 574.87,530.03 573.82,527.2C565.79,505.6 568.42,501.43 563.42,490.75C566.96,484.43 566.41,475.54 559.18,476.92C556.05,477.52 552.92,478.13 550.09,478.74C546.96,477.43 548.68,474.4 547.47,472.38C545.55,473.69 546.86,475.91 545.96,477.43C541.11,477.73 541.01,477.63 538.59,475.41C541.34,464.08 542.23,461.08 540.71,458.55C538.89,455.52 539.7,452.39 539.09,449.26C540.4,449.56 539.19,451.48 540.81,451.28C542.15,449.94 538.73,445.75 538.49,443.81C535.89,423.17 530.84,403.41 536.77,385.15C539.63,376.36 545.16,374.87 545.45,367.28C545.76,359.25 553.39,352.93 547.87,341.13C546.68,338.59 546.66,335.68 546.56,332.25C553.93,334.27 561.2,332.65 568.77,333.26C567.26,336.19 565.24,338.11 564.23,340.63C567.86,339.42 569.38,336.09 571.5,333.26C584.42,333.26 587.83,329.84 578.47,350.73C578.37,347.8 579.98,345.08 576.65,343.26C576.25,346.09 576.7,348.22 577.26,350.33C578.27,354.21 574.77,358.29 572.01,368.4C569.17,378.81 565.56,380 565.45,385.76C565.09,404.4 564.28,403.08 559.09,427.25C555.41,444.38 554.7,473.41 557.88,476.01C560.71,475.07 557.72,470.45 558.49,459.55C561.86,411.37 569.76,404.64 568.38,385.75C568.27,384.24 570,382.52 567.98,381.11C572.83,375.76 575.55,369.8 575.96,362.63C576.45,353.99 583.51,351.7 586.26,339.01C590.18,354 597.37,358.54 596.56,366.37C594.8,383.3 590.59,395.79 601.41,413.31C610.64,428.27 607.58,427.05 608.98,429.87C617.17,460 617.79,460.3 615.95,462.98C618.17,465.71 617.64,469.15 618.57,472.17C620.63,478.85 631.41,483.23 637.55,479.74C640.19,478.24 639.7,477.79 643.61,470.75C648.35,475.7 644.92,480.85 644.52,485.79C643.41,486.7 641.49,486.5 640.78,488.21C642.6,490.03 644.82,488.41 646.94,489.02C638.33,494.36 646.62,492.15 648.76,492.65C647.25,494.57 644.32,494.37 643.91,496.39C645.63,499.32 648.35,494.98 650.07,498.11C648.15,498.72 646.33,499.02 645.53,501.14C647.55,502.25 649.27,501.14 650.98,500.74C651.18,502.05 649.47,501.85 649.67,502.46C650.37,504.61 652.84,501.55 650.78,504.98C650.98,505.79 652.09,505.18 652.29,505.79C654.51,510.94 658.29,515.05 661.28,519.72C664.04,524.04 664.21,524.06 660.67,527.9C623.97,516.51 638.32,518.54 624.02,506.7C617.58,501.37 599.66,492.21 596.85,484.03C596.89,484.08 596.92,484.14 596.96,484.19C610.01,476.55 614.08,476.68 613.92,472.48C613.82,469.65 613.72,467.03 615.74,464C612.91,464.81 612.13,466.53 611.7,468.24C608.67,480.25 594.03,479.68 596.75,483.89C590.67,483.69 603.47,498.72 614.12,503.27C626.65,508.62 625.81,520.53 643.5,525.58C659.72,530.21 659.13,532.13 661.57,530.73C665.57,528.43 666.54,523.04 663.89,519.32C659.69,513.43 655.21,507.81 653.19,500.54C649,485.48 645.33,486.63 647.94,482.06C651.92,475.09 645.93,466.8 642.69,467.52C641.48,468.02 641.78,469.44 640.77,469.94C639.66,466.51 638.05,463.07 637.64,459.64C636.25,447.97 634.51,396.39 634.51,396.14C634.54,393.28 630.79,382.4 631.28,373.93C631.63,367.82 628.9,366.34 631.48,361.71C634.05,357.09 630.77,353.53 629.36,349.7C625.38,351.03 632.39,354.55 628.86,361.71C627.29,364.89 629.49,367.74 629.16,376.05C628.71,387.37 631.8,387.22 632.09,398.26C634.16,477.3 640.01,467.89 638.05,472.46C613.51,474.54 622.47,466.83 616.04,445.61C611.07,429.2 612.75,423.95 606.15,415.32C586.2,389.27 609.41,369.27 592.62,347.98C591.58,346.66 588.6,341.47 588.99,339.3C601.81,338.29 614.53,334.66 627.56,334.96C629.07,339.6 627.06,344.05 627.96,348.49C630.69,344.25 631.59,339.5 630.89,334.76C632.81,333.85 634.83,334.96 635.94,333.55C640.48,282.64 634.46,289.64 631.4,270.25C628.79,253.74 634.07,246.57 624.13,238.25C611.29,227.51 621.91,222.58 620.5,219.67C617.37,213.23 620,184.43 623.93,178.58C633.42,164.46 631.91,149.34 631.91,135.47C631.91,103.2 625.83,104.63 629.18,94.38C636.1,91.41 654.78,84.12 659.87,74.49C666.72,61.54 679.68,62.9 674.31,45.31C673.72,43.39 672.79,42.18 670.98,41.68C665.63,40.18 660.58,37.85 655.23,36.53C638.34,32.38 631.05,36.51 627.97,34.31C627.67,32.19 629.39,30.37 628.58,28.66C626.79,24.91 627.47,20.89 626.56,17.25C628.07,14.32 631.61,13.92 633.42,11.6L633.42,8.27C632.11,7.26 630.69,8.27 629.18,7.97C630.29,6.76 632.11,6.86 632.31,5.04C630.59,3.22 629.08,5.14 627.46,5.44C626.75,3.72 628.07,1.6 626.75,-0.01C625.13,0.39 624.83,2.21 623.32,2.41C620.78,-0.52 616.35,3.45 613.43,2.91C609.5,2.19 605.56,2.81 602.02,2.61C600.51,3.11 600.51,4.93 598.89,4.93C598.08,4.53 599.19,2.81 597.48,2.81C587.72,12.03 588.25,2.41 583.95,5.13C583.85,6.54 585.16,7.05 585.46,8.26C583.95,9.37 584.15,11.49 583.24,13C585.86,12.39 587.58,14.82 590.71,14.41C588.49,16.83 586.17,13.2 584.65,16.63C584.57,15 585.02,13.56 584.06,13.18C583.09,12.7 582.44,13.6 582.01,12.6C582.31,16.23 579.39,18.86 579.28,22.09C577.77,22.9 576.36,21.79 575.44,23.1C573.53,25.83 571.09,25.04 568.88,23.91C566.35,22.62 563.64,21.28 561.81,19.27C554.78,11.53 537.82,6.33 533.04,8.67C528.43,10.92 523.76,7.46 522.34,11.29C521.11,14.62 518.89,17.44 517.9,20.88C517.18,23.4 517.8,26.03 517.6,28.45C515.92,48.12 523.55,59.46 530.72,71.76C533.26,76.84 527.94,74.61 535.87,89.83C538.82,95.49 539.05,105.7 538.39,112.04C536.21,133.2 543.52,141.09 546.47,154.44C546.83,156.06 553.21,191.75 552.73,207.04C552.02,208.25 550.41,207.54 549.8,209.26C550.3,211.78 548.99,214.31 547.48,216.63C547.48,217.54 548.29,217.34 548.79,217.84C548.39,218.34 547.88,218.85 547.48,219.46C547.38,219.66 547.38,219.86 547.28,220.07C552.36,217.53 550.04,215.53 552.63,212.8C553.13,214.01 552.63,215.42 553.54,216.54C555.66,217.25 558.08,215.63 560.3,217.25C558.89,220.58 555.05,221.19 553.13,224.01C558.78,223.61 561.61,221.18 563.33,215.43C562.93,214.32 561.92,214.82 561.11,214.42C561.01,213.31 561.01,212.1 560.91,210.79C563.53,210.79 565.96,209.98 568.28,211.4C568.02,211.14 572.24,211.56 573.63,214.02C578.07,212.91 581.61,215.84 585.64,215.84C585.54,216.65 585.34,217.15 585.14,218.26C586.96,216.54 588.67,215.84 590.69,216.95C590.79,218.57 590.39,220.38 593.01,220.08C593.21,220.08 593.31,219.88 593.41,219.78C592.91,219.17 591.79,219.68 591.69,218.37C593.51,217.26 595.63,218.77 597.34,218.07C597.95,219.08 596.43,219.79 597.34,220.59C598.35,220.49 598.55,218.67 599.86,219.18C600.47,219.99 598.95,220.8 599.76,221.6C600.47,222.31 601.68,222.31 602.08,223.22C602.08,224.94 601.88,226.65 602.89,228.77C603.39,226.75 603.7,225.24 604.1,223.52C606.32,224.63 608.65,224.21 610.66,225.94C614.62,229.35 614.7,229.17 614.4,230.48C612.18,230.48 611.78,227.86 609.66,226.95C610.16,230.79 613.29,231.29 615.52,232.81C615.72,235.74 617.74,237.66 619.76,239.47C620.92,240.39 620.91,239.34 620.69,239.17C620.3,238.78 620.06,238.41 620.06,237.86C621.22,238.38 620.05,238.07 622.58,240.18C632.52,248.45 622.58,254.35 631.87,284.1C636.58,299.18 633.55,298.87 633.69,306.51C633.84,314.79 635.1,322.97 632.98,331.65C612.2,331.25 582,338.52 586.24,334.27C592.32,330.08 584.43,315.09 589.77,308.73C589.77,320.61 589.32,310.88 592.6,318.52C597.68,330.37 596.47,329.31 598.05,328.51C595.22,322.35 594.31,315.59 591.49,309.23C592.1,306.81 592.7,304.18 593.31,301.36C598.46,303.48 603.51,304.69 608.15,307.32C604.41,303.18 599.37,301.26 594.62,299.04C595.63,297.02 597.65,295.61 597.14,292.48C594.41,294.9 591.69,296.72 591.49,300.56C591.49,303.47 584.78,307.44 585.84,316.81C587.9,334.99 588.15,329.1 577.16,329.43C543.07,330.44 543.63,327.99 537.38,330.94C536.27,327.41 534.05,324.48 536.88,321.05C537.28,320.65 537.2,319.84 537.18,319.23C535.7,256.29 532.34,265.81 540.71,268.85C539.09,266.02 536.97,265.22 534.65,264.71C532.6,254.29 536.65,235.04 537.98,231.8C540.07,226.74 543.73,222.61 546.16,217.57C543.94,216.96 543.74,218.38 543.03,219.19C528.96,235.27 530.62,252.94 533.54,315C533.73,319.04 532.77,323.09 533.74,327.11C534.31,329.44 535.25,331.75 533.74,334.78C537.48,334.07 540.3,332.26 544.04,332.46C543.94,339.53 547.38,345.99 546.26,353.26C545.66,357.2 544.13,360.93 543.74,364.77C543.22,369.92 540.62,373.96 537.99,378.1C522.13,402.99 536.56,425.57 537.89,466.84C535.16,467.75 534.28,469.67 533.65,472.09C531.31,481.09 525.01,478.86 520.22,488.65C522.47,509.28 531.83,497.88 533.65,516.11C535.44,534.11 547.03,538.45 567.67,541.05C568.98,541.2 570.29,540.61 571.6,540.22ZM640.15,473.49C636.72,480.56 626.52,480.05 622.28,473.99C628.24,475.1 634.1,476.31 640.15,473.49ZM630.46,9.99C630.46,10.9 630.06,11.61 628.95,12.01C628.34,10.4 628.75,9.69 630.46,9.99ZM611.18,7.07C610.68,8.08 609.87,8.48 608.86,9.29C608.86,7.37 609.56,6.86 611.18,7.07ZM598.06,22.21C599.47,23.42 598.36,23.72 597.86,24.43C597.35,23.52 597.55,22.92 598.06,22.21ZM595.73,9.09C595.63,9.19 595.33,9.09 595.02,8.99C595.23,7.54 597.07,7.75 595.73,9.09ZM597.45,13.93C597.05,15.55 595.94,16.45 594.52,17.06C594.93,15.45 596.24,14.74 597.45,13.93ZM593.11,27.86C593.11,28.97 592.81,29.37 591.9,29.37C591.59,28.47 592.1,28.07 593.11,27.86ZM590.69,27.36C590.49,27.97 590.19,28.37 589.48,28.37C589.27,27.36 589.47,26.85 590.69,27.36ZM588.46,38.06C586.74,37.45 586.14,36.34 585.63,34.43C588.06,34.93 588.36,36.24 588.46,38.06ZM585.84,26.55C586.79,26.02 586.58,27.12 585.94,27.76C585.44,27.36 585.44,26.65 585.84,26.55ZM583.72,37.76C584.83,38.26 585.03,38.97 584.63,40.08C583.52,39.47 583.62,38.67 583.72,37.76ZM582.51,59.56C582.21,57.64 581.5,55.72 583.32,53.6C583.52,55.93 583.42,57.75 582.51,59.56ZM583.21,26.25C582.4,25.14 581.8,24.43 580.69,23.12C582.81,23.72 583.32,24.53 583.21,26.25ZM555.25,216.05C554.24,214.23 554.95,213.02 555.75,211.71C555.86,213.02 556.86,214.43 555.25,216.05ZM558.68,215.34C557.8,214.9 557.9,215.66 558.28,211.91C558.68,213.02 558.98,214.23 558.68,215.34ZM601.39,221.6C602,219.88 603.21,220.99 604.62,220.49C603.41,222.81 602.5,222.51 601.39,221.6ZM606.23,223.11C605.93,222 605.93,222 607.04,221.49C607.24,222.31 607.24,222.91 606.23,223.11ZM609.67,223.21C608.86,223.75 608.37,222 609.77,222C610.17,222.41 610.07,222.91 609.67,223.21ZM613.4,225.94C611.28,224.83 611.28,224.83 613.1,221.5C613.91,223.32 613.5,224.63 613.4,225.94ZM615.62,225.33C615.32,224.83 615.42,224.32 615.72,223.71C616.03,224.22 615.82,224.73 615.62,225.33ZM581.7,212.71C582.1,208.87 581.7,206.65 579.78,203.22C578.87,206.15 580.08,208.77 579.38,212C571.91,209.58 564.44,206.85 556.06,208.97C556.48,198.69 551.56,155.74 546.67,145.27C543.17,137.78 542.43,129.62 541.72,120.94C544.04,121.65 546.16,121.95 547.88,122.96C556.63,128.08 564.15,121.16 565.45,121.45C564.95,124.28 564.74,127.2 563.53,130.13C570.35,125.98 565.38,120.22 572.72,112.36C575.65,113.17 575.95,117.1 579.38,117.91C578.17,114.68 575.64,112.36 574.64,108.92C577.26,105.39 579.16,101.24 580.9,97.11C585.46,86.25 580.78,82.38 579.69,73.28C579.58,72.37 579.59,71.26 578.38,70.86C576.76,71.26 578.48,72.68 577.37,73.28C560.22,56.56 563.23,62.47 565.96,65.2C576.13,74.21 588.36,78.3 572.72,104.47C571.21,103.76 571.39,102.55 571.51,101.34C572.2,94.04 571.73,76.63 565.45,73.78C564.53,79.76 570.08,81.34 568.78,88.82C565.91,105.32 575.07,108.84 566.05,112.75C566.05,115.17 565.65,117.4 563.02,118.81C557.41,121.81 556.42,124.01 541.52,117.8C540.48,101.81 545.8,94.76 539.5,95.69C540.71,94.38 550.46,86.48 548.99,81.25C545.56,84.78 543.94,89.53 540.21,93.16C527.85,70.2 536.39,74.51 528.7,62.27C522.45,52.31 520.46,41.18 519.41,29.86C518.88,24.11 520.22,20.67 524.86,13.1C528.49,13.1 532.03,12.92 535.86,11.89C539.5,10.91 543.75,13.25 547.67,14.21C555.24,16.06 553.32,18.58 568.67,26.93C575.55,30.67 578.39,20.94 580.78,28.24C582.59,33.74 579.87,34.19 580.88,36.62C583.6,43.12 581.44,52.41 580.78,53.58C577.75,58.95 582.5,61.11 579.67,64.18C579.27,59.84 576.94,56.71 574.02,53.78C574.83,51.46 574.12,49.34 573.72,47.22C574.12,46.82 575.03,47.22 575.23,46.21C570.43,36.31 557.92,40.31 552.01,33.59C549.92,38.97 560.7,40.65 559.88,56C559.77,58.12 559.48,60.44 561.39,63.07C562.6,54.89 563.81,47.52 558.26,40.35C563,41.26 566.84,42.27 570.78,43.78C571.49,47.21 574.21,50.14 572.6,53.98C575.73,57.72 578.25,61.45 576.64,66.8C575.93,67.41 574.32,67.61 574.32,69.32C575.63,70.63 576.84,69.02 578.46,69.42C585.95,75.18 581.04,72.85 580.78,74.67C580.78,74.67 580.78,75.17 580.98,75.28C590.61,79.32 590.58,93.95 603.59,99.81C604.7,104.86 604.9,109.91 607.53,114.35C607.83,110.01 606.72,105.77 606.42,101.33C608.54,101.23 610.76,102.24 612.98,100.42C612.88,93.66 611.09,86.88 610.46,79.93C610.38,79.02 609.45,78.31 607.63,77.71C608.24,84.88 609.45,91.64 609.65,98.51C608.03,98.51 606.62,98.21 605.11,97.2C605.61,93.26 601.72,91.92 599.86,89.22C590.57,75.76 591.68,81.47 586.03,73.98C584.29,71.67 582.5,69.54 579.77,68.43C580.33,66.2 584.21,69.06 584.21,60.96C584.21,57.63 585.42,54.4 585.42,51.07C585.42,49.15 586.93,48.14 588.04,47.03C587.43,45.92 585.92,46.63 585.52,45.52C584.48,43.44 586.71,44.82 587.54,43.4C587.57,43.3 588.44,34.38 589.66,43.5C591.38,43.2 591.68,41.78 591.98,40.57C593.3,35.22 596.32,30.78 598.74,25.93C599.24,24.92 599.75,23.91 601.16,24.11C602.88,24.21 603.08,22.19 604.49,21.99C604.49,20.48 603.68,19.47 603.18,18.36C602.07,18.26 601.06,18.06 599.95,17.96C600.29,14.92 605.13,17.64 606.31,20.79C607.62,18.37 609.44,17.89 611.66,18.27C614.18,18.7 616.81,18.28 619.33,19.08C620.94,19.59 622.36,18.27 624.28,18.47C624.58,22.71 625.49,26.85 626.7,30.89C622.46,33.01 617.21,34.12 619.23,40.58C620.24,40.68 619.84,39.87 619.94,39.37C620.04,38.87 620.14,38.46 620.24,37.65C621.79,37.89 626.32,37.77 627.31,36.54C631.43,39.24 651.58,34.61 670.82,44.62C678.01,58 663.87,61.45 658.4,71.27C647.15,91.48 621.94,85.31 625.08,100.04C623.36,92.87 617.9,88.33 614.78,82.37C614.02,80.91 613.76,74.17 610.84,74.5C610.03,76.22 611.95,77.12 612.35,78.54C612.15,79.15 611.24,79.04 611.24,79.65C613.56,85.57 620.11,92.29 621.23,98.73C623.21,110.03 628.75,110.44 628.9,122.76C629,130.74 628.46,138.82 629.4,146.69C631.7,165.79 611.6,188.67 616.17,196.46C617.38,198.51 613.95,208.73 617.58,216.15C620.83,222.67 611.61,218.04 581.7,212.71ZM594.22,85.81C594.92,85.81 599.7,92.61 603.61,95.1C597.96,94.59 594.9,86.5 594.22,85.81ZM625.62,34.83C625.22,35.33 624.81,35.13 624.31,34.93C624.81,34.43 625.21,34.22 625.62,34.83ZM538.29,479.04C542.13,480.05 546.27,479.14 549.6,481.66C548.79,483.68 545.26,484.69 538.19,484.59C537.89,482.77 537.89,481.06 538.29,479.04ZM536.98,470.15C537.59,471.56 537.59,472.47 536.48,473.48C535.87,472.17 536.57,471.47 536.98,470.15ZM531.52,503.57C525.38,498.64 519.34,490.45 525.26,485.2C528.73,482.12 533.03,480.05 535.86,475.91C535.56,477.93 535.42,479.84 535.15,481.66C533.73,491.42 544.34,485.16 549.38,486.2C551.4,485.19 551.1,483.07 552.41,481.46C555.64,481.96 559.07,478.94 562.61,481.56C562.31,484.99 561.2,487.92 561.9,491.05C557.56,492.06 553.12,491.15 549.28,493.78C553.52,495.8 558.06,493.38 562.4,494.69C558.66,496.71 553.82,495.09 549.88,498.32C554.62,499.73 558.76,498.22 563,498.42C559.06,500.14 554.52,499.33 550.68,501.55C551.79,503.67 554.01,502.26 555.32,503.17C555.42,504.17 548.47,505.59 564.71,505.59C561.68,506.8 558.15,505.79 554.51,507.81C558.35,509.93 562.08,508.92 566.42,509.22C562.68,511.64 558.34,508.92 555.52,512.45C559.15,513.96 562.38,513.66 566.12,512.15C567.23,518.61 569.86,524.37 571.98,530.32C572.59,532.44 571.98,534.66 571.98,536.88C570.87,537.99 569.56,538.22 568.35,538.19C524.76,537.09 542.08,512.04 531.52,503.57Z" style="fill-rule:nonzero;"/>
        <path d="M707.69,587.77C706.88,587.27 707.69,585.95 706.07,585.65C706.02,585.7 617.05,582.27 608.85,587.47C602.06,591.77 583.92,587.63 581.59,588.88C581.89,591.5 580.68,592.92 577.96,592.01C577.25,593.02 578.36,593.63 577.66,594.43C575.24,594.53 572.72,594.35 570.49,595.54C568.18,596.77 565.64,594.53 562.92,595.94C568.88,599.47 577.46,598.87 581.5,594.83C585.63,595.63 591.91,595.08 594.22,595.74C607.03,599.4 612.69,594.14 614.92,595.44C619.79,598.27 630.53,592.95 638.85,595.84C642.38,597.07 646.22,595.12 649.85,595.23C658.03,595.5 665.7,590.08 674.08,593.41C677.45,592.95 697.72,593.31 701.14,593.31C704.59,593.31 713.86,595.55 714.57,590.38C713.25,587.57 713.45,587.67 707.69,587.77Z" style="fill-rule:nonzero;"/>
        <path d="M546.67,258.55C543.64,266.83 544.45,275.41 544.05,284.09C541.93,282.98 541.53,280.56 538.5,279.95C539.81,285.1 545.11,287.12 545.16,292.06C545.21,296.7 546.07,301.35 544.15,305.89C544.15,300.01 544.09,301.15 542.84,301.15C544.56,310.34 540.52,319.93 546.17,328.81C547.38,327.09 546.38,325.37 545.56,323.66C540.97,314.08 545.38,313.85 546.87,300.04C548.71,283.08 543.17,274.63 546.67,258.55Z" style="fill-rule:nonzero;"/>
        <path d="M602.09,234.22C601.34,233.57 599.69,225.88 599.47,224.93C599.27,225.03 598.97,225.03 598.76,225.13C598.76,229.07 598.26,233 602.09,235.93C600.07,242.69 601.28,249.16 603.4,255.41C603,257.33 600.98,258.54 601.99,260.56C602.8,261.57 603.71,260.36 604.31,260.76C605.12,261.47 603.81,262.48 604.92,262.98C606.63,262.22 605.24,259.98 606.03,258.24C609.66,255.31 614.31,253.8 618.75,251.88C614.01,252.18 609.26,252.18 604.92,254.91C600,242.62 605.02,236.75 602.09,234.22Z" style="fill-rule:nonzero;"/>
        <path d="M622.39,276.62C615.83,272.88 602.8,279.85 602.1,287.52C604.93,285 607.27,281.93 610.88,280.35C614.44,278.8 618.65,278.94 622.39,276.62Z" style="fill-rule:nonzero;"/>
        <path d="M560.2,251.28C571.91,251.38 582.31,255.72 592.51,261.98C588.77,255.32 567.36,248.35 560.2,251.28Z" style="fill-rule:nonzero;"/>
        <path d="M634.9,504.18C635.47,502.48 639.57,500.82 637.73,497.01C636.03,493.5 633.05,494.53 630.76,495.29C630.66,494.18 630.67,493.06 630.36,492.06C629.69,489.93 627.32,488.78 625.31,489.33C620.38,490.68 621.29,497.71 626.42,497.71C629.12,497.89 629.93,495.92 630.05,496.3C628.95,500.64 629.15,500.95 634.9,504.18ZM632.38,496.91C634,495.1 637.65,496.65 635.51,500.34C634.3,499.43 633.09,498.62 632.68,500.95C630.97,499.53 631.19,498.24 632.38,496.91ZM626.52,496C622.96,496 623.3,491.47 626.42,491.05C629.54,490.84 629.52,495.57 626.52,496Z" style="fill-rule:nonzero;"/>
        <path d="M602.4,264.2C600.78,267.73 599.78,270.86 599.37,273.99C604.96,268.4 613.47,267.84 616.94,266.72C611.69,265.91 606.84,267.12 602.1,269.45C601.79,267.74 603,266.42 602.4,264.2Z" style="fill-rule:nonzero;"/>
        <path d="M619.15,483.08C617.64,485 615.92,486.82 614.81,488.94C616.32,490.86 617.03,488.03 617.64,488.44C619.36,489.85 617.64,491.77 619.66,492.58C620.06,491.17 620.77,490.06 622.39,489.45C625.84,487.81 622.09,483.24 619.15,483.08ZM618.95,486.61C620.67,484.59 621.17,486.11 622.28,487.42C620.27,488.53 619.56,487.82 618.95,486.61Z" style="fill-rule:nonzero;"/>
        <path d="M624.2,355.16C622.34,357.65 623.09,362.53 625.31,364.55C627.63,361.62 626.72,358.69 625.41,355.77C626.52,354.46 628.03,353.45 627.83,351.43C625.11,351.13 625.19,353.84 624.2,355.16Z" style="fill-rule:nonzero;"/>
        <path d="M241.48,255.42C238.35,258.85 235.83,262.69 231.08,263.8C235.42,266.32 241.28,261.48 241.48,255.42Z" style="fill-rule:nonzero;"/>
        <path d="M561.21,356.27C565.15,358.09 561.21,361.12 563.03,363.34C566.97,359.4 563.43,355.16 563.94,351.12C558.06,349.36 563.58,353.58 561.21,356.27Z" style="fill-rule:nonzero;"/>
        <path d="M228.45,264C227.64,259.96 227.54,255.92 225.42,252.09C223.71,258.25 224.92,263.29 228.45,264Z" style="fill-rule:nonzero;"/>
        <path d="M257.83,259.15C259.95,252.59 259.65,248.65 256.92,246.83C257.02,250.88 256.52,254.71 257.83,259.15Z" style="fill-rule:nonzero;"/>
        <path d="M596.54,290.05C593.81,285.41 597.15,281.77 598.26,277.53C593.01,280.66 592.3,285.81 596.54,290.05Z" style="fill-rule:nonzero;"/>
        <path d="M564.13,376.37C564.53,372.23 561.61,368.9 562.11,364.56C559.69,367.48 560.9,374.25 564.13,376.37Z" style="fill-rule:nonzero;"/>
        <path d="M553.13,355.87C555.55,352.54 555.25,348.9 552.63,344.97C552.22,348.6 552.22,351.83 553.13,355.87Z" style="fill-rule:nonzero;"/>
        <path d="M624.3,407.26C624.1,413.32 625.81,419.07 626.92,425.03C628.43,420.8 627.27,419.55 624.3,407.26Z" style="fill-rule:nonzero;"/>
        <path d="M613.4,352.34C614.01,354.76 613.7,357.6 616.93,358.5C619.15,359.11 620.87,358.7 622.48,356.68C618.04,357.69 615.42,355.67 613.4,352.34Z" style="fill-rule:nonzero;"/>
        <path d="M545.66,388.48C544.65,392.52 541.62,396.15 543.34,401.6C545.25,396.86 546.16,392.82 545.66,388.48Z" style="fill-rule:nonzero;"/>
        <path d="M553.33,242.5C568.48,240.28 565.25,241.38 565.75,239.88C561.31,239.27 557.17,240.17 553.33,242.5Z" style="fill-rule:nonzero;"/>
        <path d="M229.16,235.33C229.77,238.56 229.06,242.2 232.09,244.52C232.09,241.08 231.58,237.85 229.16,235.33Z" style="fill-rule:nonzero;"/>
        <path d="M258.24,273.09C257.13,268.55 258.04,264.81 257.63,260.37C255.41,264.3 255.61,270.16 258.24,273.09Z" style="fill-rule:nonzero;"/>
        <path d="M556.26,389.69C557.37,390.4 557.07,392.31 558.88,392.72C558.48,390.3 557.57,388.38 556.26,387.37C555.55,385.75 556.87,384.75 556.16,383.13C554.95,385.86 554.44,388.18 554.75,390.6C555.86,391 555.75,389.89 556.26,389.69Z" style="fill-rule:nonzero;"/>
        <path d="M542.33,404.83C541.72,409.07 540.92,413.31 541.93,417.75C542.93,403.4 543.56,404.83 542.33,404.83Z" style="fill-rule:nonzero;"/>
        <path d="M613.5,409.48C613.1,412.51 610.57,414.73 610.07,418.16C613.6,416.95 614.41,414.73 613.5,409.48Z" style="fill-rule:nonzero;"/>
        <path d="M536.88,246.23C541.42,248.85 545.36,248.15 549.4,247.24C547.58,245.42 545.66,247.04 543.75,247.04C541.62,247.04 539.8,245.42 536.88,246.23Z" style="fill-rule:nonzero;"/>
        <path d="M570.9,359.91C568.48,357.29 567.57,357.39 565.95,360.01C568.27,362.43 568.58,362.43 570.9,359.91Z" style="fill-rule:nonzero;"/>
        <path d="M234.92,256.23C233.71,253.4 234.62,250.27 233.91,247.45C232.09,251.48 232.29,252.79 234.92,256.23Z" style="fill-rule:nonzero;"/>
        <path d="M546.97,384.85C548.48,382.02 550,379.2 548.48,375.86C548.28,378.89 546.77,381.72 546.97,384.85Z" style="fill-rule:nonzero;"/>
        <path d="M605.73,366.77C606.58,368.57 605.93,370.51 606.94,372.93C608.15,368.29 606.54,364.95 604.72,361.12C603.71,363.54 604.96,365.14 605.73,366.77Z" style="fill-rule:nonzero;"/>
        <path d="M245.52,262.99C246.73,265.92 247.44,269.15 249.96,271.37C248.95,268.34 248.24,265.11 245.52,262.99Z" style="fill-rule:nonzero;"/>
        <path d="M592.1,230.28C593.04,230.75 592.17,231.9 597.15,223.01C594.62,221.33 593.98,227.51 592.1,230.28Z" style="fill-rule:nonzero;"/>
        <path d="M548.08,466.12C547.68,463.5 548.08,460.77 546.87,458.25C546.97,460.87 545.15,463.89 548.08,466.12Z" style="fill-rule:nonzero;"/>
        <path d="M606.54,339.52C604.62,343.36 604.12,346.18 604.72,349.21C605.63,345.98 606.84,343.15 606.54,339.52Z" style="fill-rule:nonzero;"/>
        <path d="M564.23,341.13C561.4,342.14 560.49,344.56 561.91,348C564.81,341.12 564.23,343.21 564.23,341.13Z" style="fill-rule:nonzero;"/>
        <path d="M569.99,217.56C573.32,218.27 576.65,218.97 579.88,217.36C576.55,218.07 573.22,216.25 569.99,217.56Z" style="fill-rule:nonzero;"/>
        <path d="M548.69,239.57C549.6,236.24 549.8,232.81 548.89,229.37C547.5,229.84 547.95,227.37 548.69,239.57Z" style="fill-rule:nonzero;"/>
        <path d="M626.73,464.8C626.73,467.12 626.43,469.44 628.24,471.97C628.85,468.84 628.44,466.72 626.73,464.8Z" style="fill-rule:nonzero;"/>
        <path d="M619.56,393.73C619.36,397.67 620.37,400.9 622.18,402.92C621.28,399.79 620.47,396.76 619.56,393.73Z" style="fill-rule:nonzero;"/>
        <path d="M558.48,395.85C559.09,398.27 558.68,401.1 561.21,403.02C559.38,395.4 559.82,394.96 558.48,395.85Z" style="fill-rule:nonzero;"/>
        <path d="M233.5,214.03C235.32,211.3 234.81,209.29 232.69,207.37C233,209.48 233.2,211.5 233.5,214.03Z" style="fill-rule:nonzero;"/>
        <path d="M243.09,200.1C245.61,199.8 247.83,198.99 250.86,197.48C247.33,197.47 244.91,197.87 243.09,200.1Z" style="fill-rule:nonzero;"/>
        <path d="M553.74,373.03C553.34,375.45 553.94,377.17 555.46,378.68C555.35,376.87 555.96,374.75 553.74,373.03Z" style="fill-rule:nonzero;"/>
        <path d="M246.12,209.79C246.52,211.81 246.32,214.03 248.04,215.75C248.04,213.62 248.04,211.4 246.12,209.79Z" style="fill-rule:nonzero;"/>
        <path d="M548.28,365.46C546.66,367.88 546.77,369.9 547.57,372.02C547.88,370 549.29,368.09 548.28,365.46Z" style="fill-rule:nonzero;"/>
        <path d="M627.13,372.53C626.73,370.81 626.52,369.1 624.71,367.38C624.61,370 625.41,371.52 627.13,372.53Z" style="fill-rule:nonzero;"/>
        <path d="M615.02,401.5C614.72,403.01 614.01,404.63 614.82,406.45C616.73,404.83 616.33,403.22 615.02,401.5Z" style="fill-rule:nonzero;"/>
        <path d="M242.99,252.59C243.8,250.57 246.83,250.67 247.13,248.15C245.72,249.66 242.99,249.77 242.99,252.59Z" style="fill-rule:nonzero;"/>
        <path d="M566.66,220.59C564.94,221.8 564.94,223.32 564.84,224.83C565.14,223.32 567.36,222.71 566.66,220.59Z" style="fill-rule:nonzero;"/>
        <path d="M227.04,232.91C226.33,231.19 225.63,229.58 224.92,227.86C224.72,229.88 225.43,231.59 227.04,232.91Z" style="fill-rule:nonzero;"/>
        <path d="M611.68,384.14C612.49,382.63 612.59,381.11 610.97,379.8C610.57,381.51 610.78,382.83 611.68,384.14Z" style="fill-rule:nonzero;"/>
        <path d="M228.35,203.33C229.26,205.45 230.17,206.26 232.19,205.95C231.48,204.23 230.57,203.33 228.35,203.33Z" style="fill-rule:nonzero;"/>
        <path d="M240.37,202.22C241.08,204.44 241.88,205.85 244.11,207.17C243.09,204.94 242.69,203.33 240.37,202.22Z" style="fill-rule:nonzero;"/>
        <path d="M620.57,440.98C620.57,443.2 621.28,444.72 622.08,446.13C621.68,444.51 622.08,442.69 620.57,440.98Z" style="fill-rule:nonzero;"/>
        <path d="M586.75,224.32C584.53,224.02 583.42,225.13 582.21,226.04C583.82,226.24 585.33,226.04 586.75,224.32Z" style="fill-rule:nonzero;"/>
        <path d="M579.48,225.84C579.48,224.83 581.3,223.62 579.38,222.51C578.07,223.62 578.37,224.73 579.48,225.84Z" style="fill-rule:nonzero;"/>
        <path d="M548.08,466.22C547.58,467.63 547.27,469.15 548.08,470.96C549.8,469.14 549.09,467.63 548.08,466.22Z" style="fill-rule:nonzero;"/>
        <path d="M252.78,264.4C253.39,265.81 253.49,267.33 255.91,268.34C255.01,266.22 254.1,265.11 252.78,264.4Z" style="fill-rule:nonzero;"/>
        <path d="M565.04,371.62C564.94,373.24 565.75,373.64 567.36,373.54C566.86,372.33 566.56,371.32 565.04,371.62Z" style="fill-rule:nonzero;"/>
        <path d="M632.89,299.74C632.49,298.33 631.78,297.72 629.96,298.12C630.87,299.23 631.67,299.84 632.89,299.74Z" style="fill-rule:nonzero;"/>
        <path d="M545.05,224.93C544.75,226.04 544.04,226.95 544.24,228.36C545.37,227.99 546.39,225.66 545.05,224.93Z" style="fill-rule:nonzero;"/>
        <path d="M564.13,212.41C563.12,212.91 562.51,213.52 563.12,214.43C564.44,214.03 564.44,214.03 564.13,212.41Z" style="fill-rule:nonzero;"/>
        <path d="M267.52,202.32C268.43,202.82 269.14,203.53 270.85,202.52C269.34,201.91 268.53,201.31 267.52,202.32Z" style="fill-rule:nonzero;"/>
        <path d="M574.33,335.68C573.93,336.39 573.62,336.89 574.53,337.8C575.44,336.89 575.44,336.29 574.33,335.68Z" style="fill-rule:nonzero;"/>
        <path d="M553.23,337.7C552.73,339.32 552.42,340.53 553.43,342.34C554.14,340.53 554.24,339.31 553.23,337.7Z" style="fill-rule:nonzero;"/>
        <path d="M614.51,398.27C615.13,394.84 612.39,395.23 613.4,397.26C613.6,397.77 613.6,398.47 614.51,398.27Z" style="fill-rule:nonzero;"/>
        <path d="M611.79,388.08C611.41,390.76 614.1,389.69 612.4,387.98C612.19,387.77 611.99,387.77 611.79,388.08Z" style="fill-rule:nonzero;"/>
        <path d="M544.04,376.16C542.53,376.87 542.63,377.88 542.83,378.99C543.54,378.28 544.25,377.58 544.04,376.16Z" style="fill-rule:nonzero;"/>
        <path d="M237.14,223.92C235.93,224.42 236.23,225.03 236.53,225.84C237.44,225.33 237.84,224.93 237.14,223.92Z" style="fill-rule:nonzero;"/>
        <path d="M541.92,383.23C540.91,384.04 540.61,384.74 540.91,385.85C542.13,385.35 542.33,384.54 541.92,383.23Z" style="fill-rule:nonzero;"/>
        <path d="M565.45,231.39C564.34,231.39 564.14,231.89 564.04,232.8C564.84,232.5 565.45,232.4 565.45,231.39Z" style="fill-rule:nonzero;"/>
        <path d="M235.22,216.65C234.72,217.36 234.31,217.76 235.32,218.27C235.82,217.86 236.03,217.36 235.22,216.65Z" style="fill-rule:nonzero;"/>
        <path d="M568.47,212.11C567.76,212.82 566.96,213.42 568.27,214.43C569.38,213.62 568.88,212.92 568.47,212.11Z" style="fill-rule:nonzero;"/>
        <path d="M579.48,303.78C576.44,305.47 577.66,307.55 579.76,304.36C580.21,304.23 583.38,302.36 584.73,301.46C592.8,296.08 592.89,297.04 593.31,294.7C585.07,297.99 579.96,304.26 579.48,303.78Z" style="fill-rule:nonzero;"/>
        <path d="M274.09,206.66C273.48,205.95 272.88,205.95 272.27,206.56C272.87,207.36 273.48,207.26 274.09,206.66Z" style="fill-rule:nonzero;"/>
        <path d="M546.57,221.6C547.18,221.4 547.78,221.2 548.08,220.59C547.69,219.8 546.36,220.54 546.57,221.6Z" style="fill-rule:nonzero;"/>
        <path d="M611.18,346.38C610.88,346.99 610.47,347.49 611.48,348.6C611.79,347.59 611.99,346.99 611.18,346.38Z" style="fill-rule:nonzero;"/>
        <path d="M546.06,440.17C545.56,440.27 545.56,440.57 545.56,441.28C546.26,440.88 546.16,440.47 546.06,440.17Z" style="fill-rule:nonzero;"/>
        <path d="M303.06,239.87C304.07,243.1 300.33,245.22 301.85,248.55C303.36,246.13 304.78,243.6 307.5,241.79C315.17,243.41 318.5,238.76 319.51,231.29C324.4,233.85 325.51,222.37 332.33,225.84C338.19,228.82 336.88,224.46 344.34,227.56C346.85,228.6 349.39,229.28 352.72,226.95C347.48,226.4 328.44,221.04 322.33,220.79C321.7,219.12 325.94,212.21 321.32,207.06C321.02,218.37 319.7,229.57 314.76,239.87L303.06,239.87ZM325.78,223.82C325.58,225.13 324.47,224.83 323.86,225.44C323.25,225.84 322.55,226.25 321.74,226.75C319.65,221.74 324.67,223.66 325.78,223.82Z" style="fill-rule:nonzero;"/>
        <path d="M278.63,348.6C264.82,352.83 272.74,351.11 275.5,352.03C274.09,355.46 271.76,357.68 269.04,359.6C254.03,359.6 267.32,360.74 269.04,363.54C272.57,357.99 277.32,354.45 281.26,350.21C282.17,350.82 283.38,351.32 284.69,350.51C284.39,349.3 282.57,349.5 282.57,347.58C288.12,344.96 288.22,339.3 289.03,333.95C283.37,346.34 281.98,347.58 278.63,348.6Z" style="fill-rule:nonzero;"/>
        <path d="M298.42,206.76C303.06,207.47 307.2,207.77 310.74,204.34C308.92,199.9 301.15,199.6 297.01,203.94C298.63,204.34 299.53,202.83 301.25,202.73C302.16,203.44 303.77,203.34 305.19,203.64C303.57,205.85 300.13,203.83 298.42,206.76Z" style="fill-rule:nonzero;"/>
        <path d="M285.09,319.22C283.27,317.5 280.84,316.15 278.53,316.7C273.35,317.93 269.46,313.46 266.92,311.85C261.81,308.63 264.46,318.41 285.09,319.22Z" style="fill-rule:nonzero;"/>
        <path d="M228.05,343.45C228.35,349.31 230.07,355.26 225.83,361.02C228.76,361.02 227.24,364.65 230.27,364.76C228.45,357.69 231.58,350.32 228.05,343.45Z" style="fill-rule:nonzero;"/>
        <path d="M293.87,233.21C284.49,228.31 285.67,220.93 284.58,220.39C283.97,223.12 284.38,225.74 284.68,228.37C298.13,239.56 298.44,235.59 293.87,233.21Z" style="fill-rule:nonzero;"/>
        <path d="M343.95,247.65C347.89,247.04 349.6,244.32 349.6,238.97C347.72,238.55 347.6,239.42 343.95,247.65Z" style="fill-rule:nonzero;"/>
        <path d="M320.12,236.64C317.9,239.26 319.31,241.69 324.16,243.81C324.46,240.48 322.75,238.46 320.12,236.64Z" style="fill-rule:nonzero;"/>
        <path d="M295.29,313.37C296.3,308.42 297.51,303.48 297.21,298.33C296.09,303.27 294.98,308.22 295.29,313.37Z" style="fill-rule:nonzero;"/>
        <path d="M308.61,232C311.54,232.71 313.86,233.01 316.08,231.19C313.06,228.26 311.24,228.36 308.61,232Z" style="fill-rule:nonzero;"/>
        <path d="M305.89,227.05C309.83,228.46 313.66,227.45 317.6,226.34C313.66,225.54 309.82,226.24 305.89,227.05Z" style="fill-rule:nonzero;"/>
        <path d="M296.09,282.98C295.59,286.61 295.79,290.25 296.49,293.88C297,290.25 297.51,286.61 296.09,282.98Z" style="fill-rule:nonzero;"/>
        <path d="M291.35,234.52C291.85,237.85 292.26,240.38 293.87,243.3C294.38,239.77 294.18,237.15 291.35,234.52Z" style="fill-rule:nonzero;"/>
        <path d="M311.34,220.99C313.36,220.08 315.48,221.09 317.3,219.17C313.86,217.76 312.55,218.17 311.34,220.99Z" style="fill-rule:nonzero;"/>
        <path d="M252.78,318.11C250.26,316.49 249.35,314.17 247.73,312.15C247.33,315.79 248.34,317.1 252.78,318.11Z" style="fill-rule:nonzero;"/>
        <path d="M349.6,239.06C351.11,237.04 353.13,235.22 351.92,232.5C350.21,234.32 349.7,236.64 349.6,239.06Z" style="fill-rule:nonzero;"/>
        <path d="M253.59,326.69C251.67,324.87 249.15,324.47 246.93,323.56C248.65,325.99 251.17,326.19 253.59,326.69Z" style="fill-rule:nonzero;"/>
        <path d="M234.81,325.79C235.42,327.71 235.92,329.73 238.55,329.83C237.64,328.31 237.04,326.39 234.81,325.79Z" style="fill-rule:nonzero;"/>
        <path d="M254.6,318.92C256.92,322.05 259.65,321.24 261.87,322.05C262.27,320.86 264.2,322.02 254.6,318.92Z" style="fill-rule:nonzero;"/>
        <path d="M241.38,331.04C239.97,331.54 239.46,330.43 238.55,329.93C238.25,334.17 241.98,331.75 243.9,333.56C243.29,331.64 242.59,330.73 241.38,331.04Z" style="fill-rule:nonzero;"/>
        <path d="M264.29,366.98C265.8,366.07 266.81,365.36 267.42,363.24C265.3,364.15 264.39,364.96 264.29,366.98Z" style="fill-rule:nonzero;"/>
        <path d="M302.25,315.29C300.23,315.39 298.82,315.69 297.4,317.01C299.63,318.01 300.64,316.6 302.25,315.29Z" style="fill-rule:nonzero;"/>
        <path d="M241.88,318.82C242.18,320.84 243.19,321.75 244.81,322.35C244.1,321.14 244.1,319.43 241.88,318.82Z" style="fill-rule:nonzero;"/>
        <path d="M269.34,320.64C267.83,320.24 266.72,320.44 265.71,321.55C267.02,321.75 268.13,321.95 269.34,320.64Z" style="fill-rule:nonzero;"/>
        <path d="M258.94,348.2C259.34,349.51 260.35,349.61 262.07,349.71C260.86,348.4 260.26,347.69 258.94,348.2Z" style="fill-rule:nonzero;"/>
        <path d="M353.64,227.35C354.75,227.55 355.56,227.15 356.67,226.34C354.65,226.24 354.65,226.24 353.64,227.35Z" style="fill-rule:nonzero;"/>
        <path d="M246.42,332.75C244.14,333.89 246.73,336.07 247.93,332.75C247.43,332.05 246.93,332.45 246.42,332.75Z" style="fill-rule:nonzero;"/>
        <path d="M244.4,306.71C243.29,307.21 243.09,307.92 243.19,309.33C244.3,308.42 244.91,307.92 244.4,306.71Z" style="fill-rule:nonzero;"/>
        <path d="M240.06,312.36C238.85,312.06 238.34,312.86 237.54,313.98C239.05,313.87 239.86,313.57 240.06,312.36Z" style="fill-rule:nonzero;"/>
        <path d="M231.89,318.32C233,317.71 234.01,317.82 234.21,316.1C233.1,316.7 232.19,316.6 231.89,318.32Z" style="fill-rule:nonzero;"/>
        <path d="M257.63,337.3C257.73,339.42 258.44,340.33 260.15,341.34C259.55,339.62 258.94,338.61 257.63,337.3Z" style="fill-rule:nonzero;"/>
        <path d="M338.09,250.88C339.3,250.17 340.21,250.07 340.01,248.56C338.9,248.96 338.4,249.46 338.09,250.88Z" style="fill-rule:nonzero;"/>
        <path d="M357.78,226.14C358.69,226.54 359.29,226.44 359.5,225.43C358.49,224.73 358.18,225.44 357.78,226.14Z" style="fill-rule:nonzero;"/>
        <path d="M262.48,303.27C262.78,304.08 262.98,304.48 263.19,305.09C263.49,304.28 263.49,303.88 262.48,303.27Z" style="fill-rule:nonzero;"/>
        <path d="M259.14,325.48C258.13,325.88 257.22,326.09 257.42,327.4C258.34,327.2 259.14,327 259.14,325.48Z" style="fill-rule:nonzero;"/>
        <path d="M313.26,243.81C312.19,244.88 314.18,245.14 313.97,243.41C313.56,243.61 313.26,243.71 313.26,243.81Z" style="fill-rule:nonzero;"/>
        <path d="M294.28,245.83C293.57,246.23 293.78,246.74 294.28,247.55C295.19,246.74 295.19,246.23 294.28,245.83Z" style="fill-rule:nonzero;"/>
        <path d="M332.94,252.09C333.95,251.89 334.66,251.89 334.56,250.88C333.65,250.47 333.25,251.08 332.94,252.09Z" style="fill-rule:nonzero;"/>
        <path d="M228.55,335.28C228.35,335.99 228.75,336.29 230.27,336.69C229.46,335.68 229.77,334.77 228.55,335.28Z" style="fill-rule:nonzero;"/>
        <path d="M250.06,471.57C253.19,475.1 254.1,479.34 253.29,483.48C254.4,484.39 254.6,482.98 255.31,483.58C257.75,487.35 256.2,495.57 259.45,494.48C258.54,489.74 258.19,484.87 256.62,480.35C255.74,477.82 254.15,475.6 253.79,472.68C253.53,470.55 252.28,470.25 250.06,471.57Z" style="fill-rule:nonzero;"/>
        <path d="M259.45,455.41C259.25,459.35 262.51,461.88 262.98,465.61C263.42,469.05 264.7,472.37 266.72,475.3C268.37,470.97 264.7,470.46 264.3,464.6C264.05,461.06 262.98,457.53 259.45,455.41Z" style="fill-rule:nonzero;"/>
        <path d="M236.93,492.46C233.5,494.68 230.17,506.09 232.08,510.03C235.02,504.18 234.01,497.71 236.93,492.46Z" style="fill-rule:nonzero;"/>
        <path d="M262.88,435.12C264.5,435.52 265.71,437.44 268.13,436.84C266.65,435.86 261.97,430.05 261.97,434.42C261.98,434.42 261.98,434.43 261.99,434.44C258.91,434.85 262.01,440.38 259.45,443.91C257.53,444.01 256.02,444.82 255.61,447.24C261.22,446.92 262.88,444.84 262.88,435.12Z" style="fill-rule:nonzero;"/>
        <path d="M262.38,495.19C265.21,492.26 266.42,488.83 267.02,485.2C265.76,484.56 266.4,483.78 262.38,495.19Z" style="fill-rule:nonzero;"/>
        <path d="M272.98,463.59C270.86,464.6 268.44,465.1 265.51,465.21C268.94,467.83 269.54,467.63 272.98,463.59Z" style="fill-rule:nonzero;"/>
        <path d="M253.39,466.62C252.78,464.7 251.88,463.09 249.25,462.68C249.25,465.71 250.87,466.52 253.39,466.62Z" style="fill-rule:nonzero;"/>
        <path d="M265.61,457.84C267.63,458.14 269.75,458.85 271.57,456.33C268.84,454.91 267.12,456.02 265.61,457.84Z" style="fill-rule:nonzero;"/>
        <path d="M259.04,465.81C257.12,464.9 256.31,465.81 255.61,467.43C257.43,467.93 258.34,467.43 259.04,465.81Z" style="fill-rule:nonzero;"/>
        <path d="M238.35,485.7C236.94,486.91 236.63,487.92 237.04,489.74C238.25,488.43 238.85,487.42 238.35,485.7Z" style="fill-rule:nonzero;"/>
        <path d="M247.84,468.13C247.84,467.12 248.24,466.31 246.83,465.71C246.32,466.92 246.42,467.63 247.84,468.13Z" style="fill-rule:nonzero;"/>
        <path d="M240.77,478.84C240.06,479.75 239.05,480.46 240.37,482.17C240.57,480.96 241.88,480.35 240.77,478.84Z" style="fill-rule:nonzero;"/>
        <path d="M231.79,540.42C230.98,541.13 230.88,541.73 231.69,542.54C232.19,541.93 232.9,541.43 231.79,540.42Z" style="fill-rule:nonzero;"/>
        <path d="M232.19,535.57C232.49,535.17 232.59,534.76 232.19,534.26C231.48,534.66 231.08,535.17 232.19,535.57Z" style="fill-rule:nonzero;"/>
        <path d="M253.69,486.41C252.7,487.6 254,488.02 254.5,487.52C254.8,486.71 254.4,486.51 253.69,486.41Z" style="fill-rule:nonzero;"/>
        <path d="M324.97,455.11C325.8,455.52 335.99,451.65 329.21,440.47C330.22,445.21 329.11,449.05 325.07,451.47C320.93,452.28 317.3,450.66 313.46,449.85C311.86,452.66 319.87,453.27 324.97,455.11Z" style="fill-rule:nonzero;"/>
        <path d="M336.28,464C337.59,457.94 335.98,454.61 331.03,453.5C333.45,456.73 335.27,460.16 336.28,464Z" style="fill-rule:nonzero;"/>
        <path d="M327.29,464.4C328.1,468.03 331.03,470.56 332.54,473.69C333.85,470.66 330.62,464.7 327.29,464.4Z" style="fill-rule:nonzero;"/>
        <path d="M312.55,499.63C315.48,498.72 315.98,496.2 316.79,493.47C314.17,494.48 313.66,495.19 312.55,499.63Z" style="fill-rule:nonzero;"/>
        <path d="M320.83,471.26C319.62,473.08 318.91,475.1 319.32,477.52C321.84,476.01 321.64,473.69 320.83,471.26Z" style="fill-rule:nonzero;"/>
        <path d="M313.46,449.76C311.14,448.45 309.32,446.02 305.89,445.32C308.21,449.36 309.93,450.27 313.46,449.76Z" style="fill-rule:nonzero;"/>
        <path d="M317.09,491.96C319.01,489.54 318.6,487.52 318.1,485.5C316.89,487.22 316.29,489.13 317.09,491.96Z" style="fill-rule:nonzero;"/>
        <path d="M307.1,524.37C308.41,523.06 309.42,521.64 309.32,519.22C307.6,520.73 307.1,522.45 307.1,524.37Z" style="fill-rule:nonzero;"/>
        <path d="M309.12,503.97C311.34,502.86 312.86,502.05 312.45,499.63C310.63,500.24 309.72,501.65 309.12,503.97Z" style="fill-rule:nonzero;"/>
        <path d="M319.62,465C320.23,466.51 319.22,468.03 321.34,468.94C321.74,466.42 321.74,466.42 319.62,465Z" style="fill-rule:nonzero;"/>
        <path d="M300.23,539.11C301.44,537.49 302.25,536.28 301.85,533.76C300.74,535.78 299.33,536.68 300.23,539.11Z" style="fill-rule:nonzero;"/>
        <path d="M332.44,473.79C332.54,475.2 333.15,476.31 334.46,477.12C334.36,475.61 335.06,473.79 332.44,473.79Z" style="fill-rule:nonzero;"/>
        <path d="M303.16,531.54C304.37,530.53 305.08,529.82 304.78,528.11C303.67,529.01 302.96,529.72 303.16,531.54Z" style="fill-rule:nonzero;"/>
        <path d="M308.21,504.68C307,504.48 306.39,504.78 306.09,506.4C307.4,505.99 308.21,505.89 308.21,504.68Z" style="fill-rule:nonzero;"/>
        <path d="M310.63,516.19C311.84,515.79 312.45,515.38 312.25,514.37C310.94,513.97 310.94,514.98 310.63,516.19Z" style="fill-rule:nonzero;"/>
        <path d="M318.91,479.74C318.51,480.45 318.2,480.95 318.91,482.06C319.52,481.16 320.22,480.55 318.91,479.74Z" style="fill-rule:nonzero;"/>
        <path d="M304.17,507.41C303.16,507.01 302.76,507.11 302.96,508.32C303.67,508.52 303.97,508.21 304.17,507.41Z" style="fill-rule:nonzero;"/>
        <path d="M321.03,513.36C321.33,513.06 321.64,512.75 321.23,511.95C320.73,512.45 320.53,512.86 321.03,513.36Z" style="fill-rule:nonzero;"/>
        <path d="M326.38,435.93C326.99,435.02 326.68,434.52 325.77,434.21C325.27,435.12 325.67,435.63 326.38,435.93Z" style="fill-rule:nonzero;"/>
        <path d="M223.91,374.35C221.68,372.08 217.47,374.17 212.1,368.9C210.77,367.6 208.97,366.78 206.04,368.19C211.39,370.21 215.11,374.05 220.38,374.75C224.05,375.24 220.55,377.78 229.37,381.21C236.04,383.81 243.3,384.74 249.66,389.59C248.73,382.2 229.9,380.43 223.91,374.35Z" style="fill-rule:nonzero;"/>
        <path d="M202,371.01C205.23,374.85 210.08,375.86 214.92,378.48C213.51,374.95 206.04,371.01 202,371.01Z" style="fill-rule:nonzero;"/>
        <path d="M279.54,385.55C276.41,386.86 273.58,388.58 272.37,392.11C275.1,390.3 278.12,388.88 279.54,385.55Z" style="fill-rule:nonzero;"/>
        <path d="M293.37,433.71C289.84,430.28 285.8,427.75 281.46,425.53C284.99,428.96 289.03,431.59 293.37,433.71Z" style="fill-rule:nonzero;"/>
        <path d="M284.69,389.39C281.36,389.29 277.82,391.31 274.8,394.54C278.43,393.43 281.66,391.71 284.69,389.39Z" style="fill-rule:nonzero;"/>
        <path d="M275.3,383.43C273.58,383.13 272.68,383.53 272.37,385.35C274.09,385.96 274.69,384.95 275.3,383.43Z" style="fill-rule:nonzero;"/>
        <path d="M272.77,395.85C273.58,395.65 274.39,395.35 274.69,394.44C273.78,394.44 272.98,394.64 272.77,395.85Z" style="fill-rule:nonzero;"/>
        <path d="M252.28,412.81C253.59,414.12 254.9,415.54 256.22,416.95C255.91,414.63 254.5,413.32 252.28,412.81Z" style="fill-rule:nonzero;"/>
        <path d="M199.68,393.33C199.28,393.83 199.38,394.34 199.58,395.15C199.68,394.34 199.68,393.83 199.68,393.33Z" style="fill-rule:nonzero;"/>
        <path d="M200.99,401.3C200.4,400.86 199.4,401.49 199.98,402.51C200.79,402.51 200.79,401.81 200.99,401.3Z" style="fill-rule:nonzero;"/>
        <path d="M197.06,414.63C198.07,413.92 198.68,413.42 198.78,412.31C197.66,412.71 196.85,413.01 197.06,414.63Z" style="fill-rule:nonzero;"/>
        <path d="M243.5,579.39C247.24,578.28 250.77,582.32 254.61,579.39C254,578.08 254.11,576.66 252.89,575.15C250.16,577.67 245.92,575.96 243.5,579.39Z" style="fill-rule:nonzero;"/>
        <path d="M300.23,570.61C293.46,561.41 286.26,573.72 294.58,575.66C296.89,576.2 298.42,574.45 299.93,573.24C302.76,576.67 302.76,576.67 308.41,575.97C309.22,570.92 309.01,569.63 306.9,568.5C304.67,567.29 302.76,567.88 300.23,570.61ZM295.19,574.04C292.02,573.83 292.22,568.99 295.39,568.99C298.96,569.23 298.32,574.25 295.19,574.04ZM302.25,571.61C302.62,568.96 307.1,568.68 307.1,572.92C305.18,572.11 304.17,572.62 304.58,574.64C302.56,574.34 302.03,573.23 302.25,571.61Z" style="fill-rule:nonzero;"/>
        <path d="M284.18,566.67C282.97,570.71 282.97,574.14 284.28,574.44C285.69,574.44 284.68,572.22 286.3,572.42C287.71,572.82 287.61,574.94 289.73,574.84C289.93,573.43 288.62,572.32 290.03,570.7C292.7,567.66 286.64,565.53 284.18,566.67ZM285.49,568.79C286.7,568.08 287.71,568.29 288.62,569.29C286.81,570.71 286.81,570.71 285.49,568.79Z" style="fill-rule:nonzero;"/>
        <path d="M624,62.09C629.35,62.09 629.96,56.03 634.7,55.23C644.15,59.71 639.65,54.14 650.55,58.36C652.67,59.18 654.69,59.17 657.31,57.45C646.61,55.13 636.71,52.6 626.32,50.89C628.64,46.25 628.74,41.8 626.62,37.26C623.4,63.93 622.78,60.3 619.35,70.17L607.24,70.17C609.01,73.12 605.61,72.75 605.93,79.96C607.65,76.53 609.26,74 611.99,71.98C619.86,73.6 623.09,68.95 624,62.09ZM626.52,53.3C633.1,55.49 630.76,53.1 626.22,57.64C625.62,56.03 626.22,54.92 626.52,53.3Z" style="fill-rule:nonzero;"/>
        <path d="M610.78,31.5C607.55,31.45 604.02,30.59 601.79,34.23C604.82,32.31 607.75,33.52 611.28,34.13C608.35,35.44 605.42,34.53 602.7,36.75C614.32,39.77 619.5,31.63 610.78,31.5Z" style="fill-rule:nonzero;"/>
        <path d="M611.79,147.7C613.13,169.46 612.37,167.59 613.91,167.59C615.02,160.62 614.82,153.76 613.1,146.49C612.29,147.19 611.79,147.5 611.79,147.7Z" style="fill-rule:nonzero;"/>
        <path d="M579.98,142.65C575.45,141.75 576.85,136.39 573.62,134.47C572.51,139.62 576.63,144.24 583.11,145.88C585.63,146.52 587.65,144.77 590.08,144.97C590.48,144.97 590.58,143.96 589.98,142.85C586.55,145.28 583.23,143.29 579.98,142.65Z" style="fill-rule:nonzero;"/>
        <path d="M598.06,171.12C601.9,165.77 606.64,161.02 609.47,154.36C606.03,155.67 599.37,165.57 598.06,171.12Z" style="fill-rule:nonzero;"/>
        <path d="M589.88,49.47C588.37,52.6 589.07,55.63 589.27,58.76C593.01,61.69 596.84,64.31 600.98,66.53C596.8,59.36 589.88,62.69 589.88,49.47Z" style="fill-rule:nonzero;"/>
        <path d="M648.13,77.84C652.69,79.07 654.21,73.28 654.59,68.55C650.45,70.27 650.86,74.71 648.13,77.84Z" style="fill-rule:nonzero;"/>
        <path d="M624.3,67.24C622.79,69.86 623.59,71.28 628.54,74.21C628.64,70.16 627.74,68.65 624.3,67.24Z" style="fill-rule:nonzero;"/>
        <path d="M625.52,85.81C624.11,82.07 627.03,78.94 626.83,74.5C623.09,78.95 622.59,83.09 625.52,85.81Z" style="fill-rule:nonzero;"/>
        <path d="M610.57,57.44C614.61,58.75 618.44,57.84 622.48,56.73C618.45,55.73 614.51,56.74 610.57,57.44Z" style="fill-rule:nonzero;"/>
        <path d="M613.6,131.45C612.79,126.3 610.87,121.46 609.76,116.41C609.36,116.51 609.05,116.61 608.65,116.71C613.37,134.46 612.3,131.45 613.6,131.45Z" style="fill-rule:nonzero;"/>
        <path d="M613.5,62.29C616.23,63.2 618.45,63.2 620.67,61.68C618.15,58.55 615.72,58.66 613.5,62.29Z" style="fill-rule:nonzero;"/>
        <path d="M558.78,144.17C558.78,140.03 560.8,136.6 562.52,133.06C558.58,136.39 556.97,141.34 558.78,144.17Z" style="fill-rule:nonzero;"/>
        <path d="M610.37,174.45C607.95,178.19 607.14,182.53 606.84,186.87C608.55,182.93 609.16,178.59 610.37,174.45Z" style="fill-rule:nonzero;"/>
        <path d="M536.98,35.23C536.27,31.49 535.67,27.86 534.96,23.72C533.64,26.55 534.35,31.09 536.98,35.23Z" style="fill-rule:nonzero;"/>
        <path d="M544.75,56.74C544.45,53.41 543.24,50.28 541.22,47.65C540.82,47.75 540.51,47.95 540.21,48.05C544.39,58.16 543.5,57.05 544.75,56.74Z" style="fill-rule:nonzero;"/>
        <path d="M555.25,79.65C555.15,82.98 556.76,85.51 559.89,87.32C555.76,78.03 556.81,79.13 555.25,79.65Z" style="fill-rule:nonzero;"/>
        <path d="M573.62,150.32C571.6,148.2 571,145.88 569.08,144.16C568.47,147.5 569.59,149.01 573.62,150.32Z" style="fill-rule:nonzero;"/>
        <path d="M595.63,65.12C596.74,68.15 596.74,70.77 598.25,73.3C599.27,69.46 598.66,67.34 595.63,65.12Z" style="fill-rule:nonzero;"/>
        <path d="M565.24,154.36C566.75,158.2 569.18,159.61 572.51,158.9C569.79,157.39 567.47,155.98 565.24,154.36Z" style="fill-rule:nonzero;"/>
        <path d="M621.88,49.57C618.55,48.16 617.24,48.56 616.33,51.49C617.84,49.77 620.16,51.89 621.88,49.57Z" style="fill-rule:nonzero;"/>
        <path d="M546.37,28.47C547.3,32.1 548.79,33.67 552.53,33.52C550.61,31.6 547.68,31.09 546.37,28.47Z" style="fill-rule:nonzero;"/>
        <path d="M654.59,68.55C656.61,67.04 657.52,65.22 656.71,62.69C654.89,64.31 654.39,66.33 654.59,68.55Z" style="fill-rule:nonzero;"/>
        <path d="M561.51,27.76C564.13,29.68 566.15,30.89 568.58,31.6C567.26,28.87 564.94,28.17 561.51,27.76Z" style="fill-rule:nonzero;"/>
        <path d="M585.33,122.56C585.13,120.94 584.83,119.23 582.4,119.13C583.11,120.54 583.82,121.85 585.33,122.56Z" style="fill-rule:nonzero;"/>
        <path d="M591.59,181.32C593.31,179.6 593.91,177.79 594.42,175.97C592.4,177.08 591.8,178.79 591.59,181.32Z" style="fill-rule:nonzero;"/>
        <path d="M529.51,15.55C529.81,17.67 530.92,19.08 533.04,19.79C529.84,14.46 530.6,15.18 529.51,15.55Z" style="fill-rule:nonzero;"/>
        <path d="M544.55,63C545.16,61.59 546.37,60.17 544.15,58.15C544.25,60.17 543.54,61.58 544.55,63Z" style="fill-rule:nonzero;"/>
        <path d="M558.18,69.46C557.68,70.67 557.88,71.78 558.99,73.5C559.19,70.97 559.19,70.97 558.18,69.46Z" style="fill-rule:nonzero;"/>
        <path d="M579.98,151.03C580.89,152.65 582.2,152.65 583.61,152.14C582.61,151.33 581.6,150.22 579.98,151.03Z" style="fill-rule:nonzero;"/>
        <path d="M544.65,78.34C545.46,76.32 546.16,75.11 544.55,73.49C543.84,75.31 543.94,76.52 544.65,78.34Z" style="fill-rule:nonzero;"/>
        <path d="M544.45,66.73C543.24,68.55 543.24,68.55 543.74,70.47C544.45,69.15 545.25,68.25 544.45,66.73Z" style="fill-rule:nonzero;"/>
        <path d="M558.48,74.51C557.17,76.33 557.87,77.24 558.88,78.35C559.59,76.83 559.09,75.92 558.48,74.51Z" style="fill-rule:nonzero;"/>
        <path d="M605.63,198.78C607.04,197.37 607.25,196.26 605.93,194.74C605.42,196.06 605.53,197.17 605.63,198.78Z" style="fill-rule:nonzero;"/>
        <path d="M576.05,195.96C575.75,197.68 576.45,198.69 577.56,199.9C578.27,197.77 577.56,196.86 576.05,195.96Z" style="fill-rule:nonzero;"/>
        <path d="M574.43,150.22C575.24,151.43 576.25,151.73 577.46,151.73C576.85,150.73 576.35,149.52 574.43,150.22Z" style="fill-rule:nonzero;"/>
        <path d="M622.28,160.62C622.08,159.41 622.28,158.1 620.56,157.19C620.27,158.91 621.17,159.71 622.28,160.62Z" style="fill-rule:nonzero;"/>
        <path d="M575.04,33.11C574.43,31.8 573.42,32.2 571.81,32.3C573.12,33.11 573.83,34.02 575.04,33.11Z" style="fill-rule:nonzero;"/>
        <path d="M660.85,56.64C659.84,56.44 658.93,56.14 657.92,57.55C659.44,58.05 660.14,57.34 660.85,56.64Z" style="fill-rule:nonzero;"/>
        <path d="M599.37,77.74C599.87,77.24 599.77,76.73 599.27,76.23C597.85,76.73 597.95,77.23 599.37,77.74Z" style="fill-rule:nonzero;"/>
        <path d="M566.25,184.95C566.25,186.36 566.75,186.87 568.07,187.07C567.87,185.76 567.57,185.25 566.25,184.95Z" style="fill-rule:nonzero;"/>
        <path d="M643.08,80.76C644.09,80.66 644.8,80.36 644.7,79.14C643.49,79.15 643.08,79.65 643.08,80.76Z" style="fill-rule:nonzero;"/>
        <path d="M637.83,82.48C638.64,82.28 639.14,82.08 639.55,81.17C638.24,80.97 637.83,81.37 637.83,82.48Z" style="fill-rule:nonzero;"/>
        <path d="M664.08,55.83C663.17,55.12 662.77,55.63 662.46,56.44C663.27,56.94 663.78,56.84 664.08,55.83Z" style="fill-rule:nonzero;"/>
        <path d="M572.51,192.32C571.9,193.43 572.21,194.04 573.72,194.54C573.62,193.33 573.52,192.62 572.51,192.32Z" style="fill-rule:nonzero;"/>
        <path d="M589.78,125.59C589.17,126.5 589.48,126.8 590.49,126.8C590.99,125.89 590.38,125.79 589.78,125.59Z" style="fill-rule:nonzero;"/>
        <path d="M617.94,75.11C618.34,74.91 618.75,74.61 618.65,73.9C617.34,74.09 617.13,75.11 617.94,75.11Z" style="fill-rule:nonzero;"/>
        <path d="M538.69,42C537.72,42.97 539.4,43.44 539.4,42.91C539.6,42.3 539.3,42 538.69,42Z" style="fill-rule:nonzero;"/>
        <path d="M565.04,514.27C562.31,514.37 559.89,514.47 556.86,514.67C560.2,517.7 563.53,517.5 565.04,514.27Z" style="fill-rule:nonzero;"/>
    </g>
</svg>
