<?xml version="1.0" encoding="UTF-8" standalone="no"?>
<!DOCTYPE svg PUBLIC "-//W3C//DTD SVG 1.1//EN" "http://www.w3.org/Graphics/SVG/1.1/DTD/svg11.dtd">
<svg width="100%" height="100%" viewBox="0 0 900 600" version="1.1" xmlns="http://www.w3.org/2000/svg" xmlns:xlink="http://www.w3.org/1999/xlink" xml:space="preserve" xmlns:serif="http://www.serif.com/" style="fill-rule:evenodd;clip-rule:evenodd;stroke-linejoin:round;stroke-miterlimit:2;">
    <g>
        <path d="M515.15,20.1C515.16,20.05 515.17,20.01 515.18,19.96C515,19.99 515.04,20 515.15,20.1Z" style="fill-rule:nonzero;"/>
        <path d="M517.48,18.17C521.8,9.7 518.92,7.36 525.19,2.54C524.62,5.21 521.24,13.8 521.43,19.9C527.04,18.37 528.16,5.83 532.9,1.73C531.28,8.94 528.03,14.93 526.51,21.73C527.42,21.43 527.83,21.32 527.93,21.32C530.57,11.65 536.7,0 532.1,0C529.89,1.6 526.31,10.43 524.89,13.6C520.91,22.48 523.99,12.3 524.59,9.34C525.17,6.46 529.7,0.06 524.89,1.02C517.94,5.58 519.27,12.17 516.06,17.87C513.81,21.86 516.96,19.19 517.48,18.17Z" style="fill-rule:nonzero;"/>
        <path d="M249.71,309L249.71,308.99C249.57,309.12 249.6,309.14 249.71,309Z" style="fill-rule:nonzero;"/>
        <path d="M360.55,207.78C360.21,189.63 360.64,188.25 349.59,178.04C344.62,173.45 343.1,176.13 341.27,175.2C335.58,172.31 331.93,173.39 327.36,169.52C316.38,160.21 310.56,161.12 310,160.28C308.58,154.39 310.61,149.22 310.51,143.84C311.83,143.94 312.13,145.57 313.56,145.36C314.12,142.74 317.78,131.47 316.4,129.83C314.21,127.22 313.52,115.92 314.17,113.49C315.55,108.3 315.1,103.72 310.31,100.5C309.66,100.06 304.96,92.61 296.61,94C294.58,92.68 293.77,90.14 291.53,89.43C289.5,89.84 290.11,91.66 289.4,92.88C287.98,88.82 287.47,88.21 284.83,87.6C284.31,90.72 292.06,95.88 280.57,88.41C277.73,95.17 275.72,89.33 278.24,95.62C276.12,99.02 276.78,98.16 274.38,98.16C269.25,104.15 267.25,119.75 268.29,122.01C259.02,131.28 267.41,135.14 266.26,138.25C265.28,140.9 268.95,140.91 269.41,142.01C272.13,148.55 274.29,160.99 272.05,162.11C256.68,167.23 248.05,176.32 245.66,176.32C238.38,176.32 226.4,184.64 222.21,195.91C220.1,201.6 220.89,207.28 220.99,213.37C212.67,226.68 219.35,242.78 218.76,245.55C216.1,257.88 219.13,263.76 218.76,266.16C217.5,274.29 216.64,285.34 214.7,290.52C216.76,307.02 216.49,313.14 219.78,320.36C224.24,330.16 223.46,343.65 227.09,352.03C231.37,361.92 228.08,368.66 232.67,371.21C231.55,373.29 233.84,374.27 234.19,378.32C234.3,379.58 235.09,394.68 234.29,395.68C232.12,398.09 236.84,427.22 234.09,434.56C239.57,437.81 246.07,437.4 251.45,440.45C254.46,453.49 249.31,460.11 251.04,475.47C252.19,485.66 250.29,485.72 253.17,498.72C257.72,519.25 265,526.95 268.5,553.03C268.5,555.11 266.55,553.73 265.45,555.36C260.73,565.58 263.37,570.55 256.72,578.2C253.98,581.35 254.29,584.05 253.98,589.57C253.87,591.6 252.36,593.02 251.54,594.75C263.82,601.04 276,601.75 288.08,595.56C289.1,596.27 288.99,597.59 290.62,598.3C303.27,602.1 306.2,597.35 315.69,598.91C318.62,599.39 320.46,598.17 320.46,594.85C317.21,585.74 321.11,583.99 316.6,580.64C310.25,575.92 311.17,562.98 308.28,562.98C307.63,566.14 308.77,563.8 293.9,563.8C293.43,563.8 296.07,561.41 295.61,556.79C299.24,557.57 302.56,557.93 306.27,557.5C308.04,559.86 306.05,562.67 308.1,563.29C308.86,560.24 308.62,557.38 306.68,554.97C308.44,553.03 306.39,546.67 308.41,541.77C310.12,537.61 312.69,516.03 315.11,509.19C320.31,494.46 321.9,463.64 320.79,452.75C320.29,447.78 321.6,442.7 322.62,437.52C332.04,437.52 335.9,438.63 333.89,435.19C330.15,428.8 336.47,419.35 337.54,405.35C338.74,389.73 337.79,383.83 340.69,378.96C341.41,377.75 342.8,377.73 343.33,376.83C355.71,355.63 350.93,350.19 355.61,334.2C375.72,265.55 363.66,288.53 368.3,244.16C369.4,233.6 367.59,223.96 359.77,215.94C360.65,213.27 360.6,210.53 360.55,207.78ZM314.47,136.02C313.45,134.19 313.86,133.18 315.18,132.37C315.6,133.64 315.12,134.72 314.47,136.02ZM314.47,129.22C314.69,130.26 313.99,130.53 313.35,130.84C313.03,129.85 313.19,129.32 314.47,129.22ZM313.76,137.85C313.96,139.68 312.64,140.69 312.95,142.52C309.29,139.7 313.29,138.55 313.76,137.85ZM311.42,123.94C312.04,124.32 312.15,124.74 311.52,125.46C311.12,124.75 311.12,124.35 311.42,123.94ZM268.18,136.53C266.26,133.97 263.79,130.78 266.96,130.34C266.56,132.46 269.01,134.05 268.18,136.53ZM268.99,126.78C267.77,126.68 267.57,125.87 267.37,124.45C268.69,125.06 269.09,125.67 268.99,126.78ZM300.66,99.17C301.53,99.34 301.62,99.71 301.47,100.39C300.73,100.22 300.51,99.93 300.66,99.17ZM300.05,104.55C299.95,105.26 299.54,105.57 298.53,105.26C298.94,104.65 299.14,104.04 300.05,104.55ZM298.23,104.25C297.42,103.64 297.11,103.34 297.21,102.83C298.12,102.62 298.33,103.13 298.23,104.25ZM293.69,106.01C293.39,107.09 293.33,106.76 293.09,106.34C291.82,104.17 294.46,103.22 293.69,106.01ZM271.53,111.66C272.05,112.18 271.63,112.37 270.92,112.57C270.92,111.76 271.22,111.45 271.53,111.66ZM270.11,139.67C270.15,137.74 271.75,123.61 272.34,123.02C275.45,119.49 273.57,114.68 276.87,111.43C279.69,108.65 273.07,106.96 273.56,106.63C274.9,105.96 275.14,105.81 276.19,107.9C278.97,107.24 279,112.55 279.95,108.51C284.69,106.93 287.35,108.99 291.72,110.64C292.63,110.03 293.45,109.42 294.16,108.91C304.54,108.08 300.65,110.46 301.98,111.35C303.15,111.67 302.42,110.38 303.18,110.09C304.41,109.63 303.94,112.39 304.11,112.97C306.44,114.52 313.26,130.37 308.58,141.19C304.6,150.4 306.51,151.16 304.82,153.17C291.14,169.47 293.06,159.44 283.4,162.2C273.02,157.49 277.84,148.44 270.11,139.67ZM263.1,169.62C263,171.75 264.01,174.09 262.19,176.32C266.33,182.53 261.55,189.76 273.46,199.57C278.53,203.74 284.12,206.78 290.92,207.79C291.83,208.3 290.92,209.62 291.94,210.33C292.86,209.94 292.17,208.57 292.96,207.69C296.96,206.64 303.13,208.13 310.62,192.77C311.65,190.67 312.43,188.46 313.46,185.87C309.7,186.86 306.23,205.36 292.75,205.36C292.99,202.76 293.18,197.88 293.66,195.31C293.36,196.33 292.94,197.24 292.85,198.25C292.73,199.57 292.44,200.89 292.14,202.11C291.39,206.23 292.47,205.84 289.48,205.85C287.1,205.86 284.83,205.53 282.8,204.04C278.94,201.21 274.99,198.45 271.63,194.9C265.68,188.63 264.91,178.8 266.27,179.1C270.38,180.01 264.1,176.65 265.14,174.31C266.46,170.79 261.97,166.61 272.65,164.67C273.83,167.02 273.15,178.82 276.2,158.88C277.82,161.11 280.29,162.29 282.49,163.35C287.15,165.59 287.66,161.24 292.23,164.16C293.18,164.76 294.4,164.67 295.78,164.67C297.68,163.05 306.49,153.82 306.66,155.13C307.12,158.78 306.11,167.91 307.33,167.38C310,166.23 309.51,163.1 310.35,163.46C311.9,164.13 313.53,164.55 315.06,165.89C315.47,172.39 312.32,178.48 311.41,184.97C314.79,182.44 313.87,176.62 315.88,173.4C317.54,170.73 315.71,164.48 320.35,168.02C318.39,181.37 317.02,185.57 318.42,196.64C319.12,202.2 318.82,203.76 320.04,204.86C320.06,204.88 326.55,223.45 331.31,228.61C331.51,229.83 329.89,229.83 330.4,230.94C331.37,231.43 331.62,230.06 332.51,230.23C341.83,230.23 328.51,261.47 326.35,290.93C326.18,293.27 326.05,295.6 324.22,297.53C325.74,300.37 324.22,303.32 324.93,306.26C320.34,309.54 306.54,311.76 300.26,314.48C296.96,315.91 298.85,313.92 283.51,315.19C265.12,316.71 263.89,311.29 250.72,308.9C254.58,304.03 249.74,289.35 252.24,278.55C253.08,274.94 250.55,257.2 249.7,253.58C249.02,249.53 247.19,250.67 247.67,241.5C247.8,239.03 247.24,227.07 248.43,228.5C252.58,233.48 257.24,236.03 256.12,234.79C254.01,232.44 252.17,229.91 250.71,226.98C263.57,209.83 258.51,201.92 260.54,184.74C261.46,177.21 258.9,168.78 263.1,169.62ZM321.37,314.37C326.47,313.01 322.45,310.34 325.77,309.91C325.98,309.91 325.58,309.39 327.47,315.99C315.95,317.86 316.87,317.94 316.75,317.71C315.63,316.03 316.38,314.34 315.39,313.05C316.51,312.14 317.72,312.24 318.94,311.93C319.75,312.84 319.64,314.06 321.37,314.37ZM321.06,312.44C321.17,311.2 321.82,311.15 322.99,310.92C322.28,313.52 321.06,313.59 321.06,312.44ZM306.45,318.93C304.93,317.81 305.03,316.39 305.03,314.97C306.27,314.98 305.72,313.82 306.45,318.93ZM303.5,320.15C301.98,318.73 301.67,317.41 301.77,316.09C302.28,315.48 302.79,315.58 303.5,315.58C303.1,316.9 303.81,318.22 303.5,320.15ZM236.92,413.03C235.47,401.49 237.75,391.28 236.31,380.45C239.15,383.1 237.63,384.68 237.63,400.35C237.63,407.24 238.98,410.28 236.92,413.03ZM263.51,524.99C261.49,517.4 253.97,498.31 254.27,490.27C254.72,478.26 252.33,462.82 253.86,455.66C254.7,451.74 253.4,442.08 254.54,443.23C255.39,443.99 256.25,444.75 257.11,445.51C257.41,447.64 256.81,449.67 257.82,451.5C255.69,453.63 256.8,455.86 257.41,458C257.62,457.37 258.86,443.25 260.15,441.96C257.05,442.13 258.24,448 254.97,440.54C259.94,439.73 264.82,439.42 269.79,439.52C271.41,440.84 272.73,442.57 274.15,444.19C274.35,447.95 274.66,451.7 274.05,456.07C275.79,454.33 275.63,454.06 276.08,444.09C275.57,442.36 273.34,441.45 272.63,439.12C283.18,438.19 282.49,438.13 282.49,438.24C287.39,448.67 273.93,463.6 283.8,482.97C283.29,488.45 284.82,493.83 285.63,499.62C282.75,503.41 285.09,505.93 282.79,520.33C281.48,528.53 282.3,531.78 284.31,555.15C278.01,551.48 283.75,553.74 280.39,547.62C279.69,546.35 280.6,551 279.84,552.6C279.84,553.25 273.77,550.47 270.5,555.05C268.42,546.89 272.24,557.77 263.51,524.99ZM285.13,479.01C278.74,463.21 284.68,459 285.74,446.63C285.94,445.51 286.35,444.4 286.86,442.57C289.39,449.57 290.18,450.14 285.13,479.01ZM286.1,487.16C286.09,487.44 286,487.75 285.85,488.04C284.91,487.11 286.13,485.45 286.1,487.16ZM281.88,563.57C276.68,563.22 275.08,562.15 268.48,562.15C269.09,559.84 268.37,557.69 268.07,555.55C289.32,552.97 281.61,559.73 281.88,563.57ZM284.22,594.53C283.2,595.65 281.58,595.34 280.36,596.15C278.63,595.34 278.33,592.99 276.2,592.5C269.99,591.07 273.18,589.94 269.47,589.94C265.89,589.94 262.1,590.45 259.25,592.59C260.08,595.75 261.12,594.16 267.57,592.39C270.24,591.65 270.48,592.29 277.64,596.35C279.14,597.35 264.57,598.92 255.9,594.12C257.02,583.77 256.98,582.97 257.56,581.76C258.66,579.46 264.4,574.47 265.03,563.06C265.03,561.94 265.03,560.93 265.74,560.01C267.16,562.55 267.16,562.55 266.76,564.98C271.02,567.11 267.02,566 265.91,567.71C264.71,570.1 270.62,569.81 272.04,570.66C270.39,571.53 267.32,569.84 266.25,572.69C269.9,574.42 273.76,573.91 277.42,573.91C278.33,573.91 278.94,573.3 279.25,572.49C278.62,570.38 274.2,570.76 276.02,570.48C276.74,570.37 281.38,570.53 281.38,568.42C280.85,564.22 273.64,568.02 271.74,565.49C275.84,565.9 279.02,566.29 281.48,565.79C282.8,566.2 283.31,567.41 284.53,567.62C285.71,571.49 283.54,584.35 283.51,584.47C282.46,589.72 285.85,590.45 284.22,594.53ZM287.67,590.57C285.94,587.32 285.94,584.48 286.65,580.93C287.16,584.27 287.97,587.12 287.67,590.57ZM287.47,576.76C285.31,576.28 288.28,575.31 287.23,569C286.14,562.52 286.85,560.23 285.13,561.72C284.47,562.29 284.41,566.2 284.34,563.09C284.25,559.11 286.65,559.66 286.06,552.18C281.92,500.49 286.7,532.53 286.27,505.28C286.13,496.52 291.75,517.95 292.09,533.77C292.35,545.76 289.94,558.15 289.69,558.4C284.75,562.84 290.34,570.8 287.47,576.76ZM292.24,557.78C291.55,556.39 292.97,555.42 293.02,556.81C293.03,557.21 292.76,557.52 292.24,557.78ZM291.22,562.96C290.62,560.95 291.09,559.93 292.44,559C294.07,560.72 292.52,561.55 291.22,562.96ZM299.13,566.82C307.47,566.64 308.39,565.76 307.91,568.63C303.42,566.49 295.3,566 292.64,569.56C293.92,570.99 296.58,569.7 296.19,570.88C295.76,571.66 288.01,574.1 305.73,574.33C306.3,574.34 306.95,573.81 306.95,572.81C305.82,571.21 300.18,570.78 302.31,570.78C305.78,570.78 307.83,571.31 308.15,569.24C308.62,567.82 308.03,578.31 316.28,584.08C315.98,595.92 318.72,596.44 315.17,596.35C302.38,596.04 292.61,599.53 289.29,593.71C290.2,589.48 287.85,580.45 289.09,577.67C291.8,571.58 287.9,568.4 290.31,565.18C298.92,561.6 286.48,567.09 299.13,566.82ZM317.31,452.42C321.67,497.33 304.74,539.13 305.81,550.73C306.33,556.42 304.5,555.25 298.94,555.25C298.03,555.25 298.2,553.67 297.83,553.01C297.61,552.69 297.95,552.55 296.8,554.85C291.88,557.66 296.56,544.93 291.83,516.89C291.49,514.87 292.95,513.03 291.93,511C285.56,498.26 289.24,465.32 292.54,459.74C292.74,458.22 291.52,458.32 291.42,457.1C291.62,455.07 291.93,452.53 292.23,450.3C289.03,435.71 286.92,438.27 301.07,438.26C314.77,438.25 319.64,437.32 319.64,437.43C317.52,449.39 317.01,449.38 317.31,452.42ZM334.77,410.09C334.05,411.3 334.67,413.03 333.45,414.05C332.84,413.44 333.55,412.43 332.74,411.92C331.22,414.15 330.2,428.26 331.12,434.66C330.66,435.28 290.04,435.98 289.91,435.98C285.59,435.95 288.16,437.59 287.47,438.42C281.76,441.27 289.45,429.73 287.98,419.64C285.82,404.8 288.06,397.95 287.27,388.78C286.83,383.71 284.73,383.48 285.24,385.84C286.11,389.82 281.57,397.83 285.44,406.24C284.42,409.79 285.03,413.45 285.44,417.1C284.22,419.94 280.97,419.33 278.74,420.86C280.97,421.27 282.7,420.05 284.93,419.74C284.42,425.02 284.22,430.3 283.31,435.58C268.19,437.71 253.26,438.73 238.65,433.55C240.38,418.43 240.07,403.3 240.17,387.97C243.01,389.59 242.3,393.55 245.35,394.87C252.68,389.17 249.33,381.2 244.54,371.62C247.48,367.86 247.48,367.86 246.47,365.33C244.85,366.35 245.25,368.68 243.22,369.49C242,368.68 241.29,367.56 241.49,365.84C241.84,362.94 241.7,358.29 238.85,359.04C239.46,362.39 240.37,365.64 240.17,369.19C245.55,373.55 246.06,380.15 248.49,385.94C244.69,387.75 244.11,381.33 240.41,377.76C240.56,377.68 234.7,369.31 246.16,389.49C244.65,390.81 247.52,396.71 242.1,386.95C238.14,379.82 238.48,378.04 236.01,376.39C235.78,371.85 233.51,371.97 231.85,364.41C223.07,324.45 222.85,313.51 219.47,311.52C217.19,291.02 216.38,290.97 218.56,281.58C221.19,270.24 218.51,270.08 221.61,264.73C218.48,252 222.84,244.69 220.09,238.95C218.2,235 219.23,229.74 220.39,222.91C221.3,217.57 225.25,218.39 224.65,211.74C222.96,192.97 234.62,180.3 244.75,178.65C262.66,175.74 258.76,158.28 258.76,195.8C258.76,213.32 252.28,219.38 249.32,223.21C247.8,221.38 247.58,218.87 245.77,217.53C244.03,216.23 244.75,213.37 242.01,212.25C241.4,215.9 243.53,218.54 244.65,221.28C243.33,222.5 242.11,220.37 240.89,221.48C241.74,223.47 247.13,222 246.27,230.72C245.57,237.82 248.2,249.47 240.48,262.69C237.89,267.13 241.11,266.82 239.57,270.81C235.55,281.21 238.26,305.32 234.39,327.76C233.89,330.65 235.74,335.77 232.87,336.49C231.4,340.54 240.79,342.69 243.02,351.11C243.22,351.72 243.73,352.33 243.63,353.04C242.82,356.59 245.1,359.74 245.15,363.09C245.17,364.23 247.51,363.52 246.77,361.57C245.55,357.71 245.45,353.75 245.15,349.29C245.45,348.07 246.98,347.06 247.69,345.33C246.27,345.53 245.96,346.75 244.95,347.26C243.53,345.94 241.5,345.33 240.38,343.1C244.41,327.41 244.81,334.79 246.37,325.03C247.2,319.87 247.98,318.48 246.27,317.62C244,320.03 245.38,323.9 242.31,329.39C240.39,332.84 238.25,336.29 238.15,340.56C236.83,340.46 237.13,339.65 237.24,339.04C237.77,331.36 235.39,329.23 236.94,325.74C239.81,319.24 239.89,279.15 239.88,279.05C239.19,272.04 244.4,268.85 241,264.13C243.74,260.58 246.08,257.13 246.99,252.76C249.38,258.81 248.55,271.02 250.75,301.38C251.13,306.58 250.06,308.57 249.74,309C250.45,311.53 249.74,314.17 250.96,317.01C252.48,314.98 251.26,312.75 252.18,310.62C252.69,312.55 251.98,314.48 253.09,316.3C254.31,314.68 253.39,312.85 253.9,311.33C256.5,311.33 254.53,313.73 256.23,315.19C257.04,314.68 256.53,313.67 256.74,313.06C257.55,312.65 257.96,313.26 258.47,313.36C259.49,314.17 258.27,315.59 259.59,316.3C260.4,315.69 259.79,314.17 261.21,313.66C263.34,314.37 261.72,316.71 262.63,318.02C264.25,317.41 263.24,315.69 264.05,314.67C267.81,314.2 265.93,317.05 266.69,317.92C268.42,317.23 266.2,314.53 270.55,316.4C271.36,317.11 270.35,318.13 271.16,318.73C272.28,318.53 271.67,317.21 272.58,316.8L275.73,316.8C276.85,317.51 276.14,318.53 276.75,319.13C277.36,318.62 277.05,317.71 277.77,317.3C282.64,316.49 285.89,316.69 288.02,317.91C292,315.52 290.21,318.84 291.67,319.64C293.45,318.75 288.9,315.51 299.89,316.39C301.11,319.13 301.11,319.13 300.4,320.96C303.04,321.77 305.37,320.45 307.91,320.15C308.42,318.02 307.1,316.09 307.71,313.96C309.33,312.94 311.26,313.45 312.89,313.15C313.7,314.27 313.19,315.18 313.09,316.09C312.38,315.89 311.87,315.79 311.26,315.68C310.75,316.9 311.36,317.61 312.17,318.32C314.08,318.61 312.63,314.76 315.32,318.12C319.28,318.53 323.14,318.22 326.49,318.22C332.58,322.48 331.95,328.78 332.99,334.46C335.7,349.35 337.61,350.81 334.01,353.54C324.65,360.63 330.45,365.33 333.2,364.6C334.41,364.28 335.84,365.72 336.85,364.09C334.85,362.89 334.57,364.21 337.87,359.93C338.55,373.87 338.39,373.62 336.04,377.19C334.63,379.33 333.4,381.35 334.52,383.99C334.72,384.4 333.91,385.01 334.52,385.61C335.74,386.22 336.04,384.49 337.16,384.49C335.4,401.52 337.42,405.64 334.77,410.09ZM363.7,226.06C368.27,233.09 364.98,259.23 363.7,264.33C366.06,269.53 366.7,294.37 361.67,307.47C350.7,336.07 353.12,356.25 346.14,370.2C345.48,367.32 347.36,365.11 346.85,362.69C344.13,361.91 345.43,373.1 341.27,375.89C339.25,377.24 338.36,381.11 336.8,381.37C336.32,378.95 338.82,376.8 339.74,374.67C339.63,371.4 342.15,364.41 342.07,364.01C340.6,358.31 345.73,353.7 344,354.4C333.67,358.54 333.93,363.35 331.66,361.78C330.41,360.91 331.71,356.75 335.17,355.18C342.18,352 336.1,346.14 344,339.65C345.89,337.76 341.56,336.8 338.42,345.54C336.15,344.83 336.21,324.96 331.52,319.76C323.77,311.18 333.26,258.87 336.09,247.39C336.85,242.68 338.87,250.54 338.12,253.28C337.28,256.38 342.98,267.63 345.18,268.78C349.54,271.06 344.24,277.51 343.19,305.97C342.93,313.1 344.18,305.13 344.41,330.23C344.43,332.11 342.97,333.66 343.7,336.12C346.65,330.33 346.81,314.37 345.32,311.35C345.27,311.25 346.72,288.98 348.26,281.81C350.61,270.88 346.16,269.27 349.38,264.35C351.74,260.75 351.85,259.18 351.26,259.91C346.89,265.29 346.93,268.38 346.41,267.54C328.53,233.74 343.78,208.87 332.94,226.07C326.28,219.41 317.63,201.06 320.76,179.17C322.21,177.99 327.02,177.17 326.02,176.62C324.82,175.96 322.67,176.68 322.17,176.18C321.33,173.21 323.59,170.29 323.59,169.42C332.02,176.03 346,174.27 352.72,184.86C359.88,196.15 358.91,193.59 358.91,207.29C358.91,210.23 358.81,213.18 358.3,216.32C360.45,219.25 361.62,222.87 363.7,226.06ZM341.57,359.23C340.76,357.71 340.76,357.71 341.67,356.9C342.18,357.61 341.37,358.01 341.57,359.23Z" style="fill-rule:nonzero;"/>
        <path d="M593.81,158.15L593.71,158.05C593.75,158.25 593.75,158.17 593.81,158.15Z" style="fill-rule:nonzero;"/>
        <path d="M475.76,462.26L475.86,462.16C475.79,462.13 475.76,462.18 475.76,462.26Z" style="fill-rule:nonzero;"/>
        <path d="M615.03,454.45L615.13,454.35C615.02,454.34 614.95,454.32 615.03,454.45Z" style="fill-rule:nonzero;"/>
        <path d="M670.96,596.05C672.74,595.07 674.51,594.18 676.48,594.13C675.55,592.54 669.23,595.3 667.61,596.15C667.91,596.76 668.12,597.17 668.32,597.67C662.86,598.35 659.98,595.13 655.43,591.99C652.49,589.96 653.6,585.9 652.08,583.16C646.8,582.25 642.54,579.71 638.68,576.56C640.61,572.5 641.03,568.35 643.15,564.68C643.9,563.39 641.83,560.62 643.66,558.79C644.57,559.2 644.68,560.41 646.2,560.52C648.33,558.08 652.19,558.69 654.73,557.27C656.42,552.19 649.84,552.35 661.63,551.28C663.36,553.21 661.73,555.75 663.46,557.47C666.01,555.94 666.66,551.34 660.01,548.74C658.69,549.76 658.69,549.76 656.76,549.76C657.37,548.64 657.69,547.52 657.27,546.31C651.56,529.85 659.11,484.05 634.13,459.93C633.72,459.53 633.42,459.02 633.11,458.51C625.09,442.07 630.29,445.68 630.67,443.39C629.95,439.79 629.32,445.58 624.99,425.02C621.94,410.55 624.39,415.08 622.86,407.56C619.34,390.26 613.91,369.46 610.27,354.67C611.89,353.86 611.29,352.44 610.68,351.12C609.14,347.24 604.43,328.83 600.63,325.03C601.95,322.39 601.12,319.75 601.95,317.21C604.64,308.97 603.81,300.56 603.27,292.24C602.24,276.35 607.34,273.29 603.98,264.33C603.32,262.04 605.5,250.92 606.01,248.7C608.53,237.82 606.38,248.45 610.88,233.98C622.83,195.6 608.02,207.75 622.55,178.96C628.83,166.51 629.07,154.16 627.73,139.98C626.58,127.86 630.45,129.67 631.18,119.27C631.29,117.75 631.8,116.12 630.98,114.7C630.27,113.48 630.46,112.37 630.47,111.25C630.73,86.37 623.33,79.83 616.16,49.23C615.83,47.81 615.25,46.59 614.33,45.68C615.45,41.21 615.74,36.86 612.6,33.4C605.94,26.05 605.37,21.93 603.46,23.35C606.83,30.69 613.37,36.14 612.9,42.53C612.6,44.36 611.07,44.56 610.97,45.78C611.68,46.49 613.1,45.98 613.91,47.3C618.61,65.58 616.59,62.55 621.73,77.75C627.32,94.29 632.31,112.86 625.59,132.06C622.29,141.47 633.51,153.73 615.95,189.21C610.85,199.51 616.07,201.61 611.18,220.07C609.86,225.04 609.35,230.22 606.41,234.79C604.33,233.29 592.07,224.51 592.2,221.94C584.05,217.73 579.12,187.13 575.45,179.27C578.7,170.54 585.7,166.07 592.91,161.4C592.63,180.66 599.05,194.13 597.78,197.43C595.57,203.19 595.95,209.41 593.92,215.19C598.28,207.78 598.79,199.46 599.4,191.54C599.7,190.52 601.02,190.83 600.82,189.71C600.62,188.9 599.91,190.01 599.4,189.41C591.56,152.64 595.64,165.78 593.75,158.19C578.24,168.41 578.77,169.79 574.03,176.22C572.61,169.72 572.41,163.63 572.41,157.64C573.43,157.13 574.14,158.66 575.46,157.54C578.4,151.96 579.62,145.97 576.27,139.47C576.57,137.74 577.18,135.92 575.97,134.29C578.9,132.49 576.26,132.36 575.26,124.34C574.82,120.79 562.94,106.97 556.89,110.54C554.56,109.52 553.74,106.68 551.61,106.38C549.68,106.79 550.19,108.41 549.58,109.53C548.56,107.2 548.06,104.76 545.01,104.86C544.81,106.69 546.53,107.4 546.84,109.22C537.03,103.62 543.58,106.8 537.7,109.93C539.18,113.49 539.81,112.26 537.29,115.61C535.26,115.2 534.44,116.62 533.94,118.05C527.37,136.74 531.53,135.71 530.69,139.26C527.24,141.7 526.83,145.35 527.24,149.31C528.97,151.34 530.49,153.37 529.88,155.91C530.79,157.43 532.72,156.72 533.64,158.85C533.74,160.37 533.74,162.81 535.06,164.84C533.44,168.29 535.36,171.84 534.86,176.21C530.5,167.99 526.33,160.37 518.21,156.42C514,142.54 521.81,134.37 509.48,118.15C510.34,108.72 514.73,101.02 513.95,89.22C512.43,66.45 520.85,57.1 520.85,48.01C521.66,47.1 523.39,47.6 523.9,46.18C519.43,46.08 518.62,46.28 517.3,47.8C517.81,48.51 518.92,47.7 519.43,48.41C509.55,75.72 512.43,74.53 512.32,88.81C512.2,104.26 504.68,112.58 509.88,122.31C516.03,133.8 513.69,135.99 515.67,152.97C516.83,162.92 522.65,158.72 528.56,169.82C529.97,172.47 531.3,175.3 533.64,177.43C533.64,198.55 532.98,217.84 517.09,236.71C515.14,239.03 513.33,241.38 510.39,242.9C494.36,210.84 502.76,203.38 491.92,186.67C484.75,175.62 484.95,168.66 483.8,164.24C481.05,153.63 487.59,148.88 484.71,137.75C482.31,128.45 485.12,120.27 482.78,113.19C481.57,109.53 487.84,85.69 498.21,68.02C501.89,61.74 504.06,54.85 506.74,48.23C510.1,39.93 505.23,38.86 508.06,29.96C512.19,16.98 510.19,7.8 512.93,7.53C513.41,11.51 511.28,18.9 513.64,21.84C515.48,21.44 514.12,19.48 514.76,20.11C512.71,18.43 515.64,7.66 513.34,6.51C511.51,6.41 510.78,7.72 510.5,9.35C509.95,12.49 508.66,15.54 509.18,18.79C509.55,21.06 508.12,18.71 506.44,31.48C505.95,35.18 504.37,34.95 505.32,38.99C507.04,46.27 505.96,43 500.55,57.16C496.31,68.26 491.4,72.57 488.27,84.97C486.1,93.56 482.03,97.84 481.37,112.28C481.22,115.54 481.62,105.53 482.28,138.37C482.43,145.76 476.82,168.09 489.99,187.5C494.75,194.51 494.67,200.09 495.98,202.52C498.81,208.74 495.18,211.12 499.13,221.2C500.61,224.97 501.2,229.06 503.6,232.37C503.9,232.78 504.11,233.28 504.11,233.69C504.57,241.44 510.79,252.58 511.32,258.46C511.33,258.57 514.47,291.04 514.47,293.28C514.37,293.79 512.95,293.99 512.85,294.9C515.64,321.42 511.62,315.14 512.75,319.97C513.88,324.8 511.41,324.91 513.66,329.41C512.11,333.04 512.94,334.4 509.5,337.94C505.04,342.52 508.05,343.51 500.47,358.85C492.34,375.29 492.93,381.15 487.68,395.9C478,423.08 483.12,429.2 480.98,435.89C480.27,436.5 479.25,435.79 478.65,436.6C478.75,437.72 480.27,437.92 480.48,439.54C474.87,464.8 474.66,456.79 466.88,469.08C466.7,469.36 456.81,480.34 455.41,502.68C455.12,507.35 453.69,511.71 453.58,516.38C452.84,547.96 448.79,545.39 450.74,550.79C449.01,551.3 448.3,550.18 447.49,549.37C446.39,550.94 442.25,550.56 442.52,555.05C442.52,556.37 442.82,557.79 444.45,558.3C445.87,556.37 444.35,553.83 446.18,552.21C458.11,553.2 451.4,553.4 452.98,558.4C455.92,559.31 459.27,559.42 461.41,561.34C463.14,561.54 463.14,560.02 464.15,559.82C465.95,561.62 463.64,563.97 464.76,565.91C466.83,569.5 467.3,573.73 469.12,577.68C464.86,580.62 460.69,583.26 455.62,584.07C454.39,586.4 454.88,591.24 452.68,592.7C448.77,595.3 444.34,599.56 439.48,598.49C439.38,597.88 440.29,597.47 439.89,596.76C429.4,593.09 435.31,594.93 427.91,594.93C428.88,594.84 430.02,595.61 431.04,595.11C431.14,595.21 433.43,594.77 436.54,596.96C433.19,596.86 429.84,597.26 426.29,597.37C428.83,599.2 430.04,599.45 434.11,599.4C439.14,599.34 443.64,601.88 449.34,596.96C451.82,594.82 458.32,592.67 456.75,585.59C462.13,583.66 468.12,583.05 470.96,577.37C470.55,575.64 469.32,574.53 469.23,572.9C468.92,567.02 465.97,566.19 466.49,563.97C467.15,561.14 466.49,558.59 464.36,556.97C463.95,555.04 465.8,554.33 465.88,552.81C466.86,535.35 481.72,522.06 482.12,518.6C482.7,513.66 487.54,520.02 497.55,487.74C497.85,487.04 498.09,481.3 499.68,474.14C499.88,472.92 501.61,472.21 501,470.38C493.9,477.48 497.48,485.14 490.24,501.64C479.39,526.35 472.87,517.31 463.65,553.71C462.43,552.09 461.21,554.32 459.89,553.1C459.38,552.69 460.4,551.58 459.38,551.07C458.47,551.37 459.18,553 457.65,553.2C447.03,547.89 452.52,552.56 453.49,546.3C457.52,520.3 453.48,484.73 474.81,462.76C476.95,460.56 481.81,452.78 481.81,446.62C481.81,445.5 482.72,445.3 483.54,444.79C483.34,443.98 482.83,443.17 483.54,442.35C485.64,442.35 501.43,446.7 501.51,446.82C502.87,448.93 505.27,449.26 507.4,450.47C504.76,451.18 502.53,448.14 499.79,450.17C503.44,452.3 507.3,452.2 511.06,453.22C503.16,469.33 501.12,468.24 502.74,469.06C514.43,461.85 509.3,454.47 513.6,453.12C509.32,449.17 499.69,451.93 535.42,451.5C537.96,451.47 540.8,451.5 542.63,448.96C539.29,446.82 539.18,449.18 531.67,448.55C524.46,447.95 512.08,447.13 509.85,446.32C492.05,439.84 485.58,441.03 484.17,438.61C486.03,422.24 486.45,425.06 484.58,423.18C485.7,414.04 491.97,388.3 506.1,354.87C508.87,348.32 507.09,350.15 507.62,343.2C510.26,340.26 512.8,337.52 514.83,334.27C521.63,335.79 528.33,335.08 535.33,336.5C534.01,334.17 531.98,334.67 530.56,333.96C530.76,332.34 532.18,333.05 532.79,332.44C532.69,331.63 532.18,330.92 532.79,330.11C535.65,328.48 534.34,331.97 535.84,333.97C536.75,332.65 535.94,331.13 536.96,330.01C539.29,329.1 541.43,330.52 543.76,330.92C542.16,334.12 540.67,332.06 538.48,332.65C539.19,333.97 540.1,334.17 541.02,334.07C543.86,333.97 546.81,334.78 549.65,334.07C550.87,333.77 551.68,334.17 552.39,335.19C547.67,347.63 549.79,343.44 550.97,344.22C550.97,345.34 551.07,346.66 551.17,347.87C551.07,343 552.79,338.53 553.81,334.07C560.34,331.62 557.66,335.69 558.48,336.51C560.21,336.1 558.68,333.97 560.51,333.36C561.73,333.06 562.03,334.98 563.25,334.98C564.77,334.98 565.69,333.05 567.31,333.46C568.43,334.27 568.43,335.59 569.04,336.51C570.87,336.31 571.27,334.18 572.69,333.67C574.01,333.77 573.2,335.29 574.11,335.7C575.69,331.75 575.56,341.1 577.05,344.94C577.46,340.27 577.35,336.41 575.32,332.66C577.36,330.11 577.65,333.57 578.87,333.57C578.97,332.66 578.77,331.84 579.68,331.13C581,330.32 582.32,330.93 583.44,332.15C585.34,327.62 587.01,334.02 587.91,330.42C591.26,328.3 591.23,334.25 592.88,330.12C594.4,331.34 595.62,329.1 596.94,330.32C597.65,328.39 596.74,327.07 596.23,326.06C596.23,324.84 597.45,324.23 596.33,323.22C581.76,323.59 585.71,327.47 573.39,326.27C568.93,325.83 564.46,326.91 559.99,326.88C508.3,326.51 516.35,326.87 517.66,321.2C517.76,317.75 516.55,314.4 516.85,310.95C517.26,306.28 516.82,301.72 516.34,297.15C515.79,291.94 517.31,288.18 516.54,282.33C515.9,277.46 515.52,272.48 515.63,267.41C532.71,273.98 517.33,267.03 514.92,264.97C515.12,259.49 512.79,254.21 512.89,248.53C512.59,247.11 511.57,245.89 511.47,244.37C520.82,241.25 538.5,211.5 536.34,195.85C535.74,191.48 536.85,187.32 536.54,182.96C541.55,200.09 536.75,201.53 544.15,213.01C546.9,217.27 550.65,220.52 556.23,220.52C557.25,220.52 557.65,221.33 558.56,221.54C559.07,219.83 560.37,221.47 566.17,220.22C574.54,218.41 573.72,211.42 575.2,200.02C576.47,190.29 571.33,181.52 574.08,180.84C577.07,186.52 574.97,187.27 575.91,189.16C580.24,197.9 581.44,217.57 596.11,229.66C612.41,243.1 604.98,232.45 605.45,248.24C604.84,248.85 604.23,249.15 604.13,249.66C599.46,274.2 606.06,267.23 599.66,275.54C601.08,275.74 601.49,274.32 602.5,274.22C603.23,276.66 600.75,279.75 601.28,294.62C602.29,322.92 596.03,319.08 600.98,329.13C607.05,341.46 620.43,405.28 620.67,408.31C623.44,442.55 631.09,435.88 625.85,442.31C607.48,443.93 589.31,448.1 570.83,449.72C570.12,446.37 570.22,443.43 570.02,440.58C569.51,439.36 568.4,438.55 567.99,437.23C560.28,412.49 560.42,419.43 556.32,409.62C550.03,415.1 542.21,417.03 535.92,421.7C541.5,419.57 546.68,416.52 552.77,413.99C549.42,424.85 547.19,435.41 542.21,445.05C540.62,448.76 545.15,450.76 552.56,423.33C558.35,401.9 557.12,419.32 564.13,434.5C569.12,445.3 565.84,451.51 568.7,453.08C576.62,450.54 585.04,451.56 593.06,450.14C596,459.07 599.86,464.76 606.36,467.6C603.82,464.35 602.6,460.4 599.97,457.35C598.04,455.12 597.84,452.58 597.13,449.84C601.29,448.72 605.35,447.61 609.41,446.59C610.43,446.89 610.22,448.42 611.34,448.32C613.37,447.91 615.2,446.39 617.53,446.8C615.4,448.02 614.69,450.25 613.37,452.08C611.54,452.18 609.82,452.79 607.79,453.91C610.47,455.11 612.77,454.26 615.06,454.42C614.75,453.67 615.12,453.18 615.51,452.59C621.12,445.42 619.7,444.54 626.78,445.28C628.27,453.14 628.63,452.67 632.79,460.94C629.6,458.08 632.56,467.4 631.65,471.77C631.54,472.28 631.85,472.99 632.67,473.19C632.81,472.54 633.68,467.42 632.94,461.66C657.09,482.15 649.67,542.47 656.42,549.22C653.88,550.03 652.06,551.66 649.92,551.96C648.9,551.35 649.51,550.13 648.6,549.83C647.58,550.44 648.8,551.86 647.28,552.37C646.47,552.37 645.45,551.46 644.13,552.47C644.2,550.67 641.08,534.88 633.57,525.06C604.64,487.23 616.24,474.39 606.57,469.84C611.82,478.19 607.15,497.16 623.83,514.5C627.61,518.43 623.17,515.15 628.7,522.52C645.89,545.4 638.08,546.36 643.82,556.02C639.13,559.02 642.68,562.28 640.47,565.97C638.02,569.48 639.63,571.55 636.92,576.53C639.18,581.58 644.24,582.47 651.13,584.85C650.93,586.07 650.83,587.08 650.72,588.3C651.94,589.52 651.93,591.55 653.46,592.66C666.86,602.4 660.63,598.34 677.52,598.34C678.84,598.34 680.46,598.14 681.38,596.51C677.66,596.25 674.31,595.95 670.96,596.05ZM577.06,146.27C577.58,147.93 577.56,149.15 577.26,150.74C576.05,149.32 575.34,148.1 577.06,146.27ZM575.75,143.12C576.16,143.63 576.45,144.13 576.05,144.65C575.13,145.88 574.18,144.69 575.75,143.12ZM576.35,151.75C576.45,153.37 575.33,154.49 575.13,155.91C571.82,153.7 575.77,152.54 576.35,151.75ZM532.5,143.73C531.18,143.32 530.88,142.71 530.77,141.6C532.2,141.8 532.4,142.52 532.5,143.73ZM532.5,154.59C531.66,150.54 527.07,148.59 530.27,146.98C530.57,149.05 533.34,150.74 532.5,154.59ZM455.76,554.54C460.72,556.77 463.64,553.87 462.15,558.9C459.94,558.1 457.65,556.95 455.24,557.28C454.65,556.18 455.23,555.58 455.76,554.54ZM589.75,326.34C591.47,325.73 593.26,325.63 594.72,325.93C595.51,326.93 594.86,327.28 594.42,328.16C592.6,326.92 590.98,328.15 589.01,328.26C587.57,328.36 590.24,327.5 589.75,326.34ZM569.76,334.56C569.48,334.2 569.32,333.91 569.3,333.66C569.12,332.56 571.75,332.57 569.76,334.56ZM574.1,328.96C578.61,328.42 582.73,326.96 587.11,326.85C587.32,328.35 587.05,328 575.13,330.5C574.04,330.66 575.57,331.77 572.89,331.78C569.99,331.79 567.12,331.2 564.27,331.62C563.11,331.79 562.28,331.4 561.94,330.3C565.9,329.07 570.12,329.44 574.1,328.96ZM560.42,330.51C558.59,332.24 556.77,331.42 554.94,331.12C557.27,330.1 557.27,330.1 560.42,330.51ZM546.71,331.72C546,332.63 545.49,332.33 544.78,332.13C545.19,330.91 545.8,331.12 546.71,331.72ZM531.18,329.59C531.61,333.25 528.47,334.63 528.45,330.1C528.45,329.04 531.08,329.58 531.18,329.59ZM521.56,329.29C528.58,328.01 526.12,331.43 527.53,332.84C525.2,334.26 525.7,331.32 524.48,331.01C523.26,330.91 523.77,332.23 523.06,332.84C523.01,332.74 521.12,329.29 521.56,329.29ZM514.87,331.19C515.67,330.29 516.58,329.28 517.48,328.28C520.33,328.37 519.98,330.79 521.09,332.69C521.51,333.41 521.5,332.88 519.98,332.98C518.34,333.1 520.14,330.08 518.08,329.4C516.56,330.01 517.57,331.53 516.96,332.65C514.95,332.84 514.77,331.29 514.87,331.19ZM554.43,120.49C554.84,121.41 555.75,121.9 554.73,122.52C553.82,122.21 554.02,121.5 554.43,120.49ZM535.14,156.93C533.17,154.99 535.29,140.28 535.33,140.18C535.95,138.68 536.99,138.41 537.47,133.28C538.16,125.83 541.93,129.62 538.38,124.84C537.57,124.54 536.35,124.84 535.84,123.62C537.2,122.84 537.81,123.67 538.32,124.72C538.51,125.12 539.04,124.39 540.31,125.66C540.41,125.66 541.03,126.34 541.63,126.78C543.1,125.94 540.29,124.7 546.4,124.62C550.58,124.56 550.72,126.64 552.77,126.62C555,126.6 555.62,123.18 563.04,125.16C563.66,128.25 564.03,125.77 564.56,125.77C565.38,125.58 575.26,143.04 571.77,153.99C570.61,157.63 569.23,161.1 569.03,164.95C568.59,168.47 561.74,176.79 556.74,176.93C553.81,177.01 552.85,175.38 548.03,176.83C537.44,171.93 541.93,163.6 535.14,156.93ZM571.58,212.05C570.33,219.38 560.46,218.91 553.11,217.73C544.08,216.29 540.33,196.84 540.73,190.42C541.24,182.1 535.83,180.43 537.87,168.9C537.94,168.69 537.68,168.62 539.02,170.67C543.85,178.06 543.13,175.64 548.65,178.75C550.43,178.95 552.11,177.94 553.73,178.34C553.94,178.76 554.31,179.46 554.54,179.76C555.76,178.14 557.59,178.85 559.01,178.85C571.21,170.88 571.9,160.78 571.9,171.14C571.9,179.61 573.35,179.78 570.17,185.86C569.33,187.47 568.68,189.23 568.34,191.24C569.05,190.18 571.19,186.84 571.39,186.57C571.9,191.1 574.99,192.13 571.58,212.05ZM646.6,554.84C651.99,555.08 654.14,552.37 653.82,556.36C647,556.66 647.26,559.59 646.29,557.31C645.89,556.4 646.21,555.68 646.6,554.84Z" style="fill-rule:nonzero;"/>
        <path d="M676.54,594.22L676.64,594.12C676.41,594.12 676.49,594.12 676.54,594.22Z" style="fill-rule:nonzero;"/>
        <path d="M592.29,222L592.19,221.9C592.19,221.95 592.24,221.97 592.29,222Z" style="fill-rule:nonzero;"/>
        <path d="M594.73,21.42L595.14,21.32C594.74,21.32 594.73,21.18 594.73,21.42Z" style="fill-rule:nonzero;"/>
        <path d="M590.67,38.17C590.91,38.3 590.77,38.27 590.87,38.27C590.87,38.14 590.95,38.13 590.67,38.17Z" style="fill-rule:nonzero;"/>
        <path d="M594.84,20.7C594.94,20.63 594.9,20.53 594.84,20.7Z" style="fill-rule:nonzero;"/>
        <path d="M583.66,33.7C579.8,33.9 579.5,34 577.27,36.03C583.77,42.53 591.38,47.3 599.7,50.75C602.73,76.48 605.09,64.09 603.46,85.26C602.78,94.08 600.64,106.02 605.59,113.99C605.08,114.6 604.37,113.69 603.97,114.5C603.77,115.31 603.26,116.23 604.48,117.24C605.64,114.06 608.63,118.01 606.81,110.74C604.77,102.58 606,102.93 606,76.43C606,65.16 603.06,60.72 603.06,51.36C603.67,50.34 605.09,50.45 605.7,49.03C600.05,50.86 588.78,44.15 585.7,40.91C583.97,39.09 582.15,37.26 579.51,36.55C583.99,32.91 586.82,40.43 591.49,39.49C591.21,39.02 591.02,38.65 590.83,38.27C586.64,38.27 591.18,35.66 587.63,36.54C584.51,29.26 580.55,30.42 572.51,18.98C571.51,17.55 570.28,16.14 569.67,14.31C573.41,13.33 581.11,25.17 584.39,25.17C582.46,22.33 579.26,20.52 578.2,16.95C577.24,13.72 574.24,11.16 574.95,7C579.51,10.48 578.96,15.65 589.47,25.07C591.46,24.92 595.18,23.4 592.21,23.45C585.89,23.54 585.75,17.9 581.86,10.66C579.71,6.67 581.63,6.03 584.3,10.46C586.15,13.53 591.16,20.99 594.77,21.28C594.79,20.97 594.83,20.79 594.87,20.7C594.61,20.86 593.4,20.78 589.18,15.63C585.3,10.9 584.73,5.9 579.94,5.48C577.47,8.52 582.42,11.13 582.78,15.43C581.04,14.48 577.93,4.11 573.14,5.79C573.14,12.76 576.29,13.49 576.59,16.85C573.85,15.33 572.43,10.66 568.37,13.8C568.69,20.98 582.3,30.08 583.66,33.7Z" style="fill-rule:nonzero;"/>
        <path d="M425.21,589.15C428.21,577.99 430.27,580.6 434.85,573.82C438.78,568.02 437.04,575.8 446.22,573.01C443.58,570.88 440.33,571.08 437.2,571.28C437.74,570.74 437.69,570.06 438.41,569.86C446.94,570.57 446.94,570.57 448.56,569.15C445.51,567.93 442.27,568.74 439.32,568.03C439.84,564.65 449.38,569.63 450.79,566.81C447.44,564.68 443.79,565.49 440.13,565.39C441.01,563.52 441.62,563.71 450.79,564.48C456.39,564.48 448.72,561.19 441.15,562.86C442.48,561.31 440.26,560.47 454.14,562.56C452.82,560.43 449.06,558.67 446.73,559.21C445.1,559.59 443.58,560.02 442.26,558.91C437.07,563.84 435.07,573 428.25,578.5C421.33,584.08 422.81,596.19 426.83,593.93C426.02,592.39 424.69,591.07 425.21,589.15Z" style="fill-rule:nonzero;"/>
        <path d="M679.69,576.96C672.77,570.83 671.16,561.82 666.49,557.98C664.66,558.79 664.67,558.78 662.13,558.28C659.83,557.83 654.39,559.92 654.82,561.63C666.33,560.1 666.76,559.7 667.2,562.24C665.17,561.43 663.23,561.3 661.41,561.83C659.78,562.31 657.55,561.32 655.83,563.76C666.57,563.35 667.23,562.39 668.72,564.67C660.09,564.57 659.69,564.67 658.26,566.7C660.94,568.26 670.07,563.95 669.43,567.51C666.49,568.12 663.24,567.21 659.79,569.03C663.95,570.96 667.4,569.03 670.75,569.23C673.19,573.3 688.6,586.2 681.81,592.98C685.34,595.82 688.32,584.61 679.69,576.96Z" style="fill-rule:nonzero;"/>
        <path d="M604.07,119.68C604.26,119.07 604.17,118.56 603.05,118.16C596.86,130.75 593.2,143.94 594.52,158.15C596.85,154.82 594.53,152.32 596.85,144.65C599.15,137.06 599.75,128.95 603.45,121.71C603.77,121.1 603.85,120.38 604.07,119.68Z" style="fill-rule:nonzero;"/>
        <path d="M511.59,177.54C511.59,203.67 510.35,204.14 513.42,212.66C513.22,210.43 514.14,208.4 514.03,206.16C513.74,200.07 512.75,194.08 513.42,187.89C513.63,185.95 514.04,177.74 511.59,177.54Z" style="fill-rule:nonzero;"/>
        <path d="M531.49,19.79C538.51,12.45 537.66,9.89 541.23,9.13C541.01,14.23 531.71,20.64 530.88,28.11C532.81,26.18 533.19,23.83 534.64,22.02C537.33,18.66 545.05,9.21 540.93,7.71C534.93,10.44 525.71,25.82 531.49,19.79Z" style="fill-rule:nonzero;"/>
        <path d="M527.43,36.34C528.85,36.85 530.37,36.14 531.59,36.85C538.8,31.06 539.71,30.66 543.47,32.18C540.73,33.09 538.19,33.8 536.67,35.63C527.93,44.66 524.59,43.98 526.21,45.78C539.44,35.76 537.87,34.99 543.36,34.01C544.17,33.81 545.09,33.91 545.39,32.89C540.59,24.04 535.21,35.37 527.43,36.34Z" style="fill-rule:nonzero;"/>
        <path d="M595.13,21.42C596.12,23.07 596.09,22.66 597.77,21.32C596.75,16.96 594.83,13 593.2,8.53C595.33,8.94 595.74,10.46 596.25,11.78C596.85,13.35 600.02,21.1 602.44,21.32C601.02,16.85 598.28,13.4 596.65,9.34C596.04,7.82 594.52,6.8 592.89,6.7C590.17,8.69 592.81,9.5 596.54,21.01C595.43,21.39 594.76,21.42 595.13,21.42Z" style="fill-rule:nonzero;"/>
        <path d="M571.79,408.46C576.61,408.68 589.96,407.31 590.16,405.72C582.85,405.11 575.54,407.04 567.83,405.21C568.64,407.75 569.96,408.38 571.79,408.46Z" style="fill-rule:nonzero;"/>
        <path d="M521.64,351.21C524.69,346.95 527.83,343.29 528.24,338.22C526.31,337.61 526.31,337.61 524.69,338.52C524.28,339.33 525.3,339.43 525.3,339.64C524.79,343.8 521.34,346.54 521.64,351.21Z" style="fill-rule:nonzero;"/>
        <path d="M567.93,396.18C575.34,395.47 582.24,392.32 589.35,390.29C582.14,390.59 575.45,393.35 568.54,394.76C568.03,394.86 567.83,395.27 567.93,396.18Z" style="fill-rule:nonzero;"/>
        <path d="M607.31,186.26C609.04,182.81 611.57,179.97 613.5,176.11C608.84,178.75 606.2,183.02 607.31,186.26Z" style="fill-rule:nonzero;"/>
        <path d="M567.93,275.39C574.02,279.55 580.01,283.92 586.71,286.86C580.62,282.8 574.63,278.53 567.93,275.39Z" style="fill-rule:nonzero;"/>
        <path d="M615.13,459.83C617.67,461.05 618.68,463.79 621.12,465.51C621.73,461.55 618.99,460.03 616.76,458.4C616.35,456.98 616.25,455.46 615.14,454.44C613.51,456.17 615.23,457.9 615.13,459.83Z" style="fill-rule:nonzero;"/>
        <path d="M493.63,455.05L493.63,455.25C492.21,456.16 492.51,457.99 491.8,459.21C487.84,462.05 487.13,463.17 488.04,466.11C489.87,463.98 491.49,461.85 493.62,460.12C493.42,458.4 495.05,456.78 493.63,455.05Z" style="fill-rule:nonzero;"/>
        <path d="M493.63,454.95L493.73,455.15C493.84,454.89 493.8,454.93 493.63,454.95Z" style="fill-rule:nonzero;"/>
        <path d="M500.93,454.04C498.8,453.43 497.17,452.62 495.25,452.62C494.34,451.2 493.42,449.88 491.49,449.88C491.49,452.2 494.24,453.34 493.79,454.94C496.08,454.72 498.46,455.92 500.93,454.04Z" style="fill-rule:nonzero;"/>
        <path d="M493.93,170.43C488.35,163.93 488.35,163.93 485.5,164.24C488.96,168.91 491.09,170.43 493.93,170.43Z" style="fill-rule:nonzero;"/>
        <path d="M556.66,288.89C556.86,293.36 558.99,297.82 557.07,302.39C559.91,299.85 559.81,295.38 556.66,288.89Z" style="fill-rule:nonzero;"/>
        <path d="M477.49,461.55C476.68,461.14 476.27,461.35 475.97,461.75C476.19,461.53 475.01,469.77 476.99,473.73C477.18,469.67 477.28,465.51 477.49,461.55Z" style="fill-rule:nonzero;"/>
        <path d="M544.38,393.95C544.48,393.34 544.58,393.04 544.68,392.73C539.71,391.31 534.83,392.32 529.86,393.24C534.74,393.85 539.61,392.43 544.38,393.95Z" style="fill-rule:nonzero;"/>
        <path d="M613.3,142.52C614.01,138.66 614.52,134.6 614.21,130.24C612.49,132.47 611.98,139.17 613.3,142.52Z" style="fill-rule:nonzero;"/>
        <path d="M558.18,400.75C557.27,393.64 557.47,386.54 557.27,379.43C556.56,386.54 556.36,393.64 558.18,400.75Z" style="fill-rule:nonzero;"/>
        <path d="M610.26,151.55C612.9,149.62 613.81,146.37 612.29,144.04C610.16,146.47 609.65,148.3 610.26,151.55Z" style="fill-rule:nonzero;"/>
        <path d="M671.47,570.57C666.09,570.06 663.55,570.67 662.33,573.01C668.05,573.01 672.97,571.32 671.47,570.57Z" style="fill-rule:nonzero;"/>
        <path d="M495.86,133.99C494.84,137.34 495.96,141.1 498.7,143.94C498.8,142.21 497.75,140.7 497.38,138.97C497.04,137.35 498.09,135.21 495.86,133.99Z" style="fill-rule:nonzero;"/>
        <path d="M559.91,310.31C559.2,312.34 559.77,313.97 559.91,315.49C560.07,317.22 558.89,318.84 559.71,320.67C561.94,317.51 562.04,315.28 559.91,310.31Z" style="fill-rule:nonzero;"/>
        <path d="M553.52,407.45C548.75,408.47 544.59,409.07 540.02,410.9C546.41,410.7 551.38,409.48 553.52,407.45Z" style="fill-rule:nonzero;"/>
        <path d="M501.65,152.36L501.75,152.26C501.62,152.23 501.65,152.21 501.65,152.36Z" style="fill-rule:nonzero;"/>
        <path d="M501.65,152.24C501.65,148.62 501.79,142.76 498.6,144.04C500.52,151.73 500.12,151.91 501.65,152.24Z" style="fill-rule:nonzero;"/>
        <path d="M569.96,372.33C581.64,371.46 569.27,373.05 584.48,370.4C582.49,370.45 571.1,370.68 569.96,372.33Z" style="fill-rule:nonzero;"/>
        <path d="M558.29,273.15C559,277.72 557.38,281.07 555.75,285.23C559.81,280.67 560.52,277.42 558.29,273.15Z" style="fill-rule:nonzero;"/>
        <path d="M444.5,574.53C430.48,573.45 435.75,576.05 443.79,576.05C444.29,576.05 444.8,575.54 444.5,574.53Z" style="fill-rule:nonzero;"/>
        <path d="M664.16,574.43C667.1,575.95 669.84,575.24 672.69,574.02C669.84,573.31 667,573.51 664.16,574.43Z" style="fill-rule:nonzero;"/>
        <path d="M615.74,392.83L615.84,392.73C615.59,392.31 615.66,392.34 615.74,392.83Z" style="fill-rule:nonzero;"/>
        <path d="M513.93,175.71C514.84,174.09 514.33,172.46 514.44,170.84C515.05,161.81 510.96,170.56 513.93,175.71Z" style="fill-rule:nonzero;"/>
        <path d="M628.33,456.68C624.98,456.42 620.25,457.94 622.24,459.93C627.11,458.2 627.11,458.2 628.33,456.68Z" style="fill-rule:nonzero;"/>
        <path d="M480.53,457.29C480.08,458.2 479.41,457.69 486.42,460.84C488.42,458.18 482.56,456.84 480.53,457.29Z" style="fill-rule:nonzero;"/>
        <path d="M580.01,417.4C577.68,414.35 574.12,413.54 570.77,412.22C573.11,415.26 577.06,415.37 580.01,417.4Z" style="fill-rule:nonzero;"/>
        <path d="M550.47,275.59C551.67,273.95 553.52,272.85 554.33,270.82C550.04,273.6 543.95,282.58 543.9,283.52C543.89,283.52 543.89,283.51 543.88,283.51C542.86,284.32 542.56,285.54 542.26,286.76C543.27,285.95 544.49,283.91 544.03,283.58C544.48,283.35 546.36,281.17 550.47,275.59Z" style="fill-rule:nonzero;"/>
        <path d="M494.74,153.58C496.77,156.93 498.5,159.67 500.53,163.12C499.72,158.86 497.59,155.2 494.74,153.58Z" style="fill-rule:nonzero;"/>
        <path d="M488.04,121.61C488.94,124.22 492.03,128.53 493.83,126.48C493.02,124.04 490.58,123.33 488.04,121.61Z" style="fill-rule:nonzero;"/>
        <path d="M486.62,485.1C484.39,487.23 483.47,490.07 482.56,492.81C484.69,490.68 486.01,488.04 486.62,485.1Z" style="fill-rule:nonzero;"/>
        <path d="M626.3,492.1C625.18,489.36 624.37,486.52 622.14,484.39C622.74,487.44 624.06,489.97 626.3,492.1Z" style="fill-rule:nonzero;"/>
        <path d="M516.57,223.11C515.55,220.98 516.16,218.75 514.24,216.72C513.52,220.68 513.83,221.49 516.57,223.11Z" style="fill-rule:nonzero;"/>
        <path d="M538.59,338.02C539.81,341.78 538.59,345.43 539.61,349.08C539.07,342.13 542.71,339.09 538.59,338.02Z" style="fill-rule:nonzero;"/>
        <path d="M628.43,499.92C630.46,502.97 631.27,505.81 632.29,508.65C632.69,505.1 631.47,502.46 628.43,499.92Z" style="fill-rule:nonzero;"/>
        <path d="M479.72,501.04C477.69,503.37 475.86,505.91 476.37,509.36C477.59,506.72 478.2,503.68 479.72,501.04Z" style="fill-rule:nonzero;"/>
        <path d="M544.79,392.73C546.66,393.73 547.67,393.04 554.94,393.95C552.91,392.83 547.42,392.32 544.79,392.73Z" style="fill-rule:nonzero;"/>
        <path d="M600.72,259.45C598.79,261.58 596.76,263.71 594.83,265.84C599.9,263.11 601.22,261.38 600.72,259.45Z" style="fill-rule:nonzero;"/>
        <path d="M608.74,194.59C606.71,193.37 604.78,193.27 602.75,195.3C605.18,196.31 606.91,194.69 608.74,194.59Z" style="fill-rule:nonzero;"/>
        <path d="M519.82,220.88C518.09,218.65 516.77,216.11 515.35,213.67C515.35,217.02 516.97,219.36 519.82,220.88Z" style="fill-rule:nonzero;"/>
        <path d="M609.55,435.16C611.88,432.83 611.99,429.88 612.19,426.84C610.69,433.07 607.68,434.33 609.55,435.16Z" style="fill-rule:nonzero;"/>
        <path d="M550.17,334.36C548.04,335.98 548.14,338.72 548.14,341.36C551.26,333.73 551.34,334.75 550.17,334.36Z" style="fill-rule:nonzero;"/>
        <path d="M601.93,196.42C600.91,198.96 600.41,201.5 600.41,204.13C601.33,201.59 602.44,199.16 601.93,196.42Z" style="fill-rule:nonzero;"/>
        <path d="M500.12,118.66C501.95,117.54 503.67,116.33 504.48,114.09C500.44,117.06 498.47,117.92 500.12,118.66Z" style="fill-rule:nonzero;"/>
        <path d="M517.78,335.89C517.48,338.43 515.14,339.75 514.43,342.18C518.6,338.53 518.8,338.02 517.78,335.89Z" style="fill-rule:nonzero;"/>
        <path d="M487.64,147.08C488.45,149.62 489.37,150.53 492.61,152.16C492.81,151.96 493.02,151.75 493.22,151.55C487.53,146.22 488.33,147.08 487.64,147.08Z" style="fill-rule:nonzero;"/>
        <path d="M440.84,577.17C439.11,577.27 437.49,577.07 435.46,576.66C438.1,579.1 438.51,579.1 440.84,577.17Z" style="fill-rule:nonzero;"/>
        <path d="M583.36,334.36C582.14,336.39 582.14,338.22 582.45,340.04C583.05,338.32 584.17,336.8 583.36,334.36Z" style="fill-rule:nonzero;"/>
        <path d="M673.6,575.75C671.37,576.66 669.64,576.26 667.31,576.46C670.35,578.39 670.76,578.39 673.6,575.75Z" style="fill-rule:nonzero;"/>
        <path d="M623.96,469.77C622.54,469.06 621.83,467.33 619.8,466.62C620.51,469.06 621.73,470.08 623.96,469.77Z" style="fill-rule:nonzero;"/>
        <path d="M488.25,467.34C487.54,468.96 485.51,469.17 484.6,470.69C487.84,470.28 487.94,470.28 488.25,467.34Z" style="fill-rule:nonzero;"/>
        <path d="M608.84,117.85C609.35,119.47 610.26,120.69 612.39,121.3C611.37,119.58 610.46,118.36 608.84,117.85Z" style="fill-rule:nonzero;"/>
        <path d="M498.19,405.22C496.26,405.22 495.04,404 493.62,402.99C495.05,405.82 495.05,405.82 498.19,405.22Z" style="fill-rule:nonzero;"/>
        <path d="M595.23,332.23C595.23,334.46 595.94,336.09 597.26,338.32C596.96,335.78 597.16,333.86 595.23,332.23Z" style="fill-rule:nonzero;"/>
        <path d="M597.98,368.57C602.79,364.45 602.2,364.87 601.63,364.31C598.71,367.02 596.44,368.57 597.98,368.57Z" style="fill-rule:nonzero;"/>
        <path d="M512,341.98C510.68,344.31 510.78,346.04 510.68,347.77C511.39,346.14 512.3,344.62 512,341.98Z" style="fill-rule:nonzero;"/>
        <path d="M614.93,421.66C613.51,423.79 612.19,425.01 612.29,426.94C613.4,425.62 614.83,424.5 614.93,421.66Z" style="fill-rule:nonzero;"/>
        <path d="M603.36,363.39C604.88,362.68 606.41,361.87 607.01,359.74C605.18,360.55 604.57,362.38 603.36,363.39Z" style="fill-rule:nonzero;"/>
        <path d="M611.48,47.4C611.28,49.43 612.29,50.55 613.31,51.66C613.3,50.14 613.2,48.62 611.48,47.4Z" style="fill-rule:nonzero;"/>
        <path d="M613.4,400.24C614.52,401.26 615.73,402.17 617.36,402.27C616.25,401.05 614.93,400.44 613.4,400.24Z" style="fill-rule:nonzero;"/>
        <path d="M613.4,175.2C614.52,174.29 614.92,173.27 615.02,172.05C613.91,172.66 612.69,173.17 613.4,175.2Z" style="fill-rule:nonzero;"/>
        <path d="M608.33,43.65C607.21,44.56 606.3,45.58 605.89,47.71C607.72,46.49 607.92,44.97 608.33,43.65Z" style="fill-rule:nonzero;"/>
        <path d="M611.88,191.44C611.37,190.53 611.58,189 609.34,188.39C609.95,190.12 610.66,190.93 611.88,191.44Z" style="fill-rule:nonzero;"/>
        <path d="M508.85,192.15C510.47,190.63 510.78,189.1 511.49,187.79C509.46,188.3 509.36,190.02 508.85,192.15Z" style="fill-rule:nonzero;"/>
        <path d="M530.17,29.74C529.97,31.16 529.76,32.48 530.58,34.41C531.08,32.28 530.57,30.96 530.17,29.74Z" style="fill-rule:nonzero;"/>
        <path d="M514.44,154.29C513.42,155.41 513.42,156.52 513.73,157.74C514.44,156.73 515.15,155.81 514.44,154.29Z" style="fill-rule:nonzero;"/>
        <path d="M497.79,174.29C497.28,172.97 496.67,172.06 495.35,171.85C495.76,172.97 496.16,174.08 497.79,174.29Z" style="fill-rule:nonzero;"/>
        <path d="M569.45,384.61C570.67,384.51 571.89,384.1 572.6,382.99C571.48,383.29 570.26,383.49 569.45,384.61Z" style="fill-rule:nonzero;"/>
        <path d="M619.6,164.95C618.38,166.57 618.38,166.57 618.69,168.2C619.49,167.28 619.7,166.17 619.6,164.95Z" style="fill-rule:nonzero;"/>
        <path d="M605.79,163.63C604.57,165.15 605.49,166.07 606.3,167.69C606.4,165.86 607.01,164.75 605.79,163.63Z" style="fill-rule:nonzero;"/>
        <path d="M512.91,42.23C513.72,41.21 514.33,40.2 514.13,38.37C513.01,39.69 512.71,40.81 512.91,42.23Z" style="fill-rule:nonzero;"/>
        <path d="M596.05,369.38C595.14,370.19 594.22,370.9 593.31,371.71C594.73,371.51 595.64,370.8 596.05,369.38Z" style="fill-rule:nonzero;"/>
        <path d="M596.45,38.17C597.77,37.97 598.58,37.87 599.9,36.85C598.38,37.05 597.26,36.44 596.45,38.17Z" style="fill-rule:nonzero;"/>
        <path d="M615.74,392.83C615.84,393.95 615.94,395.16 616.04,396.38C616.65,395.06 616.86,393.85 615.74,392.83Z" style="fill-rule:nonzero;"/>
        <path d="M590.88,38.15C591.93,38.05 592.95,37.91 593.71,36.95C592.18,36.34 591,36.48 590.88,38.15Z" style="fill-rule:nonzero;"/>
        <path d="M556.97,354.66C557.12,356.15 557.18,357.56 557.19,358.14C557.18,357.68 557.17,356.61 557.17,354.66L556.97,354.66Z" style="fill-rule:nonzero;"/>
        <path d="M557.19,358.14C557.2,358.54 557.2,358.49 557.19,358.14Z" style="fill-rule:nonzero;"/>
        <path d="M501.54,152.36C501.34,153.68 501.84,154.9 502.66,156.22C503.17,154.59 502.56,153.38 501.54,152.36Z" style="fill-rule:nonzero;"/>
        <path d="M486.72,117.54C487.33,118.76 488.04,118.76 489.36,117.95C488.45,117.44 488.04,116.73 486.72,117.54Z" style="fill-rule:nonzero;"/>
        <path d="M565.19,266.35C568.96,272.54 575.62,277.98 578.18,278.53C576.35,275.79 577.84,279.39 565.19,266.35Z" style="fill-rule:nonzero;"/>
        <path d="M609.14,156.42C610.95,153.84 608.9,153.83 608.63,155.4C608.63,155.81 608.53,156.32 609.14,156.42Z" style="fill-rule:nonzero;"/>
        <path d="M520.22,230.32C519.61,228.8 519.1,228.09 517.78,227.99C518.09,229.3 518.8,229.81 520.22,230.32Z" style="fill-rule:nonzero;"/>
        <path d="M513.52,164.03C514.54,163.22 514.43,162.51 513.52,161.7C512.71,162.61 512.81,163.22 513.52,164.03Z" style="fill-rule:nonzero;"/>
        <path d="M622.54,124.55C621.83,125.67 622.54,125.97 623.25,126.48C623.55,125.56 623.66,124.95 622.54,124.55Z" style="fill-rule:nonzero;"/>
        <path d="M677.35,594.22C678.47,595.03 679.79,594.42 681,594.22L677.35,594.22Z" style="fill-rule:nonzero;"/>
        <path d="M500.83,381.67C499.21,381.47 498.19,381.26 497.58,382.48C498.7,382.88 499.41,382.07 500.83,381.67Z" style="fill-rule:nonzero;"/>
        <path d="M619.19,481.95C618.89,480.83 618.48,480.43 617.36,480.12C617.77,481.14 618.28,481.55 619.19,481.95Z" style="fill-rule:nonzero;"/>
        <path d="M489.87,482.56C490.48,482.26 490.99,481.85 490.99,481.04C490.68,481.55 489.36,481.45 489.87,482.56Z" style="fill-rule:nonzero;"/>
        <path d="M537.07,360.45C537.68,360.86 538.39,360.75 539.1,360.65C538.39,360.35 537.78,360.25 537.07,360.45Z" style="fill-rule:nonzero;"/>
        <path d="M556.46,350.91C556.5,350.61 556.68,348.88 556.46,348.88L556.46,350.91Z" style="fill-rule:nonzero;"/>
        <path d="M514.54,45.68C514.34,45.27 514.03,44.97 513.22,44.97C513.52,45.78 513.93,46.08 514.54,45.68Z" style="fill-rule:nonzero;"/>
        <path d="M506.21,113.28C506.92,113.08 507.23,112.77 506.51,112.16C505.81,112.37 505.81,112.77 506.21,113.28Z" style="fill-rule:nonzero;"/>
        <path d="M593.92,39.38C593.92,40.64 595.53,39.77 594.94,39.18C594.63,38.88 594.22,38.98 593.92,39.38Z" style="fill-rule:nonzero;"/>
        <path d="M502.76,162.11C502.76,161.6 503.67,160.99 502.76,160.59C502.25,161.09 502.15,161.6 502.76,162.11Z" style="fill-rule:nonzero;"/>
        <path d="M545.5,383.8C544.28,383.7 543.57,383.7 542.76,383.6C543.36,384.51 544.18,384.2 545.5,383.8Z" style="fill-rule:nonzero;"/>
        <path d="M540.52,383.29C541.23,383.59 542.04,383.59 542.75,383.49C542.05,382.88 541.33,382.88 540.52,383.29Z" style="fill-rule:nonzero;"/>
        <path d="M499.92,376.79C500.53,376.99 500.73,376.49 501.04,376.18C500.53,376.18 500.12,376.39 499.92,376.79Z" style="fill-rule:nonzero;"/>
        <path d="M610.66,378.01L610.73,377.94C610.36,378.42 612.29,386.87 615.67,392.43C615.08,388.64 613.17,385.39 612.29,381.76C611.39,378.84 610.89,377.78 610.74,377.93L610.77,377.9C610.68,377.85 610.66,377.72 610.66,378.01Z" style="fill-rule:nonzero;"/>
        <path d="M609.95,375.17C610.24,376.04 609.89,377.1 610.67,377.82C610.7,376.85 610.91,375.84 609.95,375.17Z" style="fill-rule:nonzero;"/>
        <path d="M590.67,374.46C591.28,374.05 591.69,373.75 592.09,373.44C591.38,373.34 590.77,373.44 590.67,374.46Z" style="fill-rule:nonzero;"/>
        <path d="M610.05,375.07C609.95,374.46 610.05,373.75 609.64,372.94C609.34,373.75 609.45,374.46 610.05,375.07Z" style="fill-rule:nonzero;"/>
        <path d="M548.03,423.79C547.87,423.95 547.71,424.11 547.62,424.2C547.53,424.5 548.14,424.5 548.03,423.79Z" style="fill-rule:nonzero;"/>
        <path d="M511.19,29.54C511.7,29.54 512,29.24 512.31,28.83C511.59,28.62 511.19,28.83 511.19,29.54Z" style="fill-rule:nonzero;"/>
        <path d="M517.99,277.72C518.29,278.13 518.6,278.43 519.51,278.33C519.15,276.9 517.61,276.96 517.99,277.72Z" style="fill-rule:nonzero;"/>
        <path d="M593.1,222C593.4,221.39 594.12,221.09 594.12,219.97C593.31,220.68 593.2,221.28 593.1,222Z" style="fill-rule:nonzero;"/>
        <path d="M634.42,478.3C633.81,479.21 634.01,479.62 634.52,480.33C634.92,479.52 635.13,478.91 634.42,478.3Z" style="fill-rule:nonzero;"/>
        <path d="M474.24,480.94C474.95,480.33 474.95,479.72 474.34,479.11C473.63,479.82 473.83,480.33 474.24,480.94Z" style="fill-rule:nonzero;"/>
        <path d="M613.4,55.32C612.69,56.13 612.99,56.44 613.91,56.54C614.32,55.83 614.11,55.42 613.4,55.32Z" style="fill-rule:nonzero;"/>
        <path d="M294.67,384.71C296.01,367.87 293.92,375.46 293.45,381.66C292.46,394.91 295.58,392.18 295.58,396.38C295.58,404.81 295.38,413.13 292.53,421.15C293.65,419.73 294.49,418.32 294.86,416.48C300.29,389.76 293.76,396.18 294.67,384.71Z" style="fill-rule:nonzero;"/>
        <path d="M247.68,369.28C254.28,368.77 265.24,350.4 266.26,341.26C259.23,354.23 256.19,362.36 247.68,369.28Z" style="fill-rule:nonzero;"/>
        <path d="M324.92,425.62C325.5,424.34 325.53,416.33 327.05,411.71C328.57,407.07 332.13,397.33 332.13,392.73C331.66,393.67 321.13,421.36 324.92,425.62Z" style="fill-rule:nonzero;"/>
        <path d="M259.25,322.99C256.92,326.04 255.39,329.18 253.16,331.92C250.61,335.07 245.86,338.94 247.27,340.35C250.54,337.36 262.02,326.46 259.25,322.99Z" style="fill-rule:nonzero;"/>
        <path d="M303.1,408.56C305.03,401.15 310.21,397.5 317.41,395.97C308.17,395.37 300.86,401.97 303.1,408.56Z" style="fill-rule:nonzero;"/>
        <path d="M322.08,353.95C321.88,351.78 312.13,327.8 311.73,327.25C313.55,336.8 318.02,345.33 322.08,353.95Z" style="fill-rule:nonzero;"/>
        <path d="M277.82,328.37C275.69,333.95 273.15,339.43 271.83,345.22C276.05,334.42 282.5,323.96 278.33,324.31C276.71,325.53 277.42,327.05 277.82,328.37Z" style="fill-rule:nonzero;"/>
        <path d="M279.45,380.24C272.76,372.68 260.95,374.54 263.21,378.41C266.57,373.66 274.2,377.86 279.45,380.24Z" style="fill-rule:nonzero;"/>
        <path d="M247.78,316.9C248.82,315.12 248.2,310.18 249.51,308.98C248.87,309.62 250.34,307.43 248.29,307.15C246.26,309.79 246.56,313.04 246.36,316.08C246.36,316.7 246.86,317.11 247.78,316.9Z" style="fill-rule:nonzero;"/>
        <path d="M224.73,236.31C228.28,231.23 229.4,228.39 228.49,226.06C226.66,229.2 225.24,232.15 224.73,236.31Z" style="fill-rule:nonzero;"/>
        <path d="M322.18,334.97C324.82,337.1 327.26,339.13 329.59,341.06C328.37,337.61 324.92,334.97 322.18,334.97Z" style="fill-rule:nonzero;"/>
        <path d="M285.13,323.3C288.99,322.69 292.95,324.52 296.7,322.39C292.74,321.47 288.99,322.59 285.13,323.3Z" style="fill-rule:nonzero;"/>
        <path d="M288.18,327.05C287.88,330.91 286.35,334.66 287.27,338.62C287.77,334.77 289.19,331.01 288.18,327.05Z" style="fill-rule:nonzero;"/>
        <path d="M224.63,246.66C226.15,244.02 225.14,241.08 226.05,238.44C224.33,240.98 224.02,243.72 224.63,246.66Z" style="fill-rule:nonzero;"/>
        <path d="M265.95,334.67C267.27,331.73 269.6,329.09 270.01,325.53C268.18,328.37 266.56,331.22 265.95,334.67Z" style="fill-rule:nonzero;"/>
        <path d="M265.64,416.48C268.58,417.6 270.92,417.6 273.15,417.7C271.12,415.77 268.79,416.08 265.64,416.48Z" style="fill-rule:nonzero;"/>
        <path d="M270.01,389.18C269.5,385.32 266.15,386.03 263.72,385.32C265.44,387.15 268.69,386.54 270.01,389.18Z" style="fill-rule:nonzero;"/>
        <path d="M285.23,372.73C285.03,375.06 283.81,377.2 284.01,379.94C286.15,377.61 285.74,375.17 285.23,372.73Z" style="fill-rule:nonzero;"/>
        <path d="M243.92,205.65C242.8,207.27 242.09,209.1 241.79,211.84C243.92,209.51 244.12,208.8 243.92,205.65Z" style="fill-rule:nonzero;"/>
        <path d="M306.96,386.13C307.87,383.59 308.79,381.05 309.7,378.52C308.13,380.43 305.08,386.13 306.96,386.13Z" style="fill-rule:nonzero;"/>
        <path d="M269.7,398.11C271.53,398.11 273.25,399.63 276.09,398.52C273.46,397.81 271.63,397.09 269.7,398.11Z" style="fill-rule:nonzero;"/>
        <path d="M287.67,381.67C284.62,382.08 283.41,382.48 280.97,384.41C283.61,384.3 285.54,383.09 287.67,381.67Z" style="fill-rule:nonzero;"/>
        <path d="M275.39,403.79C277.93,404.2 277.93,404.2 279.45,402.77C277.82,402.68 276.6,402.68 275.39,403.79Z" style="fill-rule:nonzero;"/>
        <path d="M289.68,423.37C289.51,424.59 288.37,425.83 289.5,427.24C290.15,425.84 289.61,424.52 289.68,423.37Z" style="fill-rule:nonzero;"/>
        <path d="M278.33,321.88C276.81,322.39 275.08,321.27 273.56,322.69C279.39,322.33 278.33,323.12 278.33,321.88Z" style="fill-rule:nonzero;"/>
        <path d="M247.27,194.99C246.46,195.9 246.36,196.61 246.86,197.53C247.88,196.92 248.08,196.21 247.27,194.99Z" style="fill-rule:nonzero;"/>
        <path d="M284.32,369.69C285.13,371.21 286.05,370.81 287.06,369.79C286.15,369.38 285.33,369.28 284.32,369.69Z" style="fill-rule:nonzero;"/>
        <path d="M234.38,264.12C234.08,262.7 233.67,261.79 232.25,261.07C232.65,262.6 233.16,263.31 234.38,264.12Z" style="fill-rule:nonzero;"/>
        <path d="M232.35,328.17C231.64,329.69 232.15,330.61 232.86,331.72C233.36,330.4 233.26,329.39 232.35,328.17Z" style="fill-rule:nonzero;"/>
        <path d="M298.53,317.82C297.92,318.73 297.92,318.73 298.73,319.65C298.73,318.93 299.34,318.33 298.53,317.82Z" style="fill-rule:nonzero;"/>
        <path d="M257.42,320.56C257.01,319.75 256.4,319.54 255.09,320.26C256.1,320.76 256.51,321.78 257.42,320.56Z" style="fill-rule:nonzero;"/>
        <path d="M245.95,200.07C245.14,200.98 244.73,201.49 245.44,202.4C246.36,202 246.56,201.39 245.95,200.07Z" style="fill-rule:nonzero;"/>
        <path d="M232.65,326.45C232.91,325.68 233.37,324.8 232.04,324.42C231.94,325.13 231.54,325.84 232.65,326.45Z" style="fill-rule:nonzero;"/>
        <path d="M273.56,322.59C272.34,322.59 271.12,322.59 269.91,323C271.12,322.79 272.44,323.5 273.56,322.59Z" style="fill-rule:nonzero;"/>
        <path d="M236.71,372.12C236.81,373.44 236.91,374.25 237.93,374.45C238.03,373.54 237.63,372.83 236.71,372.12Z" style="fill-rule:nonzero;"/>
        <path d="M287.87,362.18C288.58,362.59 289.19,362.28 289.7,361.88C289.09,361.87 288.38,361.36 287.87,362.18Z" style="fill-rule:nonzero;"/>
        <path d="M279.35,409.88C277.34,409.88 279.37,410.99 280.77,410.29C280.26,409.78 279.85,409.78 279.35,409.88Z" style="fill-rule:nonzero;"/>
        <path d="M328.17,346.24C328.98,346.95 329.59,347.66 330.71,347.15C330.2,346.24 329.59,345.83 328.17,346.24Z" style="fill-rule:nonzero;"/>
        <path d="M231.33,319.24C231.33,319.85 231.03,320.36 232.65,320.86C231.74,320.25 232.55,319.54 231.33,319.24Z" style="fill-rule:nonzero;"/>
        <path d="M281.07,320.36C281.27,319.37 281.61,318.26 280.66,318.13C280.48,318.67 279.58,319.29 281.07,320.36Z" style="fill-rule:nonzero;"/>
        <path d="M225.34,250.32C226.36,249.71 226.05,249.1 225.75,248.19C224.63,248.79 224.53,249.4 225.34,250.32Z" style="fill-rule:nonzero;"/>
        <path d="M233.46,187.79C232.75,188.4 232.14,188.7 232.65,189.62C233.16,189.21 233.87,188.9 233.46,187.79Z" style="fill-rule:nonzero;"/>
        <path d="M288.08,191.24C291.19,194.12 293.62,192.01 297.11,188.6C295.59,189.31 294.06,190.02 292.95,190.43C291.02,190.73 289.29,189.21 288.08,191.24Z" style="fill-rule:nonzero;"/>
        <path d="M309.59,271.17C310.68,268.98 304.64,272.03 304.42,272.03C302.8,272.74 300.87,271.42 299.14,272.23C299.41,275.79 308.95,272.77 309.59,271.17Z" style="fill-rule:nonzero;"/>
        <path d="M259.86,259.25C255.42,258.09 255.44,255.7 253.16,256.11C254.78,258.85 255.39,259.16 262.4,260.98C262.19,259.45 260.98,259.54 259.86,259.25Z" style="fill-rule:nonzero;"/>
        <path d="M288.99,213.77C287.41,213.14 283.33,212.15 278.53,212.15C281.24,213.09 286.48,214.5 288.99,213.77Z" style="fill-rule:nonzero;"/>
        <path d="M291.02,173.58C293.05,171.14 294.57,168.81 295.49,166.17C292.14,169.11 291.02,171.04 291.02,173.58Z" style="fill-rule:nonzero;"/>
        <path d="M333.35,239.35C330.77,241.5 328.36,243.35 327.16,246.56C329.29,244.23 332.43,242.7 333.35,239.35Z" style="fill-rule:nonzero;"/>
        <path d="M279.65,272.95C283.12,274.21 285.5,275.22 288.16,273.28C288.83,272.8 289.8,272.95 279.65,272.95Z" style="fill-rule:nonzero;"/>
        <path d="M293.45,265.95C292.33,269.4 291.62,272.95 292.64,276.41C292.95,272.95 293.15,269.4 293.45,265.95Z" style="fill-rule:nonzero;"/>
        <path d="M257.82,250.01C255.99,248.99 255.08,246.66 251.73,246.66C253.53,248.82 255.11,250.28 257.82,250.01Z" style="fill-rule:nonzero;"/>
        <path d="M298.94,218.75C297.42,218.34 295.89,218.24 293.66,218.95C295.99,219.76 297.41,219.25 298.94,218.75Z" style="fill-rule:nonzero;"/>
        <path d="M285.03,165.56C285.44,167.79 286.25,169.01 288.38,170.03C287.77,167.89 286.86,166.78 285.03,165.56Z" style="fill-rule:nonzero;"/>
        <path d="M265.45,250.72C264.13,249.5 262.51,250.01 261.29,249.3C262.01,251.16 263.5,250.98 265.45,250.72Z" style="fill-rule:nonzero;"/>
        <path d="M292.85,300.76C292.85,309.49 293.15,309.25 293.15,300.66C292.79,300.66 292.85,300.63 292.85,300.76Z" style="fill-rule:nonzero;"/>
        <path d="M279.95,186.26C278.43,185.14 277.62,184.13 275.99,184.23C277.01,185.15 277.92,186.26 279.95,186.26Z" style="fill-rule:nonzero;"/>
        <path d="M291.42,284.93C291.32,287.57 291.32,287.57 292.54,290.01C292.85,288.08 292.03,286.45 291.42,284.93Z" style="fill-rule:nonzero;"/>
        <path d="M302.39,291.83C304.12,292.03 305.33,292.13 307.36,292.44C305.43,291.12 304.32,290.31 302.39,291.83Z" style="fill-rule:nonzero;"/>
        <path d="M263.31,261.79C265.44,263.62 265.44,263.62 267.57,263.21C266.05,263.42 265.45,261.38 263.31,261.79Z" style="fill-rule:nonzero;"/>
        <path d="M323.35,235.4C323.26,235.56 323.17,235.71 323.09,235.9C327.03,237.09 325.54,231.42 323.35,235.4Z" style="fill-rule:nonzero;"/>
        <path d="M255.69,268.79C256.74,270.27 257.77,270.91 259.65,270.52C258.23,269.7 257.42,268.59 255.69,268.79Z" style="fill-rule:nonzero;"/>
        <path d="M323.91,250.42C325.03,249.61 326.04,249 326.55,247.48C324.31,248.59 324.31,248.59 323.91,250.42Z" style="fill-rule:nonzero;"/>
        <path d="M314.47,270.72C313.37,269.91 312.39,270.73 310.82,271.13C312.54,271.94 313.55,271.84 314.47,270.72Z" style="fill-rule:nonzero;"/>
        <path d="M258.94,239.15C259.5,240.37 260.46,240.34 261.88,240.17C260.78,239.27 260.18,238.33 258.94,239.15Z" style="fill-rule:nonzero;"/>
        <path d="M294.06,212.75L294.06,212.77C295.55,212.01 295.51,209.8 294.25,211.58C294.05,211.86 293.96,212.24 294.05,212.65C293.88,212.66 292.99,212.91 292.54,215.18C293.65,214.22 294.06,213.7 294.06,212.75Z" style="fill-rule:nonzero;"/>
        <path d="M326.44,257.73C327.76,256.76 329,256.14 328.57,254.68C327.46,255.19 327.05,256 326.44,257.73Z" style="fill-rule:nonzero;"/>
        <path d="M306.65,182.1C307.28,181.8 308.48,181.91 308.27,180.68C307.56,180.89 306.85,181.19 306.65,182.1Z" style="fill-rule:nonzero;"/>
        <path d="M273.47,178.01C273.22,177.96 272.92,178.09 272.55,178.55C273.7,180.39 275.57,178.47 273.47,178.01Z" style="fill-rule:nonzero;"/>
        <path d="M308.48,169.11C309.5,169.01 309.9,168.5 310.1,167.18C308.68,167.49 308.48,168.1 308.48,169.11Z" style="fill-rule:nonzero;"/>
        <path d="M302.18,184.84C303.09,184.43 303.7,184.03 304.11,182.3C302.9,183.32 301.57,183.31 302.18,184.84Z" style="fill-rule:nonzero;"/>
        <path d="M270.12,175.8C267.98,175.8 269.84,178.79 271.12,175.81C270.73,175.84 270.43,175.8 270.12,175.8Z" style="fill-rule:nonzero;"/>
        <path d="M308.58,174.08C308.78,173.57 310,173.27 308.99,172.35C308.07,172.76 308.07,173.27 308.58,174.08Z" style="fill-rule:nonzero;"/>
        <path d="M296.91,290.82C297.32,291.84 297.82,292.34 298.74,292.24C298.63,291.32 298.12,291.02 296.91,290.82Z" style="fill-rule:nonzero;"/>
        <path d="M277.62,271.12C276.71,271.32 275.89,271.32 275.59,272.44C277.01,272.14 277.01,272.14 277.62,271.12Z" style="fill-rule:nonzero;"/>
        <path d="M269.8,179.57C269.49,179.38 269.19,179.66 269.19,179.98C268.8,181.14 271.39,180.36 269.8,179.57Z" style="fill-rule:nonzero;"/>
        <path d="M348.67,327.56C347.15,330.5 345.52,333.55 345.42,337.1C347.05,334.06 348.27,331.01 348.67,327.56Z" style="fill-rule:nonzero;"/>
        <path d="M331.82,188.09C330.8,190.78 332.65,192.81 333.34,194.99C333.75,189.21 333.75,189.21 331.82,188.09Z" style="fill-rule:nonzero;"/>
        <path d="M340.76,213.98C339.2,216.06 340.15,214.3 338.12,219.56C340.25,220.27 340.59,216.05 340.76,213.98Z" style="fill-rule:nonzero;"/>
        <path d="M342.18,210.22C343.5,209.41 343.91,208.6 343.4,207.38C342.08,207.89 342.08,208.8 342.18,210.22Z" style="fill-rule:nonzero;"/>
        <path d="M352.63,228.9C351.9,229.82 352.93,231.97 353.31,229.68C353.31,229.41 353.4,229.1 352.63,228.9Z" style="fill-rule:nonzero;"/>
        <path d="M350.31,322.75C348.44,326 351.76,325.16 350.5,322.37C350.44,322.52 350.38,322.63 350.31,322.75Z" style="fill-rule:nonzero;"/>
        <path d="M350.2,216.21C348.98,215.09 348.98,215.09 348.07,215.09C348.47,215.7 348.88,216.11 350.2,216.21Z" style="fill-rule:nonzero;"/>
        <path d="M262.09,453.63C263.44,456.03 265.54,455.32 267.85,455.79C273.04,456.86 276.52,452.47 262.09,453.63Z" style="fill-rule:nonzero;"/>
        <path d="M278.63,471.19C276.3,473.22 275.08,476.87 275.69,480.43C277.37,473.74 280.08,473.6 278.63,471.19Z" style="fill-rule:nonzero;"/>
        <path d="M274.56,489.07C274.11,490.93 274.06,492.62 275.07,494.24C274.49,492.68 275.98,490.96 274.56,489.07Z" style="fill-rule:nonzero;"/>
        <path d="M274.67,482.45C273.65,484.18 273.15,485.5 274.87,487.32C274.5,485.59 275.95,484.25 274.67,482.45Z" style="fill-rule:nonzero;"/>
        <path d="M275.39,499.72C275.71,498.6 275.91,497.69 275.4,496.67C274.27,498.2 274.27,498.2 275.39,499.72Z" style="fill-rule:nonzero;"/>
        <path d="M272.14,551.99C272.65,549.35 272.65,549.35 271.43,547.73C271.67,549.1 271.67,548.91 272.14,551.99Z" style="fill-rule:nonzero;"/>
        <path d="M259.04,460.03C260.23,460.35 261.28,461.33 262.29,459.73C261.11,458.72 260.3,459.33 259.04,460.03Z" style="fill-rule:nonzero;"/>
        <path d="M279.95,536.67C280.23,535.67 280.03,535.17 279.04,534.64C279.04,535.64 278.97,536.27 279.95,536.67Z" style="fill-rule:nonzero;"/>
        <path d="M275.29,502.56C274.95,503.11 275.07,503.59 275.49,504.08C275.89,503.37 276.71,502.97 275.29,502.56Z" style="fill-rule:nonzero;"/>
        <path d="M276,507.84C275.65,508.19 275.77,508.81 276.42,508.61C276.61,508.57 276.94,507.84 276,507.84Z" style="fill-rule:nonzero;"/>
        <path d="M292.44,439.42C291.92,442.78 292.64,443.48 297.01,447.64C302.22,452.61 299.23,448.3 299.14,447.54C303.43,446.64 306.23,443.86 308.56,440.3C309.58,438.75 305.54,444.78 296.59,444.99C294.72,445.04 292.71,440.01 292.44,439.42Z" style="fill-rule:nonzero;"/>
        <path d="M312.13,443.99C313.04,448.67 312.06,453.47 309.9,457.69C313.84,454.22 316.85,442.22 312.13,443.99Z" style="fill-rule:nonzero;"/>
        <path d="M298.02,473.63C296.7,476.07 297,481.85 298.93,486.32C298.96,485.46 298.53,473.88 298.02,473.63Z" style="fill-rule:nonzero;"/>
        <path d="M302.79,455.16C302.88,452.97 302.94,450.84 301.67,449.07C300.66,451.1 300.76,452.92 302.79,455.16Z" style="fill-rule:nonzero;"/>
        <path d="M299,490.2C298.01,494.64 301.51,502.48 299.24,489.47C299.14,489.67 299.06,489.92 299,490.2Z" style="fill-rule:nonzero;"/>
        <path d="M301.58,506.64C300.83,507.93 302.23,508.46 302.35,507.42C302.39,507.07 301.94,506.01 301.58,506.64Z" style="fill-rule:nonzero;"/>
        <path d="M300.84,500.83C300.1,500.76 300.6,501.96 301.47,502.25C301.38,501.55 301.61,500.91 300.84,500.83Z" style="fill-rule:nonzero;"/>
        <path d="M286.76,125.87C285.74,123.33 285.64,123.04 283.51,122.72C279.72,122.16 276.41,121.29 273.36,124.34C275.03,124.92 275.89,123.63 277.62,123.32C278.94,124.64 281.27,123.93 282.8,125.55C279.86,125.75 277.22,125.65 274.88,126.97C285.35,129.92 284.34,126.61 286.76,125.87Z" style="fill-rule:nonzero;"/>
        <path d="M296.76,128.62C296.81,128.77 301.75,129.51 305.12,128.51C302.63,127.56 300.05,126.39 297.41,126.28C299.2,125.21 301.58,125.97 303.2,124.96C303.87,125.11 304.36,125.55 304.99,125.98C306.15,126.76 307.3,126.52 307.05,126.27C302.98,122.25 292.6,122.23 293.66,126.48C295.22,126.31 296.14,127.19 296.76,128.62Z" style="fill-rule:nonzero;"/>
        <path d="M280.36,147.08C281.7,150.65 287.35,147.2 295.79,149.21C296.2,149.31 296.6,148.8 296.7,148.09C291.42,146.37 286.04,147.39 280.36,147.08Z" style="fill-rule:nonzero;"/>
        <path d="M285.33,150.23C279.3,154.45 288.25,152.95 293.55,153.06C291.22,148.5 287.87,151.14 285.33,150.23Z" style="fill-rule:nonzero;"/>
        <path d="M292.03,142.4C290.98,138.34 286.45,139.22 286.45,142.2C287.08,142.2 289.11,141.21 292.03,142.4Z" style="fill-rule:nonzero;"/>
        <path d="M265.86,576.05C269.8,576.74 273.23,577.79 277.03,576.76C274.38,573.38 269.47,573.42 265.86,576.05Z" style="fill-rule:nonzero;"/>
        <path d="M265.74,579.71C269.7,582.04 271.63,582.15 274.06,579.61C270.96,578.5 268.52,577.91 265.74,579.71Z" style="fill-rule:nonzero;"/>
        <path d="M299.57,577.92C302.33,578.41 305.47,578.22 307.16,575.95C298.2,573.46 289.61,576.14 299.57,577.92Z" style="fill-rule:nonzero;"/>
        <path d="M305.23,588.43C298.73,588.94 295.59,590.05 294.06,592.79C297.61,591.37 300.86,589.95 304.21,589.24C304.52,589.33 323.16,599.76 305.23,588.43Z" style="fill-rule:nonzero;"/>
        <path d="M299.14,578.59C303.48,583.99 306.68,580.19 305.1,579.18C303.37,578.07 301.19,579.04 299.14,578.59Z" style="fill-rule:nonzero;"/>
        <path d="M545.6,138.86C542.02,138.62 539.18,138.07 536.67,141.09C538.29,141.5 539.11,140.07 540.63,139.87C541.71,141.14 543.9,139.98 545.34,141.42C546.17,142.26 541.17,141.14 537.48,143.72C542.15,143.72 546.31,145.24 549.66,141.59C549.25,138.96 547.32,138.76 545.6,138.86Z" style="fill-rule:nonzero;"/>
        <path d="M559.91,141.5C560.52,140.38 561.43,140.38 562.45,140.48C563.36,140.58 564.18,139.77 564.99,139.77C566.25,139.96 567.06,141.34 568.46,141.02C570.74,140.64 555.95,134.88 555.95,141.6C558.08,142.21 558.08,142.21 559.71,143.83C572.28,144.86 566.51,142.27 559.91,141.5Z" style="fill-rule:nonzero;"/>
        <path d="M550.57,165.15C548.94,164.88 548.03,165.86 547.63,167.38C550.17,168.29 554.53,168.09 556.97,167.08C555.65,163.12 552.7,165.5 550.57,165.15Z" style="fill-rule:nonzero;"/>
        <path d="M557.59,162.07C552.66,162.29 556.4,160.77 549.36,162.3C547.94,162.61 546,161.3 544.69,163.21C546.17,164.16 547.43,163.85 550.81,163.48C557.01,162.81 557.39,163.77 558.73,163.75C560.22,163.75 561.56,161.89 557.59,162.07Z" style="fill-rule:nonzero;"/>
        <path d="M555.03,156.94C554.88,154.03 550.53,153.65 549.85,157.85C551.51,156.56 552.99,156.65 555.03,156.94Z" style="fill-rule:nonzero;"/>
        <path d="M559.2,206.87C558,207.19 557.68,210.44 557.1,209.15C556.8,208.49 557.09,207.43 555.85,207.17C555.93,210.02 556.47,212.76 558.08,215.08C558.69,214.88 558.99,214.67 559.81,214.37C558.79,211.95 560.42,209.31 559.2,206.87Z" style="fill-rule:nonzero;"/>
        <path d="M552.93,185.18C551.67,188.6 550.22,185.98 548.65,187.98C551.7,189.4 553.83,187.98 555.25,183.82C553.95,183.56 553.3,184.15 552.93,185.18Z" style="fill-rule:nonzero;"/>
        <path d="M564.38,196.82C565.8,195.3 567.22,193.77 568.74,192.35C567.02,193.47 564.99,194.28 564.38,196.82Z" style="fill-rule:nonzero;"/>
        <path d="M562.04,181.19C564.17,180.58 565.09,178.86 566.1,177.23C565.41,176.54 566.15,176.06 562.04,181.19Z" style="fill-rule:nonzero;"/>
        <path d="M565.19,185.25C567.12,184.13 567.12,184.13 566.51,182.2C566,183.11 565.49,183.82 565.09,184.64C564.99,184.74 565.19,185.05 565.19,185.25Z" style="fill-rule:nonzero;"/>
        <path d="M559.2,201.29C560.01,200.99 560.62,200.78 560.93,200.17C559.81,200.27 559.81,200.27 559.2,201.29Z" style="fill-rule:nonzero;"/>
        <path d="M567.83,176.32C567.53,176.83 567.53,177.34 567.73,178.15C568.03,177.33 568.13,176.82 567.83,176.32Z" style="fill-rule:nonzero;"/>
    </g>
</svg>
