<?xml version="1.0" encoding="UTF-8" standalone="no"?>
<!DOCTYPE svg PUBLIC "-//W3C//DTD SVG 1.1//EN" "http://www.w3.org/Graphics/SVG/1.1/DTD/svg11.dtd">
<svg width="100%" height="100%" viewBox="0 0 900 600" version="1.1" xmlns="http://www.w3.org/2000/svg" xmlns:xlink="http://www.w3.org/1999/xlink" xml:space="preserve" xmlns:serif="http://www.serif.com/" style="fill-rule:evenodd;clip-rule:evenodd;stroke-linejoin:round;stroke-miterlimit:2;">
    <g>
        <path d="M393.22,143C392.5,146.49 391.6,149.88 391.89,153.47C392.88,166.03 390.61,159.53 391.38,172.87C395.26,240.7 377.52,220.23 379.57,245.14C381.61,269.86 368.08,270.62 363.76,286.3C363.04,287.02 361.81,286.2 361.3,287.43C361.4,292.97 360.89,298.52 358.63,303.75C359.55,301.49 358.54,299.64 357.71,297.69C355.21,291.89 354.28,270.82 344.98,263.1C349.5,261.35 352.99,258.99 357.61,258.38C355.35,256.84 353.09,257.05 351.04,256.94C350.83,255.19 351.25,254.07 352.37,253.04C356.18,249.56 359.04,245.24 363.15,242.06C364.07,241.44 365.1,240.42 365.1,239.39C365.1,234.09 371.95,233.08 366.74,227.69C366.64,223.99 366.43,220.2 367.05,216.5C368.9,216.91 370.44,215.58 372.18,215.37C377.21,204.04 373.31,209.71 373.31,197.51C373.31,197.41 372.9,197.3 372.49,197.1C373,199.15 371.05,200.8 371.77,202.75C373.1,206.34 371.15,209.01 369.31,212.4C368.39,209.94 366.64,209.63 364.38,209.73C372.63,199.54 364.55,206.46 367.15,198.64C374.43,176.79 378.4,173.6 378.85,164.05C380.39,164.56 381.42,163.84 381.01,162.61C380.19,160.15 380.72,157.47 379.68,155.12C376.47,147.86 372.87,151.92 370.24,144.03C369.18,140.86 367.67,137.97 365.21,135.41C370,131.31 371.59,142.01 377.12,131.51C377.43,129.35 375.99,128.33 375.27,126.89C378.66,127.61 382.05,128.12 385.43,127.71C386.25,129.35 387.59,130.17 389.02,129.97C391.18,133.67 391.69,137.77 394.56,140.75C394.56,135.93 391.69,132.13 390.97,127.51C388.4,128.23 387.07,126.69 385.53,125.35C381.22,127.3 377.22,122.99 373.21,125.04C368.79,123.88 368.71,117.41 359.87,116.73C341.7,115.33 323.84,110.88 305.26,111.08C304.85,106.36 300.85,108.41 298.38,107.49C298.76,98.87 300.86,101.75 299.82,96.4C298.01,87.1 293.18,83.38 292.02,80.18C297.39,80.99 298.22,74.48 293.35,70.43C294.02,67.5 292.75,79.66 287.7,5.45C287.57,3.5 287.7,1.07 284.72,0.93C279.72,0.71 283.7,10.02 286.57,58.72C286.96,65.29 287.7,71.65 289.55,77.92C288.52,80.18 286.47,82.23 289.14,84.59C286.06,95.37 286.98,102.55 291.81,105.94C292.53,105.53 291.71,104.61 292.43,104.3C293.76,105.02 292.12,106.56 293.25,107.28C295.1,107.28 294.38,105.12 295.92,104.71C296.84,105.43 297.05,106.46 296.64,107.58C294.18,109.22 289.66,106.25 288.94,111.17C275.33,112.07 263.1,107.33 238.64,107.99C209.44,108.77 208.45,108.01 202.2,113.64C198.63,116.85 201.61,124.95 194.71,5.65C194.46,1.38 190.94,1.43 191.22,6.37C198.62,137.34 198.73,112.26 189.68,114.98C186.68,45.21 186.74,48.53 184.96,1.24C181.47,-0.1 183.38,-4.19 186.71,100.71C187.11,113.25 188.42,116.01 182.91,116.01C177.91,11.02 179.57,-5.93 174.08,1.55C175.62,9.56 179.83,116.21 178.7,118.68C169.97,120.63 167,123.81 168.23,130.18C166.28,131.31 164.02,132.03 162.58,133.88C161.14,135.52 157.45,133.57 157.55,137.37C160.73,138.6 162.79,140.96 163.91,144.25C158.57,145.69 159.6,139.94 156.93,138.3C154.98,142 156.51,146.05 160.21,146.51C169.8,147.71 159.09,152.29 174.89,141.58C184.1,149.06 179.57,126.96 191.83,400.68C182.32,407.88 191.5,419.11 189.26,421.72C188.64,422.44 189.05,423.47 189.26,424.39C190.43,429.51 194.08,432.04 194.8,433.12C193.12,438.73 187.01,432.26 178.48,441.64C168.14,453.01 166.84,450.91 165.44,458.17C161.69,471.29 165.91,467.21 175.29,491.12C177.38,496.44 177.65,502.51 181.76,506.93C178.15,510 162.59,512.12 145.01,521.81C141.02,524.01 127.49,527.17 122.32,529.41C116.27,532.87 95.1,19.91 91.11,19.02C88.87,19.77 116.79,531.5 117.18,532.39C121.28,533.69 123.65,531.01 127.34,530.03C158.34,521.81 138.2,523.39 183.08,509.19C183.7,510.22 185.03,510.94 185.54,512.58C182.77,514.02 179.18,513.09 176.71,516.28C180.51,517.2 182.87,514.84 185.85,514.33C187.29,518.33 190.06,521.52 192.52,525.52C187.18,524.39 182.15,525.01 177.33,523.77C182.26,527.67 188.11,527.26 194.37,527.57C198.68,532.19 202.48,538.04 205.46,544.51C192.42,539.89 179.59,535.07 166.45,532.09C165.53,531.17 166.76,529.83 165.12,529.52C150.24,537.12 133.91,541.94 118.41,549.33C118.82,552 119.23,554.67 119.64,557.13C120.97,558.57 123.34,557.95 124.57,560.41C120.57,562.36 116.05,562.46 112.56,565.44C109.99,560.92 105.27,562.57 102.29,560.62C101.86,553.24 74.08,14.51 68.52,18.31C69.57,24.61 97.28,524.69 97.57,530.96C91.49,529.01 65.93,519.4 77.86,525.31C86.97,529.83 92.11,532.05 94.68,533.06C93.37,532.76 91.66,532.54 90.08,532.81C92.54,533.53 94.49,536.3 97.47,534.35C96.97,533.85 97.14,534.26 97.78,533.73C98.7,538.04 98.4,542.35 98.7,547.18C44.28,529.04 93.6,548.77 98.91,550.16C99.01,553.03 99.12,555.6 99.22,557.96C98.5,558.68 97.78,557.34 97.37,558.27C100.96,562.99 106.1,565.03 111.33,567.2C114.16,568.37 113.83,567.03 125.39,562.89C126.52,562.48 127.65,562.17 128.16,560.73C126,558.78 124.36,556.21 121.69,554.78C121.59,553.03 120.66,551.6 121.07,550.16C121.9,549.04 150.14,538.94 158.02,534.76C164.91,531.11 194.49,544.52 207.81,547.08C209.04,549.75 210.89,552.11 210.89,555.19C194.09,568.63 197.47,564.4 182.66,567.1C177.69,568 179.67,569.44 175.37,571.72C171.8,573.61 170.55,578.08 173.11,580.24C175.89,582.59 178.35,585.16 181.84,586.71C196.15,593.07 193.51,594.1 198.57,594.1C240.29,594.1 233.51,609.68 257.08,587.94C257.99,587.1 258.01,585.78 257.18,584.86C254.74,582.17 253.8,578.7 251.84,575.72C245.32,565.79 248.73,562.13 245.58,559.3C244.35,558.68 243.22,559.81 241.99,559.09C241.07,556.22 239.32,553.55 238.6,550.47C248.04,547.7 248.04,547.7 254.41,542.26C257.49,542.88 258.82,545.44 260.77,547.39C269.94,556.56 281.66,551.26 283.25,557.45C283.98,560.31 285.28,560.28 290.85,563.3C303.26,570.03 322.27,562.55 317.44,554.06C316.17,551.82 314.77,549.54 313.85,548C313.75,541.53 313.64,535.89 309.85,531.16C306.87,531.37 306.87,531.37 304.82,530.03C301.74,516.89 302.77,503.55 301.12,490.1C320.43,495.53 312.4,490.62 319.7,488.05C320.11,489.69 321.44,489.18 322.57,489.49C324.52,490.01 325.45,487.94 327.19,488.16C330.27,488.55 331.3,486.72 331.5,484.16C331.5,480.91 331.52,481.65 339.4,477.38C342.22,475.85 342.15,475.12 343.81,468.24C344.61,464.95 345.97,461.57 343.6,458.49C345.86,456.03 346.89,453.26 348.94,451C350.79,448.95 351.96,446.59 352.12,443.4C352.27,440.42 353.95,437.34 354.99,434.37C361.47,415.95 353.15,405 351.6,396.8C351.21,394.74 350.37,393.31 348.11,393.21C347.83,382.16 352.6,320.82 356.32,316.43C363.64,307.79 361.79,292.52 365.46,286.35C370.42,278 385.67,263.75 381.88,244.16C381.46,242.01 380.65,239.65 381.57,237.49C382.71,234.82 383.32,231.95 385.37,229.59C392.87,220.95 395.91,196.84 394.3,181.45C393.38,172.62 392.66,163.79 394.2,154.86C403.56,149.75 395.03,146.44 394.82,141.52C393.83,141.87 393.32,142.28 393.22,143ZM377.92,158.09C378.54,158.81 378.43,159.22 378.33,159.94C377.62,159.32 377.92,158.8 377.92,158.09ZM290.26,73.19C293.03,74.32 293.24,74.73 292.83,78.01C290.46,77.43 289.64,76.58 290.26,73.19ZM291.49,101.63C289.64,97.83 288.72,94.03 290.77,89.41C292.82,93.82 293.13,97.73 291.49,101.63ZM292.52,88.69C291.9,88.07 291.08,87.87 291.6,86.74C292.21,87.15 292.62,87.56 292.52,88.69ZM293.23,103.37C295.18,99.78 294.98,96.08 294.36,92.49C297.75,98.44 297.44,101.42 293.23,103.37ZM344.36,226.45C344.15,225.22 343.95,224.19 345.59,223.27C345.59,224.81 345.59,225.73 344.36,226.45ZM301.04,256.43C300.46,248.82 292.74,254.68 294.06,246.58C295.09,240.26 292.13,238.5 295.91,233.85C297.24,232.21 298.68,230.46 298.78,228.2C298.06,226.87 297.45,228.3 296.52,227.99C294.48,223.91 295.77,227.49 299.8,221.63C301.24,221.42 300.52,223.58 302.16,223.48C303.08,221.22 301.75,219.17 301.13,217.12C305.62,208.15 302.44,211.42 308.62,219.07C311.75,222.94 304.32,236.05 307.7,237.24C310.06,235.8 308.83,232.83 310.37,230.98C316.6,232.18 306.85,235.67 314.17,239.09C317.35,238.27 320.64,237.86 322.38,234.16C322.48,239.19 321.87,240.33 317.35,241.76C315.69,242.28 311.74,246.15 312.42,242.07C312.93,239.04 308.84,241.03 310.06,244.12C310.79,245.96 312.62,246.67 314.27,245.76C317.13,244.19 320.43,243.6 323.2,241.55C320.98,245.99 325.3,245.19 323.41,249.45C321.11,254.62 324.14,256.31 316.22,260.74C318.38,261.36 321.56,261.05 324.02,259.82C331.01,265.97 330.41,252.47 336.54,269.98C340.33,262.64 333.5,262.51 338.59,261.67C338.28,262.39 337.56,263 338.28,263.83C344.26,269.81 344.07,276.83 342.49,284.16C330.19,291.99 329.84,277.88 313.54,268.76C314.87,266.6 317.75,266.19 319.6,263.42C301.33,267.44 302.38,274.11 301.04,256.43ZM312.43,192.99C313.56,194.84 314.69,192.58 316.23,193.5C314.59,195.55 313.56,197.81 313.66,200.58C310.26,203.3 310.27,198.64 309.04,194.42C310.79,195.14 310.68,197.19 312.43,197.6C314.28,196.17 312.23,194.84 312.43,192.99ZM327.32,256.73C326.81,255.91 327.63,255.4 327.94,254.47C328.86,255.71 329.37,256.63 327.32,256.73ZM328.14,241.64C328.55,240.61 329.27,240.1 330.5,239.48C329.88,240.82 329.37,241.44 328.14,241.64ZM325.16,212.59C325.47,211.26 325.57,210.23 327.32,209.61C327.11,211.26 326.39,211.88 325.16,212.59ZM318.08,188.68C321.16,189.5 324.34,190.32 327.52,191.04C324.03,191.86 320.95,190.32 318.08,188.68ZM322.39,205.1C321.88,205.92 321.88,205.92 321.16,205.31C321.57,205 321.98,204.9 322.39,205.1ZM319.21,207.77C319.52,209.52 319.52,211.05 317.67,212.39C317.77,210.54 317.87,209.1 319.21,207.77ZM321.16,232.51C318.29,228.81 318.29,228.81 315.21,229.74C315.72,228.82 316.65,228.3 317.57,227.89C320.13,229.33 320.13,229.33 321.16,232.51ZM315.51,233.23C316.02,232.31 316.64,232.1 317.36,231.79C318.69,232.2 318.49,234.25 320.13,234.46C319.1,235.69 317.97,236.51 316.33,237.03C316.74,235.49 317.05,234.05 315.51,233.23ZM314.38,208.39C314.07,207.26 313.97,206.34 315.71,206.13C315.92,207.36 315.3,207.87 314.38,208.39ZM312.33,223.78C312.12,222.96 312.54,222.34 313.25,221.93C313.87,223.17 313.87,223.17 312.33,223.78ZM330.81,257.04C331.63,255.81 332.35,254.58 333.17,253.34C333.06,254.89 332.65,256.43 330.81,257.04ZM340.45,192.37C342.2,191.34 343.22,192.06 344.25,193.09C343.02,193.19 341.79,193.19 340.45,192.37ZM344.56,251.6C344.87,252.73 344.46,252.93 343.84,253.04C343.33,252.32 344.05,252.22 344.56,251.6ZM343.53,265.77C342.71,265.56 342.5,264.95 341.89,263.82C343.02,264.54 343.33,265.05 343.53,265.77ZM340.35,224.4C340.76,223.58 341.38,224.19 341.89,224.3C341.28,224.71 340.76,224.91 340.35,224.4ZM339.12,210.75C339.12,209.72 339.53,209.31 340.45,209.62C340.66,210.75 340.25,211.05 339.12,210.75ZM340.25,260.33C341.07,261.05 340.66,261.66 340.46,262.18C339.64,262.49 339.23,261.87 338.71,261.77C338.92,260.74 339.94,261.05 340.25,260.33ZM335.84,198.12C336.97,197.09 337.89,197.5 339.02,197.61C337.99,198.02 337.17,198.53 335.84,198.12ZM338.5,255.4C336.96,258.17 335.95,255.98 336.65,254.58C337.48,254.27 337.79,255.09 338.5,255.4ZM336.76,211.46C336.86,210.95 337.17,210.64 337.79,210.95C337.68,211.57 337.27,211.57 336.76,211.46ZM337.48,214.24C336.66,215.37 335.43,215.68 333.78,216.6C334.3,213.83 336.14,214.54 337.48,214.24ZM335.22,246.88C334.88,245.87 336.04,245.91 336.04,246.26C336.04,246.78 335.73,247.09 335.22,246.88ZM335.84,257.45C335.63,258.37 335.22,258.37 334.81,258.58C334.6,257.66 335.22,257.86 335.84,257.45ZM343.43,265.77C344.15,266.28 344.76,266.9 344.76,267.82C343.95,267.41 343.74,266.59 343.43,265.77ZM346.92,240.52C347.43,238.88 347.95,237.95 349.59,237.65C349.08,239.18 348.77,240.21 346.92,240.52ZM349.8,226.45C350.31,228.61 350.31,228.61 348.36,229.32C348.46,227.89 348.77,227.07 349.8,226.45ZM349.28,210.75C349.59,210.54 349.9,210.75 350.1,211.26C349.11,212 348.76,210.75 349.28,210.75ZM349.49,233.84C351.03,233.02 352.26,232.2 353.49,234.05C352.26,235.9 350.93,235.59 349.49,233.84ZM353.59,218.86C352.15,219.58 351.43,218.76 350.72,217.73C351.74,212.96 352.1,213.05 353.7,214.65C352.16,215.88 352.16,217.42 353.59,218.86ZM345.38,195.86C344.03,192.14 341.22,191.8 353.9,198.32C349.69,199.87 348.26,195.35 345.38,195.86ZM354.62,208.59C355.24,207.87 355.65,208.08 356.06,208.69C355.54,209.51 355.03,209.41 354.62,208.59ZM354.93,205.61C355.03,204.17 356.37,203.25 355.65,201.4C357.81,202.53 356.57,204.38 357.5,205.4C356.57,206.33 355.75,206.23 354.93,205.61ZM359.65,238.98C359.03,237.65 359.55,236.52 358.73,235.39C359.65,235.18 360.27,234.98 361.09,235.39C361.6,236.92 360.37,237.64 359.65,238.98ZM359.96,233.23C359.55,230.87 359.55,230.87 361.81,230.36C361.4,231.69 360.99,232.71 359.96,233.23ZM363.35,234.05C361.4,232.92 362.94,232.1 363.35,231.07C364.68,232.3 364.78,233.12 363.35,234.05ZM377,154.7C375.97,157.78 375.78,160.55 375.97,163.43C376.79,175.45 370.78,180.23 364.99,195.66C361.8,204.17 365.12,205.74 362.22,206.95C359.24,200.99 357.12,196.54 348.67,192.99C338.61,187.96 337.84,187.44 339.23,190.22C330.61,189.19 321.98,188.78 314.18,184.47C313.56,185.09 314.16,185.81 314.39,186.52C316.26,192.56 312.02,182.76 306.59,183.03C305.26,184.67 306.69,186.21 307,188.16C306.79,189.19 305.46,190.11 305.87,191.55C304.74,191.55 304.64,190.63 304.02,190.42C301.66,193.6 302.17,197.91 305.46,200.38C304.23,206.64 299.2,211.88 299.81,218.86C297.76,221.02 295.4,223.07 293.86,225.84C293.86,230.08 298.27,228.45 294.27,233.03C290.39,237.47 292.68,241.33 292.42,247.4C292.02,256.75 297.63,251.86 298.37,256.84C298.6,258.38 298.78,260.02 299.09,262.38C290.57,252.32 278.15,252.63 267.78,248.01C261.62,238.36 255.36,228.51 244.68,223.17C242.73,214.24 239.87,205.91 233.7,199.05C224.4,188.7 209.05,150.64 202.49,140.74C204.85,136.02 203.93,130.78 203.93,125.44C216.37,117.15 215.05,117.75 220.46,118.87C233.51,121.58 273.63,117.22 342.92,123.69C355.38,124.85 359.4,123.48 363.96,132.42C362.52,134.47 362.82,136.43 364.58,138.48C366.78,141.04 368.47,151.93 377,154.7ZM301.86,111.38L291.18,111.38C294.77,110.04 300.21,109.94 301.86,111.38ZM210.6,111.58C211.12,111.45 242.69,108.53 274.66,112.91C293.41,115.48 300.28,110.51 339.54,116.71C347.14,117.91 354.94,118.46 362.64,119.17C367.26,123.28 369.52,129.23 375.98,131.18C374.03,132.93 372.59,134.05 370.64,134.88C367.56,131.8 363.76,129.13 363.04,124.2C330.1,118.45 263.58,117.11 236.47,117.01C206.54,116.9 222.88,111.49 203.01,122.45C201.68,120.91 200.85,119.27 199.21,117.83C203.41,116.1 206.28,112.69 210.6,111.58ZM165.33,144.95C165.95,141.15 164.61,138.69 162.46,136.33C173.63,132.23 169.82,128.92 173.55,138.69C171.28,140.94 168.51,142.48 165.33,144.95ZM175.08,134.37C174.26,131.29 172.51,129.85 169.84,129.03C170.05,127.59 170.35,126.26 170.56,125.03C172,124.21 173.54,125.65 174.67,124.41C175.49,123.28 173.44,123.08 174.05,121.95C179.78,121.51 181.57,119.58 181.94,119.7C181.83,119.81 180.96,121.58 181.44,122.46C182.57,121.54 184.21,121.33 184.52,119.59C184.21,119.38 184.01,119.18 183.8,119.18C178.95,119.18 188.83,117.77 188.93,117.74C190.37,117.33 191.5,115.48 193.34,116.71C194.78,119.79 198.27,121.02 200.12,124.1C200.33,124.92 199.09,125.02 198.89,126.05C199.81,126.97 199.71,128.41 199.61,129.85C199.38,143.11 201.29,139.64 209.36,159.11C218.74,181.72 217.01,174.02 219.83,183.64C222.36,192.28 224.58,192.22 224.04,196.57C225.68,195.13 225.68,195.13 222.09,186.72C225.1,188.41 228.34,199.63 232.66,200.78C233.96,201.13 240.71,219.21 241.18,220.49C243.77,227.55 247.54,225.57 258.43,238.04C260.87,240.83 266.15,249.92 266.33,250.26C269.74,248.21 272.05,252.43 287.58,257.65C293.47,259.63 302.24,268.36 301.44,269.97C300,271.2 299.59,268.33 297.74,269.46C297.12,273.77 299.07,278.39 298.46,283.11C300.31,279.62 299.69,275.72 300.72,272.13C310.47,275.31 320.12,282.09 321.56,295.12C319.2,297.38 315.61,298.2 313.35,300.87C315.61,302.51 317.46,301.79 322.08,297.69C322.39,299.02 322.39,299.64 321.77,300.97C322.9,301.28 323.29,302.1 323.31,303.23C323.49,314.51 315.32,326.62 313.66,329.92C305.56,346.05 276.63,359.11 268.08,343.47C259.02,326.9 265.77,311.67 261.2,309.39C262.74,302.61 263.77,296.05 263.56,289.17C267.56,290.61 270.85,293.07 274.03,295.43C275.06,294.3 274.65,293.78 274.24,293.38C254.14,273.61 241.19,288.52 224.35,248.32C226.71,250.07 228.46,251.4 230.3,253.66C229.72,249.27 217.43,236.35 214.18,233.75C209.48,229.98 206.54,220.9 203.81,213.63C202.1,209.07 204.79,211.01 200.01,192.59C199.8,191.77 199.39,191.05 198.37,192.18C196.42,181.81 193.16,171.85 191.18,161.59C188.18,145.93 179.34,150.4 175.08,134.37ZM203.82,224.4C215.01,238.14 210.88,235.46 217.99,240.82C226.46,247.21 218.44,267.43 260.28,287.63C261.37,300.09 256.57,322.26 262.03,333.52C263.3,336.13 260.86,336.99 263.36,342.45C267.77,352.1 267.31,369.65 270.44,375.2C273.08,379.87 255.53,381.61 248.78,383.93C242.21,386.19 235.54,388.24 228.45,388.96C227.72,391.87 228.69,391 211.31,395.02C208.75,338.04 206.29,281.17 203.82,224.4ZM207.42,396.14C205.47,396.76 203.42,397.37 201.06,398.09C198.08,325.62 195,253.45 192.03,181.29C203.77,211.65 207.48,396.03 207.42,396.14ZM243.65,562.54C244.01,570.54 252.22,584.15 254.33,586.77C248.41,592.93 245.88,597.01 239.34,596.52C229.29,595.77 220.11,591.36 216.14,591.28C192.88,590.86 199.55,591.58 192.02,588.61C187.66,586.89 175.09,582.01 174.77,577.63C178.98,570.75 185.75,570.44 192.22,569.52C193.45,569.73 193.45,571.27 194.89,571.47C195.92,571.06 197.25,570.85 198.59,571.68C200.13,570.14 200.75,568.19 202.49,566.96C203.52,567.68 203.62,569.42 205.47,569.73C205.88,567.37 206.09,564.91 208.14,562.95C208.76,564.8 207.63,566.85 209.68,568.19C211.12,566.24 211.63,564.08 212.04,561.83C213.74,563.02 211.44,567.48 217.28,569.02C223.46,570.65 227.26,569.56 232.68,573.23C236.16,569.42 241.39,567.77 243.65,562.54ZM239.44,563.87C238.93,564.22 230.13,572.06 225.79,567.87C223.23,565.4 216.1,569.14 214.19,557.6C212.2,545.55 208.21,544.8 210.6,543.84C198.07,526.93 198.18,526.57 193.66,521.05C193.45,520.23 194.58,519.82 194.07,519.1C190.37,513.04 185.36,507.96 181.85,501.85C179.13,497.11 177.31,487.1 172.97,477.53C173.36,477.57 173.68,478.13 174.56,477.83C174.97,476.39 175.69,474.75 173.23,474.13C172.38,475.27 172.83,476.23 172.91,477.26C166.96,469.33 162.18,461.83 172.1,451.65C178.18,445.4 184.16,437.56 191.19,439.13C191.7,439.64 191.08,440.26 190.88,440.88C185,459.36 201.65,467.12 206.79,475.06C206.79,478.41 203.93,475.42 194.98,477.93C199.09,481.11 203.5,480.09 207.81,480.29C216.24,492.79 220.11,494.61 221.05,515.19C221.66,528.49 234.46,550.01 237.37,556.56C233.16,558.92 228.75,560.15 224.03,561.08C214.97,548.47 214.67,545.79 221.16,562C219.62,562.41 218.39,560.67 217.16,562.1C218.19,564.87 220.96,566.3 223.94,564.97C228.56,562.91 233.69,562.51 238,559.32C239.03,560.69 239.55,562.02 239.44,563.87ZM236.26,548.06C234.72,544.16 231.23,541.18 230.1,536.87C230,536.56 229.89,536.26 229.69,535.95C223.7,526.54 225.07,518.2 222.09,498.38C220.84,490.05 216.27,487.36 213.47,481.75C218.6,486.36 220.94,491.62 232.15,491.4C236.46,491.31 240.88,491.4 244.98,490.27C245.7,490.78 246.01,491.4 246.01,492.02C245.91,509.62 249.6,525.45 238.93,533.7C235.5,533.09 230.88,531.33 230,533.08C239.78,535.71 238.14,535.65 240.37,534C249.29,527.41 250.46,518.12 248.79,501.56C248.38,497.56 248.58,493.55 248.07,489.75C250.94,487.08 254.43,489.54 257.51,488.21C258.02,492.21 257.2,496.32 259.15,500.94L259.15,486.16C260.79,484.83 261.92,482.98 264.39,482.16C266.25,492.69 264.6,510.76 264.9,521.37C265.16,530.59 260.09,531.96 260.59,533.65C265.16,531.84 268.46,524.71 266.95,519.42C266.66,518.39 266.94,517.37 267.05,516.34C270.32,487.01 267.38,489.8 267.97,482.26C268.5,481.46 270.13,481.35 270.13,482.05C266.79,490.17 292.24,519.45 281.11,527.42C273.95,532.55 272.36,537.63 266.53,535.32C264.17,534.39 261.71,535.83 259.24,536.45C258.93,535.01 260.68,534.91 260.47,533.68C260.57,533.68 259.39,533.16 257.49,535.53C249.51,545.52 245.61,546.82 236.26,548.06ZM304.01,534.72C304.73,534.72 304.73,536.47 305.96,536.36C306.58,535.44 304.93,534.92 305.55,533.79C308.47,533.9 309.96,536.23 309.96,538.72C308.73,545.6 311.71,551.14 315.61,556.38C311.91,562.23 306.68,564.11 300.31,563.16C293.78,562.18 284.72,560.91 286.04,554.54C279.16,548.34 272.45,555.09 259.45,543.86C258.62,543.15 258.01,542.42 257.6,541.4C259.35,538.63 261.29,537.91 264.27,538.32C270.09,539.11 273.29,537.96 284.39,527.23C285.03,530.1 281.96,535.3 286.03,536.37C285.72,535.24 285.82,534.11 286.65,532.88C290.65,535.55 294.96,536.06 299.69,534.63C298.46,536.07 296.71,537.09 298.25,539.35C301.24,539.34 301.24,535.54 304.01,534.72ZM301.86,531.33C301.76,532.46 301.35,533.18 300.11,533.08C299.6,531.23 301.34,532.05 301.86,531.33ZM301.34,529.18C296.52,530.62 292,534.72 287.17,529.08C286.35,525.49 286.66,521.28 285.84,517.07C287.48,516.76 287.79,518.71 289.43,518.71C279.61,502.94 275.31,498.34 271.67,482.27C280.5,484.73 289.02,487.09 297.95,489.66C298.67,496.44 297.74,503.01 298.46,509.57C299.18,516.04 301.14,522.5 301.34,529.18ZM274.76,480.62C280.87,476.84 316.12,487.7 317.05,488.11C309.13,493.98 309,488.95 274.76,480.62ZM327.73,485.65C324.96,485.44 322.49,486.88 319.83,487.5C322.5,485.86 324.96,484.01 328.04,483.19C328.34,484.01 328.34,484.73 327.73,485.65ZM348.67,398.4C349.59,399.43 349.59,399.94 349.39,400.76C348.56,400.14 348.56,399.52 348.67,398.4ZM349.18,402.19C356.06,417.28 352.77,432.37 348.05,447.36C347.54,448.08 347.33,446.54 346.72,447.15C344.87,450.02 343.54,453.82 338.61,453.41C339.02,454.95 338.3,455.57 336.97,455.98C328.77,458.47 322.17,463.86 315.31,468.71C309.89,472.55 292.46,470.86 290.67,473.64C291.21,476.35 298.05,476.28 300.73,475.59C307.78,473.77 310.31,478.61 312.95,476.41C311.33,472.45 300.55,476.73 315.72,470.66C317.57,472.41 316.54,474.87 317.67,477.23C319.11,474.87 319.62,472.61 319.52,470.25C326.19,465.94 332.97,462.04 340.97,459.98C342.72,462.65 339.94,463.68 338.81,465.32C339.32,465.11 339.94,465.01 340.45,465.42C341.07,470.45 339.22,474.35 335.11,476.71C309.68,491.33 323.06,481.81 284.4,477.94C285.12,476.09 287.99,477.22 288.71,474.55C287.54,474.68 272.24,475.92 267.97,479.17C266.11,480.59 263.12,476.55 259.55,480.71C251.58,490.01 248.13,486.04 233.27,487.28C219.24,488.45 207.16,470.12 206.68,468.7C223.3,468.98 262.57,481.95 269.3,476.5C238,471.28 237,470.55 225.36,469.01C210.13,466.99 207.09,469.75 200.21,463.98C190.99,456.25 191.55,443.09 196.82,434.72C200.82,436.26 205.03,437.08 209.34,436.26C208.85,433.31 192.25,436.63 190.04,416.65C188.63,403.87 190.88,404.24 197.02,402.04C195.94,401.72 192.17,339.31 184.09,153.04C184.3,153.04 184.6,152.94 184.81,152.94C190.83,160.46 199.12,401.13 197.05,402.04C197.38,401.92 197.71,401.8 198.06,401.67C200.93,404.65 205.25,405.16 208.74,408.03C205.72,398.3 191.39,403.47 222.91,395.3C235.37,392.07 231.98,389.93 237.69,389.45C243.64,388.95 249.5,387.81 254.94,385.34C259.46,383.29 264.69,384.31 269,381.54C271.77,391.6 273.72,401.56 276.08,411.31C275.26,411.82 274.75,410.8 273.72,411.52C273.1,412.03 273.72,413.16 273.41,414.09C274.54,414.71 274.64,413.58 275.36,413.37C278.64,416.55 283.37,414.4 287.27,416.24C288.91,414.96 286.09,411.07 291.48,415.11C295.48,414.39 298.87,416.65 302.98,415.93C301.13,417.68 299.49,416.85 297.95,416.96C300.41,418.5 307.27,418.78 309.34,417.17C312.33,414.85 316.42,416.2 323.3,412.76C326.42,414.84 323.17,414.3 337.47,407.83C337.57,409.16 336.03,409.16 335.72,410.29C336.85,411.11 338.39,409.26 339.21,411.52C339.72,410.08 339.93,409.36 340.03,408.85C343.95,407.33 346.2,404.14 349.18,402.19ZM278.86,411.02C279.78,411.74 279.89,412.35 278.96,413.07C278.35,412.46 278.25,411.95 278.86,411.02ZM284.92,412.25C286.15,413.07 286.05,413.69 285.23,414.3C284.2,413.9 284.41,413.28 284.92,412.25ZM352.36,321.3C350,327.81 344.98,359.06 346.2,393.57C346.31,396.75 345.28,398.29 340.96,401.47C340.55,396.85 341.37,392.44 341.27,387.92C339.94,392.74 340.14,397.67 339.11,403.01C331.21,408.86 321.66,410.61 312.21,411.94C311.01,411.11 310.73,408.99 309.84,408.81C309.63,407.7 309.32,406.7 308.11,405.78C309.01,410.3 309.41,406.65 310.47,411.94C305.54,412.97 300.92,412.14 296.2,411.12C294.76,410.81 294.43,409.39 293.84,408.35C288.35,398.63 280.7,390.59 274.34,381.56C269.88,377.1 283.28,396.32 292.82,410.41C280.72,407.93 277.74,408.39 277.01,404.56C272.65,381.61 272.52,393.8 272.39,375.51C272.26,356.96 268.08,354.82 270.75,352.82C270.96,351.79 269.83,351.28 269.72,350.25C273.07,350.73 277.37,357.89 292.41,352.3C295.79,351.04 298.88,349.53 301.14,346.65C303.71,343.37 307.49,341.19 310.38,338.13C324.96,322.7 331.54,297.7 318.39,281.16C311.74,272.8 316.93,278.26 307,271.31C311.21,272.23 315.43,272.64 319.11,275.83C326.73,282.42 329.82,288.2 333.07,289.28C340.83,290.91 347.61,284.5 345.9,273.06C345.8,271.31 344.87,269.67 344.77,267.93C350.07,273.23 351.85,289.06 357.09,309.2C355.65,312.78 353.92,317 352.36,321.3ZM393.22,153.47C392.6,151.21 392.09,149.26 393.84,147.52C395.89,151 395.89,151.41 393.22,153.47Z" style="fill-rule:nonzero;"/>
        <path d="M197.07,402.05C197.06,402.05 197.06,402.05 197.05,402.06C197.06,402.06 197.06,402.06 197.07,402.05Z" style="fill-rule:nonzero;"/>
        <path d="M830.52,337.21C829.87,335.59 832.75,330.89 826.62,317.71C824.57,313.3 824.05,308.37 824.46,303.34C829.45,300.11 828.5,301.33 827.33,291.23C825.69,291.23 825.5,292.47 825.17,293.28C817.16,313.44 830.47,321.46 828.56,336.5C828.38,337.89 830.95,348.71 826.61,355.39C825.22,357.53 826.51,357.56 825.38,364.32C819.75,369.14 822.55,367.8 814.81,366.27C808.68,365.06 807.52,361.43 799,348C805.98,332.81 810.7,319.46 810.09,316.49C807.42,323.78 802.9,329.63 799.93,336.92C796.38,325.48 804.33,304.11 799.31,289.29C803.31,290.73 806.07,293.31 808.86,295.76C820.61,306.05 809.95,318.46 820.15,329.02C822.3,331.25 822.5,336.04 824.15,335.59C824.15,326.5 817.26,325.98 816.96,318.86C816.77,314.35 821.51,300.58 804.95,289.6C807.11,288.16 807.52,286.01 808.34,284.26C808.13,282.31 806.7,281.39 805.57,280.05C808.85,279.95 812.04,280.26 815.32,278.82C816.35,280.36 817.78,280.98 819.32,280.26C821.78,283.65 823.32,287.45 826.4,290.42C827.48,287.53 822.81,284.09 821.27,279.03C821.05,278.32 820.14,277.49 819.42,277.9C817.47,279.02 816.65,276.77 815.11,276.57C812.65,277.39 810.16,278.37 807.51,277.29C805.24,276.37 803.82,280.79 799.81,276.78C791.59,268.56 785.99,276.22 784.93,271.44C786.88,271.23 787.6,269.69 788.63,268.26C793.06,269.87 792.66,262.46 795.71,259.53C799.43,255.96 802.46,251.81 806.49,248.55C807.51,247.72 808.63,246.7 808.54,245.47C808.21,240.62 815.39,240.05 810.18,234.08C809.41,212.79 815.31,217.7 808.02,216.01C810.89,212.73 811.41,211.8 811,209.54C809.25,210.57 807.61,211.7 806.18,212.62C802.02,206.15 802.34,201.27 783.39,194.66C782.16,194.97 783.08,195.79 782.06,196.2C774.05,195.17 765.74,194.66 758.14,190.55C757.22,191.78 759.06,192.71 758.35,193.94C755.78,192.3 754.35,188.6 750.24,189.32C749.52,191.07 750.75,192.6 750.96,194.45C750.14,195.27 749.83,196.61 749.63,197.63C748.4,197.84 748.6,196.19 747.47,196.6C745.62,200.71 746.24,204.3 749.32,206.56C747.99,212.92 742.85,218.16 743.67,225.14C735.79,231.71 737.33,233.59 740.18,236.43C735.97,240.43 734.84,245.16 736.38,250.6C737.05,252.29 732.72,259.05 742.54,261.17C748.92,262.55 742.92,275.12 740.59,276.67C739.77,275.95 740.49,274.51 739.26,274C738.03,274 736.9,275.33 735.36,274.51C735.05,273.38 735.87,272.25 735.26,271.02C735.16,270.2 733.51,270.61 733.51,269.07C738.9,255.41 733.9,261.19 729.71,225.85C729.39,223.17 717.94,33.48 716.78,16.03C716.68,14.49 717.29,11.62 714.73,11.72C711.96,11.83 712.99,14.7 713.09,16.44C727.19,258.11 731.45,244.99 725.51,260.65C722.09,269.66 729.26,270.66 729.82,274.61C727.09,274.44 724.77,275.57 722.53,276.87C721.1,277.7 722.12,279.33 722.02,280.46C708.85,283.52 694.51,282.46 679.62,285.39C669.25,287.43 659.19,290.93 648.62,292.17C634.23,295.05 641.71,338.96 633.02,156.87C625.32,-4.37 627.58,3.16 624.4,2.58C621.72,3.57 628.91,-15.07 635.9,299.97C636.03,305.79 633.97,299.65 629.23,302.54C625.02,201.63 620.92,101.34 616.71,0.95C611.06,0.24 626.36,238.39 626.36,302.95C619.65,305.63 626.42,332.65 609.83,4.23C609.54,-1.54 605.13,0.05 606.03,2.48C606.67,4.2 601.01,-19.06 619.68,304.79C620.1,312.13 616.15,305.73 610.95,315.36C609.77,317.54 610.3,319.41 612.26,320.83C612.87,319.58 612.44,318.05 612.9,316.69C616.39,317.51 619.57,319.15 623.27,319.26C621.42,316.28 618.03,316.59 615.26,315.46C614.95,314.74 615.98,313.71 615.05,313.1C619.05,309.61 623.06,314.23 627.27,312.69C625.42,310.64 622.65,311.66 620.7,309.92C623.57,308.28 626.46,309.17 628.91,309.92C630.23,310.32 634.04,310.27 634.04,308.89C630.96,308.48 627.88,307.97 624.8,307.56C627.88,307.25 629.73,304.89 632.19,303.45C634.55,306.32 637.84,307.45 640.2,309.71C640.82,310.63 639.48,311.04 639.69,312.17C641.97,314.45 639,315.72 645.13,327.98C647.14,332 648.66,330.27 650.06,331.68C670.46,348.26 669.59,346.3 677.57,358.27C678.19,359.19 678.7,360.53 680.55,360.53C680.65,356.32 676.75,354.88 674.9,351.6C682.07,353.03 678.55,353.39 691.84,357.25C694.3,357.97 696.97,357.04 699.44,358.28C700.88,359 702.42,359.72 704.16,360.13C702.93,358.28 700.88,357.36 699.03,355.82C698.51,336.41 714.3,331.16 712.27,324.82C711.15,321.33 711.65,317.63 712.78,314.04C709.19,317.53 709.19,321.84 710.42,326.46C708.78,328.31 706.72,329.95 705.18,332C709.66,302.88 721.97,299.62 736.8,284.06C740.62,280.05 755.65,290.84 759.79,294.43C770.63,303.81 765.63,318.35 758.15,330.56C764.34,312.69 758.44,328.38 750.96,337.23C749.93,335.79 751.68,334.15 750.04,332.71C749.22,335.48 747.57,337.53 747.17,340.31C745.29,353.24 739.16,364.12 730.85,373.98C719.11,387.9 714.38,394.47 705.91,400.36C702.35,399.59 704.12,397.04 676.55,385.48C674.39,384.57 672.36,383.51 670.7,381.99C668.87,380.32 666.01,380.54 664.64,377.99C661.6,372.3 656.78,368.58 645.03,353.35C641.51,348.78 645.98,350.31 632.2,336.93C630.62,335.39 624.8,336.67 620.39,327.69C615.49,317.69 613.36,321.17 611.97,321.33C612.06,321.23 612.15,321.04 611.97,321.23C608.48,323.28 606.84,327.49 602.73,328.72C602.22,329.64 601.91,330.57 602.42,331.59C606.22,331.18 607.86,334.05 610.02,336.62C607.45,337.44 605.71,337.13 604.68,334.87C604.06,333.74 602.83,332.92 602.42,331.59C600.16,333.03 601.6,334.67 601.6,336.21C603.74,341.57 606.2,337.58 611.25,340.42C623.25,329.66 619.02,314.8 622.85,400.57C613.91,407.72 621.84,417.82 620.59,423.97C619.42,429.7 629.21,432.39 624.29,435.47C621.22,435.6 615.3,435.97 613.1,438.14C607.49,443.69 587.23,458.17 598.01,473.25C604.96,482.97 609.6,502.09 612.69,506.92C610.94,508.56 608.89,508.88 606.94,509.49C582.73,517.04 581.5,519.59 572.76,523.04C565.9,525.74 558.43,526.71 551.72,529.92C551.42,530.06 500.29,-374.55 531.39,222.89C548.26,546.96 546.75,535.62 552.74,532.39C560.01,528.97 560.79,531.14 584.25,520.38C593.81,516 603.86,512.68 614.12,509.5C615.04,510.53 616.28,511.35 616.69,512.78C614.02,514.42 610.33,513.29 608.07,516.58C611.87,517.61 614.23,515.04 617.21,514.63C618.29,518.76 621.43,521.76 623.41,525.35C618.7,524.58 613.91,525.02 609.31,523.87C614.01,527.7 624.53,528.08 625,527.11C629.63,532.5 633.76,538.37 636.83,545.01C623.69,540.19 610.76,535.36 597.41,532.28C596.79,531.46 597.72,530.43 596.38,529.82C581.39,537.31 565.17,542.34 549.67,549.43C549.46,552.2 550.59,554.87 550.59,557.33C552.13,558.87 554.49,558.15 555.52,560.72C551.72,562.57 547.1,562.57 543.71,565.65C527,534.28 535.98,693.7 504.29,35.83C503.42,17.82 503.79,15.6 499.67,18.69C501.39,25.58 526.7,494.01 528.82,531.13C521.02,528.87 513.83,525.69 506.34,523.64C513.32,526.92 519.58,531.44 527.08,533.49C525.13,534 523.49,532.36 521.13,532.98C523.9,534.52 526.26,535.75 529.14,535.24C529.14,539.55 529.96,543.55 529.65,547.97C502.52,539.04 504.82,539.21 504.4,540.89C513.02,543.66 520.93,548.49 529.65,550.85C530.37,553.72 530.47,556.39 530.37,558.86C529.55,559.27 528.93,558.35 528.52,558.96C532.76,564.12 543.31,569.27 545.66,567.99C554.72,563.07 558.87,564.01 559.31,561.11C556.95,559.47 555.61,556.59 552.53,555.26C553.15,553.62 551.71,552.18 552.32,550.64C552.92,549.81 582.19,539.43 589.17,535.34C595.16,531.83 626.07,544.99 639.06,547.76C640.19,550.53 642.24,552.89 642.04,556.07C639.34,556.97 633.07,566.75 619.15,566.75C617.69,566.75 611.14,567.75 609.81,569.52C608.89,570.75 607.67,571.6 606.22,572.39C602.96,574.19 601.79,578.36 604.06,580.4C616.45,591.51 615.35,586.59 624.49,593.03C627.38,595.07 633.07,594.59 636.6,594.26C650.87,592.94 662.71,601.72 672.02,599.7C679.01,598.19 683.33,592.83 688.24,588.31C689.15,587.47 689.26,586.16 688.34,585.23C687.08,583.94 678.92,571.05 678.28,563.06C677.83,557.39 674.74,560.3 673.04,559.26C672.32,556.49 670.37,553.92 669.65,550.43C676.32,550.02 681.46,546.84 685.36,542.63C692.57,544.38 689.4,552.22 708.87,554.44C717.16,555.38 711.68,558.33 717.29,561.32C727.01,566.5 735.97,569.5 746.65,561.83C751.88,558.08 748.26,554.08 744.29,547.66C744.75,521.65 735.32,538 735.05,527.03C734.84,518.61 732.18,512.83 733,509.17C734.09,504.26 731.83,493.35 732.38,490.59C752.03,495.69 742.96,491.43 750.45,488.43C751.07,490.38 752.71,489.56 754.04,489.87C755.89,490.29 756.6,488.15 758.35,488.43C761.12,488.88 762.11,487.19 762.35,484.63C762.58,482.18 762.29,481.52 765.02,480.42C774.13,476.76 773.53,473.49 774.77,468.72C775.66,465.32 776.72,461.94 774.77,458.76C776.93,456.19 778.26,453.21 780.42,450.86C781.55,449.63 782.79,448.29 782.88,446.75C783.22,441.21 785.97,436.28 787.29,431.04C791.53,414.25 784.38,405.87 782.26,395.52C780.57,387.31 794.11,361.16 797.86,350.76C799.81,355.28 802.47,358.36 804.53,361.95C810.5,372.37 815.23,367.53 820.75,370.78C827.4,365.18 827.05,365.63 827.32,364C830.03,347.98 830.91,353.23 830.91,349.63C830.62,345.53 832.57,341.32 830.52,337.21ZM826,299.34C826.41,300.16 826,300.67 825.28,301.19C825.28,300.26 825.08,299.54 826,299.34ZM807.42,237.64C808.65,238.97 808.65,239.9 807.11,240.51C805.57,239.39 806.7,238.67 807.42,237.64ZM733.92,260.84C734.17,264.22 731.35,267.31 731.97,271.21C727.74,269.4 737.78,260.81 729.71,253.66C729.92,252.53 729.92,251.5 731.04,250.48C732.18,254.07 733.66,257.35 733.92,260.84ZM728.89,237.95C729.81,238.46 729.71,239.18 729.71,240.21C728.58,239.39 728.58,238.67 728.89,237.95ZM728.89,267.51C727.86,267.3 728.58,266.07 727.86,265.76C727.04,265.55 727.35,266.68 726.53,266.79C726.32,263.09 728.99,260.12 728.69,256.22C731.66,259.4 731.56,261.87 728.89,267.51ZM730.47,274.75C729.66,274.56 729.88,274.58 730.59,274.69C731.26,274.36 735.14,269.81 733.2,275C732.07,275.41 730.84,275.31 729.61,274.9C729.94,274.92 730.22,274.85 730.47,274.75ZM737.72,276.96C733.61,278.91 729.2,278.6 724.79,278.6C728.89,275.83 733.41,277.57 737.72,276.96ZM716.88,300.16C703.27,314.28 701.02,328.85 702.71,334.65C703.44,337.15 696.02,344.95 697.06,354.46C687.3,356.61 671.76,347.33 662.98,338.55C650.94,326.51 651.07,330.68 645.63,325.92C646.76,320.79 645.22,315.86 643.88,310.52C656.6,296.34 650.96,303.17 670.88,299.23C686.01,296.24 694.8,294.03 722.92,289.99C728.7,289.17 734.3,282.09 716.88,300.16ZM664.02,297.8C649.46,300.24 656.65,294.29 642.67,307.76C641.34,306.43 639.9,305.5 639.08,303.65C649.23,293.16 648.31,295.28 653.25,294.21C685.89,287.11 673.76,287.29 705.6,285.18C730.97,283.5 736.38,275.39 739.48,280.56C727.28,288.68 745.17,284.18 664.02,297.8ZM611.56,336.7C611.46,333 609.71,330.85 607.15,328.9C617.14,322.37 612.65,320.48 618.03,329C616.39,331.77 614.02,333.83 611.56,336.7ZM799.52,279.93C801.46,281.38 803.02,283.69 805.99,283.01C806.42,282.91 809.13,284.19 803.32,288.45C799.83,286.19 796.13,284.04 793.88,279.42C790.9,279.93 788.13,279.21 786.59,275.62C793.84,272.98 795.01,276.58 799.52,279.93ZM783.71,249.45C784.12,247.91 784.53,246.88 785.76,245.75C785.45,247.39 784.84,248.32 783.71,249.45ZM783.91,231.17C784.32,229.94 785.04,230.14 786.07,230.76C785.25,231.48 784.63,231.48 783.91,231.17ZM788.43,233.33C788.02,231.89 787.92,230.97 788.94,230.15C790.18,231.17 789.25,232 788.43,233.33ZM791.41,246.78C791.41,245.45 791.92,244.42 793.57,244.01C793.36,245.55 792.64,246.37 791.41,246.78ZM791.82,225.63C791.82,224.5 792.54,225.01 793.05,225.01C792.74,225.63 792.43,226.04 791.82,225.63ZM793.87,232.61C794.28,234.25 794.9,235.69 792.43,236C792.13,234.56 792.74,233.64 793.87,232.61ZM793.36,240.21C795,239.59 796.44,238.36 797.36,240.72C796.03,242.26 794.8,242.06 793.36,240.21ZM805.78,236.61C805.57,238.15 804.96,238.97 804.03,239.79C803.52,237.54 803.52,237.54 805.78,236.61ZM805.06,241.85C805.47,243.7 804.03,244.62 803.11,245.85C803.21,244.52 803.73,243.18 802.6,241.95C803.52,241.54 804.24,241.64 805.06,241.85ZM799.83,208.08C801.78,209.21 800.65,210.85 801.47,212.29C796.8,213.45 800.31,210.52 799.83,208.08ZM800.34,215.37C799.52,215.88 799.01,215.68 798.59,215.06C799.52,214.24 799.72,214.96 800.34,215.37ZM797.46,225.53C796.13,225.84 795.41,225.32 794.59,224.3C795.92,219.63 795.8,219.56 797.67,221.12C796.13,222.35 796.34,223.99 797.46,225.53ZM789.97,202.43C788.74,201.92 788.64,200.89 788.94,199.97C791.61,201.82 794.79,202.84 797.46,205C794.43,206.82 795.11,204.14 789.97,202.43ZM788.94,199.87C787.4,200.18 786.07,199.15 784.01,199.25C786.48,197.3 787.51,199.35 788.94,199.87ZM784.33,215.98C784.57,215.98 785,217.52 783.2,217.01C783.3,216.19 783.71,215.88 784.33,215.98ZM779.19,264.74C779.7,263.51 780.94,262.69 780.63,261.25C782.55,260.83 783.31,262.68 779.19,264.74ZM782.07,204.28C781.66,205 781.04,204.9 780.32,204.49C780.84,203.87 781.45,204.07 782.07,204.28ZM781.45,220.81C780.53,221.94 779.19,222.14 777.75,223.17C778.78,220.91 778.78,220.91 781.45,220.81ZM775.81,215.26C775.71,216.08 775.19,216.08 774.68,215.98C774.68,215.16 775.29,215.16 775.81,215.26ZM774.16,245.65C773.95,247.4 773.65,247.91 772.62,247.81C772.62,246.88 773.44,246.78 774.16,245.65ZM771.19,197.5C767.7,198.42 764.72,196.88 761.85,195.14C764.92,195.96 768.11,196.79 771.19,197.5ZM770.98,216.29C771.08,217.93 770.06,218.34 769.13,219.06C769.34,217.83 769.44,216.8 770.98,216.29ZM766.98,211.46C766.16,212.49 765.65,212.79 764.93,212.08C765.44,211.46 765.95,211.57 766.98,211.46ZM759.38,239.59C762.51,236.46 761.64,240.47 764.1,241.13C762.77,242.26 761.74,243.29 759.89,243.7C760.82,242.06 760.92,240.62 759.38,239.59ZM762.77,214.24C763.39,216.29 763.39,218.14 760.92,219.58C761.64,217.52 762.15,215.88 762.77,214.24ZM764,236.92C762.46,235.89 761.13,235.17 759.28,236.3C761.78,232.98 763.43,234.66 764,236.92ZM758.05,215.06C758.26,213.73 757.95,212.7 759.8,212.49C759.89,213.72 759.28,214.34 758.05,215.06ZM756.1,204.18C758.05,203.15 756.2,201.72 756.72,200.38C763.83,198.8 756.6,200.86 757.75,207.26C754.64,208.19 754.88,209.23 752.72,199.97C754.35,201.4 754.56,203.46 756.1,204.18ZM756.1,230.25C755.89,229.33 756.82,229.02 756.92,228.09C757.94,229.74 757.94,229.74 756.1,230.25ZM741.01,258.07C734.35,255.84 739.09,254.31 737.83,247.7C736.36,240 742.69,239.31 742.45,234.46C741.63,233.23 741.01,234.77 740.19,234.56C739.24,232.35 738.77,233.75 743.68,228.09C744.91,228.09 744.4,229.84 745.84,229.84C746.87,227.58 745.43,225.63 744.92,223.37C749.44,213.76 746.61,218.52 752.41,225.42C755.44,229.02 748.02,241.62 751.18,243.59C753.95,242.36 752.41,239.07 754.16,237.33C756.83,237.95 756.83,238.25 754.88,242.05C756.83,246.67 761.76,246.26 765.56,241.23C765.87,240.2 764.53,239.79 764.74,238.77C767.06,239.93 767.29,246.35 762.28,247.7C760.53,248.42 758.89,249.96 756.74,250.37C755.92,249.04 757.36,247.7 755.61,246.67C751.52,249.82 755.87,254.21 759.31,251.8C761.55,250.23 764.13,249.95 766.29,248.72C766.8,249.13 766.5,249.54 766.6,249.75C769.17,254.16 766.68,258.27 765.98,262.48C765.22,267.1 761.04,265.31 760.33,267.61C764.85,268.4 766.45,265.5 768.54,268.64C773.16,265.05 777.98,268.95 782.81,268.02C783.88,268.87 781.2,274.91 788.15,280.85C793.3,285.25 792.42,292.57 786.4,295.84C777.04,300.93 765.71,279.58 742.16,278.59C747.45,270.85 750.16,261.13 741.01,258.07ZM753.22,338.14C753.94,338.5 754.29,338.01 749.42,344.09C748.6,340.29 751.99,339.99 753.22,338.14ZM717.91,408.15C718.43,400.81 709.81,398.89 715.14,396.76C718.42,400.87 721.61,405.07 724.48,410.41C708.36,407.19 709.58,408.15 708.77,401.48C713.03,397.69 711.48,397.44 717.91,408.15ZM717.09,414.41C716.06,413.69 715.96,413.18 716.78,412.25C718.32,412.87 717.91,413.59 717.09,414.41ZM710.83,412.97C710.21,412.25 710.01,411.74 711.04,411.12C711.44,411.84 711.75,412.36 710.83,412.97ZM642.15,354.05C654.25,369.73 661.61,381.21 671.92,386.59C667.81,388.03 664.22,388.44 660.32,389.16C659.02,392.09 660.98,390.9 643.18,395.01C641.11,349.09 640.99,354.44 642.15,354.05ZM634.35,343.37C639.02,347.38 638.77,345.93 639.79,393.77C639.85,396.4 641.15,395.8 633.01,398.08C630.3,334.6 629.09,338.86 634.35,343.37ZM628.5,343.68C631.34,406.44 632.43,398.03 626.96,401.68C625.83,379.51 624.91,357.64 623.98,335.47C627.47,337.52 628.34,340.09 628.5,343.68ZM675.41,562.33C676.13,571.67 681.98,578.55 685.98,586.76C675.88,596.86 677.88,599.38 652.31,591.89C647.73,590.55 633.53,590.74 630.86,590.76C628.32,590.78 607.85,583.01 606.63,577.72C610.94,570.84 617.72,570.43 624.29,569.51C625.42,569.82 625.42,571.26 627.06,571.46C627.98,571.05 629.32,571.05 630.55,571.67C632.09,570.23 632.71,568.18 634.35,567.15C635.48,567.77 635.38,569.51 637.12,569.72C637.84,567.46 637.94,564.79 640.2,562.74C640.41,564.69 639.69,566.64 641.43,568.18C643.18,566.33 643.28,563.87 644.2,561.4C646.86,572.92 648.01,565.81 664.83,572.69C668.12,569.11 673.26,567.57 675.41,562.33ZM669.76,559.36C671.09,560.28 670.89,561.72 671.71,562.95C668.12,566.44 664.52,569.21 659.19,568.9C654.78,563.86 650.63,569.75 646.87,560.59C645.73,557.82 645.72,554.85 644.82,551.97C643.98,549.31 642.66,546.84 641.64,544.17C644.1,546.02 644.31,549.61 647.08,551.15C648.11,550.33 647.69,549.51 647.08,548.99C644.91,547.16 643.99,544.39 641.64,542.63C639.47,541 638.17,538.2 636.61,535.85C626.6,520.75 624.21,520.94 626.04,519.32C620.38,510.05 614.34,504.74 611.77,497.15C609.65,490.88 607.97,484.32 605.2,478.26C601.92,473.34 591.86,462.8 604.38,451.26C609.98,446.1 615.67,437.5 623.27,439.04C617.4,461.61 632.52,464.72 638.98,475.48C635.39,478.35 630.77,474.86 627.48,478.25C630.97,480.92 635.49,480 639.7,480.1C649.75,493.92 650.94,494.23 652.43,509.56C655.09,536.86 666.89,548.29 668.96,556.57C664.96,558.93 660.54,559.85 655.92,561.09C647.03,548.71 646.9,547.39 652.84,561.81C651.4,562.43 650.07,560.58 648.94,562.02C649.86,564.79 652.64,566.23 655.72,564.89C659.86,563.09 664.78,562.3 669.76,559.36ZM686.19,538.93C681.73,544.85 675.62,547.04 668.43,547.96C661.65,537.9 656.52,527.33 656.01,514.91C655.03,490.93 649.79,489.34 645.85,482.78C660.94,494.28 658.99,491.4 677.16,490.27C678.36,490.87 678.8,513.65 677.78,520.76C677.04,525.89 675.01,530.31 670.7,533.59C667.83,532.87 664.95,532.05 661.87,532.15C671.61,540.19 681.07,527.31 681.07,513.78C681.07,505.98 680.45,497.87 680.15,489.55C683.02,487.29 686.41,489.34 689.49,488.32C690,492.43 689.39,496.53 691.34,500.43C690.84,490.44 689.92,483.84 696.78,482.47C697.6,491.81 697.09,501.15 697.09,510.49C697.07,536.71 693.62,529.06 686.19,538.93ZM735.87,534.72C736.59,534.82 736.59,536.36 737.82,536.36C738.44,535.44 737,534.82 737.31,534C740.8,534.51 742.63,536.15 741.83,540.06C740.39,547.01 744.58,551.42 746.96,556.18C746.96,566.77 715.65,565.31 717.81,554.54C715.76,552.9 713.5,551.63 710.83,551.56C700.39,551.29 691.08,545.17 689.38,541.19C696.32,533.09 697.88,546.83 716.48,527.02C716.89,528.66 716.48,529.89 716.07,530.92C714.42,536.18 723.99,548.11 728.59,539.44C723.46,542.31 721.3,537.69 718.12,536.16C717.5,534.83 718.22,534 718.53,532.67C722.53,535.44 726.84,535.85 731.57,534.62C730.24,535.95 728.9,537.19 730.24,539.44C733.2,539.13 733.1,535.64 735.87,534.72ZM731.56,532.87C732.07,531.74 732.89,531.64 733.82,531.12C733.72,532.56 733.2,533.28 731.56,532.87ZM733.2,529.07C728.58,530.51 724.06,534.92 719.03,528.86C718,525.27 718.52,520.75 717.59,516.44C719.5,516.71 724.32,523.29 716.36,510.69C710.46,501.35 708.97,501.93 703.32,482.15C697.17,482.42 709.92,500.98 715.54,518.18C717.98,525.65 713.32,526.42 705.99,533.58C703.91,535.61 701.49,536.51 698.39,535.33C696.14,534.47 693.77,535.84 690.59,536.46C696.3,530.75 700.61,527.55 699.11,519.21C698.55,516.96 702.83,499.14 699.83,482.77C701,481.07 701.61,481.8 705.99,482.77C740.51,494.58 726.92,481.49 730.42,509.46C731.25,516.04 733.1,522.4 733.2,529.07ZM741.31,490.48C741.2,490.45 706.31,480.56 706.2,480.52C712.37,476.77 738.9,485 749.01,488.01C746.55,489.86 744.4,491.25 741.31,490.48ZM759.69,485.65C756.82,485.34 754.45,486.88 751.68,487.5C756.42,484.4 762.05,480.93 759.69,485.65ZM782.17,440.89C782.17,445.92 778.12,448.45 775.6,451.87C774.55,453.29 772.62,453.31 770.88,453.51C770.47,454.13 771.49,455.04 770.06,455.46C761.21,458.06 754.34,463.86 746.86,468.91C741.79,472.33 725,470.65 722.94,473.53C723.12,476.34 730.12,476.16 732.69,475.58C740.43,473.84 742.23,478.36 745.01,476.5C743.9,472.07 732.46,477.07 747.88,470.65C749.83,472.4 748.39,474.96 749.83,477.12C751.06,474.76 751.78,472.6 751.78,470.14C758.35,465.83 765.23,462.03 772.82,459.98C773.54,461.73 773.54,461.73 772,464.29C775.02,475.67 763.67,477.8 754.24,483.28C747.46,487.22 741.82,480.76 722.01,478.56C710.05,477.23 719.43,477.62 720.47,475.28C720.06,474.25 719.44,474.56 718.72,474.56C694.36,478.11 701.45,480.42 696.65,478.87C694.8,478.27 693.05,478.66 691.72,480.31C684.81,488.88 683.7,486.4 663.49,487.19C651,487.68 642.18,472.52 637.83,468.71C651.03,468.07 698.05,481.76 701.06,476.41C686.17,474.28 670.11,470.63 657.43,468.81C640.41,466.37 639.41,469.27 634.74,465.73C625.62,458.81 620.91,449.62 628.58,434.52C632.79,436.27 636.89,436.88 641.41,435.75C635.39,434.17 628.5,432.36 625.5,427.02C621.27,419.49 618.99,404.48 625.5,403.2C627.04,402.9 628.27,401.76 629.91,401.45C632.78,404.53 637.1,405.04 640.38,407.3C639.46,404.22 636.68,402.99 634.53,400.73C653.5,395.46 660.29,393.85 666.56,390.16C672.57,386.62 677.64,388.15 698.69,398.68C701.36,400.01 702.9,402.89 706.29,403.3C705.88,406.17 707.42,408.54 708.04,410.79C707.12,411.71 706.71,410.79 705.88,411.1C704.85,411.72 705.88,413.05 705.16,413.97C706.39,414.89 706.39,413.25 707.52,413.25C710.6,416.53 715.32,414.17 719.33,416.02C720.35,412.97 719.89,411.76 723.54,414.89C727.54,414.17 730.93,416.74 734.63,416.02C733.19,417.35 731.45,416.94 729.81,417.15C742.04,419.46 738.78,416.89 745.31,415.61C758.98,412.94 752.87,411.32 757.32,413.86C776.72,403.14 767.19,409.55 767.48,410.99C768.71,410.89 769.94,409.35 770.87,410.78C774.05,407.5 778.06,405.44 781.03,402.16C781.75,400.93 779.9,400 781.03,398.77C789.8,431.81 782.17,433.16 782.17,440.89ZM778.27,401.17C778.51,400.93 778.78,401.17 778.89,401.27C778.44,401.72 778.27,401.44 778.27,401.17ZM797.98,296.87C797.72,305.29 798.4,313.71 797.06,322.12C796.04,328.49 797.47,334.85 797.47,341.21C797.47,352.24 779.88,377.28 781.35,390.59C777.76,393.57 775.81,397.78 773.34,402.5C772.42,399.73 773.75,397.68 772.62,395.52C770.23,398.46 773.43,401.71 769.23,404.25C765.53,406.49 761.63,408.36 757.01,409.07C758.04,404.55 761.83,402.4 765.22,399.52C759.68,399.21 755.47,403.73 755.06,409.89C745.92,411.84 736.79,413.48 727.24,410.71C718.9,393.38 712.09,397.26 723.54,386.79C727.69,383 743.49,363.81 747.77,350.35C748.06,349.42 748.2,348.22 749.1,347.58C754.86,343.52 765.1,324.18 765.63,323.05C772.62,308.06 767.74,291.95 751.46,284.66C749,283.74 746.64,282.61 744.27,281.58C755.46,282.3 764.22,288.21 772.7,294.51C783.42,302.47 792.67,297.88 793.54,290.61C793.74,288.97 793.54,287.22 793.54,285.58C798.18,288.15 798.11,292.66 797.98,296.87Z" style="fill-rule:nonzero;"/>
        <path d="M512.3,16.42C511.11,16.85 511.11,17.32 511.48,24.12C577.75,1239.37 518.05,17.5 512.3,16.42Z" style="fill-rule:nonzero;"/>
        <path d="M80.54,16.22C78.4,17.05 78.89,10.5 83.62,96.6C143.57,1188.4 84.41,18.31 80.54,16.22Z" style="fill-rule:nonzero;"/>
        <path d="M361.4,271.11L361.4,282.3C365.19,279.63 364.99,273.98 361.4,271.11Z" style="fill-rule:nonzero;"/>
        <path d="M367.66,268.44C371.66,267.31 374.95,261.87 373.92,257.76C371.24,264.01 366.88,265.09 367.66,268.44Z" style="fill-rule:nonzero;"/>
        <path d="M556.64,533.9C562.18,534.21 567.11,532.36 571.63,529.38C566.8,531.54 561.67,532.56 556.64,533.9Z" style="fill-rule:nonzero;"/>
        <path d="M124.78,534C130.32,534.31 135.15,532.46 139.66,529.48C134.74,531.23 129.81,532.77 124.78,534Z" style="fill-rule:nonzero;"/>
        <path d="M372.48,247.09C371.56,250.07 372.69,252.84 372.69,255.61C375.05,252.94 374.84,250.47 372.48,247.09Z" style="fill-rule:nonzero;"/>
        <path d="M144.8,526.92C148.91,527.33 152.6,526.71 155.78,524.25C155.32,522.87 156.53,523.23 144.8,526.92Z" style="fill-rule:nonzero;"/>
        <path d="M587.75,523.63C584.05,524.86 580.36,525.68 576.87,527.22C580.87,527.22 584.67,526.71 587.75,523.63Z" style="fill-rule:nonzero;"/>
        <path d="M605.81,517.88C602.94,518.19 601.09,519.73 598.83,521.68C600.99,521.78 602.53,523.12 604.27,522.09C603.96,520.96 602.83,521.58 602.32,520.76C603.35,519.53 605.2,519.94 605.81,517.88Z" style="fill-rule:nonzero;"/>
        <path d="M173.64,517.99C170.87,518.5 169.02,519.84 166.56,521.89C169.02,521.68 170.56,523.33 172.41,522.1C172,520.97 170.87,521.69 170.46,520.77C171.08,519.53 173.34,520.04 173.64,517.99Z" style="fill-rule:nonzero;"/>
        <path d="M378.13,233.23C379.05,230.66 378.23,228.61 376.69,226.56C376.59,228.92 375.97,231.38 378.13,233.23Z" style="fill-rule:nonzero;"/>
        <path d="M373.41,221.73C372.49,220.29 371.87,219.47 370.33,220.19C371.05,222.45 371.05,222.45 373.41,221.73Z" style="fill-rule:nonzero;"/>
        <path d="M505.01,528.56C506.55,529.18 507.88,530 509.73,529.79C507.47,528.15 507.47,528.15 505.01,528.56Z" style="fill-rule:nonzero;"/>
        <path d="M78.07,529.79C75.3,528.15 75.3,528.15 73.04,528.46C74.38,529.18 75.82,529.89 78.07,529.79Z" style="fill-rule:nonzero;"/>
        <path d="M187.5,522.09C186.27,520.96 184.83,520.86 183.19,520.96C188.34,523.34 186.86,522.73 187.5,522.09Z" style="fill-rule:nonzero;"/>
        <path d="M825.28,338.45C825.79,340.61 826.2,342.45 826.72,344.71C827.64,342.04 826.93,340.29 825.28,338.45Z" style="fill-rule:nonzero;"/>
        <path d="M615.26,520.86C616.59,521.37 617.72,522.5 619.67,522.61C618.34,520.86 616.9,520.76 615.26,520.86Z" style="fill-rule:nonzero;"/>
        <path d="M374.33,187.65C373.3,188.47 373,189.09 373.2,190.63C374.64,189.81 374.74,188.98 374.33,187.65Z" style="fill-rule:nonzero;"/>
        <path d="M360.78,267.72C361.4,266.9 361.6,266.18 360.88,265.05C359.65,266.08 359.45,266.79 360.78,267.72Z" style="fill-rule:nonzero;"/>
        <path d="M372.69,194.94C373.72,194.43 373.82,193.71 373.2,192.58C372.17,193.3 371.87,194.01 372.69,194.94Z" style="fill-rule:nonzero;"/>
        <path d="M379.36,168.56C380.08,167.94 379.77,167.43 379.46,166.71C378.54,167.43 378.44,168.04 379.36,168.56Z" style="fill-rule:nonzero;"/>
        <path d="M374.54,220.81C374.44,221.22 373.62,221.02 373.72,221.84C374.1,222.42 375.68,221.95 374.54,220.81Z" style="fill-rule:nonzero;"/>
        <path d="M218.81,431.55C221.68,432.78 224.46,431.96 227.43,431.65C223.84,438.12 223.84,441.3 227.64,444.17C223.48,438.8 227.91,433.52 232.88,429.29C237.01,425.77 237.1,431.41 247.35,424.98C249.62,423.56 252.38,422.82 254.64,421.18C253.51,423.54 252.18,425.9 253.41,428.57C253.31,425.59 255.26,423.54 256.49,421.38C256.08,420.56 255.46,420.66 254.95,420.87C254.82,421 254.85,421.02 254.85,420.77C255.57,418.82 257.11,419.23 258.55,419.44C263.54,428.34 262.55,427.04 263.79,426.63C262.25,424.37 262.25,421.81 261.63,418.93C264.4,419.44 266.76,418.01 269.23,418.72C270.98,428.37 279.6,432.89 284.01,441C284.93,438.54 285.03,438.44 284.63,437.82C280.89,432.1 277.69,426.07 273.44,420.68C272.4,419.36 270.98,418.32 272.11,416.47C269.24,414.83 266.56,414.7 263.8,416.06C259.19,418.32 254.2,413.88 251.07,421.19C247.01,420.96 243.39,426.96 235.98,425.4C234.13,424.85 231.71,425.6 220.79,429.92C220.04,430.12 218.91,430.22 218.81,431.55Z" style="fill-rule:nonzero;"/>
        <path d="M280.81,471.89C266.03,471.09 233.31,461.29 220.24,456.7C215.49,455.03 216.86,457.37 217.88,457.62C231.19,461.71 260.47,473.79 277.32,474.04C284.57,474.16 283.11,471.89 280.81,471.89Z" style="fill-rule:nonzero;"/>
        <path d="M204.65,418C205.47,416.97 207.01,416.77 207.11,415.23C205.16,413.79 203.62,415.95 201.67,415.64C202.9,411.02 200.44,407.63 198.18,404.25C198.49,408.05 200.44,411.54 199.41,415.64C197.87,415.64 196.12,415.64 196.23,417.69C196.43,421.59 199.82,421.59 202.39,422.1C202.7,423.13 201.26,423.64 202.18,424.87C204.54,423.03 204.95,420.57 204.65,418ZM201.57,419.64C201.27,419.79 200.85,419.33 201.16,419.02C201.46,419.13 201.67,419.34 201.57,419.64Z" style="fill-rule:nonzero;"/>
        <path d="M321.67,475.39C321.36,475.7 321.16,476.21 321.98,477.34C326.8,472.21 333.48,469.85 338.82,465.33C332.04,466.76 326.29,470.25 321.67,475.39Z" style="fill-rule:nonzero;"/>
        <path d="M278.04,460.5C285.12,463.58 292.1,466.86 299.6,468.61C298.16,466.66 280.3,460.3 278.04,460.5Z" style="fill-rule:nonzero;"/>
        <path d="M239.86,478.36C239.55,478.26 239.35,478.57 239.24,478.98C242.52,481.14 252.89,481.34 255.66,479.19C254.06,478.11 249.66,479.59 239.86,478.36Z" style="fill-rule:nonzero;"/>
        <path d="M246.53,440.28C242.53,434.74 246.74,430.84 249.4,426.11C242.81,427.31 240.94,438.33 246.53,440.28Z" style="fill-rule:nonzero;"/>
        <path d="M333.99,411.02C335.12,416.46 336.25,421.59 337.38,426.73C338.3,421.08 336.55,412.66 333.99,411.02Z" style="fill-rule:nonzero;"/>
        <path d="M210.19,410.1C210.91,412.36 212.14,414.31 213.68,416.67C215.22,412.15 213.88,409.69 210.19,410.1Z" style="fill-rule:nonzero;"/>
        <path d="M214.5,429.29C216.96,425.59 217.07,422.82 214.71,420.67C214.71,423.65 213.47,426.32 214.5,429.29Z" style="fill-rule:nonzero;"/>
        <path d="M220.97,411.64C218.92,411.85 217.21,411.65 216.66,413.69C216.17,415.5 220.54,416.6 220.97,411.64Z" style="fill-rule:nonzero;"/>
        <path d="M277.02,417.39C279.79,418.21 281.95,420.06 284.72,421.19C280.09,416.98 279.79,416.77 277.02,417.39Z" style="fill-rule:nonzero;"/>
        <path d="M244.17,406.61C242.12,405.99 240.47,406.51 239.04,408.56C241.5,409.38 242.83,408.04 244.17,406.61Z" style="fill-rule:nonzero;"/>
        <path d="M339.02,441.3C339.94,438.94 340.46,436.58 339.64,434.11C338.92,436.38 338.61,438.74 339.02,441.3Z" style="fill-rule:nonzero;"/>
        <path d="M217.58,433.3C214.6,434.12 214.3,435.56 216.04,438.54C215.73,436.58 216.55,434.94 217.58,433.3Z" style="fill-rule:nonzero;"/>
        <path d="M318.8,482.78C319.31,481.34 318.59,479.91 318.59,478.47C316.23,481.54 316.33,482.06 318.8,482.78Z" style="fill-rule:nonzero;"/>
        <path d="M212.86,434.73C214.19,433.5 214.81,432.16 214.4,429.91C212.24,431.45 212.24,432.99 212.86,434.73Z" style="fill-rule:nonzero;"/>
        <path d="M231.13,409.38C229.8,410.1 227.95,410 226.72,411.84C229.49,412.46 229.49,412.46 231.13,409.38Z" style="fill-rule:nonzero;"/>
        <path d="M204.54,424.57C205.05,426.01 206.18,426.52 207.62,426.93C206.49,424.47 206.49,424.47 204.54,424.57Z" style="fill-rule:nonzero;"/>
        <path d="M255.77,403.43C254.02,403.33 252.9,403.53 252.18,405.48C254.23,405.58 255.05,404.86 255.77,403.43Z" style="fill-rule:nonzero;"/>
        <path d="M332.76,455.37C334.09,454.34 335.02,453.01 335.33,451.37C333.99,452.49 333.06,453.73 332.76,455.37Z" style="fill-rule:nonzero;"/>
        <path d="M310.69,309.19C308.23,318.22 299.81,321.71 294.27,327.67C294.63,327.65 316.84,319.65 310.69,309.19Z" style="fill-rule:nonzero;"/>
        <path d="M265.42,268.03C269.21,265.18 262.05,254.83 260.9,249.96C260.71,249.14 259.98,248.42 258.74,248.52C258.33,252.32 261.38,254.79 262.44,258.17C263.44,261.36 263.77,264.84 265.42,268.03Z" style="fill-rule:nonzero;"/>
        <path d="M280.3,307.75C279.32,302.26 277.66,294.18 274.35,299.02C275.89,302.21 277.63,305.29 280.3,307.75Z" style="fill-rule:nonzero;"/>
        <path d="M227.23,230.35C231.13,229.12 231.44,225.53 232.47,221.83C227.23,224.71 225.48,227.68 227.23,230.35Z" style="fill-rule:nonzero;"/>
        <path d="M280.71,334.13C284.2,333.72 287.5,332.23 290.87,331.36C292,331.07 292.82,330.13 292.41,327.87C278.86,333.82 280.32,332.96 280.71,334.13Z" style="fill-rule:nonzero;"/>
        <path d="M224.87,224.19C226,224.09 226.31,223.68 226.31,223.27C225.85,218 231.89,213.2 225.08,207.97C227.84,213.72 224.56,218.96 224.87,224.19Z" style="fill-rule:nonzero;"/>
        <path d="M258.23,247.09C259.56,244.01 257.1,241.14 252.28,240.01C254.43,242.16 257.2,243.9 258.23,247.09Z" style="fill-rule:nonzero;"/>
        <path d="M226.61,200.58C226.92,203.66 227.53,206.74 229.18,209.51C229.69,206.13 228.56,203.25 226.61,200.58Z" style="fill-rule:nonzero;"/>
        <path d="M312.23,306.42C313.26,303.85 312.02,299.64 309.87,299.23C311.92,301.18 308.84,304.67 312.23,306.42Z" style="fill-rule:nonzero;"/>
        <path d="M224.05,207.05C224.97,204.07 223.23,199.76 220.35,197.91C221.79,201.3 222.92,204.18 224.05,207.05Z" style="fill-rule:nonzero;"/>
        <path d="M230.51,255.4C232.7,258.58 235.6,264.38 237.9,263.61C230.81,254.25 231.34,254.57 230.51,255.4Z" style="fill-rule:nonzero;"/>
        <path d="M216.14,228.2C214.09,227.48 212.44,226.35 210.6,225.43C212.65,229.53 213.68,230.05 216.14,228.2Z" style="fill-rule:nonzero;"/>
        <path d="M248.99,235.79C247.66,234.04 246.12,232.71 244.06,231.79C245.3,234.66 245.81,235.08 248.99,235.79Z" style="fill-rule:nonzero;"/>
        <path d="M282.97,315.25C283.79,315.76 283.79,317.3 285.23,316.69C285.02,315.08 285.01,315.05 283.07,315.24C282.97,312.17 282.76,311.86 279.89,311.55C280.28,315.42 283.42,315.02 282.97,315.25Z" style="fill-rule:nonzero;"/>
        <path d="M302.88,339.37C305.04,337.73 305.96,336.29 305.04,334.13C303.71,335.47 303.5,337.11 302.88,339.37Z" style="fill-rule:nonzero;"/>
        <path d="M220.35,196.79C219.84,194.53 219.12,192.99 217.58,191.35C216.86,194.22 218.3,195.35 220.35,196.79Z" style="fill-rule:nonzero;"/>
        <path d="M305.14,278.5C304.93,280.96 304.73,282.61 304.52,284.35C305.55,282.71 306.99,281.17 305.14,278.5Z" style="fill-rule:nonzero;"/>
        <path d="M176.72,126.67C178.26,126.46 179.18,126.05 178.88,124C177.34,124.31 176.62,125.03 176.72,126.67Z" style="fill-rule:nonzero;"/>
        <path d="M297.75,343.48C299.08,343.38 299.7,342.86 300.21,341.32C298.78,341.83 297.96,342.24 297.75,343.48Z" style="fill-rule:nonzero;"/>
        <path d="M268.6,269.46C268.81,268.84 269.11,268.33 268.09,267.41C267.88,268.44 267.57,268.95 268.6,269.46Z" style="fill-rule:nonzero;"/>
        <path d="M340.97,309.81C341.59,307.14 341.39,304.37 341.89,301.7C342.91,296.31 339.96,283.49 340.97,309.81Z" style="fill-rule:nonzero;"/>
        <path d="M279.07,396.65C281.23,400.35 283.69,403.84 285.74,407.94C286.46,404.86 282.97,399.11 279.07,396.65Z" style="fill-rule:nonzero;"/>
        <path d="M339.53,332.18C339.63,334.23 338.5,336.08 339.12,338.34C340.92,331.52 340.72,332.48 339.53,332.18Z" style="fill-rule:nonzero;"/>
        <path d="M197.77,509.47C197.67,509.16 197.26,508.96 196.95,508.96C193.77,509.28 192.27,502.42 188.53,499.93C186.78,502.38 191.71,507.05 193.87,509.27C197.41,512.92 201.77,515.34 205.98,517.89C208.54,519.44 210.29,521.69 212.55,523.54C212.27,518.7 200.47,513.03 197.77,509.47Z" style="fill-rule:nonzero;"/>
        <path d="M175.39,460.81C173.44,458.14 176.42,455.16 173.85,452.6C171.49,458.76 174.57,464.61 180.01,464.92C179.8,461.73 177.44,461.01 175.39,460.81Z" style="fill-rule:nonzero;"/>
        <path d="M210.5,543.96C211.63,546.73 212.76,549.61 215.63,551.15C214.22,547.19 210.77,543.68 210.5,543.96Z" style="fill-rule:nonzero;"/>
        <path d="M185.76,497.97C187.2,495.71 185.66,494.38 184.94,492.94C184.53,494.68 184.63,496.22 185.76,497.97Z" style="fill-rule:nonzero;"/>
        <path d="M194.38,476.51C192.33,475.69 190.89,475.69 189.04,477.54C191.2,477.64 192.74,477.95 194.38,476.51Z" style="fill-rule:nonzero;"/>
        <path d="M173.13,468.4C172.41,469.94 173.34,470.97 174.16,472.1C174.16,470.87 174.67,469.33 173.13,468.4Z" style="fill-rule:nonzero;"/>
        <path d="M215.22,524.35C214.91,525.48 215.22,525.99 216.45,526.4C216.45,525.17 216.24,524.56 215.22,524.35Z" style="fill-rule:nonzero;"/>
        <path d="M186.07,476.92C186.89,477.43 187.51,477.64 188.02,476.3C186.99,475.9 186.37,475.8 186.07,476.92Z" style="fill-rule:nonzero;"/>
        <path d="M259.05,508.03C259.15,512.44 257,516.86 258.64,521.27C258.44,516.86 260.49,512.55 259.05,508.03Z" style="fill-rule:nonzero;"/>
        <path d="M257,532.05C257.72,529.79 258.54,527.53 259.26,525.27C257.2,527.12 257.2,529.59 257,532.05Z" style="fill-rule:nonzero;"/>
        <path d="M223.64,575.37C221.18,574.23 219.23,575.16 217.69,577.53C215.43,574.25 213.09,573.45 210.71,575.07C206.81,577.73 210.18,585.77 217.59,579.89C219.23,583.59 222.31,583.07 225.39,582.35C225.59,579.68 226.93,576.89 223.64,575.37ZM215.42,578.45C215.2,581.27 210.9,581.28 210.9,578.14C210.91,574.98 215.87,575.3 215.42,578.45ZM223.94,579.37C222.81,579.37 221.17,578.75 221.89,581.12C219.94,581.02 219.3,579.88 219.53,578.35C219.95,575.56 224.66,576.13 223.94,579.37Z" style="fill-rule:nonzero;"/>
        <path d="M202.8,573.93C202.08,576.19 201.98,578.55 202.49,581.01C204.24,580.91 203.41,578.88 204.65,579.16C206.18,579.5 206.09,581.83 208.04,581.32C208.25,580.09 207.04,579.08 208.35,577.62C210.87,574.81 205.4,572.73 202.8,573.93ZM203.82,576.19C205.05,574.86 205.98,575.27 207.31,576.19C205.88,577.94 204.95,577.42 203.82,576.19Z" style="fill-rule:nonzero;"/>
        <path d="M336.96,272.44C338.19,275.01 339.53,277.57 340.24,280.75C342.51,277.06 340.97,273.16 336.96,272.44Z" style="fill-rule:nonzero;"/>
        <path d="M307.61,251.81C310.59,248.94 310.69,248.73 309.77,246.47C308.02,247.91 308.63,250.17 307.61,251.81Z" style="fill-rule:nonzero;"/>
        <path d="M303.81,263C305.14,261.56 305.86,260.74 305.25,259C303.91,259.92 303.6,260.94 303.81,263Z" style="fill-rule:nonzero;"/>
        <path d="M305.24,257.76C306.27,257.14 306.99,256.63 306.37,255.3C305.45,255.71 304.94,256.22 305.24,257.76Z" style="fill-rule:nonzero;"/>
        <path d="M285.64,537.8C289.29,542.54 294.92,545.16 296.52,539.44C292.34,542.02 290.54,539.17 286.05,536.36C285.84,536.77 285.24,537.28 285.64,537.8Z" style="fill-rule:nonzero;"/>
        <path d="M294.47,528.35C294.78,523.22 291.7,519.42 289.75,515.11C289.64,516.75 293.13,526.71 294.47,528.35Z" style="fill-rule:nonzero;"/>
        <path d="M650.77,431.66C651.41,433.27 657.07,432.42 659.5,431.76C655.5,438.23 655.91,442.64 659.71,444.59C654.63,437.45 662.19,432.28 664.84,429.5C668.18,426 670.02,431.39 678.7,425.5C681.39,423.68 684.9,423.09 687.12,420.26C688.02,419.11 689.48,419.54 690.61,419.75C697.64,432.31 694.92,427.41 693.69,419.44C696.46,419.44 698.82,418.52 701.29,418.82C702.83,428.57 711.56,432.99 715.66,440.69C717.41,439.56 717.1,438.74 716.58,437.92C702.98,416.46 703.16,418.37 704.06,416.47C701.19,414.93 698.52,414.83 695.95,416.37C690.82,418.57 686.64,414.36 683.22,421.4C678.54,421.66 675.03,427.37 668.03,425.71C665.5,424.94 651.03,430.25 650.77,431.66Z" style="fill-rule:nonzero;"/>
        <path d="M649.95,457.73C660.95,461.23 708.3,479.36 714.62,472.61C691.93,470.15 670.68,462.24 648.92,455.88C648.82,457.22 649.33,457.53 649.95,457.73Z" style="fill-rule:nonzero;"/>
        <path d="M636.71,418C637.53,416.97 638.87,416.77 638.97,415.23C637.22,413.59 635.69,415.74 633.84,415.64C634.15,410.71 632.71,406.4 629.63,404.25C630.55,408.15 632.2,411.64 631.48,415.85C629.84,415.44 628.12,415.64 628.2,417.8C628.34,421.7 631.79,421.5 634.15,422.21C634.77,423.24 633.02,423.85 634.25,424.88C636.51,422.93 636.81,420.47 636.71,418Z" style="fill-rule:nonzero;"/>
        <path d="M769.65,465.12C763.39,468.2 756.92,470.36 752.81,476.82C755.07,476.31 768.52,466.86 769.65,465.12Z" style="fill-rule:nonzero;"/>
        <path d="M731.46,469.02C731.56,468.51 731.77,468.1 731.87,467.58C724.99,463.88 716.99,463.37 710.01,460.09C716.99,463.48 723.97,466.86 731.46,469.02Z" style="fill-rule:nonzero;"/>
        <path d="M671.2,478.77C675.51,481.13 684.65,481.23 687.32,479.49C687.32,478.13 687.82,478.77 671.2,478.77Z" style="fill-rule:nonzero;"/>
        <path d="M680.34,426.01C675.94,428.37 672.49,435.52 677.98,440.48C677.36,438.02 676.2,435.79 677.36,432.99C678.34,430.65 680.44,428.88 680.34,426.01Z" style="fill-rule:nonzero;"/>
        <path d="M766.16,412.46C774,447.06 768.2,413.11 767.49,411.02C766.67,411.12 765.85,411.12 766.16,412.46Z" style="fill-rule:nonzero;"/>
        <path d="M641.95,410C643.18,412.46 643.9,414.62 645.75,416.36C647.18,412.05 645.95,409.79 641.95,410Z" style="fill-rule:nonzero;"/>
        <path d="M647.08,420.98C646.26,423.65 645.75,426.32 646.77,428.99C647.9,426.32 649.34,423.75 647.08,420.98Z" style="fill-rule:nonzero;"/>
        <path d="M653.03,411.64C650.87,411.85 649.03,411.74 648.41,413.9C650.88,416.05 651.9,415.54 653.03,411.64Z" style="fill-rule:nonzero;"/>
        <path d="M685.16,429.5C685.98,426.01 686.7,423.34 688.44,421.08C685.27,422.62 684.34,425.09 685.16,429.5Z" style="fill-rule:nonzero;"/>
        <path d="M771.19,441.41C771.6,438.95 772.73,436.59 771.19,433.92C770.6,441.23 770.33,441.84 771.19,441.41Z" style="fill-rule:nonzero;"/>
        <path d="M708.88,417.28C711.75,418.1 713.91,419.95 716.58,421.08C712.06,416.98 711.54,416.67 708.88,417.28Z" style="fill-rule:nonzero;"/>
        <path d="M676.03,406.2C673.98,405.89 672.44,406.71 671,408.25C673.77,408.97 674.49,408.66 676.03,406.2Z" style="fill-rule:nonzero;"/>
        <path d="M663.2,409.79C661.56,409.89 659.92,410.2 658.58,411.84C661.35,413.38 661.96,410.92 663.2,409.79Z" style="fill-rule:nonzero;"/>
        <path d="M649.64,433.09C646.66,434.12 646.15,435.55 648.1,438.53C647.39,436.38 649.03,434.94 649.64,433.09Z" style="fill-rule:nonzero;"/>
        <path d="M751.17,482.98C750.66,481.13 751.27,479.59 750.25,478.16C748.4,481.75 748.4,481.95 751.17,482.98Z" style="fill-rule:nonzero;"/>
        <path d="M645.13,435.04C646.16,433.5 646.88,432.17 646.16,429.91C644.1,432.48 644.1,432.48 645.13,435.04Z" style="fill-rule:nonzero;"/>
        <path d="M636.3,424.06C637.02,426.01 638.05,426.63 640,427.04C639.07,425.39 638.56,424.16 636.3,424.06Z" style="fill-rule:nonzero;"/>
        <path d="M764.51,455.68C765.74,454.45 766.97,453.22 767.28,451.37C765.85,452.39 765.03,453.93 764.51,455.68Z" style="fill-rule:nonzero;"/>
        <path d="M688.24,403.32C686.29,403.32 684.96,403.22 684.44,405.37C686.19,405.68 687.01,404.66 688.24,403.32Z" style="fill-rule:nonzero;"/>
        <path d="M680.44,379.61C677.46,377.76 675.61,374.59 672.54,372.83C670.38,371.6 667.82,371.08 666.07,369.24C652.86,355.26 648.83,348.48 646.57,352.1C657.24,362.16 666.48,373.76 680.44,379.61Z" style="fill-rule:nonzero;"/>
        <path d="M696.56,367.39C698.61,370.16 700.98,372.11 702.51,374.78C704.16,377.65 707.15,379.17 709.18,381.56C714.41,387.7 722.31,379.92 717.91,373.66C716.94,374.21 719.15,379.44 714.73,380.74C706.7,383.11 704.41,368.63 696.56,367.39Z" style="fill-rule:nonzero;"/>
        <path d="M727.15,293.29C727.35,294.81 728.3,294.42 742.14,292.26C740.57,288.66 729.54,291.69 727.15,293.29Z" style="fill-rule:nonzero;"/>
        <path d="M714.11,342.76C712.77,345.53 706.7,348.9 707.44,352.2C710.82,352.56 710.05,346.63 715.75,344.91C717.09,344.51 718.52,343.68 718.93,341.83C717.09,341.42 714.85,341.23 714.11,342.76Z" style="fill-rule:nonzero;"/>
        <path d="M694.91,372.22C693.37,368.83 686.29,363.08 682.69,361.95C687.01,365.03 689.88,369.86 694.91,372.22Z" style="fill-rule:nonzero;"/>
        <path d="M743.78,292.66C746.45,295.23 748.91,298 750.76,301.39C752.71,298.31 749.22,294.1 743.78,292.66Z" style="fill-rule:nonzero;"/>
        <path d="M737.52,359.59C735.16,359.9 733.82,361.44 732.9,363.39C734.85,362.57 736.8,361.65 737.52,359.59Z" style="fill-rule:nonzero;"/>
        <path d="M743.16,300.46C741.83,298.61 740.9,296.25 737.62,295.74C739.16,298.51 741.21,299.44 743.16,300.46Z" style="fill-rule:nonzero;"/>
        <path d="M623.57,321.3C625.01,321.51 626.55,322.12 627.88,320.48C626.03,319.15 624.8,320.28 623.57,321.3Z" style="fill-rule:nonzero;"/>
        <path d="M682.8,381.77C684.55,383.21 685.88,384.13 687.83,383.93C686.5,382.9 685.47,381.25 682.8,381.77Z" style="fill-rule:nonzero;"/>
        <path d="M641.95,330.44C643.28,331.36 644.41,331.57 646.36,331.67C643.9,329.52 643.9,329.52 641.95,330.44Z" style="fill-rule:nonzero;"/>
        <path d="M688.55,360.82C689.88,361.95 691.01,362.87 692.14,363.8C691.12,361.13 691.12,361.13 688.55,360.82Z" style="fill-rule:nonzero;"/>
        <path d="M697.17,388.13C698.4,389.36 699.84,389.98 701.58,390.08C700.25,389.05 698.92,388.23 697.17,388.13Z" style="fill-rule:nonzero;"/>
        <path d="M631.99,314.02C630.45,313.2 629.32,313.71 627.88,315.15C629.83,315.66 631.17,315.86 631.99,314.02Z" style="fill-rule:nonzero;"/>
        <path d="M694.5,386.9C692.75,385.98 691.73,385.15 690.19,385.36C691.22,386.28 692.14,387.72 694.5,386.9Z" style="fill-rule:nonzero;"/>
        <path d="M723.04,339.06C721.19,338.03 719.96,337.83 718.83,339.68C720.27,340.5 721.4,339.88 723.04,339.06Z" style="fill-rule:nonzero;"/>
        <path d="M727.56,369.24C728.38,368.62 729,368.01 729.1,366.88C727.25,367.39 727.25,367.39 727.56,369.24Z" style="fill-rule:nonzero;"/>
        <path d="M735.77,299.23C734.54,299.44 733.92,300.36 733.51,301.39C735.05,300.88 735.05,300.88 735.77,299.23Z" style="fill-rule:nonzero;"/>
        <path d="M724.48,338.75C725.2,338.75 725.81,338.65 726.23,338.03C725.2,337.42 725.2,337.42 724.48,338.75Z" style="fill-rule:nonzero;"/>
        <path d="M646.05,348.3C646.05,347.07 645.43,346.55 644.41,346.04C644.51,347.17 644.92,347.79 646.05,348.3Z" style="fill-rule:nonzero;"/>
        <path d="M728.28,308.88C727.97,309.29 727.46,309.7 728.18,310.73C729.09,308.91 729.01,309.25 728.28,308.88Z" style="fill-rule:nonzero;"/>
        <path d="M685.37,358.87C684.86,358.46 684.65,357.95 683.73,357.95C683.83,358.87 684.14,359.39 685.37,358.87Z" style="fill-rule:nonzero;"/>
        <path d="M764.1,396.75C767.38,393.98 768.31,388.85 766.46,384.33C765.64,388.75 764.92,392.54 764.1,396.75Z" style="fill-rule:nonzero;"/>
        <path d="M775.6,303.03C779.91,303.44 782.48,306.83 785.66,309.09C784.12,304.26 779.09,301.18 775.6,303.03Z" style="fill-rule:nonzero;"/>
        <path d="M769.85,365.55C771.7,361.75 771.7,361.75 771.29,360.11C769.65,362.88 769.65,362.88 769.85,365.55Z" style="fill-rule:nonzero;"/>
        <path d="M777.34,326.54C779.39,326.85 780.62,327.87 782.27,326.85C780.94,325.92 779.5,325.61 777.34,326.54Z" style="fill-rule:nonzero;"/>
        <path d="M790.79,307.03C792.64,306.62 793.56,305.9 794.49,304.36C792.64,304.88 791.61,305.39 790.79,307.03Z" style="fill-rule:nonzero;"/>
        <path d="M740.39,406.09C740.49,407.32 740.9,408.45 741.93,409.17C741.72,407.94 741.42,406.92 740.39,406.09Z" style="fill-rule:nonzero;"/>
        <path d="M641.84,518.81C638.53,517.62 639.28,515.64 635.27,513.78C632.19,512.35 630.34,508.85 626.75,508.13C626.04,508.13 622.28,499.47 620.39,500.33C619.02,502.49 624,507.31 625.83,509.16C629.45,512.83 633.83,515.44 638.15,517.99C640.61,519.44 642.26,521.69 644.51,523.33C644,521.48 643.71,519.48 641.84,518.81Z" style="fill-rule:nonzero;"/>
        <path d="M607.56,460.81C605.1,458.24 608.89,454.96 605.51,452.5C604.18,459.99 606.54,464.41 611.98,464.92C611.77,461.73 609.51,461.12 607.56,460.81Z" style="fill-rule:nonzero;"/>
        <path d="M605.09,474.15C603.65,475.59 605.19,476.92 605.19,478.26C607.45,476.92 607.45,475.69 605.09,474.15Z" style="fill-rule:nonzero;"/>
        <path d="M617.93,497.76C618.34,495.6 618.34,495.6 616.8,492.94C617.21,494.48 615.87,496.43 617.93,497.76Z" style="fill-rule:nonzero;"/>
        <path d="M626.45,476.82C624.19,475.59 622.75,475.79 621.32,477.23C622.96,477.95 624.39,477.75 626.45,476.82Z" style="fill-rule:nonzero;"/>
        <path d="M606.33,472.61C606.54,470.76 606.23,469.53 605.1,467.89C604.48,469.94 605.09,471.18 606.33,472.61Z" style="fill-rule:nonzero;"/>
        <path d="M617.82,476.72C618.74,477.75 619.36,477.54 620.28,476.41C619.16,475.9 618.44,475.9 617.82,476.72Z" style="fill-rule:nonzero;"/>
        <path d="M647.18,524.35C646.97,525.48 647.28,525.89 648.21,526.1C648.62,525.17 648.21,524.66 647.18,524.35Z" style="fill-rule:nonzero;"/>
        <path d="M690.5,521.78C690.4,517.06 692.35,512.54 691.01,507.82C691.01,512.44 689.17,516.96 690.5,521.78Z" style="fill-rule:nonzero;"/>
        <path d="M689.27,531.33C689.99,529.28 690.6,527.22 691.22,525.17C689.06,526.71 689.27,529.07 689.27,531.33Z" style="fill-rule:nonzero;"/>
        <path d="M747.88,269.36C750.86,264.95 754.04,260.84 757.12,256.63C753.12,260.22 749.32,263.92 747.88,269.36Z" style="fill-rule:nonzero;"/>
        <path d="M753.73,252.32C751.16,253.76 751.16,253.76 750.55,256.02C751.68,254.99 753.12,254.37 753.73,252.32Z" style="fill-rule:nonzero;"/>
        <path d="M759.07,256.43C760.1,255.61 761.23,254.79 762.25,253.97C760.41,253.76 759.38,254.68 759.07,256.43Z" style="fill-rule:nonzero;"/>
        <path d="M659.5,575.47C657.45,574.34 655.7,574.96 653.34,577.42C647.38,568.9 640.64,580.18 648.31,582.14C650.46,582.69 651.8,581.01 653.34,579.78C655.09,583.58 658.06,582.96 661.04,582.45C661.24,579.89 662.68,577.22 659.5,575.47ZM649.03,580.5C645.89,580.26 645.83,575.88 648.93,575.88C651.78,575.88 652.16,580.08 649.03,580.5ZM659.7,579.06C659.19,580.09 656.11,577.93 657.85,581.32C655.28,580.7 654.95,579.47 655.39,577.93C655.99,575.81 660.08,576.22 659.7,579.06Z" style="fill-rule:nonzero;"/>
        <path d="M642.36,573.83C641.12,573.55 639.9,573.21 638.66,573.73C637.53,577.43 637.53,580.61 638.76,580.92C639.89,580.82 639.17,579.17 640.3,578.97C641.94,579.38 641.74,581.74 643.69,581.23C643.02,578.19 646.82,574.83 642.36,573.83ZM639.69,575.88C640.92,574.96 641.85,575.37 642.67,575.98C641.33,577.52 641.33,577.52 639.69,575.88Z" style="fill-rule:nonzero;"/>
        <path d="M726.43,528.35C726.74,524.86 724.58,518.8 721.61,515.01C721.5,517.06 724.99,526.61 726.43,528.35Z" style="fill-rule:nonzero;"/>
    </g>
</svg>
