<?xml version="1.0" encoding="UTF-8" standalone="no"?>
<!DOCTYPE svg PUBLIC "-//W3C//DTD SVG 1.1//EN" "http://www.w3.org/Graphics/SVG/1.1/DTD/svg11.dtd">
<svg width="100%" height="100%" viewBox="0 0 900 600" version="1.1" xmlns="http://www.w3.org/2000/svg" xmlns:xlink="http://www.w3.org/1999/xlink" xml:space="preserve" xmlns:serif="http://www.serif.com/" style="fill-rule:evenodd;clip-rule:evenodd;stroke-linejoin:round;stroke-miterlimit:2;">
    <g>
        <path d="M577.14,371.07C577.11,371.06 577.1,371.12 577.1,371.26C577.12,371.28 577.13,371.31 577.15,371.33C577.15,371.24 577.14,371.16 577.14,371.07Z" style="fill-rule:nonzero;"/>
        <path d="M584.48,327.11C583.76,323.6 583.65,320.6 584.79,317.6C588.31,308.34 586.83,292.15 583.96,292.39C584.81,296.76 586.45,306.62 584.68,311.61C584.57,311.3 582.33,295.45 583.13,316.47C583.21,318.64 581.8,320.6 582.41,322.57C583.19,325.07 583.23,327.57 582.81,330.07C582.72,330.28 582.64,330.41 582.58,330.5C582.76,330.73 583.08,331.32 584.48,327.11Z" style="fill-rule:nonzero;"/>
        <path d="M776.24,88.96C772.28,72.22 756.32,59.08 744.73,60.44C734.71,61.62 727.7,71.49 729.34,82.03C731.05,93.01 722.16,77.99 709.92,84.61C703.01,88.35 700.72,94.43 700,101.76C663.91,111.19 665.08,107.94 652.27,114.57C646.98,117.31 645.42,115.58 632.54,113.85C630.15,113.53 625.75,108.68 624.79,107.34C615.5,94.38 599.73,98.53 596.38,94.32C595.14,92.77 593.9,91.12 591.63,90.91C591.84,87.6 591.83,84.59 595.97,83.99C598.94,83.55 598.47,78.44 600.52,74.79C604.33,68.01 602.03,63.98 604.96,56.3C606.25,52.91 604.96,49.38 603.51,46.07C603.92,51.24 601.6,55.99 601.55,60.95C601.48,67.46 599.27,73.28 597.21,79.24C594.83,86.12 585.31,81.67 581.3,83.58C583.88,86.27 587.09,84.92 590.08,85.85C588.43,91.84 588.63,97.84 589.87,103.83C592.81,103.19 592.25,100.79 592.25,94.94C595.8,96.01 594.32,98.4 595.04,100.52C598.18,109.74 597.95,119.22 596.59,128.73C594.24,145.1 571.2,143.19 562.91,131.42C556.01,121.62 555.15,109.47 548.96,95.46C547.95,93.18 547.2,90.71 547.2,88.23C548.23,87.4 549.27,87.01 550.4,86.78C559.47,84.94 556.87,78.63 557.94,73.56C560.1,63.31 555.97,60.27 560.01,55.58C557.53,55.99 556.5,54.96 556.08,53.2C558.27,51.55 558.53,56.29 559.59,46.69C558.35,45.24 556.39,44.42 556.59,42.14C558.24,41.31 559.17,42.35 559.38,43.59C559.88,46.49 561.34,49.07 561.76,52.17C564.55,48.76 565.09,44.33 566.93,40.6C568.81,36.79 571.37,33.26 573.03,29.85C574.48,29.02 575.3,30.16 576.23,29.64C575.09,26.95 579.12,28.61 578.5,26.13C577.88,25.61 577.98,23.96 576.85,23.03C575.71,22.82 574.27,23.24 573.65,21.79C575.2,19.52 576.34,21.8 577.68,22.1C579.54,22.52 580.16,24.06 580.68,25.51C582.23,24.99 581.2,24.06 581.61,23.03C583.47,24.06 585.02,22.5 587.09,22.62C591.84,22.89 596.7,25 601.86,22.31C601.55,27.79 603.31,32.75 604.34,37.6C596.38,40.7 593.9,42.25 596.07,48.86C596.9,47.72 596.17,46.28 597.21,45.04C599.38,45.87 601.45,44.83 603.82,44.11C604.44,41.11 606.7,37.91 605.68,35.02C604.11,30.58 604.44,26.03 603.51,21.8C605.47,18.6 609.09,17.87 611.67,15.29C610.43,14.15 611.67,12.91 611.46,11.57C609.7,10.85 608.05,11.78 606.29,11.47C607.12,9.82 609.91,10.13 610.01,7.96C608.73,6.05 606.13,7.9 604.12,8.99C604.22,6.51 605.15,4.13 603.4,1.96C595.93,9.43 599.61,4.85 598.65,4.13C594.62,2.79 591.22,6.28 586.97,5.37C583.05,4.53 578.81,5.16 574.67,5.16C573.33,6.19 573.43,8.67 570.95,8.05C571.16,7.12 571.78,5.98 570.12,5.47C567.74,8.57 564.54,10.43 560.51,10.53C558.65,9.39 557.31,6.71 554.41,8.36C554.51,10.01 556.17,10.53 556.58,11.77C554.58,13.37 553.94,15.56 553.81,17.86C553.58,17.55 553.2,17.48 552.55,17.66C552.45,18.49 553.08,19.32 552.45,20.45C548.73,27.08 550,28.72 549.04,30.16C543.44,39.96 552.2,45 549.76,50.93C549.66,51.14 549.86,51.55 550.07,51.86C553.47,56.93 552.14,63.33 555.34,68.39C555.65,68.8 555.44,69.42 555.44,70.04C555.75,73.45 554.43,76.56 553.27,79.65C552.47,81.79 551.64,82 543.45,86.26C534.64,90.84 534.91,84.31 516.28,83.47C493.13,82.43 496.64,89.38 489.83,88.53C484.46,87.86 479.29,86.38 473.82,86.05C468.96,85.76 463.9,85.84 459.15,83.98C457.19,78.81 455.33,73.34 449.95,70.34C450.36,69.93 450.57,69.62 450.88,69.51C477.27,63.11 469.87,4.25 443.54,2.04C423.9,0.39 420.03,17.92 417.92,22.5C415.91,21.9 412.22,4.94 392.19,8.45C355.03,14.95 370.6,88.09 402.83,77.26C407.79,75.6 412.13,73.44 415.64,68.27C416.16,75.61 417.7,81.6 420.29,87.38C428.49,105.72 432.79,113.99 443.74,116.93C453.72,119.61 448.79,120.45 461.92,126.95C486.16,138.96 499.81,127.42 504.69,140.69C505.87,143.91 512.91,183.78 521.43,201.13C523.4,205.15 521.69,236.66 524.12,246.8C521.54,248.56 521.71,251.15 522.26,253.83C523.88,261.69 518.89,264.88 516.89,272.63C512.9,288.12 512.51,316.43 509.04,349.19C505.38,383.71 512.2,379.41 509.35,382.67C507.18,385.15 507.49,388.15 507.49,391.04C507.49,400.65 507.42,392.87 514.62,395.48C514,402.61 516.16,409.22 517.31,415.94C518.85,424.98 511.72,428.3 508.84,447.04C505.51,468.69 506.35,456.32 511.32,498.6C512.39,507.69 514.24,516.69 515.04,525.88C515.61,532.39 515.56,539.08 516.9,545.61C517.92,550.58 514.07,551.38 515.45,555.43C516.64,558.9 512.47,563.15 514.11,566.8C515.36,569.58 514.63,571.55 513.08,573.83C510.19,578.07 510.29,584.06 515.04,587.57C520.73,592.31 515.07,593.51 521.96,596.87C532.12,601.81 543.65,599.88 554.82,597.9C556.06,597.68 557.09,596.87 557.92,595.52C556.89,594.69 556.68,593.35 556.37,592.01C554.36,583.3 551.65,585.02 551.31,582.09C550.99,579.38 544.25,564.7 542.22,560.81C543.05,559.98 543.36,561.43 544.08,560.81C543.98,559.78 543.45,558.86 542.53,558.33C537.94,555.68 547.79,544.19 539.84,539.22C538.82,538.58 537.88,539.74 536.74,539.32C535.04,517.27 541.96,506.75 548.21,476.92C550.97,463.72 548.53,450.48 547.8,433.73C543.43,436.03 552.19,465.61 542.43,491.59C540.18,497.59 538.4,503.68 536.85,510.19C535.71,502.75 536.14,495.62 536.54,488.39C537.12,477.85 532.95,486.7 534.89,502.85C536.26,514.22 533,525.32 534.58,534.78C535.44,539.93 537.81,539.32 525.38,540.88C525.48,538.19 525.79,535.71 524.55,533.13C523.07,539.27 526.84,542.22 518.97,542.22C517.81,537.57 520.12,536.5 514.73,504.3C512.95,493.66 512.92,482.92 510.6,472.27C508.3,461.71 511.92,448.98 511.74,447.68C511.18,443.74 512.46,440.24 513.91,436.83C527.65,404.61 508.84,395.51 522.69,394.99C560.53,393.55 556.41,391.52 557.92,393.03C556.19,400.34 551.73,411.58 550.69,422.17C549.86,430.59 544.83,429.78 541.8,436.84C547.03,434.52 553.43,425.37 553.89,414.01C554.22,405.75 556.25,410.39 561.02,393.86C565.77,390.06 566.58,393.22 568.46,390.97C574.65,382.59 570.74,387.54 573.42,376.3C576.29,364.28 575.58,385.47 575.69,386.53C576.33,392.35 575.21,391.55 582.92,392.83C584.09,401.77 580.56,388.71 587.78,417.73C592.41,436.37 581.7,448.81 587.68,468.25C588.8,471.89 598.5,519.41 598.22,532.31C598.13,536.44 605.27,535.06 596.36,497.08C588.92,465.39 586.82,458 589.44,440.87C590.48,434.05 592.12,427.23 590.78,420.1C586.8,398.87 582.47,396.55 586.96,393.34C605.33,398.24 619.66,396.03 622.81,396.03C624.26,400.68 621.15,405.02 621.98,409.46C622.91,414.42 620.12,418.55 618.88,423.1C619.19,423.72 620.43,424.03 620.12,425.17C617.43,428.17 618.26,431.89 618.36,435.4C618.98,433.02 619.7,430.54 620.53,427.34C628.82,461.76 619.66,486.35 619.08,531.18C618.05,531.8 617.53,530.77 617.22,530.25C613.81,531.8 610.09,531.59 606.68,532.73C605.75,529.32 606.89,525.81 605.23,522.09C603.99,526.12 604.92,529.74 604.3,533.04C602.85,533.76 601.2,533.87 600.48,534.9C599.86,536.14 600.58,536.97 600.27,538C598.51,539.65 595.94,541.41 596.55,544.1C598.35,552.11 591.78,558.5 592.83,561.25C594.6,565.87 589.24,567.29 591.18,570.24C595.68,577.11 601.27,580.68 609.67,580.37C619.49,580 612.21,587.84 622.89,589.36C631.03,590.51 647.77,591.56 650.89,583.99C654.71,583.16 655.74,582.44 655.44,580.58C654.91,577.28 653.86,574.2 651.2,571.8C644.84,566.05 644.99,564.04 635.39,554.24C630.69,549.43 627.33,543.8 627.74,536.88C626.4,535.02 624.33,536.36 622.68,535.12C622.99,531.09 621.57,527.06 622.06,522.93C623.47,511.16 623.97,499.27 624.54,487.49C625.26,472.46 628.47,468.02 627.74,459.08C624.62,420.81 621.78,427.44 622.78,422.71C624.85,421.88 624.73,419.82 624.64,417.85C623.79,400.07 626.89,404.08 627.74,396.26C630.53,395.74 632.8,396.04 635.08,396.16C641.64,396.49 636.75,341.78 635.6,339.23C640,329.55 629.69,283.78 621.24,266.7C618.76,260.92 616.15,259.77 616.9,254.1C617.21,251.72 616.8,249.66 614.11,248.93C614.11,248.31 614.32,247.79 614.21,247.38C611.09,222.19 615.66,215.71 614.83,212.15C612.05,200.14 614.85,188.37 615.97,176.61C616.15,174.75 615.97,172.89 616.38,170.93C619.37,156.67 618.13,155.03 621.86,151.09C632.56,157.07 640.71,149.49 654.51,147.16C668.49,144.8 680.53,139.01 680.75,138.79C698.4,125.55 700.14,127.13 704.72,121.64C705.66,120.51 706.68,118.64 708.85,119.57C708.75,117.92 709.16,116.68 711.12,115.95C717.84,123.91 725.27,131.03 737.78,129.9C724.27,138.8 709.86,119.64 708.85,119.57C718.37,134.62 738.11,140.28 744.39,123.7C749.85,109.29 742.19,106.74 750.69,111.41C761.97,117.55 781.19,109.87 776.24,88.96ZM591.4,99.19C590.99,98.67 590.99,98.16 591.4,97.54L591.4,99.19ZM601.32,42.15C602.04,41.43 602.87,41.32 604.11,41.63C603.08,43.29 602.15,42.05 601.32,42.15ZM606.8,13.43C607.52,13.33 608.35,13.22 609.49,13.12C608.33,16.59 606.4,17.05 606.8,13.43ZM602.25,6.92C603.28,8.47 601.94,8.78 600.8,9.19C601.42,7.57 601.57,6.24 602.25,6.92ZM599.57,21.28C598.95,21.59 598.54,21.59 598.33,20.87C599.05,20.15 599.26,20.77 599.57,21.28ZM592.64,20.56C590.99,20.87 590.06,20.04 589.13,19.11C590.47,19.22 591.61,19.53 592.64,20.56ZM586.14,18.6C584.36,19.31 585.03,16.36 586.24,17.88C586.45,18.18 586.55,18.49 586.14,18.6ZM587.06,10.02C586.44,11.36 585.1,11.78 584.06,13.02C584.38,10.13 584.38,10.13 587.06,10.02ZM578.08,7.65C579.11,8.47 579.15,8.37 578.8,8.89C578.18,8.89 577.97,8.58 578.08,7.65ZM557.52,36.06C556.92,33.95 556.7,31.26 558.45,32.13C558.14,33.48 557.83,34.72 557.52,36.06ZM571.77,27.59C574.04,29.24 571.05,29.45 570.63,30.28C571.18,28.11 570.87,27.59 571.77,27.59ZM571.15,17.87C570.53,19.94 569.19,21.28 566.91,22.52C567.54,19.73 569.4,18.91 571.15,17.87ZM569.91,11.06C569.5,13.13 568.05,13.02 566.5,13.02C567.54,12.29 568.36,11.37 569.91,11.06ZM567.02,17.25C567.17,17.25 567.69,17.46 566.61,18.18C566.53,18.02 565.91,17.62 567.02,17.25ZM566.3,30.58C566.92,31.2 566.2,31.41 565.58,31.92C565.57,31 566.09,30.38 566.3,30.58ZM565.99,33.37C566.19,34.55 566.23,35.68 564.34,36.06C563.92,34.41 564.85,33.99 565.99,33.37ZM565.06,43.39C564.85,44.22 564.96,44.73 564.23,44.84C563.82,44.22 564.23,43.91 565.06,43.39ZM563.51,49.18C562.58,47.94 562.89,47.63 563.2,47.11C564.13,47.94 563.2,48.15 563.51,49.18ZM561.34,34.51C561.34,33.17 562.06,33.06 563.3,33.37C562.68,34.2 562.27,34.61 561.34,34.51ZM561.85,12.4C560.51,12.5 560.3,11.99 559.99,11.57C561.24,11.06 561.13,11.78 561.85,12.4ZM554.73,17.87C555.06,17.54 556.34,16.86 557.42,16.73C558.66,17.04 558.87,18.28 559.8,18.8C560.1,18.9 564.99,16.84 561.56,20.76C559.18,18.59 557.01,19.73 554.74,21.59C554.37,19.71 558.39,17.87 554.73,17.87ZM554.62,53.62C555.14,53.72 555.24,54.03 555.34,54.55C554.21,54.86 554.21,54.35 554.62,53.62ZM555.45,50.11C552.87,47.11 552.87,47.11 554.42,44.94C555.66,44.94 556.07,45.87 556.8,46.9C556.07,47.84 555.24,48.77 555.45,50.11ZM546.15,573.11C545.01,573.42 544.39,573.11 543.88,572.28C544.81,571.87 545.63,571.67 546.15,573.11ZM547.29,575.59C546.26,576.42 545.74,576.21 545.22,576.11C545.63,575.18 546.25,575.49 547.29,575.59ZM520.11,545.84C520.94,544.7 522.28,544.19 524.04,544.6C525.07,551.21 524.76,551.94 520.73,554.11C518.56,553.7 519.49,551.42 517.94,549.98C520.73,549.25 519.29,547.39 520.11,545.84ZM518.15,554.72C519.29,555.86 520.52,557.49 522.7,556.27C527.1,553.8 526.11,552.54 526.11,545.21C543.59,541.05 537.55,542.97 538.82,544.49C539.96,545.01 540.27,543.25 541.4,543.25C541.5,548 539.13,552.24 539.23,556.68C535.1,557.4 531.07,556.99 527.35,558.33C527.45,561.22 526.83,563.81 528.59,566.39C531.07,567.73 534.08,566.67 536.75,567.63C539.24,568.53 542.23,566.29 545.22,569.18C540.03,569.48 524.35,566.01 533.13,571.87C533.96,573.11 532.41,573.94 532.72,575.8C537.37,578.18 542.54,578.59 548.22,577.35C554.85,593.26 552.16,587.39 553.8,587.06C554.73,589.44 555.56,591.92 555.97,594.91C544.29,596.05 532.83,599.77 521.67,593.15C521.88,589.95 519.69,587.49 517.43,585.4C513.89,582.12 513.24,576.26 516.6,572.49C520.52,568.09 515.86,569.32 517.74,561.43C518.05,559.27 516.39,556.89 518.15,554.72ZM540.26,561.13C538.71,561.03 537.06,560.92 535.51,560.72C537.16,560.2 538.71,559.68 540.26,561.13ZM602.36,536.54C608.46,535.4 613.93,533.85 619.92,534.58C617.89,538.17 610.7,534.85 608.14,537.89C607.62,540.37 609.79,541.61 610.52,543.57C610.11,544.71 609.69,545.95 609.18,547.39C607.53,545.84 605.75,547.75 603.91,546.98C600.65,545.61 604.08,541.52 600.81,543.16C600.19,540.57 603.8,539.53 602.36,536.54ZM639.24,562.68C637.59,563.09 636.24,562.37 634.69,562.06C636.55,560.2 638,560.51 639.24,562.68ZM628.19,548.63C627.98,549.56 627.47,549.15 626.74,548.84C627.36,548.52 627.77,548.42 628.19,548.63ZM623.95,538.6C625.81,540.87 624.57,543.66 626.64,545.94C623.34,545.74 616.56,542.98 617.13,548.73C615.58,549.35 614.03,548.52 612.48,548.94C612.38,551.73 612.38,551.73 617.13,552.25C616.3,553.49 614.86,553.18 614.55,555.04C616.2,557.31 619.2,555.45 621.37,556.28C620.85,560 621.06,560.1 629.33,558.97C626.79,560.59 624.25,561.35 625.71,563.31C627.16,564.03 628.29,562.69 629.64,562.79C631.29,565.48 636.05,565.48 640.49,564.24C643.77,570.36 651.61,574.38 652.37,579.84C647.67,587.13 632.73,587.55 624.78,586.45C613.76,584.93 622.01,577.89 611.97,577.46C599.49,576.92 597.59,574.24 593.58,568.57C597.81,561.32 593.29,560.26 596.78,556.48C599.61,553.42 599.26,549.87 599.67,545.22C601.32,550.18 604.42,550.59 608.14,549.66C611.45,548.83 611.34,545.84 612.27,543.36C611.75,541.81 610,540.98 609.69,538.71C614.55,539.12 619.4,538.5 623.95,538.6ZM622.4,548.83C621.57,549.24 620.85,549.24 620.02,548.83C620.85,548.42 621.57,548.52 622.4,548.83ZM727.48,86.89C720.87,92.16 713.33,95.05 705.58,99.18C705.57,82.67 717.59,80.03 727.48,86.89ZM705.16,90.51C703.7,97.08 705.76,100.44 702.27,99.81C702.16,96.4 703.2,93.3 705.16,90.51ZM451.3,5.79C462.1,12.46 467.4,28.49 466.9,39.37C467.26,65.2 449.85,75.63 436.83,62.72C413.86,39.91 427.85,-8.71 451.3,5.79ZM433.33,5.06C433.33,6.2 432.5,6.4 432.09,6.92C415.83,27.24 424.67,62.51 445.73,69.53C421.76,72.8 407.43,19.81 433.33,5.06ZM418.45,24.59C416.8,33.99 417.83,43.29 421.86,52.69C415.87,52.07 415.97,46.59 412.87,43.08C413.49,46.59 414.94,49.07 416.07,51.76C414.55,51.54 410.67,51.5 409.87,49.28C406.17,38.99 403.33,26.24 414.42,26.76C415.55,26.04 415.97,24.07 418.45,24.59ZM386.94,12.19C369.89,27.58 376.5,68.6 398.82,76.45C376.12,80.53 360.17,27.43 386.94,12.19ZM404.81,74.91C384.41,80.31 365.38,29.65 390.76,11.68C397.59,6.85 403.95,9.93 411.11,15.19C414.39,17.6 414.62,17.88 416.17,22.01C415.03,23.25 414.21,24.28 413.28,25.32C405.43,23.77 406.46,30.49 404.7,34.41C402.12,35.34 399.13,33.17 397.26,36.06C394.28,40.68 394.85,49.47 406.97,47.01C409.04,49.59 410.38,53.31 414.62,53C420,64.57 414.31,72.39 404.81,74.91ZM401.71,46.29C398.3,44.22 396.95,41.53 397.99,38.64C399.22,35.23 401.71,36.68 403.98,36.78C407.73,48.96 407.37,43.05 401.71,46.29ZM466.08,126.05C455,122.87 456.63,117.72 443.35,114.37C429.09,110.78 420.32,80.97 418.97,66.02C417.27,47.29 415.06,54.33 422.69,54.76C421.97,57.65 422.59,60.75 424.45,63.54C425.17,61.78 423.83,60.34 424.55,58.17C426.82,62.41 430.13,65.09 432.82,68.61C433.75,68.71 434.88,69.03 435.82,69.54C443.62,73.8 445.78,68.92 450.49,73.05C459.11,80.62 456.74,87.45 465.37,87.2C478.1,86.84 485.79,91.89 493.58,90.09C507.2,86.95 520.98,85.69 522.41,86.16C539.69,90.85 542.02,88.21 541.94,95.67C541.85,104.12 544.12,102.28 546.07,131.21C546.29,134.41 544.83,137.2 543.9,140.1C542.56,140.62 542.14,138.55 540.59,139.17C540.9,140.41 542.55,140.62 542.86,141.75C537.07,152.6 527.88,160.45 512.9,159.42C506.06,119.32 504.35,137.04 466.08,126.05ZM624.98,397.47C624.67,396.85 624.67,396.23 625.7,396.02C625.91,396.85 625.5,397.16 624.98,397.47ZM619.61,273.49C620.95,271.94 620.23,270.8 620.64,269.77C623.53,273.49 627.36,289.5 633.45,322.98C626.58,332.35 638.66,343.45 634.9,392.41C630.6,392.41 616.94,392.23 610.21,393.03C598.63,394.41 587.72,389.22 579.11,388.07C577.65,376.8 577.09,372.21 577.1,371.26C576.24,369.96 573.98,369.22 575.6,366.89C576.77,368.06 577.11,369.52 577.14,371.07C577.46,371.21 579.45,381.53 581.28,384.76C580.35,376.49 577.97,369.26 575.39,362.44C576.63,361.41 577.56,361.92 578.28,361.1C581.28,366.06 583.03,371.43 585.82,376.39C583,363.83 577.54,362.64 578.79,354.38C581.56,336.16 582.15,331.61 582.4,330.65C582.2,330.73 582,330.61 581.17,332.27C567.35,364.11 573.57,375.85 566.71,389.1C548.73,391.27 530.24,391.48 511.64,392.2C512.78,386.31 513.94,380.72 512.47,374.84C509.27,362.09 514.76,345.48 513.61,330.31C512.67,317.84 515.81,314.61 517.33,294.35C518.14,283.6 519.09,272.86 524.15,263.04C523.84,262.52 524.87,262.94 524.46,263.04C524.46,264.03 524.91,264.14 525.08,264.18C527.24,259.86 527.28,258.31 529.11,257.36C530.46,256.66 531.49,256.22 531.8,254.78C533.45,254.99 532.21,257.05 533.66,257.47C534.69,256.95 533.87,255.61 534.38,255.09C536.76,253.54 537.79,255.92 539.24,256.02C539.65,253.13 541.72,254.88 543.27,254.78C542.86,251.06 538.1,255.61 538.1,251.06C536.34,255.5 533.86,250.96 532.11,252.61C531.39,251.89 532.32,250.44 530.87,250.13C529.61,250.13 527.16,263.68 527.77,249.1C552.77,250.75 577.67,250.03 602.47,252.51C602.86,257.59 599.99,257.02 598.85,254.06C597.51,253.96 598.13,255.4 597.2,255.71C595.13,256.12 595.03,254.47 594.82,252.51C593.48,253.96 593.89,255.09 594.1,256.13C595.13,257.06 596.37,257.16 597.82,257.78C597.2,264.08 598.85,269.77 603.61,274.31C600.82,269.35 599.89,263.98 599.89,258.61C600.82,257.47 601.75,257.68 603.09,257.89C602.99,263.06 607.95,263.99 610.53,266.98C609.6,263.57 605.98,261.61 605.57,257.78C607.74,256.85 609.6,258.5 611.56,257.99C610.63,256.23 611.66,254.99 612.28,253.55C615.06,260.05 620.23,265.43 619.61,273.49ZM525.49,260.05C525.28,256.54 524.87,253.64 525.8,250.65C525.49,253.55 527.55,256.54 525.49,260.05ZM604.11,252.93C605.45,252.52 606.8,252.72 608.24,253.24C608.03,254.48 607.83,255.41 607.1,256.44C606.07,255.92 607.41,254.58 606.17,254.17C604.93,253.96 605.55,256.75 603.69,256.03C602.98,254.99 604.42,254.06 604.11,252.93ZM653.81,144.44C643.68,146.6 640.23,148.46 631.49,148.37C623.15,148.28 629.56,150.24 623.02,148.06C626.74,133.6 626.95,130.29 624.78,126.88C625.5,122.13 625.5,122.13 624.68,119.96C622.44,125.55 624.63,138.91 618.69,150.96C615.77,156.89 617.42,165.5 613.63,167.28C613.42,168.62 614.87,167.8 614.87,169.45C608.69,239.8 613.97,225.96 605.36,228.65C606.91,229.37 608.56,228.65 610.32,229.37C610.11,235.67 611.15,241.97 611.35,248.69C583.35,245.49 555.35,248.69 527.14,246.93C528.38,239.7 527.14,232.05 526.83,223.99C533.96,222.44 540.88,223.99 548.11,223.89C545.1,222.97 532.99,221.58 526.93,222.86C526.93,212.28 527.19,208.3 526.31,199.61C525.42,190.83 521.34,189.85 520.32,186.18C513.63,162.15 514.53,164.08 514.53,162.83C525.29,163.15 540.56,156.82 545.42,142.89C548.73,145.47 551.83,147.54 555.44,148.99C554.51,146.2 553.89,145.68 547.69,142.38C545.97,138.2 552.49,125.08 546.24,103.95C544.9,99.4 543.97,94.86 543.04,90.31C548.96,81 545.2,110.55 565.15,138.56C566.49,138.46 565.05,137.32 565.98,137.01C571.88,141.82 591.09,149.13 599.04,132.15C601.98,125.87 603.09,112.02 597.8,98.26C599.45,98.36 599.14,99.91 600.07,100.53C600.9,99.81 599.66,99.08 600.38,98.26C617.02,98.45 627.55,112.12 628.28,113.96C629.05,115.91 646.26,118.13 647.91,118.3C653.09,118.82 648.19,119.89 659.59,122.64C657.52,119.95 653.91,119.95 651.32,118.2C661.55,111.9 663.51,111.66 674.67,109.62C703.24,104.4 704.02,101.86 724.99,91.13C731.73,87.68 729.38,82.48 733.46,92.68C730.45,98.71 734.82,96.49 741.31,103.84C736.87,106.11 736.76,106.11 734.59,104.05C729.42,105.6 725.7,102.29 721.37,100.12C721.58,102.81 724.16,102.91 725.5,104.67C687.8,124.22 699.28,134.76 653.81,144.44ZM742.15,125.53C738.36,132.57 721.59,129.45 712.19,115.09C716.94,111.16 722.11,107.96 727.79,105.79C736.38,108.08 729.99,105.23 737.5,108.79C740.09,110.02 741.63,108.48 743.7,107.14C741.84,105.8 740.7,107.55 739.46,107.14C745.1,101.5 748.2,114.29 742.15,125.53ZM733.68,69.33C731.1,87.73 747.11,109.77 766.02,110.14C746.22,119.31 722.98,82.99 733.68,69.33ZM735.74,82.97C731.62,70.83 737.23,58.67 749.89,61.27C766.63,64.72 779.47,86.3 776.13,99.08C771.47,116.97 744.59,109.04 735.74,82.97Z" style="fill-rule:nonzero;"/>
        <path d="M582.59,330.49C582.52,330.4 582.48,330.36 582.4,330.65C582.46,330.63 582.52,330.59 582.59,330.49Z" style="fill-rule:nonzero;"/>
        <path d="M205.92,15.29C205.92,15.33 205.94,15.35 205.95,15.39C205.96,15.37 205.98,15.34 205.99,15.31C205.96,15.3 205.94,15.3 205.92,15.29Z" style="fill-rule:nonzero;"/>
        <path d="M308,265.74C304.84,264.99 306.23,265.91 304.9,255.92C304.26,251.07 304.04,246.21 304.18,241.25C304.35,235.05 301.75,229.17 301.6,222.96C301.55,220.92 299.53,223.46 299.53,213.66C299.53,195.35 291.63,195.66 296.12,172.64C298.54,160.26 291.3,155.31 292.3,150.53C293.61,144.27 292.62,130.14 290.75,124.39C288.34,116.99 278.23,104.6 270.4,103.93C265.28,103.49 261.46,99.8 260.58,99.69C251.24,98.58 246.98,89.12 243.22,88.94C244.61,78.17 248.45,85.07 250.04,79.12C252.46,70.07 254.37,71.58 254.79,62.69C255.26,52.91 259.8,54.91 255.31,43.99C255.31,45.7 253.16,65.96 249.42,75.81C247.04,82.06 246.66,81.18 233.1,81.18C235.48,84.49 238.89,82.63 241.57,83.87C241.53,85.1 238.9,97.33 242.4,101.64C242.4,93.59 242.15,99.16 243.54,99.26C244.26,97.19 243.44,95.02 243.75,92.85C247.02,93.94 246.17,95.6 246.33,96.47C247.05,100.42 251.6,110.78 247.67,128.71C246.29,135.01 239.4,139.35 233,138.53C233.41,135.95 233.52,133.26 232.28,130.78C231.97,133.26 231.56,135.74 231.14,138.53C207,131.01 212.96,121.74 200.66,93.38C199.67,91.09 198.9,88.73 198.8,86.04C210.7,82.07 207.84,82.4 209.65,72.4C211.86,60.16 207.52,58.1 212.23,53.39C209.13,54.11 208.2,52.98 207.79,50.7C211.17,52.54 210.81,49.21 211.3,44.81C210.16,43.36 207.89,42.54 208.82,39.54C212.95,42.33 211.82,46.98 214.09,51.01C217.29,42.74 220.5,35 225.25,27.97C227.63,28.07 228.87,26.21 230.73,25.08C230.11,23.74 229.49,22.5 228.87,21.26C223.78,21.68 225.59,19.09 227.11,19.09C229.38,20.23 231.86,21.16 232.59,23.84C233.93,23.43 233.21,22.5 233.73,21.77C235.28,22.08 236.73,20.86 238.48,20.94C243.44,21.19 248.4,23.21 253.67,20.94C254.15,28.11 254.21,30.09 255.43,32C260.17,39.44 242.36,36.98 248.2,47.08C248.72,45.94 248.1,44.5 249.13,43.36C251.4,44.5 253.47,43.15 255.74,42.64C257.38,35.66 258.52,34.8 257.7,33.24C255.46,28.93 256.56,24.15 255.43,20.33C257.5,16.71 261.22,16.2 263.7,13.3C261.84,12.37 264.32,11.03 263.39,9.89C261.63,8.86 259.98,10.3 258.22,9.68C259.05,8.03 261.84,8.54 262.04,6.06C259.77,4.51 258.01,6.06 256.15,7.3C255.84,4.82 257.08,2.34 255.22,-0.04C248.7,7.41 251.26,2.93 250.67,2.44C246.74,0.89 243.23,4.41 239.1,3.58C235.07,2.76 230.73,3.37 226.5,3.37C225.36,4.61 225.26,6.57 223.4,6.37C222.47,5.85 223.81,4.2 222.06,3.79C219.48,6.48 216.48,8.75 212.14,8.75C210.8,7.3 209.25,5.55 206.56,6.27C205.94,8.23 208.21,8.54 208.52,10.2C206.12,10.97 206.29,14.5 206,15.28C207.01,15.64 207.92,14.95 209.04,14.85C209.56,15.47 210.18,16.19 210.69,16.81C211.83,17.33 212.65,15.98 213.69,16.6C214.52,17.63 213.28,17.94 213.38,19.18C210.59,17.01 208.21,18.04 205.84,19.7C206.05,18.15 207.29,17.74 207.6,16.7C207.6,15.73 206.11,16.08 205.97,15.35C205.91,15.44 205.84,15.46 205.74,15.36C203.47,15.46 205.03,17.12 204.6,17.94C202.88,21.27 201.6,24.66 200.98,28.27C199.72,29.53 198.23,34.38 199.95,40.26C200.77,43.05 202.95,45.63 201.5,48.94C201.19,49.46 201.8,50.49 202.22,51.11C204.51,54.48 204.45,62.12 205.53,63.92C208.48,68.87 206.68,79.01 199.54,82.31C195.09,84.37 190.44,85.8 186.01,87.99C178.97,91.47 172.49,96.29 164.93,98.84C159.74,100.59 151.53,106.9 149.12,117.33C146.1,130.41 147.46,133.24 148.4,141.51C149.21,148.7 141.22,151.55 141.79,163C141.8,163.12 142.45,174.55 141.38,177.98C135.13,197.94 139.42,196.26 139.52,206.08C139.57,211.14 138.09,216.1 138.18,221.16C138.31,228.39 139.92,235.52 140.66,242.75C142.19,257.77 149.81,269.6 147.48,274.26C141.8,276.15 126.81,277.96 123.41,298.02C120.01,318.1 138.34,341.39 158.95,335.52C159.67,335.31 160.5,335.11 161.64,335.73C161.23,340.28 161.13,345.13 160.5,349.88C157.29,374.18 163.13,377.75 160.91,380.88C158.04,384.93 159.15,389.35 159.05,394.21C169.95,390.29 164.29,396.07 168.04,408.47C171.37,419.48 167.64,420.98 163.6,433.16C156.24,455.34 158.36,467.9 164.63,507.86C168.35,531.57 166.36,533.51 168.35,543.92C169.19,548.31 165.81,549.84 166.9,553.12C168.16,556.89 164.19,561.82 165.76,565.11C167,567.69 166.19,569.66 164.73,571.72C161.86,575.77 161.84,582.56 166.69,585.77C172.27,589.47 166.53,591.18 172.27,594.35C182.35,599.91 192.17,598.55 205.23,596.21C206.99,595.9 208.33,595.28 209.26,593.83C207.19,589.59 207.19,584.43 203.06,581.23C202.85,581.13 202.85,580.82 202.85,580.61C201.75,575.22 194.15,561.07 193.86,558.5C197.46,559.4 192.62,555.38 192.31,554.88C192.31,551.68 194.22,548.58 194.27,544.96C194.42,535.31 188.98,537.72 187.97,537.21C186.58,531.19 189.61,509.55 191.69,503.73C203.91,469.6 200,456.06 199.23,431.61C197.37,432.95 197.29,434.29 197.47,435.64C202.51,472.97 192.87,487.49 187.86,509.2C186.52,500 187.96,490.71 187.24,481.51C185.38,486.68 185.27,492.05 185.69,497.42C187.41,519.43 183.19,524.64 186.62,537.4C183.21,538.43 179.9,538.64 176.7,539.05C176.18,536.36 177.22,533.57 175.46,530.68C175.05,534.09 175.56,536.88 174.74,539.77C173.09,540.08 171.54,540.7 169.57,540.39C169.57,495.18 152.8,468.18 168.23,426.84C172.81,414.57 169.18,400.28 168.33,395.22C174.56,390.84 187.32,394.95 206.97,390.98C212.63,389.36 205.56,396.42 202.84,415.78C200.53,432.23 196.08,426.8 193.64,434.79C201.08,429.42 204.57,421.98 205.21,412.99C205.88,403.56 206.91,409.08 211.72,394.39C214.09,387.16 219.22,392.49 220.61,387.88C221.01,386.53 222.37,386.85 222.88,385.92C224.22,381.06 223.5,375.79 226.7,371.25C227.47,374.92 226.95,382.01 227.22,386.23C227.65,393.04 232.62,389.08 234.56,391.5C233.7,401.93 239.45,415.34 239.93,421.05C241.45,438.98 233.75,449.36 239.31,467.85C240.95,473.31 249.92,517.55 249.64,530.56C249.56,534.54 254.03,533.86 251.81,516.51C250.6,507.09 243.58,475.41 243.54,475.29C237.37,455.59 240.16,446.55 242.09,430.76C244.72,409.32 237.03,403.92 237.03,392.95C240.44,390.03 255.94,397.57 273.5,394.09C275.14,394.7 275.7,398.33 275.93,396.71C275.8,395.89 275.52,395.01 276.81,394.4C277.1,395.48 275.98,395.62 275.98,397.19C270.93,401.48 276.43,409.2 269.99,421.37C271.13,422.51 271.13,422.51 271.54,423.75C268.75,426.54 269.58,430.05 269.68,433.46C271.94,426.34 271.87,419.98 274.33,438.52C278.16,467.37 274.27,457.95 273.19,487.8C272.31,512.22 269.51,521.66 270.92,529.02C270.92,529.23 270.61,529.43 270.51,529.54C269.27,530.37 269.06,528.92 268.44,528.51C266.58,529.75 261.83,530.78 257.9,530.78C256.94,527.11 258.68,520.86 255.83,520.86L255.83,531.3C254.38,532.44 252.32,532.23 251.49,533.68C250.97,534.82 252.11,535.64 251.59,536.57C243.94,542.83 250.35,542.16 247.04,551.03C245.74,554.52 243.16,557.87 244.35,562.09C244.99,564.36 239.66,566.29 243.21,569.84C246.41,573.04 249.1,576.94 254.27,577.59C256.65,577.89 258.92,578.76 261.4,578.52C270.6,577.63 262.85,586.44 275.97,587.82C283.64,588.63 299.29,589.27 302.11,582.14C306.76,581.31 307.13,580.6 306.14,576.35C304.79,570.57 301.64,570.2 295.5,562.3C285.82,549.84 279.03,546.95 278.87,534.92C277.42,533.37 275.56,534.61 274.01,533.47C274.11,528.92 272.8,524.48 273.39,519.83C275.26,505.12 275.31,479.98 277.73,469.72C280.56,457.73 276.28,427.77 274.11,424.16C271.97,420.59 277.38,422.42 275.66,408.66C274.99,403.28 278.45,399.15 278.86,394.4C290.77,392.97 287.55,399.58 289.3,382.83C290.52,371.11 286.4,329.3 285.58,325.8C287.13,325.9 287.96,326.83 288.89,327.45C301.21,335.66 318.32,331.97 327.43,320.84C341.88,303.24 331.31,271.28 308,265.74ZM209.02,48.35C209.77,47.6 209.93,49.07 209.23,49.07C208.81,48.97 208.81,48.66 209.02,48.35ZM251.69,40.6C253.14,39.98 253.86,39.26 255.1,39.98C254.17,41.33 253.24,40.71 251.69,40.6ZM260.78,11.47C260.16,12.5 259.64,13.33 259.02,14.36C257.72,13.76 256.83,10.68 260.78,11.47ZM253.03,5.06C253.85,5.06 254.59,6.36 252,7.95C252.21,6.72 252.52,5.89 253.03,5.06ZM243.11,12.09C243.01,12.81 242.7,13.23 241.87,13.02C241.88,12.19 242.29,11.88 243.11,12.09ZM243.73,18.91C242.28,18.91 241.04,18.39 240.11,17.36C241.57,17.46 242.7,17.87 243.73,18.91ZM239.5,14.36C239.71,15.29 239.19,15.5 238.78,15.81C238.16,14.88 238.67,14.67 239.5,14.36ZM236.09,15.91C237.33,15.6 237.54,16.22 237.85,17.15C237.02,17.15 236.4,17.05 236.09,15.91ZM238.26,8.68C237.23,9.51 236.3,10.33 235.16,11.26C235.57,8.47 235.57,8.47 238.26,8.68ZM211.29,10.02C212.22,9.19 212.32,10.12 213.36,9.92C211.91,11.06 211.81,10.33 211.29,10.02ZM223.17,25.52C224.2,27.59 222.65,27.79 222.24,28.52C222.04,27.38 221.83,26.35 223.17,25.52ZM221.42,9.2C220.9,10.54 220.39,11.37 218.94,11.06C219.25,9.82 219.97,9.4 221.42,9.2ZM222.24,16.01C221.93,18.18 220.28,19.32 218.31,20.76C218.63,17.87 220.9,17.25 222.24,16.01ZM217.49,32.03C217.59,33.37 216.77,33.79 215.73,34.3C215.22,32.55 215.94,32.13 217.49,32.03ZM215.94,41.95C216.35,42.78 215.84,43.19 215.22,43.6C214.7,42.67 215.43,42.36 215.94,41.95ZM214.5,31.62C214.29,32.86 213.05,32.45 212.74,33.48C212.08,32.15 212.83,30.79 214.5,31.62ZM209.43,30.17C209.64,31.62 209.02,32.96 208.81,34.3C208.09,32.86 207.78,31.31 209.43,30.17ZM206.54,48.35C205.3,46.7 203.23,45.35 205.61,43.29C206.85,43.39 207.37,44.32 207.99,45.15C207.68,46.29 206.02,46.8 206.54,48.35ZM197.76,572.08C196.42,571.56 195.8,571.25 195.07,571.05C196.41,570.32 196.41,570.32 197.76,572.08ZM198.58,574.04C197.75,574.76 197.24,574.66 196.72,574.25C197.03,573.32 197.55,573.53 198.58,574.04ZM170.89,544.6C172.23,542.95 173.68,542.53 175.33,542.74C176.26,549.66 175.85,550.59 171.82,552.25C169.96,551.73 170.68,549.67 169.34,548.43C171.62,547.8 171,546.15 170.89,544.6ZM169.14,552.66C170.59,554.21 171.92,555.85 174.2,554.52C180.27,550.99 175.63,548.81 177.92,543.36C195.54,539.55 188.19,541.26 190.22,542.95C191.25,543.05 191.36,541.5 192.7,541.71C192.7,546.36 190.32,550.6 190.32,555.35C186.19,555.35 182.47,555.97 178.54,556.49C178.64,559.49 177.92,562.28 179.78,564.86C182.26,566.2 185.35,565.2 187.94,566.1C190.41,566.96 193.42,564.96 195.59,567.44C188.17,567.28 175.63,565.42 184.22,570.33C185.05,571.67 183.5,572.4 183.6,574.05C188.25,576.74 193.52,576.63 199.3,575.81C200.64,579.12 201.99,582.22 203.23,585.11C206.85,586.87 205.61,590.48 207.57,593.27C195.38,594.41 183.91,598.23 172.85,591.62C172.54,588.52 170.73,585.78 168.2,583.56C164.95,580.7 164.25,574.34 167.37,571.16C171.42,567.04 167.18,565.87 168.51,561.96C169.54,558.95 168.21,555.86 169.14,552.66ZM191.97,559.06C189.9,559.78 188.46,559.06 187.11,558.54C188.67,558.54 190.22,557.72 191.97,559.06ZM254.17,534.88C265.41,530.6 280.17,533.08 265.23,534.57C263.16,534.78 260.79,533.95 259.13,536.22C259.03,538.39 260.68,539.63 261.71,541.49C261.3,542.63 260.88,543.97 260.37,545.42C258.2,544.28 255.58,546.48 253.65,543.66C253.23,543.05 253.86,542.01 253.44,540.77C252.82,540.87 252.61,541.39 251.99,540.98C252,538.6 254.58,537.26 254.17,534.88ZM288.47,558.96C289.4,559.48 290.12,560.1 290.74,561.34C286.57,560.5 284.17,560.39 288.47,558.96ZM280.23,557.3C280.71,557.2 281.21,557.1 281.76,556.99C281.76,557.4 282.01,557.31 280.23,557.3ZM279.59,546.77C279.28,548.11 278.56,547.29 277.73,547.91C278.35,546.56 278.97,546.56 279.59,546.77ZM275.56,536.85C277.32,539.12 276.28,541.91 278.14,544.19C274.63,544.19 271.22,542.23 268.63,545.02C268.01,545.95 269.04,546.47 268.73,547.09C267.08,548.12 265.01,546.26 263.46,548.02C264.08,550.71 266.46,549.88 268.42,550.71C267.8,551.64 266.25,551.54 266.04,553.29C268,555.56 270.9,553.81 273.48,554.32C273.48,555.15 272.14,555.46 272.65,556.9C274.01,558.6 275.35,558.31 280.19,557.32C279.15,558.76 276.68,558.66 276.47,561.14C277.92,562.59 279.47,561.04 280.91,561.04C284.01,564.55 287.83,563.11 291.97,562.69C294.86,568.37 301.89,571.27 303.85,577.77C299.02,585.47 283.52,585.8 274.51,584.38C271.93,583.97 269.81,583.24 269.55,579.83C268.9,571.28 255.05,581.76 244.96,566.81C249.3,561.19 244.7,558.83 248.27,554.93C250.93,552.02 250.85,548.52 251.16,544.7C252.5,546.04 253.33,547.79 255.19,548.32C256.95,548.82 258.6,548 260.25,547.8C262.11,547.58 262.94,545.73 263.66,541.5C261.84,536.72 255.79,537.75 275.56,536.85ZM272.66,547.08C272.25,548.01 271.94,547.29 271.11,547.39C271.84,546.66 272.25,546.77 272.66,547.08ZM261.3,104.15C266.06,105.89 271.43,106.63 275.66,109.63C287.03,117.68 291.69,128.52 289.4,142.49C287.45,154.35 298.41,161.5 293.53,174.73C291.66,179.79 293.46,185.16 293.74,190.33C294.45,203.72 297.67,198.73 297.67,215.02C297.67,225.25 299.03,221.48 300.15,224.84C300.25,233 303.25,240.85 302.01,249.12C300.43,259.66 304.53,260.22 303.15,264.72C299.12,264.62 295.4,266.37 291.58,267.2C278.83,228.49 279.51,243.62 278.36,220.09C278.01,212.97 275.26,206.25 275.05,198.91C272.57,198.29 271.92,196.55 271.23,194.67C267.06,183.34 265.59,173.97 273.5,162.33C283.06,148.26 279.17,136.61 280.22,131.75C280.22,131.54 279.81,131.23 279.6,130.92C276.53,131.69 280.52,136.53 273.09,156.34C270.2,156.03 269.9,153.33 268.85,151.79C266.51,148.36 264.82,144.56 264.61,140.32C264.28,133.47 261.79,135.07 257.79,111.6C257.19,108.08 255.93,104.78 254.59,101.06C257.27,101.46 259.03,103.31 261.3,104.15ZM278.45,276.9C275.03,273.48 274.75,267.76 269.15,258.51C266.46,254.07 270.93,248.78 265.64,247.35C265.23,238.26 263.67,229.39 265.23,220.49C266.78,211.62 266.26,202.72 267.71,193.42C279.3,215.31 268.25,220.48 280.73,244.15C284.76,251.79 286.93,259.85 288.69,268.43C284.96,270.8 280.93,272.76 278.45,276.9ZM281.76,275.66C281.45,276.59 281.35,277.31 280.42,277.42C280.31,276.59 280.83,276.28 281.76,275.66ZM196.83,86.79C204.34,117.55 215.6,140.71 217.08,136.28C217.08,133.91 216.46,137.3 230.3,140.83C244.85,144.53 259.1,129.72 250.03,98.99C249.41,96.9 248.76,97.06 249.31,96.51C254.1,97.62 257.09,141.55 270.59,157.47C271.99,159.12 274.62,154.83 268.73,164.81C266.77,164.5 265.11,165.43 263.56,166.77C265.01,167.39 266.25,166.25 267.49,166.98C264.89,178.52 265.2,182.22 261.81,226.29C259.47,227.69 251.17,227.84 261.6,227.84C261.39,234.35 262.32,240.55 262.63,247.37C234.53,244.06 206.63,247.06 178.32,245.51C182.14,223.77 169.98,220.81 188.55,221.95C211.26,223.35 189.41,220.03 178.63,221.02C177.91,207.99 179.3,199.55 174.7,188.37C173.64,185.8 174.39,184.13 176.46,183.51C174.19,179.89 177.49,177.1 177.49,173.38C179.35,174.83 179.97,176.48 181.93,177.31C181.31,174.83 179.97,172.97 178.62,171.11C179.55,166.25 180.27,161.19 179.86,156.03C181,155.31 182.44,155.1 183.27,153.96C185.34,155.61 187.3,157.27 190.09,157.16C183.42,151.52 186.39,155.03 193.19,147.55C195.26,145.28 195.77,141.97 198.36,140.32C203.12,106.61 197.22,108.91 194.33,88.66C194.97,87.41 196,86.89 196.83,86.79ZM257.68,252.72C255.74,252.29 257.34,255.13 254.58,254.37C254.89,253.34 255.1,252.41 255.41,251.37C257.37,250.65 259.23,251.58 261.2,251.37C261.1,252.71 259.75,251.37 259.34,252.51C259.13,253.23 259.34,254.16 258.41,254.58C257.06,254.37 258.61,253.13 257.68,252.72ZM152.19,274C152.09,273.17 152.6,272.86 153.53,272.24C153.24,272.89 148.28,279.48 147.64,291.46C147.34,297.06 151.2,318 170.37,325.45C175.31,326.69 169.74,327.06 163.45,323.49C142.96,311.85 142.26,282.37 152.19,274ZM147.44,308.3C145.48,307.16 145.99,305.3 145.68,303.86C146.51,305.1 147.03,306.45 147.44,308.3ZM165.94,321.74C150.58,312.32 145.11,290.77 153.03,276.38C170.35,244.9 215.15,274.76 202.42,309.13C196.74,324.43 179.89,330.3 165.94,321.74ZM172.44,261.29C169.34,261.6 166.34,263.15 162.93,263.87C160.82,252.27 170.31,248.77 163.96,209.73C163.68,208 163.23,201.18 165.82,198.36C168.4,195.98 170.37,192.88 172.64,189.99C174.4,200.74 174.71,211.38 174.71,221.92C174.71,249.76 176.7,241.26 176.26,244.55C170.7,248.01 177.66,254.9 172.44,261.29ZM176.89,248.59C176.99,251.69 178.54,254.79 176.79,257.79C176.47,254.68 176.06,251.58 176.89,248.59ZM177.61,261.6C177.61,257.26 181.23,255.81 183.81,253.33C184.33,253.85 183.91,255.09 185.05,255.81C185.77,255.19 185.57,254.05 185.98,253.23C187.94,251.99 189.08,253.44 190.11,254.68C187.11,270.7 191.39,263.97 177.61,261.6ZM179.26,151.26C180.19,152.6 181.95,153.12 179.98,154.57C179.16,153.84 179.16,152.91 179.26,151.26ZM142.28,185.77C142.69,189.49 141.97,192.69 141.04,196.1C140.31,192.79 140.73,189.49 142.28,185.77ZM141.35,209.94C142.8,211.39 142.49,213.87 144.55,215.21C143.59,206.22 142.25,200.53 143.93,194.86C144.97,191.34 144.99,171.62 144.96,170.89C147.03,174.61 147.34,178.64 147.54,182.77C148.06,179.46 148.9,176.25 146.82,172.95C144.93,169.97 148.23,166.33 144.75,164.79C144.26,155.81 148.44,152.68 150.85,144.95C153.54,136.33 146.56,132.47 152.92,113.85C153.13,113.23 153.33,112.4 153.85,111.99C157.36,109.19 160.16,105.39 164.7,103.72C176.46,99.41 167.61,101.73 191.05,90.29C202.93,136.01 195.13,141.74 183.71,151.25C183.19,148.77 181.7,146.79 182.57,144.22C183.06,142.77 181.12,142.36 180.92,140.81C174.24,149.43 181.59,152.63 173.17,181.83C171.4,187.96 165.59,193.67 165.11,197.33C164.18,194.85 165.11,192.37 165.01,189.48C163.25,191.75 163.54,194.22 162.84,196.4C159.49,206.85 163,210.98 164.7,234.52C164.93,237.65 160.13,259.6 160.05,264.17C160.02,265.77 159.65,264.5 150.96,271.61C145.56,254.9 137.41,227.11 141.35,209.94ZM131.01,284.64C121.92,307.78 127.6,323.28 149.09,334.44C127.41,329.67 117.35,302.59 131.01,284.64ZM161.8,332.79C139.88,338.66 120.33,310.1 130.91,288.57C134.41,281.44 140,276.58 148.99,275.66C144.65,282.79 143.73,290.02 144.44,297.77C144.75,301.18 141.4,307.42 146.4,309.45C151.15,311.38 150.9,318.27 162.41,324.84C162.22,327.63 162.01,330.11 161.8,332.79ZM226.79,364.92C227.72,366.26 228.34,367.4 227.93,368.54C225.24,368 226.39,367.32 226.79,364.92ZM286.51,390.55C275.04,390.03 263.58,391.74 252.21,391.07C246.63,390.74 241.24,388.65 235.78,387.35C229.4,385.83 230.71,388.5 227.93,368.65C230.28,370.87 230.02,378.57 232.89,383.94C231.75,375.36 229.27,367.93 227,361C227.83,359.66 228.96,360.28 229.38,359.14C232.69,364.41 234.44,370.2 237.54,375.36C231.62,353.36 225.64,367.16 234.11,328.43C230.3,333.97 222.86,354.9 222.04,374.84C221.85,379.39 219.77,383.21 218.63,387.44C200.14,389.71 181.85,389.61 163.25,390.64C167.44,372.49 161.06,373.67 163.56,354.27C165.06,342.63 164.86,331.64 165.63,326.27C206.18,337.62 220.05,286.92 189.29,265.72C193.08,250.98 192.58,254.77 190.32,254.57L190.32,254.66C190.17,254.51 190.2,254.57 190.32,254.57C190.37,251.29 193.02,253.11 194.56,252.7C194.25,250.84 193.32,251.03 192.08,251.46C190.63,251.96 190.22,250.32 188.98,249.81C187.74,253.43 185.36,249.09 183.61,250.64C182.99,250.02 183.82,248.47 181.96,248.37C180.62,249.82 181.55,252.3 179.58,253.95C178.96,251.78 179.06,249.71 179.37,247.23C204.27,249.09 229.27,248.06 254.17,250.64C253.96,251.88 253.76,253.02 253.55,254.26C251.59,254.67 250.66,253.64 250.14,252.09C249.21,252.3 249.42,253.54 248.69,253.85C246.31,254.68 247.04,251.99 245.9,251.16C243.65,255.28 248.42,255.4 249.52,256.22C249.37,263.54 249.96,266.58 254.27,270.89C253.16,268.68 251.19,261.24 251.79,256.53C252.62,255.6 253.65,255.91 254.58,256.22C255.41,259.94 258.4,263.25 262.85,265.31C261.09,262 257.99,259.83 257.06,256.42C258.92,255.08 260.57,256.63 262.43,256.01C264.84,248.17 263.72,253.5 264.7,254.36C265.32,254.77 265.53,254.15 266.25,254.05C265.01,257.05 267.49,258.9 268.63,260.77C270.7,264.18 270.7,267.69 271.52,271.41C273.07,270.38 271.73,268.93 272.14,267.48C275.55,271.2 274,276.37 276.69,280.19C268.63,296 274.42,309.64 283.72,323.48C280.55,340.52 289.74,341.06 286.51,390.55ZM278.76,279.27C283,272.63 276.66,284.36 276.28,292.08C275.59,306.24 282.89,323.18 300.15,329.48C290.02,331.62 262.7,304.43 278.76,279.27ZM330.63,312.95C319.38,341.86 277.73,329.28 277.73,294.97C277.73,271.75 298.57,260.21 315.75,270.28C329.89,278.57 336.62,297.56 330.63,312.95Z" style="fill-rule:nonzero;"/>
        <path d="M239.09,42.57C238.78,39.68 241.67,41.23 242.81,40.09C241.8,34.03 230.52,35.92 226.9,39.78C230.62,36.68 234.13,38.75 238.37,39.68C234.65,40.71 231.34,40.2 228.86,42.26C232.27,42.77 235.57,43.19 239.09,42.57Z" style="fill-rule:nonzero;"/>
        <path d="M591.51,42.26C591.28,37.12 584.65,38.66 582.83,38.33C579.73,37.61 577.66,39.26 575.29,41.12C577.67,41.74 578.7,39.67 580.77,39.67C581.91,41.74 585.01,39.77 586.97,41.94C583.46,41.94 580.36,42.46 577.46,44.01C594.27,47.17 583,42.76 591.51,42.26Z" style="fill-rule:nonzero;"/>
        <path d="M258.41,443.76C256.48,445.69 259.38,447.62 259.24,466.8C259.18,473.97 265.58,450.93 258.41,443.76Z" style="fill-rule:nonzero;"/>
        <path d="M606.59,443.45C607.08,444.43 606.54,446.94 608.35,468.66C608.76,468.66 609.07,468.56 609.38,468.56C610.83,459.98 611.86,451.4 606.59,443.45Z" style="fill-rule:nonzero;"/>
        <path d="M174.72,428.47C172.03,431.05 169.86,433.74 169.35,438.29C171.42,435.4 171.93,432.4 174.93,430.33C173.41,437.17 170.31,439.09 170.59,443.66C171.84,464.23 169.07,457.76 170.9,460.19C175.82,449.74 168.42,444.59 174.62,435.7C175.85,433.94 176.17,431.67 176.89,429.6C175.96,429.29 175.65,428.36 174.72,428.47Z" style="fill-rule:nonzero;"/>
        <path d="M198.27,398.3C186.16,414.45 179.73,407.23 174.92,407.6C183.59,415.86 197.36,406.81 198.27,398.3Z" style="fill-rule:nonzero;"/>
        <path d="M547.18,399.23C543.46,405.12 538.71,409.05 532.3,411.11C529.82,410.49 527.03,409.87 524.34,409.15C529.13,417.74 548.15,408.6 547.18,399.23Z" style="fill-rule:nonzero;"/>
        <path d="M226.58,76.56C223.79,72.74 219.66,70.67 215.94,68.19C214.6,64.37 213.05,60.65 213.56,56C208.76,59.08 213.96,64.68 212.32,67.37C217.08,70.67 221.21,74.39 226.58,76.56Z" style="fill-rule:nonzero;"/>
        <path d="M564.54,69.95C563.3,65.92 561.65,62.3 561.75,58.17C558.34,61.68 562.06,65.4 561.34,69.23C575.72,80.8 582.24,81.58 564.54,69.95Z" style="fill-rule:nonzero;"/>
        <path d="M524.14,431.15C524.14,427.61 518.56,434.93 517.94,440.76C519.98,437.6 520.41,434.04 523.4,432.36C523.16,434.77 522.23,436.88 521.15,439C516.56,447.98 522.17,450.9 519.19,460.9C519.19,463.45 522.71,458.61 521.05,449.64C519.73,442.5 521.36,442.13 525.49,431.56C525.07,430.95 524.56,431.26 524.14,431.15Z" style="fill-rule:nonzero;"/>
        <path d="M231.03,111.69C227.72,108.49 223.18,108.07 218.84,106.83C222.77,109 227.29,110.06 230.62,113.44C232.22,115.07 237.62,114.11 237.13,110.86C235.06,111.07 233.2,112.31 231.03,111.69Z" style="fill-rule:nonzero;"/>
        <path d="M185.15,432.49C183.81,427.01 182.36,421.54 185.98,416.06C180.71,417.72 180.4,427.85 185.15,432.49Z" style="fill-rule:nonzero;"/>
        <path d="M530.55,426.09C529.32,428.99 531.38,431.98 533.75,434.67C534.06,431.36 532.4,428.99 532.3,426.3C532.19,423.3 533.33,420.82 533.95,417.93C530.24,419.48 531.69,423.41 530.55,426.09Z" style="fill-rule:nonzero;"/>
        <path d="M604.94,414.93C608.45,414.5 611.64,412.84 614.86,411.52C616.4,410.89 617.03,409.14 616.2,406.97C615.14,411.63 611.53,410.88 604.32,412.76C601.61,413.47 602.86,415.18 604.94,414.93Z" style="fill-rule:nonzero;"/>
        <path d="M259.75,410.18C254.53,411.39 254.07,411.29 253.96,412.35C255.22,414.87 261.53,411.82 265.94,409.97C267.6,409.27 268.21,407.49 268.01,405.01C264.61,409.04 264.61,409.05 259.75,410.18Z" style="fill-rule:nonzero;"/>
        <path d="M554.21,103.22C560.88,106.11 572.48,111.63 573.43,109.73C552.66,101.55 554.65,101.88 554.21,103.22Z" style="fill-rule:nonzero;"/>
        <path d="M614.24,452.02C614.24,445.05 620.51,444.09 618.58,437.76C617.44,441.38 615.35,444.31 613.62,447.47C612.53,449.46 613.1,451.6 613.1,453.77C613.82,453.26 614.24,452.64 614.24,452.02Z" style="fill-rule:nonzero;"/>
        <path d="M265.33,450.16C266.05,442.42 271.31,443.19 269.88,436.32C268.23,438.49 268.02,441.17 266.26,443.14C263.78,445.93 263.68,449.13 264.09,452.85C264.81,451.92 265.24,451.09 265.33,450.16Z" style="fill-rule:nonzero;"/>
        <path d="M240.74,71.6C243.53,73.15 246.11,72.12 248.9,71.5C248.07,68.5 245.9,68.81 244.15,68.61C242.29,68.39 241.36,69.74 240.74,71.6Z" style="fill-rule:nonzero;"/>
        <path d="M585.93,66.85C585.93,67.37 585.93,67.88 585.83,68.5C590.48,69.53 595.03,68.09 599.57,67.26C595.02,65.81 590.47,67.88 585.93,66.85Z" style="fill-rule:nonzero;"/>
        <path d="M241.46,65.5C239.91,65.71 238.15,64.26 236.5,67.05C241.67,67.46 246.21,66.22 250.76,65.81C249.69,64.13 249.08,64.49 241.46,65.5Z" style="fill-rule:nonzero;"/>
        <path d="M589.75,73.56C592.54,74.49 595.02,74.18 598.12,72.84C594.3,69.22 591.2,69.64 589.75,73.56Z" style="fill-rule:nonzero;"/>
        <path d="M585,114.48C586.12,112.52 586.62,112.96 584.28,109.83C574.78,109.83 575.23,108.37 585,114.48Z" style="fill-rule:nonzero;"/>
        <path d="M603.7,431.46C602.82,432.79 603.17,433.06 606.59,443.34C606.59,439.21 605.97,435.08 603.7,431.46Z" style="fill-rule:nonzero;"/>
        <path d="M222.86,83.07C216.09,71.66 216.98,72.9 215.83,73.67C218.47,77.88 221.26,83.87 222.86,83.07Z" style="fill-rule:nonzero;"/>
        <path d="M564.64,75.22C568.03,81.11 570.44,85.61 571.77,84.73C564.69,73.03 565.83,74.43 564.64,75.22Z" style="fill-rule:nonzero;"/>
        <path d="M223.28,89.78C225.35,92.78 223.9,96.81 226.38,99.8C226.17,92.99 225.65,91.23 223.28,89.78Z" style="fill-rule:nonzero;"/>
        <path d="M571.67,91.54C573.94,94.54 572.91,98.46 575.29,102.08C574.46,92.47 574.25,91.85 571.67,91.54Z" style="fill-rule:nonzero;"/>
        <path d="M254.69,429.71C254.69,433.02 255.72,436.01 257.48,438.8C256.86,435.7 257.17,432.29 254.69,429.71Z" style="fill-rule:nonzero;"/>
        <path d="M599.05,58.58C594.5,57.44 592.75,58.06 592.85,61.16C594.5,58.89 597.4,61.48 599.05,58.58Z" style="fill-rule:nonzero;"/>
        <path d="M250.14,57.14C247.04,55.59 244.66,56.21 243.94,59.1C245.59,57.14 248.69,59.82 250.14,57.14Z" style="fill-rule:nonzero;"/>
        <path d="M594.4,403.46C597.81,405.11 601.53,405.01 605.15,405.11C601.63,404.6 598.22,403.26 594.4,403.46Z" style="fill-rule:nonzero;"/>
        <path d="M266.57,419.37C264.09,419.47 262.64,421.02 260.37,421.44C263.47,423.51 265.23,422.89 266.57,419.37Z" style="fill-rule:nonzero;"/>
        <path d="M614.96,421.03C613,421.44 611.34,422.58 609.07,423.51C613,425.06 614.65,424.23 614.96,421.03Z" style="fill-rule:nonzero;"/>
        <path d="M189.49,477.75C189.39,474.75 190.21,471.76 189.7,468.66C188.36,471.65 188.36,474.65 189.49,477.75Z" style="fill-rule:nonzero;"/>
        <path d="M259.75,475.89C259.96,473.2 262.02,470.52 259.96,467.62C259.13,470.31 258.72,473.1 259.75,475.89Z" style="fill-rule:nonzero;"/>
        <path d="M538.5,470.21C536.85,474.96 536.85,477.03 538.5,479.51L538.5,470.21Z" style="fill-rule:nonzero;"/>
        <path d="M245.08,401.81C249.11,403.36 252.52,403.57 256.03,403.36C252.62,403.05 249.42,401.29 245.08,401.81Z" style="fill-rule:nonzero;"/>
        <path d="M226.89,102.6C225.75,104.67 226.27,106.22 227.51,108.08C228.86,106.01 228.24,104.35 226.89,102.6Z" style="fill-rule:nonzero;"/>
        <path d="M238.78,110.24C241.05,110.55 243.33,110.45 246.12,109.31C243.32,109.42 240.84,108.49 238.78,110.24Z" style="fill-rule:nonzero;"/>
        <path d="M608.25,477.54C609.59,475.27 609.18,472.68 609.28,470.1C607.42,472.38 608.14,474.96 608.25,477.54Z" style="fill-rule:nonzero;"/>
        <path d="M576.84,109.21C577.25,106.94 576.94,105.59 575.39,104.04C574.87,106.11 574.46,107.66 576.84,109.21Z" style="fill-rule:nonzero;"/>
        <path d="M199.51,403.57C198.37,405.95 200.34,406.88 201.27,408.12C200.86,406.66 201.68,404.6 199.51,403.57Z" style="fill-rule:nonzero;"/>
        <path d="M604.32,515.46L604.32,521.04C605.35,517.63 605.35,517.22 604.32,515.46Z" style="fill-rule:nonzero;"/>
        <path d="M548.84,405.32C547.5,407.28 547.5,407.28 550.29,409.66C549.56,408.42 550.08,406.77 548.84,405.32Z" style="fill-rule:nonzero;"/>
        <path d="M231.54,121.71C231.54,124.81 231.54,124.81 232.57,126.15C232.68,123.98 232.68,123.98 231.54,121.71Z" style="fill-rule:nonzero;"/>
        <path d="M255,508.64C255.31,507.19 255.62,505.75 254.59,503.78C254.17,505.85 253.86,507.3 255,508.64Z" style="fill-rule:nonzero;"/>
        <path d="M603.91,510.81C604.12,508.85 604.22,507.61 603.7,505.54C602.67,507.61 602.67,508.95 603.91,510.81Z" style="fill-rule:nonzero;"/>
        <path d="M256.13,513.5C255.41,515.88 255.1,518.25 256.13,520.53L256.13,513.5Z" style="fill-rule:nonzero;"/>
        <path d="M586.96,124.4C587.48,122.64 588.3,120.78 586.96,118.82L586.96,124.4Z" style="fill-rule:nonzero;"/>
        <path d="M593.99,106.52C592.75,107.14 591.2,106.83 589.75,108.38C594.89,107.17 593.99,107.65 593.99,106.52Z" style="fill-rule:nonzero;"/>
        <path d="M524.14,529.51C524.76,528.58 524.86,527.55 524.66,526.2C523.63,527.34 523.32,528.38 524.14,529.51Z" style="fill-rule:nonzero;"/>
        <path d="M538.81,465.76C539.33,464.21 540.15,463.07 539.53,461.52C539.02,462.87 538.3,463.9 538.81,465.76Z" style="fill-rule:nonzero;"/>
        <path d="M514.02,458.22C514.11,457.27 514.21,454.81 514.02,454.81L514.02,458.22Z" style="fill-rule:nonzero;"/>
        <path d="M190.42,460.6C190.01,461.84 189.8,462.77 189.49,463.7C190.42,463.08 191.15,462.15 190.42,460.6Z" style="fill-rule:nonzero;"/>
        <path d="M165.63,451.3C165.63,450.47 165.63,449.54 165.73,448.61C165.57,448.61 165.63,448.29 165.63,451.3Z" style="fill-rule:nonzero;"/>
        <path d="M523.73,518.25C523.83,518.97 523.94,519.59 524.04,520.21C524.14,519.59 524.97,518.97 523.73,518.25Z" style="fill-rule:nonzero;"/>
        <path d="M175.23,527.96C176.06,527.03 175.85,525.89 176.26,524.24C174.61,525.59 174.82,526.72 175.23,527.96Z" style="fill-rule:nonzero;"/>
        <path d="M225.03,86.27C224.31,85.44 223.89,84.82 223.07,85.44C223.07,86.58 223.48,86.99 225.03,86.27Z" style="fill-rule:nonzero;"/>
        <path d="M585.62,92.37C584.28,92.47 583.76,92.99 583.45,94.13C584.79,94.12 585,93.4 585.62,92.37Z" style="fill-rule:nonzero;"/>
        <path d="M607.21,481.78C607.54,480.44 605.82,480.59 606.59,482.4C607.01,482.09 607.21,481.98 607.21,481.78Z" style="fill-rule:nonzero;"/>
        <path d="M573.84,88.03C573.01,87.2 572.7,86.48 571.77,87.51C571.98,88.65 572.6,88.65 573.84,88.03Z" style="fill-rule:nonzero;"/>
        <path d="M175.23,517.22L175.23,519.39C176.06,518.23 175.23,516.28 175.23,517.22Z" style="fill-rule:nonzero;"/>
        <path d="M236.4,90.92C235.82,90.46 234.21,91.59 235.26,92.47C235.88,92.16 236.5,91.85 236.4,90.92Z" style="fill-rule:nonzero;"/>
        <path d="M193.11,450.68L193.11,451.71C193.42,451.3 193.52,450.99 193.11,450.68Z" style="fill-rule:nonzero;"/>
        <path d="M546.25,380.01C547.92,378.13 548.39,364.14 559.89,347.77C573.36,328.6 545.2,358.93 546.25,380.01Z" style="fill-rule:nonzero;"/>
        <path d="M557.72,275.86C559.27,269.04 559.58,262.22 558.55,255.3C555.86,262.02 558.55,269.04 557.72,275.86Z" style="fill-rule:nonzero;"/>
        <path d="M630.25,384.55C630.56,379.18 629.63,377.42 626.53,377.42C621.65,377.43 619.22,386.46 630.25,384.55ZM628.91,381.66C625.38,381.66 627.17,382.32 626.95,383.42C621.22,384.65 625.82,373.94 628.91,381.66Z" style="fill-rule:nonzero;"/>
        <path d="M587.06,322.15C592.64,329.59 599.87,335.17 607.83,339.82C600.91,334.03 593.68,328.45 587.06,322.15Z" style="fill-rule:nonzero;"/>
        <path d="M612.69,378.56C611.16,376.68 608.97,377.53 606.9,377.53C606.9,380.32 606.38,382.7 607.21,384.97C609.07,384.97 607.62,382.59 609.28,382.7C610.83,382.91 610.83,385.49 612.79,384.87C613,383.94 611.96,383.53 611.86,382.39C612.79,381.35 613.94,380.1 612.69,378.56ZM608.14,380.53C609.17,378.26 610.21,379.19 611.65,379.6C610.11,380.94 610.11,380.94 608.14,380.53Z" style="fill-rule:nonzero;"/>
        <path d="M617.75,385.17C623.24,384.91 623,377.17 617.44,377.42C612.08,377.66 612.55,385.42 617.75,385.17ZM617.65,378.87C620.57,378.87 620.99,383.62 617.55,383.62C614.39,383.17 614.52,378.87 617.65,378.87Z" style="fill-rule:nonzero;"/>
        <path d="M590.06,358.83C588.72,351.8 584.58,345.71 583.45,338.58C582.21,341.68 584.38,348.29 590.06,358.83Z" style="fill-rule:nonzero;"/>
        <path d="M562.68,257.06C561.85,262.33 564.75,267.08 564.85,272.25C565.16,272.15 565.57,272.15 565.88,272.04C563.5,255.33 563.84,256.67 562.68,257.06Z" style="fill-rule:nonzero;"/>
        <path d="M537.68,268.01C541.5,253.87 541.37,256.56 539.23,256.02C538.3,259.85 537.27,263.88 537.68,268.01Z" style="fill-rule:nonzero;"/>
        <path d="M567.85,366.89C569.3,363.38 570.54,359.76 569.92,355.83C568.78,359.45 567.64,363.06 567.85,366.89Z" style="fill-rule:nonzero;"/>
        <path d="M613.62,288.26C612.28,284.75 610.83,281.23 609.49,277.72C609.28,281.96 611.45,285.16 613.62,288.26Z" style="fill-rule:nonzero;"/>
        <path d="M583.86,269.77L583.86,256.96C582.93,261.29 583.45,265.53 583.86,269.77Z" style="fill-rule:nonzero;"/>
        <path d="M523.73,346.22C522.7,349.73 523.83,352.94 525.18,356.14C525.18,352.84 523.42,349.63 523.73,346.22Z" style="fill-rule:nonzero;"/>
        <path d="M555.97,254.37C553.7,253.65 551.94,254.68 550.08,255.2C552.04,255.92 553.9,255.51 555.97,254.37Z" style="fill-rule:nonzero;"/>
        <path d="M520.11,383.73C520.4,383.73 520.32,384.34 520.32,378.25C520.04,377.97 520.11,377.19 520.11,383.73Z" style="fill-rule:nonzero;"/>
        <path d="M571.36,255.41L565.16,255.41C568.16,256.44 568.16,256.44 571.36,255.41Z" style="fill-rule:nonzero;"/>
        <path d="M589.85,253.13C588.61,253.65 588.82,254.37 589.33,255.3C590.27,254.68 590.58,254.06 589.85,253.13Z" style="fill-rule:nonzero;"/>
        <path d="M595.02,304.39C595.54,305.31 596.36,305.21 597.29,305.41C596.79,304.22 595.92,304.26 595.11,304.37C594.39,303.24 593.25,302.93 592.02,303.04C592.93,303.84 593.74,304.54 595.02,304.39Z" style="fill-rule:nonzero;"/>
        <path d="M585.62,253.03C584.04,254.09 585.73,256.19 586.24,254.17C586.24,253.75 586.45,253.13 585.62,253.03Z" style="fill-rule:nonzero;"/>
        <path d="M567.23,370.71C567.33,370.19 567.33,369.78 567.44,369.37C566.92,369.78 566.61,370.19 567.23,370.71Z" style="fill-rule:nonzero;"/>
        <path d="M563.3,341.57C564.23,341.26 564.64,340.64 564.64,339.4C563.71,340.13 563.2,340.75 563.3,341.57Z" style="fill-rule:nonzero;"/>
        <path d="M575.39,327.52C577.02,327.01 577.85,326.2 578.67,325.29C578.72,325.39 580.46,324.96 580.25,323.7C579.07,323.57 576.42,326.14 575.39,327.52Z" style="fill-rule:nonzero;"/>
        <path d="M581.8,254.06C582.32,254.68 582.73,254.78 583.25,254.37C582.83,253.86 582.42,253.13 581.8,254.06Z" style="fill-rule:nonzero;"/>
        <path d="M520.84,375.05C520.98,374.91 520.94,375.05 520.94,374.43C520.8,374.43 520.84,374.33 520.84,375.05Z" style="fill-rule:nonzero;"/>
        <path d="M521.56,371.23C521.56,371.89 521.77,371.9 521.77,371.02C521.66,370.81 521.56,370.92 521.56,371.23Z" style="fill-rule:nonzero;"/>
        <path d="M633.87,134.42C636.45,137.42 643.38,138.35 646.68,136.18C642.65,134.73 638.62,133.7 633.87,134.42Z" style="fill-rule:nonzero;"/>
        <path d="M586.76,226.17C590.17,222.14 588.1,217.59 587.9,213.26C585.52,217.38 586.96,221.83 586.76,226.17Z" style="fill-rule:nonzero;"/>
        <path d="M530.34,165.1C529,169.44 531.79,172.54 537.47,172.95C533.75,171.1 531.79,168.41 530.34,165.1Z" style="fill-rule:nonzero;"/>
        <path d="M586.34,235.15C585.35,233 588.31,223.4 582.31,242.9C584.36,243.58 584.1,238.2 586.24,235.31C586.53,238.8 584.59,242.3 585.93,246C588.12,239.24 585.97,235.65 586.34,235.15Z" style="fill-rule:nonzero;"/>
        <path d="M588.41,197.03C587.24,197.03 587.58,195.13 587.58,209.63C588.1,205.4 588.92,201.27 588.41,197.03Z" style="fill-rule:nonzero;"/>
        <path d="M606.49,153.02C602.87,153.95 599.77,153.95 596.67,153.95C599.67,155.7 603.29,155.29 606.49,153.02Z" style="fill-rule:nonzero;"/>
        <path d="M589.44,206.74C592.75,208.81 594.19,208.81 598.22,207.26C591.36,206.85 591.4,205.76 589.44,206.74Z" style="fill-rule:nonzero;"/>
        <path d="M583.86,205.81C581.07,204.26 578.07,204.88 575.28,204.67C578.08,205.61 580.76,206.85 583.86,205.81Z" style="fill-rule:nonzero;"/>
        <path d="M650.09,135.66C655.57,134.94 657.43,133.8 657.84,131.01C655.88,133.7 652.67,133.7 650.09,135.66Z" style="fill-rule:nonzero;"/>
        <path d="M589.23,175.54C588.92,177.71 587.16,179.78 588.3,182.57C590.06,180.09 589.54,177.81 589.23,175.54Z" style="fill-rule:nonzero;"/>
        <path d="M527.24,173.37C526.62,176.57 528.89,177.61 530.55,178.95C529.62,176.99 529.31,174.92 527.24,173.37Z" style="fill-rule:nonzero;"/>
        <path d="M589.75,166.55C589.75,168 589.65,169.34 589.54,170.79C591.3,169.55 591.2,168 589.75,166.55Z" style="fill-rule:nonzero;"/>
        <path d="M667.96,128.12C666.2,127.71 664.86,125.85 662.79,126.47C664.24,127.5 665.9,128.43 667.96,128.12Z" style="fill-rule:nonzero;"/>
        <path d="M578.49,217.8C579.73,218.32 580.87,219.45 582.52,218.11C580.97,217.28 579.73,217.38 578.49,217.8Z" style="fill-rule:nonzero;"/>
        <path d="M532.51,226.06C532.51,226.21 532.14,226.16 535.82,226.16C535.67,226.02 536.19,226.06 532.51,226.06Z" style="fill-rule:nonzero;"/>
        <path d="M564.85,205.3C565.78,206.64 566.92,206.75 568.36,206.02C567.33,204.78 566.3,204.88 564.85,205.3Z" style="fill-rule:nonzero;"/>
        <path d="M604.11,104.25C603.18,104.35 601.94,103.63 601.32,105.18C602.56,105.28 603.39,105.18 604.11,104.25Z" style="fill-rule:nonzero;"/>
        <path d="M628.7,133.59C629.84,133.9 630.87,134.11 632.21,133.49C630.67,132.87 629.63,133.18 628.7,133.59Z" style="fill-rule:nonzero;"/>
        <path d="M531.48,181.64C531.17,182.98 532.1,183.29 533.24,183.71C533.03,182.57 532.41,182.05 531.48,181.64Z" style="fill-rule:nonzero;"/>
        <path d="M537.99,173.99C538.12,175.37 540.19,176.65 540.57,175.13C539.95,174.61 539.43,173.78 537.99,173.99Z" style="fill-rule:nonzero;"/>
        <path d="M665.59,136.17C666.83,136.58 667.45,136.27 668.28,135.76C667.24,135.35 666.52,135.35 665.59,136.17Z" style="fill-rule:nonzero;"/>
        <path d="M566.71,151.78C565.88,151.26 565.37,151.26 564.85,151.57C565.26,152.19 565.78,152.4 566.71,151.78Z" style="fill-rule:nonzero;"/>
        <path d="M542.33,175.33C542.23,176.67 542.95,176.98 544.19,176.98C544.08,175.85 543.36,175.44 542.33,175.33Z" style="fill-rule:nonzero;"/>
        <path d="M589.34,192.79C588.72,193.51 588.82,194.13 589.24,194.75C589.75,194.03 589.75,193.41 589.34,192.79Z" style="fill-rule:nonzero;"/>
        <path d="M600.7,206.85C601.53,207.47 602.04,207.47 602.77,206.85C601.94,206.12 601.43,206.23 600.7,206.85Z" style="fill-rule:nonzero;"/>
        <path d="M556.79,149.3C557,150.13 557.41,150.54 558.34,150.02C558.03,149.4 557.72,148.78 556.79,149.3Z" style="fill-rule:nonzero;"/>
        <path d="M613.1,153.02C613.62,153.43 614.03,153.64 614.86,153.02C614.24,152.4 613.62,151.98 613.1,153.02Z" style="fill-rule:nonzero;"/>
        <path d="M539.85,137.72C541.41,133.34 523.82,128.61 521.67,116.75C521.56,116.13 521.36,115.41 520.22,115.61C519.29,117.88 520.94,119.64 521.36,122.22C518.05,121.19 515.26,119.43 511.85,119.22C512.78,120.67 514.02,121.07 515.16,121.39C525.6,124.39 537,138.38 539.85,137.72Z" style="fill-rule:nonzero;"/>
        <path d="M520.22,115.41C520.32,113.14 521.46,112 521.05,109.83C514.85,106.83 509.68,101.98 504.93,96.61C504.93,101.1 517.03,110.85 520.22,115.41Z" style="fill-rule:nonzero;"/>
        <path d="M492.11,114.99C496.97,117.99 507.5,118.5 511.12,115.61C504.93,115.72 498.73,115.1 492.11,114.99Z" style="fill-rule:nonzero;"/>
        <path d="M484.26,112.93C472.89,114.75 476.86,112.94 471.76,113.45C478.37,116.34 484.78,114.28 491.08,115.1C489.22,113.03 486.64,112.55 484.26,112.93Z" style="fill-rule:nonzero;"/>
        <path d="M512.26,126.36C509.37,127.19 507.2,129.05 504.82,130.91C507.82,130.18 510.3,128.74 512.26,126.36Z" style="fill-rule:nonzero;"/>
        <path d="M460.4,92.57C462.16,92.05 464.02,91.74 465.57,89.88C462.98,89.78 461.53,90.82 460.4,92.57Z" style="fill-rule:nonzero;"/>
        <path d="M458.12,87.82C457.81,89.16 457.5,90.61 457.29,91.95C458.74,90.71 459.36,89.47 458.12,87.82Z" style="fill-rule:nonzero;"/>
        <path d="M446.65,110.35C445.1,109.63 443.65,108.59 441.28,108.7C443.24,109.83 444.79,110.76 446.65,110.35Z" style="fill-rule:nonzero;"/>
        <path d="M503.38,121.4C502.14,121.61 500.8,121.4 499.56,122.85C501.41,122.85 502.45,122.43 503.38,121.4Z" style="fill-rule:nonzero;"/>
        <path d="M427.75,70.77C427.54,72.01 428.06,72.73 428.99,73.97C428.88,72.53 428.99,71.6 427.75,70.77Z" style="fill-rule:nonzero;"/>
        <path d="M508.34,119.85C509.48,120.26 510.2,120.26 510.72,119.13C509.68,118.61 508.96,118.82 508.34,119.85Z" style="fill-rule:nonzero;"/>
        <path d="M458.33,96.29C459.16,95.98 459.98,95.88 459.88,94.53C458.85,94.85 458.23,95.16 458.33,96.29Z" style="fill-rule:nonzero;"/>
        <path d="M526.93,134.42C526.72,135.35 526.83,136.07 527.96,136.8C527.86,135.76 528.07,134.83 526.93,134.42Z" style="fill-rule:nonzero;"/>
        <path d="M425.99,66.74C425.89,67.57 425.68,68.19 426.82,68.08C426.92,67.57 427.02,67.05 425.99,66.74Z" style="fill-rule:nonzero;"/>
        <path d="M505.03,96.5C504.2,96.4 504,94.54 502.76,95.67C503.27,96.6 504.1,96.6 505.03,96.5Z" style="fill-rule:nonzero;"/>
        <path d="M432.5,102.6C432.6,103.22 433.02,103.32 434.26,103.63C433.43,102.8 433.22,102.18 432.5,102.6Z" style="fill-rule:nonzero;"/>
        <path d="M512.37,126.36C512.89,126.46 513.3,126.36 513.4,124.81C512.98,125.84 512.16,125.43 512.37,126.36Z" style="fill-rule:nonzero;"/>
        <path d="M450.89,65.61C421.4,65.21 423.1,0.18 446.55,6.82C457.99,10.06 459.46,21.56 462.36,24.8C454.62,0.88 439.37,2.08 434.46,9.1C414.48,37.65 440.4,74.35 450.89,65.61Z" style="fill-rule:nonzero;"/>
        <path d="M452.13,24.69C453.06,23.97 452.65,23.66 451.72,23.45C451.82,23.86 451.82,24.28 451.93,24.69C442.42,22.31 443.66,37.26 449.35,40.5C448.32,40.71 447.7,40.29 447.49,39.47C445.44,41.52 452.56,44.12 455.76,40.61C459.88,36.06 457.81,26.97 452.13,24.69ZM448.72,37.92C444.25,33.34 447.22,21.63 452.23,27.69C457.17,32.84 453.33,42.63 448.72,37.92ZM452.34,41.12C453.68,39.78 454.72,39.05 455.54,38.02C455.44,39.57 454.71,40.6 452.34,41.12Z" style="fill-rule:nonzero;"/>
        <path d="M465.35,41.33C465.04,39.99 465.97,38.44 464.63,37.09C463.94,37.55 463.86,37.88 464.63,41.33L465.35,41.33Z" style="fill-rule:nonzero;"/>
        <path d="M465.15,33.89C465.46,32.55 464.94,31.82 464.22,30.27C464.11,32.13 463.91,33.17 465.15,33.89Z" style="fill-rule:nonzero;"/>
        <path d="M463.7,29.14C464.22,28.11 463.7,27.38 462.98,26.66C462.77,27.48 462.46,28.52 463.7,29.14Z" style="fill-rule:nonzero;"/>
        <path d="M453.89,65.19C454.82,64.98 455.65,64.57 456.68,63.43C455.13,63.64 453.89,63.44 453.89,65.19Z" style="fill-rule:nonzero;"/>
        <path d="M450.99,65.71C451.93,65.99 452.69,65.42 453.52,65.16C452.66,65.17 451.62,64.17 450.99,65.71Z" style="fill-rule:nonzero;"/>
        <path d="M453.78,65.09C453.21,65.23 453.74,65.15 453.88,65.09L453.78,65.09Z" style="fill-rule:nonzero;"/>
        <path d="M755.68,65.19C756.3,66.02 757.13,66.12 758.06,66.33C752.43,60.7 736.36,58.24 736.36,73.67C736.36,96.27 759.67,112.78 769.94,105.6C741.43,112.5 721.14,53 755.68,65.19Z" style="fill-rule:nonzero;"/>
        <path d="M753.51,75.22C750.12,78.17 753.25,84.28 757.23,86.17C758.16,86.69 758.99,87.2 759.71,87.93C760.69,85.77 763.28,88.84 764.46,84.73C765.55,80.95 762.9,78.84 762.81,78.43C762,74.65 755.62,73.38 753.51,75.22ZM762.81,80.38C763.36,82.31 764.62,84.89 761.98,86.48C763.02,84.52 763.22,82.55 762.81,80.38ZM758.68,77.59C758.17,77.85 757.55,76.66 756.72,76.87C752.58,78.94 755.7,82.16 759.2,83.38C758.89,81.21 755.58,80.8 756.93,78.11C757.34,76.87 758.79,80.59 759.1,78.01C762.24,79.58 762.98,85.38 759.82,85.45C756.08,85.53 751.58,79.77 754.14,76.25C755.89,75.63 757.65,75.53 758.68,77.59Z" style="fill-rule:nonzero;"/>
        <path d="M760.33,68.29C759.71,67.05 758.99,66.53 757.95,66.33C758.27,67.47 759.09,67.88 760.33,68.29Z" style="fill-rule:nonzero;"/>
        <path d="M765.19,72.53C765.4,71.91 764.78,71.81 764.47,71.6C764.46,72.22 764.67,72.53 765.19,72.53Z" style="fill-rule:nonzero;"/>
        <path d="M770.25,79.45C770.46,80.28 770.25,80.9 771.49,81C771.28,80.38 771.08,79.87 770.25,79.45Z" style="fill-rule:nonzero;"/>
        <path d="M412.46,42.46C412.25,37.91 414.94,33.57 413.08,28.82C413.16,30.76 410.8,39.3 412.46,42.46Z" style="fill-rule:nonzero;"/>
        <path d="M408.32,41.22C409.04,42.36 409.56,42.36 410.18,41.43C409.56,40.5 409.05,41.02 408.32,41.22Z" style="fill-rule:nonzero;"/>
        <path d="M234.58,327.57C237.83,323.07 233.49,324.1 236.4,315.64C239.72,305.96 237.62,290.84 235.57,291.05C237.21,303.74 237.45,306.46 235.57,310.37C235.57,292.95 234.43,313.1 234.43,315.12C234.43,317.08 233.24,318.82 233.81,320.8C235.27,325.84 233.72,328.76 234.58,327.57Z" style="fill-rule:nonzero;"/>
        <path d="M278.14,377.43C273.36,377.33 270.71,386.44 281.76,384.56C282.17,379.29 281.24,377.49 278.14,377.43ZM278.55,381.66C277.83,382.07 278.65,382.9 278.24,383.42C277,383.83 276.17,383.21 275.86,382.18C274.41,378.69 279.84,377.18 280.41,381.35C279.79,382.07 279.17,381.35 278.55,381.66Z" style="fill-rule:nonzero;"/>
        <path d="M209.02,274.11C210.47,267.29 210.57,260.47 210.36,253.55C209.84,253.55 209.43,253.55 208.91,253.45C207.57,260.36 209.23,267.29 209.02,274.11Z" style="fill-rule:nonzero;"/>
        <path d="M269.36,377.32C263.58,377.32 263.97,385.06 269.05,385.17C274.66,385.3 274.77,377.32 269.36,377.32ZM269.25,383.62C265.9,383.38 266.01,378.87 269.04,378.87C272.22,378.87 272.53,383.41 269.25,383.62Z" style="fill-rule:nonzero;"/>
        <path d="M238.16,320.29C243.84,327.94 251.28,333.51 259.34,338.27C252.21,332.38 244.97,326.59 238.16,320.29Z" style="fill-rule:nonzero;"/>
        <path d="M264.19,378.56C262.66,376.68 260.47,377.63 258.4,377.53C258.4,380.22 257.88,382.7 258.71,384.97C260.57,384.97 259.23,382.59 260.88,382.7C262.43,382.91 262.43,385.49 264.6,384.87C264.19,384.04 263.77,383.32 263.36,382.49C264.3,381.25 265.45,380.1 264.19,378.56ZM260.06,380.01C260.93,378.17 261.92,378.77 263.16,380.01C261.7,381.95 259.73,380.71 260.06,380.01Z" style="fill-rule:nonzero;"/>
        <path d="M241.77,358.52C240.12,350.67 235.98,344.37 234.54,337.13C233.3,339.51 236.71,350.05 241.77,358.52Z" style="fill-rule:nonzero;"/>
        <path d="M213.67,255.41C213.26,260.58 215.74,265.33 216.25,270.39C216.56,270.39 216.77,270.29 217.08,270.29C214.64,253.25 215.28,255 213.67,255.41Z" style="fill-rule:nonzero;"/>
        <path d="M218.63,366.68C220.28,362.65 221.73,358.62 221.11,354.28C219.76,358.31 218.83,362.44 218.63,366.68Z" style="fill-rule:nonzero;"/>
        <path d="M235.26,254.79C233.92,257.89 234.54,261.2 234.74,264.3C235.06,261.09 234.95,257.89 235.26,254.79Z" style="fill-rule:nonzero;"/>
        <path d="M176.58,353.77C175.96,351.08 175.34,348.4 174.62,345.09C173.99,348.6 175.13,351.18 176.58,353.77Z" style="fill-rule:nonzero;"/>
        <path d="M215.94,253.34C218.21,255.1 219.97,254.68 221.73,254.37C221.73,253.47 222.86,253.63 215.94,253.34Z" style="fill-rule:nonzero;"/>
        <path d="M260.89,276.28C260.48,279.07 261.41,281.34 263.37,283.2C262.54,280.93 261.71,278.55 260.89,276.28Z" style="fill-rule:nonzero;"/>
        <path d="M200.96,253.55C203.34,254.69 204.99,253.03 206.85,252.72C204.89,252.62 202.92,252.2 200.96,253.55Z" style="fill-rule:nonzero;"/>
        <path d="M231.44,321.74C229.68,322.57 228.34,323.81 227.51,325.67C232.28,321.92 232.4,322.69 231.44,321.74Z" style="fill-rule:nonzero;"/>
        <path d="M248.18,303.14C246.63,302.31 244.98,301.59 243.43,300.87C244.56,302.62 246.32,303.04 248.18,303.14Z" style="fill-rule:nonzero;"/>
        <path d="M197.03,378.67C200.4,375.91 194.81,370.11 216.25,337.96C215.77,337.48 199.1,355.05 197.03,378.67Z" style="fill-rule:nonzero;"/>
        <path d="M236.92,253.34C237.33,252.72 238.06,252.2 237.13,251.38C236.14,251.38 235.83,252.61 236.92,253.34Z" style="fill-rule:nonzero;"/>
        <path d="M241.36,251.69C240.15,251.09 239.89,252.5 240.84,253.45C241.26,252.93 241.46,252.41 241.36,251.69Z" style="fill-rule:nonzero;"/>
        <path d="M171.62,375.67C172.02,375.67 171.93,375.87 171.93,374.64C171.69,374.4 171.9,374.53 171.62,375.67Z" style="fill-rule:nonzero;"/>
        <path d="M171.31,378.67C171.21,379.6 171.1,379.91 171.1,380.32C171.51,380.01 171.2,379.7 171.31,378.67Z" style="fill-rule:nonzero;"/>
        <path d="M173.17,368.23C173.27,367.82 173.17,368.02 173.17,368.23Z" style="fill-rule:nonzero;"/>
        <path d="M233.09,252.41C233.3,252.82 233.71,252.93 234.23,252.62C234.02,252.2 233.71,251.48 233.09,252.41Z" style="fill-rule:nonzero;"/>
        <path d="M254.69,272.35C254.8,271.37 253.83,270.32 253.55,270.59C253.55,271.32 253.86,271.94 254.69,272.35Z" style="fill-rule:nonzero;"/>
        <path d="M172.55,371.64C172.55,371.43 172.65,371.23 172.65,370.81C172.51,371.09 172.32,371.19 172.55,371.64Z" style="fill-rule:nonzero;"/>
        <path d="M237.64,224.31C240.22,222.55 240.74,214.7 238.67,211.5C236.61,215.63 238.26,220.07 237.64,224.31Z" style="fill-rule:nonzero;"/>
        <path d="M188.56,171.92C186.08,169.34 182.88,167.06 181.64,163.14C179.78,164.79 180.81,165.93 181.23,166.96C182.56,170.27 185.57,170.99 188.56,171.92Z" style="fill-rule:nonzero;"/>
        <path d="M239.81,195.27C238.48,195.27 238.88,193.06 238.88,207.67C239.91,203.64 239.81,199.41 239.81,195.27Z" style="fill-rule:nonzero;"/>
        <path d="M234.33,241.35C235.88,237.53 237.33,233.7 237.22,229.36C233.19,242.14 233.13,241.35 234.33,241.35Z" style="fill-rule:nonzero;"/>
        <path d="M237.43,244.56C238.26,241.05 238.15,237.64 238.05,234.33C236.4,239.39 236.19,242.39 237.43,244.56Z" style="fill-rule:nonzero;"/>
        <path d="M233.71,154.15C232.16,156.22 231.54,158.9 229.06,160.04C233.82,158.91 235.47,156.84 233.71,154.15Z" style="fill-rule:nonzero;"/>
        <path d="M235.06,204.16C232.37,202.4 229.38,203.23 226.59,203.23C229.37,203.54 232.06,205.61 235.06,204.16Z" style="fill-rule:nonzero;"/>
        <path d="M240.53,173.89C239.91,175.96 238.88,177.92 239.5,180.3C241.05,178.43 240.95,176.16 240.53,173.89Z" style="fill-rule:nonzero;"/>
        <path d="M248.07,205.71C245.59,205.19 243.32,204.57 240.73,204.88C243.11,206.85 244.77,207.05 248.07,205.71Z" style="fill-rule:nonzero;"/>
        <path d="M198.38,161.07C196.83,160.35 195.9,159.21 194.25,159C195.38,161.49 195.48,161.49 198.38,161.07Z" style="fill-rule:nonzero;"/>
        <path d="M229.89,216.66C231.03,216.25 232.16,218 233.61,216.76C231.34,215.73 231.34,215.73 229.89,216.66Z" style="fill-rule:nonzero;"/>
        <path d="M219.76,203.95C218.42,203.54 217.38,203.12 215.83,204.05C217.28,204.57 218.32,205.5 219.76,203.95Z" style="fill-rule:nonzero;"/>
        <path d="M188.56,172.03C189.39,172.96 189.9,174.41 191.87,173.89C191.15,172.34 190.01,171.92 188.56,172.03Z" style="fill-rule:nonzero;"/>
        <path d="M204.06,163.24C203.23,162.21 202.51,161.9 201.37,162.52C201.99,163.35 202.72,163.66 204.06,163.24Z" style="fill-rule:nonzero;"/>
        <path d="M187.22,224.72C190.67,224.72 188.85,224.78 187.22,224.51L187.22,224.72Z" style="fill-rule:nonzero;"/>
        <path d="M254.07,205.09C253.24,204.37 252.73,204.26 252,204.99C252.72,205.81 253.34,205.81 254.07,205.09Z" style="fill-rule:nonzero;"/>
        <path d="M256.44,165.41C255.41,164.79 254.58,164.58 253.13,164.79C254.27,165.83 255.1,166.24 256.44,165.41Z" style="fill-rule:nonzero;"/>
        <path d="M182.47,179.78C182.57,181.12 183.3,181.54 184.33,181.64C183.91,180.91 183.5,180.19 182.47,179.78Z" style="fill-rule:nonzero;"/>
        <path d="M192.9,173.68C193.83,174.71 194.35,175.54 195.59,175.23C195.17,174.3 194.66,173.58 192.9,173.68Z" style="fill-rule:nonzero;"/>
        <path d="M262.23,164.79C261.09,164.17 260.37,164.17 259.34,164.58C260.27,165.21 260.99,165.83 262.23,164.79Z" style="fill-rule:nonzero;"/>
        <path d="M240.84,192.79C241.05,192.27 241.05,191.76 240.53,191.34C240.33,191.86 239.81,192.48 240.84,192.79Z" style="fill-rule:nonzero;"/>
        <path d="M182.78,224.1C183.19,224 182.98,224 182.78,224.1Z" style="fill-rule:nonzero;"/>
        <path d="M212.12,163.97C211.5,163.45 210.88,163.04 210.47,164.18C211.09,164.59 211.6,164.59 212.12,163.97Z" style="fill-rule:nonzero;"/>
        <path d="M179.78,133.39C177.09,136.28 175.12,139.88 171.62,141.97C168.2,144.01 165.01,146.41 162.22,149.2C166.66,149.71 179.57,138.65 179.78,133.39Z" style="fill-rule:nonzero;"/>
        <path d="M177.2,101.15C173.48,100.01 170.48,102.6 167.9,109.42C169.45,105.08 174.3,104.35 177.2,101.15Z" style="fill-rule:nonzero;"/>
        <path d="M145.79,216.45C143.62,219.76 143.83,229.67 146.1,232.77C145.79,227.1 145.27,221.83 145.79,216.45Z" style="fill-rule:nonzero;"/>
        <path d="M173.27,148.68C171,151.99 169.76,156.12 169.76,160.67C171,156.74 171.93,152.6 173.27,148.68Z" style="fill-rule:nonzero;"/>
        <path d="M158.08,199.3C158.08,201.37 157.87,203.54 159.42,205.4C159.94,203.13 159.43,201.16 158.08,199.3Z" style="fill-rule:nonzero;"/>
        <path d="M153.12,145.06C152.71,146.71 153.33,148.16 153.95,149.5C154.57,147.85 154.05,146.4 153.12,145.06Z" style="fill-rule:nonzero;"/>
        <path d="M146.3,237.84C146.61,239.39 146.61,241.15 147.85,242.39C147.54,240.84 147.85,239.08 146.3,237.84Z" style="fill-rule:nonzero;"/>
        <path d="M156.33,189.9C155.4,191.14 155.81,192.07 156.85,193.52C157.15,191.97 157.36,190.83 156.33,189.9Z" style="fill-rule:nonzero;"/>
        <path d="M165.73,111.79C164.18,112.82 164.49,114.17 164.8,115.41C165.32,114.27 166.56,113.34 165.73,111.79Z" style="fill-rule:nonzero;"/>
        <path d="M159.74,150.95C158.81,151.26 158.81,151.78 159.22,152.6C159.84,152.09 160.36,151.67 159.74,150.95Z" style="fill-rule:nonzero;"/>
        <path d="M159.43,168.41C160.09,167.42 158.71,166.85 158.71,167.69C158.6,168.1 158.91,168.41 159.43,168.41Z" style="fill-rule:nonzero;"/>
        <path d="M286.51,200.03C285.06,202.51 288.06,203.75 288.16,204.99C285.99,209.64 290.23,211.6 291.16,214.6C292.29,209.12 289.71,201.68 286.51,200.03Z" style="fill-rule:nonzero;"/>
        <path d="M288.27,187.11C284.9,186.36 289.14,196 279.38,199.61C284.34,201.47 288.68,193.62 288.27,187.11Z" style="fill-rule:nonzero;"/>
        <path d="M286.72,164.28L286.72,154.05C286.51,157.36 284.65,160.87 286.72,164.28Z" style="fill-rule:nonzero;"/>
        <path d="M287.54,137.1C285.47,139.17 285.78,141.65 285.47,144.02C286.63,144.03 286.03,145.8 287.54,137.1Z" style="fill-rule:nonzero;"/>
        <path d="M292.71,221.41C291.57,219.65 293.23,217.17 290.85,215.73C291.67,217.49 290.23,220.17 292.71,221.41Z" style="fill-rule:nonzero;"/>
        <path d="M290.02,180.91C288.16,183.18 288.16,183.39 288.47,186.08C289.82,184.53 290.23,182.88 290.02,180.91Z" style="fill-rule:nonzero;"/>
        <path d="M291.16,174.3C290.13,175.75 290.13,175.75 290.44,177.71C291.26,176.26 291.26,176.26 291.16,174.3Z" style="fill-rule:nonzero;"/>
        <path d="M297.36,250.14C296.95,251.38 297.77,252.1 298.29,252.72C297.98,251.89 297.77,251.07 297.36,250.14Z" style="fill-rule:nonzero;"/>
        <path d="M284.34,144.65C283.41,144.86 283.2,145.17 283.72,145.79C284.34,145.78 284.55,145.47 284.34,144.65Z" style="fill-rule:nonzero;"/>
        <path d="M191.56,320.19C196.01,316.75 203.27,306.84 201.27,303.35C195.22,339.66 139.16,317.2 156.32,276.1C156.58,276.63 157.3,275.01 157.57,274.11C156.68,274.91 156.18,275.32 156.32,276.07C154.99,276.39 154.68,277.62 154.26,278.55C141.33,307 175.18,332.85 191.56,320.19Z" style="fill-rule:nonzero;"/>
        <path d="M184,285.14C183.89,285.18 183.44,285.18 183.19,285.06C168.32,280.24 172.15,305.24 183.91,299.63C185.16,299.03 186.6,299.22 187.63,298.6C190.42,293.64 190.21,290.13 186.8,286.2C181.67,279.28 174.06,282.93 172.96,287.34C177.91,283 180.8,282.48 184,285.14ZM187.53,289.09C188.36,290.95 189.18,292.29 188.15,294.46C187.94,292.6 187.22,291.15 187.53,289.09ZM181.43,298.28C174.3,298.55 173.13,286.43 179.78,286.19C187.1,285.93 187.92,298.04 181.43,298.28Z" style="fill-rule:nonzero;"/>
        <path d="M164.9,268.53C164.18,268.32 163.97,268.53 163.87,268.84C164.18,269.25 164.49,269.15 164.9,268.53Z" style="fill-rule:nonzero;"/>
        <path d="M202.1,298.7C202,299.42 201.89,299.84 202.2,300.15C202.41,299.73 202.41,299.42 202.1,298.7Z" style="fill-rule:nonzero;"/>
        <path d="M305.42,324.73C292.1,322.11 280.93,308.2 280.83,294.66C280.76,285.78 287.51,273.7 282.38,282.26C273.29,302.1 287.83,322.15 303.66,325.96C323.34,330.71 331.9,308.56 329.49,307.05C327.87,314.72 319.1,327.43 305.42,324.73Z" style="fill-rule:nonzero;"/>
        <path d="M312.21,288.56C312.11,288.59 311.63,288.58 311.4,288.47C296.62,283.54 300.3,308.68 312.12,303.04C313.37,302.44 314.81,302.63 315.84,302.01C318.63,297.15 318.42,293.54 315.01,289.61C310.33,282.95 302.35,286.03 301.17,290.75C306.13,286.41 309.02,285.88 312.21,288.56ZM316.57,297.97C316.16,296.01 315.85,294.56 315.64,293.11C316.68,294.46 317.4,295.8 316.57,297.97ZM309.45,301.8C302.4,301.68 301.59,289.71 308.42,289.71C315.46,289.71 316.27,301.91 309.45,301.8Z" style="fill-rule:nonzero;"/>
        <path d="M292.91,271.94C292.6,271.84 292.29,271.94 291.98,272.46C292.71,272.56 293.12,272.56 292.91,271.94Z" style="fill-rule:nonzero;"/>
        <path d="M330.52,302.42C330.21,302.73 330.31,303.14 330.52,303.56C330.83,303.14 330.73,302.73 330.52,302.42Z" style="fill-rule:nonzero;"/>
        <path d="M285.89,277.41C284.96,278.34 284.44,278.75 284.65,279.58C285.37,279.27 285.58,278.65 285.89,277.41Z" style="fill-rule:nonzero;"/>
        <path d="M447.89,30.07C447.58,32.45 448.41,34.62 450.68,36.17C450.16,30.59 450.16,30.59 451.51,29.87C452.85,30.39 451.82,32.45 453.58,32.87C453.79,31.01 452.55,29.46 452.24,27.7C450.58,27.9 448.41,27.59 447.89,30.07Z" style="fill-rule:nonzero;"/>
        <path d="M178.88,295.47C178.78,295.57 179.08,297.18 180.92,297.35C184.12,295.28 184.43,294.66 183.3,292.18C183.09,294.66 181.96,295.9 179.27,295.18C178.45,292.76 176.71,294.76 178.88,295.47Z" style="fill-rule:nonzero;"/>
        <path d="M307.59,298.7C306.74,299.55 307.87,300.75 309.24,300.87C312.44,298.8 312.75,298.18 311.62,295.7C311.41,298.18 310.27,299.42 307.59,298.7Z" style="fill-rule:nonzero;"/>
        <path d="M307.28,298.9C307.38,298.9 307.49,298.8 307.69,298.59C306.36,295.94 305.19,298.61 307.28,298.9Z" style="fill-rule:nonzero;"/>
    </g>
</svg>
