<?xml version="1.0" encoding="UTF-8" standalone="no"?>
<!DOCTYPE svg PUBLIC "-//W3C//DTD SVG 1.1//EN" "http://www.w3.org/Graphics/SVG/1.1/DTD/svg11.dtd">
<svg width="100%" height="100%" viewBox="0 0 900 600" version="1.1" xmlns="http://www.w3.org/2000/svg" xmlns:xlink="http://www.w3.org/1999/xlink" xml:space="preserve" xmlns:serif="http://www.serif.com/" style="fill-rule:evenodd;clip-rule:evenodd;stroke-linejoin:round;stroke-miterlimit:2;">
    <g>
        <path d="M648.19,391.06L648.23,391.06C648.23,391.03 648.23,391 648.22,390.98C648.21,391.01 648.2,391.03 648.19,391.06Z" style="fill-rule:nonzero;"/>
        <path d="M746.06,578.91C741.17,577.6 737.86,573.81 733.37,571.85C726.86,569.01 727.64,562 718.42,555.78C708.54,549.1 718.7,543.81 714.22,539.61C724.47,510.28 742.12,490.05 744.01,473.17C746.03,455.13 743.74,451.16 746.06,444.71C749.07,436.33 748.8,427.72 747.49,419.12C746.65,413.59 743.6,409.17 737.36,408.37C732.36,407.73 727.17,401.69 723.34,400.18C711.78,395.62 706.81,397.15 703.99,393.32C702.68,391.53 688.37,389.95 686.28,389.74C685.56,386.87 688.56,372.85 682.39,358.41C678.98,350.42 685.17,349.22 684.34,331.08C683.95,322.49 677.93,320.56 681.88,312.65C689.77,296.86 686.8,291.33 681.47,264.33C679.28,253.24 670.49,255.24 662.74,246.11C660.67,243.67 658.54,241.2 655.68,239.35C655.88,235.87 655.37,232.29 656.91,229.01C661.11,229.93 663.99,229.02 664.89,225.84C666.98,218.48 671.32,211.7 670.52,203.73C670.43,202.81 670.62,201.68 671.13,200.86C673.69,196.77 672.56,192.57 671.74,188.37C668.94,178.58 671.5,208.26 661.61,227.58C657.21,228.19 653.42,227.38 649.12,227.68C653.83,230.65 649.22,232.59 649.02,234.95C650.04,235.15 650.35,236.18 651.27,237.2C655.87,219.56 651.33,244.37 655.57,245.59C658.46,246.43 663.47,257.92 661.61,268.62C660.83,273.08 657.89,273.28 649.73,276.09C633.17,263.73 629.55,250.11 621.17,242.1C621.58,240.36 623.12,238.93 621.78,236.98C620.65,238.11 621.68,239.95 620.04,240.67C611.27,230.65 609.9,231.99 611.65,229.72C622.13,216.07 617.46,207.29 622.71,197.17C620.46,197.78 619.43,196.66 619.02,194.71C619.94,194.3 621.17,195.12 622.19,193.58C621.68,191.74 623.11,189.59 622.6,187.34C621.37,185.91 619.32,184.99 619.84,182.32C623.12,182.73 622.66,185.4 623.22,187.23C623.88,189.4 624.86,191.43 625.17,193.78C628.45,190.09 628.88,185.19 630.9,181.09C632.97,176.9 635.81,173.11 637.45,169.32C639.09,168.3 640.11,169.73 641.14,168.81C640.32,166.25 644.21,167.58 643.7,165.12C641.64,160.5 642.69,161.69 637.35,161.33C638.17,160.51 638.58,159.38 639.7,159.08C644.41,161.54 644.41,161.54 645.94,164.4C647.48,164.09 646.66,162.86 647.07,161.84C648.91,162.45 650.35,161.02 652.29,161.12C657.72,161.42 663.14,163.68 668.67,161.22C669.28,165.52 668.86,169.93 670.92,173.61C675.3,181.44 657.3,177.38 662.83,190.09C663.75,188.86 662.63,187.12 664.06,186C666.52,186.92 668.77,185.69 671.33,184.98C671.74,181.6 674.49,178.23 673.28,174.85C671.52,169.94 671.74,165.02 670.93,160.31C672.88,156.73 676.97,156.01 679.63,153.14C679.02,151.81 679.73,150.38 679.63,149.05C677.99,147.92 676.15,149.05 674.61,148.33C675.63,146.9 677.89,147 678.09,145.05C675.94,143.51 675.22,143.51 671.74,145.77C671.33,143.21 672.76,140.55 670.82,138.09C669.18,139.22 668.47,141.06 666.73,141.78C662.9,137.71 658.02,143.06 654.55,142.29C649.43,141.16 644.42,142.29 639.91,141.88C637.96,142.6 638.17,145.16 635.82,144.75C635.21,143.93 636.43,142.19 634.18,141.99C631.72,145.27 628.34,147.21 623.94,147.52C621.89,146.29 620.46,143.22 617.18,144.96C616.98,146.91 619.13,147.42 619.43,148.85C618.82,149.36 617.79,149.77 617.79,150.28C617.66,151.54 612.05,163.63 611.65,168.19C611.43,169.08 607.52,173.94 610.32,182.42C611.33,185.49 613.6,188.26 611.96,191.74C611.86,192.05 612.06,192.66 612.37,193.07C616.15,198.09 613.19,204.64 616.06,209.86C616.15,210 615.09,226.63 605.11,229.21C599.67,230.61 588.98,236.78 583,247.33C587.51,249.13 589.49,238.53 604.7,233.82C606.25,238.86 609.79,242.99 611.38,248.01C607.14,247.11 602.89,246.33 598.55,248.05C610.13,248.64 611.53,250.72 611.62,248.86C618.4,257.36 619.07,276.29 619.12,287.16C619.16,295.55 614.21,301.29 609.6,307.63C603.66,303.74 602.13,297.19 598.54,292.48C598.54,289.51 600.28,287.36 600.49,284.7C597.93,287.98 594.86,291.46 595.06,295.76C595.87,312.51 596.5,335.13 586.26,347.87C579.83,355.87 585.08,361.73 584.11,372.23C580.1,415.76 570.71,428.49 583.09,446.24C579.92,452.89 579.4,460.37 576.13,467.64C576.33,471.33 580.22,474.09 581.25,478.08C580.53,479.21 579.1,479.51 578.69,478.9C577.05,476.75 574.08,477.26 572.34,475.42C572.54,472.45 570.8,470.1 570.09,467.44C568.45,470.41 569.07,473.07 570.81,475.63C569.68,476.04 568.97,476.76 567.94,476.45C566.3,475.95 566.81,473.79 565.18,473.07C564.26,472.46 562.93,473.48 561.49,472.46C560.67,463.66 564.15,455.06 563.95,446.05C563.92,444.62 562.93,443.39 563.13,441.85C565.86,420.61 555.79,401.44 557.09,385.44C557.82,376.45 559.66,358.76 556.78,357.8C555.96,359.95 556.78,362.1 556.27,364.25C549.89,390.99 560.84,414.84 554.94,421.27C550.44,421.99 548.08,424.03 547.67,428.54C547.15,434.27 545.32,439.8 547.16,445.64C544.29,447.38 544.7,450.04 544.6,452.81C539.99,453.63 535.59,454.96 530.88,454.86C528.78,459.58 525.02,474.58 529.34,481.48C534.03,488.95 535.05,493.83 538.45,491.51C534.97,486.39 531.28,481.27 528.93,475.13C531.08,469.19 531.08,462.74 532.62,456.29C536.1,457.52 539.17,454.96 542.45,455.88C541.32,461.41 539.48,466.63 539.89,472.87C545.32,449.9 540.01,459.66 560.16,453.32C560.26,459.46 558.74,465.09 559.14,470.83C559.46,475.54 559.55,475.85 564.26,475.64C565.39,477.18 566,479.31 568.25,479.53C573.17,480.01 577.87,482.09 582.89,480.96C586.45,486.1 587.9,489.93 594.46,488.54C616.14,483.94 616.64,485.17 616.37,482.19C607.46,483.83 598.66,485.47 590.06,487C585.66,480.45 581.56,474.31 577.88,467.75C580.14,463.38 586.46,447.13 583.82,442.98C575.68,430.17 581.01,414.22 582.18,403.06C582.56,399.4 582.99,398.47 607.26,401.93C608.39,401.93 607.98,403.67 609.21,403.67C610.03,403.36 609.83,402.44 610.13,401.83C611.07,399.89 612.89,399.17 613.1,400.4C612.9,401.73 611.67,401.73 610.95,402.65C611.77,403.37 611.15,404.8 612.59,405.62C614.13,403.67 615.66,404.8 617.61,405.42C617.81,410.23 615.77,414.94 617.81,420.06C619.76,415.15 619.04,410.23 620.06,405.52C624.26,404.6 628.35,403.78 633.06,402.86C633.57,402.86 633.16,404.81 634.6,404.29C635.62,403.57 634.91,402.04 636.03,401.42C636.95,400.81 637.46,402.44 638.38,401.83C639.3,401.22 639.1,399.68 640.33,399.48C641.46,399.68 641.66,401.12 642.79,400.91C656.61,391.53 645.81,394.22 660.81,390.06C656,394.26 650.27,397.43 646.58,402.86C651.6,400.2 655.69,396.1 661.01,393.65C661.32,394.88 659.99,395.29 661.21,396.21C665.92,392.42 671.65,393.14 678,393.24C675.82,394.33 666.57,399.27 665.72,401.84C677.08,393.86 689.06,390.37 702.57,395.49C701.23,402.19 676.33,410.55 668.07,436.75C664.63,447.66 656.54,463.2 663.87,470.53C652.2,470.94 642.37,465 631.21,464.39C636.07,452.97 645.39,451.28 652.91,446.58C647.18,446.99 642.57,450.27 637.66,452.93C644.28,440.61 645.6,433.85 664.89,415.56C663.15,415.46 662.65,415.98 662.13,416.48C646.86,431.01 639.97,442.75 629.68,463.78C628.25,466.7 628.68,474.6 625.48,482C620.5,493.52 606.69,494.41 598.56,507.49C597.7,508.88 583.82,515.56 573.68,517.73C569.48,518.63 564.77,517.83 561.19,521.11C560.88,521.31 560.27,521.31 559.76,521.21C534.96,518.16 543.33,521.72 542.97,494.7C538.16,506.17 541.23,518.45 538.36,529.92C528,515.25 511.89,518.64 492.8,513.64C488.71,512.57 467.42,505.49 464.34,502.58C463.02,501.34 461.47,500.33 460.04,499.2C456.84,487.58 441.85,499.58 436.09,499.4C421.08,498.95 418.9,527.98 430.77,531.85C429.95,533.08 428.93,534.41 429.23,535.84C430.32,541 424.1,542.46 425.95,546.38C427.97,550.66 425.52,555.45 431.38,565.11C439.75,578.91 452.76,574.94 467.31,574.94C468.23,574.94 469.15,574.63 469.36,573.2C468.03,572.28 466.7,572.78 465.47,572.89C424.37,576.73 433.01,553.58 428.1,544.02C428.71,542.38 430.56,541.77 431.38,540.74C432.1,538.39 431.91,536.25 433.02,534.39C437.65,526.61 427.66,530.01 426.57,523.33C425.57,517.18 425.8,511.12 428.92,505.52C432.43,499.23 437.71,504.2 445.09,498.66C447.1,496.96 452.7,495.33 449.29,498.86C446.47,501.79 438.89,509.69 441,513.4C442.85,516.67 443.46,520.76 446.73,522.92C449.81,524.96 451.34,528.04 453.69,530.8C451.23,530.8 449.49,528.96 447.34,529.37C445.5,531.32 447.34,532.13 448.47,533.06C447.55,534.29 445.91,533.06 445.19,534.39C445.19,536.23 449.06,535.58 446.11,537.05C445.8,538.38 447.44,538.48 447.44,539.51C446.93,540.02 446.11,540.23 446.01,540.94C446.01,542.17 447.44,541.76 447.85,542.68C447.13,543.4 445.5,542.68 445.19,544.32C446.11,545.65 447.95,545.55 449.28,546.67C448.87,547.39 447.64,547.8 447.95,548.92C453.07,552.81 458.29,550.97 462.28,544.01C463.3,545.75 462.59,547.39 462.18,548.51C462.38,549.94 463.72,549.94 463.61,551.27C458.7,557.23 470.57,557.96 455.83,556.49C461.96,554.71 458.2,554.57 458.08,553.62C458.08,552.9 459.62,552.6 458.9,551.57C455.52,551.37 454.91,551.88 454.4,555.46C450.61,557.81 445.9,556.38 442.01,558.02C442.4,561.9 458.31,560.52 463.1,560.37C464.02,560.29 464.74,559.78 465.02,558.87C466.35,559.44 472.22,565.06 469.14,571.23C469.04,571.33 469.34,571.54 469.45,571.74C474.16,567.75 474.34,565.11 470.17,560.99C459.71,550.65 471.77,555.2 464.44,546.45C472.42,541 465.6,531.31 473.24,535.7C493.73,547.46 497.62,553.12 506.2,560.88C524.81,577.72 537.58,569.93 542.95,575.21C548.44,580.6 559.3,582.51 562.09,580.94C573.17,574.73 571.75,569.36 577.34,565.69C582.84,562.07 587.48,557.81 590.14,551.56C605.43,515.55 598.13,512.3 601.81,508.97C607.45,503.87 612.66,498.11 619.52,494.43C630.96,488.29 629.57,474.73 632.32,467.4C637.37,467.24 636.43,470.01 651.87,472.11C658.09,472.95 655.22,477.61 658.93,478.05C658.73,476.21 657.29,474.88 657.39,473.03C660.46,473.03 663.43,473.23 666.5,474.05C665.57,476.85 662.65,478.36 659.85,478.66C640.34,480.74 647.13,484.72 640.81,475.38C639.7,473.73 640.09,471.08 637.33,470.06C637.23,474.46 639.63,477.61 641.32,481.01C642.48,483.35 644.08,484.08 646.64,483.57C652.88,482.33 659.13,481.32 665.27,479.58C665.99,478.56 666.5,477.43 667.62,477.12C672.12,476.92 676.53,479.37 681.03,476.92C682.77,477.94 684.51,478.97 686.35,477.23C687.58,476.21 688.7,475.08 687.58,473.24C686.15,473.24 686.15,475.39 684.41,474.98C681.13,473.03 680.62,469.96 681.24,466.28C682.98,464.54 685.03,463.62 687.48,463C687.48,469.55 690.7,475.28 690.55,481.73C690.48,484.47 696.4,491.91 692.6,507.53C685.47,536.82 688.84,543.85 681.44,549.5C674.89,548.89 671.72,552.06 672.94,558.51C673.87,563.42 672.8,568.21 669.97,572.02C667.17,575.78 666.26,580.4 663.73,584.3C662.8,585.73 662.91,587.77 665.16,588.39C695.76,596.9 675.54,587.34 706.72,593.71C717.95,596.01 739.03,595.09 744.19,593.4C746.04,592.79 747.77,592.17 750.23,593.09C750.13,590.69 750.81,580.18 746.06,578.91ZM666.92,182.63C667.84,182.12 668.76,181.81 670.3,182.02C668.97,183.35 667.95,182.63 666.92,182.63ZM675.73,150.9C675.42,151.92 675.01,152.85 674.09,153.46C673.01,153.06 672.41,150.16 675.73,150.9ZM667.74,143.32C669.17,145.27 668.05,145.78 666.61,147.01C667.13,145.47 667.33,144.55 667.74,143.32ZM665.08,159.49C664.57,160 664.26,159.49 663.95,159.18C664.57,158.68 664.88,158.68 665.08,159.49ZM656.79,158.47C655.46,158.78 654.74,157.96 653.92,157.24C654.95,157.24 655.97,157.45 656.79,158.47ZM649.32,156.01C650.65,155.19 650.55,156.32 651.37,156.62C650.24,156.93 649.83,156.53 649.32,156.01ZM651.57,147.11C650.96,148.65 649.52,149.16 648.5,150.28C648.19,147.72 649.32,147 651.57,147.11ZM619.32,175.46C618.91,174.03 618.6,172.59 619.83,171.57C620.45,173.11 619.53,174.24 619.32,175.46ZM633.96,170.04C633.76,168.4 634.06,167.48 634.88,166.25C636.52,168.3 634.68,168.71 633.96,170.04ZM632.73,148.54C632.42,149.87 632.01,150.59 630.58,150.28C630.69,149.15 631.5,148.85 632.73,148.54ZM634.17,155.91C633.76,158.26 631.71,159.08 630.28,160.41C630.48,157.86 632.53,157.04 634.17,155.91ZM628.64,173.42C629.15,174.75 628.13,175.16 627.1,175.77C626.79,174.24 627.41,173.72 628.64,173.42ZM627.31,184.58C627.41,185.4 627.11,185.91 626.59,186.22C625.67,185.09 627.1,184.98 627.31,184.58ZM623.42,174.54C623.62,173.11 624.14,172.29 625.57,172.9C625.36,174.03 624.34,174.03 623.42,174.54ZM623.72,149.56C623,150.17 622.7,149.66 622.39,148.74C623.31,148.64 623.42,149.15 623.72,149.56ZM619.42,154.48C620.55,154.79 620.75,156.12 621.98,156.83C622.69,157.24 623.62,155.91 624.74,156.32C625.46,157.34 624.64,157.86 623.92,158.67C621.36,156.72 618.9,157.65 616.34,159.28C618.4,158.27 616.86,155.09 619.42,154.48ZM616.05,185.8C617.38,186.11 617.79,186.93 618.4,187.44C618.81,188.98 616.15,189.49 617.38,191.23C615.74,189.59 613.49,188.26 616.05,185.8ZM548.58,451.66C547.56,449.82 547.45,448.38 549.71,447.67C551.55,448.28 552.58,450.33 554.52,450.54C552.58,451.25 550.63,451.66 548.58,451.66ZM559.23,451.25C554.92,453.41 558.69,450.82 558.82,449.92C557.08,449.1 555.95,450.64 554.62,450.53C552.28,446.43 547.84,442.93 551.14,434.97C552.19,432.42 551.14,429.44 552.06,426.47C554.31,427.29 555.85,429.85 558.71,428.93C558.61,426.78 557.38,425.45 555.84,423.91C557.79,422.58 558.6,420.63 559.32,418.48C559.97,423.61 564.11,449.3 559.23,451.25ZM672.35,255.72C675.53,257.65 678.18,260.22 679.11,264.01C679.91,267.31 686.51,293.86 683.31,294.93C675.53,261.49 659.03,247.65 672.35,255.72ZM611.61,248.83C611.61,248.75 611.63,248.82 611.63,248.86L611.61,248.83ZM608.16,308.55C605.6,311.31 602.63,313.05 599.15,314.79C599.46,309.16 598.23,304.14 597.92,298.82C600.28,302.92 604.68,304.86 608.16,308.55ZM586.26,351.95C586.87,354.41 588.31,356.76 586.87,359.32C586.46,356.87 585.13,354.51 586.26,351.95ZM589.84,398.22C588.71,396.68 588.51,395.76 588.92,393.92C590.15,395.56 589.94,396.48 589.84,398.22ZM592.91,395.56C596.39,397.2 599.67,397.51 603.04,398.53C598.34,399.25 594.14,398.12 592.91,395.56ZM614.92,402.11C615.43,400.98 615.84,401.8 616.76,402.31C615.74,402.63 615.23,402.83 614.92,402.11ZM616.97,399.96C617.89,399.45 618.61,399.45 619.43,399.96C618.5,401.6 617.79,400.99 616.97,399.96ZM626.08,401.4C625.35,400.67 626.39,400.48 627.21,400.89C627,401.4 626.39,401.7 626.08,401.4ZM642.25,399.15C641.33,396.39 643.38,396.18 644.5,395.36C644.1,396.69 643.58,397.92 642.25,399.15ZM648.23,391.06C648.22,391.41 647.75,392.66 646.55,395.46C645.73,396.18 645.22,395.05 644.6,395.36C646.06,393.9 648.06,390.63 648.21,390.99C648.61,389.99 649.04,388.91 650.64,389.01C650.55,390.53 649.84,391.35 648.23,391.06ZM651.06,379.29C648.22,393.93 632.15,399.7 629.87,396.28C628.16,393.29 630.82,400.7 599.57,394.33C578.52,390.04 589.28,390.59 585.85,387.16C586.67,386.85 587.59,387.57 587.8,386.44C587.8,384.45 583.54,388 588,368.12C590.78,355.73 588.17,350.95 590.15,347.24C591.9,343.97 593.2,340.58 594.14,337C595.14,333.21 597.72,329.94 597.93,326.05C599.88,325.64 600.8,327.69 602.74,327.59C601.82,325.24 598.31,325.14 598.54,322.37C598.69,320.63 597.93,318.68 599.46,317.15C601.51,317.35 602.84,319.91 605.19,318.89C604.99,317.35 602.94,317.46 602.53,315.82C604.78,313.87 606.93,311.73 610,310.39C612.87,313.15 616.24,314.18 620.75,312.95C617.99,310.6 614.1,311.52 612.05,308.45C619.13,300.05 624.13,290.96 622.49,272.93C619.7,242.16 599.69,232.19 608.98,231.26C611.54,236.07 615.43,239.55 618.81,243.54C646.39,276.11 642.9,279.95 656.69,276.5C662.83,274.55 664.78,271.89 664.57,265.55C664.37,259.2 663.03,253.06 660.37,247.12C666.59,251.56 679.41,290.48 682.89,298.51C684.81,302.95 677.19,314.45 678.39,316.83C676.75,316.63 676.34,317.85 676.04,319.08C674.81,323.07 673.38,327.07 673.28,331.26C672.87,347.29 654.32,362.47 651.06,379.29ZM674.09,389.22C671.01,390.1 667.64,390.04 664.06,390.45C664.06,383.91 662.74,385.38 655.87,387.79C656.07,385.64 655.15,384.1 653.31,383.39C653.54,376.44 661.59,362.52 666.41,357.8C669.67,354.61 670.78,346.9 674.19,342.75C678.28,337.76 674.54,329.57 678.28,316.95C685.54,336.61 674.2,341.97 682.48,368.24C685.85,378.92 681.47,388.25 683.91,390.05C680.23,391.67 677.46,388.25 674.09,389.22ZM455.63,526.29C457.68,525.68 458.5,527.21 459.62,528.13C458.19,527.83 456.65,527.72 455.63,526.29ZM593.11,533.05C589.58,546.96 587.19,556.51 574.27,563.25C570.72,566.28 564.88,582.35 551.65,576.35C542.4,572.16 538.77,569.59 530.77,568.77C515.11,567.18 496.9,549.85 493,544.41C490.92,541.52 487.36,540.6 477.85,533.15C474.58,530.59 470.17,530.28 465.97,530.59C465.77,530.59 465.56,531.2 465.46,531.41C465.56,533.05 467.3,532.95 468.02,534.28C466.69,535.3 466.38,537.04 465.56,538.78C446.74,536.76 462.6,537.7 465.66,536.22C464.48,528.64 456.34,534.96 456.34,529.16C465.94,532.82 462.58,529.9 463.2,528.24C439.44,510.68 458.55,504.66 459.31,503.06C457.29,499.01 442.88,507.22 452.14,521.69C444.9,519.64 440.06,508.98 448.25,502.65C458.03,495.08 458.19,503.96 473.23,508.89C488.79,514 493.73,517.46 503.84,518.31C511.62,518.96 519.19,520.89 526.67,523.22C532.3,524.98 535.65,529.38 538.65,534.07C541.79,538.99 531.82,542.7 535.17,546.05C542.45,540.23 541.62,535.86 541.62,519.54C552.78,523.23 563.83,524.35 575.1,521.79C575.1,520.66 574.08,521.18 573.56,520.56C598.81,519.09 602.51,496.01 593.11,533.05ZM729.68,572.36C729.07,572.87 728.45,572.97 728.04,571.75C729.06,571.33 729.27,571.85 729.68,572.36ZM665.49,467.12C669.89,467.94 673.88,465.89 678.18,465.58C671.94,471.62 668.77,472.03 665.49,467.12ZM678.39,475.72C675.52,473.77 672.35,475.21 669.48,473.77C673.06,473.36 675.83,471.21 678.59,469.37C679.62,471.52 679.62,471.52 678.39,475.72ZM697.74,455.86C694.36,460.57 692.72,465.38 691.09,470.6C687.6,462.72 688.12,461.49 697.74,455.86ZM695.49,512.37C696.92,507.7 693.7,507.39 696.1,499.57C697.8,494.02 695.02,484.7 694.36,483.09C688.42,468.46 702.23,454.95 711.35,444.19C713.83,441.71 715.53,445.16 719.44,443.37C717.58,439.65 709.9,442.77 707.16,445.83C703.61,449.78 682.84,463.95 665.09,463.95C663.45,460.37 663.45,458.63 665.29,453.61C670.61,453.51 674.91,450.03 679.72,447.88C673.05,448.62 664.37,451.98 665.9,448.19C678.01,418.11 675.95,425.15 704.6,397.31C713.81,400.59 723.26,402.95 731.52,408.37C732.64,409.1 733.77,409.58 735.21,409.7C740.85,410.16 745.55,415.54 745.55,421.06C745.55,426.59 745.45,432.01 745.45,437.54C745.45,444.12 742.42,442.96 742.07,447.88C740.6,468.83 742.14,475.65 732.86,493.13C721.9,513.77 714.66,527.04 710.03,540.94C706.65,541.55 702.86,540.74 700.1,544.93C699.28,541.45 700.61,538.79 699.28,536.02C697.54,538.48 698.15,541.55 696.52,544C694.06,544.31 691.5,545.33 688.54,544.61C691.49,533.87 692.26,522.89 695.49,512.37ZM713.91,555.77C713.19,557.1 712.17,556.49 711.15,556.49C712.07,555.88 712.79,555.16 713.91,555.77ZM701.22,546.76C691.86,550.55 695.35,556.01 685.25,555.67C690.97,546.27 677.8,549.75 701.22,546.76ZM681.05,587.82C676.08,588.08 671.57,586.19 665.69,585.57C670.87,582.74 667.24,580.85 670.81,575.84C678.89,565.74 675.72,556.35 675.72,554.14C676.18,552.59 678.03,552.56 679.51,552.19C680.02,553.73 680.43,554.85 680.74,555.88C686.47,559.36 691.04,559.01 695.28,554.55C702.59,546.85 705.09,549.45 706.34,548.2C707.7,546.84 705.14,546.37 704.8,545.44C706.54,543.29 708.89,544.42 711.15,544.31C710.64,547.18 710.23,549.84 711.05,552.5C708.49,554.85 704.19,553.42 701.94,556.7C703.07,558.24 704.7,557.01 705.93,557.52C705.83,558.75 704.19,558.34 703.98,559.57C705.31,560.8 707.15,559.88 708.59,560.49C708.49,561.31 707.26,561.21 707.46,562.33C709.71,563.35 712.06,563.21 714.52,562.94C731.22,561.14 712.72,564.29 711.14,565.6C713.09,567.44 715.34,566.62 717.38,567.03C717.28,567.85 716.15,567.95 716.25,568.77C719.22,570 719.32,570 725.46,568.16C723.72,570.11 725.26,571.95 724.33,573.59C729.04,575.94 730.47,576.05 732.72,574.31C737.12,576.15 740.71,579.41 745.11,581.27C747.98,582.49 747.46,585.67 747.77,588.44C716.74,595.88 707.34,586.43 681.05,587.82Z" style="fill-rule:nonzero;"/>
        <path d="M206.15,112.71L206.25,112.81C206.22,112.71 206.27,112.71 206.15,112.71Z" style="fill-rule:nonzero;"/>
        <path d="M152.61,340.18L152.51,340.08C152.51,340.1 152.6,340.16 152.61,340.18Z" style="fill-rule:nonzero;"/>
        <path d="M337.39,311.62C340.77,317.46 343.63,322.88 345.37,327.59C342.09,334.96 340.87,342.02 339.02,348.99C334.21,348.68 329.6,351.14 325,348.89C322.24,343.16 320.7,336.91 317.42,331.38C316.42,331.88 315.86,329.56 323.36,348.99C319.57,350.32 315.58,349.5 311.48,349.91C299.86,321.1 302.09,333.38 314.86,330.46C311.28,328.62 307.39,329.64 303.39,328.82C304.93,323.7 308.71,319.91 310.35,315.2C318.85,312.54 327.86,314.07 336.15,311.31C327.86,311.62 319.57,311.62 311.68,313.05C305.78,309.99 307.79,293.73 306.77,282.54C305.83,272.3 312.97,241.85 304.82,222.76C301.85,215.8 311.18,199.53 305.02,188.77C298.55,177.47 312.99,172.19 308.6,151.61C303.64,128.38 305.18,122.85 295.09,118.24C285.13,113.69 284.6,108.02 278.61,104.42C278,100.94 278.71,95.21 280.15,91.73C281.48,91.83 282.5,90.83 283.94,90.91C290.31,91.26 289.46,84.31 291.82,80.16C295.75,73.24 293.48,68.36 296.63,59.79C298.06,55.9 296.83,51.91 295.3,48.22C293.46,62.24 292.54,76.47 286.19,88.96C279.84,90.09 274.52,88.04 268.79,86.71C269.46,90.55 273.88,88.08 274.94,90.5L274.93,90.5C279.07,90.5 275.31,92.88 276.57,106.67C277.17,113.27 278.04,107.67 281.28,114.55C284.44,121.26 287.43,135.78 280.46,138.3C277.9,139.23 275.24,140.14 272.68,141.06C260.16,133.41 253.1,117.52 243.4,105.95C240.02,103.19 236.95,99.91 233.57,96.22C246.49,91.09 241.72,71.61 247.7,58.96C245.14,59.06 243.5,58.65 243.4,56.3C246.43,56 246.2,57.76 247.09,49.34C245.76,47.6 243.4,46.78 244.12,43.4C248.52,46.68 247.6,51.69 249.85,56.4C263.57,23.02 262.21,32.15 265.31,30.6C264.9,28.45 267.77,29.17 268.07,27.22C267.56,26.09 266.84,24.76 266.12,23.33C264.89,23.02 263.36,23.84 262.54,22.1C264.28,19.54 265.51,22.31 266.94,22.61C268.98,23.03 269.19,25.07 270.01,26.19C272.06,25.88 270.52,24.35 271.55,23.63C273.19,24.35 274.72,22.84 276.67,23.02C282.09,23.51 287.42,25.48 292.74,23.12C293.66,25.11 292.85,31.85 295.09,35.4C299.91,43.02 281.11,40.19 287,51.98C288.02,50.75 286.9,48.91 288.43,47.78C290.78,49.11 292.93,47.27 295.39,46.96C296.21,43.48 298.68,39.99 297.54,36.72C295.82,31.8 296,26.69 295.08,22.08C297.33,18.6 301.12,17.78 303.99,15.02C302.76,13.79 304.19,12.36 303.89,10.93C301.94,9.6 300.1,10.93 298.16,10.62C299.18,8.78 302.15,9.29 302.25,6.53C299.9,4.38 297.95,6.84 295.8,7.55C295.7,4.89 296.93,2.33 294.98,-0.03C293.14,1.3 292.42,3.35 290.37,3.96C290.37,-1.02 281.71,4.96 278.7,4.16C273.56,2.8 268.57,4.16 264.16,3.65C262.11,4.47 262.21,7.23 259.96,6.72C258.04,-2.86 259.99,9.11 248.08,9.38C246.13,8.05 244.6,5.29 241.53,6.82C241.12,8.77 243.37,9.28 243.68,10.81C241.71,12.18 241.9,14.77 240.66,16.6C241.79,16.88 242.84,16.52 243.88,16.33C245.11,16.64 245.21,18.07 246.23,18.58C247.25,18.99 247.97,17.66 248.99,18.27C249.6,19.19 248.99,19.7 248.07,20.52C245.61,18.27 243.16,19.5 240.7,21.54C240.8,19.7 242.34,19.39 242.54,18.26C242.45,17.14 241.76,17.28 241.07,17.09C241.29,17.15 241.54,17.18 241.71,17.19C241.31,17.05 240.87,16.96 240.56,16.7C240.51,16.76 240.53,16.82 240.58,16.88C240.55,16.86 240.52,16.85 240.49,16.83C237.73,17.03 239.98,18.98 239.36,20.11C237.62,23.29 236.29,26.76 235.88,30.45C235.88,30.85 231.01,37.94 236.08,47.55C238.49,52.1 234.98,50.86 237.31,56.56C242.55,69.36 240.13,79.11 238.13,86.45C236.78,91.42 234.66,91.71 223.08,96.58C217.39,98.98 205.31,109.7 206.17,112.66C209.66,113.61 213.66,102.48 227.59,98.42C228.59,102.15 236.77,116.19 234.76,114.19C240.92,121.28 241.58,139.82 242.03,149.82C242.43,158.93 237.53,165.38 232.51,172.03C226.73,168.88 227.25,165.53 224.12,161.49C217.93,153.5 226.09,150.34 222.99,149.1C220.84,152.48 217.87,155.75 217.97,160.05C218.5,182.95 219.23,199.55 208.86,212.77C203.28,219.89 208.08,222.57 206.3,244.2C203.74,275.31 193.35,292.4 205.99,310.54C202.61,317.19 202.3,324.87 198.93,331.63C199.65,335.62 203.02,338.59 204.25,343.2C200.26,343.71 198.21,340.13 195.04,340.03C195.45,336.55 193.71,334.3 192.79,331.74C191.77,334.61 191.77,337.37 193.71,339.83C192.58,340.34 191.87,341.06 191.36,340.85C189.41,340.05 189.62,338.29 188.49,337.47C187.36,336.55 185.93,337.67 184.29,336.75C183.74,327.21 187.31,321.52 186.44,302.97C184.9,270.09 184.97,289.54 181.63,267.24C177.87,242.2 183.61,226.08 180.2,221.99C178.77,223.01 179.39,224.14 179.48,225.16C179.92,229.94 173.68,244 179.89,273.38C180.87,278.01 187.27,309.83 182.96,315.76C181.12,316.27 182.04,314.53 180.5,314.43C177.29,315.99 155.28,319.04 153.58,319.04C151.12,326.1 150.2,333.17 149.69,340.33C149.69,340.43 157.3,358.59 160.85,355.99C161.17,353.57 154.64,347.95 152.53,340.26C154.82,340.66 157.02,341.1 159.42,339.21C155.46,338.08 152.63,340.7 152.47,340.05C151.2,339.03 152.52,339.51 154.3,327.03C154.61,324.88 154.91,322.83 155.32,320.58C159.21,321.4 162.49,319.66 165.76,319.45C164.33,324.06 163,328.66 163.1,333.58C170.37,318.63 157.17,323.28 183.16,317.71C182.45,338.28 179.22,340.09 187.15,339.92C188.17,341.46 188.89,343.59 191.14,343.81C196.06,344.29 200.76,346.37 205.78,345.24C212.82,355.8 210.44,354.27 236.8,349.03C241.05,348.19 240.23,346.4 236.6,346.98C236.3,347.03 213.35,351.22 213.05,351.28C194.77,324.5 202.67,338.06 207.11,312.58C208.77,303.05 199.49,306.45 202.81,281.15C203.89,272.95 205.27,264.57 208.24,256.79C214.08,259.86 217.35,260.58 223.9,259.86C221.65,259.76 223.18,257.2 221.75,256.69C220.32,257.1 221.75,258.43 220.73,258.84C214.32,258.84 219.16,255.59 216.33,254.64C214.77,255.19 215.66,263.03 214.29,253.72C226.27,254.81 238.92,261.2 272.12,265.19C270.38,266.32 270.89,267.75 270.07,268.77C268.84,269.08 267.61,269.18 266.59,268.67C265.57,267.75 267.41,266.72 266.39,265.8C264.96,266.31 265.57,267.95 264.44,268.46C263.01,268.87 261.57,268.26 259.94,268.97C263.83,271.53 261.27,276.14 263.63,280.13C263.94,276.44 264.24,273.58 264.55,270.71C265.95,270.71 268.04,270.41 269.16,271.53C269.67,282.28 274.48,292.31 276.12,303.06C276.32,292 270.18,282.07 270.49,271.12C271.81,270.79 273.49,271.3 273.25,271.53C277.96,270.2 282.98,270.3 287.68,268.56C288.19,269.38 287.48,270.91 289.01,271.22C290.65,264.98 291.26,261.09 287.58,259.04C291.75,234.44 288.38,229.75 294.44,215.94C299.21,205.07 298.43,193.32 300.38,182.06C299.78,182.04 299.33,182.34 299.15,182.98C298.1,186.76 296.3,190.35 296.08,194.45C295.24,210.28 287.58,220.81 287.58,236.22C287.58,266.54 286.54,264.17 262.81,261.4C261.48,257.2 261.99,252.9 260.35,248.3C259.94,253.11 261.17,257 261.58,260.89C257.79,261.4 212.03,251.57 208.35,249.32C209.17,244.2 209.16,238.87 210.4,233.66C211.72,228.13 212.16,222.3 211.83,216.56C211.58,212.08 214.36,210.99 217.15,200.69C218.07,197.31 220.43,194.65 220.43,191.17C222.58,190.66 223.4,192.81 225.34,192.5C224.42,190.35 221.22,190.25 221.04,187.79C220.27,177 224.3,185.65 227.8,183.9C227.6,182.36 225.45,182.57 225.24,180.93C236.58,169.59 230.36,181 243.52,178.09C243.84,177.12 236.79,176.27 234.86,173.96C234.86,171.33 247.82,165.34 244.69,135.67C241.75,107.74 222.2,97.39 231.48,96.46C233.63,100.55 236.92,103.41 239.77,106.7C262.78,133.2 266.08,145.36 276.93,142.12C286.55,139.24 288.3,136.81 287.06,126.87C286.13,119.38 284.97,116.68 282.86,111.62C289.84,117.5 302.26,155.19 305.79,163.73C307.45,167.73 302.1,174.39 300.61,181.89C301.13,181.97 301.6,182.07 301.7,182.77C304.28,202.89 303,194.19 301.7,213.69C300.72,228.41 306.9,230.16 306.41,242.25C305.97,252.93 302.05,301.01 307.84,314.52C306.41,317.59 305.08,320.46 303.64,323.43C303.84,318.91 298.54,301.62 297.5,287.91C296.56,275.51 284.22,266.66 290.23,275.63C294.14,281.47 294.99,286.48 297.29,301.94C297.31,302.04 303.21,334.79 304.25,337.57C304.73,339.49 303.1,342.03 306.81,369.61C307.61,375.55 307.83,381.49 307.32,387.42C288.59,393.87 269.85,391.51 250.91,389.16C251.11,388.04 250.31,386.83 252.01,387.2C251.17,384.26 248.95,384.86 247.02,385.47C239.12,387.95 232.85,383.82 223.37,382.71C201.75,380.16 196.36,372.38 186.52,376.98C184.26,377.73 189.53,367.02 188.26,352.72C190.92,350.57 194.81,349.75 194.2,345.04C192.25,346.68 192.25,346.68 191.44,349.03C182.41,352.04 181.71,353.23 179.16,353.12C173.53,352.9 168.33,355.19 162.99,356.09C162.28,356.21 161.56,356.5 161.86,358.24C170.05,357.63 177.93,355.27 186.22,353.74C184.99,362.44 183.76,371.04 182.53,379.95C187.96,381.18 193.59,376.78 198.91,380.26C200.11,382.32 198.59,398.9 200.34,406.77C207.78,440.17 181.88,452.63 187.54,487.44C190.84,507.72 196.08,512.46 200.95,550.71C191.08,559.51 198.3,572.51 189.18,591.04C194.11,597.76 208.19,594.17 213.65,596.47C235.29,605.56 266.11,593.94 270.47,594.32C295.32,596.48 299.45,593.88 309.78,592.37C314.55,591.67 313.2,588.8 312.13,582.44C310.38,571.99 306.65,578.02 295.03,570.56C286.81,565.29 282.03,556.84 275.17,550.29C275.58,547.42 274.86,544.66 274.86,542.2C273.35,539.18 271.53,543.44 273.32,533.6C275.35,522.46 279.23,511.69 280.69,500.43C282.1,489.58 287.66,479.85 288.06,468.8C288.27,462.97 289.78,457.23 289.08,451.4C286.53,430.03 295.6,423.52 292.36,410.35C290.47,402.66 294.66,399.27 297.38,392.84C301.37,392.33 304.75,389.46 309.56,390.38C311.4,374.51 306.8,359.05 306.18,342.68C308.43,346.37 308.84,350.05 311.81,352.71C312.53,351.17 313.86,351.5 315.19,351.48C337.28,351.17 340.44,352.01 341.5,346.87C341.93,344.81 344.94,330.63 347.44,329.47C346.81,323.08 341.38,312.95 337.39,311.62ZM291.94,44.22C292.66,43.5 293.48,43.81 294.81,43.61C293.47,45.25 292.76,44.63 291.94,44.22ZM300.44,12.59C300.24,13.82 299.52,14.64 298.7,15.46C296.92,14.7 297.73,11.69 300.44,12.59ZM292.35,5.43C293.68,7.07 292.45,7.48 291.33,8.4C291.43,7.06 291.84,6.35 292.35,5.43ZM289.58,21.29C289.07,21.6 288.76,21.49 288.45,20.88C289.17,20.27 289.48,20.68 289.58,21.29ZM281.09,13.1C281.6,14.02 280.58,13.82 280.27,14.12C280.17,13.41 280.47,13.1 281.09,13.1ZM281.6,20.37C280.37,20.17 279.14,19.96 278.43,18.94C279.65,18.94 280.68,19.55 281.6,20.37ZM273.61,17.81C274.94,17.3 275.25,17.71 275.35,18.32C274.64,18.84 274.33,18.22 273.61,17.81ZM276.28,9.01C275.05,10.14 274.03,10.96 272.8,12.08C273.31,9.11 273.31,9.11 276.28,9.01ZM259.49,28.25C260.92,29.89 259.29,30.4 258.47,31.12C258.46,30.1 258.36,29.07 259.49,28.25ZM257.13,10.24C257.03,11.47 256.62,12.39 255.08,11.88C255.29,10.75 256.31,10.65 257.13,10.24ZM258.57,17.71C257.96,19.76 256.42,21.09 254.27,22.73C254.88,19.66 257.03,18.94 258.57,17.71ZM253.34,35.11C253.24,36.54 252.73,37.16 251.5,37.36C251.3,35.83 252.01,35.32 253.34,35.11ZM251.81,46.27C252.22,46.99 251.5,47.29 251.3,47.91C250.48,46.99 250.99,46.58 251.81,46.27ZM250.07,34.6C249.87,35.83 248.84,35.73 247.92,36.24C248.23,34.91 248.53,33.99 250.07,34.6ZM244.03,33.07C245.57,34.71 243.52,36.14 243.83,37.47C243.52,36.03 243.11,34.6 244.03,33.07ZM240.88,17.08C240.87,17.08 240.87,17.08 240.86,17.07C240.87,17.08 240.87,17.08 240.88,17.08ZM240.55,47.6C241.78,47.6 242.19,48.52 242.9,49.34C243,50.67 241.47,51.08 241.16,52.72C239.52,50.78 238.19,49.34 240.55,47.6ZM284.06,263.91C285.32,266.21 283.45,267.44 283.45,266.88C282.93,265.86 283.14,264.94 284.06,263.91ZM281.09,265.04C282.42,267.04 280.42,268.05 280.17,267.29C280.06,266.37 279.65,265.35 281.09,265.04ZM278.43,265.35C278.53,266.48 278.84,267.6 277.2,267.81C276.18,267.3 277.51,266.38 276.48,265.76C274.84,266.58 274.74,269.75 272.08,269.14C272.28,265.35 273,264.94 278.43,265.35ZM212.19,253.47C213.01,253.16 213.62,253.67 214.24,253.88C212.4,253.68 212.5,255.11 212.4,257.05C211.78,255.31 211.99,254.39 212.19,253.47ZM209.22,252.86C210.55,253.68 210.35,254.81 210.04,256.65C209.02,254.9 209.12,253.98 209.22,252.86ZM209.22,225.11C209.32,221.94 207.48,219.58 209.12,217.02C209.12,219.48 211.37,221.84 209.22,225.11ZM221.81,180.38C222.22,174.03 221.09,168.1 219.97,162.06C221.92,167.38 227.03,169.74 230.82,173.63C228.57,176.9 224.89,178.13 221.81,180.38ZM306.17,160.31C302.79,145.98 296.75,132.67 289.89,119.05C296.54,120.79 300.8,124.16 302.17,130.11C303.05,133.87 309.1,159.33 306.17,160.31ZM199.29,522.5C197.03,513.06 199.67,512.29 197.75,510.32C188.7,500.99 191.27,466.21 191.3,463.74C191.37,458.72 191.62,469.24 202.25,432.41C203.97,426.47 203.76,420.32 205.12,414.39C205.82,411.32 205.03,408.04 204.1,404.97C201.87,397.59 202.05,390.02 201.34,382.35C203.43,381.74 231.14,386.61 232.46,388.08C235.24,387.8 240.66,391.38 249.25,387.88C247.92,395.35 247.26,402.19 243.41,408.46C241.03,412.33 238.96,416.66 239.83,421.56C240.95,427.93 235.72,431.61 235.22,438.76C234.41,442.2 233.82,434.01 228.57,452.78C224.9,465.89 229.9,466.62 223.25,498.34C220.12,513.24 221.3,534.97 221.41,545.74C219.26,547.28 216.7,548.5 216.09,551.47C214.55,551.16 215.17,549.63 214.45,548.91C213.58,551.95 215.55,550.57 204.21,552.7C200.57,538.87 204.66,544.93 199.29,522.5ZM248.53,542.46C248.22,544.71 248.22,546.86 247.61,549.42C229.1,552.09 246.94,572.72 234.61,563.24C234.92,559.15 233.7,555.46 232.56,551.77C231.14,547.16 226.32,547.78 223.45,546.04C224.52,533.86 221.59,514.53 228.47,489.33C233.58,470.59 226.38,459.36 233.79,448.59C237.42,443.31 236.09,442.99 241.77,428.63C245.14,420.11 238.91,424.75 245.35,410.51C250.18,421.19 247.37,432.57 250.47,439.89C252.84,445.49 235.29,463.84 246.78,491.59C249.88,499.04 248.18,498.59 248.53,542.46ZM216.18,558.43C212.19,560.99 206.45,558.43 203.28,563.55C202.63,562.57 202.6,563.84 203.59,556.28C216.71,552.58 217.28,553.34 216.18,558.43ZM248.94,595.8C234.89,598.05 221.67,593.29 209.02,593.65C203.49,593.81 198.17,592.73 192.54,592.11C193.56,586.17 196.4,581.05 197.04,575.12C197.63,569.69 196.53,563.76 199.09,558.43C199.91,561.3 197.86,564.37 200.63,566.62C202.06,567.03 202.88,566.01 203.29,565.9C207.79,568.36 210.47,565.41 213.32,563.65C220.58,559.15 220.15,564.2 218.85,552.49C219.87,550.85 221.41,549.42 223.05,548.29C224.48,548.49 225.2,549.81 227.04,549.52C229.66,549.1 230.31,555.03 231.54,560.99C227.45,562.01 223.04,561.6 218.95,564.37C223.86,565.29 228.27,563.45 232.67,564.37C229.09,566.01 225.09,565.6 221.72,567.85C222.64,569.08 224.18,567.95 225.1,568.87C224.55,571.05 222.03,570.51 239.02,570.51C239.02,572.5 233.29,570.37 228.48,574.2C231.55,574.81 234.01,574.3 236.67,574.3C236.06,575.84 233.91,575.32 233.39,577.27C237.28,576.96 241.07,577.27 244.86,575.43C249.57,580.55 255.53,583.46 261.65,586.08C264.22,587.18 263.7,589.97 264.72,592.53C259.28,593.65 254.16,594.96 248.94,595.8ZM288.77,570.41C286.82,573.38 284.16,570.72 281.81,571.13C283.45,569.9 285.8,570.31 287.24,568.67C288.25,569.18 288.66,569.59 288.77,570.41ZM274.95,553.62C273.41,555.16 271.98,555.05 270.65,555.26C271.87,554.65 273.1,553.93 274.95,553.62ZM273.41,550.96C271.46,551.88 269.52,551.78 267.17,552.39C268.74,547.67 265.42,543.61 272.19,544.41C273,546.35 273.1,548.61 273.41,550.96ZM270.54,555.16C270.03,556.08 269.21,555.67 267.88,555.98C269.21,555.06 269.93,555.06 270.54,555.16ZM292.55,396.89C285.04,404.21 293.69,410.65 287.94,428.52C282.3,446.06 290.1,442.82 283.85,478.27C281.31,492.67 274.14,503.4 269.72,541.23C264.81,543.99 264.7,544.3 265.52,552.9C264.5,554.03 262.86,554.64 262.55,556.38C263.06,557.71 264.09,556.28 264.8,556.89C264.6,557.71 263.06,557.61 263.26,558.73C268.48,560.47 273.29,557.71 278.31,557.19C274.52,559.24 269.92,559.03 266.43,562.1C275.61,564.69 279.42,557.29 281.79,562.61C277.9,563.02 273.91,562.51 270.22,564.25C270.63,565.99 273.91,565.27 272.27,567.73C276.77,568.14 280.87,567.12 284.96,566.71C281.99,568.25 278.31,567.73 275.34,570.7C280.56,571.42 284.66,574.49 289.57,574.69C290.9,573.87 289.57,572.64 290.49,571.82C293.17,572.71 296.21,576.96 300.52,577.04C308.3,577.19 311.78,582.06 310.45,589.63C296.02,593.01 281.58,591.98 266.94,591.27C266.74,586.77 264.89,584.41 261.1,583.18C249.88,579.56 246.62,571.84 240.93,567.93C244.41,563.02 241.54,557.39 243.69,551.86C245.43,554.83 246.76,557.18 248.19,559.64C251.47,560.05 254.06,559.25 255.77,556.36C256.92,554.43 259.06,553.93 260.79,552.88C264.23,550.78 265.61,552.43 263.66,540.39C262.06,548.71 263.87,546.91 256.39,548.99C254.85,547.97 255.88,546.23 254.65,545.1C252.91,546.53 255.67,550.94 251.17,550.32C251.03,549.86 251.59,509.79 251.68,507.94C252.09,500.06 251.55,492.09 246.77,484.91C242.36,478.27 248.17,455.98 251.27,447.85C252.09,445.7 251.88,443.35 252.6,440.68C254.65,442.83 256.49,444.67 259.66,444.37C257.51,441.71 256.28,438.43 252.39,437.82C246.6,424.5 257.99,421.79 246.76,407.52C249.42,403.02 250.96,398 251.16,392.27C274.18,398.24 299.29,390.32 292.55,396.89ZM250.38,553.32C252.43,552.81 254.27,552.3 256.11,551.78C252.77,553.62 250.38,561.35 250.38,553.32Z" style="fill-rule:nonzero;"/>
        <path d="M252.12,387.37L252.12,387.27C252.08,387.27 252.1,387.32 252.12,387.37Z" style="fill-rule:nonzero;"/>
        <path d="M582.98,246.92L582.88,246.82C582.88,246.96 582.89,246.95 582.98,246.92Z" style="fill-rule:nonzero;"/>
        <path d="M554.32,322.78C560.94,339.88 554.75,353.41 562.82,366.8C560.98,368.44 560.13,370.49 560.67,372.74C561.67,376.93 558.21,380.47 563.33,382.57C562.41,378.17 561.38,373.66 562.41,368.75C567.53,375.71 569.68,377.76 573.57,379.7C570.27,373.37 566.18,375.25 563.74,365.78C559.96,351.1 559.47,351.25 559.65,345.92C560.76,311.78 550.56,336.89 556.99,288.39C557.77,288.06 558.94,289.54 558.94,287.78C557.27,272.73 556.15,270.81 569.69,255.12C574.78,249.22 583.44,252.35 582.91,246.95C565.38,250.41 554.44,257.93 555.46,281.74C556,294.66 548.19,306.95 554.32,322.78Z" style="fill-rule:nonzero;"/>
        <path d="M184.24,230.34C186.68,234.83 182.72,232.38 183.22,237.2C184,244.73 181.19,246.19 185.78,248.15C185.17,243.75 183.73,239.35 185.17,234.53C187.32,236.58 187.22,240.06 190.6,240.37C191.06,239.91 189.09,241.07 195.62,244.67C194.39,242.72 193.47,240.47 190.91,239.86C190.89,239.88 190.86,239.9 190.84,239.93C175.99,211.72 186.46,208.59 180.06,190.72C178.82,187.25 177.4,183.66 177.4,180.18C177.4,171.27 178.32,162.47 179.86,153.77C181.2,153.39 182.18,156.14 181.29,150.29C179.15,136.21 181.54,132.63 193.06,119.68C193.98,118.65 194.9,117.81 196.34,117.53C199.81,116.85 202.99,114.59 206.78,115.38C207.29,115.49 208.21,115.18 208.52,114.46C208.11,113.13 205.76,114.66 206.06,112.51C203.91,112.41 201.97,113.64 199.71,114.15C195.1,114.66 190.91,116.41 187.53,119.58C174.52,131.76 180.39,143.63 176.37,161.76C171.84,182.2 176.65,184.48 178.62,195.13C182.17,214.33 178.23,219.27 184.24,230.34Z" style="fill-rule:nonzero;"/>
        <path d="M614.72,441.73C633.05,473.08 626.72,465.83 634.17,444.29C639.27,429.53 634.36,431.21 627.41,459.34C624.95,454.73 622.7,450.74 620.45,446.54C624.65,440.4 626.48,433.03 632.22,427.81C633.99,426.2 635.2,423.93 636.62,421.97C640.33,416.87 638.97,411.63 636.52,406.51C636.21,406 635.91,405.69 634.98,406.31C636.11,409.28 636.93,412.55 637.64,415.63C632.53,424.44 624.78,430.44 624.64,432.62C624.33,437.43 620.75,440.71 619.52,445.11C617.17,443.98 616.45,441.83 614.81,439.99C606.93,440.4 599.45,444.9 591.06,444.08C590.96,437.32 594.23,431.08 593.62,424.32C591.27,430.97 588.6,437.53 588.4,444.49C588.2,445.82 586.35,445.41 586.35,446.84C589.22,447.56 591.47,445.08 594.13,445.3C603.11,446.07 611.94,440.81 614.72,441.73Z" style="fill-rule:nonzero;"/>
        <path d="M252.12,387.68C252.84,387.68 252.84,389.01 254.27,388.4C255.7,384.92 256.48,381.03 256.73,377.04C257.87,358.56 266.45,354.19 269.63,337.32C271.27,337.93 271.88,339.98 274.13,340.49C272.7,337.73 270.85,336.09 268.6,334.86C268.4,331.99 268.6,329.23 270.03,326.36C278.32,330.15 285.9,334.75 293.06,340.08C288.5,332.6 275.24,327.91 269.72,323.91C263.89,332.12 268.55,337.46 267.26,341.31C260.37,361.95 255.55,362.07 254.26,374.48C253.81,378.87 253.86,383.48 252.12,387.68Z" style="fill-rule:nonzero;"/>
        <path d="M239.63,347.96C241.98,349.5 242.7,347.45 243.52,346.12C249.73,337.9 247.79,328.84 250.07,325.03C235.43,294.13 237.18,308.44 214.96,309.37C212.91,309.46 210.76,310.29 209.12,311.83C218.64,310.19 228.37,310.09 237.17,306.2C241.16,313.26 244.85,319.71 248.43,326.06C245.87,331.36 244.1,344.23 239.63,347.96Z" style="fill-rule:nonzero;"/>
        <path d="M652.39,185.39C654.55,181.06 655.22,184.22 656.69,182.42C656.69,177.01 649.48,178.69 647.37,178.22C643.68,177.4 641.64,179.45 639.18,181.6C643.38,179.45 647.27,180.27 651.87,182.01C647.88,182.62 644.29,182.42 641.43,184.77C645.12,185.39 648.7,186.11 652.39,185.39Z" style="fill-rule:nonzero;"/>
        <path d="M539.17,493.12C540.88,493.53 575.4,489.52 571.31,480.32C569.47,481.24 569.57,483.08 568.75,484.31C562.84,486.13 560.07,488.5 556.77,488.4C551.14,488.24 546.02,490.24 540.7,491.27C539.88,491.38 538.96,491.48 539.17,493.12Z" style="fill-rule:nonzero;"/>
        <path d="M276.89,47.19C277.3,46.47 277.4,45.45 278.22,44.84C279.14,44.33 280.47,45.45 281.19,44.02C280.97,38.85 273.8,40.29 271.46,39.93C268.08,39.41 265.83,41.16 263.17,43.31C265.73,44.03 266.86,41.88 268.9,41.67C270.64,43.31 273.51,42.28 275.96,43.82C272.07,44.13 268.59,44.43 265.83,46.58C269.52,47.4 273.1,47.6 276.89,47.19Z" style="fill-rule:nonzero;"/>
        <path d="M273.61,367.21C275.99,370.18 283.01,373.97 286.2,377.55C286.61,378.06 286.92,379.09 287.74,378.27C285.08,371.92 278.01,369.67 274.23,364.25C277.81,359.37 274.05,358.07 271.47,347.36C271.16,346.34 271.16,345.21 269.63,344.6C270.14,348.59 270.6,352.5 272.09,356.07C275.45,364.13 269.94,362.62 273.61,367.21Z" style="fill-rule:nonzero;"/>
        <path d="M594.55,401.29C596.7,406.31 601.82,406.92 605.91,408.87C604.37,415.52 604.27,418.19 608.57,418.7C607.03,415.22 607.85,411.74 608.57,407.75C603.45,406.11 598.13,405.49 594.55,401.29Z" style="fill-rule:nonzero;"/>
        <path d="M626.18,461.28C623.8,462.07 623.35,473.95 617.17,483.29C622.5,481.96 626.59,471.52 626.18,461.28Z" style="fill-rule:nonzero;"/>
        <path d="M627.1,212.83C626.28,210.68 625.87,208.22 624.44,205.56C623.83,208.53 624.44,210.78 624.34,213.24C626.8,214.98 629.08,216.88 631.61,218.36C633.99,219.75 635.5,222.66 638.67,222.66C636.32,217.44 630.79,216.41 627.1,212.83Z" style="fill-rule:nonzero;"/>
        <path d="M287.03,296.77C288.98,304.35 292.76,311.14 295.53,318.37C295.93,319.43 302.02,325.19 287.03,296.77Z" style="fill-rule:nonzero;"/>
        <path d="M200.73,215.29C199.01,217.01 202.66,226.97 199.4,235.46C203.59,231.15 204.1,219.28 200.73,215.29Z" style="fill-rule:nonzero;"/>
        <path d="M576.94,350.21C576.69,358.79 580.08,350.81 576.74,370.89C579.61,369.66 577.97,367.82 578.69,366.39C581.25,361.19 581.06,349.11 576.94,350.21Z" style="fill-rule:nonzero;"/>
        <path d="M212.81,260.74C210.76,263.4 208.1,272.51 207.69,278.55C214.03,264.63 214.44,263.3 212.81,260.74Z" style="fill-rule:nonzero;"/>
        <path d="M567.42,305.17C566.09,308.34 567.93,311.01 568.14,314.18C566.19,316.43 566.4,318.79 567.53,321.45C569.88,318.26 570.93,306.22 567.42,305.17Z" style="fill-rule:nonzero;"/>
        <path d="M278.84,78.93C281.91,80.26 284.78,79.75 288.16,78.42C284.47,74.01 280.68,74.42 278.84,78.93Z" style="fill-rule:nonzero;"/>
        <path d="M274.84,73.3C279.96,74.12 284.97,73.3 290.71,72.48C288.15,70.74 276.58,71.35 274.84,73.3Z" style="fill-rule:nonzero;"/>
        <path d="M650.44,210.99C650.75,212.73 652.18,212.32 653.31,212.22C657.3,211.61 661.6,211.91 666.21,210.48C663.34,209.04 652.59,209.66 650.44,210.99Z" style="fill-rule:nonzero;"/>
        <path d="M563.43,384.61C564.15,392.39 564.25,400.38 568.55,407.23C565.99,399.86 565.68,391.98 563.43,384.61Z" style="fill-rule:nonzero;"/>
        <path d="M654.54,216.72C657.2,218.56 660.38,218.36 663.24,216.31C660.68,212.42 656.69,212.52 654.54,216.72Z" style="fill-rule:nonzero;"/>
        <path d="M205.84,302.51C208.3,296.47 208.81,290.23 209.63,283.98C207.38,287.05 205.13,299.13 205.84,302.51Z" style="fill-rule:nonzero;"/>
        <path d="M196.02,373.35C193.97,368.23 192.95,362.7 191.11,357.38C190.28,362.19 192.54,369.87 196.02,373.35Z" style="fill-rule:nonzero;"/>
        <path d="M240.55,297.7C240.75,292.17 240.96,287.36 238.6,282.96C237.99,287.77 238.5,292.37 240.55,297.7Z" style="fill-rule:nonzero;"/>
        <path d="M274.02,102.78C274.33,99.43 275.14,97.09 276.45,94.96C275.82,94.29 275.78,93.39 275.69,92.52C275.33,88.83 273.63,91.41 273.92,92.23C274.74,95.2 273.1,97.35 271.36,99.7C272.49,100.22 273.1,100.94 274.02,102.78Z" style="fill-rule:nonzero;"/>
        <path d="M237.48,279.99C237.07,274.87 241.47,271.39 242.19,266.27C238.19,268.93 236.04,274.97 237.48,279.99Z" style="fill-rule:nonzero;"/>
        <path d="M191.72,272.31C189.64,268.89 189.6,261.08 187.73,258.49C186.5,262.07 188.34,269.03 191.72,272.31Z" style="fill-rule:nonzero;"/>
        <path d="M235.63,261.25C234.09,261.25 234.4,259.51 233.07,259.61C231.84,261.15 232.35,262.37 233.79,263.6C235.33,261.76 238.6,264.52 240.03,261.25C238.3,259.51 236.76,260.53 235.63,261.25Z" style="fill-rule:nonzero;"/>
        <path d="M220.59,270.46C226.43,267.29 228.27,264.11 226.22,261.14C224.48,264.12 222.74,266.88 220.59,270.46Z" style="fill-rule:nonzero;"/>
        <path d="M202.77,169.01C200.01,172.08 200.21,175.87 200.42,179.66C200.09,173.88 207.69,170.77 202.77,169.01Z" style="fill-rule:nonzero;"/>
        <path d="M560.87,288.48C560.67,292.37 563.43,295.65 568.04,296.98C565.07,294.21 563.32,291.04 560.87,288.48Z" style="fill-rule:nonzero;"/>
        <path d="M281.6,118.03C276.89,117.62 273.51,119.57 272.28,123.25C274.95,121.11 278.43,120.29 281.6,118.03Z" style="fill-rule:nonzero;"/>
        <path d="M649.42,258.49C652.29,256.14 655.36,254.91 658.22,253.06C654.03,252.45 650.14,254.8 649.42,258.49Z" style="fill-rule:nonzero;"/>
        <path d="M234.71,114.14C230.51,111.38 226.01,112.09 221.4,113.01C235.18,114.4 233.68,115.52 234.71,114.14Z" style="fill-rule:nonzero;"/>
        <path d="M183.53,152.74C182.92,157.14 186.4,161.24 190.49,161.85C187.83,159.29 185.98,156.22 183.53,152.74Z" style="fill-rule:nonzero;"/>
        <path d="M577.25,314.79C579.09,313.25 577.63,311.39 578.79,310.08C585.31,302.68 577.7,299.57 577.25,314.79Z" style="fill-rule:nonzero;"/>
        <path d="M189.87,170.04C189.15,173.83 190.28,176.9 191.41,179.97C192.95,176.59 192.54,172.8 189.87,170.04Z" style="fill-rule:nonzero;"/>
        <path d="M215.77,267.8C214.03,270.05 214.23,274.56 216.08,277.53C216.7,274.15 217.41,271.08 215.77,267.8Z" style="fill-rule:nonzero;"/>
        <path d="M217,333.22C219.35,338.24 223.55,341.82 227.03,346.02C224.17,341.31 221,336.9 217,333.22Z" style="fill-rule:nonzero;"/>
        <path d="M217.72,325.34C219.46,321.04 220.89,316.54 221.2,311.83C219.05,316.12 218.03,320.63 217.72,325.34Z" style="fill-rule:nonzero;"/>
        <path d="M595.16,459.44C596.9,455.24 598.13,450.94 598.64,446.44C596.49,450.54 595.57,454.94 595.16,459.44Z" style="fill-rule:nonzero;"/>
        <path d="M288.77,62.24C284.47,61.11 282.83,61.73 282.01,64.9C288.36,63.57 288.36,63.57 288.77,62.24Z" style="fill-rule:nonzero;"/>
        <path d="M664.57,201.57C662.31,198.49 655.13,200.62 658.33,203.62C659.76,201.06 662.62,203.82 664.57,201.57Z" style="fill-rule:nonzero;"/>
        <path d="M595.37,469.58C597.72,474.08 601.51,477.46 604.69,481.25C603.5,479.2 596.32,468.62 595.37,469.58Z" style="fill-rule:nonzero;"/>
        <path d="M243.72,91.21C243.31,94.18 243.11,96.84 244.33,100.32C245.97,94.59 245.87,93.16 243.72,91.21Z" style="fill-rule:nonzero;"/>
        <path d="M189.67,138.1C189.47,132.98 191.51,128.27 192.54,123.36C189.57,127.86 189.16,132.88 189.67,138.1Z" style="fill-rule:nonzero;"/>
        <path d="M279.04,280.6C277.2,277.63 276.99,273.54 273.41,271.59C273.82,275.48 276.79,277.84 279.04,280.6Z" style="fill-rule:nonzero;"/>
        <path d="M318.56,324.82C320.71,321.65 322.35,318.27 322.96,314.38C320.81,317.56 319.27,321.14 318.56,324.82Z" style="fill-rule:nonzero;"/>
        <path d="M258.46,89.17C258.56,92.55 258.97,95.72 260.61,98.79C260,95.51 261.23,91.93 258.46,89.17Z" style="fill-rule:nonzero;"/>
        <path d="M542.24,477.36C543.98,481.45 547.26,484.12 551.25,487.19C548.17,483.29 544.8,480.73 542.24,477.36Z" style="fill-rule:nonzero;"/>
        <path d="M635.8,224.09C635.9,227.26 636.21,230.44 637.75,233.3C637.75,230.13 638.06,226.85 635.8,224.09Z" style="fill-rule:nonzero;"/>
        <path d="M249.76,278.14C250.89,274.76 250.89,272.1 249.04,269.23C247.71,271.9 247.92,273.54 249.76,278.14Z" style="fill-rule:nonzero;"/>
        <path d="M191.41,179.97C189.06,181.2 188.75,182.73 190.28,186.62C192.54,184.68 192.02,182.32 191.41,179.97Z" style="fill-rule:nonzero;"/>
        <path d="M257.95,290.53C259.08,294.73 260.71,298.62 263.17,301.89C264.33,301.31 264.3,302.56 257.95,290.53Z" style="fill-rule:nonzero;"/>
        <path d="M185.68,249.17C185.68,252.75 185.27,255.82 187.73,258.38C188.03,254.09 187.62,251.63 185.68,249.17Z" style="fill-rule:nonzero;"/>
        <path d="M621.57,234.33C623,231.57 623,228.8 621.47,226.14C620.86,228.8 620.55,231.56 621.57,234.33Z" style="fill-rule:nonzero;"/>
        <path d="M569.77,258.18C567.82,261.46 566.7,264.83 567.21,268.72C567.52,265.14 569.36,261.87 569.77,258.18Z" style="fill-rule:nonzero;"/>
        <path d="M571.72,395.36C571.72,392.49 571.52,389.52 570.29,386.76C569.67,389.83 569.98,392.8 571.72,395.36Z" style="fill-rule:nonzero;"/>
        <path d="M258.57,372.84C258.57,375.71 259.59,378.27 261.33,380.52C261.13,377.75 260.82,374.99 258.57,372.84Z" style="fill-rule:nonzero;"/>
        <path d="M273.51,138.3C274.33,135.23 272.79,132.87 271.16,130.52C271.36,133.29 272.08,135.95 273.51,138.3Z" style="fill-rule:nonzero;"/>
        <path d="M650.65,273.54C651.37,270.16 650.75,268.11 647.68,265.04C649.01,268.21 649.21,270.87 650.65,273.54Z" style="fill-rule:nonzero;"/>
        <path d="M193.15,251.94C192.33,255.01 192.74,257.88 194.38,260.64C194.69,257.67 193.97,254.8 193.15,251.94Z" style="fill-rule:nonzero;"/>
        <path d="M260.51,88.14C261.23,86.19 259.79,84.76 259.49,83.02C260.82,83.22 261.64,84.97 263.79,84.15C260.21,79.95 255.7,77.7 251.91,75.14C249.96,70.74 248.84,66.64 248.94,62.24C245.12,72.93 250.72,76.46 258.05,81.69C257.34,83.64 258.57,86.91 260.51,88.14Z" style="fill-rule:nonzero;"/>
        <path d="M191.31,287.15C192.03,289.71 192.74,292.27 194.18,294.62C194.58,291.66 194.07,288.99 191.31,287.15Z" style="fill-rule:nonzero;"/>
        <path d="M260.72,101.96C260.21,105.13 261.03,107.18 263.18,109.33C262.97,106.47 262.35,104.42 260.72,101.96Z" style="fill-rule:nonzero;"/>
        <path d="M591.68,411.33C589.33,414.4 589.22,414.91 590.45,418.19C590.97,415.83 592.4,414.09 591.68,411.33Z" style="fill-rule:nonzero;"/>
        <path d="M569.06,422.18C569.47,425.25 569.98,427.61 571.72,430.27C572.03,426.89 571.31,424.64 569.06,422.18Z" style="fill-rule:nonzero;"/>
        <path d="M565.17,414.6C565.58,417.16 566.71,419.41 568.45,421.36C568.55,418.49 566.4,416.75 565.17,414.6Z" style="fill-rule:nonzero;"/>
        <path d="M165.51,342.94C166.43,346.01 168.48,348.16 171.35,349.39C169.4,347.24 167.46,345.09 165.51,342.94Z" style="fill-rule:nonzero;"/>
        <path d="M638.16,236.78C637.34,239.95 638.36,241.9 640.21,244.25C640.41,241.19 639.59,239.24 638.16,236.78Z" style="fill-rule:nonzero;"/>
        <path d="M197.25,268.11C198.07,265.65 196.33,264.32 195.61,262.48C194.29,263.14 194.09,262.16 197.25,268.11Z" style="fill-rule:nonzero;"/>
        <path d="M243.01,264.42C245.67,265.96 247.72,266.57 250.89,266.16C248.23,264.83 246.18,264.32 243.01,264.42Z" style="fill-rule:nonzero;"/>
        <path d="M588.61,248.45C591.07,249.06 592.81,247.94 594.65,247.73C592.6,246.1 590.97,247.12 588.61,248.45Z" style="fill-rule:nonzero;"/>
        <path d="M188.03,279.88C188.54,282.64 189.57,285 191.41,287.05C192.02,283.88 189.06,282.34 188.03,279.88Z" style="fill-rule:nonzero;"/>
        <path d="M196.32,168.4C194.27,167.17 193.97,164.71 192.23,163.28C192.95,166.86 193.66,167.79 196.32,168.4Z" style="fill-rule:nonzero;"/>
        <path d="M211.27,113.63C213.93,114.04 215.67,113.32 218.03,113.02C215.37,111.18 213.63,112.3 211.27,113.63Z" style="fill-rule:nonzero;"/>
        <path d="M536.61,473.98C534.46,473.47 532.82,473.98 531.29,475.11C533.02,475.31 534.97,476.03 536.61,473.98Z" style="fill-rule:nonzero;"/>
        <path d="M574.79,402.83C575.4,400.48 573.77,399.04 572.23,396.89C571.92,399.76 574.28,400.89 574.79,402.83Z" style="fill-rule:nonzero;"/>
        <path d="M601.2,283.47C603.55,282.86 603.86,280.91 604.48,279.38C603.15,280.29 601.3,281.01 601.2,283.47Z" style="fill-rule:nonzero;"/>
        <path d="M580.93,254.29C580.62,256.64 580.83,258.28 581.13,260.33C582.06,258.28 582.78,256.64 580.93,254.29Z" style="fill-rule:nonzero;"/>
        <path d="M188.24,303.33C187.83,304.66 187.11,305.58 187.52,307.32C189.26,305.37 189.26,305.37 188.24,303.33Z" style="fill-rule:nonzero;"/>
        <path d="M227.14,144.34C225.91,145.47 224.17,146.18 223.76,148.95C226.11,147.82 226.83,146.29 227.14,144.34Z" style="fill-rule:nonzero;"/>
        <path d="M585.44,291.96C584.11,293.39 583.09,294.62 582.37,296.67C585.03,295.03 585.03,294.93 585.44,291.96Z" style="fill-rule:nonzero;"/>
        <path d="M203.9,119.26C203.08,121.51 203.29,122.84 204.31,124.38C204.72,122.03 204.72,122.03 203.9,119.26Z" style="fill-rule:nonzero;"/>
        <path d="M562.4,339.26C563.32,337.72 563.94,336.7 563.83,334.55C562.2,336.08 561.69,337.11 562.4,339.26Z" style="fill-rule:nonzero;"/>
        <path d="M571.51,337.31C570.49,335.67 570.9,334.24 569.26,332.91C569.26,335.67 569.26,335.67 571.51,337.31Z" style="fill-rule:nonzero;"/>
        <path d="M566.4,327.08C567.63,325.75 568.24,324.73 567.32,323.09C565.78,324.11 566.09,325.34 566.4,327.08Z" style="fill-rule:nonzero;"/>
        <path d="M189.16,192.66C190.59,189.79 190.59,189.79 189.57,188.57C188.65,189.59 189.06,190.72 189.16,192.66Z" style="fill-rule:nonzero;"/>
        <path d="M565.07,442.45C566.5,440.91 566.81,439.79 565.89,438.15C564.96,439.38 564.45,440.4 565.07,442.45Z" style="fill-rule:nonzero;"/>
        <path d="M207.79,157.45C206.66,158.58 205.64,159.8 205.03,162.16C207.69,159.9 207.69,159.9 207.79,157.45Z" style="fill-rule:nonzero;"/>
        <path d="M193.46,202.08C193.36,200.65 193.56,199.21 191.82,198.19C191.51,200.14 192.02,201.36 193.46,202.08Z" style="fill-rule:nonzero;"/>
        <path d="M580.63,467.73C582.98,468.75 584.21,467.01 585.75,467.42C584.11,465.79 582.78,467.12 580.63,467.73Z" style="fill-rule:nonzero;"/>
        <path d="M684.94,467.94C685.55,466.3 685.45,465.28 684.22,464.36C683.51,465.79 683.92,466.71 684.94,467.94Z" style="fill-rule:nonzero;"/>
        <path d="M576.84,346.73C576.12,348.06 576.23,349.19 576.94,350.21C577.25,349.09 578.89,347.96 576.84,346.73Z" style="fill-rule:nonzero;"/>
        <path d="M207.79,331.78C206.15,331.88 205.03,331.98 203.39,333.32C205.54,333.42 206.56,333.12 207.79,331.78Z" style="fill-rule:nonzero;"/>
        <path d="M202.77,133.7C201.54,135.03 201.75,136.26 201.95,137.59C202.16,136.36 203.29,135.33 202.77,133.7Z" style="fill-rule:nonzero;"/>
        <path d="M184.96,203.82C186.29,202.18 186.29,202.18 185.98,200.34C184.86,201.36 184.45,202.39 184.96,203.82Z" style="fill-rule:nonzero;"/>
        <path d="M270.54,319.4C272.38,318.07 272.18,316.53 272.38,315.2C271.46,316.43 270.65,317.56 270.54,319.4Z" style="fill-rule:nonzero;"/>
        <path d="M282.42,275.38C282.62,276.81 282.93,278.25 284.57,278.86C284.36,277.43 283.85,276.09 282.42,275.38Z" style="fill-rule:nonzero;"/>
        <path d="M265.22,125.2C264.61,123.97 263.89,123.05 262.46,122.85C262.87,124.18 264.09,124.59 265.22,125.2Z" style="fill-rule:nonzero;"/>
        <path d="M579.5,268.93C579.3,269.95 578.99,270.98 578.78,272C580.01,271.28 580.11,270.16 579.5,268.93Z" style="fill-rule:nonzero;"/>
        <path d="M228.57,261.05C228.47,259.62 228.47,258.49 226.22,257.88C226.93,259.41 227.04,260.53 228.57,261.05Z" style="fill-rule:nonzero;"/>
        <path d="M187.62,197.17C188.44,196.66 189.26,196.15 188.23,194.71C187.52,195.43 186.8,195.84 187.62,197.17Z" style="fill-rule:nonzero;"/>
        <path d="M243.52,105.95C245.47,105.23 244.95,103.7 244.24,102.16C243.93,103.39 243.72,104.73 243.52,105.95Z" style="fill-rule:nonzero;"/>
        <path d="M571.51,301.38C571.2,300.15 571,298.72 569.05,297.9C569.36,299.74 569.87,300.87 571.1,301.79C573.48,306.06 574.42,302.25 571.51,301.38Z" style="fill-rule:nonzero;"/>
        <path d="M582.88,438.15C582.98,437.02 584.01,436.61 583.19,435.59C582.37,436.2 582.47,436.92 582.88,438.15Z" style="fill-rule:nonzero;"/>
        <path d="M565.07,331.89C565.68,331.28 566.71,330.87 565.48,329.64C564.55,330.25 564.14,330.86 565.07,331.89Z" style="fill-rule:nonzero;"/>
        <path d="M585.85,248.97C584.83,248.46 583.9,248.87 582.98,248.87C583.9,250.4 583.9,250.4 585.85,248.97Z" style="fill-rule:nonzero;"/>
        <path d="M641.02,258.9C641.17,258.75 641.56,258.72 641.22,258.39C638.69,255.84 638.43,257.92 641.02,258.9Z" style="fill-rule:nonzero;"/>
        <path d="M644.1,226.45C644.3,225.53 644.2,224.81 643.49,224.2C642.87,225.32 643.89,225.73 644.1,226.45Z" style="fill-rule:nonzero;"/>
        <path d="M573.46,341.31C573.46,342.23 573.36,343.36 574.79,343.66C575.51,342.23 574.38,341.82 573.46,341.31Z" style="fill-rule:nonzero;"/>
        <path d="M569.57,458.42C569.26,459.75 569.26,460.37 570.18,460.88C570.7,460.16 570.8,459.44 569.57,458.42Z" style="fill-rule:nonzero;"/>
        <path d="M588.92,466.81C587.79,467.01 586.77,467.22 585.75,467.42C586.87,467.63 587.89,468.25 588.92,466.81Z" style="fill-rule:nonzero;"/>
        <path d="M567.11,275.99C567.21,275.68 567.21,275.38 567.21,274.97C567.21,275.38 567.11,275.69 567.11,275.99Z" style="fill-rule:nonzero;"/>
        <path d="M199.7,212.11C199.19,212.83 198.88,213.65 199.8,214.67C200.42,213.65 200.93,212.93 199.7,212.11Z" style="fill-rule:nonzero;"/>
        <path d="M197.76,208.73C197.86,207.71 197.56,207.09 196.43,206.99C196.04,208.29 197,209.12 197.76,208.73Z" style="fill-rule:nonzero;"/>
        <path d="M200.73,189.9C201.14,189.49 201.75,189.29 201.04,188.16C200.32,188.87 199.91,189.28 200.73,189.9Z" style="fill-rule:nonzero;"/>
        <path d="M266.65,91.01C266.85,90.4 267.06,89.78 266.24,89.37C265.63,90.09 266.24,90.6 266.65,91.01Z" style="fill-rule:nonzero;"/>
        <path d="M577.45,472.55C577.04,473.57 577.14,474.19 578.47,474.5C578.68,473.47 578.37,472.95 577.45,472.55Z" style="fill-rule:nonzero;"/>
        <path d="M569.88,463.43C569.57,463.94 568.86,464.45 570.19,465.07C570.39,464.46 570.7,464.05 569.88,463.43Z" style="fill-rule:nonzero;"/>
        <path d="M573.56,341.2C573.15,340.69 573.66,339.46 572.23,339.66C571.82,341 573.05,340.79 573.56,341.2Z" style="fill-rule:nonzero;"/>
        <path d="M199.91,337.21C200.11,338.54 199.71,339.46 201.45,339.67C201.24,338.85 201.24,338.23 199.91,337.21Z" style="fill-rule:nonzero;"/>
        <path d="M211.58,331.99C210.76,331.99 210.15,332.09 209.84,333.01C210.55,332.91 211.07,332.81 211.58,331.99Z" style="fill-rule:nonzero;"/>
        <path d="M188.13,327.79C186.9,327.99 186.9,328.51 187.41,329.22C188.13,329.12 188.44,328.82 188.13,327.79Z" style="fill-rule:nonzero;"/>
        <path d="M285.69,281.21C285.69,280.29 285.28,279.47 284.46,278.96C284.47,279.88 284.47,280.8 285.69,281.21Z" style="fill-rule:nonzero;"/>
        <path d="M192.74,326.26C193.46,325.13 193.25,324.52 192.43,324.01C192.02,324.82 192.02,325.44 192.74,326.26Z" style="fill-rule:nonzero;"/>
        <path d="M578.37,323.19C577.65,323.8 577.14,324.21 577.65,325.03C578.58,324.72 578.89,324.31 578.37,323.19Z" style="fill-rule:nonzero;"/>
        <path d="M594.24,467.94C594.33,468.68 595,469.94 595.57,469.37C595.47,468.55 595.26,467.94 594.24,467.94Z" style="fill-rule:nonzero;"/>
        <path d="M186.8,274.56C186.8,274.15 187,273.64 186.08,273.33C186.29,273.84 185.88,274.35 186.8,274.56Z" style="fill-rule:nonzero;"/>
        <path d="M262.56,122.74C262.36,122.02 261.95,121.72 261.13,121.72C261.23,122.54 261.74,122.85 262.56,122.74Z" style="fill-rule:nonzero;"/>
        <path d="M216.18,331.58C216.08,332.4 216.38,332.91 217.1,333.12C217.11,332.5 217.11,331.78 216.18,331.58Z" style="fill-rule:nonzero;"/>
        <path d="M653,305.27C655.46,308.03 657.5,310.08 660.78,311.31C659.14,307.11 656.58,304.96 653,305.27Z" style="fill-rule:nonzero;"/>
        <path d="M652.69,301.28C654.43,298.41 654.64,293.19 653.3,290.94C652.49,294.32 652.39,297.59 652.69,301.28Z" style="fill-rule:nonzero;"/>
        <path d="M646.96,367.51C648.8,365.26 648.29,362.9 648.6,360.55C647.37,362.5 646.76,364.75 646.96,367.51Z" style="fill-rule:nonzero;"/>
        <path d="M663.65,314.38C664.88,316.33 666.62,315.51 668.05,315.71C666.92,314.28 665.59,313.77 663.65,314.38Z" style="fill-rule:nonzero;"/>
        <path d="M647.78,332.5C649.62,331.68 650.24,330.15 650.65,328.51C649.83,329.84 647.47,330.15 647.78,332.5Z" style="fill-rule:nonzero;"/>
        <path d="M621.78,313.36C622.7,314.59 623.73,315.2 625.57,314.38C624.34,313.26 623.11,313.05 621.78,313.36Z" style="fill-rule:nonzero;"/>
        <path d="M652.39,341.31C652.7,339.26 652.9,337.83 653.11,336.4C651.98,337.72 651.88,339.16 652.39,341.31Z" style="fill-rule:nonzero;"/>
        <path d="M602.12,334.55C600.89,335.68 600.17,336.6 600.89,338.03C601.3,337.01 602.33,336.19 602.12,334.55Z" style="fill-rule:nonzero;"/>
        <path d="M607.04,319.4C607.35,321.14 608.27,321.45 609.91,321.24C609.08,319.81 608.37,319.3 607.04,319.4Z" style="fill-rule:nonzero;"/>
        <path d="M652.29,280.5C652.19,282.14 652.29,283.16 653.11,284.8C653.62,283.16 653.72,281.93 652.29,280.5Z" style="fill-rule:nonzero;"/>
        <path d="M626.79,354.92C627.61,353.79 628.22,353.08 627.3,352.05C626.69,352.87 625.98,353.49 626.79,354.92Z" style="fill-rule:nonzero;"/>
        <path d="M594.75,358.09C596.08,359.32 596.7,359.83 597.82,359.73C597.41,358.71 596.6,358.3 594.75,358.09Z" style="fill-rule:nonzero;"/>
        <path d="M600.9,361.57C601.21,362.59 601.92,362.7 602.74,362.7C602.53,361.57 601.82,361.57 600.9,361.57Z" style="fill-rule:nonzero;"/>
        <path d="M611.23,320.93C611.95,321.95 612.97,321.34 613.79,321.44C613.54,319.91 611.51,319.55 611.23,320.93Z" style="fill-rule:nonzero;"/>
        <path d="M604.68,364.03C604.37,365.16 604.78,365.67 605.6,366.08C606.12,364.65 605.5,364.34 604.68,364.03Z" style="fill-rule:nonzero;"/>
        <path d="M613.9,323.08C614.82,322.36 615.54,322.16 615.03,321.03C613.06,321.82 613.9,320.99 613.9,323.08Z" style="fill-rule:nonzero;"/>
        <path d="M719.85,472.03C718.74,465.58 722.47,460.87 718.42,454.73C719.34,464.56 716.88,473.36 716.47,482.37C718.83,479.2 720.48,475.72 719.85,472.03Z" style="fill-rule:nonzero;"/>
        <path d="M738.99,425.86C738.21,422.5 734.08,421.77 733.56,418.08C729.58,423.63 739.62,428.58 738.99,425.86Z" style="fill-rule:nonzero;"/>
        <path d="M713.4,494.86C712.38,498.14 712.79,501.62 712.38,505.1C713.91,501.93 714.73,498.55 713.4,494.86Z" style="fill-rule:nonzero;"/>
        <path d="M715.96,484.11C714.32,486.16 713.09,488.31 712.89,491.07C714.73,489.13 716.98,487.39 715.96,484.11Z" style="fill-rule:nonzero;"/>
        <path d="M720.26,421.46C723.02,421.15 725.89,420.85 728.65,418.18C724.56,417.78 722.61,420.13 720.26,421.46Z" style="fill-rule:nonzero;"/>
        <path d="M710.13,508.17C709,511.65 708.59,514.82 708.39,518.41C710.53,515.03 711.25,511.24 710.13,508.17Z" style="fill-rule:nonzero;"/>
        <path d="M699.79,522.91C698.36,525.57 698.25,528.44 698.56,531.41C699.99,528.75 700.3,525.88 699.79,522.91Z" style="fill-rule:nonzero;"/>
        <path d="M723.95,441.73C725.84,443.04 730.14,447.39 730.89,446.89C730.9,446.91 730.9,446.93 730.91,446.95C733.98,449.51 735.52,453.4 738.18,456.37C737.16,452.17 735.72,448.39 731.32,446.54C727.43,441.63 727.12,441.42 723.95,441.73Z" style="fill-rule:nonzero;"/>
        <path d="M741.45,438.05C742.47,434.06 741.96,432.83 738.79,431.7C740.53,433.34 740.02,436 741.45,438.05Z" style="fill-rule:nonzero;"/>
        <path d="M681.67,447.16C684.43,447.98 685.76,446.44 687.2,444.81C685.25,445.11 682.89,444.39 681.67,447.16Z" style="fill-rule:nonzero;"/>
        <path d="M731.32,451.46C732.04,453.71 732.86,455.35 734.29,456.58C733.36,454.94 734.08,452.48 731.32,451.46Z" style="fill-rule:nonzero;"/>
        <path d="M709,420.64C710.33,421.66 711.76,422.07 713.91,420.74C711.97,419.82 710.53,420.13 709,420.64Z" style="fill-rule:nonzero;"/>
        <path d="M701.73,516.26C700.91,517.69 699.89,519.02 700.6,521.17C702.14,519.53 702.04,518 701.73,516.26Z" style="fill-rule:nonzero;"/>
        <path d="M706.23,498.55C704.8,498.75 704.39,499.57 704.28,501.42C705.62,500.39 706.44,499.78 706.23,498.55Z" style="fill-rule:nonzero;"/>
        <path d="M710.33,493.63C708.9,494.04 708.79,494.86 708.59,495.98C710.02,495.58 710.53,495.07 710.33,493.63Z" style="fill-rule:nonzero;"/>
        <path d="M693.13,442.86C693.52,444.24 695.52,443.47 695.18,442.45C694.36,442.04 693.64,442.04 693.13,442.86Z" style="fill-rule:nonzero;"/>
        <path d="M701.12,420.03C700.56,420.87 702.35,421.38 702.35,420.03C701.94,419.62 701.53,419.52 701.12,420.03Z" style="fill-rule:nonzero;"/>
        <path d="M576.53,552.19C574.18,555.36 573.05,559.15 572.03,562.84C572.85,563.76 573.57,563.15 574.28,563.25C577.4,551.12 577.93,552.66 576.53,552.19Z" style="fill-rule:nonzero;"/>
        <path d="M495.35,536.22C496.89,531 493.3,527.21 491.97,522.71C491.26,527.62 494.63,531.61 495.35,536.22Z" style="fill-rule:nonzero;"/>
        <path d="M493.92,522.2C498.94,523.02 503.95,522.51 508.87,521.59C503.85,521.68 498.83,520.45 493.92,522.2Z" style="fill-rule:nonzero;"/>
        <path d="M512.75,522.6C516.95,525.67 522.17,526.8 526.26,530.07C522.99,525.47 517.77,524.24 512.75,522.6Z" style="fill-rule:nonzero;"/>
        <path d="M498.52,538.27C497.19,537.45 496.57,538.27 495.86,539.29C498.21,542.98 499.85,546.97 504.25,548.5C501.6,545.54 497.6,543.39 498.52,538.27Z" style="fill-rule:nonzero;"/>
        <path d="M561.79,556.39C565.99,556.29 567.52,555.06 568.65,550.86C566.4,552.5 563.63,553.62 561.79,556.39Z" style="fill-rule:nonzero;"/>
        <path d="M460.54,510.32C458.8,508.89 457.67,508.17 455.63,508.48C457.68,511.96 452.46,511.35 452.66,514.21C455.94,514.11 456.55,509.71 460.54,510.32Z" style="fill-rule:nonzero;"/>
        <path d="M553.8,561.4C557.38,561.91 559.12,561.09 561.27,557.41C555.85,559.05 555.03,559.56 553.8,561.4Z" style="fill-rule:nonzero;"/>
        <path d="M462.59,524.75C465.15,527 467.91,527.92 470.98,528.64C468.53,525.47 465.25,523.94 462.59,524.75Z" style="fill-rule:nonzero;"/>
        <path d="M531.18,566.01C534.35,566.73 534.97,564.58 536.09,562.12C533.64,562.94 531.59,563.14 531.18,566.01Z" style="fill-rule:nonzero;"/>
        <path d="M538.45,546.46C537.12,548.61 536.81,550.76 538.86,552.7C538.45,550.65 540.7,548.5 538.45,546.46Z" style="fill-rule:nonzero;"/>
        <path d="M545.92,556.49C547.56,559.05 548.68,560.79 551.35,560.28C550.32,558.33 548.69,557.21 545.92,556.49Z" style="fill-rule:nonzero;"/>
        <path d="M464.23,513.49C463.1,512.26 461.88,511.03 459.52,511.75C460.65,514.01 462.49,513.49 464.23,513.49Z" style="fill-rule:nonzero;"/>
        <path d="M534.87,551.68C534.05,553.32 533.44,554.65 534.97,556.9C535.58,554.65 536.81,553.32 534.87,551.68Z" style="fill-rule:nonzero;"/>
        <path d="M539.68,565.09C540.09,566.42 540.09,567.85 541.73,568.98C541.32,565.6 541.32,565.6 539.68,565.09Z" style="fill-rule:nonzero;"/>
        <path d="M580.83,543.9C581.85,542.67 582.78,541.44 582.06,539.5C580.52,540.72 580.63,542.36 580.83,543.9Z" style="fill-rule:nonzero;"/>
        <path d="M577.35,550.45C578.68,548.91 579.4,547.79 578.99,545.84C577.55,547.07 576.84,548.2 577.35,550.45Z" style="fill-rule:nonzero;"/>
        <path d="M569.16,549.63C570.7,549.02 570.9,547.99 570.29,546.56C568.85,547.28 568.65,548.2 569.16,549.63Z" style="fill-rule:nonzero;"/>
        <path d="M570.7,545.64C572.13,545.44 572.34,544.41 572.34,542.67C570.8,543.49 570.29,544.31 570.7,545.64Z" style="fill-rule:nonzero;"/>
        <path d="M533.43,537.96C533.63,536.53 532.82,535.91 532,535.2C531.69,534.38 531.18,533.97 530.16,534.07C532.67,537.21 532.27,537.57 533.43,537.96Z" style="fill-rule:nonzero;"/>
        <path d="M469.86,515.34C470.17,516.16 470.58,516.57 471.5,516.06C471.29,515.03 470.88,514.62 469.86,515.34Z" style="fill-rule:nonzero;"/>
        <path d="M500.98,542.57C500.88,543.7 501.39,544.11 502.52,544.21C502.52,542.98 502.21,542.46 500.98,542.57Z" style="fill-rule:nonzero;"/>
        <path d="M707.36,569.18C704.59,567.65 702.34,568.98 700.6,571.33C698.25,567.75 695.69,566.93 693.23,568.67C689.01,571.64 693.01,580.3 700.4,573.58C702.35,577.78 705.52,577.06 708.9,576.55C709.2,573.79 710.53,570.93 707.36,569.18ZM695.59,574.51C692.43,574.3 692.61,569.35 695.79,569.6C699.18,569.59 698.76,574.72 695.59,574.51ZM704.8,575.12C699.14,574.79 705.39,565.78 707.67,572.97C705.31,573.38 705.31,573.38 704.8,575.12Z" style="fill-rule:nonzero;"/>
        <path d="M684.43,567.44C684.02,569.9 683.61,572.46 684.23,575.02C686.18,575.02 685.26,572.75 686.58,572.97C688.32,573.26 688.12,575.84 690.37,575.22C689.76,573.79 689.68,572.57 690.68,571.02C692.88,567.6 686.96,566.34 684.43,567.44ZM685.86,569.59C687.19,568.46 688.11,568.98 689.03,569.59C687.71,571.33 687.71,571.33 685.86,569.59Z" style="fill-rule:nonzero;"/>
        <path d="M241.88,254.7C245.67,249.27 243.11,240.57 237.07,237.6C238.71,240.06 240.83,242.21 241.68,245.38C242.47,248.36 240.65,251.42 241.88,254.7Z" style="fill-rule:nonzero;"/>
        <path d="M268.64,237.58C269.31,243.96 270.48,250.25 269.62,256.64C273.65,249.03 269.12,240.52 268.64,237.58Z" style="fill-rule:nonzero;"/>
        <path d="M268.64,237.58C268.59,237.11 268.54,236.64 268.5,236.17C268.51,236.65 268.57,237.12 268.64,237.58Z" style="fill-rule:nonzero;"/>
        <path d="M277.2,169.73C276.89,170.14 276.59,170.55 276.28,171.06C278.23,173.52 280.68,175.36 283.65,176.59C282.11,173.52 280.17,170.96 277.2,169.73Z" style="fill-rule:nonzero;"/>
        <path d="M276.89,155.91C275.64,155.91 275.87,154.23 275.15,166.04C275.56,166.04 275.97,166.14 276.38,166.14C276.69,162.77 277.1,159.39 276.89,155.91Z" style="fill-rule:nonzero;"/>
        <path d="M253.24,243.95C253.96,247.64 255.39,251.22 257.03,254.7C256.21,250.91 254.98,247.33 253.24,243.95Z" style="fill-rule:nonzero;"/>
        <path d="M271.16,225.83C269.73,227.98 269.62,230.03 270.03,232.18C270.95,230.34 271.57,228.39 271.16,225.83Z" style="fill-rule:nonzero;"/>
        <path d="M275.35,207.81C275.55,205.66 275.35,203.51 275.55,201.46C274.84,203.62 274.95,205.66 275.35,207.81Z" style="fill-rule:nonzero;"/>
        <path d="M286,179.35C287.84,181.3 289.48,180.78 291.02,180.89C289.89,179.35 288.36,179.05 286,179.35Z" style="fill-rule:nonzero;"/>
        <path d="M244.44,178.54C245.36,179.87 246.49,180.38 248.33,179.67C247.1,178.23 245.77,178.23 244.44,178.54Z" style="fill-rule:nonzero;"/>
        <path d="M274.95,145.98C275.15,147.41 274.64,148.64 276.08,150.07C276.48,148.23 276.58,147.11 274.95,145.98Z" style="fill-rule:nonzero;"/>
        <path d="M223.66,203.92C224.17,202.38 224.58,201.36 224.99,200.34C223.55,200.95 222.53,201.88 223.66,203.92Z" style="fill-rule:nonzero;"/>
        <path d="M229.59,184.98C230.31,186.21 231.02,186.82 232.66,186.21C231.64,185.09 231.03,184.17 229.59,184.98Z" style="fill-rule:nonzero;"/>
        <path d="M236.45,188.47C238.66,187.49 238.14,184.92 236.55,187.04C236.35,187.44 235.74,187.95 236.45,188.47Z" style="fill-rule:nonzero;"/>
        <path d="M228.47,231.26C228.88,229.93 228.06,229.31 226.83,228.91C227.34,229.62 226.93,230.95 228.47,231.26Z" style="fill-rule:nonzero;"/>
        <path d="M272.8,194.1C271.47,195.43 270.24,195.94 270.14,197.79C271.77,196.96 272.59,196.25 272.8,194.1Z" style="fill-rule:nonzero;"/>
        <path d="M249.56,220.3C250.17,218.66 250.99,217.84 250.28,216.61C249.25,217.54 249.05,218.46 249.56,220.3Z" style="fill-rule:nonzero;"/>
        <path d="M233.79,186.01C234.71,186.83 235.33,186.83 236.25,186.11C235.43,185.09 234.71,185.09 233.79,186.01Z" style="fill-rule:nonzero;"/>
        <path d="M282.62,259.31C282.4,259.87 282.28,260.29 283.23,260.95C282.84,260.1 283.43,259.71 282.62,259.31Z" style="fill-rule:nonzero;"/>
        <path d="M218.03,223.58C218.54,224.4 218.95,224.91 219.77,224.3C219.36,223.78 219.05,223.27 218.03,223.58Z" style="fill-rule:nonzero;"/>
        <path d="M272.28,419.72C274.02,420.85 275.04,419.52 276.37,420.33C276.27,424.42 276.68,428.62 282,429.34C283.13,430.57 283.54,432.1 285.58,433.23C281.82,421.13 278.82,427.1 278.82,419.41C286.19,414.8 287.83,407.43 285.58,400.98C284.67,409.59 280.78,416.24 272.28,419.72Z" style="fill-rule:nonzero;"/>
        <path d="M252.32,494.45C254.67,493.63 254.88,490.97 256.62,489.74C260.71,489.54 264.09,485.95 264.91,480.53C253.14,490.15 252.01,491.28 252.32,494.45Z" style="fill-rule:nonzero;"/>
        <path d="M270.75,417.67C266.55,417.06 264.1,413.68 259.9,413.68C261.74,417.78 265.12,419.01 270.75,417.67Z" style="fill-rule:nonzero;"/>
        <path d="M265.22,435.69C266.45,439.48 268.29,441.22 272.08,441.83C269.62,439.58 268.09,437.12 265.22,435.69Z" style="fill-rule:nonzero;"/>
        <path d="M278.32,430.98C276.37,432.93 277.09,434.36 279.04,435.89C280.06,433.95 280.06,432.42 278.32,430.98Z" style="fill-rule:nonzero;"/>
        <path d="M264.61,479.61C266.86,478.07 266.25,476.33 265.84,474.7C264.71,476.03 263.99,477.46 264.61,479.61Z" style="fill-rule:nonzero;"/>
        <path d="M265.94,473.57C267.48,471.62 268.19,470.29 267.17,467.94C266.04,469.68 265.32,471.01 265.94,473.57Z" style="fill-rule:nonzero;"/>
        <path d="M262.46,432.42C261.23,429.14 261.23,429.14 259.18,428.12C259.69,429.65 260.61,430.88 262.46,432.42Z" style="fill-rule:nonzero;"/>
        <path d="M273.82,443.37C274.74,445.52 274.74,445.52 276.79,446.34C276.38,444.7 275.05,444.09 273.82,443.37Z" style="fill-rule:nonzero;"/>
        <path d="M264.4,538.27C265.01,537.04 265.01,536.02 264.2,534.28C263.17,536.02 262.76,537.14 264.4,538.27Z" style="fill-rule:nonzero;"/>
        <path d="M253.96,399.66C253.76,400.79 253.65,401.61 254.88,402.42C255.49,401.19 255.29,400.48 253.96,399.66Z" style="fill-rule:nonzero;"/>
        <path d="M266.35,454.22C265.63,455.65 265.84,456.68 266.86,457.7C267.27,456.47 267.37,455.35 266.35,454.22Z" style="fill-rule:nonzero;"/>
        <path d="M267.37,465.58C268.19,464.25 267.88,463.33 266.96,462.41C266.35,463.54 266.45,464.56 267.37,465.58Z" style="fill-rule:nonzero;"/>
        <path d="M257.03,408.26C256.93,409.28 257.13,410.1 258.16,410.61C258.46,409.38 258.16,408.67 257.03,408.26Z" style="fill-rule:nonzero;"/>
        <path d="M286.92,398.84C287.84,398.12 288.25,397.51 287.23,396.49C286.51,397.1 286.1,397.71 286.92,398.84Z" style="fill-rule:nonzero;"/>
        <path d="M264.4,532.64C265.12,531.72 265.12,531 264.5,529.77C263.68,530.79 263.58,531.72 264.4,532.64Z" style="fill-rule:nonzero;"/>
        <path d="M219.87,404.57C215.57,408.36 214.24,422.18 221.2,423.3C221.2,419.51 218.44,417.26 217.21,414.5C218.23,411.33 220.07,408.46 219.87,404.57Z" style="fill-rule:nonzero;"/>
        <path d="M225.7,454.12C225.5,445.32 220.68,438.46 216.18,431.5C219.56,438.97 222.74,446.54 225.7,454.12Z" style="fill-rule:nonzero;"/>
        <path d="M199.5,479.4C201.24,474.69 202.16,469.98 201.85,464.97C199.19,469.47 197.96,474.18 199.5,479.4Z" style="fill-rule:nonzero;"/>
        <path d="M222.53,395.66C226.67,395.83 232.94,392.25 232.46,388.08C229.73,388.64 233.6,385.83 222.53,395.66Z" style="fill-rule:nonzero;"/>
        <path d="M236.56,403.04C236.66,407.95 237.69,411.13 240.14,413.58C240.14,409.18 238.71,406 236.56,403.04Z" style="fill-rule:nonzero;"/>
        <path d="M213.63,417.78C210.46,422.9 211.28,427.1 215.88,429.66C213.42,425.86 213.52,422.18 213.63,417.78Z" style="fill-rule:nonzero;"/>
        <path d="M206.87,446.65C204.62,449.82 203.59,454.23 203.7,458.73C204.1,454.73 207.18,451.35 206.87,446.65Z" style="fill-rule:nonzero;"/>
        <path d="M234.3,389.62C234.71,393.41 235.22,396.79 235.22,400.06C236.56,395.36 236.25,392.18 234.3,389.62Z" style="fill-rule:nonzero;"/>
        <path d="M233.59,425.25C233.28,423.92 231.13,424.12 229.5,425.35C231.85,427.4 234,428.52 237.18,428.42C236.56,426.27 234.2,427.09 233.59,425.25Z" style="fill-rule:nonzero;"/>
        <path d="M211.78,521.79C211.27,524.25 210.76,526.81 211.98,529.26C213.01,526.8 213.11,524.24 211.78,521.79Z" style="fill-rule:nonzero;"/>
        <path d="M220.07,398.74C217.2,397.51 214.23,397 211.57,395.57C213.83,398.43 216.59,399.66 220.07,398.74Z" style="fill-rule:nonzero;"/>
        <path d="M214.55,443.27C215.78,445.32 216.19,447.88 218.24,449.51C217.52,447.05 216.9,444.7 214.55,443.27Z" style="fill-rule:nonzero;"/>
        <path d="M196.94,506.33C198.37,504.08 198.27,502.34 196.94,500.49C196.53,502.23 196.32,503.97 196.94,506.33Z" style="fill-rule:nonzero;"/>
        <path d="M198.88,485.65C199.29,483.81 200.31,482.78 198.98,481.15C198.58,482.58 197.86,483.6 198.88,485.65Z" style="fill-rule:nonzero;"/>
        <path d="M221.41,427.3C221.51,429.04 222.13,430.17 223.15,431.29C222.74,430.06 223.55,428.22 221.41,427.3Z" style="fill-rule:nonzero;"/>
        <path d="M206.87,437.84C208.51,439.17 209.22,440.3 210.86,440.4C210.04,439.38 209.63,437.84 206.87,437.84Z" style="fill-rule:nonzero;"/>
        <path d="M197.55,495.68C198.47,494.66 199.19,493.94 198.16,492.81C197.14,493.53 197.14,494.35 197.55,495.68Z" style="fill-rule:nonzero;"/>
        <path d="M213.11,540.42C212.6,541.03 212.6,541.44 213.42,541.65C214.14,541.03 213.73,540.72 213.11,540.42Z" style="fill-rule:nonzero;"/>
        <path d="M225.91,429.96C227.61,429.28 225.09,428.13 225.09,429.65C225.3,430.16 225.6,430.06 225.91,429.96Z" style="fill-rule:nonzero;"/>
        <path d="M226.11,577.17C223.95,575.96 222.02,576.56 219.56,579.22C212.92,570.08 205.88,582.15 214.03,584.24C216.39,584.84 217.82,583.11 219.46,581.78C221.3,585.87 224.48,585.16 227.75,584.65C227.96,581.88 229.47,579.04 226.11,577.17ZM214.85,582.49C211.84,582.49 211.2,577.83 214.95,577.58C218.4,578.27 217.64,582.71 214.85,582.49ZM223.86,583.21C220.47,582.67 220.84,578.4 223.76,578.4C225.4,578.4 226.32,579.22 226.42,581.47C224.58,580.85 223.45,581.06 223.86,583.21Z" style="fill-rule:nonzero;"/>
        <path d="M203.39,575.63C203.08,578.09 202.47,580.65 203.49,583C205.33,583.1 204.31,580.85 206.15,581.05C207.17,581.36 207.17,583.4 209.73,583.4C208.6,581.76 208.71,580.64 209.63,579.1C212.08,575.78 205.65,574.13 203.39,575.63ZM204.92,577.68C206.05,576.55 207.07,576.96 208.5,577.88C206.87,579.52 205.95,579.52 204.92,577.68Z" style="fill-rule:nonzero;"/>
        <path d="M242.08,581.26C244.43,580.13 246.17,584.23 248.84,581.46C247.3,580.33 246.28,578.8 244.23,577.98C243.62,579.11 242.19,579.52 242.08,581.26Z" style="fill-rule:nonzero;"/>
    </g>
</svg>
