<?xml version="1.0" encoding="UTF-8" standalone="no"?>
<!DOCTYPE svg PUBLIC "-//W3C//DTD SVG 1.1//EN" "http://www.w3.org/Graphics/SVG/1.1/DTD/svg11.dtd">
<svg width="100%" height="100%" viewBox="0 0 900 600" version="1.1" xmlns="http://www.w3.org/2000/svg" xmlns:xlink="http://www.w3.org/1999/xlink" xml:space="preserve" xmlns:serif="http://www.serif.com/" style="fill-rule:evenodd;clip-rule:evenodd;stroke-linejoin:round;stroke-miterlimit:2;">
    <g>
        <path d="M271.02,149.2C246.74,149.2 254.04,153.87 251.92,157.27C251.88,157.19 251.84,157.21 251.8,157.32C250.41,157.96 248.92,157.81 247.64,159C247.13,159.2 247.84,160.23 246.72,160.94C235.99,162.57 224.96,164.31 213.72,166.05C209.49,160.13 202.27,163.48 196.97,162.37C196.15,163.09 195.44,163.7 194.82,164.31C187.56,163.75 193.34,169.08 188.59,169.93C154.31,176.04 155.5,175.33 154.37,174.83C152.94,173.6 152.22,171.66 150.28,171.15C148.54,170.95 147.01,171.84 145.48,172.17C143.74,172.55 142.11,171.86 140.37,172.07C138.12,173.5 135.57,174.32 133.83,175.65C130.92,178.27 140,178.4 108.9,182.09C107.37,180.46 105.73,179.23 105.22,177.19C98.85,175.43 95.13,177.01 94.39,176.68C93.05,176.09 91.84,176.48 90.61,176.78C83.11,178.66 90.34,140.45 79.17,517.78C79.17,517.89 77.84,589.61 77.84,597.56C77.84,598.23 78.99,599.06 80.19,597.87C80.19,597.77 83.83,401.98 83.97,382.73C83.98,380.91 83.8,380.31 87.55,380.69C91.2,380.69 90.77,380.13 90.72,384.47C90.55,398.23 87.01,596.65 87.45,597.87C92.67,603.09 93.85,196.98 97.05,195.78C102.81,196.93 102.07,196.46 102.06,198.64C100.56,383.08 99.4,498.95 98.77,556.14C99.33,513.56 100.35,440.47 101.96,341.76C102.33,318.79 102.27,321.18 102.47,317.34C102.9,309.24 102.2,312.5 104,310.7C106.9,308.47 102.99,306.97 102.77,306.21C102.77,283.35 102.77,294.28 103.79,241.34C104.92,182.95 103.34,199.53 108.59,194.86C111.56,188.93 100.35,191.54 131.47,186.89C133.71,186.89 133.58,192.41 132.9,194.55C131.64,198.51 133.86,202.34 136.37,226.22C138.03,242.05 144.67,243.27 144.54,249.92C144.54,250.09 145.89,254.74 145.56,258.5C144.88,266.26 148.23,267.22 149.24,273.93C149.67,276.79 150.02,279.66 150.98,282.41C152.59,287.04 149.67,301.58 158.13,313.16C156.89,314.57 158.74,316.35 159.25,318.68C164.11,340.69 175.53,336.3 179.78,345.34C186.78,360.25 185.29,351.35 186.11,362.2C186.38,365.76 189.18,372.73 190.2,374.66C191.19,376.55 190.92,375.91 190.92,389.37C189.39,389.88 189.59,391.72 188.57,393.15C185.04,393.86 173.4,412.05 177.23,427.37C175.7,430.23 176,433.5 174.98,436.56C178.49,445.68 170.21,474.88 170.69,476.81C167.08,483 170.28,480.2 170.28,482.63C162.92,483.59 160.17,483.5 156.9,485.39C146.31,491.5 148.02,492.27 140.86,500.92C133.28,510.08 134.35,510.42 132.69,510.73C130.03,510.01 126.97,510.29 124.01,510.01C121.56,509.78 120.04,510.83 118.9,512.87C114.57,520.65 117.57,519.64 116.35,526.97C112.57,527.28 109.51,529.63 106.13,530.55C105.32,538.86 107.43,538.86 106.85,543.01C105.23,554.48 91.03,565.22 119.31,578.46C120.84,578.15 122.37,577.95 123.8,577.54C127.89,576.8 129.73,569.35 128.7,565.49C126.09,555.66 125.73,554.2 127.17,550.17C131.42,547.5 136.13,541.13 145.56,536.17C147.65,535.22 149.82,532.16 150.36,530.86C150.01,529.13 149.77,529.11 151.18,528.41C163.65,521 204.58,506.24 207.98,505.94C216.21,505.2 216.19,499.73 220.24,496.44C221.59,497.11 220.88,496.66 226.37,499.1C228.2,498.37 229,495.91 229.13,494.4C229.84,486.11 233.43,480.08 234.44,475.4C248.29,411.14 245.07,402.29 242.51,509.62C240.35,600.04 239.41,600.78 242.82,597.37C242.82,597.37 243.44,576.51 246.19,466.92C249.56,332.67 251.29,251.04 251.95,205.55C252.63,190.56 253.36,174.25 254.15,156.47C254.29,153.29 254.02,150.86 264.06,151.26C264.84,159.8 248.3,900.41 261.2,458.54C270.16,151.77 262.16,148.83 270.7,151.15C272.91,153.36 272.56,151.96 272.54,156.05C272.54,156.16 271.58,214.48 271.42,218.47C269.98,253.23 273.28,240.49 266.62,244.93C271.42,247.88 271.01,238.51 270.6,261.27C269.6,317.51 270.62,291.16 265.08,300.4C266.41,301.63 268.25,300.2 269.78,301.22C270.52,303.08 264.9,597.05 265.59,597.88C268.97,601.26 267.36,598.92 270.49,421.97C272.92,284.69 271.13,314.56 274.37,308.88C274.68,306.22 274.68,306.22 272.43,303.98C272.45,160.42 279.82,153.26 271.02,149.2ZM89.91,378.33C83.31,378.33 83.54,378.97 83.57,376.18C83.63,369.35 84.06,345.99 84.49,342.98C85.95,342.09 92.1,344.43 89.6,340.43C84.52,340.43 84.88,340.59 84.6,339.96C84.37,339.44 85,307.94 85,307.84C88.18,165.97 83.65,181.12 92.87,178.41C93.99,179.74 90.9,376.93 89.91,378.33ZM97.97,178.01C105.44,178.94 103.85,178.82 96.64,180.16C96.03,178.5 96.54,178.01 97.97,178.01ZM102.98,309.07C103.38,309.07 102.78,309.84 102.78,309.27C102.77,309.17 102.88,309.17 102.98,309.07ZM97.26,194.45C94.81,192.22 96.09,184 96.65,182.5C99.71,181.39 103.44,180.43 106.05,182.4C103.25,183.91 101.32,182.95 99.82,184.04C97.36,186.23 99.01,193.82 106.48,190.72C106.57,190.69 110.74,195.32 97.26,194.45ZM132.19,184.24C127.68,185.39 105.22,188.43 102.46,188.84C101.6,188.38 101.09,187.67 101.23,186.69C101.9,185.34 130.5,181.54 131.97,181.38C132.08,181.38 133.11,182.23 132.19,184.24ZM251.32,160.12C251.35,160.15 251.37,160.2 251.39,160.24C251.16,162.62 250.91,166.32 250.62,171.08C249.77,170.71 249.23,169.87 249.27,169.74C249.71,164.67 248.73,159.18 251.32,160.12ZM250.44,174.17C248.27,212.69 244.87,306.04 244.24,339.55C243.55,335.79 242.42,332.23 240.65,330.38C235.8,325.3 240.81,320.96 235.47,310.71C234.76,309.34 232.1,305.01 229.14,299.37C230,281.38 230.65,284.37 229.75,279.76C227.67,269.11 227.63,268.6 226.58,266.28C223.84,260.17 225.86,260.39 222.7,251.26C220.4,244.61 223.08,239.48 220.45,225.11C218.16,212.58 213.55,210.08 209.52,199.78C207.47,194.53 207.55,189.49 206.05,187.42C213.89,172.94 192.59,177.44 247.01,169.54C248.63,173.84 249.73,174.14 250.44,174.17ZM247.02,163.4C248.12,165.05 247.54,166.98 246.92,166.98C205.02,173.21 208.86,173.92 209.73,169.48C209.72,168.75 242.42,164.17 247.02,163.4ZM191.65,176.61C191.81,167.06 191.49,167.91 191.96,166.98C193.08,165.48 195.54,168.14 197.58,164.73C197.69,164.72 204.33,163.92 205.24,164.42C207.54,165.95 209.38,162.98 210.7,166.34C211.09,167.12 209.43,166.68 209.23,167.08C207.96,168.77 209.01,169.7 208,170.96C206.04,173.43 206.47,175.44 206.47,182.81C206.47,183.73 204.29,184.34 204.33,187.03C204.36,188.8 202.83,190.34 203.91,192.11C204.93,191.7 204.83,190.68 205.34,190.07C205.8,190.53 206.49,194.04 206.16,195.59C205.82,196.61 206.42,198.28 206.77,199.27C212.55,215.59 217.31,213.69 218.52,226.14C219.4,235.18 220.75,237.4 220.08,241.92C219.5,245.85 219.21,243.97 223.32,260.97C231.32,294.12 227.82,275.28 226.97,299.33C226.7,306.9 226.43,310.47 229.05,303.26C233.76,313.31 241.68,326.04 230.48,330.23C211.42,337.36 187.8,311.37 204.74,280.39C205.9,278.27 206.1,275.84 205.25,273.34C200.6,259.71 205.02,251.82 201.67,244.94C197.31,235.96 196.56,214.91 196.56,207.88C196.56,201.2 194.71,203.71 193.7,187.63C193.17,179.08 191.58,180.67 191.65,176.61ZM201.15,252.38C201.15,253.09 200.74,253.07 200.74,252.69C200.95,252.58 201.05,252.48 201.15,252.38ZM195.33,224.69C195.33,244.47 199.26,238.94 197.95,241.9C197.27,243.43 196.35,242.08 195.23,242.77C187.24,247.72 183.6,241.33 172.65,249C164.09,255 169.73,256.2 160.8,238.78C159.75,236.74 160.95,235.31 159.17,227.13C158.29,223.12 145.36,208.35 146.81,195.05C154.15,185.99 153.13,193.85 156.31,183.51C156.41,183.51 177.8,180.06 189.41,178.4C193.84,193.22 195.12,221.56 195.33,224.69ZM197.87,251.97C197.87,251.97 197.93,251.92 197.99,251.86C198.18,251.67 197.87,252.63 197.87,251.97ZM194.71,250.03C194.86,249.93 195,249.81 195.12,249.69C196.13,248.91 195.83,250.87 194.71,250.03ZM190,265.86C191.78,266.45 190.71,266.84 190,268.72C190.19,267.99 189.28,266.94 190,265.86ZM188.59,268.06C188.48,270.87 185.99,266.39 189.7,263.72C190.12,264.14 190.58,263.26 188.58,266.07C188.52,266.73 188.62,267.39 188.59,268.06ZM183.89,255.65C183.48,255.04 183.48,254.73 183.79,254.32C184.29,254.73 183.99,255.13 183.89,255.65ZM176.12,272.4C175.99,272.27 175.99,272.3 176.12,272.3C176.26,272.3 176.25,272.27 176.12,272.4ZM172.94,259.32C172.26,259.32 172.55,258.3 173.15,258.3C173.35,258.11 174.12,259.08 172.94,259.32ZM189.61,172.29C189.61,176.89 192.71,175.45 166.01,179.34C158.64,180.41 150.5,181.69 149.36,181.69C147.65,180.84 147.86,178.9 148.12,178.81C151.9,177.94 148.69,178.48 189.61,172.29ZM166.31,328.58C163.63,326.57 163.85,325.7 159.98,314.07C160.71,312.79 160.16,311.93 158.35,309.06C151.7,298.55 155.13,286.42 152.63,280.25C150.13,274.08 150.03,266.67 148.14,263.19C146.55,260.27 148.11,259.48 146.61,251.54C143.51,235.09 140.05,245.93 136.09,211.29C134.58,198.07 136.93,202.01 136.29,197.29C134.74,196.77 135.06,197.16 135.06,193.41C135.06,184.8 133.52,186 134.78,177.02C134.92,176.04 136.55,176.37 137.92,174.61C139.96,175.12 138.47,176.83 140.07,177.06C141.19,175.71 139.1,175.07 140.89,173.28C141.81,173.28 141.61,174.2 142.42,174.51C144.46,172.98 147.02,172.57 149.67,172.36C150.83,172.89 152.45,174.65 151.56,174.99C150.2,175.51 148.96,173 146.91,175.74C145.28,177.91 147.03,184.99 153.65,183.1C155.09,187.42 150.44,186.83 146.19,192.5C146.06,192.32 145.69,188.74 144.41,191.3C141.35,201.05 152.45,218.5 156.51,225.19C157.54,226.88 157.74,228.53 157.74,231.22C157.74,239.67 162.34,245.12 163.26,249C164.16,252.83 166.42,252.41 165.56,253.53C164.93,254.34 162.98,253.87 162.98,254.83C163.14,255.88 165.79,256.93 164.79,257.76C164.45,258.05 163.58,258.15 163.58,258.69C163.65,260 165.21,259.55 165.72,260.55C165.72,275.98 173.96,287.85 174.51,293.34C175.51,293.74 177.03,294.21 175.84,296.92C170.63,308.7 170.07,304.8 169.45,306.73C168.93,308.33 170.12,307.45 168.18,309.39C168.15,310.11 166.42,328.04 166.31,328.58ZM188.07,360.66C187.46,353.46 182.28,348.47 181.23,343.4C178.14,340.13 176.69,338.87 176.13,338.45C176.55,338.61 177.26,338.58 177.26,336.83C176.92,336.83 176.64,336.52 176.58,336.31C176.52,336.01 177.01,336.15 177.2,336.66L177.15,336.66C177.3,336.81 177.25,336.78 177.22,336.67C178.15,336.72 179.16,336.33 180.31,335.75C179.94,333.89 176.53,336.16 176.53,336.06C176.53,336.73 174.43,333.89 174.08,335.6C173.78,337.06 176.55,339.12 168.47,331.04C170.3,307.68 169.59,314.19 173.09,305.8C175.97,298.89 173.68,308.08 176.12,312.96C177.82,316.36 179.2,315.78 180.92,316.64C181.33,319.4 182.3,322.16 181.94,325.12C181.44,329.24 183.22,333.3 184.77,334.23C179.85,306.58 184.32,324.11 189.92,313.17C193.8,305.58 193.22,307.65 193.8,306.48C194.64,304.77 193.23,302.67 186.96,315.21C180.88,317.24 183.28,312.14 181.24,310.1C178.71,309.82 181.42,315.69 180.3,314.57C176.12,311.74 176.56,302.56 176.45,302.03C176.45,301.23 177.44,303.97 178.48,303.97C180.11,298.82 175.86,291.52 178.38,289.36C181.09,289.81 180.59,289.43 181.55,287.52C183.62,287.52 181.76,287.52 184.61,285.37C184.12,282.42 184.52,283.83 185.36,283.09C185.39,283.06 185.69,281.78 185.83,281.46C186.25,280.45 187.62,279.7 187.98,279.35C188.29,277.21 188.14,276.96 188.7,272.51C190.54,273.2 192.6,277.05 193.96,274.07C194.59,272.7 192.23,271.89 191.76,271.89C191.76,272.67 192.43,272.69 193.1,272.69C193.1,274.68 191.19,274.14 190.53,271.17C190.08,271.17 189.81,270.95 189.81,270.45C188.99,270.45 188.45,270.29 188.48,269.19C189.86,270.05 190.43,271.67 191.83,271.67C191.65,270.87 192.26,270.37 192.62,269.58C192.98,268.79 191.45,268 191.82,265.88C192.25,263.45 193.38,268.74 194.69,270.65C196.03,270.65 195.23,268.45 196.34,263.84C196.63,262.62 197.09,261.45 197.75,260.34C198.78,258.61 198.67,256.56 199.59,254.72C201.55,254.72 200.49,257.44 201.02,259.42C201.21,260.11 204.34,275.86 204.29,276.38C203.42,278.11 200.95,281.57 199.59,284.96C195.58,284.96 196.71,279.11 193.36,276.28C192.95,279.36 195.3,281.47 195.3,283.94C196.62,285.93 199.24,285.81 198.98,287C198.56,288.9 198.12,290.63 196.83,291.91C197.86,294.32 195.81,297.35 196.83,299.98C194.3,301.43 194.53,301.98 194.79,304.58C195.61,304.48 195.61,303.56 196.12,303.15C196.9,302.89 198.87,328.54 218.59,332.57C220.7,333.17 220.33,332.7 222.06,334C223.67,332.39 221.31,333.1 232.48,330.02C233.91,329.1 234.73,327.16 236.97,326.34C236.84,327.31 236.7,327.68 236.38,329.51C235.85,331.62 236.84,334.55 237.69,330.95C237.78,330.55 237.9,330.16 238.2,329.83C240.04,331.98 241.26,334.43 241.98,337.08C242.32,338.33 246.62,376.18 241.57,382.85C241.82,383.25 240.97,389.83 239.57,392.24C227.46,389.33 198.08,389.05 193.8,389.38C192.29,388.37 193.74,387.42 192.78,380.7C192.2,376.67 193.89,379.2 192.37,374.26C189.52,365.05 188.37,364.13 188.07,360.66ZM241.09,395.29C240.3,395.92 239.87,394.68 240.63,394.68C240.98,394.68 241.35,395.29 241.09,395.29ZM234.45,395.91C234.02,395.3 233.81,394.97 233.8,394.75C233.76,393.88 235.88,393.82 234.45,395.91ZM232.73,395.8C228.53,397.87 232.12,389.96 232.54,395.11C232.55,395.36 232.59,395.6 232.73,395.8ZM209.53,393.04C208.84,393.04 209.38,392.17 209.63,391.51C209.93,392.12 210.49,393.04 209.53,393.04ZM197.77,392.22C197.79,392.54 197.61,392.8 197.17,392.95C196.67,392.19 197.72,391.45 197.77,392.22ZM147.72,495C159,483.98 167.59,485.72 173.36,483.56C174.28,483.79 174.32,484.34 173.97,484.68C151.92,501.44 156.46,502.25 140.16,512.47C138.63,511.86 136.89,511.75 134.85,511.14C151.22,492.43 144.7,497.95 147.72,495ZM114.42,529.83C116.76,527.96 116.87,529.83 115.44,530.44C114.88,530.06 113.8,529.09 114.62,531.56C114.62,531.97 112.42,535.36 111.73,533.91C111.57,533.57 111.59,532.99 111.06,532.99C109.41,532.99 110.79,535.83 110.61,536.01C109.55,538.06 108.3,538.08 108.3,533.69C108.3,532.25 110.02,530 114.42,529.83ZM144.45,535.14C130.51,542.58 136.61,543.46 122.49,551.18C118.98,553.1 116.68,555.86 115.24,557.31C118.47,556.63 119.34,554.8 124.54,552.2C125.63,553.29 124.34,554.36 124.44,555.37C127.06,566.51 128.77,568.6 125.46,574.78C123.83,576.01 121.78,576.11 119.94,576.62C111.34,571.87 104.95,569.4 103.29,560.17C105.27,556.21 105.35,551.71 106.49,553.51C106.78,553.97 106.69,555.21 107.47,556.45C107.96,557.23 112.38,560.21 112.38,561.25C112.9,562.11 111.61,559.67 113.61,559.67C115.28,566.51 113.79,561.85 112.59,561.61C112.8,564.6 116.02,570.93 118.41,569.07C117.49,565.7 115.35,562.74 114.63,559.26C114.5,558.22 116.42,557.08 114.77,557.64C113.59,558.04 111.19,558.84 110.82,557.65C109.22,552.63 107.05,548.54 109.22,541.59C110.72,536.77 122.6,533.12 118.41,520.55C119.04,517.83 121.29,511.04 123.93,512.48C124.65,513.2 123.5,513.11 124.31,514.67C126.42,518.75 124.17,523.43 124.43,525.93C126.8,522.44 127.29,519.97 126.69,515.24C129.11,514.14 135.6,515.67 133.43,514.57C130.1,512.87 121.73,513.87 126.02,513.21C129.76,512.63 132.93,512.93 138.02,514.32C138.47,514.95 139.08,515.67 139.64,516.39C141.24,518.45 130.39,520.34 136.59,530.66C142.98,533.69 141.94,533.37 146.88,531.81C147.84,531.51 146.51,534.04 144.45,535.14ZM140.67,529.32C140.2,529.97 139.48,529.77 139.24,529.32C137.53,526.04 134.93,520.74 138.63,520.74C139.14,523.7 139.86,526.56 140.67,529.32ZM147.39,531.56C147.42,531.5 147.45,531.43 147.52,531.37C147.7,531.46 147.63,531.55 147.39,531.56ZM214.12,502.45C213.16,503.6 207.93,505.91 205.44,505.51C204.14,505.22 195.54,509.44 187.15,512.05C169.42,517.56 165.77,518.06 157.93,522.06C144.14,529.11 146.29,530.95 143.42,530.74C142.32,527.22 140.45,523.71 140.05,519.81C143.95,521 145.91,516.99 148.43,516.03C149.33,515.69 149.5,514.64 149.04,514.3C148.73,514.03 149.26,514.03 141.48,517.76C140.41,513.5 142.19,513.58 150.47,508.06C163.09,498.6 173.65,478 197.97,484.36C200.96,485.14 200.27,483.37 202.38,485.42C218.05,500.6 222.5,492.41 214.12,502.45ZM245.79,387.33C244.6,412.86 246.12,402.34 242.94,399.7C238.89,396.34 245.26,410.42 244.56,414.5C241.29,433.78 238.68,436.93 240.68,443.31C239.35,445.14 239.02,447.28 238.53,449.43C228.1,495.24 228.21,484.69 227.39,494.58C227.3,495.72 226.94,496.74 226.16,497.64C220.35,494.48 209.73,490.62 204.61,484.77C200.54,480.13 196.9,480.07 191.43,480.07C191.99,477.26 194.84,478.46 201.43,479.24C212.5,480.56 211.76,481.33 212.58,480.68C212.14,478.04 201.27,477.26 197.87,476.9C192.37,476.32 197.84,475.88 197.67,461.27C197.64,458.89 201.51,436.49 198.18,445.33C195.85,453.09 197.21,453.11 196.03,455.85C195.84,455.98 189.44,459.18 192.09,458.66C196.26,457.85 196.14,456.98 195.43,465.86C194.67,467.05 191.14,468.58 191.14,469.22C193.53,469.56 196,464.15 192.47,475.76C191.8,476.63 190.95,476.96 190.08,477.4C189.81,477.56 189.89,477.41 189.09,477.23C187.43,476.84 177.55,477.61 186.41,478.65C186.72,478.69 188.53,478.88 188.79,478.94C188.34,482.57 182.77,480.23 178.78,481.6C178.67,481.64 175.28,481.76 174.08,480.88C173.57,480.51 172.75,480.67 172.19,480.66C169.23,480.6 171.57,478.1 172.13,476.3C172.03,475.69 171.93,474.97 171.82,474.15C174.89,468.74 178.27,444.02 176.21,437.58C177.23,435.13 176.52,432.47 177.84,429.92C180.99,431.92 183.5,433.94 186.52,434.72C189.03,432.72 181.33,430.54 178.45,429.1C177.86,428.27 179.09,428.57 177.53,423.89C176.41,420.52 178.7,409.47 181.51,403.25C188.41,395.96 187.25,394.34 191.11,395.08C191.3,394.99 192.19,394.1 192.34,393.96C192.69,394.04 193.12,394.08 193.46,394.11C199.85,394.64 198.33,393.78 198.58,392.53C198.83,391.27 199.69,391.11 200.01,391.58C200.63,392.5 201.29,395.05 202.47,394.49C203.6,393.96 204.88,396.67 210.72,394.17C210.99,392.3 210.58,391.72 211.64,391.72C215.96,392.34 214.5,390.82 218.44,391.56C219.97,391.84 218.71,393.99 219.71,395.09C220.8,395.3 220.44,393.86 221.14,393.56C221.81,393.27 222.29,394.15 222.94,393.91C223.08,393.86 223.09,393.84 223.12,393.99C224.52,398.7 224.75,393.25 225.94,394.9C226.53,395.72 226.54,395.91 226.98,395.3C227.28,394.89 227.68,391.44 228.44,393.26C229.26,395.22 226.96,396.96 232.51,397.49C238.33,398.05 234.85,396.68 235.85,395.09C235.95,394.99 236.48,393.58 237.23,394.33C237.57,394.67 237.31,395.45 237.79,395.7C239.94,396.62 239.94,396.62 241.26,398.66C243.58,398.66 241.14,392.28 243.1,389.06C244.76,386.33 244.77,374.07 245.45,369.34C246.17,370.06 245.95,370.77 245.96,371.49C246.06,376.14 246.15,378.41 246.23,379.41C246.16,380.36 246.01,382.6 245.79,387.33ZM245.18,350.85C245.22,349.38 245.16,347.34 244.97,345.11C245.82,333.12 247.37,304.01 249.9,250.14C248.41,311.88 246.25,385.68 245.18,350.85Z" style="fill-rule:nonzero;"/>
        <path d="M98.77,556.14C98.05,611.64 98.12,615.26 98.77,556.14Z" style="fill-rule:nonzero;"/>
        <path d="M550.11,148.18C543.98,147.98 537.85,148.38 532.13,150.43C530.5,152.17 531.62,154.41 530.7,156.25C529.37,156.86 527.74,156.66 526.51,157.88C526.2,158.39 526.51,159.21 525.59,159.72C485.87,165.9 490.95,165.84 488.92,162.27C485.15,160.6 485.79,161.6 483.61,161.86C482.79,161.96 481.88,161.25 480.95,161.76C479.63,162.48 478.19,162.07 476.97,161.56C475.95,162.17 475.03,162.68 474.11,163.19C472.17,162.58 470.53,163.09 469.31,164.62C467.16,170.21 476.77,167.34 432.43,174.22C430.18,172.2 432.43,171.24 426.71,170.75C420.52,170.21 422.95,170.37 420.27,171.26C420.17,171.29 413.23,172.09 413.12,172.08C410.39,171.76 411.14,175.6 409.34,177.7C406.38,178.21 403.21,178.62 400.15,179.13C398.52,175.76 395.86,173.51 393.31,170.86C394.43,169.94 393.01,169.12 393.21,168.1C394.23,162.89 386.43,159.83 388.1,155.64C389.08,152.27 389.79,149.67 388.92,147.06C388.61,146.96 388.2,146.96 387.9,146.86C385.91,140.88 386.26,146.99 381.97,146.04C381.59,146.04 380.6,147.22 379.31,147.47C363.2,150.6 364.17,146.77 351.83,157.99C351.72,157.97 348.84,154.73 349.58,157.68C350.2,160.15 346.89,158.37 346.52,160.23C346.72,161.56 348.77,161.46 348.77,163.19C348.57,163.8 347.24,163.5 347.14,164.52C347.14,165.54 348.37,165.24 348.77,166.05C344.97,169.85 348.2,173.86 349.59,177.9C351.64,183.88 352.73,181.83 353.47,185.15C354.49,189.73 354.82,186.6 357.56,196.18C358.28,199.44 360.93,199.2 359.09,201.9C356.48,205.75 341.29,216.24 348.87,231.93C349.76,233.78 350.91,235.61 352.04,237.55C351.73,238.98 352.34,240.31 353.16,241.64C360.73,253.78 362.46,245.44 362.46,253.49C362.46,255.71 356.11,596.69 356.84,598.16C360.96,601.11 361.15,380.94 363.28,379.34C371.59,379.34 369.44,375.08 369,402.33C365.17,641.41 366.77,686.48 371.35,409.89C374.18,238.98 371.74,257.25 377.79,263.3C383.52,269.03 365.99,911.11 379.73,402.23C382.46,301.23 379.5,312.24 382.69,309.17C384.48,307.45 383.61,306.45 381.57,305.08C381.16,300.48 381.67,273.31 382.18,270.14C383.2,269.94 383.3,271.26 384.22,271.26C384.31,270.61 384.01,270.1 383.61,269.52C381.26,266.16 382.68,264.08 380.34,262.47C377,259.8 378.31,258.13 373.09,254.6C371.56,253.57 370.03,252.45 368.8,251.02C367.57,251.22 366.45,250.82 365.63,249.9C361.65,245.92 356.69,247.77 350.61,230.08C347.97,222.39 350.19,218.11 350.91,215.07C351.51,212.52 352.21,210.6 355.31,209.25C356.03,212.5 355.82,215.76 359.29,219.77C364.51,225.8 370.71,224.46 376.45,219.57C380.72,215.93 383.17,216.5 386.26,212.11C392.7,202.97 392.57,202.84 393.82,202.61C394.95,202.48 394.53,205.07 395.76,202.61C402.75,200.61 389.91,205.97 395.96,225.39C397.87,231.5 397.85,236.62 403.52,243.15C408.05,248.37 412.39,248.34 412.39,248.76C412.23,249.59 411.23,250.18 412.1,251.01C413.43,251.11 413.53,249.68 414.55,249.07C416.8,248.87 419.25,249.38 421.8,248.76C424.35,246.41 428.03,245.59 430.69,242.84C431.01,244.19 430.9,245.89 430.08,247.85C429.26,249.79 429.57,251.94 429.26,253.98C428.83,254.84 431.17,256.27 433.34,244.48C434.43,248.19 435.82,245.66 441.1,259.7C444.15,267.8 447.32,270.75 447.32,271.23C447.06,273.92 445.43,282.74 442.74,283.1C441.07,283.43 443.24,283.96 436,288.92C434.2,290.15 429.85,292.41 428.85,293.41C427.1,294.81 429.57,295.32 421.49,296.17C404.02,298.01 407.79,299.42 384.61,271.75C384.56,271.65 379.48,266.38 402.07,294.72C405.66,299.22 406.36,295.92 406.36,301.87C406.36,306.33 414.1,319.07 417.9,320.26C432.89,324.94 452.53,323.36 454.27,323.94C460.09,325.88 458.35,325.21 469.8,331.3C470.62,333.1 470.23,337.55 472.25,341.82C481.28,360.94 479.53,356.04 480.22,358.47C485.42,376.94 482.77,367.15 480.73,372.47C480.73,376.31 481.11,379.17 479.4,382.79C478.86,383.93 478.2,390.99 476.23,394.54C476.74,395.46 477.15,396.28 477.66,397.09C482.56,398.62 487.26,400.87 492.68,399.64C494.01,402.15 500.32,403.38 502.38,403.73C513.64,405.61 507.71,402.6 522.81,405.06C524.2,405.06 523.51,393.84 519.85,577.09C519.44,597.57 518.22,600.44 521.69,598.13C521.69,598.03 531.73,154.22 533.95,151.5C536.2,150.68 540.08,150.17 542.63,150.38C542.84,152.68 534.19,597.54 535.79,598.33C539,599.13 539.94,421.42 541.31,374.1C548.01,142.89 541.08,145.46 551.32,151.6C550.13,263.23 550.09,238.93 545.39,244.05C550.81,245.6 549.66,238.3 549.27,264.99C548.72,302.63 549.7,297.47 545.59,297.88C544.47,297.99 544.26,298.19 543.96,299.51C552.49,306.22 545.97,249.77 544.37,585.75C544.34,592.95 543.83,596.78 544.27,598.21C546.51,598.82 546.59,598.31 546.62,596.17C547.11,557.46 550.05,314 553.26,307.58C554.18,305.43 552.85,304.11 551.32,302.98C551.33,165.53 558.46,154.25 550.11,148.18ZM358.13,164.12C357.41,165.21 356.58,163.22 357.79,163.22C358.13,163.22 358.42,163.61 358.13,164.12ZM381.86,307.34C381.86,307.49 381.96,307.41 381.96,307.85C381.73,307.96 381.42,307.78 381.86,307.34ZM362.56,375.27C362.7,363.04 362.99,347.41 363.28,341.66C365.09,340.45 366.98,342.26 368.39,341.35C369.18,340.76 368.71,339.96 368.8,339.31C361.76,335.79 362.94,358.12 364.82,252.07C366.7,253.32 369.53,254.32 371.36,256.26C371.36,257.25 369.77,371.89 369.42,377.11C362.47,377.11 362.53,377.82 362.56,375.27ZM525.7,161.97C526.84,163.22 526.41,165.25 526.3,165.25C523.76,166.1 491.24,170.99 488.6,171.07C484.85,167.32 491.77,167.06 525.7,161.97ZM467.88,174.12C466.69,174.91 429.21,180.81 426.92,179.84C426.14,179.06 425.95,178.33 426.51,177.39C474.31,169.67 468.32,170.17 467.88,174.12ZM432.94,182.4C435.49,181.67 467.06,176.3 467.06,178.11C465.18,192.23 468.04,194.9 459.63,209C458.99,210.27 457.99,206.92 449.49,206.92C445.51,206.92 441.62,207.12 437.54,207.23C434.99,205.49 432.13,204.47 428.96,204.17C428.11,204.17 424.18,201.66 416.7,200.08C413.95,195.13 434.57,188.64 432.94,182.4ZM417.92,172.69C418.33,172.59 418.84,172.89 419.15,173C419.87,173.82 418.74,174.94 419.97,175.55C421.74,174.37 419.62,172.7 421.5,171.97C423.57,171.59 429.1,171.22 429.96,174.15C430.2,174.63 426.98,173.91 425.31,174.69C422.34,176.09 424.46,180.19 426.51,182.49C428.9,183.38 432.31,180.92 431.11,183.92C430.71,185.11 425.2,190.18 420.38,191.79C420.38,192.09 420.24,192.31 419.95,192.43C419.51,192.65 419.95,191.98 420.17,191.91C420.33,191.86 419.92,190.53 418.81,191.02C416.93,191.85 418.43,194.44 413.42,199.45C405.73,199.25 393.86,205.36 407.29,192.91C410.43,190 411.51,186.37 411.39,182.29C411,169.79 413.65,174.53 417.92,172.69ZM409.35,180.14C412.51,183.69 406.25,183.69 398.93,184.74C396.53,180.82 404.35,180.26 409.35,180.14ZM398.1,177.12C398.7,178.17 396.17,180.52 396.17,175.05C396.87,175.67 397.63,176.3 398.1,177.12ZM385.23,156.66C385.11,156.66 385.03,156.59 385.03,156.46C385.17,156.59 385.19,156.62 385.23,156.66ZM384.86,156.01C384.86,156.17 385.01,156.29 384.52,156.05C385.15,155.42 384.83,155.61 384.86,156.01ZM382.17,153.49C382.36,153.3 382.37,152.82 382.37,153.29C381.99,153.67 382.15,153.96 381.71,154.13C380.25,154.68 380.89,153.13 382.17,153.49ZM380.6,154.15C380.86,154.02 380.66,154.65 380.55,154.52C380.11,154.32 380.29,154.23 380.6,154.15ZM378.7,148.89L378.7,149.09C378.31,148.97 378.29,149.03 378.7,148.89ZM377.31,177.96C377.69,178.1 377.85,178.34 377.85,178.52C377.3,178.54 377.21,177.96 377.31,177.96ZM376.96,174.64C376.26,174.94 375.95,174.46 376.14,174.03C376.68,172.83 374.83,171.74 376.86,171.07C377.66,172.3 376.76,173.51 376.96,174.64ZM377.12,177.77C376.84,177.71 376.7,177.49 376.61,177.22C377.1,177.32 377.06,177.77 377.12,177.77ZM376.42,176.93C375.78,176.73 375.32,176.42 375.16,175.78C376.01,175.82 376.35,176.19 376.42,176.93ZM376.42,169.35C373.81,171.13 374.52,172.45 375,175.64C371.28,175.35 375.44,166.4 376.42,169.35ZM369.3,158.8C369.73,159.33 369.78,159.75 369.2,160.23C368.82,159.74 368.77,159.33 369.3,158.8ZM367.26,194.86C367.71,195.09 367.31,195.27 367.24,195.03C367.21,195 367.21,194.93 367.26,194.86ZM388.6,199.96C383.66,197.41 383.28,196.65 382.3,196.7C382.3,196.66 382.29,196.63 382.28,196.6L382.27,196.61C382.27,196.59 382.23,196.6 382.08,196.6C381.94,196.6 381.92,196.57 382.18,196.7C382.19,196.69 382.19,196.69 382.2,196.68C382.19,196.7 382.21,196.71 382.3,196.71C383.27,202.87 393.11,200.38 390.05,204.36C383.47,212.92 383.34,214.58 380.65,214.58C379.27,214.58 379.32,216.79 371.46,220.61C362.93,224.75 366.66,216.36 365.13,212.23C362.58,211.87 365.11,218.88 364.24,220.34C363.23,220.03 356.18,218.19 357.27,207.53C358.6,206.2 360.34,204.98 361.46,203.24C362.91,201 363.21,195.33 364.62,198.85C365.4,200.42 366.05,200.58 366.05,200.47C366,198.48 366.63,196.87 367.52,195.28C369.5,195.9 367.9,194.85 370.74,192.72C369.76,189.89 370.97,190.96 371.86,190.06C370.87,187.23 374.3,186.86 374.3,185.94C374.22,184.77 374.71,183.08 374.72,181.7C374.75,175.19 376.42,180.88 379.23,181.37C381.19,180.96 381.09,179.25 380.57,178.8C380.15,178.44 379.39,178.45 379.34,178.4C380.47,180.65 377.98,180.61 377.98,178.6C379.95,178.6 379.11,178.57 378.2,176.76C378.61,175.53 380.18,176.24 378,173.18C378.63,172.04 377.49,170 378.11,170.19C379.35,170.57 379.86,173.98 381.78,176.86C382.47,175.47 382.77,174.29 382.8,172.67C382.9,167.31 383.97,168.86 386.68,158.47C388.72,160.17 390.55,163.21 392.2,165.31C391.69,166.74 390.25,167.66 390.05,169.19C389.94,170.01 390.56,169.6 390.97,169.7C394.29,175.61 394.88,174.94 395.06,176.44C395.31,178.58 396.39,180.32 397.41,181.85C397.73,183.91 394.51,183.48 397.41,185.22C397.61,186.34 397.21,187.57 397.92,188.8C400.19,192.21 398.48,194.65 396.08,195.03C389.61,196.07 392.59,202.02 388.6,199.96ZM394.02,200.38C392.03,197.82 398.43,198.1 400.25,192.63C400.3,190.65 398.66,189.35 398.92,187.4C401.69,186.71 408.83,185.71 408.83,185.82C408.79,187.73 408.66,188.91 407.5,190.26C403.28,195.21 401,200.81 394.02,200.38ZM420.38,237.46C419.03,239.2 418.64,241.66 418.64,244C423.99,240.26 419.76,238.48 424.97,238.48C426.25,238.48 426.85,238.72 430.08,238.07C431.3,240.81 422.07,246.4 420.89,247.16C420.68,247.2 417.41,247.69 417.41,247.03C416.99,246.23 418.2,244.85 417.04,244.76C416.18,244.7 416.64,246.4 416.09,247.06C409.85,247.06 400.11,238.91 398.83,227.96C398.25,223 396.73,227.59 396.28,218.15C395.8,208.03 399.11,206.77 399.96,202.52C404.96,200.94 405.38,203.35 412.01,202.42C419.99,201.3 424.64,205.34 426.05,205.81C427.07,206.25 422.38,204.83 441.33,209.77C443.59,210.15 444.4,209.08 450.32,209.77C452.65,210.04 456.39,210.18 456.55,210.18C459.02,212.25 459.69,212.42 462.78,212.22C463.4,211.11 461.76,211.39 461.76,210.07C462.93,205.1 466.26,202.49 467.68,195.36C469.21,187.72 468.96,170.12 471.15,164.92C474.31,164.92 476.47,163.69 476.57,163.69C480.2,162.96 485.04,163.16 485.66,163.08C486.87,162.85 488.25,163.4 488.83,164.71C488.21,165.65 486.58,162.92 486.58,167.98C486.58,170.92 485.02,178.29 482.39,180.14C480.91,180.63 480.67,176.71 479.12,182.9C480.68,184.07 480.28,182.42 480.45,195.57C480.48,197.67 480.95,204.17 481.68,213.96C482.04,218.78 479.55,220.56 478.41,231.63C478.04,233.46 477.29,235.38 473.71,235.82C472.47,235.97 466.93,236.56 467.14,236.13C468.29,234.6 468.35,234.58 470.85,233.68C471.22,232.56 469.88,232.61 468.91,233.07C464.14,235.32 463.67,233.32 461.15,235.22C461.15,236.04 462.07,236.14 462.48,236.85C433.29,241.02 439.34,233 420.38,237.46ZM446.02,282.72C446.02,282.99 446.07,282.95 445.82,282.82L446.02,282.72ZM444.38,286.8C443.74,286.41 443.46,285.91 443.47,285.33C443.54,282.48 446.76,286.01 444.38,286.8ZM438.36,291.09C438.23,291.35 438.28,291.35 438.16,291.09L438.36,291.09ZM415.57,300.39C414.34,300.19 413.63,300.08 413.12,299.47C413.84,298.86 413.84,298.86 415.57,300.39ZM450.41,321.54C439.17,321.39 441.55,320.49 433.15,320.01C427.44,319.68 417.59,319.9 412.82,310.82C406.59,298.96 408.43,301.29 411.9,301.52C417.87,301.92 418.23,299.28 418.34,299.28C420.34,299.47 421.52,299.67 421.63,299.57C422.51,299.43 422.59,297.38 424.61,297.92C428.28,298.9 431.65,298.61 432.64,294.99C432.79,294.45 431.01,293.67 432.36,293.51C433.11,293.42 433.79,294.26 434.58,293.87C435.4,293.05 433.53,292.66 435.09,291.72C436.05,291.72 437.29,293.23 438.56,292.96C438.56,296.07 442.18,291.76 441.3,290.66C443.48,290.66 439.9,287.17 441.95,287.89C444.65,288.84 443.78,288.92 444.37,288.56C446.39,287.19 447.22,284.79 448.88,282.94C447.55,279.26 448.98,276.3 451.84,273.44C456.26,272.38 460.38,272.67 464.1,275.28C482.45,276.81 469.22,275.69 479.63,275.69C478.87,276.87 472.99,281.78 475.57,281.02C476.05,281.02 481.63,276.39 482.69,275.48C485.84,274.85 488.7,274.11 487.9,277.32C486.66,281.33 484.36,288.15 486.67,284.27C491.89,275.51 487.31,274.85 492.92,275.83C500.56,277.16 501.22,276.77 503.22,277.83C502.8,279.01 498.37,282.91 500.87,281.51C506.62,278.29 502.26,276.64 513.44,279.77C514.86,280.66 513.98,284.04 516.1,286.51C516.97,287.68 516.86,292.67 516.71,294.17C511.43,295.34 509.05,291.78 502,292.23C484.47,293.35 486.03,292.35 478.3,294.48C477.68,294.8 477.36,294.97 477.31,295.05C477.25,295.05 477.18,295.06 477.08,295.09C475.82,295.02 475.26,295.7 475.79,295.69C476.95,295.68 477.48,295.24 477.41,295.1C478.14,295.12 483.22,293.9 491.67,294.27C493.28,294.34 494.51,293.71 496.16,293.15C501.85,294.29 504.22,292.79 507.08,293.66C516.62,296.56 517.18,295.41 516.68,298.26C515.14,307.08 512.99,307.83 508.92,310.62C490.77,323.03 507.55,319.1 481.75,317.26C483.37,310.38 495.92,309.91 497.99,309.6C499.27,309.6 498.76,308.38 497.89,308.37C493.25,308.33 488.78,308.85 484.81,311.23C474.01,317.7 493.02,317.14 456.1,320.53C451.07,320.99 453.99,321.58 450.41,321.54ZM502.41,351.26C503.72,383.29 503.16,367.67 496.69,367.91C495.44,365.82 492.3,350.21 496.89,335.94C497.26,334.78 497.16,334.73 496.67,330.57C495.54,321.08 493.66,320.5 498.02,321.95C502.11,322.97 500.57,320.28 500.57,330.84C500.57,337.01 501.6,331.68 502.41,351.26ZM467.57,327.05C457.29,320.86 448.4,322.58 481.67,320C483.1,319.89 484.53,319.18 486.27,319.59C485.96,320.82 485.35,321.54 484.53,322.04C477.74,326.22 472.58,330.07 467.57,327.05ZM482.49,357.6C481.39,353.7 475.05,347.96 472.39,330.85C479.1,328.61 481.3,327.96 489.15,320.1C491.83,318.81 492.82,324.28 492.82,325.42C493.59,330.8 495.56,331.15 493.94,341.75C493.94,346.07 490.99,348.95 492.93,361.48C493.62,365.95 493.53,369.93 498.75,372.1C496.57,379.02 495.32,373.36 491.8,370.16C483.47,368.91 487.11,374 482.49,357.6ZM494.34,396.11C491.83,398.62 485,396.12 478.81,395.09C478.81,393.5 481.51,391.24 480.75,388.96C480.65,388.65 480.65,388.24 480.75,387.94C482.18,384.67 482.01,381.07 483.1,377.83C484.25,374.4 481.75,372.62 486.42,372.6C487.97,372.59 489.3,372.65 490.52,371.8C491.05,371.48 491.75,375.48 496.29,378.44C498.81,379.07 501.14,372.69 496.09,387.33C493.24,395.57 495.01,392.76 494.34,396.11ZM524.27,402.55C521.54,401.25 509.2,402.1 503.94,401.12C491.75,398.85 496.6,399.68 496.28,397.14C496.28,395.37 496.45,392.89 497,391.32C500.23,381.92 499.84,379.66 500.37,378.86C502.02,376.66 500.89,375.01 501.4,374.79C502.9,374.17 504.01,375.4 505.37,375.18C506.5,375 507.92,375.08 509.25,375.9C509.3,376.01 513.25,386.97 516.15,382.61C516.83,381.58 517.19,379.87 517.63,378.66C519.28,379.48 519.71,381.37 520.69,382.54C525.51,388.24 525.14,377.83 524.27,402.55ZM514.87,380.48C514.77,380.48 514.67,380.58 514.56,380.58C513.75,380.29 514.87,379.91 514.87,380.48ZM525.49,376.39C525.8,377.99 525.69,378.68 525.69,378.8C524.99,386.47 520.15,376.05 516.51,372.41C516.71,365.44 516.42,364.62 521.21,350.65C530.28,314.37 522.97,363.49 525.49,376.39ZM526.13,321.33C525.52,336.37 517.52,347.33 515.4,360.05C515.02,363.86 511.95,368 512.13,372.21C513.49,372.99 516.51,375.09 515.4,376.19C503.37,364.57 505.5,388.41 504.06,341.05C503.44,333.62 501.34,336.49 502.83,325.22C504.84,310.03 514.34,313.85 517.44,305.91C518.49,303.22 519.87,304.06 519.41,302.99C518.15,300.05 519.75,301.9 519.56,288.35C519.51,284.3 514.39,280.62 522.85,285.58C527.82,288.49 527.42,289.6 526.13,321.33ZM530.19,179.44C525.58,300.91 527.73,272.6 527.14,285.17C524.38,282.92 521.42,281.7 518.56,280.37C515.85,279.6 518.14,278.01 512.84,276.08C495.96,269.94 475.72,274.76 466.46,273.32C463.66,269.65 454.02,269.89 450.6,272.66C450.5,272.76 450.42,271.19 450.42,271.09C450.06,270.59 445.21,263.96 445.27,263.33C445.95,259.27 433.08,240.03 435.83,240.03C436.87,238.85 440.97,242.31 452.26,240.45C469.65,237.58 470.98,240.12 476.27,237.39C482.99,233.91 478.62,230.74 482.19,222.48C486.9,211.59 480.42,201.85 482.09,182.54C492.34,171.21 474.89,175.62 525.71,168.24C529.18,178.13 530.69,166.35 530.19,179.44ZM530.4,169.64C530.5,169.64 529.26,170.16 528.05,168.31C528.5,161.85 527.55,158.58 529.62,158.58C531.38,158.59 530.52,168.7 530.4,169.64Z" style="fill-rule:nonzero;"/>
        <path d="M819.4,302.02C819.4,147.48 830.15,143.06 809.18,147.25C795.59,149.97 801.07,148.39 798.86,155.01C797.33,155.42 795.69,155.42 794.77,156.34C794.16,157.06 794.46,157.97 793.34,158.49C762.81,162.74 770.91,164.75 760.85,155.12C765.45,139.03 765.07,138.86 765.75,138.06C768.76,134.54 777.91,110.21 775.76,98.22C775.29,95.6 777.19,87.11 778.31,85.55C780.23,82.48 784.97,76.85 785.05,66.55C785.09,62.1 792.29,52.76 786.28,40.19C787.71,38.76 790.26,39.47 790.88,37.13C789.42,23.25 791.77,29.32 790.57,23.54C787.65,9.45 785.13,7.85 771.88,2.09C763.22,3.53 766.97,1.34 765.24,0.05C763.2,-0.36 764.01,1.79 763.2,2.5C758.57,4.48 762.17,4.27 757.17,5.56C753.33,6.55 749.64,13.75 749,17C748.35,20.3 744.7,22 741.24,29.57C737.46,31.19 723.37,24.14 708.86,42.14C706.32,42.32 700.83,48 698.13,55.73C691.75,74 697.93,83.23 696.19,103.95C695.84,108.14 694.18,106.45 693.43,110.49C692.93,113.2 693.02,117.53 688.94,118.66C686.69,121.21 683.83,123.05 681.69,125.71C681.18,126.43 680.55,127.23 679.85,127.75C665.41,138.57 670.88,175.65 667.59,178.11C663.81,178.62 659.83,179.54 655.84,179.85C654.82,178.01 652.67,177.3 652.57,175.25C649.63,173.49 638.06,174.3 637.96,174.33C628.85,177.11 633.54,167.11 630.81,252.17C629.86,281.87 632.01,296.86 625.91,307.44C623.75,311.18 623.39,314.85 626.32,318.06C630.13,322.23 629.51,320.5 629.49,324.5C627.94,587.5 622.1,602.7 626.94,597.87C627.22,597.02 627.55,576.21 627.55,576.11C630.81,357.99 628.98,378.54 634.09,378.54C639.37,378.54 638.14,356.81 633.99,595.42C633.62,598.73 635.17,599.04 636.34,597.87C636.34,597.77 640.5,345.06 640.73,344.32C646.89,348.86 646.38,345.81 646.35,351.16C643.98,702.73 643.89,655.99 648.8,351.67C648.84,349.38 649.99,350.08 657.59,352.9C660.8,352.39 665.08,349.69 665.35,346.26C665.62,342.82 665.93,343.05 665.95,343.08C665.93,343.05 665.64,342.56 664.83,338.49C663.06,329.56 664.9,334.24 664.22,328.48C663.32,320.86 664.45,313.28 668.51,303.86C669.55,301.45 668.12,300.3 665.65,296.71C681.27,263.24 690.29,265.5 697.52,246.04C699.94,239.54 701.66,239.22 707.12,233.07C709.77,230.09 709.58,227.88 711.21,226.43C714.11,227.75 712.66,229.4 715.91,231.03C719.19,232.67 719.66,233.56 720.92,232.46C719.6,227.98 727.1,230.49 736.45,184.55C738.38,175.07 736.15,174.52 745.64,174.33C746.97,174.3 748.39,173.73 749.42,174.23C750.94,174.97 752.48,174.74 754.12,174.64C767.68,174.64 766.4,173.9 768.83,170.66C801.39,165.59 792.44,166.38 795.49,170.25C799.01,174.71 798.9,159.69 797.74,208.15C795.41,305.49 780.47,852.09 794.16,444.23C804.7,130.35 794.32,149.59 811.32,149.2C811.54,149.51 803.46,595.52 803.45,595.62C803.43,597.71 803.63,599.42 805.8,597.97C805.8,597.87 813.32,150.92 814.38,149.51C816.42,149.1 818.94,149.16 819.9,151.55C819.41,163.72 818.26,241.11 817.65,241.96C808.79,244.17 816.08,242.72 817.75,243.7C818.16,247.28 817.44,293.35 816.83,296.82C813.69,297.11 812.03,296.89 812.03,298.56C813.36,300.09 815.3,298.36 817.04,299.38C817.04,301.14 811.64,596.79 812.44,598.39C816.02,600.18 814.09,606.99 817.65,406.64C819.87,281.96 818.81,312.86 821.33,306.63C822.2,304.49 821.34,303.05 819.4,302.02ZM784.7,24.83C784.84,24.69 785.21,25.4 784.76,25.99C784.35,25.99 784.14,25.76 784.04,25.38C784.23,25.29 784.43,25.1 784.7,24.83ZM783.34,15.17C783.34,15.54 783.37,15.48 783.24,15.48L783.34,15.17ZM778.43,24.26C778.84,24.57 778.84,24.87 778.43,25.18C778.23,24.88 778.23,24.57 778.43,24.26ZM773.73,23.45C774.22,23.45 774.44,23.77 773.22,23.77C773.09,23.76 772.96,23.83 773.73,23.45ZM772.81,20.38C772.81,21.93 772.8,21.91 771.69,21.91C771.79,21.2 772.41,20.79 772.81,20.38ZM773.04,23.96C772.93,24.46 773.11,24.16 772.82,24.16C772.88,24.1 772.97,24.04 773.04,23.96ZM773.94,26.82C774.86,26.2 774.86,24.67 776.39,24.36C776.59,25.69 775.47,26.61 775.37,27.94C776.09,29.17 774.86,31.41 777.31,32.13C778.74,31.93 778.94,30.29 780.37,29.58C781.9,29.27 783.74,28.86 785.68,29.78C784.05,43.12 783.36,34.81 775.06,33.15C769.12,32.56 773,31.46 770.57,29.27C771.46,25.74 771.49,27.37 773.94,26.82ZM765.97,9.65C765.97,9.75 766.07,9.85 766.07,9.96C765.93,10.1 765.97,10.47 765.97,9.65ZM765.05,21.91C765.15,21.96 765.11,21.94 765.25,22.01C765,22.14 765.05,22.18 765.05,21.91ZM759.66,12.99C759.71,12.89 761.31,11.53 759.74,13.62C759.58,13.37 759.57,13.16 759.66,12.99ZM756.67,21.1C758.12,21.96 756.73,23.43 755.95,22.12C756.06,21.61 756.37,21.4 756.67,21.1ZM757.59,26.61C759.62,25.45 759.73,25.08 760.38,25.72C762.54,27.87 762.67,25.49 764.04,24.67C769.99,24.67 768.74,24.26 769.35,24.26C770.27,25.49 768.74,25.89 768.74,26.71C767.65,30.36 772.49,31.2 761.28,27.94C758.63,27.17 748.32,26.61 757.59,26.61ZM746.87,25.9C747.97,25.35 747.88,26.53 749.35,26.53C749.72,26.53 750.11,26.57 750.45,27.12C744.46,28.18 744.84,28.33 746.87,25.9ZM738.8,32.23C748.36,30.04 746.37,29.44 750.54,29.47C756.79,29.52 755.42,30.06 749.75,32.72C748.25,32.72 748.07,31.13 744.52,34.68C743.2,34.98 742.13,34.61 741.22,34.49C739.26,34.49 741.18,36.73 735.12,36.73C733.53,36.9 732.77,35.79 732.87,35.69C734.33,35.68 737.03,34.47 738.8,32.23ZM735.42,32.74C733.94,33.75 732.91,34.37 732.77,35.62C732.77,35.48 731.72,36.07 730.11,35.45C721.56,32.11 739.6,29.89 735.42,32.74ZM703.44,48.98C703.41,49.51 703.17,49.63 702.84,49.59C702.84,49.21 703.06,49.03 703.44,48.98ZM696.91,106.29C699.82,98.83 696.71,73.11 696.71,68.9C696.71,63.84 703.98,51.69 701.67,53.68C701.16,54.12 698.76,57.73 699.03,56.31C699.28,55.03 701.9,50.64 702.46,50.01C703.3,49.07 702.15,50.87 703.23,51.65C703.9,50.79 704.17,50.44 704.08,50.03C703.97,49.52 703.39,49 703.61,49C704.36,49 703.33,47.43 706.82,45.32C713.66,41.19 716.22,33.56 724.49,33.56C728.54,34.57 731.93,42.49 747.58,35.91C762.22,29.75 755.61,30.19 763.11,30.19C763.11,32.62 751.46,36.31 748.09,57.06C746.96,64 748.44,69.47 755.24,74.12C755.04,77.18 756.47,79.94 756.57,83.01C755.95,84.65 754.41,85.72 753.91,87.71C756.51,87.29 757.44,83.14 756.46,91.49C755.21,102.2 750.5,102.91 750.23,112.94C749.98,115.72 746.22,122.63 746.14,122.75C743.81,126.28 745.07,130.26 743.79,128.98C739.64,124.83 731.42,121.37 731.42,121.54C730.02,123.26 730.43,123.08 728.27,122.38C722.85,120.62 731.29,119.89 723.38,117.33C719.34,116.03 712.95,114.94 709.67,115.29C709.67,115.7 709.57,116.21 709.57,116.62C708.39,117.21 705.73,116.57 705.83,116.47C707.42,114.86 706.63,112.83 707.73,111.31C709.24,109.23 710.13,102.94 709.3,104.43C707.44,107.39 705.96,110.28 704.87,113.65C703.34,114.06 701.7,113.14 699.97,113.45C699.05,113.61 695.02,113.87 694.9,113.64C694.43,112.73 695.77,109.23 696.91,106.29ZM751.39,52.29C752.1,51.58 750.83,53.56 757.06,52.57C761.03,52.17 759.15,50.83 760.53,52.67C752.88,64.15 757.74,76.58 751.77,69.72C748.15,65.57 748.73,54.21 751.39,52.29ZM742.98,133.16C742.88,133.26 742.88,133.36 742.88,133.36C742.88,133.26 742.78,133.16 742.78,133.05C742.78,133.05 742.88,132.95 742.88,132.85C742.88,132.96 742.98,133.06 742.98,133.16ZM739.72,130.71C739.82,129.69 740.23,129.18 740.74,128.67C743.6,128.67 742.65,134.82 739.72,130.71ZM734.61,125.4C734.21,125.4 734.13,125.87 734.29,125.38C734.31,125.27 734.27,125.06 734.61,125.4ZM732.43,124.6C732.17,124.77 731.91,124.56 731.64,123.97C732.36,122.9 733.33,124.03 732.43,124.6ZM723.99,120.05C723.94,119.61 724.22,119.28 724.8,118.96C725.64,120.65 724.12,121.11 723.99,120.05ZM721.93,119.84C720.87,119.85 720.38,119.1 720.2,118.04C723.02,117.24 723.4,119.83 721.93,119.84ZM704.27,114.67C703.25,114.87 702.64,115.9 701.51,116.61C702.22,114.57 702.22,114.57 704.27,114.67ZM693.64,116.71C693.88,116.5 694.52,116.44 694.76,116.81C694.15,117.28 693.44,116.91 693.64,116.71ZM680.16,214.27C681.9,214.68 683.84,214.27 685.88,215.19C685.47,217.95 683.64,220.55 682.56,221.47C650.29,249.13 666.69,239.96 649.51,287.92C648.95,289.49 648.57,288.81 646.92,288.79C642.06,288.72 644.11,294.16 644.11,278.22C644.11,265.43 646.79,260.46 645.44,258.61C644.76,257.93 646.9,249.37 650.34,244C650.46,243.77 662.3,230.21 662.39,230.11C667.89,224.17 672.33,221 674.24,213.36C675.28,212.2 678.08,211.41 679.85,210.4C680.78,211.32 679.36,212.87 680.16,214.27ZM652.79,238.49C651.85,239.72 650.62,239.47 650.63,237.99C651.22,181.98 650.22,196.8 655.33,192.71C657.39,189.71 651.23,187.66 666.99,186.59C668.38,194.86 665.45,209.61 665.44,209.71C665.36,210.5 666.09,209.45 665.77,214.89C668.4,215.44 670.65,214.28 671.8,214.28C670.57,222.56 667.07,219.83 652.79,238.49ZM666.98,183.93C661.05,184.85 655.13,185.67 649.41,186.59C647.62,185.52 647.81,183.73 648.49,183.73C669.3,180.26 667.8,179.83 666.98,183.93ZM650.23,176.88C642.36,177.91 643.76,178.27 643.28,176.37C645.16,176.38 642.81,175.23 650.23,176.88ZM642.97,181.68C643.02,179.27 648.14,178.78 650.33,179.02C652.33,179.02 652.12,179.74 652.48,180.45C649.67,181.53 647.3,181 646.1,182.27C643.89,184.6 646.98,191.92 653.2,188.42C654.29,189.42 654.03,190.22 653.82,191.12C653.82,192.4 645.02,192.32 644.31,192.3C642.7,191.19 642.8,190.15 642.97,181.68ZM643.59,193.74C651.61,195.24 648.56,187.01 648.19,241.65C648.16,246.32 643.39,250.63 642.67,264.43C642.39,269.85 642.16,275.36 641.85,280.77C641.73,279.92 642.16,195.6 643.59,193.74ZM633.98,190.57C634.26,177.35 633.66,176.68 640.21,176.68C641.42,178.19 640.67,186.81 638.88,289.05C629.41,295.13 631.12,326.59 633.98,190.57ZM640.11,293.14C638.61,295.64 636.94,293.65 638.58,292.83C639.24,292.45 639.53,292.84 640.11,293.14ZM637.76,294.57L637.76,294.37C638.03,294.36 637.76,294.36 637.76,294.57ZM626.63,309.99C629.24,318.95 633.27,315.01 636.03,321.64C638.09,328.5 634.5,321.85 630.1,319.29C627.33,317.68 624.1,312.21 626.63,309.99ZM631.53,333.28C631.39,331.09 631.44,324.84 631.94,323.06C636.25,326.5 633.05,328.27 635.72,332.97C636.42,334.2 636.64,335.93 636.44,337.67C635.28,338.21 634.25,338.16 632.99,338.16C630.73,338.17 631.68,335.64 631.53,333.28ZM637.46,376.29C635.01,376.29 633.07,376.29 631.23,376.39C630.3,375.31 631.28,342.04 631.33,340.94C632.49,340.17 633.44,340.39 634.6,340.63C638.28,341.43 639.34,334.95 637.46,376.29ZM644.71,344.52C634.58,338.29 639.13,335.74 637.56,321.43C637.42,320.18 636.58,319.4 633.7,316.89C629.2,312.98 626.56,305.26 631.13,301.3C631.7,300.8 633.38,297.89 633.38,300.38C633.48,300.45 644.51,305.98 643.7,309.17C647.47,312.94 645.53,316.36 649.52,326.33C651.81,330.74 656.41,330.71 660.96,348.5C654.45,353.84 650.06,347.81 644.71,344.52ZM662.89,313.67C662.98,318.09 660.38,321.55 661.87,330.22C662.64,333.29 661.37,334.42 663.3,342.68C663.76,344.65 663.77,346.18 662.48,347.79C655.31,325.07 651.32,330.56 650.12,323.89C647.64,310.04 647.42,308.07 642.66,304.28C628.63,293.09 633.23,304.78 645.62,291.1C648.28,289.98 649.6,292.43 651.44,293.04C652.3,294.75 649.75,302.05 653.38,303.87C653.99,304.18 654.61,304.48 655.22,304.79C658.39,304.18 661.76,304.69 664.31,301.83C668.27,307.36 662.76,306.94 662.89,313.67ZM664.18,300.2C664.38,300.21 664.51,300.28 664.32,300.4C664.12,300.2 664.07,300.41 664.18,300.2ZM700.39,236.85C695.42,244.3 697.93,244 687.93,259.73C686.56,261.89 679.45,266.71 663.51,297.22C662.76,298.65 662.96,301.01 662.61,301.01C657.7,301.78 652.25,302.41 653.78,297.63C654.28,296.08 661.77,306.62 661.77,293.34C659.98,293.47 658.78,297.92 658.46,297.92C650.11,292.69 655.73,293.87 651.04,289.77C654.83,279.43 658.57,272.11 659.62,261.78C661.83,240 670.22,235.88 682.88,223.44C692.78,213.71 682.72,214.97 695.06,215.5C697.27,220.15 707.37,220.18 707.63,225.2L707.64,225.2C707.44,225.39 706.92,225.19 707.44,225.71C707.44,225.61 707.54,225.4 707.64,225.2C708.05,225.3 708.55,225.1 709.16,225.61C708.36,230.98 703.14,236.3 700.39,236.85ZM736.45,170.86C735.77,180.74 730.08,200.95 728.38,208.96C726.71,216.86 719.38,230.41 719.28,230.41C715.7,229.87 716.14,228.8 713.04,225.7C711.1,223.97 708.76,222.65 706.93,220.61C704.55,218.23 697.54,218.33 696.33,214.22C696.33,213.5 686.53,214 682.15,212.86C681.99,212.86 682.63,209.35 682.63,201.51C680.75,203.89 680.83,207.91 680.18,208.56C666.05,213.91 666.65,215.12 668.74,205.1C668.74,205 669.41,181.69 670.27,177C670.97,171.36 668.81,147.74 677.42,132.46C678.7,130.19 679.51,129.9 689.68,120.41C691.93,120.1 693.97,118.57 696.32,117.96C701.22,119.29 706.23,118.06 710.83,118.98C711.98,118.82 712.31,117.99 712.89,117.36C714.59,115.53 713.1,119.04 713.47,119.6C714.08,120.52 714.59,119.5 715.62,119.6C721.67,122.02 719.06,120.27 723.69,122.05C724.19,124.2 722.37,125.37 722.17,127.16C723.78,129.41 725.21,122.23 727.1,123.06C729.39,124.06 738.29,131.95 740.05,133.7C748.93,142.57 737.72,152.23 736.45,170.86ZM741.25,172.8C740.46,172.9 739.68,172.9 738.9,172.9C738.28,172.21 737.51,169.08 741.86,169.53C742.39,170.06 744,172.8 741.25,172.8ZM740.02,167.08C737.97,167.08 740.56,159.93 743.19,150.53C744.88,144.47 743.08,145.27 745.44,144.09C745.34,140.82 745.75,137.76 744.72,135.3C744.72,132.91 746.62,132.15 746.66,129.37C746.71,125.9 748.7,123.04 749.42,119.77C749.42,119.58 749.8,119.4 749.93,119.36C751.02,122.07 749.92,124.12 749.01,140.1C748.57,147.8 748.15,165.92 740.02,167.08ZM751.26,173.21C749.89,172.75 750.82,171.84 751.46,172.7C751.56,172.79 751.35,173 751.26,173.21ZM751.57,164.72C750.85,167.78 748.91,169.93 747.79,172.38C744.65,173.78 743.68,168.96 743.86,167.29C744.27,163.5 747.67,164.28 748.81,158.08C753.93,130.35 748.92,111.49 757.61,95.98C758.96,93.57 757.55,93.06 758.58,88.25C759.57,83.59 756.28,74.82 757.3,70.04C758.84,62.82 762.71,51.85 762.71,52.47C763.27,52.47 767.81,56.05 768.43,56.05C768.15,52.46 766.62,54.12 765.06,52.17C764.15,51.26 763.82,49.69 762.44,50.69C761.31,51.51 761.48,47.78 761.48,46.35C760.15,46.86 760.25,48.09 759.54,48.8C752.74,52.4 752.47,52.43 751.53,52.09C750.04,49.19 755.96,34.7 766.08,31.13C770.03,32.12 769.07,34.46 774.66,35.42C778.85,36.14 785.2,40.95 784.98,45.43C789.06,50.73 780.12,79.87 775.78,87C773.86,90.15 774.76,106.09 772.75,113.58C771.57,117.98 770.52,119.26 769.35,124.39C767.83,131.01 769.75,119.69 759.13,155.45C758.59,156.64 766.2,161.36 765.45,163.16C765.29,163.54 765.19,163.85 765.05,164.23C763.42,164.54 761.59,164.35 760.35,165.35C757.62,167.54 754.45,167.16 751.57,164.72ZM762.24,51.14C762.55,51.33 762.61,51.66 762.64,52.03C762.34,51.83 762.28,51.49 762.24,51.14ZM754.94,172.9C754.04,173.12 753.97,172.98 753.41,172.7C753.27,172.15 753.13,171.51 753.31,171.07C755.07,170.86 755.02,170.9 754.94,172.9ZM759.19,173.38C755.98,173.34 756.17,168.51 760.05,172.39C759.96,173.11 759.63,173.38 759.19,173.38ZM764.25,172.79C761.52,172.66 763.79,171.23 765.97,171.88C765.47,172.5 764.93,172.82 764.25,172.79ZM761.88,169.63C760.28,169.89 758.9,169.6 756.26,169.22C758.71,168.61 760.55,167.38 762.39,166.05C767.23,165.33 778.74,163.59 793.75,161.25C797.65,166.02 792.39,164.72 761.88,169.63ZM798.35,169.02C797.33,168.92 796.82,168.41 796.2,167.79C796.2,157.92 796.13,157.53 798.19,157.84C799.38,158.02 798.76,167.11 798.35,169.02ZM819.65,305.55C819.62,305.6 819.6,305.65 819.6,305.7C819,305.1 819.89,304.94 819.65,305.55Z" style="fill-rule:nonzero;"/>
        <path d="M665.95,343.08L665.95,343.08Z" style="fill-rule:nonzero;"/>
        <path d="M269.7,162.27C270.01,161.35 270.42,160.33 270.82,159.41C270.41,158.59 269.7,158.49 269.08,158.9C266.96,160.32 267.89,163.08 269.7,162.27Z" style="fill-rule:nonzero;"/>
        <path d="M548.58,157.06C546.94,157.81 545.33,159.89 548.27,160.94C550.07,157.35 549.87,157.71 548.58,157.06Z" style="fill-rule:nonzero;"/>
        <path d="M816.33,156.45C814.63,158.52 814.02,159.67 816.64,160.23C818.17,156.41 817.81,156.82 816.33,156.45Z" style="fill-rule:nonzero;"/>
        <path d="M191.34,458.94C191.46,458.74 191.56,458.79 191.24,458.84L191.34,458.94Z" style="fill-rule:nonzero;"/>
        <path d="M184.8,334.41L184.9,334.31C184.74,334.18 184.77,334.22 184.8,334.41Z" style="fill-rule:nonzero;"/>
        <path d="M124.33,526.05L124.43,526.15C124.4,525.92 124.48,525.8 124.33,526.05Z" style="fill-rule:nonzero;"/>
        <path d="M485.35,285.17L485.45,285.27C485.45,285.11 485.54,285.17 485.35,285.17Z" style="fill-rule:nonzero;"/>
        <path d="M499.96,281.69L500.06,281.79C500.1,281.67 500.18,281.69 499.96,281.69Z" style="fill-rule:nonzero;"/>
        <path d="M200.54,441.58C201.75,436.73 215.32,427.95 218.37,424.98C220.07,423.32 216.04,421.49 203.56,434.16C201.07,436.69 202.9,431.45 202.9,426.05C200.84,428.32 198.5,435.65 200.65,437.8C199.84,440.74 199.21,441.58 200.54,441.58Z" style="fill-rule:nonzero;"/>
        <path d="M230.47,454.13C231.8,449.39 238.03,433.91 234.56,430.43C234.15,443.36 229.63,449.46 230.47,454.13Z" style="fill-rule:nonzero;"/>
        <path d="M209.73,437.48C210.57,437.42 213.65,436.04 222.65,433.51C223.82,433.18 225.1,432.76 226.38,431.56C222.36,431.56 207.39,435.14 209.73,437.48Z" style="fill-rule:nonzero;"/>
        <path d="M236.8,401.32C236.58,407.06 234.87,412.18 235.47,418.18C237.72,405.83 239.89,399.78 236.8,401.32Z" style="fill-rule:nonzero;"/>
        <path d="M194.41,433.19C193.11,431.2 191.83,425.15 191.44,425.55C190.33,429.09 192.69,428.04 192.36,433.61C192.97,435.14 193.97,434.85 194.51,435.96C194.71,436.37 194.51,437.7 195.63,438.21C197.52,438.21 196.08,433.72 194.41,433.19Z" style="fill-rule:nonzero;"/>
        <path d="M183.48,435.75C185.11,436.47 186.53,437.31 188.08,437.9C198.27,441.73 194.51,436.42 183.48,435.75Z" style="fill-rule:nonzero;"/>
        <path d="M174.28,475.18C176.5,475.74 183.01,476.73 182.55,474.46C179.49,473.85 178.06,473.95 174.28,475.18Z" style="fill-rule:nonzero;"/>
        <path d="M219.23,415.72C220.84,415.32 222.29,414.36 223.62,413.78C233.16,411.09 223.94,409.56 219.23,415.72Z" style="fill-rule:nonzero;"/>
        <path d="M226.08,425.63C229.81,426.44 235.09,426.61 236.7,426.35C235.31,424.27 227.75,425.12 226.08,425.63Z" style="fill-rule:nonzero;"/>
        <path d="M198.29,397.34C195.49,402.6 195.13,403.31 195.39,404.31C195.61,404.98 198.31,399.65 199.41,397.96C199.1,397.33 198.75,397.24 198.29,397.34Z" style="fill-rule:nonzero;"/>
        <path d="M199.41,472.32C199.41,475.18 202.96,471.14 205.74,470.89C203.5,470.79 201.15,470.27 199.41,472.32Z" style="fill-rule:nonzero;"/>
        <path d="M228.12,477.94C225.08,475.02 223.05,472.38 223.82,476.13C223.61,476.63 223.14,477.04 223.83,477.94L223.83,476.2C225.82,476.02 227.02,478.87 228.32,479.16C228.85,478.64 228.44,478.24 228.12,477.94Z" style="fill-rule:nonzero;"/>
        <path d="M225.26,463.74C226.59,465.37 226.59,465.37 228.63,466.29C227.91,464.66 226.79,463.94 225.26,463.74Z" style="fill-rule:nonzero;"/>
        <path d="M179.06,463.74C179.68,464.09 179.85,464 180.51,463.74C179.61,462.43 175.7,461.49 179.06,463.74Z" style="fill-rule:nonzero;"/>
        <path d="M180.72,413.48C181.03,414.71 181.44,415.83 182.87,417.06C182.46,415.21 181.64,414.29 180.72,413.48Z" style="fill-rule:nonzero;"/>
        <path d="M212.39,394.37C212.7,394.39 213.01,394.44 213.15,394.48C217.98,395.43 217.55,393.3 212.39,394.37Z" style="fill-rule:nonzero;"/>
        <path d="M220.66,488.56C221.27,487.74 221.07,486.93 220.86,486.01C220.15,487.64 220.15,487.64 220.66,488.56Z" style="fill-rule:nonzero;"/>
        <path d="M183.19,435.55C182.95,435.44 182.06,435.73 183.48,435.73C183.6,435.74 183.74,435.81 183.19,435.55Z" style="fill-rule:nonzero;"/>
        <path d="M189.81,469.97C190.05,470.02 191.11,469.99 191.11,469.24C190.39,469.14 189.99,469.26 189.81,469.97Z" style="fill-rule:nonzero;"/>
        <path d="M189.47,469.94C188.12,469.77 188.19,471.43 189.36,470.56C189.47,470.48 189.92,469.99 189.47,469.94Z" style="fill-rule:nonzero;"/>
        <path d="M188.28,470.68L188.38,470.78C188.42,470.67 188.41,470.72 188.28,470.68Z" style="fill-rule:nonzero;"/>
        <path d="M224.76,463.2C224.63,463.27 224.55,463.33 224.44,463.43C225.68,464.26 225.33,462.95 224.76,463.2Z" style="fill-rule:nonzero;"/>
        <path d="M222.81,480.49C222.95,480.49 222.91,480.55 222.91,480.18C222.85,480.37 222.87,480.3 222.81,480.49Z" style="fill-rule:nonzero;"/>
        <path d="M190.33,459.04C190.42,459.12 190.51,459.15 190.6,459.15C190.8,459.15 191.66,458.6 190.33,459.04Z" style="fill-rule:nonzero;"/>
        <path d="M199.72,443.41C199.72,443.41 199.82,443.31 199.82,443.21C199.54,443.49 199.58,443.41 199.72,443.41Z" style="fill-rule:nonzero;"/>
        <path d="M202.99,426.04L203.09,425.94C202.83,426.07 202.84,426.04 202.99,426.04Z" style="fill-rule:nonzero;"/>
        <path d="M195.25,404.47C195.22,404.48 195.2,404.48 195.18,404.49C194.99,404.49 194.88,404.84 195.25,404.47Z" style="fill-rule:nonzero;"/>
        <path d="M195.25,404.47L195.28,404.46C195.33,404.43 195.37,404.34 195.25,404.47Z" style="fill-rule:nonzero;"/>
        <path d="M188.07,470.68C188.07,471.02 188.04,470.89 188.27,470.58C188.28,470.68 188.18,470.68 188.07,470.68Z" style="fill-rule:nonzero;"/>
        <path d="M196.45,369.24C197.98,367.71 195.57,361.06 195.06,360.77C192.7,359.59 195.93,368.21 196.45,369.24Z" style="fill-rule:nonzero;"/>
        <path d="M192.47,302.13C185.24,304.6 187.08,309.16 193.29,302.95C193.08,302.33 192.77,302.02 192.47,302.13Z" style="fill-rule:nonzero;"/>
        <path d="M200.33,388.96C199.51,385.29 200.83,382.14 199.12,379.18C199.02,379.08 198.65,380.08 199.41,382.21C198.69,385.18 198.82,385.93 200.33,388.96Z" style="fill-rule:nonzero;"/>
        <path d="M186.24,323.99C187.77,323.68 188.18,322.87 188.69,319.6C186.64,320.51 186.13,321.43 186.24,323.99Z" style="fill-rule:nonzero;"/>
        <path d="M177.35,336.86L177.25,336.76C177.25,336.84 177.26,336.83 177.35,336.86Z" style="fill-rule:nonzero;"/>
        <path d="M187.67,339.52C188.24,341.45 189.15,342.83 191.14,343.1C189.46,340.21 188.95,338 187.67,339.52Z" style="fill-rule:nonzero;"/>
        <path d="M180.82,309.07C181.56,307.28 181.29,306.26 180.41,305.19C180.31,306.31 179.7,307.44 180.82,309.07Z" style="fill-rule:nonzero;"/>
        <path d="M180.72,299.78C180.84,298.32 181.11,297.28 180.31,295.59C179.53,297.26 179.06,300.33 180.72,299.78Z" style="fill-rule:nonzero;"/>
        <path d="M198.49,377.21C199.63,374.93 197.55,371.56 197.76,375.1C197.82,375.91 198.12,376.47 198.49,377.21Z" style="fill-rule:nonzero;"/>
        <path d="M236.09,335.02C235.78,336.45 236.29,337.06 237.01,337.88C237.42,336.55 237.52,335.74 236.09,335.02Z" style="fill-rule:nonzero;"/>
        <path d="M191.34,319.29C192.39,318.76 191.67,317.56 191.35,317.67C190,317.86 190.49,319.86 191.34,319.29Z" style="fill-rule:nonzero;"/>
        <path d="M191.66,344.46C192.01,344.78 192.78,344.78 192.89,344.83C191.41,341.96 190.37,343.28 191.66,344.46Z" style="fill-rule:nonzero;"/>
        <path d="M194.51,314.49C193.61,314.49 193.11,314.98 192.77,315.82C193.98,315.92 194.21,315.37 194.51,314.49Z" style="fill-rule:nonzero;"/>
        <path d="M185.16,334.85C184.39,334.45 184.98,335.87 185.83,336.45C186.23,335.92 185.45,334.99 185.16,334.85Z" style="fill-rule:nonzero;"/>
        <path d="M185.01,308.36C185.01,309.25 186.72,308.54 185.83,307.64C185.52,307.44 184.91,307.95 185.01,308.36Z" style="fill-rule:nonzero;"/>
        <path d="M179.7,293.24C179.09,293.65 179.19,294.16 179.6,294.67C180.11,294.16 180.21,293.65 179.7,293.24Z" style="fill-rule:nonzero;"/>
        <path d="M180.85,301.26C181.32,301.97 181.42,300.96 180.62,299.88C180.73,300.41 180.59,300.86 180.85,301.26Z" style="fill-rule:nonzero;"/>
        <path d="M234.96,341.97C234.96,341.25 234.55,341.24 234.55,341.97C234.73,342.36 234.96,342.07 234.96,341.97Z" style="fill-rule:nonzero;"/>
        <path d="M192.88,282.41C192.68,282.21 192.87,282.42 192.68,282.61C192.78,282.72 192.88,282.74 192.88,282.41Z" style="fill-rule:nonzero;"/>
        <path d="M194.71,314.38C194.68,314.38 194.66,314.4 194.65,314.42C194.5,314.65 194.71,314.49 194.71,314.38Z" style="fill-rule:nonzero;"/>
        <path d="M177.04,319.19C177.04,319.29 177.04,319.39 177.24,319.29C177.14,319.29 177.04,319.29 177.04,319.19Z" style="fill-rule:nonzero;"/>
        <path d="M177.25,319.38C177.22,319.38 177.18,319.38 177.15,319.39C177.44,320.3 178.07,319.29 177.25,319.38Z" style="fill-rule:nonzero;"/>
        <path d="M187.36,306.28C187.33,306.4 187.56,306.52 187.56,306.11C187.45,306.17 187.37,306.22 187.36,306.28Z" style="fill-rule:nonzero;"/>
        <path d="M208.3,235.93C206.6,236.69 206.67,240.99 207.38,241.86C209.59,241.85 209.46,237.84 208.3,235.93Z" style="fill-rule:nonzero;"/>
        <path d="M222.19,296.61C224.25,295.58 222.35,289.99 220.56,288.53C222.14,297.06 221.91,296.61 222.19,296.61Z" style="fill-rule:nonzero;"/>
        <path d="M194.71,174.02C194.61,174.53 194.91,175.14 196.14,175.35C195.85,173.42 195.74,167.59 195.74,167.48C192.64,165.93 195.58,171 194.71,174.02Z" style="fill-rule:nonzero;"/>
        <path d="M220.76,318.3C220.36,318.55 221.09,323.37 222.6,323.07C222.53,321.84 222.85,316.98 220.76,318.3Z" style="fill-rule:nonzero;"/>
        <path d="M222.09,299.88C221.19,301.4 222.26,302.67 222.7,304.57C223.88,302.38 224.26,299.68 222.09,299.88Z" style="fill-rule:nonzero;"/>
        <path d="M217.7,244.92C217.6,246.18 216.16,247.04 217.19,248.5C219.3,248.96 219.93,245.95 217.7,244.92Z" style="fill-rule:nonzero;"/>
        <path d="M210.04,232.56C209.94,232.01 209.64,231.74 209.02,231.74C208.88,232.07 208.25,232.86 208.25,233.2C207.91,235.11 210.26,234.31 210.04,232.56Z" style="fill-rule:nonzero;"/>
        <path d="M209.92,256.59C209.72,256.89 209.43,256.99 209.73,257.49C210.14,255.81 211.01,256.99 211.57,254.43C211.9,252.9 209.35,252.96 209.92,256.59Z" style="fill-rule:nonzero;"/>
        <path d="M205.54,230.31C206.18,229.67 205.59,228.41 205.44,227.65C204.22,228.97 204.12,229.56 205.54,230.31Z" style="fill-rule:nonzero;"/>
        <path d="M221.89,325.72C220.81,324.91 220.35,327.12 222.2,327.35C222.63,326.7 222.56,326.1 221.89,325.72Z" style="fill-rule:nonzero;"/>
        <path d="M219.44,286.6C220.55,287.16 220.55,286.26 220.16,285.07C219.47,285.28 219.06,286.1 219.44,286.6Z" style="fill-rule:nonzero;"/>
        <path d="M218.21,282C218.11,282.3 218.39,283.56 219.33,282.61C218.85,281.88 218.7,281.51 218.21,282Z" style="fill-rule:nonzero;"/>
        <path d="M209.53,228.98C209.94,228.57 209.94,228.16 209.53,227.75C208.61,228.17 208.61,228.17 209.53,228.98Z" style="fill-rule:nonzero;"/>
        <path d="M209.63,259.83C208.45,260.82 210.23,261.53 210.09,260.41C210.06,260.22 209.92,260.03 209.63,259.83Z" style="fill-rule:nonzero;"/>
        <path d="M204.33,197.21C204.09,197.09 203.92,197.21 203.92,197.66C204.01,198.04 205.07,197.95 204.33,197.21Z" style="fill-rule:nonzero;"/>
        <path d="M200.13,168.61C200.8,168.61 200.12,168.11 199.93,168.3C199.72,168.51 199.82,168.61 200.13,168.61Z" style="fill-rule:nonzero;"/>
        <path d="M200.13,171.57C200.13,171.31 199.62,170.86 199.62,171.77C199.93,172.08 200.13,171.72 200.13,171.57Z" style="fill-rule:nonzero;"/>
        <path d="M205.31,224.11C205.43,223.99 205.59,223.86 205.24,223.68C205.06,223.86 205.19,224.23 205.31,224.11Z" style="fill-rule:nonzero;"/>
        <path d="M216.17,280.88C216.37,280.78 216.48,280.78 216.68,280.68C216.26,280.06 215.65,280.88 216.17,280.88Z" style="fill-rule:nonzero;"/>
        <path d="M204.83,200.48C204.83,200.38 204.93,200.17 205.03,199.97C204.93,199.97 204.83,199.87 204.83,199.77C204.42,200.18 204.72,200.38 204.83,200.48Z" style="fill-rule:nonzero;"/>
        <path d="M209.42,263.31L209.62,263.41C209.63,263.14 209.68,263.18 209.42,263.31Z" style="fill-rule:nonzero;"/>
        <path d="M170.61,286.8C165.12,286.8 160.8,288.94 161.21,290.17C163.56,290.17 165.91,289.28 168.26,288.84C169.28,288.65 169.99,287.93 170.61,286.8Z" style="fill-rule:nonzero;"/>
        <path d="M154.29,236.39C154.29,238.21 153.7,240.02 154.97,241.66C157.1,240.95 155.9,237.3 154.27,235.73C154.17,235.63 154.29,235.7 154.29,236.39Z" style="fill-rule:nonzero;"/>
        <path d="M136.7,207.43C136.9,208.45 136.6,209.58 138.03,210.49C138.21,206.6 135.87,200.87 136.7,207.43Z" style="fill-rule:nonzero;"/>
        <path d="M150.89,261.77C150.82,262.81 150.8,263.09 151.23,263.09C152.51,263.09 151.84,261.6 150.89,261.77Z" style="fill-rule:nonzero;"/>
        <path d="M139.34,181.78C139.37,180.93 139.6,180.29 138.74,179.34C138.8,179.53 139.2,183.11 139.34,181.78Z" style="fill-rule:nonzero;"/>
        <path d="M152.01,227.45C152.21,228.17 151.81,228.98 152.52,229.8C153.14,228.78 152.83,228.06 152.01,227.45Z" style="fill-rule:nonzero;"/>
        <path d="M153.85,233.48C153.95,232.56 153.95,232.56 153.34,231.95C153.34,232.86 153.34,232.86 153.85,233.48Z" style="fill-rule:nonzero;"/>
        <path d="M152.04,227.3C152.19,227.45 152.14,226.72 151.82,226.24C151.82,226.13 151.12,226.72 152.04,227.3Z" style="fill-rule:nonzero;"/>
        <path d="M149.46,259.73C150.14,260.07 149.98,259.93 150.18,259.73C149.71,259.27 149.56,259.63 149.46,259.73Z" style="fill-rule:nonzero;"/>
        <path d="M160.8,290.58C160.9,290.38 161,290.27 161.11,290.07C160.9,290.17 160.39,290.07 160.8,290.58Z" style="fill-rule:nonzero;"/>
        <path d="M145.37,189.35C145.43,189.38 145.38,189.36 145.57,189.45C145.45,189.19 145.51,189.21 145.37,189.35Z" style="fill-rule:nonzero;"/>
        <path d="M196.99,492.46C188.67,495.5 198.77,494.39 200.84,493.67C202.89,493.08 202.72,490.37 196.99,492.46Z" style="fill-rule:nonzero;"/>
        <path d="M212.59,496.63C211.01,498.21 213.24,499.01 214.74,496.02C213.71,495.4 213.2,496.12 212.59,496.63Z" style="fill-rule:nonzero;"/>
        <path d="M204.32,499.29C203.43,499.96 202.15,499.86 201.66,501.33C202.69,501.64 205.89,500.41 204.32,499.29Z" style="fill-rule:nonzero;"/>
        <path d="M207.9,501.35C207.91,501.5 207.94,501.67 207.99,501.84C211.38,498.71 207.74,499.25 207.9,501.35Z" style="fill-rule:nonzero;"/>
        <path d="M158.04,509.81C158.76,510.01 159.27,509.71 160.08,509.09C158.39,509.01 158.36,508.96 158.04,509.81Z" style="fill-rule:nonzero;"/>
        <path d="M191.57,493.95C191.07,493.95 190.78,494.46 190.32,494.69C191.59,495.54 192.77,494.03 191.57,493.95Z" style="fill-rule:nonzero;"/>
        <path d="M151.6,512.67C150.77,512.67 151.09,513.39 151.19,513.39C151.75,513.57 152.14,512.67 151.6,512.67Z" style="fill-rule:nonzero;"/>
        <path d="M193.6,506.54C193.8,506.54 194.02,506.74 194.21,506.64C194.88,506.42 194.25,505.24 193.6,506.54Z" style="fill-rule:nonzero;"/>
        <path d="M179.8,498.16C179.7,498.16 179.6,498.26 179.6,498.36C179.59,499 180.56,498.16 179.8,498.16Z" style="fill-rule:nonzero;"/>
        <path d="M197.57,503.58C197.18,503.58 197.22,503.89 197.37,503.89C197.95,503.88 197.92,503.69 197.57,503.58Z" style="fill-rule:nonzero;"/>
        <path d="M155.18,511.24C154.68,510.74 154.14,512.02 155.28,511.44C155.28,511.34 155.28,511.24 155.18,511.24Z" style="fill-rule:nonzero;"/>
        <path d="M186.13,496.12C186.51,496.12 186.56,496.16 186.13,496.02L186.13,496.12Z" style="fill-rule:nonzero;"/>
        <path d="M201.37,501.33C200.99,501.33 201.55,501.96 201.55,501.23C201.56,501.3 201.45,501.32 201.37,501.33Z" style="fill-rule:nonzero;"/>
        <path d="M122.69,529.42C120.28,531.83 118.51,541.21 117.89,545.87C117.13,551.61 111.81,554.49 114.53,554.49C117.55,553.99 119.53,547.07 120.14,541.88C121.39,531.22 125.08,529.42 122.69,529.42Z" style="fill-rule:nonzero;"/>
        <path d="M115.13,541.68C114.37,543.29 111.44,551.07 112.56,552.14C113.49,553.03 116.97,537.81 115.13,541.68Z" style="fill-rule:nonzero;"/>
        <path d="M121.47,524.62C120.88,522.24 122.78,518.99 122.49,516.14C120.69,518.62 118.76,523.14 121.47,524.62Z" style="fill-rule:nonzero;"/>
        <path d="M111.97,540.76C112.39,540.45 111.95,540.47 111.66,540.76C109.5,543.19 109.04,548.39 110.71,548.09C111.69,547.92 110.28,544.25 112.17,541.06C112.57,541.07 111.55,540.97 111.97,540.76Z" style="fill-rule:nonzero;"/>
        <path d="M123.92,526.46C123.98,526.29 124.11,525.71 124.13,525.64C124.04,525.92 123.75,526.11 123.92,526.46Z" style="fill-rule:nonzero;"/>
        <path d="M116.05,540.86C116.05,540.54 116.08,540.61 115.91,540.96C115.71,541.17 116.05,540.97 116.05,540.86Z" style="fill-rule:nonzero;"/>
        <path d="M120.19,562.15C121.68,568.8 121.39,574.48 122.91,573.41C125.64,571.49 118.66,555.3 120.19,562.15Z" style="fill-rule:nonzero;"/>
        <path d="M107.98,563.03C110.72,569.12 113.87,568.21 111.35,565.69C110.84,564.97 109.42,563.03 107.98,563.03Z" style="fill-rule:nonzero;"/>
        <path d="M119.97,560.02C119.86,559.51 119.36,559.58 119.52,560.23C119.57,560.38 120.17,560.96 119.97,560.02Z" style="fill-rule:nonzero;"/>
        <path d="M382.68,254.32C379.77,252.04 378.8,249.72 377.57,247.88C377.23,247.95 376.36,248.01 377.26,249.82C380.42,255.07 389.12,259.37 382.68,254.32Z" style="fill-rule:nonzero;"/>
        <path d="M428.55,260.45C428.77,259.26 429,258.33 429.47,255.55C427.62,255.68 427.53,255.24 427.53,259.74C427.53,260.21 427.91,260.55 428.55,260.45Z" style="fill-rule:nonzero;"/>
        <path d="M386.97,260.65C385.12,258.8 386.41,263.2 389.32,264.33C388.61,263.1 387.79,261.88 386.97,260.65Z" style="fill-rule:nonzero;"/>
        <path d="M391.47,268.52C391.57,268.62 391.67,268.83 391.78,269.03C392.75,269.03 391.69,268.06 391.47,268.52Z" style="fill-rule:nonzero;"/>
        <path d="M366.44,225.3C365.43,227.58 370.79,243.82 374.42,242.69C374.69,242.96 374.45,241.79 373.8,241.14C369.4,235.28 369.18,225.3 366.44,225.3Z" style="fill-rule:nonzero;"/>
        <path d="M385.11,256.94C385.36,257.1 385.13,256.87 385,256.74C384.82,256.56 384.99,256.88 385.11,256.94Z" style="fill-rule:nonzero;"/>
        <path d="M457.05,273.32C455.61,274.12 455.49,277.8 451.23,283.84C443.49,294.81 439.89,291.99 441.61,293.8C442.21,294.43 446.07,295.85 449.22,295.39C449.97,295.39 445.66,294.18 444.5,293.22C444.82,292.49 445.45,292.18 445.73,291.79C453.99,286.87 460.44,273.32 457.05,273.32Z" style="fill-rule:nonzero;"/>
        <path d="M460.52,277.4C456.82,282.78 460.24,278.9 453.06,287.1C456.5,288.25 460.18,282.91 461.44,279.03C461.77,278.25 461.3,277.75 460.52,277.4Z" style="fill-rule:nonzero;"/>
        <path d="M463.69,296.2C457.91,295.24 467.45,300.67 475.44,295.59C475.34,295.64 470.15,296.76 463.69,296.2Z" style="fill-rule:nonzero;"/>
        <path d="M418.75,302.37C418.57,302.32 418.27,302.85 418.35,302.85C419.98,307.69 425.06,311 423.13,309.07C418.84,302.13 419.48,302.57 418.75,302.37Z" style="fill-rule:nonzero;"/>
        <path d="M427.83,311.93C427.73,311.83 427.42,312.03 427.11,312.24C428.2,313.52 429.63,314.45 431.42,314.98C438.44,317.06 431.67,314.03 427.83,311.93Z" style="fill-rule:nonzero;"/>
        <path d="M466.55,314.59C468.21,314.38 468.45,314.65 471.76,314.28C470.99,313.12 468.44,313.08 466.55,314.59Z" style="fill-rule:nonzero;"/>
        <path d="M470.13,286.39C470.51,286.01 473.08,283.44 473.4,283.12C471.76,283.94 471.76,283.94 470.13,286.39Z" style="fill-rule:nonzero;"/>
        <path d="M499.94,282.41L499.94,282.41Z" style="fill-rule:nonzero;"/>
        <path d="M499.13,283.34C499.8,282.96 499.92,282.42 499.94,282.41C499.39,282.49 498.85,282.51 498.72,282.99C498.53,283.7 498.84,283.5 499.13,283.34Z" style="fill-rule:nonzero;"/>
        <path d="M500.54,281.81C500.14,281.84 499.9,282.02 499.94,282.41L499.94,282.47C499.95,282.56 500.54,282.2 500.54,281.81Z" style="fill-rule:nonzero;"/>
        <path d="M433.86,298.35C433.86,299.11 434.62,299.54 435.09,298.15C434.49,297.66 434.07,297.61 433.86,298.35Z" style="fill-rule:nonzero;"/>
        <path d="M474.32,282.32C474.61,282.03 475.44,281.88 475.54,281.08C474.75,281.08 474.31,281.48 474.32,282.32Z" style="fill-rule:nonzero;"/>
        <path d="M485.87,298.55L486.06,298.55C485.96,298.45 485.97,298.41 485.87,298.55Z" style="fill-rule:nonzero;"/>
        <path d="M484.02,299.28C484.33,299.12 484.68,299.09 485.03,299.01C487.07,298.56 484.59,298.13 484.02,299.28Z" style="fill-rule:nonzero;"/>
        <path d="M463.89,315.61C463.79,315.51 463.58,315.51 463.38,315.51C463.59,315.51 463.69,315.51 463.89,315.61Z" style="fill-rule:nonzero;"/>
        <path d="M466.04,314.54C465.93,314.56 465.81,314.61 465.71,314.73C465.24,315.33 467.15,314.36 466.04,314.54Z" style="fill-rule:nonzero;"/>
        <path d="M486.98,298.14C486.47,297.94 486.16,298.04 486.06,298.55C486.27,298.35 486.68,298.55 486.98,298.14Z" style="fill-rule:nonzero;"/>
        <path d="M483.82,288.03C483.67,288.18 483.67,288.16 483.92,288.03L483.82,288.03Z" style="fill-rule:nonzero;"/>
        <path d="M484.53,287.31C484.56,287.34 484.56,287.37 484.54,287.41C484.72,287.24 484.89,287.13 484.53,287.31Z" style="fill-rule:nonzero;"/>
        <path d="M484.54,287.41C484.51,287.44 484.48,287.47 484.45,287.51C483.18,288.39 484.44,287.74 484.54,287.41Z" style="fill-rule:nonzero;"/>
        <path d="M500.54,281.81C500.59,281.81 500.64,281.8 500.67,281.8C500.52,281.65 500.59,281.68 500.54,281.81Z" style="fill-rule:nonzero;"/>
        <path d="M473.6,283.23C473.6,283.2 473.63,283.03 473.64,282.98C473.83,282.79 474.05,282.57 474.21,282.41C474.22,282.43 474.25,282.45 474.32,282.51C474.32,282.28 474.32,282.33 474.32,282.32C474.24,282.38 474.19,282.38 474.21,282.41C473.9,282.57 473.71,282.73 473.63,282.99C473.46,283.16 473.47,283.03 473.6,283.23Z" style="fill-rule:nonzero;"/>
        <path d="M416.7,226.5C415.21,226.79 413.64,226.75 413.64,228.27C414.61,232.18 430.37,223.81 416.7,226.5Z" style="fill-rule:nonzero;"/>
        <path d="M450.21,232.15C448.04,232.47 446,232.72 444.07,233.78C442.28,234.38 446.05,236.86 450.21,232.15Z" style="fill-rule:nonzero;"/>
        <path d="M465.63,219.99C468.15,219.11 466.15,216.74 462.87,219.48C463.32,219.48 463.8,220.63 465.63,219.99Z" style="fill-rule:nonzero;"/>
        <path d="M476.87,224.28C477.99,223.16 478.4,221.73 478.1,219.89C476.47,221.14 475.12,224.28 476.87,224.28Z" style="fill-rule:nonzero;"/>
        <path d="M427.02,223.26C429.06,224.18 429.68,223.87 430.7,221.83C428.97,221.53 427.73,221.54 427.02,223.26Z" style="fill-rule:nonzero;"/>
        <path d="M479.93,189.04C479.5,187.47 480.17,183.29 478.7,184.75C478.19,185.98 478.29,187.1 478.7,188.33C478.81,188.53 479.12,188.53 479.93,189.04Z" style="fill-rule:nonzero;"/>
        <path d="M405.87,225.51C406.54,226.25 408.82,228.43 409.74,228.09C410.96,227.64 409.57,225.94 405.87,225.51Z" style="fill-rule:nonzero;"/>
        <path d="M481.77,164.42C480.14,165.34 480.03,165.44 480.65,168C480.75,166.67 482.08,165.85 481.77,164.42Z" style="fill-rule:nonzero;"/>
        <path d="M476.97,164.83C475.85,162.58 475.51,166.51 475.77,167.78C476.02,168.96 476.92,164.98 476.97,164.83Z" style="fill-rule:nonzero;"/>
        <path d="M479.52,193.84C479.85,192.7 480.01,191.94 479.42,190.88C479.01,192.72 479.01,192.72 479.52,193.84Z" style="fill-rule:nonzero;"/>
        <path d="M423.44,225.61C423.76,226.14 424.07,226.52 424.67,226.33C426.43,225.89 425.04,224.41 423.44,225.61Z" style="fill-rule:nonzero;"/>
        <path d="M466.04,212.23C465.43,211.51 465.43,211.51 464.61,211.82C465.22,212.54 465.22,212.54 466.04,212.23Z" style="fill-rule:nonzero;"/>
        <path d="M473.91,166.87C473.22,167.39 473.06,167.77 473.68,168.38C473.67,168.04 473.91,168.88 473.91,166.87Z" style="fill-rule:nonzero;"/>
        <path d="M479.12,170.65C479.59,170.65 479.43,170.04 479.43,169.93C478.51,170.39 478.78,170.65 479.12,170.65Z" style="fill-rule:nonzero;"/>
        <path d="M458.17,219.69C458.74,219.12 457.7,219.19 457.58,219.36C457.43,219.51 457.52,220.34 458.17,219.69Z" style="fill-rule:nonzero;"/>
        <path d="M460.73,219.38C460.14,218.79 460.12,219.12 459.61,219.38C460.23,219.59 460.23,219.58 460.73,219.38Z" style="fill-rule:nonzero;"/>
        <path d="M477.38,217.44C477.8,217.02 477.18,216.56 477.18,216.93C476.96,217.14 477.13,217.36 477.38,217.44Z" style="fill-rule:nonzero;"/>
        <path d="M478.09,213.76C477.67,213.34 477.91,213.76 477.37,213.76C477.66,214.04 477.55,214.04 478.09,213.76Z" style="fill-rule:nonzero;"/>
        <path d="M478.61,196.09L478.71,196.09C478.71,195.84 478.74,195.81 478.61,196.09Z" style="fill-rule:nonzero;"/>
        <path d="M451.23,231.43C451.55,231.11 451.8,231.36 450.92,230.92C450.52,231.13 450.74,231.6 451.23,231.43Z" style="fill-rule:nonzero;"/>
        <path d="M452.85,230.48C453.29,230.48 453.12,230.11 452.9,229.84C452.6,229.54 452.67,230.55 452.85,230.48Z" style="fill-rule:nonzero;"/>
        <path d="M507.49,326.88C504.95,323.38 506.11,338.37 508.63,339C509.3,339.24 509.77,338.38 509.05,337.67C506.22,334.85 508.65,328.73 507.49,326.88Z" style="fill-rule:nonzero;"/>
        <path d="M513.58,356.16C513.32,356.39 513.33,356.75 513.54,357.09C513.74,357.6 513.54,358.42 514.46,358.62C514.87,357.69 514.54,355.34 513.58,356.16Z" style="fill-rule:nonzero;"/>
        <path d="M513.44,364.34C514.16,362.71 514.16,362.71 513.64,361.48C513.1,362.48 512.85,363.35 513.44,364.34Z" style="fill-rule:nonzero;"/>
        <path d="M514.87,352.8C515.38,351.68 515.28,351.06 514.97,350.14C514.26,351.06 513.95,351.77 514.87,352.8Z" style="fill-rule:nonzero;"/>
        <path d="M510.07,340.33C509.35,341.15 509.97,341.45 510.99,341.76C510.99,340.85 510.67,340.53 510.07,340.33Z" style="fill-rule:nonzero;"/>
        <path d="M381.37,187.69C381.86,188.76 382.28,189.67 382.36,190.67C382.46,191.91 387.17,194.7 390.84,193.84L390.85,193.84C387.78,193.84 383.87,190.47 383.8,190.47C382.67,183.11 377.47,179.19 381.37,187.69Z" style="fill-rule:nonzero;"/>
        <path d="M365.62,202.73C365.62,203.19 365,204.36 365.82,204.36C366.44,203.24 366.44,203.24 365.62,202.73Z" style="fill-rule:nonzero;"/>
        <path d="M479.21,331.08C477.52,331.37 478.7,334.38 479.42,335.94C480.39,333.5 480.29,330.89 479.21,331.08Z" style="fill-rule:nonzero;"/>
        <path d="M481.57,342.38C481.06,343.2 481.06,343.81 482.08,344.22C482.69,343.19 482.49,342.68 481.57,342.38Z" style="fill-rule:nonzero;"/>
        <path d="M480.65,339.31C480.24,339.66 480.1,340.09 480.85,340.74C481.01,340.34 481.46,339.31 480.65,339.31Z" style="fill-rule:nonzero;"/>
        <path d="M503.74,377.62C502.92,380.17 503.43,382.73 503.02,385.38C504.25,383.54 504.25,381.29 504.86,379.15C504.96,378.54 504.86,377.82 503.74,377.62Z" style="fill-rule:nonzero;"/>
        <path d="M500.99,395.92C501.79,397.21 501.47,393.52 501.68,392.74C504.11,384.13 499.33,393.24 500.99,395.92Z" style="fill-rule:nonzero;"/>
        <path d="M420.48,176.99C418.58,176.51 420.54,178.24 419.25,180.57C419.16,180.66 419.4,181.18 419.45,181.29C420.99,180.05 420.07,178.31 420.48,176.99Z" style="fill-rule:nonzero;"/>
        <path d="M414.85,175.56C415.6,174.96 415.59,174.88 414.54,174.44C413.95,175.02 414.08,176.17 414.85,175.56Z" style="fill-rule:nonzero;"/>
        <path d="M485.86,383.03C485.76,380.99 487.19,379.05 486.06,376.29C484.43,378.95 484.22,380.99 485.86,383.03Z" style="fill-rule:nonzero;"/>
        <path d="M484.34,393.14C485.61,392 486.55,392.34 486.18,385.58C484.52,385.91 484.34,385.9 484.34,393.14Z" style="fill-rule:nonzero;"/>
        <path d="M693.13,158.29C693.45,156.66 694.15,155.13 693.33,153.28C692.61,151.65 693.64,149.6 692.61,147.87C692.31,147.36 692.79,146.46 691.79,146.34C690.38,150.87 694.8,157.86 689.85,153.8C687.74,152.07 685.79,150.06 683.37,148.73C683.09,149.66 683.78,150.3 684.43,150.95C693.52,160.03 692.17,153.95 690.87,164.84C690.87,165.25 690.77,165.76 690.15,165.76C687.09,162.7 687.09,162.7 684.74,162.08C691.59,171.97 690.26,164.34 690.26,173.62C686.11,181.45 689.17,174.76 685.05,187.1C683.41,192.01 683.99,190.27 682.19,190.27C679.54,190.27 677.21,191.08 675.65,193.23C683.8,191.19 684.01,190.66 681.58,198.44C676.84,200.59 676.74,200.4 676.11,201.23C675.92,201.42 677.51,201.81 679.53,200.69C682.22,199.47 682.22,202.41 683.92,198.14C687.07,190.23 688.79,179.23 691.28,174.33C692.39,172.16 690.71,170.48 693.13,158.29Z" style="fill-rule:nonzero;"/>
        <path d="M683.4,148.69C683.41,148.66 683.42,148.63 683.43,148.59C683.28,148.74 683.4,148.76 683.4,148.69Z" style="fill-rule:nonzero;"/>
        <path d="M729.81,174.64C728.35,183.41 724.5,188.14 724.5,200.38C724.5,209.85 726.56,190.59 728.79,183.01C729.76,179.72 732.45,173.02 730.53,170.15C729.7,171.88 730.03,173.31 729.81,174.64Z" style="fill-rule:nonzero;"/>
        <path d="M717.02,176.52C717.48,174.14 666.62,206.64 711.42,180.67C711.97,180.34 716.9,177.14 717.02,176.52Z" style="fill-rule:nonzero;"/>
        <path d="M700.54,162.99C697.68,165.85 715.28,158.94 716.01,158.61C713.57,158.61 701.38,161.75 700.54,162.99Z" style="fill-rule:nonzero;"/>
        <path d="M722.86,209.06C720.82,214.37 716.99,220.02 716.53,221.42C715.14,225.59 722.45,215.81 722.86,209.06Z" style="fill-rule:nonzero;"/>
        <path d="M733.18,136.84C733.18,132.51 733.45,130.8 732.57,128.46C730.98,128.96 730.74,129.27 730.73,130.32C730.72,131.06 731.74,136.84 733.18,136.84Z" style="fill-rule:nonzero;"/>
        <path d="M732.95,153.69C733.92,164.18 740.45,170.63 732.87,152.35C732.88,152.82 732.91,153.25 732.95,153.69Z" style="fill-rule:nonzero;"/>
        <path d="M731.75,143.17C730.59,144.92 734.82,148.6 736.96,150.01C737.48,150.36 737.94,149.97 738.19,149.4C736.14,147.36 734.3,144.91 731.75,143.17Z" style="fill-rule:nonzero;"/>
        <path d="M691.27,121.42C690.1,119.6 686.8,125.88 686.8,127.03C689.65,125.84 691.73,122.13 691.27,121.42Z" style="fill-rule:nonzero;"/>
        <path d="M696.61,138.17C693.7,140.27 693.4,140.61 692.23,143.46C693.85,142.87 694.05,142.56 696.61,138.17Z" style="fill-rule:nonzero;"/>
        <path d="M695.71,130.87C697.89,125.55 694.22,127.59 694.67,133.15C695.05,132.31 695.42,131.58 695.71,130.87Z" style="fill-rule:nonzero;"/>
        <path d="M693.03,190.37C691.49,190.47 690.04,191.42 688.94,192.52C690.99,192.37 692.13,191.61 693.03,190.37Z" style="fill-rule:nonzero;"/>
        <path d="M737.16,135.61C736.26,136.8 736.23,136.86 736.75,138.06C737.16,137.35 737.88,136.74 737.16,135.61Z" style="fill-rule:nonzero;"/>
        <path d="M698.02,202.2C697.65,202.7 698.04,201.38 695.18,203.55C685.8,208.73 685.65,207.91 686.02,208.46C687.08,210.07 700.31,201.56 701.41,200.18C700.38,200.17 699.02,200.82 698.02,202.2Z" style="fill-rule:nonzero;"/>
        <path d="M699.26,149.3C697.84,149.87 697.61,149.63 696.83,150.8C696.73,150.91 698.03,150.94 699.26,149.3Z" style="fill-rule:nonzero;"/>
        <path d="M698.34,122.33C698.77,122 698.81,121.6 698.34,121.31C697.93,121.62 697.83,122.03 698.34,122.33Z" style="fill-rule:nonzero;"/>
        <path d="M737.26,141.53C737.32,141.25 737.04,141.09 736.95,140.93C737.25,141.5 737.11,142.05 737.26,141.53Z" style="fill-rule:nonzero;"/>
        <path d="M702.22,199.35C702.72,199.35 703.17,199.16 703.45,198.75C703.35,198.79 702.22,199.12 702.22,199.35Z" style="fill-rule:nonzero;"/>
        <path d="M688.84,192.41C688.64,192.61 688.43,192.72 688.02,192.72C688.54,193.02 688.74,192.72 688.84,192.41Z" style="fill-rule:nonzero;"/>
        <path d="M703.55,198.85C703.68,198.58 703.72,198.61 703.45,198.75L703.55,198.85Z" style="fill-rule:nonzero;"/>
        <path d="M701.51,200.28C701.5,200.23 701.51,200.19 701.51,200.15C701.38,200.19 701.38,200.15 701.51,200.28Z" style="fill-rule:nonzero;"/>
        <path d="M702.04,199.38C702.19,199.48 702.33,199.27 702.04,199.38Z" style="fill-rule:nonzero;"/>
        <path d="M702.01,199.39C701.98,199.4 701.95,199.41 701.91,199.43C700.75,200.25 702.16,200.3 702.01,199.39Z" style="fill-rule:nonzero;"/>
        <path d="M702.01,199.39C702.02,199.39 702.03,199.38 702.04,199.38C702.03,199.37 702.02,199.37 702.01,199.36L702.01,199.39Z" style="fill-rule:nonzero;"/>
        <path d="M702.09,147.23C701.97,147.11 701.92,147.26 702.02,147.26C702.18,147.26 702.35,147.06 702.09,147.23Z" style="fill-rule:nonzero;"/>
        <path d="M736.86,140.82C736.99,140.95 736.94,140.95 737.06,140.82L736.86,140.82Z" style="fill-rule:nonzero;"/>
        <path d="M685.88,127.95C685.98,127.85 685.98,127.75 685.98,127.64C685.98,127.75 685.88,127.85 685.88,127.95Z" style="fill-rule:nonzero;"/>
        <path d="M686.7,126.93C686.29,127.01 686.13,127.28 686.11,127.62C686.44,127.56 686.7,127.3 686.7,126.93Z" style="fill-rule:nonzero;"/>
        <path d="M686.08,127.75C686.08,127.7 686.09,127.67 686.09,127.63C685.95,127.66 685.95,127.61 686.08,127.75Z" style="fill-rule:nonzero;"/>
        <path d="M701.54,147.29C700.33,147.46 700.12,148.68 700.07,148.58C701.21,148.54 702.52,147.15 701.54,147.29Z" style="fill-rule:nonzero;"/>
        <path d="M699.97,148.63C699.64,148.74 699.38,148.92 699.38,149.27C699.37,149.37 699.91,149.23 699.97,148.63Z" style="fill-rule:nonzero;"/>
        <path d="M683.07,148.36C683.72,148.82 682.93,148.17 682.82,148.07C682.82,148.08 682.79,148.05 683.07,148.36Z" style="fill-rule:nonzero;"/>
        <path d="M682.82,148.08C682.65,147.78 682.78,147.7 682.64,147.85C682.54,147.79 682.34,147.65 682.82,148.08Z" style="fill-rule:nonzero;"/>
        <path d="M675.36,193.33C675.46,193.33 675.56,193.23 675.56,193.13C675.46,193.23 675.46,193.23 675.36,193.33Z" style="fill-rule:nonzero;"/>
        <path d="M725,47.04C727.35,45.1 728.37,42.14 730.62,40.2C728.51,36.31 723.06,47.04 725,47.04Z" style="fill-rule:nonzero;"/>
        <path d="M726.01,65.34C725.91,70.81 726.12,63.69 730.63,59.41C732.53,58.11 726.15,57.65 726.01,65.34Z" style="fill-rule:nonzero;"/>
        <path d="M718.1,51.77C721.59,51.79 720.95,49.26 716.52,51.02C715.29,50.51 715.29,50.51 715.09,51.53C716.19,51.44 717.02,51.77 718.1,51.77Z" style="fill-rule:nonzero;"/>
        <path d="M723.78,50.83C722.68,51.83 722.5,53.05 722.36,54.37C722.36,54.48 723.78,52.62 723.78,50.83Z" style="fill-rule:nonzero;"/>
        <path d="M747.99,112.63C748.55,111.64 748.06,110.67 747.48,109.67C747.21,111.33 746.95,112.63 747.99,112.63Z" style="fill-rule:nonzero;"/>
        <path d="M711.62,97.1C710.5,97.71 710.09,98.53 710.9,99.65C712.13,99.04 712.13,98.22 711.62,97.1Z" style="fill-rule:nonzero;"/>
        <path d="M725.52,70.64C726.34,70.33 726.34,69.72 726.03,69.01C725.31,69.42 725.11,69.93 725.52,70.64Z" style="fill-rule:nonzero;"/>
        <path d="M713.04,93.51C713.12,91.99 711.96,92.91 711.96,93.81C711.96,95.89 713.02,93.94 713.04,93.51Z" style="fill-rule:nonzero;"/>
        <path d="M752.59,87.5C751.67,87.6 751.26,87.91 751.47,89.13C752.38,88.82 752.89,88.52 752.59,87.5Z" style="fill-rule:nonzero;"/>
        <path d="M712.75,67.1C712.13,67.04 711.71,68.15 712.24,68.6C712.34,68.5 713.9,67.22 712.75,67.1Z" style="fill-rule:nonzero;"/>
        <path d="M715.9,78.72C716.01,79.67 717.1,78.89 716.42,77.48C716.2,77.95 715.85,78.28 715.9,78.72Z" style="fill-rule:nonzero;"/>
        <path d="M740.12,51.44C740.56,51.62 741.03,51.59 741.03,50.88C740.83,49.8 739.3,51.02 740.12,51.44Z" style="fill-rule:nonzero;"/>
        <path d="M745.23,51.03C745.13,51.13 744.44,51.5 745.01,51.98C746,52.82 746.41,51.03 745.23,51.03Z" style="fill-rule:nonzero;"/>
        <path d="M747.07,106.91C746.66,107.83 746.66,107.83 747.07,108.65C747.48,107.83 747.48,107.83 747.07,106.91Z" style="fill-rule:nonzero;"/>
        <path d="M712.06,70.58C712,70.7 712.23,70.84 712.23,70.44C712.03,70.23 712.22,70.37 712.06,70.58Z" style="fill-rule:nonzero;"/>
        <path d="M720.71,58.59L720.51,58.59C720.51,58.99 720.46,58.97 720.71,58.59Z" style="fill-rule:nonzero;"/>
        <path d="M737.98,50.52C737.69,50.62 737.67,50.82 737.88,51.03C737.88,51.34 738.46,50.52 737.98,50.52Z" style="fill-rule:nonzero;"/>
        <path d="M748.5,91.99C748.73,92.11 748.9,91.7 748.81,91.48C748.27,91.48 748.07,91.64 748.5,91.99Z" style="fill-rule:nonzero;"/>
        <path d="M749.3,91.22C749.3,90.78 748.8,90.7 748.79,91.21C748.78,91.55 749.3,91.41 749.3,91.22Z" style="fill-rule:nonzero;"/>
        <path d="M725.33,74.67C725.33,74.76 725.19,74.75 725.11,74.73C725.21,75.04 725.42,75.04 725.42,74.83C725.3,74.61 725.34,74.63 725.33,74.67Z" style="fill-rule:nonzero;"/>
        <path d="M725,74.42C725,74.08 724.39,74.62 725.1,74.62C725,74.63 725.11,74.52 725,74.42Z" style="fill-rule:nonzero;"/>
        <path d="M722.35,54.4C722.04,54.81 722.35,54.5 722.35,54.4Z" style="fill-rule:nonzero;"/>
        <path d="M765.25,98.22C763.45,100.24 764.21,106.5 762.19,110.27C762.02,110.44 762.09,111.12 762.09,111.22C762.14,114.05 764.08,110.6 763.93,108.42C764.17,108.42 763.33,107.97 764.54,104.59C766.61,98.82 766.37,98.67 765.25,98.22Z" style="fill-rule:nonzero;"/>
        <path d="M769.95,99.24C769.62,100.25 770.15,101.49 771.07,102.41C771.38,94.9 772.71,91.27 770.56,91.89C769.79,94.98 770.79,96.66 769.95,99.24Z" style="fill-rule:nonzero;"/>
        <path d="M783.23,49.49C784.71,49.67 784.46,48.47 784.91,45.78C785.22,44.54 782.85,42.4 781.6,41.52C784.07,47.88 782.27,47.38 783.23,49.49Z" style="fill-rule:nonzero;"/>
        <path d="M766.13,70.33C766.33,70.49 765.48,66.86 765.46,66.75C765.35,66.24 764.95,66.14 764.44,66.03C763.74,68.36 763.83,68.68 766.13,70.33Z" style="fill-rule:nonzero;"/>
        <path d="M770.06,76.58C771.29,74.94 770.57,73.4 768.32,72.69C768.51,74 769.21,74.89 770.06,76.58Z" style="fill-rule:nonzero;"/>
        <path d="M764.13,86.48C761.78,87.6 761.78,87.6 762.29,89.65C763.7,89.06 764.13,88.01 764.13,86.48Z" style="fill-rule:nonzero;"/>
        <path d="M760.96,89.64C759.63,89.74 759.12,90.56 758.81,91.89C760.56,92.09 760.56,92.09 760.96,89.64Z" style="fill-rule:nonzero;"/>
        <path d="M752.38,159.62C753.71,158.7 753.71,158.7 752.58,157.07C751.77,157.88 751.36,158.7 752.38,159.62Z" style="fill-rule:nonzero;"/>
        <path d="M761.47,42.24C761.37,43.29 761.51,43.95 762.19,44.79C763.13,42.95 763.1,42.86 761.47,42.24Z" style="fill-rule:nonzero;"/>
        <path d="M768.42,72.58C768.36,72.56 768.3,72.55 768.25,72.53C768.33,72.74 768.31,72.69 768.42,72.58Z" style="fill-rule:nonzero;"/>
        <path d="M768.25,72.54C768.01,72.06 767.74,71.35 767.35,70.98C765.91,69.62 765.22,71.75 768.25,72.54Z" style="fill-rule:nonzero;"/>
        <path d="M754.32,148.69C754.96,147.93 755.49,147.51 754.73,146.75C753.92,147.67 753.92,147.67 754.32,148.69Z" style="fill-rule:nonzero;"/>
        <path d="M765.36,85.66C765.56,85.25 765.77,84.74 766.18,83.72C764.14,84.24 764.01,85.86 765.36,85.66Z" style="fill-rule:nonzero;"/>
        <path d="M753.2,155.84C754.02,155.23 753.81,154.51 753.2,153.9C752.59,154.51 752.48,155.12 753.2,155.84Z" style="fill-rule:nonzero;"/>
        <path d="M777.74,38.18C777.86,38 777.72,37.85 777.62,37.85C777.04,37.85 777.25,38.42 777.74,38.18Z" style="fill-rule:nonzero;"/>
        <path d="M753.81,150.94C753.81,151.18 754.5,151.4 754.01,150.43C753.92,150.63 753.81,150.83 753.81,150.94Z" style="fill-rule:nonzero;"/>
        <path d="M690.68,237.77C689.52,238.41 687.1,247.93 687.21,248.6C691.37,244.43 693.61,236.77 690.68,237.77Z" style="fill-rule:nonzero;"/>
        <path d="M664.84,255.13C665.86,254.11 666.07,253.9 666.27,252.58C667.57,246.99 664.84,246.15 664.84,255.13Z" style="fill-rule:nonzero;"/>
        <path d="M689.76,221.42C690.07,221.62 690.37,221.73 690.78,222.03C692.93,220.19 692.93,220.19 693.33,217.23C690.78,218.97 690.68,219.07 689.76,221.42Z" style="fill-rule:nonzero;"/>
        <path d="M683.53,252.89C685.57,251.77 685.57,251.77 685.68,249.93C684.59,250.61 683.9,251.64 683.53,252.89Z" style="fill-rule:nonzero;"/>
        <path d="M704.88,228.57C706.11,227.75 706.11,227.75 706,226.32C704.78,227.35 704.78,227.35 704.88,228.57Z" style="fill-rule:nonzero;"/>
        <path d="M701.3,234.19C701.97,233.67 702.33,233.44 702.73,232.25C701.41,233.27 701.41,233.27 701.3,234.19Z" style="fill-rule:nonzero;"/>
        <path d="M664.12,288.34C664.94,288.14 665.45,287.83 664.73,287.01C663.81,287.11 663.4,287.52 664.12,288.34Z" style="fill-rule:nonzero;"/>
        <path d="M681.18,256.36C681.67,256.56 681.91,256.12 682.1,255.64C681.69,255.65 681.18,255.54 681.18,256.36Z" style="fill-rule:nonzero;"/>
        <path d="M662.16,291.74C662.45,291.78 662.95,291.42 663.06,291.06C663.06,288.63 661.08,291.74 662.16,291.74Z" style="fill-rule:nonzero;"/>
        <path d="M675.87,261.37C675.26,261.17 674.85,261.37 674.75,261.98C675.89,262.66 676.14,261.37 675.87,261.37Z" style="fill-rule:nonzero;"/>
        <path d="M702.84,232.35C703.47,231.82 704.11,231.26 703.96,230.31C702.94,230.82 702.94,231.54 702.84,232.35Z" style="fill-rule:nonzero;"/>
        <path d="M665.96,285.07C665.75,285.28 666.16,286.31 666.88,284.87C666.47,284.45 666.16,284.56 665.96,285.07Z" style="fill-rule:nonzero;"/>
        <path d="M665.55,256.56C665.55,256.34 664.53,257.12 665.35,257.68C665.57,257.91 666.34,257.09 665.55,256.56Z" style="fill-rule:nonzero;"/>
        <path d="M666.98,261.37C666.98,261.37 667.29,261.17 667.49,261.06C667.49,260.01 665.85,260.24 666.98,261.37Z" style="fill-rule:nonzero;"/>
        <path d="M677.6,260.14C677.58,260.16 677.54,260.2 677.51,260.23C677.56,260.22 677.6,260.2 677.6,260.14Z" style="fill-rule:nonzero;"/>
        <path d="M677.51,260.23C677.48,260.24 677.44,260.24 677.4,260.24C677.3,260.24 677.16,260.59 677.51,260.23Z" style="fill-rule:nonzero;"/>
        <path d="M654.08,253.86C654.33,252.71 654.42,251.52 654.42,250.34C650,256.12 652.93,259.19 654.08,253.86Z" style="fill-rule:nonzero;"/>
        <path d="M652.75,259.73C652.55,261.47 653.34,262.49 654.82,263.41C654.82,260.91 653.24,255.38 652.75,259.73Z" style="fill-rule:nonzero;"/>
        <path d="M655.13,249.52C656.25,248.91 656.25,248.91 656.25,246.56C654.93,247.57 654.93,247.57 655.13,249.52Z" style="fill-rule:nonzero;"/>
        <path d="M657.89,245.74C658.2,244.62 659.01,244.21 658.4,242.98C657.38,243.69 657.07,244.31 657.89,245.74Z" style="fill-rule:nonzero;"/>
        <path d="M645.57,330.21C653.08,337.59 648.81,337.39 647.07,331.86C647.05,331.86 647.01,331.92 647,331.94C646.3,332.96 646.46,333.35 647.47,335.12C654.93,346.64 654.2,346.05 655.03,346.05C657.62,346.05 651.95,336.08 650.18,333.7C645.06,326.83 642.04,326.74 645.57,330.21ZM650.46,337.41C650.05,337.12 649.87,336.69 649.92,336.17C650.55,336.39 650.54,336.88 650.46,337.41Z" style="fill-rule:nonzero;"/>
        <path d="M637.06,309.03C636.83,308.58 638.37,308.59 635.92,304.89C630.78,304.35 633.9,303.45 635.51,310.41C636.63,315.27 640.97,317.97 639.61,314.6C639.12,313.41 639.35,315.53 637.06,309.03Z" style="fill-rule:nonzero;"/>
        <path d="M644.1,339.52C643.79,337.17 643.18,336.05 641.04,333.49C640.55,336.89 642.79,339.17 644.1,339.52Z" style="fill-rule:nonzero;"/>
        <path d="M631.63,307.54C631.53,309.58 632.55,311.22 634.49,312.95C634.29,310.3 633.27,308.77 631.63,307.54Z" style="fill-rule:nonzero;"/>
        <path d="M631.33,306.62C631,307.17 631.2,307.4 631.74,307.54C631.74,307.01 631.78,306.73 631.33,306.62Z" style="fill-rule:nonzero;"/>
    </g>
</svg>
