<?xml version="1.0" encoding="UTF-8" standalone="no"?>
<!DOCTYPE svg PUBLIC "-//W3C//DTD SVG 1.1//EN" "http://www.w3.org/Graphics/SVG/1.1/DTD/svg11.dtd">
<svg width="100%" height="100%" viewBox="0 0 900 600" version="1.1" xmlns="http://www.w3.org/2000/svg" xmlns:xlink="http://www.w3.org/1999/xlink" xml:space="preserve" xmlns:serif="http://www.serif.com/" style="fill-rule:evenodd;clip-rule:evenodd;stroke-linejoin:round;stroke-miterlimit:2;">
    <g>
        <path d="M336.11,519.69L336.01,519.59C336.08,519.76 335.99,519.74 336.11,519.69Z" style="fill-rule:nonzero;"/>
        <path d="M280.43,350.44C281.53,350.87 284.26,351.25 280.43,350.44Z" style="fill-rule:nonzero;"/>
        <path d="M280.39,350.43C280.4,350.44 280.4,350.44 280.43,350.44C280.41,350.43 280.41,350.43 280.39,350.42L280.39,350.43Z" style="fill-rule:nonzero;"/>
        <path d="M462.4,197.17C456.56,175.42 443.62,156.99 421.4,153.15C390.95,147.89 366.79,163.65 362.61,197.07C361.31,197.34 359.95,194.84 358.87,196.68C358.54,197.27 358.61,197.19 358.88,197.43C358.79,197.21 358.78,196.97 358.88,196.68C364.15,197.09 356.79,207.18 368.84,206.82C375.87,206.61 373.24,212.08 378.49,211.64C381.2,211.41 383.17,214.84 382.41,217.47C376.57,237.65 379.41,265.28 369.55,280.99C340.56,327.18 361.11,300.63 347.14,334.66C344.33,341.5 339.2,346.52 333.57,351.14C323.11,359.73 326.07,366.15 325.53,368.83C324.13,368.03 325.12,365.84 323.35,365.42C324.21,369.32 297.31,340.67 293.77,335.06C302.01,324.17 315.11,325.54 315.38,320.49C300.16,326.78 299.34,324.34 290.96,334.86C290.22,335.79 289.44,337.38 290.16,337.67C290.01,337.81 282.74,334.83 280.4,330.52C273.82,318.4 287.71,325.25 285.53,312.73C284.01,303.99 281.69,295.35 280.81,286.5C280.7,285.37 277.85,278.19 272.67,274.14C276.31,269.22 273.33,264.98 272.06,260.19C271.98,260.12 271.9,260.06 271.81,260C270.64,260.8 269.32,258.18 268.46,260.67C267.41,259.86 268.05,258.48 266.43,258.4C265.26,259.77 263.89,260.03 262.24,259.06C261.34,259.66 261.04,260.77 259.93,261.17C259.05,260.18 261.85,258.18 259.09,258.79C255.51,262.31 251.51,261.69 249.28,264.38C246.19,268.12 241.86,270.33 238.73,273.93C237.94,274.84 237.13,275.74 235.92,275.94C234.64,272.11 236.09,275.44 231.59,276.09C231.49,276.2 231.4,276.31 231.31,276.42C232.95,280.17 230.15,282.33 228.68,284.29C228.68,286.1 230.39,286.1 230.39,286.6C229.38,291.22 228.99,295.14 230.79,298.96C242.15,323.08 248.56,329.37 238.63,336.25C232.55,340.46 238.62,336.89 231.6,335.14C229.68,334.66 228.76,333.54 228.28,331.82C227.11,327.62 224.99,323.77 223.56,319.66C217.24,301.47 204.98,303.62 202.56,289.81C196.08,252.85 173.78,242.93 190.96,221.93C190.88,221.92 190.88,221.91 190.98,221.89C191.34,221.91 192.54,221.84 191.47,221.83C193.37,221.63 200.9,221.11 225.38,219.76C227.19,219.66 228.8,220.46 230.81,220.06C236.32,218.96 241.86,218.06 247.46,219.25L247.47,219.25C247.52,219.27 247.58,219.26 247.51,219.23C248.17,218.92 256.96,217.46 336.73,213.23C355.13,212.25 347.58,212.66 349.9,216.14C354.38,218.05 368.01,224.25 368.89,218.95C362.56,220.16 357.34,217.04 351.81,215.03C351.31,214.23 351.21,213.42 351.71,212.52C353.01,212.11 354.72,212.42 356.13,211.11C356.23,207.19 355.33,202.97 357.44,199.05C358.32,198.57 359.11,200.15 359.98,199.23C359.66,198.48 359.04,198.04 358.64,197.44C356.22,200.35 351.5,199.75 349.29,203.67C168.89,214.15 187.18,214.71 184.68,208.59C183.93,206.34 179.37,208.21 175.53,204.87C173.82,205.58 174.12,207.08 173.22,208.29C166.69,207.58 160.56,209.99 154.53,213.21C141.52,140.02 60.62,140 46.6,201.95C41.41,224.87 52.68,220.55 29.01,221.85C21.48,222.26 13.94,223.14 6.4,222.85C2.54,222.7 -2.67,227.82 1.59,232.77C4.93,236.65 0.2,234.49 45.11,232.87C46.75,236.15 47.38,252.65 61.19,269.95C84.52,299.18 149.52,303.04 155.35,232.26C157.26,234.87 159.87,233.56 162.18,234.57C162.38,239.29 163.98,243.82 164.39,248.64C170.59,321.74 180.08,300.82 185.9,330.35C190.92,355.81 196.39,362.93 203.59,370.85C221.03,390.02 216.97,395.13 229.32,410.75C231.04,412.92 233.48,418.84 234.65,420.7C240.12,429.38 238.73,433.05 239.37,436.88C240.81,439.76 240.48,433.45 240.48,431.15C247.13,442.04 243.94,454.69 253.24,465.72C250.73,467.63 249.02,469.54 248.82,472.96C250.63,471.05 250.83,468.53 253.44,467.63C256.85,479.54 256.44,480.42 258.77,479.69C259.76,478.99 259.32,479.12 258.77,478.99C258.54,464.12 251.12,461.89 248.52,447.63C246.27,435.26 242.47,429.58 235.96,417.28C245.15,413.47 247.25,407.2 249.23,408.64C251.84,402.92 256.16,397.99 256.16,391.76C257.12,391.19 258.16,391.87 258.78,391.07C258.78,390.01 256.78,390.33 256.36,388.75C257.44,379.63 243.87,347.56 241.09,343.14C243.87,345.76 252.96,360.64 270.83,365.84C275.1,367.08 295.67,370.89 298.67,368.45C304.01,364.11 306.57,356.09 298.27,346.04C295.91,343.18 294.25,339.91 291.24,336.79C295.86,337.18 296.19,345.76 319.98,366.04C322.37,368.08 325,370.47 325.71,373.38C326.91,378.3 327.52,383.43 327.52,388.45C327.52,391.37 329.63,394.69 326.11,397.7C331.96,396.53 326.53,414.43 329.73,426.24C332.29,435.67 333.58,445.42 337.47,454.48C339.19,458.49 338.77,462.92 340.08,467.04C340.18,467.45 339.98,468.55 338.57,468.25C338.87,467.25 339.07,466.04 337.16,465.44C336.18,468.52 332.24,465.73 329.52,467.35C318.53,473.89 298.67,473.91 295.45,476.8C283.06,474.02 282.11,480.91 279.77,477.4C281.43,472.81 283.93,468.6 284.9,463.86C282.06,468.31 281.11,473.59 278.27,478.3C272.01,477.72 265.93,480.37 259.6,479.17C258.21,480.12 258.67,482.05 255.16,480.81C253.1,489.31 247.88,487.42 249.23,497.89C249.33,498.09 250.04,499.3 248.43,499.5C247.73,502.02 246.02,504.23 245.72,507.04C247.53,505.73 248.13,503.62 249.64,501.71C251.65,506.03 250.44,510.35 249.74,514.57C252.29,514.57 250.29,508.68 254.46,519.8C232.58,517.71 237.09,498.17 236.77,496.08C235.12,485.36 229.33,436.92 229.33,413.47C223.51,417.83 229.26,436.35 229.33,448.34C229.38,456.79 229.51,465.33 232.14,473.57C233.04,476.38 231.85,479.29 232.44,482.31C232.46,482.42 235.31,496.83 234.65,501.51C233.24,511.56 240,508.74 238.67,526.84C237.27,545.88 213.44,580.58 212.34,584.23C214.15,585.43 214.83,584.21 215.46,583.12C227.32,562.61 241.09,540.25 241.09,518.1C242.9,518.3 243.6,519.71 244.81,520.21C248.43,519.91 251.64,522.22 255.06,522.02C258.17,527.75 263.14,531.85 266.01,537.5C267.21,539.86 271.55,541.75 273.45,545.54C275.26,549.16 277.67,551.97 281.19,554.18C286.62,557.6 287.59,564.01 284.21,569.46C277.49,580.29 281.79,579.9 276.67,578.71C269.7,577.09 268.64,578.79 255.87,586.95C258.18,588.41 260.31,587.76 266.42,583.03C273.3,577.7 282.53,580.86 275.87,584.24C273.19,585.6 270.45,586.58 267.53,586.85C260.77,587.48 265.24,590.36 276.17,586.55C276.77,587.46 275.06,589.67 278.18,589.67C278.99,583.24 283.91,578.21 285.42,571.28C285.52,571.18 286.13,572.29 286.83,571.28C289.76,567.07 289.88,560.31 286.73,556.31C284.34,553.28 282.29,549.9 279.19,547.47C272.51,542.25 290.19,525.1 291.95,524.15C299.27,520.19 313.39,515.2 318.48,521.74C326.53,532.08 329.08,548.62 327.63,551.69C324.45,558.45 323.21,565.87 320.8,572.9C316.98,574.11 315.98,577.73 314.07,580.74C316.96,584.12 314.32,589.63 318.19,588.18C319.59,583.82 317.48,576.4 320.4,574.81C323.91,572.6 324.52,569.08 325.02,565.36C335.7,559.67 347.24,562.54 350.75,556.42C354.22,550.37 354.16,549.29 349.64,543.86C352.26,541.44 357.08,543.05 359.09,538.73C349.24,540.64 340.6,546.07 330.25,544.96C326.81,523.96 322.08,522.09 346.83,524.56C349.2,524.56 358.91,530.81 360.2,538.23C361.32,542.72 370.26,534.75 373.26,533.21C385.23,536.93 386.79,534.68 411.15,535.92C418.16,536.28 413.45,538.42 417.78,539.04C405.96,557.82 411.3,577.16 412.65,584.77C412.94,586.38 414.06,586.48 415.77,585.17C410.65,569.69 411.75,554.31 419.39,539.44C420,538.63 421.4,539.54 422.71,538.23C419.99,538.54 419.19,536.22 417.58,535.32C411.24,531.79 401.41,534.58 377.78,532.51C401.76,517.4 413.6,484.28 431.35,493.92C439.29,498.24 446.42,503.58 453.26,509.4C459.56,514.76 457.93,524.7 457.28,525.68C452.81,534.03 455.01,547.55 451.15,551.31C450.13,552.3 452.72,555.59 446.02,573.62C444.75,577.05 443.81,580.55 443.11,584.17C444.61,585.07 445.5,584.46 445.92,582.96C445.95,582.86 455.28,549.72 455.97,542.26C457.55,525.27 463.8,519.19 457.08,510.3C454.04,506.75 442.15,497.05 435.17,493.82C401.47,478.22 412.27,480.26 391.65,474.93C379.62,471.82 379.33,469.17 375.97,468.8C362.65,465.88 363.33,464.46 362.4,465.08C358.08,466.58 353.25,465.98 348.33,467.79C355.57,470.43 363.48,461.41 350.54,477.04C357.82,474.09 356.31,467.18 362.7,466.69C363.81,466.99 364.71,468.1 366.02,468.9C362.2,472.92 357.38,475.13 353.16,478.25C359.09,476.04 364.92,473.62 368.94,468.7C373.26,470.61 378.08,470.31 381.6,474.03C374.77,478.25 366.63,479.96 359.29,483.38C393.34,476.33 371.22,466.37 423.41,490.52C409.02,492.68 395.35,516.48 383.41,525.69C381,523.18 378.39,520.97 375.27,519.46C375.99,521.5 380.57,523.02 382.41,526.7C375.37,529.31 369.54,533.93 362.81,537.55C360.27,530.78 356.14,527.34 350.35,523.48C354.25,523.9 370.83,525.51 373.77,520.97C360.9,524.49 348.14,520.67 335.98,522.78C334.83,521.35 336.14,520.64 336.01,519.8C334.78,520.13 334.56,521.49 333.47,522.18C328.74,522.98 328.74,522.98 325.83,526.2C324.52,523.39 324.22,520.27 322.01,517.96C323.51,517.06 324.72,519.17 326.73,517.76C324.02,516.06 321,515.96 318.29,514.85C319.6,517.36 322.51,518.97 322.51,522.99C318.69,515.55 312.96,515.23 306.43,516.66C299.97,518.07 292.11,518.28 286.03,526.41C283.24,530.14 279.3,533.04 277.19,537.46C273.97,534.85 272.27,531.23 269.15,528.92C270.86,532.64 273.78,535.55 276.59,538.67C276.38,540.17 275.48,541.48 275.58,543.19C248.2,515.8 252.66,507.27 251.46,495.35C250.8,488.8 254.77,490.01 256.79,482.79C258.9,481.59 261.11,481.79 263.72,481.89C261.71,484.1 257.9,482.39 256.79,485.91C260.41,486.11 263.72,484.91 266.94,484.3C270.66,483.6 274.48,484.2 278.2,483.4C285.04,481.93 283.38,477.55 294.08,479.48C305.55,481.55 299.52,479.72 300.31,482.5C307.25,482.9 314.79,480.59 321.72,485.01C320.82,480.69 320.01,480.39 307.25,480.19C308.76,478.48 312.68,479.99 312.48,476.17C313.48,476.27 314.19,476.88 314.89,477.38C314.48,477.89 314.08,478.29 313.68,478.79C321.66,480.79 328.81,467.47 333.88,469.85C336.19,470.94 338.6,470.55 340.91,470.65C341.21,471.46 339.91,471.46 340.51,472.26C342.72,472.36 344.33,470.75 346.34,470.15C348.05,472.06 345.94,472.96 344.73,474.97C347.54,473.57 349.35,472.26 350.86,470.45C349.96,469.24 349.45,471.05 348.65,470.45C347.84,467.23 346.23,466.33 341.41,466.53C343.25,455.91 333.86,448.45 331.46,418.09C331.11,413.66 332.67,417.53 330.56,394.57C328.09,367.67 324.43,362.01 335.48,353.06C347.66,343.2 354.51,322.99 356.18,308.74C356.47,306.3 364.19,291.85 369.35,285.12C382.37,268.13 376.82,250.82 379.4,246.63C382.29,246.11 386.75,263.37 423.62,260.5C444.92,258.84 463.52,241.03 463.52,208.94C469.85,207.73 475.98,208.34 482.11,207.33C484.24,204.35 486.1,201.63 484.02,199.09C480.56,194.87 480.6,196.12 462.4,197.17ZM3.68,231.17C1.57,227.95 1.67,227.35 5.19,224.94C10.08,228.29 7.51,231.94 3.68,231.17ZM8.81,231.98C19.34,222.47 -25.3,225.97 94.03,219.62C98.15,219.4 99.26,221.02 97.85,226.35C85.54,227.96 85.85,227.44 8.81,231.98ZM98.15,228.86C100.97,225.94 101.88,223.73 100.96,221.12C99.58,217.19 96.04,217.4 92.22,217.2C100.23,210.63 107.4,218.6 106.19,224.74C104.89,231.3 98.6,234.26 98.15,228.86ZM102.57,255.19C96.53,256.27 98.68,241.75 95.23,230.77C95.04,230.16 95.33,229.26 96.34,229.36C100.56,237.4 106.39,245.14 102.57,255.19ZM93.73,229.66C88.7,237.3 87.96,243.61 85.39,254.69C73.29,250.46 80.45,241.28 88.81,231.37C90.18,229.75 91.52,229.16 93.73,229.66ZM49.41,239.41C48.8,237 48,234.69 48.21,232.19C49.72,231.99 50.92,231.69 52.53,232.09C58.31,263.93 82.19,286.68 99.76,280.03C98.26,279.73 96.75,279.54 95.24,279.73C79.92,281.66 58.75,258.05 54.94,231.79C90.33,229.8 86.39,229.65 86.9,230.68C82.88,234 80.29,238.54 77.15,242.54C73.88,246.71 75.52,254.2 84.99,257.72C91.3,260.07 88.74,244.19 94.03,234.2C93.02,240.53 95.43,246.76 94.53,253.09C93.48,258.36 109.25,265.22 107.8,249.47C107.25,243.54 104.99,238.41 101.37,233.79C121.48,222.85 99.1,201.96 89.11,217.71C49.45,219.74 53.64,220.94 53.73,216.2C54.28,187.27 72.85,157.69 106.59,168.46C104.58,165.85 102.07,166.14 100.16,165.55C94.85,163.9 89.22,162.26 83.58,164.44C61.72,172.89 52.1,195.18 51.32,219.51C49.71,219.91 48.41,220.11 46.9,219.51C48.09,161.42 94.23,142.96 121.47,175.89C141.53,200.15 144.8,239.55 127.5,266.44C106.2,299.54 61.85,288.77 49.41,239.41ZM102.57,287.05C154.84,273.66 153.75,175.74 98.45,158.62C101.81,157.18 123.78,158.8 138.25,178.32C166.94,217.02 155.24,287.88 102.57,287.05ZM238.84,301.92C238.23,303.03 237.73,302.93 237.33,301.72C237.94,301.22 238.34,301.42 238.84,301.92ZM240.55,342.52C239.35,342.02 238.54,341.12 238.14,339.91C239.24,340.51 240.35,341.22 240.55,342.52ZM355.31,201.43C354.3,203.24 353.2,202.94 351.49,202.44C352.7,201.13 353.8,201.03 355.31,201.43ZM354.91,208.97C354.11,210.57 175.33,220.83 174.42,219.93C173.7,219.21 178.26,214.94 184.67,214.6C369.15,204.74 354.91,203.58 354.91,208.97ZM184.87,212.08C181.16,212.38 175.93,208.87 175.93,205.85C185.15,210.47 182.59,206.14 184.87,212.08ZM173.42,208.27C178.74,210.28 179.95,211.88 177.74,214.1C175.43,213.7 175.53,210.58 173.32,210.08C173.72,209.58 172.42,208.97 173.42,208.27ZM173.32,210.17C173.02,212.38 175.23,213.79 175.43,216C173.09,217.67 173.81,218.48 169.8,209.37C171.51,208.67 172.11,210.58 173.32,210.17ZM167.99,209.06C169.2,211.58 170.3,213.79 171.41,216.2C170.8,217.91 169.23,218.6 168.29,217.21C166.63,214.76 163.26,213.49 163.06,209.77C164.77,209.47 166.28,209.27 167.99,209.06ZM163.57,215.49C160.45,216.7 158.94,214.39 156.33,212.88C159.71,213.47 162.79,210.07 163.57,215.49ZM155.43,219.21C154.5,211.81 161.09,221.23 165.38,216.2C166.28,218.31 168.4,218.61 169.3,220.52C163,218.19 155.43,225.01 155.43,219.21ZM245.47,356.99C244.82,367.22 259.53,380.24 250.7,400C248.73,404.41 238.98,414.07 234.22,414.07C233.31,411.26 230.61,409.64 229.09,407.24C220.09,393.05 227.81,398.47 207.08,372.07C183.52,342.07 196.24,337.16 182.66,313.48C170.71,292.63 170.21,266.8 165.98,238.81C164.75,230.67 159.2,232.15 157.74,231.17C156.53,228.96 154.92,226.75 156.25,223.93C157.65,224.03 156.25,225.14 157.05,225.54C159.26,224.43 160.87,222.02 163.68,222.02C171.92,222.02 180.16,222.62 188.6,222.12C188.15,225.29 176.97,231.71 184.38,248.95C188.45,258.43 196.24,270.14 196.54,276.29C197.04,286.64 202.97,295.28 205.28,305.23C206.19,304.23 205.58,302.62 206.99,302.22C217.32,311.53 217.75,310.21 227.59,334.08C230.15,340.3 235.63,338.97 238.54,344.03C243.39,352.48 245.66,354.02 245.47,356.99ZM292.89,340.6C294.6,345.49 301.9,351.48 301.53,359.8C301.11,369.16 293.79,366.17 282.54,365.03C270.28,363.78 259.92,358.6 250.98,349.96C252.19,349.86 253.2,349.63 254.2,349.76C270.32,351.82 276.37,349.31 280.23,350.36C280.27,350.38 280.32,350.4 280.37,350.42C279.99,349.28 278.76,349.89 254.51,348.65C254.41,347.55 256.52,347.65 255.92,346.24C253.51,346.54 251.8,348.04 249.59,349.05C245.88,345.94 242.66,342.42 239.73,338.41C241.43,336.8 242.44,334.69 244.55,334.29C247.66,326.75 243.44,320.22 242.94,312.68C243.34,312.17 246.15,311.47 243.74,309.36C238.31,311.58 234.39,306.55 236,302.43C236.9,303.24 235.69,304.75 236.9,305.55C240.11,302.99 235.98,308.16 241.93,307.66C242.53,305.65 240.02,303.84 241.83,302.03C243.74,303.74 244.65,306.55 247.16,307.96C248.27,306.15 247.65,304.65 247.06,303.34C243.76,296 248.65,289.34 249.87,277.41C252.93,274.76 263.18,269.87 266.55,272.18C269.62,274.28 277.91,280.4 277.91,284.24C277.61,285.24 275.7,284.74 276.1,286.35C277.21,287.55 278.61,286.15 279.92,286.85C279.82,287.75 280.43,288.86 279.42,289.76C276.93,290.95 276.07,286.95 274.66,287.85C276.07,292.01 281.47,293.88 279.73,298.9C281.24,299.2 281.94,299.9 282.14,301.21C284.94,319.7 286.25,317.75 279.73,321.51C277.43,322.84 276.83,324.62 277.32,327.44C278.45,333.97 283.76,336.27 288.37,339.3C289.45,340.01 289.96,339.36 290.18,338.09C291.68,338.19 292.5,339.49 292.89,340.6ZM348.38,556.18C350.59,548.14 349.48,549.35 346.57,544.22C351.89,546.53 352.5,551.65 348.38,556.18ZM330.38,546.73C347.72,545.49 343.91,544.04 346.06,546.73C349.59,551.15 346.86,557.92 341.24,558.89C336.31,559.74 331.19,559.7 326.17,562.31C328.18,556.88 331.39,552.46 330.38,546.73ZM316.53,476.08C316.33,474.77 316.43,473.87 318.34,474.87C317.74,475.78 317.23,475.98 316.53,476.08ZM345.26,468.44C343.85,468.04 342.85,468.64 341.44,467.84C343.05,467.03 344.05,466.93 345.26,468.44ZM364.46,204.85C365.06,203.64 364.16,202.24 364.96,200.93C368.02,201.63 368.38,206.15 364.46,204.85ZM375.61,208.87C374.61,207.16 372.9,206.46 371.49,205.25C370.79,205.45 369.98,205.25 369.08,204.85C370.18,202.95 368.59,201.74 367.98,200.25C374.04,200.92 370.85,202.99 371.39,205.16C373.64,203.23 373.99,204.1 399.73,202.35C407.42,201.83 407.2,207.79 404.46,208.57C403.43,208.86 403.9,207.21 402.04,207.46C399.76,207.76 400.61,207.46 375.61,208.87ZM379.83,243.23C380.94,235.7 382.04,227.86 383.45,220.12C385.24,210.29 379.14,211.41 384.25,210.77C390.84,209.95 397.46,210.66 403.96,208.78C404.01,209.35 403.79,209.9 404.35,210.27C411.96,208.13 409.02,199.73 403.04,199.92C399.43,200.03 395.81,200.22 392.09,200.42C393.8,191.37 403.05,187.85 409.88,193.28C419.65,201.04 417.19,218.79 405.76,220.41C397.13,221.63 393.83,212.61 392.29,212.17C390.18,214.05 396.94,224.27 410.38,221.52C425.01,218.53 424.58,190.65 405.86,188.86C397.38,188.05 392.49,192.48 389.78,200.62C383.55,200.01 377.12,203.03 370.89,199.41C369.99,199 368.58,198.7 367.88,200.21C366.77,199.8 365.67,199.4 364.56,198.9C364.56,163.46 402.13,139.66 431.19,164.03C458.12,186.62 458.18,232.96 431.99,251.57C415.01,263.63 392.49,258.61 379.83,243.23ZM414.91,195.8C420.23,200.83 420.53,210.88 415.11,216.8C418.83,209.17 418.53,202.43 414.91,195.8ZM426.16,257.2C470.35,234.59 457.93,164.48 413.9,153.29C473.48,155.17 476.55,254.61 426.16,257.2ZM463.65,205.65C463.35,203.34 463.05,201.33 462.74,198.92C478.04,197.83 482.15,197.11 482.44,200.93C482.79,205.52 478.99,204.78 463.65,205.65Z" style="fill-rule:nonzero;"/>
        <path d="M784.28,84.73C784.33,84.71 784.36,84.74 784.32,84.65C784.31,84.68 784.3,84.7 784.28,84.73Z" style="fill-rule:nonzero;"/>
        <path d="M892.86,48.78C887.82,49.75 882.71,50.49 877.58,50.99C876.07,47.47 874.89,44.15 873.36,41.04C860.83,15.56 837.14,5.7 812.46,12.4C786.38,19.48 781.24,36.89 777.79,59.33C776.68,59.73 775.98,58.43 774.57,59.03C772.25,60.73 770.95,64.55 767.23,64.05C760.68,68.59 787.11,63.97 690.55,77.82C690.35,72.5 689.35,67.67 688.04,62.95C686.58,57.68 688.14,49.21 678.49,41.04C682.11,36.31 679.1,31.89 677.89,27.27C676.58,27.47 675.28,25.56 674.07,27.57C673.47,26.87 673.57,25.76 672.46,25.16C671.26,25.86 670.05,27.67 668.24,25.66C667.44,26.46 666.73,27.27 666.03,27.97C664.68,27.43 666.79,26.35 665.63,24.95C664.02,25.76 663.52,27.66 661.71,28.67C658.79,28.47 656.4,30 654.17,32.09C636.55,48.6 643.51,41.22 640.6,41.44C639.99,42.35 638.99,43.05 637.08,42.75C638.39,46.57 636.68,49.18 634.37,51.09C634.37,52.8 635.58,53.1 636.08,53.7C632.96,69.31 641.47,70.15 644.72,83.85C644.01,85.06 642.71,84.88 641.6,85.06C599.95,91.76 604.57,91.37 601.8,85.96C600.43,83.91 597.03,86.04 592.35,83.05C590.74,83.86 591.35,85.36 590.24,86.57C583.71,86.47 577.88,89.48 572.15,93.3C549.12,13.96 457.36,31.14 463.22,110.28C420.24,116.6 422.17,114.01 419.7,120.13C418.48,123.16 420.69,125.42 423.42,127.37C430.26,127.46 433.41,126.57 465.13,122.04C468.77,134.09 472.86,145.32 482.92,156.41C509.68,185.9 574.69,181.97 574.69,112.88C577.21,114.38 579.72,113.28 582.13,113.48C580.72,111.67 578.61,112.38 576.74,111.55C575.64,110.35 575.03,108.64 574.13,107.23C577.9,104.21 577.92,102.47 584.38,101.7C591,100.91 597.86,101.55 604.38,99.99C605.18,99.8 605.98,99.59 606.99,100.09C605.08,102.8 604.44,106.09 602.47,108.73C601.65,109.83 601.87,111.04 602.07,112.15C604.95,128.14 602.07,125.18 606.99,139.08C614.8,161.13 612.16,167.59 614.53,170.23C615.94,167.62 614.23,165 614.43,162.49C614.77,158.13 612.75,149.23 612.12,146.31C614.33,145.1 616.04,142.99 618.95,142.29C615.93,140.89 614.63,141.19 611.31,143.8C607.39,132.45 615.93,117.27 623.97,118.68C624.87,117.98 622.95,117.14 624.27,116.47C632.37,112.36 630.46,117.38 637.23,110.24C638.94,111.75 640.65,112.96 640.95,115.67C648.01,118.61 659.79,146.11 657.83,154.26C647.07,149.96 644.06,145.72 635.42,141.9C634.02,141.28 633.51,139.89 632.61,138.78C629.48,142.58 635.52,143.43 636.23,147.02C638.81,160.1 621.75,162.06 627.19,166.22C630.9,164.71 632.71,160.79 636.13,158.18C635.32,162.5 634.62,166.42 634.72,170.44C634.81,174.05 625.09,187.7 614.22,192.15C608.8,194.37 603.67,197.38 597.34,197.38C575.81,163.23 589.26,176.56 585.58,123.21C585.35,119.89 585.48,116.38 584.17,113.26C582.77,113.46 583.17,114.47 583.27,115.17C586.43,137.63 582.5,164.29 582.77,169.04C583.71,185.44 593.16,192.85 594.63,196.48C595.85,199.48 598.15,199.9 600.66,199.29C644.86,188.53 626.7,159.6 632.82,202.71C635.1,218.75 632.9,226.03 636.54,239.09C637.52,242.62 636.64,246.53 637.24,250.25C638.25,256.48 639.9,262.61 639.05,269.14C637.52,280.97 659.08,278.68 620.06,343.71C613.32,354.94 619.4,347.54 588.8,356.37C576.95,359.79 557.16,362.88 555.74,366.32C554.37,369.65 552.13,372.65 551.12,376.17C552.53,379.59 556.15,379.79 558.76,381.4C557.55,378.89 554.64,378.79 552.83,376.98C554.03,373.76 556.35,370.95 557.25,367.53C557.34,367.07 557.95,367.03 558.36,366.95C558.26,363.71 577.32,360.94 578.26,360.8C584.57,359.84 573.57,360.77 612.13,352.56C613.03,352.37 613.93,352.06 615.14,351.76C616.45,354.17 618.96,352.06 621.07,354.07C620.11,350.44 616.19,354.27 621.77,345.63C630.93,331.44 648.71,299.52 645.49,283.02C650.32,284.73 654.84,286.64 659.26,287.24C665.39,293.97 669.22,301.98 675.84,307.74C676.86,308.63 677.67,309.94 678.35,311.16C684.61,322.4 691.75,317.26 690.61,331.56C690.61,332.94 687.48,335.05 684.08,344.83C678.35,342.22 673.53,343.53 668.7,346.84C660.47,352.48 651.31,356.58 642.47,361.21C638.25,363.42 634.33,362.52 630.41,361.51C629.4,360.01 630.01,358.2 628.7,356.89C625.66,368.02 644.98,357.05 564.28,381.91C577.81,381.68 587.36,374.37 599.45,374.07C600.25,374.05 601.05,373.56 601.76,373.27C611.15,369.42 621.16,367.47 630.8,364.53C634.84,363.3 635.51,366.95 642.06,364.03C655.72,357.95 654.78,356.01 659.25,356.39C661.86,356.61 664.38,355.69 666.89,354.98C671.51,353.68 676.54,353.97 681.46,350.96C679.55,356.99 679.96,362.51 680.86,367.84C681.76,373.17 680.35,378.89 683.57,384.02C685.36,380.01 683.36,381.08 683.17,354.98C683.14,350.89 685.51,347.07 690.13,338.14C688.75,336.98 690.71,336.17 690.57,337.62C692.85,336.1 695.39,329.35 692.53,322.19C693.74,323.25 694.31,325.11 696.53,325.64C695.02,323.02 693.72,320.71 692.41,318.2C690.84,319.24 692.13,320.44 692.12,321.39C690.17,320.19 689.24,318.11 688,316.21C691.54,317.46 689.53,315.7 686.67,313.28C686.52,314.7 687.34,315.08 683.25,311.67C682.45,306.14 684.04,301.8 688.28,298.2C690.18,296.58 691.5,294.19 693.2,292.27C698.81,285.94 711.36,282.57 718.83,283.73C726.04,284.85 736.73,308.51 731.29,320.31C728.69,325.95 728.07,332.17 725.66,337.8C725.56,338.1 725.76,338.51 725.86,339.11C729.48,337 729.07,333.28 730.08,330.27C737.63,325.05 751.86,327.94 755.71,321.23C759.09,315.34 759.02,314.2 754.6,308.97C756.96,306.45 762.73,308.06 763.85,303.95C754.3,305.86 745.56,311.19 735.31,310.08C731.41,289.04 727.48,287.3 751.79,289.68C754.28,289.68 763.98,296.18 765.26,303.65C765.26,307.76 777.72,298.6 778.33,298.42C795.5,303.66 820.84,297.67 820.84,303.75C823.15,304.05 825.26,304.25 827.37,303.65C824.55,303.75 824.05,300.83 821.94,300.03C813.95,297.01 809.14,299.85 783.25,297.42C796.97,288.16 800.11,281.49 806.97,274.1C824.66,255.03 828.59,248.84 857.92,274.4C862.97,278.8 863.95,285.15 861.84,290.98C859.83,296.51 859.51,302.03 858.52,307.66C856.04,321.74 856.09,311.57 855.4,321.43C854.96,327.8 852.96,330.97 847.06,350.98C841.96,368.29 844.51,368.95 842.64,380.53C842.34,382.38 844.73,384.23 845.45,378.22C847.51,360.97 845.85,364.04 849.27,352.79C849.82,350.99 861.2,314.56 861.03,304.95C860.87,295.9 868.75,285.19 862.04,275.5C854.53,264.65 813.94,244.37 796.72,240.02C784.65,236.97 786.99,235.57 780.04,233.59C776.3,232.52 772.44,231.88 768.88,230.37C768.38,230.16 767.77,229.77 767.17,229.97C762.16,231.63 754.22,231.15 753.3,232.99C754.41,235.1 758.88,233.18 762.34,233.39C760.36,237.89 756.4,240.82 756.91,241.33C759.09,241.58 762.42,235.53 763.94,233.29C767.89,232.22 766.68,231.56 770.87,234.7C766.58,238.78 757.49,243.94 757.73,243.94C763.75,241.73 769.67,239.32 773.88,234C775.89,235.91 778.31,235.67 780.41,236.21C782.63,236.78 784.33,238.42 786.84,239.63C781.11,242.54 775.69,244.67 770.06,246.46C748.87,253.19 775.47,247.93 787.35,240.63C802.52,242.04 814.79,249.88 827.85,256.01C809.43,262.06 802.78,280.27 787.95,291.49C785.94,288.57 783.32,287.07 780.51,285.66C782.52,287.87 785.33,289.27 787.24,292.49C779.7,294.8 774.17,300.12 767.24,303.14C764.83,296.71 760.61,292.29 755.08,289.07C763.02,289.98 770.75,290.78 778.09,286.76C769.04,290.28 759.62,286.61 750.35,288.27C747.24,288.83 744.02,287.97 740.8,287.87C739.9,287.77 739.7,287.27 739.5,286.57C740.68,286.47 740.79,285.43 741.21,284.56C740.14,284.85 739.59,285.62 739.5,286.56C734.78,289.99 734.41,286.53 732.16,290.28C729.41,295.78 730.65,286.85 726.53,283.95C725.92,283.85 726.23,283.65 726.33,283.55C726.79,281.5 728.79,285.01 731.35,283.25C728.54,281.54 725.52,281.34 723.01,280.03C722.53,280.99 722.06,280.23 724.95,283C726.08,284.08 725.9,283.96 725.97,283.86C726.33,285.75 727.67,286.64 727.44,289.47C723.18,279.26 714.41,281.14 702.92,284.14C697.99,285.43 694.1,287.98 690.86,292.18C687.98,295.92 684.13,298.92 681.92,303.34C678.9,300.63 677.3,297.21 674.28,295.2C675.88,298.92 678.9,301.53 681.31,304.65C680.9,306.16 680.5,307.56 680.1,308.87C675.37,304.85 671.2,300.7 668.54,295.3C668,294.21 658.91,286.61 656.88,272.08C656.75,271.18 655.15,257.99 657.78,255.2C662.57,250.11 659.63,246.2 667.93,247.86C662.7,249.97 662.4,250.17 661.8,251.38C662.21,251.78 662.61,251.78 663.11,251.68C683.15,247.64 683.37,251.19 688.03,246.65C692.42,242.37 701.13,246.47 706.12,245.85C706.12,246.85 704.32,246.55 705.22,248.16C712.16,247.96 719.5,246.55 726.53,249.67C722.91,243.94 717.09,246.25 711.86,245.55C713.97,244.34 717.09,244.95 717.49,241.83C718.6,241.93 719.72,243.02 720.51,242.23C720.61,242.33 720.7,242.34 720.27,242.46C718.36,244.3 717.98,243.98 719.37,244.44C724.43,244.51 728.77,240.16 731.17,238.22C737.11,233.41 734.74,235.55 745.84,236.01C746.04,236.92 744.44,236.61 745.14,237.62C747.45,237.62 749.16,236.01 751.27,235.41C752.48,236.82 751.07,238.02 750.57,239.73C752.78,238.32 754.38,237.32 755.59,235.71C754.39,234.24 753.28,238.22 753.28,233.82C753.17,233.78 753.13,233.85 753.28,233.7C753.28,233.87 753.26,233.8 753.37,233.84C753.03,232.99 748.69,230.51 745.34,232.29C750.35,227.27 734.47,203.25 735.99,178.92C736.38,172.69 736.19,166.46 735.19,159.83C737.5,160.14 739.71,160.14 741.62,160.84C755.85,166.07 763.56,160.49 782.62,160.64C791.52,160.71 791.53,160.46 794.58,153.4C799.76,141.4 802.92,126.69 802.92,111.09C805.16,111.25 816.28,121.31 834.07,118.53C842.62,117.19 859.55,118.89 872.16,98.53C880.31,85.38 879.9,74.51 879.9,62.55C899.34,57.94 896.51,62.5 899.2,57.12C902.04,51.42 896.71,48.04 892.86,48.78ZM662.32,354.38C665.74,352.17 668.86,350.27 671.77,348.15C681.24,341.24 693.81,350.33 662.32,354.38ZM752.47,322.12C754.68,317.9 754.88,313.88 751.16,310.26C757.09,312.27 756.48,318.5 752.47,322.12ZM749.05,310.67C749.95,311.77 750.64,312.48 751.26,313.48C753.33,316.82 751.16,323.53 747.54,324.33C742.02,325.55 736.29,325.24 730.56,328.05C732.87,322.62 735.78,318.2 734.78,312.48C739.6,312.18 744.43,312.48 749.05,310.67ZM750.05,233.98C748.34,233.98 747.34,234.28 746.23,233.68C747.34,232.57 748.34,232.87 750.05,233.98ZM777.99,64.75C778.8,65.05 779,65.56 778.89,66.86C778.29,65.96 777.59,65.55 777.99,64.75ZM770.35,64.76C769.65,67.22 767.64,66.92 767.64,65.56C768.54,65.25 769.45,65.05 770.35,64.76ZM644.54,68.47C643.93,68.47 644.13,69.47 643.33,68.87C642.2,68.5 643.35,67.04 644.54,68.47ZM641.32,68.67C642.22,69.88 641.42,71.09 642.12,71.89C643.13,72.3 643.13,70.89 643.93,71.19C644.13,74.01 644.13,74.01 648.15,74.31C646.94,72.2 646.24,70.39 646.84,68.58C649.15,69.99 649.66,73.3 652.47,74.41C653.48,72.6 652.87,71.1 652.27,69.79C649.08,62.85 653.71,56.2 655.18,43.86C658.44,41.21 669.06,36.54 671.66,38.53C676.11,41.94 681.21,44.76 683.22,50.89C683.12,51.69 681.11,51.19 681.31,52.8C682.32,54.1 683.92,52.6 685.13,53.3C685.33,54.4 685.63,55.51 684.93,56.11C682.32,57.42 681.92,54.2 679.91,53.9C680.82,58.32 686.75,59.93 685.14,64.95C689.56,68.47 687.85,73.39 688.66,78.03C641.29,84.56 658.19,83.5 651.37,78.63C651.06,80.34 652.57,81.54 652.37,83.05C649.69,84.54 648.05,81.71 648.05,79.73C648.96,78.72 651.47,78.22 649.26,75.91C643.57,78.23 640.04,72.98 641.32,68.67ZM592.88,84.85C602.59,88.65 598.96,84.05 602.02,90.18C598,91.78 596.09,87.86 593.18,86.86C592.38,86.66 591.98,85.86 592.88,84.85ZM590.57,87.36C599.04,90.12 596.82,94.56 593.29,91.68C592.18,90.78 591.88,89.07 590.17,89.07C590.67,88.67 589.36,87.86 590.57,87.36ZM580.82,94.3C581.02,94.61 581.02,95.01 581.02,95.31C578.91,96.01 578.91,96.01 574.49,93.6C576.98,93.73 578.92,90.5 580.82,94.3ZM422.84,124.35C420.93,121.44 420.93,121.14 424.05,118.12C430.6,122.94 425.16,125.07 422.84,124.35ZM428.27,125.05C431.29,121.93 428.47,120.02 428.07,117.71C433.93,116.74 447.38,114.89 460.53,112.99C508.72,106.03 521.62,101.8 516.61,111.18C511.71,113.76 516.9,112.2 428.27,125.05ZM518.81,117.32C518.31,116.21 517.1,115.51 517.1,113.9C519.82,112.09 520.19,109.28 519.21,106.47C517.77,102.36 513.89,103.25 510.47,103.15C520.18,92 532.42,112.92 518.81,117.32ZM519.01,120.83C523.8,126.55 526.52,138.36 522.83,140.53C520.36,140.46 520.31,140.07 517.3,128.27C516.71,125.96 515.99,123.65 515.99,121.34C515.99,119.12 513.58,117.21 514.99,114.2C516.7,116.81 517.51,119.03 519.01,120.83ZM512.68,115.6C508.16,123.64 507.96,132.59 506.55,141.43C495.04,136.32 499.04,130.35 508.56,116.71C509.56,115.29 510.97,115.1 512.68,115.6ZM492.88,163.25C478.48,152.81 469.32,133.39 467.45,122.45C467.98,121.85 470.8,121.02 471.77,121.75C474.13,128.26 476.71,138.13 484.63,147.68C511.17,179.67 530.89,162.01 521.92,164.76C494.72,173.09 471.92,124.65 474.69,120.84C485.05,119.34 495.5,117.83 505.95,116.32C501.23,120.94 499.12,127.07 495.6,132.6C496.87,143.67 509.62,147.47 509.97,141.64C510.42,134.2 511.32,125.61 513.39,120.33C512.58,126.76 516.1,132.69 515.6,139.32C514.9,143.54 528.77,149.16 528.77,137.71C528.77,130.38 525.65,124.45 520.83,119.12C540.42,106.21 514.56,87.33 507.46,104.15C472.91,108.91 472.18,109.63 472.18,108.27C467.61,85.38 487.05,48.24 507.56,52.39C509.82,52.85 517.89,52.75 514.7,51.69C493.28,42.5 468.14,70.41 469.58,104.55C469.65,106.15 470.08,107.86 469.58,109.57C468.17,109.77 466.97,110.27 465.36,109.57C459.97,55.71 504.84,27.83 535.19,59.33C585.02,111.08 543.74,200.13 492.88,163.25ZM527.55,171.68C579.3,151.84 565.15,51.55 509.16,44.06C578.76,34.68 599.25,165.11 527.55,171.68ZM574,101.84C573.09,100.23 573.29,98.83 572.99,97.32C576.77,95.61 578.8,100.14 583.14,96.11C584.44,97.82 586.35,98.22 587.86,99.73C582.93,98.42 578.71,101.94 574,101.84ZM586.05,96.61C584.14,94.31 580.72,93.3 580.22,89.88C581.52,88.97 583.13,89.07 584.94,88.47C586.35,91.08 587.65,93.39 589.16,95.5C588.36,97.11 587.05,97.82 586.05,96.61ZM586.75,88.77C588.16,87.76 588.96,89.57 590.17,89.17C590.37,91.38 592.48,92.79 593.08,95C590.45,96.5 591.91,97.61 586.75,88.77ZM592.28,98.72C591.35,97.8 596.5,93.45 601.53,92.69C787.84,64.53 769.21,67.69 771.36,71.99C771.06,72.9 770.74,73.9 769.65,73.9C589.05,100.13 593.17,99.61 592.28,98.72ZM698.89,105.44C701.02,106.29 701.48,111.58 704.02,114.69C708.19,119.78 707.14,124.94 706.03,130.37C703.62,132.18 701,132.53 698.19,132.18C685.68,130.62 671.64,131.52 655.48,115.9C658.9,114.95 668.4,117.25 678.49,116.2C682.31,115.8 685.82,115.8 689.04,118.01C684.72,114.7 679.59,115.59 674.67,115.3C651.14,113.91 661.51,114.81 660.3,111.98C657.99,112.38 656.18,113.88 653.97,114.89C649.75,112.48 646.33,108.97 642.11,105.85C646.43,102.03 650.75,99.02 651.96,93.49C662.31,91.78 672.66,90.18 683.92,88.87C680.81,92.49 683.92,95.91 682.61,98.91C686.32,99.61 684.72,104.13 687.33,105.44C689.5,103.87 682.47,99.96 698.89,105.44ZM635.09,109.08C633.33,111.43 631.08,112.63 628.36,113.2C623.35,114.25 619.6,117.59 615.5,120.23C611.15,123.03 610.48,127.52 608.36,135.41C605.55,131.48 606.14,122.57 604.84,118.02C602.83,110.98 605.44,105.35 608.86,99.44C622.03,97.83 635.09,95.11 648.66,94.21C646.42,103.16 640.4,101.99 635.09,109.08ZM635.79,170.89C638.99,159.23 637.69,149.69 638.7,147.67C639.4,147.97 640.11,148.37 640.51,149.38C639.61,151.29 640.01,153.5 639.51,156.01C641.92,154.6 641.92,152.49 642.22,150.68C644.94,150.98 647.76,150.68 649.66,152.19C652.18,154.19 654.89,155.5 658.01,155.93C657.4,161.65 655.5,166.48 652.38,170.8C649.57,168.99 651.38,165.87 649.67,163.16C648.26,167.08 649.06,170.49 648.66,173.91C645.84,176.22 643.13,178.93 639.01,180.04C635.91,174.62 634.72,174.78 635.79,170.89ZM710.85,242.32C711.15,241.92 711.36,241.42 712.16,242.12C711.66,242.63 711.36,242.73 710.85,242.32ZM720.3,241.92C720.9,241.42 720.7,240.11 722.21,240.11C722.41,241.82 721.51,242.02 720.3,241.92ZM741.34,218.28C745.58,228.48 742.19,231.12 745.26,232.14C744.46,232.54 744.96,234.35 743.25,234.05C743.15,232.95 743.95,231.54 741.74,231.14C741,233.94 736.84,231.56 734.1,233.15C721.55,240.43 704,239.21 700.23,242.6C688.3,239.92 687.21,246.52 684.45,243.3C684.55,242.3 685.35,241.5 685.05,240.49C683.64,241.3 684.05,243.21 682.94,243.71C674.9,244.81 667.06,244.71 659.52,246.12C658.62,248.03 658.41,250.23 656.91,251.65C653.87,254.54 653.02,257.98 653.59,262C654.25,266.69 649.74,268.01 650.47,272.75C651.78,271.04 652.78,269.13 654.19,267.42C655.9,272.05 655,276.37 653.89,280.79C656.48,280.44 654.65,274.53 658.81,285.61C649.76,285.24 640.64,277.97 641.02,268.63C641.37,260.09 636.71,227.12 636.7,227.02C636.01,220.69 636.5,214.36 635.59,208.03C631.51,179.73 635.23,179.29 632.47,179.29C632.47,177.91 633.55,176.94 634.58,176.17C641.34,192.64 643.12,190.44 643.12,195.16C643.12,197.68 643.32,200.09 644.33,202.7C645.73,200.59 644.63,198.58 645.03,195.97C652.35,212.35 648.69,219.15 656.59,229.54C658.86,232.53 653.67,231.82 653.27,238.79C655.18,236.68 655.28,233.86 657.89,232.96C659.66,236.8 659.92,241.17 661.99,245.09C662.28,245.64 664.12,243.95 663.52,242.21C661.84,237.31 661.41,231.96 658.6,227.54C650.47,214.75 658.42,216.57 640.31,182.62C649.93,178.73 651.22,172.42 654.08,174.18C653.78,169.02 657.65,171.88 660.61,157.1C661.61,156.7 662.62,157.3 663.32,156.6C662.92,155.39 661.21,155.8 661.11,154.49C657.23,126.07 644.52,112.83 640.33,107.12C648.59,116.7 651.11,116.47 660.73,123.71C668.32,129.42 674.69,133.48 699.42,134.76C707.11,135.16 713.07,127.64 706.76,114.96C705.26,111.94 703.65,109.03 701.84,105.51C707.36,108.63 721.03,130.84 730.58,144.81C729.88,147.02 727.47,148.53 727.87,151.34C730.18,151.08 730.76,149 730.99,149.23C730.43,150.08 734.12,159.97 730.89,163.2C736.54,162.8 730.9,181.78 734.41,192.75C737.09,201.11 737.92,210.05 741.34,218.28ZM800.7,115.8C797.72,146.55 792.05,149.78 790.85,157.71C776.53,160.36 781.27,156.92 768.44,159.62C756.89,162.06 745.73,160.33 734.78,156.58C732.88,149.39 732.89,148.52 731.09,149.79C731.47,149.15 731.43,149.28 731.84,149.14C731.56,149.08 731.25,149.07 730.87,149.15C736.9,143.12 737,134.98 738.61,126.74C736.4,127.14 737.3,124.73 735.19,123.72C736.89,130.85 734.28,136.68 731.87,142.21C724.13,132.46 719.01,121.01 711.07,111.46C711.17,110.25 712.68,109.85 712.68,108.34C709.07,108.95 712.27,113.1 705.95,105.43C709.36,105.03 712.07,103.23 714.99,103.62C727.72,105.33 730.67,109.56 744.03,122.92C744.63,122.82 745.03,122.02 746.04,122.12C763.78,122.93 768.37,132.96 774.68,134.88C773.57,132.27 770.96,131.16 769.05,129.25C785.04,106.22 781.38,111.49 784.63,89.55C784.82,88.28 785.15,84.45 784.27,84.75C780.35,93.09 783.04,97.44 779.5,108.85C777.19,116.29 770.15,120.61 767.94,128.05C761.5,123.72 754.48,121.22 746.73,120.71C741.97,120.4 742.87,117.09 730.15,107.04C715.36,95.36 707.19,108.4 696.28,102.72C687.42,98.11 688.43,105.37 685.23,94.08C684.15,90.28 684.19,90.08 687.64,88.45C688.53,88.03 689.45,87.87 690.35,87.75C787.44,75.03 761.66,76.66 766.63,80.21C770.34,81.53 785.39,86.96 785.93,81.52C779.5,83.13 773.97,80.62 768.34,78.91C766.68,75.6 769.57,77.18 772.56,74.99C771.57,71.85 770.96,64.98 772.66,62.63C773.56,62.23 774.37,63.74 775.17,62.53C775.27,61.63 773.26,61.53 774.37,60.22C778.39,60.22 774.36,65.22 779.19,68.56C783.32,71.42 787.4,66.56 791.05,71.98C791.74,73 792.86,73.49 794.67,73.19C797.08,72.79 799.79,75.9 799.39,78.21C797.22,90.68 801.46,107.96 800.7,115.8ZM780.09,63.65C782.81,63.55 782.91,65.46 783.31,67.07C782.51,67.77 781.81,67.77 780.4,67.77C780.91,66.26 780,65.05 780.09,63.65ZM802.62,107.78C799.86,77.45 801.66,75.99 798.4,72.3C804.66,70.26 820.36,70.73 819.4,66.87C779.01,72.58 798.82,70.92 785.23,67.37C784.72,63.75 784.02,63.05 780,61.64C778.87,5.15 843.3,-3.84 863.01,46.66C882.68,97.09 837.21,136.05 802.62,107.78ZM845.32,115C886.48,92.27 872.75,21.83 826.53,12.2C884.08,9.92 895.93,106.7 845.32,115ZM879.19,59.93C878.79,57.62 878.09,55.61 878.09,53.3C892.04,51.42 896.83,49.19 897.49,53.6C898.49,58.39 893.67,57.74 879.19,59.93Z" style="fill-rule:nonzero;"/>
        <path d="M558.31,367.04L558.41,366.94C558.29,366.98 558.31,366.92 558.31,367.04Z" style="fill-rule:nonzero;"/>
        <path d="M816.18,344.52C820.79,361.59 818.29,381.93 819.9,384.02C821.51,383.82 821.61,382.62 821.61,381.51C821.61,344.7 822.09,360.46 817.79,338.5C814.84,323.43 822.58,310.29 823.32,304.73C818.57,307.58 811.46,327.06 816.18,344.52Z" style="fill-rule:nonzero;"/>
        <path d="M718.6,346.34C723.48,352.76 716.84,380.99 715.69,382.82C719,381.51 719.8,379.3 720.31,376.89C722.11,368.34 723.05,359.7 723.22,350.96C723.51,336.2 725.87,341.77 724.23,338.5C721.62,340.81 720.21,343.53 718.6,346.34Z" style="fill-rule:nonzero;"/>
        <path d="M341.44,510.55C343.05,506.43 342.04,502.31 342.35,498.09C332.2,499.4 322.35,497.08 312.4,498.09C321.75,499.19 330.99,500.7 340.64,500.3C341.34,501.21 340.94,502.41 340.64,503.92C334.2,503.52 327.77,504.32 321.34,504.12C323.25,505.83 332.79,507.44 339.93,507.74C341.24,508.24 340.43,509.75 341.44,510.55Z" style="fill-rule:nonzero;"/>
        <path d="M380.43,485.23C369.08,488.54 357.62,491.76 347.47,498.29C358.12,493.16 369.58,490.05 380.43,485.23Z" style="fill-rule:nonzero;"/>
        <path d="M353.1,514.37C358.32,511.96 363.45,511.35 367.97,508.84C364.86,508.64 362.14,510.55 359.13,510.65C363.45,508.04 368.48,507.03 372.7,504.32C366.16,506.13 359.73,508.44 353.3,511.15C355.01,512.56 356.11,510.55 357.52,511.25C356.52,512.46 354.51,512.36 353.1,514.37Z" style="fill-rule:nonzero;"/>
        <path d="M643.63,337.6C642.09,341.15 645.57,342.61 647.95,343.93C652.28,340.21 652.38,339.71 650.46,335.49C648.03,334.95 645.24,333.89 643.63,337.6ZM648.56,337C649.86,337.9 650.47,339.01 649.16,340.72C648.16,339.31 647.15,339.41 646.45,340.92C643.3,338.4 646.55,335.6 648.56,337Z" style="fill-rule:nonzero;"/>
        <path d="M246.25,567.02C245.14,567.21 243.95,566.92 242.85,567.52C240.04,568.82 239.84,571.32 241.93,574.63C240.96,574.43 239.9,574.06 238.94,574.06C235.62,574.06 233.26,578.69 236.42,581.18C237.43,581.98 238.53,582.49 239.64,583.09C243.85,579.38 244.06,578.87 242.07,574.69C246.78,576.39 249.2,573.48 248.48,569.83C248.21,568.47 246.88,567.95 246.25,567.02ZM240.75,579.99C239.85,578.08 238.84,578.98 237.94,580.09C234.98,577.14 238.35,575.02 240.05,576.17C241.36,577.05 242.06,578.18 240.75,579.99ZM244.77,573.46C241.89,573.26 241.04,569.28 244.57,568.74C248.1,569.55 247.44,573.64 244.77,573.46Z" style="fill-rule:nonzero;"/>
        <path d="M334.91,513.56C330.19,511.15 325.06,512.46 320.44,511.15C325.06,515.67 332.3,517.08 334.91,513.56Z" style="fill-rule:nonzero;"/>
        <path d="M338.82,492.25C331.79,485.26 330.16,487.45 333.09,488.43C333.9,489.74 335.71,490.04 336.51,491.75C328.17,493.16 319.93,491.85 311.89,493.66C320.74,493.76 329.58,494.37 338.82,492.25Z" style="fill-rule:nonzero;"/>
        <path d="M346.06,505.12C346.16,505.42 346.26,505.82 346.26,506.13C356.61,504.12 366.86,501.7 376.91,498.79C377.66,497.29 377.73,497.98 346.06,505.12Z" style="fill-rule:nonzero;"/>
        <path d="M841.91,322.42C840,327.75 840,332.88 837.49,337.7C842.11,335.39 844.72,326.95 841.91,322.42Z" style="fill-rule:nonzero;"/>
        <path d="M433.2,572.25C437.62,569.14 439.63,563.21 438.22,557.28C435.38,558.89 437.41,558.68 433.2,572.25Z" style="fill-rule:nonzero;"/>
        <path d="M246.18,566.93C246.2,566.95 246.26,567.03 246.28,567.03L246.18,566.93Z" style="fill-rule:nonzero;"/>
        <path d="M650.47,335.49C650.47,335.49 650.44,335.42 650.37,335.39L650.47,335.49Z" style="fill-rule:nonzero;"/>
        <path d="M651.17,328.15C648.5,329.58 648.17,332.03 650.42,335.41C659.82,338.88 658.04,324.48 651.17,328.15ZM655.29,331.87C655.51,334.97 651.1,335.07 650.67,331.87C650.27,328.89 655.06,328.63 655.29,331.87Z" style="fill-rule:nonzero;"/>
        <path d="M248.59,560.3C246.68,562.1 244.57,563.81 246.18,566.83C249.87,567.2 249.43,566.89 250.7,569.44C252.61,568.23 250.6,566.73 251.4,565.32C252.21,564.32 253.11,566.53 254.42,565.12C253.11,562.91 250.7,561.81 248.59,560.3ZM247.79,565.12C247.18,564.11 247.79,563.41 248.69,562.71C251.27,563.83 249.07,565.89 247.79,565.12Z" style="fill-rule:nonzero;"/>
        <path d="M662.73,325.84C661.42,323.63 659.01,322.53 656.9,321.02C654.99,322.93 652.98,324.64 654.59,327.55C658.28,327.92 657.84,327.61 659.11,330.16C661.02,328.96 659.01,327.45 659.92,325.84C660.52,325.04 661.42,327.35 662.73,325.84ZM655.59,325.94C656.3,324.33 656.3,322.72 658.4,324.43C658,325.44 657.6,326.24 655.59,325.94Z" style="fill-rule:nonzero;"/>
        <path d="M353.3,481.6C361.54,478.79 369.48,475.27 377.72,472.86C374.4,472.06 361.44,476.68 353.3,481.6Z" style="fill-rule:nonzero;"/>
        <path d="M304.77,563.41C302.11,558.1 300.34,556.25 301.05,552.46C301.31,551.04 301.25,549.64 299.44,549.04C297.93,555.07 300.05,561.5 304.77,563.41Z" style="fill-rule:nonzero;"/>
        <path d="M703.62,314.89C701.66,327.07 710.94,331.81 708.24,327.25C702.53,317.58 707.93,315.65 703.62,314.89Z" style="fill-rule:nonzero;"/>
        <path d="M313.11,506.22C334.8,511.12 331.47,510.82 331.9,509.54C326.17,505.82 319.34,507.23 313.11,506.22Z" style="fill-rule:nonzero;"/>
        <path d="M723.22,324.73C724.36,320.69 725.63,316.59 722.41,312.67C723.82,317.8 722.61,322.42 720,326.84C722.32,326.74 722.69,326.63 723.22,324.73Z" style="fill-rule:nonzero;"/>
        <path d="M430.28,496.68C437.02,499.79 444.15,502.41 444.15,511.75C447.36,506.33 440.43,498.69 430.28,496.68Z" style="fill-rule:nonzero;"/>
        <path d="M254.52,502.61C257.33,495.87 264.07,494.57 268.99,490.85C263.17,492.45 250.64,498.52 254.52,502.61Z" style="fill-rule:nonzero;"/>
        <path d="M317.73,546.93C319.34,552.05 318.13,556.68 315.42,561.3C320.11,561.75 321.82,550.88 317.73,546.93Z" style="fill-rule:nonzero;"/>
        <path d="M847.43,289.26C841.1,290.07 834.77,290.77 828.34,291.07C834.87,292.17 841.21,291.77 847.43,289.26Z" style="fill-rule:nonzero;"/>
        <path d="M443.05,523.51C436.61,524.21 430.08,525.12 423.65,525.32C430.28,526.43 436.71,526.02 443.05,523.51Z" style="fill-rule:nonzero;"/>
        <path d="M241.15,462.21C242.15,457.49 242.25,452.76 241.65,448.14C239.85,448.14 240.45,446.03 241.15,462.21Z" style="fill-rule:nonzero;"/>
        <path d="M297.33,485.42C280.49,483.99 283.54,483.47 283.06,484.92C287.78,486.02 292.51,486.32 297.33,485.42Z" style="fill-rule:nonzero;"/>
        <path d="M835.08,262.43C839.7,264.64 844.52,266.55 847.54,270.97C845.43,265.34 840.3,263.73 835.08,262.43Z" style="fill-rule:nonzero;"/>
        <path d="M248.39,499.59C248.19,499.19 248.09,498.79 247.79,497.98C244.57,500.6 242.76,503.91 240.45,507.33C243.34,507.67 245.1,501.51 248.39,499.59Z" style="fill-rule:nonzero;"/>
        <path d="M296.03,570.65C297.43,573.66 300.35,575.37 302.56,577.68C301.35,574.47 299.54,571.75 296.03,570.65Z" style="fill-rule:nonzero;"/>
        <path d="M582.13,365.54C577.5,366.44 572.88,367.45 568.66,369.76C573.28,368.95 577.81,367.55 582.13,365.54Z" style="fill-rule:nonzero;"/>
        <path d="M700.81,336.19C700.91,338 702.92,340.51 707.34,343.73C706.13,340.01 704.12,337.7 700.81,336.19Z" style="fill-rule:nonzero;"/>
        <path d="M255.52,511.95C257.33,510.95 256.73,508.84 258.33,508.63C257.53,506.12 259.94,504.41 260.34,501.7C257.03,504.51 256.02,507.73 255.52,511.95Z" style="fill-rule:nonzero;"/>
        <path d="M338.12,528.14C334.81,527.63 332.09,528.24 329.18,528.74C331.09,530.45 333.8,530.35 338.12,528.14Z" style="fill-rule:nonzero;"/>
        <path d="M733.87,294.89C736.69,296.39 739.3,295.19 741.91,294.19C739.2,293.38 736.48,294.09 733.87,294.89Z" style="fill-rule:nonzero;"/>
        <path d="M292.6,560.4C290.79,557.59 289.09,555.27 287.88,552.56C287.18,555.77 288.59,558.18 292.6,560.4Z" style="fill-rule:nonzero;"/>
        <path d="M748.85,294.38C748.75,298 749.95,301.32 751.16,304.53C750.96,300.91 750.06,297.6 748.85,294.38Z" style="fill-rule:nonzero;"/>
        <path d="M709.45,293.48C710.75,295.99 712.16,298.3 714.27,300.31C714.17,298.1 712.06,294.99 709.45,293.48Z" style="fill-rule:nonzero;"/>
        <path d="M359.93,496.48C356.31,497.28 352.89,498.59 349.88,500.7C353.5,500 356.72,498.29 359.93,496.48Z" style="fill-rule:nonzero;"/>
        <path d="M613.69,128.36C615.9,125.95 617.91,123.84 620.32,121.33C616.8,122.64 614.69,124.95 613.69,128.36Z" style="fill-rule:nonzero;"/>
        <path d="M451.39,521.4C454.2,520.8 455.81,519.59 456.31,517.28C454.5,518.29 452.29,518.79 451.39,521.4Z" style="fill-rule:nonzero;"/>
        <path d="M831.36,383.53L831.36,376.9C829.55,379.01 829.35,381.22 831.36,383.53Z" style="fill-rule:nonzero;"/>
        <path d="M344.55,528.74C344.35,528.84 344.05,528.84 343.85,528.94C348.13,547.27 345.89,532.88 344.55,528.74Z" style="fill-rule:nonzero;"/>
        <path d="M305.17,527.63C306.28,530.25 307.58,532.76 310.09,534.36C308.99,531.75 307.48,529.34 305.17,527.63Z" style="fill-rule:nonzero;"/>
        <path d="M623.74,175.6C626.15,174.49 625.25,171.88 626.05,169.97C623.63,171.18 624.44,173.69 623.74,175.6Z" style="fill-rule:nonzero;"/>
        <path d="M861.1,283.03C859.09,283.83 856.98,284.43 855.97,287.25C858.69,286.45 860.3,285.24 861.1,283.03Z" style="fill-rule:nonzero;"/>
        <path d="M563.34,379.91C565.65,377.8 565.45,375.18 565.55,372.67C564.22,372.67 565.17,371.1 563.34,379.91Z" style="fill-rule:nonzero;"/>
        <path d="M428.67,538.69C430.48,540.6 432.89,540.8 434.4,542.41C432.9,540.7 431.89,538.49 428.67,538.69Z" style="fill-rule:nonzero;"/>
        <path d="M334.31,474.37C332.09,475.57 330.39,477.28 329.08,479.29C331.19,477.99 333.1,476.48 334.31,474.37Z" style="fill-rule:nonzero;"/>
        <path d="M373.8,481.61C371.39,482.31 368.98,482.81 366.97,484.52C369.58,484.12 371.79,483.11 373.8,481.61Z" style="fill-rule:nonzero;"/>
        <path d="M302.15,542.71C300.95,544.01 299.94,545.32 299.44,547.23C301.65,546.12 301.65,546.12 302.15,542.71Z" style="fill-rule:nonzero;"/>
        <path d="M706.84,308.35C705.43,309.56 704.53,310.97 704.43,312.87C706.34,312.07 706.64,310.26 706.84,308.35Z" style="fill-rule:nonzero;"/>
        <path d="M712.97,330.46C711.43,330.46 712.11,329.73 711.76,335.28C713.57,333.78 714.28,332.17 712.97,330.46Z" style="fill-rule:nonzero;"/>
        <path d="M848.04,278C850.55,275.18 850.55,274.88 847.94,272.17C847.74,274.28 848.74,275.69 848.04,278Z" style="fill-rule:nonzero;"/>
        <path d="M369.98,517.78C368.37,515.67 367.37,515.17 364.15,514.87C364.82,515.98 368.78,517.64 369.98,517.78Z" style="fill-rule:nonzero;"/>
        <path d="M452.89,529.04C454.7,528.44 455.71,527.33 455.4,524.82C453.89,526.23 453.09,527.43 452.89,529.04Z" style="fill-rule:nonzero;"/>
        <path d="M593.19,117.42C593.79,114.8 593.09,113.4 591.88,112.09C591.37,113.8 591.57,115.3 593.19,117.42Z" style="fill-rule:nonzero;"/>
        <path d="M438.62,552.85C439.43,551.25 439.63,549.74 438.32,548.03C436.71,549.84 438.52,551.35 438.62,552.85Z" style="fill-rule:nonzero;"/>
        <path d="M255.02,490.85C256.13,489.94 257.33,488.84 258.84,487.73C256.53,487.63 256.53,487.63 255.02,490.85Z" style="fill-rule:nonzero;"/>
        <path d="M259.75,489.24C261.86,487.94 264.47,488.24 266.58,486.73C262.16,486.83 261.86,486.93 259.75,489.24Z" style="fill-rule:nonzero;"/>
        <path d="M594.89,176.51C595.39,178.62 595.9,180.73 597.6,182.34C597.1,180.13 596.2,178.22 594.89,176.51Z" style="fill-rule:nonzero;"/>
        <path d="M428.87,578.99C430.58,578.49 432.09,577.88 432.39,575.27C430.08,576.07 429.68,577.58 428.87,578.99Z" style="fill-rule:nonzero;"/>
        <path d="M307.48,564.72C307.88,566.33 307.08,567.93 307.18,569.64C309.69,567.33 309.79,566.53 307.48,564.72Z" style="fill-rule:nonzero;"/>
        <path d="M833.66,344.63C832.85,344.83 831.86,344.83 831.76,346.14C832.96,346.24 833.07,345.14 833.66,344.63C835.98,343.63 835.98,343.63 836.78,341.62C834.77,342.02 834.77,342.02 833.66,344.63Z" style="fill-rule:nonzero;"/>
        <path d="M324.76,482.01C325.47,483.52 326.17,485.13 328.38,486.13C327.57,483.81 326.06,483.01 324.76,482.01Z" style="fill-rule:nonzero;"/>
        <path d="M859.59,290.87C858.39,292.07 857.48,293.28 856.68,295.09C859.7,293.88 859.7,293.88 859.59,290.87Z" style="fill-rule:nonzero;"/>
        <path d="M563.74,370.46C562.33,368.75 560.62,367.45 558.31,367.24C559.62,369.15 561.73,369.66 563.74,370.46Z" style="fill-rule:nonzero;"/>
        <path d="M715.48,355.28C717.39,353.88 717.89,352.47 718.09,350.76C716.89,351.87 715.98,353.08 715.48,355.28Z" style="fill-rule:nonzero;"/>
        <path d="M603.33,184.45C604.74,185.35 606.15,186.36 608.25,185.76C606.65,184.45 604.84,184.85 603.33,184.45Z" style="fill-rule:nonzero;"/>
        <path d="M594.09,124.95C595.4,123.04 595.4,123.04 593.89,121.13C593.28,122.44 593.68,123.64 594.09,124.95Z" style="fill-rule:nonzero;"/>
        <path d="M367.87,508.74C369.98,508.94 371.59,507.93 373.3,507.03C371.49,507.43 369.58,507.73 367.87,508.74Z" style="fill-rule:nonzero;"/>
        <path d="M842.81,319.11C843.82,316.09 843.82,316.09 842.61,313.98C841.41,315.69 842.71,317 842.81,319.11Z" style="fill-rule:nonzero;"/>
        <path d="M700.4,327.25C701.31,329.16 702.82,329.86 703.42,331.17C703.02,328.85 703.02,328.85 700.4,327.25Z" style="fill-rule:nonzero;"/>
        <path d="M266.18,521.81C265.57,519.8 264.17,518.99 263.06,518.09C263.66,519.49 264.37,520.9 266.18,521.81Z" style="fill-rule:nonzero;"/>
        <path d="M285.17,550.85C284.67,549.34 283.56,548.54 282.26,547.94C282.66,549.44 283.66,550.35 285.17,550.85Z" style="fill-rule:nonzero;"/>
        <path d="M296.23,562.1C297.13,563.21 298.04,564.31 298.94,565.42C299.14,563.41 298.04,562.51 296.23,562.1Z" style="fill-rule:nonzero;"/>
        <path d="M391.29,500C392.9,499.79 394.4,499.49 395.51,498.19C393.8,498.09 392.6,499.1 391.29,500Z" style="fill-rule:nonzero;"/>
        <path d="M589.57,111.98C588.36,110.68 587.26,111.08 586.25,111.18C587.15,112.19 588.06,112.29 589.57,111.98Z" style="fill-rule:nonzero;"/>
        <path d="M242.06,472.56C241.75,474.07 242.46,474.87 242.96,476.08C243.56,474.57 243.26,473.56 242.06,472.56Z" style="fill-rule:nonzero;"/>
        <path d="M311.71,588.44C313.32,587.33 313.62,586.23 314.22,584.52C312.61,585.62 312.11,586.63 311.71,588.44Z" style="fill-rule:nonzero;"/>
        <path d="M831.06,374.68C831.66,373.78 831.66,372.97 831.16,371.97C830.05,372.97 829.95,373.68 831.06,374.68Z" style="fill-rule:nonzero;"/>
        <path d="M448.07,531.85C446.46,532.05 445.66,532.66 444.75,534.06C446.46,533.86 447.47,533.56 448.07,531.85Z" style="fill-rule:nonzero;"/>
        <path d="M260.45,512.76C259.55,511.05 258.94,509.85 258.44,508.64C258.14,510.25 258.64,511.45 260.45,512.76Z" style="fill-rule:nonzero;"/>
        <path d="M833.67,304.63C834.57,305.64 835.48,306.34 836.99,306.34C836.18,304.63 834.98,304.33 833.67,304.63Z" style="fill-rule:nonzero;"/>
        <path d="M717.89,303.93C717.69,305.44 718.9,305.34 720.4,305.94C719.6,304.63 719.3,303.53 717.89,303.93Z" style="fill-rule:nonzero;"/>
        <path d="M852.46,297.7C850.85,297.9 850.15,298.4 849.55,299.61C850.95,299.61 851.76,299.31 852.46,297.7Z" style="fill-rule:nonzero;"/>
        <path d="M614.19,178.92C615.29,178.12 614.69,177.11 614.89,175.8C613.49,176.91 614.29,178.02 614.19,178.92Z" style="fill-rule:nonzero;"/>
        <path d="M237.24,448.03C238.44,448.94 239.15,448.74 239.85,447.33C238.64,447.13 237.84,447.03 237.24,448.03Z" style="fill-rule:nonzero;"/>
        <path d="M238.84,458.79C237.83,457.89 236.93,458.39 235.22,458.79C236.83,459.19 237.74,459.8 238.84,458.79Z" style="fill-rule:nonzero;"/>
        <path d="M266.58,486.73L270.4,486.73C269.09,486.13 267.89,486.33 266.58,486.73Z" style="fill-rule:nonzero;"/>
        <path d="M827.24,351.27C828.95,350.97 829.15,350.06 829.45,349.26C827.74,348.85 827.84,350.06 827.24,351.27Z" style="fill-rule:nonzero;"/>
        <path d="M313.51,538.18C313.21,539.59 314.31,539.49 315.42,540.09C314.92,538.59 314.62,537.98 313.51,538.18Z" style="fill-rule:nonzero;"/>
        <path d="M351.29,529.84C351.6,528.94 351.09,528.43 350.49,527.63C350.18,528.84 350.69,529.34 351.29,529.84Z" style="fill-rule:nonzero;"/>
        <path d="M622.63,179.32C622.93,178.92 622.93,178.42 622.43,178.11C620.59,178.57 621.78,181.01 622.63,179.32Z" style="fill-rule:nonzero;"/>
        <path d="M379.13,504.92C378.33,504.62 377.82,505.22 377.12,505.52C378.02,506.03 378.63,505.52 379.13,504.92Z" style="fill-rule:nonzero;"/>
        <path d="M246.08,495.47C245.98,496.18 246.28,496.48 246.88,496.78C247.29,495.87 246.78,495.57 246.08,495.47Z" style="fill-rule:nonzero;"/>
        <path d="M385.96,502.31C387.37,502.31 387.87,501.9 388.47,501.41C387.57,500.8 386.97,501.61 385.96,502.31Z" style="fill-rule:nonzero;"/>
        <path d="M398.73,496.98C397.22,496.98 396.21,497.29 395.51,498.19C396.62,498.39 397.52,497.88 398.73,496.98Z" style="fill-rule:nonzero;"/>
        <path d="M304.56,583.81C304.06,584.82 304.77,585.32 305.57,585.72C305.97,584.72 305.87,584.11 304.56,583.81Z" style="fill-rule:nonzero;"/>
        <path d="M709.45,349.66C709.25,350.56 709.25,350.56 710.25,351.57C710.56,350.46 710.15,349.96 709.45,349.66Z" style="fill-rule:nonzero;"/>
        <path d="M243.94,481.09C243.88,480.53 243.85,480 243.77,479.49C243.5,480.01 243.84,480.52 243.94,481.09Z" style="fill-rule:nonzero;"/>
        <path d="M243.97,481.37C243.97,479.98 243.57,484.02 244.47,485.32C245.8,482.23 243.97,481.27 243.97,481.37Z" style="fill-rule:nonzero;"/>
        <path d="M755.28,293.38C754.07,294.28 755.58,294.48 755.28,295.09C755.88,294.39 755.48,293.98 755.28,293.38Z" style="fill-rule:nonzero;"/>
        <path d="M713.47,359.51C714.37,359.11 714.57,358.6 714.37,357.9C713.17,358.2 713.47,358.8 713.47,359.51Z" style="fill-rule:nonzero;"/>
        <path d="M626.95,167.06C625.95,167.36 626.05,167.97 626.45,168.97C627.25,168.37 627.55,167.86 626.95,167.06Z" style="fill-rule:nonzero;"/>
        <path d="M613.68,180.63C614.39,180.23 614.29,179.52 614.28,179.02C613.58,179.32 613.38,179.83 613.68,180.63Z" style="fill-rule:nonzero;"/>
        <path d="M337.22,518.19C336.21,518.19 336.11,518.79 336.01,519.4C336.72,519.4 336.72,518.69 337.22,518.19Z" style="fill-rule:nonzero;"/>
        <path d="M831.46,369.36C832.16,368.75 832.16,368.45 831.96,368.05C831.26,368.15 831.46,368.55 831.46,369.36Z" style="fill-rule:nonzero;"/>
        <path d="M309.79,507.83C308.88,507.53 308.38,507.43 307.98,507.23C308.29,507.83 308.79,507.93 309.79,507.83Z" style="fill-rule:nonzero;"/>
        <path d="M592.58,118.32C592.48,119.02 592.88,119.32 593.48,119.43C594.45,118.46 593.02,117.43 592.58,118.32Z" style="fill-rule:nonzero;"/>
        <path d="M307.88,507.23C307.28,507.13 306.78,506.93 305.57,506.63C306.77,507.53 307.38,507.23 307.88,507.23Z" style="fill-rule:nonzero;"/>
        <path d="M601.32,361.82C600.59,362 600.1,361.9 600.42,362.22C600.72,362.22 601.12,362.32 601.32,361.82Z" style="fill-rule:nonzero;"/>
        <path d="M237.03,439.19C237.23,439.9 237.53,439.8 237.93,439.19C237.63,438.89 237.33,438.89 237.03,439.19Z" style="fill-rule:nonzero;"/>
        <path d="M365.97,222.23C366.93,227.35 364.62,230.8 362.85,235.19C346.8,275.07 351.37,243.98 335.21,287.25C332.57,294.31 326.25,299.82 315.41,320.41C318.21,320.71 315.67,320.43 331.79,297.6C340.49,285.27 337.98,272.97 356.31,253.18C358.82,250.47 366.96,229.65 367.97,225.44C367.49,224.76 367.41,223.28 365.97,222.23Z" style="fill-rule:nonzero;"/>
        <path d="M323.86,349.65C322.15,348.75 322.55,346.44 320.64,345.13C320.86,348.22 323.06,368.16 323.4,364.62C324.74,360.62 324.62,359.41 323.56,353.37C326.68,350.05 329.79,346.74 333.11,343.12C329.19,344.32 326.47,346.84 323.86,349.65Z" style="fill-rule:nonzero;"/>
        <path d="M356.42,300.41C353.99,299.2 356.84,299.35 346.97,307.45C345.87,308.35 345.36,309.96 346.37,312.47C348.88,307.34 353.51,304.63 356.42,300.41Z" style="fill-rule:nonzero;"/>
        <path d="M320.85,342.02C321.05,338.5 322.15,334.99 321.35,331.57C319.14,335.29 318.94,339.01 320.85,342.02Z" style="fill-rule:nonzero;"/>
        <path d="M375.91,236.7C377.52,234.89 376.62,232.68 377.32,230.77C376.01,232.58 375.81,234.69 375.91,236.7Z" style="fill-rule:nonzero;"/>
        <path d="M377.72,228.05C379.63,226.14 379.83,225.54 379.73,221.72C378.22,224.03 377.82,225.84 377.72,228.05Z" style="fill-rule:nonzero;"/>
        <path d="M367.97,234.18C369.78,231.87 369.28,229.66 369.68,227.75C368.07,229.46 368.58,231.57 367.97,234.18Z" style="fill-rule:nonzero;"/>
        <path d="M339.84,340.32C337.83,340.72 335.92,341.42 334.71,343.13C335.47,343.89 334.24,344.41 339.84,340.32Z" style="fill-rule:nonzero;"/>
        <path d="M319.64,322.12C319.74,323.63 319.44,325.13 320.95,326.54C321.34,324.53 321.04,323.13 319.64,322.12Z" style="fill-rule:nonzero;"/>
        <path d="M344.76,313.18C342.85,314.28 342.75,315.69 342.45,317C343.75,316.3 344.46,315.29 344.76,313.18Z" style="fill-rule:nonzero;"/>
        <path d="M367.37,236.5C365.36,236.8 365.66,238.1 364.86,239.51C366.57,238.71 366.77,237.6 367.37,236.5Z" style="fill-rule:nonzero;"/>
        <path d="M342.44,316.99C341.24,317.5 340.73,318.5 340.23,320.31C341.94,319.31 342.24,318.2 342.44,316.99Z" style="fill-rule:nonzero;"/>
        <path d="M351.49,282.62C349.99,286.52 345.33,285.66 343.1,288.6C342.56,288.07 340.39,290.07 339.93,290.56C343.16,289.94 342.96,288.56 343.25,288.85C348.88,288.55 350.38,287.44 351.49,282.62Z" style="fill-rule:nonzero;"/>
        <path d="M357.22,297.4C358.39,296.91 359.24,296.33 359.39,295.08C359.56,293.73 357.95,295.22 357.22,297.4Z" style="fill-rule:nonzero;"/>
        <path d="M375.31,240.51C374.61,240.82 374.41,241.12 374.61,241.62C375.11,241.42 375.31,241.12 375.31,240.51Z" style="fill-rule:nonzero;"/>
        <path d="M292.01,417.08C285.77,419.5 280.15,427.64 281.26,432.86C283.87,430.45 284.27,426.93 285.88,424.22C287.39,421.3 290.4,419.79 292.01,417.08Z" style="fill-rule:nonzero;"/>
        <path d="M311.91,443.01C312.51,450.45 311.51,457.98 314.32,465.12C313.51,457.79 313.91,450.25 311.91,443.01Z" style="fill-rule:nonzero;"/>
        <path d="M295.82,387.85C299.34,386.94 300.05,382.32 297.23,378.81C296.83,381.92 296.72,384.94 295.82,387.85Z" style="fill-rule:nonzero;"/>
        <path d="M317.83,411.76C316.02,408.64 312,405.73 308.48,405.43C311.5,407.44 314.51,409.55 317.83,411.76Z" style="fill-rule:nonzero;"/>
        <path d="M251.71,409.34C252.11,412.56 252.81,413.06 256.33,413.26C255.22,411.15 253.21,410.65 251.71,409.34Z" style="fill-rule:nonzero;"/>
        <path d="M300.75,404.12C298.94,406.93 297.03,409.74 294.92,412.86C297.83,410.85 299.74,408.24 300.75,404.12Z" style="fill-rule:nonzero;"/>
        <path d="M255.52,423.31C254.02,421.71 252.41,420.3 249.59,419.49C251,422.51 253.11,423.11 255.52,423.31Z" style="fill-rule:nonzero;"/>
        <path d="M302.76,396.99C301.05,399.1 301.05,400.51 302.46,402.62C303.16,400.71 303.16,399 302.76,396.99Z" style="fill-rule:nonzero;"/>
        <path d="M252.41,431.66C253.62,433.97 253.62,433.97 256.23,433.77C255.62,431.76 254.12,431.86 252.41,431.66Z" style="fill-rule:nonzero;"/>
        <path d="M268.28,478.59C268.28,476.66 265.34,475.22 263.66,474.47C264.68,475.56 266,478.59 268.28,478.59Z" style="fill-rule:nonzero;"/>
        <path d="M254.62,429.24C255.62,431.56 255.83,431.66 260.05,432.96C257.94,431.45 256.33,430.35 254.62,429.24Z" style="fill-rule:nonzero;"/>
        <path d="M308.89,418.69C308.99,421 309.19,423.21 310.7,425.12C310.3,422.91 310.2,420.6 308.89,418.69Z" style="fill-rule:nonzero;"/>
        <path d="M269.49,434.77C270.7,434.97 272.01,435.58 273.71,434.07C271.9,434.37 270.7,434.57 269.49,434.77Z" style="fill-rule:nonzero;"/>
        <path d="M267.39,410.05C266.98,411.06 267.39,411.66 268.29,411.96C268.59,411.05 268.49,410.35 267.39,410.05Z" style="fill-rule:nonzero;"/>
        <path d="M259.95,424.62C260.75,425.73 261.75,425.53 263.17,425.02C262.06,424.22 261.06,424.32 259.95,424.62Z" style="fill-rule:nonzero;"/>
        <path d="M293.21,467.84C293.11,468.94 293.01,470.05 292.81,471.16C293.91,470.25 293.21,468.95 293.21,467.84Z" style="fill-rule:nonzero;"/>
        <path d="M259.14,413.96C258.74,414.67 258.94,415.07 259.54,415.37C261.23,416.22 261.27,413.97 259.14,413.96Z" style="fill-rule:nonzero;"/>
        <path d="M265.77,423.72C266.67,424.73 267.18,424.12 267.78,423.72C267.18,422.81 266.58,423.21 265.77,423.72Z" style="fill-rule:nonzero;"/>
        <path d="M311.8,429.75C311.5,430.65 311.5,431.15 311.8,431.86L311.8,429.75Z" style="fill-rule:nonzero;"/>
        <path d="M285.17,463.51C286.08,463.01 285.87,461.91 286.28,461.2C285.37,461.74 285.02,462.58 285.17,463.51Z" style="fill-rule:nonzero;"/>
        <path d="M262.56,414.37C263.36,415.27 263.66,414.77 264.17,414.57C263.77,413.67 263.26,413.97 262.56,414.37Z" style="fill-rule:nonzero;"/>
        <path d="M313.82,387.75C313.11,387.75 312.71,387.95 312.51,388.65C313.61,389.36 314.12,389.15 313.82,387.75Z" style="fill-rule:nonzero;"/>
        <path d="M319.24,386.74C318.34,386.24 317.93,386.44 317.63,387.44C318.34,387.95 318.94,387.85 319.24,386.74Z" style="fill-rule:nonzero;"/>
        <path d="M281.85,444.32C282.36,443.51 281.85,443.11 281.25,442.81C280.85,443.51 281.45,443.82 281.85,444.32Z" style="fill-rule:nonzero;"/>
        <path d="M292.61,473.16C293.11,472.46 292.81,471.76 292.91,471.25C292.61,471.85 292.11,472.36 292.61,473.16Z" style="fill-rule:nonzero;"/>
        <path d="M298.44,375.39C297.53,376.19 297.93,376.59 298.14,377.2C299.45,376.4 298.44,376.09 298.44,375.39Z" style="fill-rule:nonzero;"/>
        <path d="M310.8,425.36L310.8,426.93C311.32,426.32 310.87,425.86 310.8,425.36Z" style="fill-rule:nonzero;"/>
        <path d="M105.69,277.9C105.28,277.99 104.78,278 104.79,278.7C106.28,279.64 108.21,277.34 105.69,277.9Z" style="fill-rule:nonzero;"/>
        <path d="M235.13,367.54C239.15,378.68 232.37,369.62 244.07,380.71C242.1,370.1 239.52,377.88 236.13,364.33C234.12,365.03 234.73,366.44 235.13,367.54Z" style="fill-rule:nonzero;"/>
        <path d="M218.84,351.27C218.74,357.8 226.28,365.64 231.2,363.93C225.17,361.42 221.45,357.5 218.84,351.27Z" style="fill-rule:nonzero;"/>
        <path d="M197.94,326.24C196.83,331.47 202.76,339.21 207.99,340.01C203.57,336.19 199.14,332.37 197.94,326.24Z" style="fill-rule:nonzero;"/>
        <path d="M233.31,350.26C233.21,358.2 233.51,359.81 235.52,362.32C237.13,360.21 236.23,355.08 233.31,350.26Z" style="fill-rule:nonzero;"/>
        <path d="M241.35,402.51C243.87,399.6 244.07,394.37 241.45,391.46C241.15,395.28 239.94,398.8 241.35,402.51Z" style="fill-rule:nonzero;"/>
        <path d="M240.55,387.35C240.55,384.23 240.55,381.11 237.64,378.1C236.23,382.43 239.24,384.64 240.55,387.35Z" style="fill-rule:nonzero;"/>
        <path d="M220.75,362.92C219.75,365.34 221.76,367.75 220.55,369.85C223.66,367.94 223.87,365.23 220.75,362.92Z" style="fill-rule:nonzero;"/>
        <path d="M176.73,252.28C176.33,248.66 176.53,245.14 173.82,242.63C174.82,245.74 174.92,249.16 176.73,252.28Z" style="fill-rule:nonzero;"/>
        <path d="M193.82,316.9C192.91,313.88 192.11,311.67 191.41,309.16C189.9,312.28 190.6,315.09 193.82,316.9Z" style="fill-rule:nonzero;"/>
        <path d="M220.65,369.96C218.84,371.07 216.93,372.17 214.82,373.48C218.64,373.48 220.15,372.47 220.65,369.96Z" style="fill-rule:nonzero;"/>
        <path d="M166.68,231.17C168.69,231.27 169.79,230.26 171,229.36C169.3,228.86 167.89,229.26 166.68,231.17Z" style="fill-rule:nonzero;"/>
        <path d="M187.09,301.52C187.09,302.93 188.09,303.73 189.5,305.24C189.6,302.72 188.49,302.02 187.09,301.52Z" style="fill-rule:nonzero;"/>
        <path d="M172.51,237.4C172.61,235.79 172.91,234.59 171.91,233.18C170.8,234.99 171.3,235.99 172.51,237.4Z" style="fill-rule:nonzero;"/>
        <path d="M182.26,290.26C182.46,291.67 182.66,293.07 183.67,294.18C183.77,292.17 183.77,292.17 182.26,290.26Z" style="fill-rule:nonzero;"/>
        <path d="M180.35,283.73C180.65,281.82 179.95,280.92 179.04,279.91C178.74,281.82 178.74,281.82 180.35,283.73Z" style="fill-rule:nonzero;"/>
        <path d="M243.56,401.82C244.47,403.73 244.97,404.83 246.78,404.13C246.38,402.71 245.37,402.41 243.56,401.82Z" style="fill-rule:nonzero;"/>
        <path d="M190.4,305.94C189.8,307.35 190.3,307.95 191.71,307.95C191.81,306.74 191.41,306.24 190.4,305.94Z" style="fill-rule:nonzero;"/>
        <path d="M177.24,274.89C176.63,275.89 177.04,276.6 177.94,277.4C178.44,276.29 178.14,275.49 177.24,274.89Z" style="fill-rule:nonzero;"/>
        <path d="M246.48,382.82C246.08,381.41 245.07,381.01 244.17,380.61C244.07,382.02 244.67,382.82 246.48,382.82Z" style="fill-rule:nonzero;"/>
        <path d="M232.61,348.15C233.11,347.05 232.81,346.44 232.21,345.64C231.6,346.64 231.91,347.25 232.61,348.15Z" style="fill-rule:nonzero;"/>
        <path d="M180.05,228.96C179.35,228.56 178.84,228.46 178.24,229.06C178.94,229.76 179.45,229.76 180.05,228.96Z" style="fill-rule:nonzero;"/>
        <path d="M199.44,311.57C199.55,310.56 199.55,309.86 198.54,309.96C198.14,310.76 198.54,311.17 199.44,311.57Z" style="fill-rule:nonzero;"/>
        <path d="M211.1,341.92C210.9,343.33 211.81,343.03 212.71,343.33C212.41,342.12 212.01,341.72 211.1,341.92Z" style="fill-rule:nonzero;"/>
        <path d="M207.19,309.76C207.29,308.65 207.39,307.85 206.08,307.95C205.78,308.86 206.28,309.36 207.19,309.76Z" style="fill-rule:nonzero;"/>
        <path d="M230.9,343.43C230.7,343.73 230.8,344.13 231.4,344.44C232.44,343.81 231.29,342.64 230.9,343.43Z" style="fill-rule:nonzero;"/>
        <path d="M249.29,386.14C249.49,385.34 249.29,384.83 248.49,384.93C247.78,385.94 248.99,385.74 249.29,386.14Z" style="fill-rule:nonzero;"/>
        <path d="M177.54,224.14C176.54,223.94 177.14,224.54 177.34,224.84C178.09,226.35 178.42,224.13 177.54,224.14Z" style="fill-rule:nonzero;"/>
        <path d="M182.36,302.62C182.36,304.23 182.77,304.43 183.67,304.13C183.97,303.13 183.16,303.23 182.36,302.62Z" style="fill-rule:nonzero;"/>
        <path d="M217.84,347.85C218.34,347.34 218.04,347.04 217.64,346.74C217.13,347.25 217.13,347.55 217.84,347.85Z" style="fill-rule:nonzero;"/>
        <path d="M272,285.95C268.69,282.43 263.56,282.83 259.24,286.75C263.36,284.33 267.68,285.34 272,285.95Z" style="fill-rule:nonzero;"/>
        <path d="M281.79,305.52C282.43,305.63 278.68,301.43 270.49,307.35C274.35,307.35 277.83,304.84 281.79,305.52Z" style="fill-rule:nonzero;"/>
        <path d="M267.89,289.46C265.77,290.97 262.66,290.06 260.35,292.47C262.06,292.78 263.56,292.68 264.77,293.48C266.28,292.97 267.08,291.97 268.19,292.07C268.69,290.97 268.49,290.26 267.89,289.46Z" style="fill-rule:nonzero;"/>
        <path d="M246.18,312.17C247.09,316.7 249.3,320.11 253.82,321.72C249.3,317.5 249.63,318.39 246.18,312.17Z" style="fill-rule:nonzero;"/>
        <path d="M281.84,308.79C282.45,308.69 279.46,304.78 274.82,309.75C277.35,310.44 279.5,309.18 281.84,308.79Z" style="fill-rule:nonzero;"/>
        <path d="M250.8,331.97C251.11,333.78 251.41,335.59 253.92,335.49C253.01,334.28 252.41,332.67 250.8,331.97Z" style="fill-rule:nonzero;"/>
        <path d="M277.84,298.5C275.73,297.6 275.73,297.6 274.62,299.81C276.23,300.61 276.83,299.21 277.84,298.5Z" style="fill-rule:nonzero;"/>
        <path d="M283.06,318C281.13,317.73 280.12,318.25 278.44,318.9C280.18,319.15 281.55,319.25 283.06,318Z" style="fill-rule:nonzero;"/>
        <path d="M288.59,356.59L288.69,356.49C288.34,356.09 288.5,356.24 288.59,356.59Z" style="fill-rule:nonzero;"/>
        <path d="M258.94,340.22C258.84,342.12 259.94,342.63 261.55,343.13C261.15,341.42 260.55,340.61 258.94,340.22Z" style="fill-rule:nonzero;"/>
        <path d="M278.53,344.34C278.53,345.44 278.63,346.55 279.74,347.35C280.65,345.64 279.44,345.04 278.53,344.34Z" style="fill-rule:nonzero;"/>
        <path d="M265.78,330.97C266.28,332.58 266.28,332.58 268.79,333.38C267.78,332.17 266.98,331.37 265.78,330.97Z" style="fill-rule:nonzero;"/>
        <path d="M275.92,333.68C277.12,332.78 277.33,331.95 276.93,330.66C275.74,331.39 276.01,332.66 275.92,333.68Z" style="fill-rule:nonzero;"/>
        <path d="M260.15,326.74C260.95,328.45 262.06,328.75 263.77,329.15C262.76,327.54 261.76,327.24 260.15,326.74Z" style="fill-rule:nonzero;"/>
        <path d="M273.52,300.91C273.42,299.51 273.32,298.6 272.31,298.2C271.3,298.6 271.4,299.01 273.52,300.91Z" style="fill-rule:nonzero;"/>
        <path d="M283.06,351.03L283.06,350.96C282.57,350.87 281.96,350.66 283.06,351.03Z" style="fill-rule:nonzero;"/>
        <path d="M285.28,351.76C284.2,351.4 283.5,351.17 283.07,351.03C283.05,351.84 283.62,352.38 284.37,352.57C284.9,352.75 284.96,352.21 285.18,351.88C285.28,351.98 286.24,351.37 286.38,352.27C286.38,352.27 286.38,352.26 286.37,352.26C285.33,354.61 287.38,355.11 288.47,356.24C288.07,354.78 287.38,353.61 286.38,352.28C293.17,348.2 294.91,348.03 294.12,347.24C285.12,350.9 285.27,350.11 285.28,351.76Z" style="fill-rule:nonzero;"/>
        <path d="M254.02,335.39C254.12,336.49 254.93,336.9 255.93,337.5C255.83,335.99 255.42,335.19 254.02,335.39Z" style="fill-rule:nonzero;"/>
        <path d="M282.56,344.13C283.26,343.23 282.76,342.82 282.06,342.12C281.35,343.33 281.96,343.73 282.56,344.13Z" style="fill-rule:nonzero;"/>
        <path d="M289.29,358C289.49,357.09 288.89,356.99 288.79,356.49C288.89,356.89 289.09,357.3 289.29,358Z" style="fill-rule:nonzero;"/>
        <path d="M685.75,198.42C688.96,192.89 690.77,186.56 696.8,183.14C691.37,183.64 685.14,192.29 685.75,198.42Z" style="fill-rule:nonzero;"/>
        <path d="M718.9,230.87C718,223.53 718.3,216.1 716.49,208.96C717.19,216.3 715.88,223.83 718.9,230.87Z" style="fill-rule:nonzero;"/>
        <path d="M701.72,144.55C701.01,147.66 701.41,150.68 700.61,153.59C704.12,152.19 704.53,148.27 701.72,144.55Z" style="fill-rule:nonzero;"/>
        <path d="M645.95,213.98C645.86,213.48 645.14,213.68 644.84,213.58C645.14,218.41 645.34,223.23 645.65,227.95C647.26,223.33 646.78,218.68 645.95,213.98Z" style="fill-rule:nonzero;"/>
        <path d="M651.88,194.91C651.3,193.89 651.67,192.7 650.77,191.69C649.46,192.19 650.16,193.9 649.16,194.5C650.07,195.71 650.47,197.01 650.77,198.32C651.87,198.32 651.27,197.31 651.67,197.01C652.68,196.41 653.68,197.92 654.79,196.81C654.49,195.4 652.61,196.19 651.88,194.91Z" style="fill-rule:nonzero;"/>
        <path d="M645.54,272.88C648.37,270.63 650.66,267.46 652.27,264.24C649.08,266.37 647.19,269.38 645.54,272.88Z" style="fill-rule:nonzero;"/>
        <path d="M690.37,227.45C688.43,231.63 686.23,235.63 685.16,240.05C684.64,242.17 687.39,237.76 690.37,227.45Z" style="fill-rule:nonzero;"/>
        <path d="M650.37,179.62C649.66,182.34 648.96,184.95 650.47,187.56C650.57,184.95 651.48,182.23 650.37,179.62Z" style="fill-rule:nonzero;"/>
        <path d="M713.37,170.47C712.57,171.67 711.71,170.38 720.91,176.4C721.41,177.11 722.11,177.51 723.22,178.01C722.79,177 717.97,172.32 713.37,170.47Z" style="fill-rule:nonzero;"/>
        <path d="M661.53,178.92C659.32,177.21 657.81,176.11 656.1,174.8C656.1,178.01 657.2,178.92 661.53,178.92Z" style="fill-rule:nonzero;"/>
        <path d="M654.59,185.25C655.59,188.06 656.4,188.57 660.52,189.17C658.71,187.46 656.9,186.15 654.59,185.25Z" style="fill-rule:nonzero;"/>
        <path d="M698.7,179.73C700.11,179.43 700.51,178.62 700.81,177.82C700.32,177.33 702.56,177.42 705.73,170.28C704.5,169.04 705.01,170.74 698.7,179.73Z" style="fill-rule:nonzero;"/>
        <path d="M715.58,192.29C714.88,189.68 714.88,186.86 713.37,184.55C713.47,187.26 714.07,189.87 715.58,192.29Z" style="fill-rule:nonzero;"/>
        <path d="M705.93,168.57C707.84,166.26 707.95,165.96 706.94,162.24C705.53,164.55 706.33,166.36 705.93,168.57Z" style="fill-rule:nonzero;"/>
        <path d="M668.25,240.11C669.31,241.26 669.86,243.1 671.53,243.82C673.35,244.61 672.79,243.86 672.55,243.43C671.52,241.59 669.69,241.01 668.25,240.11Z" style="fill-rule:nonzero;"/>
        <path d="M656.9,197.51C658.11,199.72 658.11,199.72 660.92,199.52C659.91,197.61 658.51,197.41 656.9,197.51Z" style="fill-rule:nonzero;"/>
        <path d="M648.56,247.45C648.46,248.66 647.75,250.06 649.06,251.47C649.77,249.86 649.77,248.56 648.56,247.45Z" style="fill-rule:nonzero;"/>
        <path d="M664.03,198.32C662.43,197.21 660.82,196.11 659.21,195C659.91,197.41 661.92,198.01 664.03,198.32Z" style="fill-rule:nonzero;"/>
        <path d="M674.18,200.63C675.29,200.93 676.39,201.13 677.6,200.33C676.3,199.62 675.29,200.63 674.18,200.63Z" style="fill-rule:nonzero;"/>
        <path d="M641.52,213.68C642.93,215.09 643.83,213.88 644.74,213.58C643.63,212.28 642.63,212.89 641.52,213.68Z" style="fill-rule:nonzero;"/>
        <path d="M664.13,190.28C665.14,191.58 666.14,191.28 667.75,190.68C666.25,190.18 665.34,189.77 664.13,190.28Z" style="fill-rule:nonzero;"/>
        <path d="M639.71,224.54C641.12,224.94 642.12,225.44 643.43,224.54C642.13,223.73 641.12,224.13 639.71,224.54Z" style="fill-rule:nonzero;"/>
        <path d="M665.44,181.03C664.84,180.13 664.44,179.52 663.13,179.92C663.43,181.13 664.13,181.43 665.44,181.03Z" style="fill-rule:nonzero;"/>
        <path d="M646.75,240.52C648.24,240.11 647.4,238.45 646.55,238.31C645.74,239.21 647.05,239.72 646.75,240.52Z" style="fill-rule:nonzero;"/>
        <path d="M703.02,142.84C703.93,141.74 702.52,141.34 702.62,139.93C702.01,141.43 702.01,142.24 703.02,142.84Z" style="fill-rule:nonzero;"/>
        <path d="M671.97,175.8C671.27,176.91 672.28,177.41 672.77,178.31C673.08,177.01 673.08,176.3 671.97,175.8Z" style="fill-rule:nonzero;"/>
        <path d="M718.3,153.6C717.59,153.49 717.19,153.8 716.99,154.5C718.09,155.1 718.5,154.8 718.3,153.6Z" style="fill-rule:nonzero;"/>
        <path d="M685.34,208.06C685.24,208.77 685.65,209.07 686.35,209.67C686.25,208.57 686.14,208.06 685.34,208.06Z" style="fill-rule:nonzero;"/>
        <path d="M696.9,238.3C697.8,237.8 697.5,236.99 697.8,236.09C696.79,236.8 697.2,237.7 696.9,238.3Z" style="fill-rule:nonzero;"/>
        <path d="M672.08,189.17C671.48,188.77 670.97,188.87 670.47,189.27C671.17,190.48 671.67,190.18 672.08,189.17Z" style="fill-rule:nonzero;"/>
        <path d="M716.59,199.02C716.59,197.47 716.65,198.01 716.39,198.01C716.39,199.08 716.47,199.02 716.59,199.02Z" style="fill-rule:nonzero;"/>
        <path d="M723.82,152.79C723.62,152.59 723.52,152.39 723.42,152.19C721.39,151.93 722.33,154.65 723.82,152.79Z" style="fill-rule:nonzero;"/>
        <path d="M715.58,192.29L715.58,194.6C716.28,193.79 715.68,193.09 715.58,192.19L715.58,192.29Z" style="fill-rule:nonzero;"/>
        <path d="M707.54,161.94C708.55,160.93 707.64,160.83 707.54,160.23C706.64,161.23 707.24,161.43 707.54,161.94Z" style="fill-rule:nonzero;"/>
        <path d="M696.79,240.11C697.19,239.51 696.99,238.91 696.99,238.3C696.79,238.9 696.3,239.41 696.79,240.11Z" style="fill-rule:nonzero;"/>
        <path d="M643.43,211.48C643.23,210.98 642.93,210.98 642.63,211.28C642.83,211.58 643.03,211.78 643.43,211.48Z" style="fill-rule:nonzero;"/>
        <path d="M668.76,180.03C668.25,179.63 667.75,179.53 667.35,180.33C667.95,181.03 668.36,180.73 668.76,180.03Z" style="fill-rule:nonzero;"/>
        <path d="M516.3,51.99C517.31,53.4 518.31,53.09 519.72,52.89C518.71,51.89 517.91,51.49 516.3,51.99Z" style="fill-rule:nonzero;"/>
        <path d="M527.66,163.24C528.76,163.64 529.47,163.54 530.17,162.34C529.07,162.13 528.36,162.54 527.66,163.24Z" style="fill-rule:nonzero;"/>
        <path d="M748.14,142.14C744.54,139.95 741.55,138.65 738.09,137.62C739.08,141.76 743.91,142.45 748.14,142.14Z" style="fill-rule:nonzero;"/>
        <path d="M795.98,92.79C797.29,90.78 797.29,88.67 796.18,86.66C795.28,88.67 795.18,90.68 795.98,92.79Z" style="fill-rule:nonzero;"/>
        <path d="M751.06,142.94C753.27,144.34 755.08,144.54 756.99,143.84C755.08,141.83 754.37,141.73 751.06,142.94Z" style="fill-rule:nonzero;"/>
        <path d="M766.43,152.09C767.04,153.39 768.34,154.1 769.55,154.9C768.75,153.59 767.94,152.39 766.43,152.09Z" style="fill-rule:nonzero;"/>
        <path d="M796.28,82.94C797.18,81.73 797.58,80.93 796.78,79.42C795.78,80.63 796.28,81.64 796.28,82.94Z" style="fill-rule:nonzero;"/>
        <path d="M787.24,156.41C788.64,156.21 789.55,155.81 789.95,154.3C788.34,154.3 787.74,155.1 787.24,156.41Z" style="fill-rule:nonzero;"/>
        <path d="M780.7,136.61C780.9,137.62 781.31,138.02 782.11,138.12C782.31,137.21 781.71,136.91 780.7,136.61Z" style="fill-rule:nonzero;"/>
        <path d="M737.59,149.87C737.69,150.98 738.4,151.08 738.9,151.58C739.3,150.38 738.7,149.98 737.59,149.87Z" style="fill-rule:nonzero;"/>
        <path d="M778.09,134.69C777.69,135.6 777.99,135.9 779.2,135.7C779,135 778.69,134.8 778.09,134.69Z" style="fill-rule:nonzero;"/>
        <path d="M764.92,150.88C764.92,152.09 765.53,152.19 766.43,152.09C766.23,151.28 765.63,151.08 764.92,150.88Z" style="fill-rule:nonzero;"/>
        <path d="M814.15,49.46C809.63,51.17 807.42,53.98 805.21,61.32C801.5,61.82 797.77,62.02 794.36,62.93C790.64,63.92 787.53,61.42 783.51,61.52C784.62,63.43 786.43,62.32 787.13,63.33C788.13,64.44 786.93,65.84 787.83,66.95C790.15,65.36 816.35,61.9 818.08,62.03C821.83,62.31 823.74,65.37 820.69,68.16C819.56,69 820.91,72.07 824.31,66.55C826.58,62.87 821.48,58.74 817.58,59.52C814.37,60.17 811.15,60.53 807.83,60.93C808.24,52.79 816.08,48.06 823.01,51.28C831.45,55.2 834.88,67.17 829.74,74.9C825.73,80.94 818.27,81.65 812.66,76.51C811.35,75.31 810.55,73.6 808.93,72.57C806.59,74.69 815.27,84.54 827.92,80.41C844.37,75.04 836.36,41.07 814.15,49.46ZM830.05,77.62C830.55,76.41 830.86,75.91 831.56,75.71C831.66,76.51 831.05,76.81 830.05,77.62ZM831.46,75.6C834.97,68.57 834.27,61.53 830.45,54.7C837.34,62.22 835.49,72.58 831.46,75.6Z" style="fill-rule:nonzero;"/>
        <path d="M691.37,118.12C693.58,116.01 696.6,115.1 698.71,112.69C691.3,115.86 692.24,115.28 690.06,116.21C689.76,117.62 691.17,117.32 691.37,118.12Z" style="fill-rule:nonzero;"/>
        <path d="M690.77,104.85C691.47,106.76 692.88,107.77 693.38,109.47C693.58,106.76 693.58,106.76 690.77,104.85Z" style="fill-rule:nonzero;"/>
        <path d="M682.73,109.37C682.63,111.08 683.34,111.99 684.24,112.79C684.84,111.18 683.93,110.48 682.73,109.37Z" style="fill-rule:nonzero;"/>
        <path d="M658,100.43C658.41,101.84 659.11,102.54 660.31,103.14C660.31,101.44 659.81,100.53 658,100.43Z" style="fill-rule:nonzero;"/>
        <path d="M663.53,105.96C663.13,107.07 663.53,107.47 663.93,107.87C666.87,110.21 666.16,106.71 663.53,105.96Z" style="fill-rule:nonzero;"/>
        <path d="M665.84,93.39C666.45,95 667.55,95.1 669.36,95.7C668.25,94.09 667.45,93.49 665.84,93.39Z" style="fill-rule:nonzero;"/>
        <path d="M691.97,121.03C692.58,119.83 691.27,119.12 691.37,118.12C688.85,119.72 691.77,120.03 691.97,121.03Z" style="fill-rule:nonzero;"/>
        <path d="M686.45,108.07C686.05,108.98 686.15,109.48 687.05,109.88C687.65,109.07 687.45,108.57 686.45,108.07Z" style="fill-rule:nonzero;"/>
        <path d="M677.5,52.19C673.58,48.87 668.66,49.27 664.64,53.3C668.76,50.68 673.18,51.99 677.5,52.19Z" style="fill-rule:nonzero;"/>
        <path d="M687.95,72.19C685.64,69.58 679.11,70.78 675.49,74.3C680.01,73.6 683.53,71.39 687.95,72.19Z" style="fill-rule:nonzero;"/>
        <path d="M665.74,59.23C667.65,59.03 669.05,59.33 670.26,59.93C671.67,59.63 672.57,58.52 673.68,58.62C674.18,57.42 673.78,56.71 673.48,55.91C671.27,57.52 668.16,56.51 665.74,59.23Z" style="fill-rule:nonzero;"/>
        <path d="M679.91,76.31C683.13,76.71 685.44,75.91 687.95,74.9C685.34,73.09 683.63,73.39 679.91,76.31Z" style="fill-rule:nonzero;"/>
        <path d="M680.12,66.26C681.82,66.16 681.82,66.16 683.13,64.95C681.22,64.05 681.22,64.05 680.12,66.26Z" style="fill-rule:nonzero;"/>
        <path d="M679.11,67.26C678.81,65.86 678.71,64.85 677.5,64.55C676.9,65.96 677.5,66.56 679.11,67.26Z" style="fill-rule:nonzero;"/>
        <path d="M644.74,161.13C643.84,159.12 642.33,158.32 640.32,158.42C641.32,160.13 643.13,160.53 644.74,161.13Z" style="fill-rule:nonzero;"/>
        <path d="M649.36,161.43C649.87,160.32 649.26,160.12 648.66,159.92C648.46,160.83 648.96,161.03 649.36,161.43Z" style="fill-rule:nonzero;"/>
        <path d="M716.48,263.33C718.99,264.73 737.08,266.24 745.32,265.84C745.82,267.05 745.52,268.05 744.92,269.56C738.58,269.36 732.15,270.06 725.62,270.06C728.34,272.37 731.85,271.48 734.87,272.27C737.98,273.09 741.3,273.58 744.42,273.38C745.53,274.08 744.72,275.59 746.03,276.29C747.74,272.17 746.03,267.95 747.13,263.63C736.78,265.04 726.83,262.63 716.48,263.33Z" style="fill-rule:nonzero;"/>
        <path d="M750.66,270.87C750.66,271.27 750.76,271.57 750.86,271.98C761.52,269.77 772.07,267.46 782.52,264.24C781.96,263.13 786.62,262.65 750.66,270.87Z" style="fill-rule:nonzero;"/>
        <path d="M783.32,251.57C772.36,254.68 761.51,257.7 751.86,264.03C762.21,259.21 773.07,255.99 783.32,251.57Z" style="fill-rule:nonzero;"/>
        <path d="M739.6,279.21C734.48,277.2 729.55,277.9 724.93,277C731.46,281.82 736.59,282.83 739.6,279.21Z" style="fill-rule:nonzero;"/>
        <path d="M741.71,257.6C733.47,258.71 725.03,257.8 716.79,259.41C718.96,259.55 740.74,260.51 741.71,257.6Z" style="fill-rule:nonzero;"/>
        <path d="M782.21,238.7C782.21,235.95 766.7,243.01 759.3,246.24C756.2,249.34 778.91,238.71 782.21,238.7Z" style="fill-rule:nonzero;"/>
        <path d="M718.79,272.17C724.52,273.48 730.35,274.88 736.28,276.19C734.68,273.38 728.04,271.87 718.79,272.17Z" style="fill-rule:nonzero;"/>
        <path d="M659.31,268.25C661.42,261.82 667.95,260.82 672.27,256.99C666.29,259.07 654.44,265.43 659.31,268.25Z" style="fill-rule:nonzero;"/>
        <path d="M702.01,251.47C697.29,250.26 692.37,250.67 687.54,250.06C692.27,251.77 697.09,252.07 702.01,251.47Z" style="fill-rule:nonzero;"/>
        <path d="M660.61,277.3C661.82,277.1 661.22,275.59 662.02,275.19C663.03,275.79 662.93,277.1 664.23,277.7C663.48,272.95 660.55,276.7 665.13,267.55C661.62,270.16 660.11,273.58 660.61,277.3Z" style="fill-rule:nonzero;"/>
        <path d="M762.91,262.82C759.7,263.32 756.88,264.73 754.27,266.44C757.49,265.94 760.2,264.43 762.91,262.82Z" style="fill-rule:nonzero;"/>
        <path d="M774.47,283.13C772.67,281.42 770.45,280.62 767.44,279.61C769.75,282.02 772.16,282.52 774.47,283.13Z" style="fill-rule:nonzero;"/>
        <path d="M776.88,247.96C774.37,248.36 772.16,249.36 770.05,250.77C772.56,250.36 774.78,249.36 776.88,247.96Z" style="fill-rule:nonzero;"/>
        <path d="M663.23,252.78C660.52,253.28 660.22,255.29 659.41,256.9C660.92,256 662.43,254.99 663.23,252.78Z" style="fill-rule:nonzero;"/>
        <path d="M734.78,243.93C736.48,242.93 738.19,241.82 739,239.91C737.19,240.81 735.68,242.12 734.78,243.93Z" style="fill-rule:nonzero;"/>
        <path d="M675.19,252.47C673.88,251.97 672.68,251.97 671.37,252.47C668.99,252.46 666.62,252.3 664.74,254.28C674.77,252 669.79,252.47 675.19,252.47Z" style="fill-rule:nonzero;"/>
        <path d="M728.84,247.45C729.95,249.56 730.65,250.77 732.36,251.37C731.96,249.76 730.96,248.56 728.84,247.45Z" style="fill-rule:nonzero;"/>
        <path d="M801.68,263.25C799.77,263.38 798.14,263.99 796.89,265.34C798.63,265.05 800.29,264.56 801.68,263.25Z" style="fill-rule:nonzero;"/>
        <path d="M801.91,263.23L801.81,263.13C801.62,263.32 801.62,263.23 801.91,263.23Z" style="fill-rule:nonzero;"/>
        <path d="M796.75,265.45C796.83,265.45 796.91,265.44 796.99,265.44C796.87,265.33 796.92,265.31 796.75,265.45Z" style="fill-rule:nonzero;"/>
        <path d="M791.96,267.45C793.7,267.06 795.36,266.58 796.74,265.45C794.84,265.51 793.31,266.19 791.96,267.45Z" style="fill-rule:nonzero;"/>
        <path d="M668.46,284.43C668.96,286.34 668.96,286.34 671.27,288.15C670.57,286.24 669.46,285.54 668.46,284.43Z" style="fill-rule:nonzero;"/>
        <path d="M761.71,249.96C760.92,249.96 759.89,249.52 757.79,250.97C758.91,250.7 761.61,250.01 761.71,249.96Z" style="fill-rule:nonzero;"/>
        <path d="M736.19,253.19C736.88,254.19 737.79,254.59 738.68,254.99C741.51,258.13 742.75,256.3 738.97,254.63C739.08,254.53 737.9,253.07 736.19,253.19Z" style="fill-rule:nonzero;"/>
        <path d="M741.51,256.9L741.61,256.8C741.39,256.8 741.46,256.71 741.51,256.9Z" style="fill-rule:nonzero;"/>
        <path d="M743.82,258.81C743.22,257.5 742.62,257 741.71,256.8C741.71,257.58 741.39,257.35 743.82,258.81Z" style="fill-rule:nonzero;"/>
        <path d="M741.61,257.4L741.71,257.5C741.71,257.45 741.66,257.43 741.61,257.4Z" style="fill-rule:nonzero;"/>
        <path d="M801.7,263.13C802.81,263.23 803.61,262.82 804.72,262.02C803.32,262.02 802.51,262.42 801.7,263.13Z" style="fill-rule:nonzero;"/>
        <path d="M791.86,267.45C791.82,267.49 791.79,267.51 791.75,267.55C792.02,267.55 791.99,267.58 791.86,267.45Z" style="fill-rule:nonzero;"/>
        <path d="M788.34,268.86C789.6,268.77 790.76,268.47 791.75,267.55C790.44,267.52 789.39,268.1 788.34,268.86Z" style="fill-rule:nonzero;"/>
        <path d="M788.44,268.96C787.44,268.96 786.53,269.06 785.63,270.07C786.83,270.07 787.64,269.66 788.44,268.96Z" style="fill-rule:nonzero;"/>
        <path d="M776.29,270.27C776.06,270.14 771.44,271.69 757.49,276.7C759.2,278.3 760.4,276.09 761.71,277C759.51,279.7 749.6,282.09 773.97,274.59C770.35,274.39 767.14,276 763.72,276.5C764.7,275.4 776.67,270.49 776.29,270.27C777.29,270.37 778.1,269.96 778.8,269.26C777.89,269.36 776.99,269.56 776.29,270.27Z" style="fill-rule:nonzero;"/>
        <path d="M779.7,272.07C778.9,271.77 778.39,272.37 777.59,272.67C778.59,273.08 779.2,272.57 779.7,272.07Z" style="fill-rule:nonzero;"/>
        <path d="M756.28,241.02C752.37,243.46 755.14,243.87 756.78,241.52C756.63,241.37 756.37,241.22 756.28,241.02Z" style="fill-rule:nonzero;"/>
        <path d="M755.79,248.16C757.09,248.06 757.9,247.55 758.7,247.05C757.69,246.95 756.89,247.15 755.79,248.16Z" style="fill-rule:nonzero;"/>
        <path d="M710.05,272.78C710.76,272.98 711.26,273.08 711.66,273.28C711.36,272.68 710.86,272.47 710.05,272.78Z" style="fill-rule:nonzero;"/>
        <path d="M708.55,256.49C708.87,256.71 709.56,256.72 709.35,256.29C709.05,256.19 708.75,256.09 708.55,256.49Z" style="fill-rule:nonzero;"/>
        <path d="M714.07,273.88C712.97,273.08 712.26,273.28 711.76,273.28C712.36,273.48 712.86,273.58 714.07,273.88Z" style="fill-rule:nonzero;"/>
    </g>
</svg>
