<?xml version="1.0" encoding="UTF-8" standalone="no"?>
<!DOCTYPE svg PUBLIC "-//W3C//DTD SVG 1.1//EN" "http://www.w3.org/Graphics/SVG/1.1/DTD/svg11.dtd">
<svg width="100%" height="100%" viewBox="0 0 900 600" version="1.1" xmlns="http://www.w3.org/2000/svg" xmlns:xlink="http://www.w3.org/1999/xlink" xml:space="preserve" xmlns:serif="http://www.serif.com/" style="fill-rule:evenodd;clip-rule:evenodd;stroke-linejoin:round;stroke-miterlimit:2;">
    <g>
        <path d="M325.14,339.46L325.04,339.36C325.11,339.31 325.1,339.26 325.14,339.46Z" style="fill-rule:nonzero;"/>
        <path d="M145.83,502.24C151.4,487.1 153.63,487.96 152.87,487.96C154.06,484.14 154.69,486.79 179.18,485.41C205.3,483.93 203.22,486.86 219.57,485.72C223.89,479.24 228.07,476.45 236.71,459.81C239.42,454.6 236.82,443.37 241.1,433.7C243.13,429.11 245.89,424.93 247.02,419.83C245.08,417.38 243.85,414.12 244.37,411.26C245.82,403.34 241.46,394.48 246.51,381.48C251.28,369.2 260.81,373.4 268.85,370.57C275.65,368.17 280.42,372.11 285.78,376.49C283.84,369.27 278.27,365.87 279.05,361.6C281.29,365.99 284.46,368.74 287.92,370.58C289.25,370.99 288.53,369.46 289.25,369.76C294.25,375.06 294.45,382.2 297.21,388.42C290.59,389.08 296.62,375.3 284.56,369.86C287.11,373.84 287.52,378.22 291.5,381.28L289.46,381.28C291.11,386.85 291.96,381.71 292.52,398.52C296.09,398.52 299.66,396.99 303.74,398.93C299.15,400.36 294.97,400.15 291.09,400.97C288.64,403.32 286.81,405.76 287.11,409.33C288.57,409.92 293.06,408.06 296.7,409.33C293.03,411.17 289.36,410.55 286.3,412.29C285.89,414.84 284.26,417.08 284.06,419.84C295.08,419.33 305.78,417.7 316.09,419.33C318.84,414.13 315.99,409.54 315.48,404.85C312.73,401.89 308.85,400.57 305.48,398.42C306.09,397.4 306.5,397.5 307.01,397.6C329.05,403.75 311.84,420.96 326.39,431.67C333.25,436.08 331.55,437.4 333.63,437.99C339,439.53 344.48,440.19 354.33,431.97C355.04,429.22 356.06,426.46 355.96,423.61C347.8,419.84 339.64,417.08 330.97,415.76C339.13,414.23 346.68,415.86 354.02,419.02C354.73,418.61 354.73,417.29 355.96,417.9C358.51,420.55 359.48,422.82 358.61,424.94C356.96,428.97 356.53,440.84 354.63,445.75C351.74,453.21 353.42,464.26 355.45,471.96C360.92,492.78 358.07,495.79 362.69,514.29C362.79,515.11 362.78,516.02 362.59,516.84C360.89,523.96 361.98,531.12 361.88,537.65C365.76,541.42 370.55,539.28 374.53,541.12C374.63,539.18 373.71,537.14 374.33,535.2C376.37,533.26 379.33,533.87 381.47,532.45C382.39,527.04 381.89,521.44 383,516.13C394.57,460.78 395.71,461.43 393.61,429.44C392.08,431.48 392.28,434.03 389.73,435.76C391.46,432.6 391.16,429.33 393.61,427.7C393.61,424.53 394.21,416.66 392.08,413.42C389.45,409.43 389.63,405.46 391.67,401.38C381.66,378.28 383.17,375.47 369.13,373.43C366.89,373.1 364.34,372.72 362.81,375.16C361.79,375.16 361.18,373.73 359.85,374.14C352.03,376.57 345.71,377.18 341.59,393.01C337.78,407.67 322.19,406.56 330.47,420.75C336.18,430.53 333.34,432.93 339.14,437.07C341.18,437.48 342.61,435.85 344.44,436.87C339.65,439.93 334.38,438.09 333.22,432.48C330.9,421.26 319.82,413.56 330.98,404.64C340.58,396.96 335.25,399 343.83,382.41C348.87,372.66 364.58,368.25 375.14,372.62C371.16,365.28 365.35,360.79 358.72,356.91C349.64,360.58 339.95,362.83 330.88,366.8C338.94,361.5 348.52,359.86 356.99,355.78C355.26,351.6 351.6,349.33 348.01,347.21C344.86,345.35 342.2,342.58 338.12,342.31C336.29,342.19 335.16,340.58 334.96,338.94C333.63,338.33 332.51,339.86 331.7,338.43C332.41,336.7 334.05,338.74 335.07,337.21C334.32,331.99 335.67,331.29 328.34,331.29C329.54,334.73 326.44,331.49 319.26,336.19C321.91,336.39 323.95,335.37 325.69,336.8C325.99,337.79 326.09,338.69 325.15,339.3C324.45,335.19 318.49,339.75 314.98,337.62C317.17,335.15 317,335.37 317.12,335.68C319.16,335.07 318.04,333.54 318.45,332.21C316.79,332.63 317.09,333.79 316.98,334.7C316.38,335.3 315.76,330.52 312.33,334.46C309.78,331.2 306.72,334.26 303.97,333.54C302.07,337.83 302.76,334 300.81,333.85C298.77,334.05 296.63,333.75 294.49,334.26C293.98,335.48 296.12,336.3 294.8,337.52C293.71,337.33 293.67,335.68 292.35,335.79C291.94,336.71 292.96,337.93 291.94,338.75C290.72,338.75 291.02,337.22 290.31,336.81C287.29,341.03 290.12,333.48 286.03,334.46C285.32,335.79 286.64,336.81 285.83,337.93C284.2,337.32 284.71,334.56 282.57,334.56C281.65,335.27 282.88,336.6 281.65,337.42C281.14,336.5 281.14,335.38 280.02,335.07C279.2,335.68 280.53,337.01 279.1,337.42C277.88,337.01 278.59,335.18 277.26,335.18L251.05,335.18C251.46,335.59 251.25,336.71 252.78,337.12C263.84,336.3 266.82,335.63 270.22,336.51C272.14,337.01 283.97,339.97 285.57,342.37C286.57,340.77 292.95,342.05 299.08,339.16C301.02,338.25 302.96,337.32 304.38,337.43C306.01,336.72 304.58,335.49 306.01,335.08C306.42,336.2 306.62,337.83 308.56,336.92C309.48,336.31 308.15,334.98 309.27,334.37C310.29,335.08 309.36,336.21 309.88,337.02C310.48,337.95 312.33,337.22 312.53,338.86C297.27,340.13 295.18,344.04 285.84,342.68C289.5,345.83 284.75,343.92 280.3,342.02C267.76,336.66 264.58,337.4 255.11,338.14C239.59,339.36 249.52,338.18 250.32,335.59C247.57,338.24 246.95,335.9 246.04,334.57C245.22,335.49 245.12,336.61 243.9,337.02C242.27,336.2 240.43,335.39 240.33,332.84C238.9,333.96 240.13,335.49 239,336.61C236.45,336.92 233.8,337.83 231.04,338.75C229.92,343.75 228.54,348.7 224.31,352.11C221.81,354.13 224.77,358.54 223.19,363.53C220.04,373.5 229.4,378.13 223.29,384.23C223.8,379.44 222.04,376.08 220.94,372.5C218.49,364.51 221.95,363.31 221.35,359.14C220.7,354.66 221.66,350.78 226.14,348.02C224,346.59 224.32,344.86 224.3,343.12C224.3,343.02 225.45,286.6 225.93,281.21C226.53,274.44 223.52,269.32 221.65,265.4C206.8,234.28 216.05,214.33 214.31,218.69C211.59,214.61 207.28,201.32 207.37,193.29C207.61,189.95 206.59,189.14 202.68,175.03C195.88,150.49 201.86,140.76 204.31,123.83C204.5,122.5 204.82,121.28 205.64,120.06C207.88,121.69 205.03,124.65 207.37,126.08C206.66,127.41 204.52,127.92 205.02,129.65C205.74,132.1 204.31,133.93 203.8,136.08C197.99,160.27 209.05,183.86 209.31,197.89C209.41,203.5 212.57,209.01 214.51,214.82C217.77,208.7 218.39,208.09 221.24,207.48C218.28,210.53 216.4,214.21 214.66,217.93C218.01,217.31 213.48,222.26 217.67,246.85C218.16,249.71 218.59,252.56 220.42,255.52C224.7,250.83 229.93,247.69 234.29,243.38C236.76,240.94 233.72,240.74 238.57,237.77C236.73,235.22 237.55,232.47 237.65,229.61C239.08,231.34 238.57,233.59 239.38,235.63C254.7,213.5 245.98,198.09 246.42,186.16C246.65,179.94 243.77,175.86 239.69,171.98C238.67,173.51 240.4,175.04 238.67,176.57C236.96,172.72 240.13,155.75 238.77,141.48C235.92,111.61 229.51,111.99 232.24,110.17C236.46,111.09 242.57,131.64 241.22,143.83C240.41,151.07 241.03,158.43 240.3,165.66C240.12,167.4 240.09,169.23 241.52,170.45C246.31,174.54 250.09,179.53 255.09,183.51C257.64,175.55 255.7,167.9 254.78,160.05C253.05,160.36 252.54,162.4 250.7,162.19C250.09,158.31 247.23,154.44 251.41,150.77C248.91,148.14 249.66,147.81 253.04,123.44C253.14,122.73 253.14,122.01 253.75,121.5C256.9,118.55 261.37,108.24 270.89,110.28C273.34,109.26 274.05,106.1 276.7,106C278.54,106.61 278.13,108.04 278.64,109.37C279.46,106.82 280.37,104.47 283.23,104.07C284.15,105.8 282.11,106.52 282.52,108.05C284.46,107.54 285.78,105.91 287.93,105.81C290.6,112.67 293.06,106.35 289.77,112.95C290.38,113.77 290.89,115.3 291.61,115.4C298.05,116.24 299.91,137.93 298.75,140.49C299.94,143.47 305.78,145.94 300.69,154.36C299.04,157.1 301.08,160.06 296.81,160.58C294.11,160.91 295.52,176.89 296.4,180.98C300.58,176.08 302.11,169.66 308.13,167.41C308.44,164.25 307.82,161.29 308.84,158.43C309.66,163.53 310.17,168.63 309.76,174.04C305.18,172.16 313.36,161.56 299.46,182.4C320.93,230.36 311.55,211.65 316.8,203.51C319.12,212 310.86,214.07 317.82,223.27L317.82,218.81C319.84,221.01 318.48,222.14 317.96,223.38C321.73,231.91 327.13,239.13 334.65,244.72C339.18,232.36 336.42,223.34 333.73,212.59C330.97,201.56 352.61,173.06 346.79,134.87C346.46,132.73 346.18,130.69 348.01,129.06C341.96,116.06 353.09,114.99 337.3,80C337.15,79.66 312.56,27.13 309.15,25.74C307.72,26.96 305.89,27.27 304.05,28.19C305.17,29.31 307.52,28.09 307.72,30.54C297.42,27.68 287.42,25.34 278.86,33.29C277.53,32.98 278.45,31.96 277.64,31.76C276.72,31.76 275.91,32.07 275.29,32.88C280.39,35.63 280.39,35.63 281.31,37.67C277.74,36.04 274.48,32.77 270.4,35.73C273.62,43 274.13,42.31 288.96,41.24C290.19,41.15 291.61,40.73 292.73,42.36C288.34,43.69 284.16,44.3 279.47,44.09C278.35,49.9 277.43,55.62 276.82,61.63C276.92,61.66 298.63,68.43 299.87,73.26C304.11,89.75 282.04,87.26 265.29,84.17C257.03,82.65 248.66,81.11 240.4,78.05C238.87,83.56 238.36,89.07 236.12,94.06C233.88,99.06 234.49,104.77 231.43,109.46C231.43,95.48 238.25,88.8 239.79,61.73C240.25,53.57 244.07,46.53 247.03,40.01C253.15,37.77 258.96,38.38 264.37,36.44C269.78,34.5 273.86,30.22 279.57,28.38C275.8,26.14 272.33,25.73 268.96,28.18C267.23,29.44 266.05,28.87 260.29,26.85C264.1,25.37 267.45,28.52 269.06,25.63C265.49,23.49 261.51,24.92 258.15,24.3C257.03,23.48 258.15,23.08 257.95,22.57C250.71,20.73 243.87,18.29 238.47,12.78C233.56,17.69 230.8,19.83 231.84,22.98C236.16,36.11 214.79,54.6 210.83,85.5C210.03,91.72 206.34,97.23 206.34,103.65C206.34,116.96 206.51,117.21 204.81,118.44C205.12,113.34 203.79,108.44 204.1,103.34C204.62,94.57 208.5,86.51 210.02,77.84C214.54,52.06 232.84,37.53 229.7,23.99C229.09,21.34 229.89,18.15 232.56,16.14C242.37,8.73 235.48,0.87 248.27,0.13C265.94,-0.89 292.15,4.46 305.59,11.15C312.17,14.42 310.58,18.07 310.18,23.7C318.56,30.94 313.38,29.27 316.3,33.8C327.77,51.61 330.35,55.26 348.02,101.93C351,109.8 345.86,107.24 348.53,122.94C348.59,123.32 352.94,148.89 350.88,159.15C344.84,189.12 331.8,201.87 337.82,218.92C342.7,232.73 339.12,236.01 328.84,280.52C326.37,291.23 329.05,278.25 328.23,299.69C328.1,302.95 327.12,306.22 327.52,309.48C328.05,313.86 327.31,318.25 326.91,322.54C326.81,323.66 326.6,325.29 324.36,325.09C330.4,255.07 319.45,313.21 334.15,248.08C304.55,221.51 302.9,187.11 296.82,184.23C296.68,187.45 299.86,209.38 294.78,187.8C293.25,189.33 292.84,191.37 291.01,192.39C290.45,190.44 295.13,184.97 293.36,180.05C290.65,172.52 295.23,164.57 290.71,174.13C287.14,181.68 280.17,185.67 275.41,182.6C272.4,180.65 269.84,187.47 265.21,181.07C263.5,178.71 261.44,176.68 258.78,174.64C258.58,178.82 257.96,182.6 257.05,186.37C259.37,187.6 265.12,194.24 265.15,194.35C264.86,194.35 264.6,195.76 263.07,194.23C260.42,191.58 256.95,190.05 253.69,187.8C257.57,202.59 275.21,218.91 283.57,216.36C283.81,205.13 269.93,199.58 268.68,196.68C267.3,196.51 266.55,194.87 265.26,194.4C267.42,193.73 268.43,196.5 268.88,196.28C273.47,197.3 275.92,202.71 281.32,202.3C282.75,200.57 283.67,198.32 285.91,196.69C287.54,201.38 282.14,201.79 281.32,204.44C282.75,208.72 285.6,211.89 286.11,216.37C294.17,213.11 297.84,207.6 297.13,199.13C299.58,202.9 298.93,208.37 295.91,210.96C292.9,213.53 289.52,220.53 280.41,218.2C263.97,214.01 259.24,204.04 254.61,196.88C252.09,192.98 250.02,188.92 251.04,184.13C239.39,172.48 262.88,204.27 241.04,236.96C239.74,238.91 238.59,240.84 238.18,243.18C235.53,245.22 236.85,249.2 235.22,250.22C232.95,246.24 241.31,240.92 221.76,257.36C240.31,300.65 230.98,289.9 234.92,303.26C237.03,310.41 238.9,317.64 237.98,325.29C237.18,328.5 260.34,328.39 274.29,331.72C276.85,332.33 288.76,329.4 308.87,330.6C317.76,331.13 318.47,328.22 322.13,327.64C324.17,327.32 326.11,327.03 326.92,324.78C328.96,325.7 327.94,327.64 328.76,328.76C331.41,329.58 335.02,327.82 336.72,331C338.07,333.54 338.76,336.51 337.43,339.57C355.65,345.82 355.29,351.41 368.54,358.74C371.58,359.75 396.21,391.03 392.71,403.72C391.89,406.68 392.49,409.23 393.93,411.78C397.74,418.51 394.5,416.56 396.28,430.04C401.5,469.66 382.65,513.4 384.55,531.42C385.88,532.13 387.3,531.32 388.43,532.24C390.67,535.61 391.69,538.97 389.04,542.64C388.9,542.71 392.24,547.2 394.14,549.17C400.71,555.97 396.49,556.39 405.16,564.47C409.54,568.55 412.83,573.53 417.4,577.42C419.88,579.53 418.23,581.05 419.44,585.89C417.5,589.05 414.34,589.67 411.18,589.87C391.24,591.14 386.63,589.86 378.64,586.61C367.04,581.88 373.86,578.06 364.97,576.82C360.05,576.13 346.41,570.3 345.18,565.7C345.28,563.15 347.32,561.42 348.04,559.07C351.4,548.02 351.32,533.09 359.67,532.65C359.67,518.77 357.89,484.2 351.61,466.97C346.13,451.93 355.05,445.12 353.75,433.92C339.39,445.05 325.7,437.52 325.7,434.02C321.31,430.35 317.03,426.57 313.97,421.58C310.6,422.5 307.44,422.19 304.38,422.8C305.14,433.88 307.43,434.98 283.47,453.09C282.25,463.6 284.49,473.28 286.53,482.97C318.42,483.91 326.72,474.24 331.1,501.94C331.21,502.65 331.41,503.47 330.28,503.88C327.45,499.86 326.75,503.92 322.32,503.57C314.37,502.95 306.51,503.82 298.56,503.77C286.06,503.69 298.12,498.85 309.68,548.04C316.31,548.65 319.11,550.1 319.98,553.14C320.36,554.47 320.8,556.1 318.35,557.53C319.27,549.78 314.07,549.98 309.58,549.88C308.36,548.76 307.76,547.63 307.44,546.51C293.64,498.51 290.8,507.62 287.04,500.1C283.88,500.81 282.24,502.44 281.33,505.1C279.79,509.58 277.75,513.87 276.94,518.56C276.01,523.96 272.96,528.66 272.15,534.17C271.43,539.06 270.11,543.66 267.66,548.04C270.99,555.18 262.49,560.76 268.48,571.29C273.03,579.29 276.47,594.3 269.81,595.87C267.54,596.41 255.34,597.78 245.23,596.69C234.93,595.58 226.28,594.44 228.81,584.04C230.12,578.63 225.47,581.39 231.67,563.54C235.39,552.83 232.77,543.34 237.48,545.28C236.15,549.56 236.86,554.15 235.85,558.64C235.03,562.31 233.4,565.78 232.28,569.35C230.45,575.16 231.36,581.18 230.55,586.99C229.74,591.05 237.34,594.36 241.79,594.62C241.6,594.51 241.41,594.31 241.26,593.93C253.8,591.42 257.64,586.43 265.84,593.52C265.33,593.32 264.62,593.52 264.21,593.32C259.21,590.46 254.2,590.93 249.11,593.01C245.67,594.42 243.6,594.37 242.58,594.67C268.93,595.87 244.44,594.7 266.03,594.36C265.44,592.71 267.29,593.98 267.5,594.36C273.74,594.47 273.25,576.28 262.27,572.5C264,570.87 265.23,572.91 266.55,572.4C263.49,566.99 262.66,561.48 265.12,555.88C266.64,552.41 263.39,549.76 264.3,546.29C252.29,546.29 261.98,536.65 255.53,533.23C242.9,536.57 244.74,531.68 242.98,540.47C242.57,543.84 240.23,544.86 237.06,543.12C237.67,541.18 239.81,541.69 241.04,540.37C244,528.13 242.47,515.79 240.84,503.55C237.56,502.11 158.01,507.32 152.9,506.07C182.2,504.87 211.12,503.94 240.13,502.02C239.01,488.76 237.89,475.71 236.76,462.34C232.68,471.83 226.97,480.19 220.64,488.25C219.06,489.83 197.21,487.95 195.04,487.74C188.22,487.08 165.42,489.92 153.04,487.96C153.79,488.84 153.51,488.49 152.52,488.97C152.52,492.5 150.38,495 147.32,502.43C148.81,503.92 150.8,504.57 151.84,505.76C149.73,505.07 147.86,503.86 145.83,502.24ZM250.89,146.18C249.77,147.2 251.09,147.4 251.4,148.53C252.01,147 251.8,146.38 250.89,146.18ZM250.17,155.05C250.78,156.78 251.19,157.91 251.9,159.54C253.74,156.79 251.8,156.28 250.17,155.05ZM297.5,156.89C298.72,154.44 300.76,153.12 300.36,150.57C298.92,152.2 297.09,153.63 297.5,156.89ZM297.5,146.18C298.62,145.98 299.03,145.47 298.62,144.04C297.8,144.65 297.19,145.06 297.5,146.18ZM240.89,76.21C249.08,79.63 267.55,83.89 285.05,84.47C296.84,84.86 297.4,81.86 298.21,77.64C278.73,80.5 260.37,75.91 241.91,70.81C240.79,72.44 240.89,74.28 240.89,76.21ZM241.81,67.95C253.44,74.89 290.77,79.27 298.21,74.17C291.99,67.85 283.52,67.54 276.59,63.77C274.18,65.18 276.28,71.72 269.65,71.32C264.65,71.02 259.86,69.89 255.68,66.42C258.13,65.09 257.82,62.95 257.92,60.81C252.82,59.69 247.82,59.69 242.52,59.89C242.22,62.75 241.71,65.4 241.81,67.95ZM247.83,42.86C247.42,47.96 241.71,51.33 243.44,57.55C248.34,58.47 253.54,58.06 258.74,58.47C260.98,52.35 261.9,46.13 262.21,39.7C257.21,39.7 252.62,40.31 247.83,42.86ZM267.92,36.95C263.34,38.48 264.25,47.56 262.72,54.29C259.64,67.83 259.7,59.94 259.25,67.14C262.72,69.08 266.49,69.59 270.27,69.79C275.34,70.06 273.83,60.62 277.1,44.9C273.02,43.57 269.14,41.64 267.92,36.95ZM296.88,26.95C303.83,27.02 308.44,26.28 308.61,20.42C285.05,22.46 262.81,17.97 241.4,8.18C233.65,20.07 282.53,26.81 296.88,26.95ZM287.6,18.38C287.6,18.66 287.14,18.58 290.66,18.58C290.66,18.31 291.12,18.38 287.6,18.38ZM282.91,17.87C281.69,17.56 280.77,17.46 279.95,17.26C280.67,18.08 281.69,17.97 282.91,17.87ZM279.85,17.26C277.15,16.92 277.5,16.84 277.5,17.26L279.85,17.26ZM300.05,10.94C279.26,2.56 233.76,-2.84 244.77,7.17C244.87,5.74 243.24,5.54 243.75,4.42C244.57,3.91 244.87,4.32 245.48,5.03C250.16,11.66 297.85,21.13 306.98,15.84C308,16.76 307.08,17.27 306.98,17.88C308.25,18 312.52,15.97 300.05,10.94ZM273.73,121.6C272.21,124.13 274.04,124.4 274.04,123.03C274.04,122.82 273.83,122.42 273.73,121.6ZM291.48,125.78C292.5,125.88 293.01,125.88 293.42,124.96C292.5,124.66 291.89,124.46 291.48,125.78ZM258.23,168.52C259.62,174.34 263.97,178.27 268.94,181.37C270.07,182.07 271.6,181.81 272.92,181.47C277.43,180.31 285.29,183.46 288.53,173.21C288.9,172.03 291.2,164.18 292.1,163.32C299.32,156.35 291.59,138.41 291.49,132.72C291.43,129.51 287.95,130.7 289.45,126.7C285.44,130.05 288.04,126.59 285.88,126.29C276.46,124.99 277.54,129.87 273.23,127.11C270.05,125.06 263.85,125.43 264.25,128.23C263.03,128.23 263.64,127.01 262.82,126.9C262.33,127.14 253.46,141.12 254.56,153.72C254.8,156.54 255.1,155.39 258.23,168.52ZM234.06,313.14C230.62,301.63 231.18,288.43 228.76,286.01C229.98,300.27 230.9,307.28 229.07,317.32C226.17,333.18 230.12,334.22 226.83,344.45C226.53,345.37 226.01,345.88 226.63,346.8C228.87,344.15 228.06,340.48 230,337.62C231.22,337.31 232.55,336.91 234.28,336.4C232.46,329.87 235.51,317.99 234.06,313.14ZM235.38,318.96C234.87,319.47 234.97,320.08 235.28,321C235.69,320.08 235.59,319.57 235.38,318.96ZM234.87,329.06C233.85,331.3 234.46,333.34 235.48,335.79C235.89,333.24 235.38,331.2 234.87,329.06ZM238.34,328.75C236.02,334.56 260.04,333.25 265.37,332.93C244.08,330.57 249.62,331.31 238.34,328.75ZM290.26,334.87C290.67,335.58 291.38,335.99 292.1,336.2C292.4,334.46 291.48,334.46 290.26,334.87ZM321.47,330.48C320.45,331.7 320.55,332.52 320.96,333.44C322.69,332.83 322.08,331.91 321.47,330.48ZM325.44,329.36C324.73,330.48 324.73,331.3 325.24,332.32C326.87,331.3 326.16,330.48 325.44,329.36ZM346.25,566.4C352.57,570.07 358.08,573.95 365.22,575.38C364.51,572.01 363.08,569.57 360.73,567.63C363.38,567.32 363.37,567.23 364.4,568.55C376.67,584.1 376.39,590.45 412.03,588.85C413.87,588.77 416.33,588.75 416.16,585.98C414.41,588.24 410.94,580.93 401.52,586.42C400.45,587.04 399.38,588.08 397.75,587.32C404.49,582.14 408.37,581.72 416.11,585.43C416.11,575.85 418.75,586.63 401.93,567.42C397.06,568.57 394.44,569.98 393.23,567.64C395.24,565.69 397.85,566.77 400.09,566.29C399.59,563.43 397.43,564.69 393.19,565.5C393.53,565.03 394.67,564.46 392.2,565.69C388.6,566.38 387.34,567.07 386.33,565.16C388.88,561.9 393.06,562.71 396.94,560.98C393.24,560.53 389.92,562.03 386.59,562.13C386.71,562.04 386.85,561.96 386.98,561.88C386.6,561.96 386.21,562.04 385.77,562.13C384.49,562.07 383.64,561.95 383.15,561.22C384.17,557.1 390.08,558.16 392.96,556.49C389.77,556.12 382.28,559.48 380.59,556.51C382.18,554.08 385.26,554.8 387.05,552.92C382.3,552.92 378.9,554.33 377.51,553.83C376.42,552.95 376.55,550.81 374.6,551.75C372.68,549.41 381.46,546.87 385.41,546.4C387.55,546.15 388.27,545.28 388.57,543.75C383.97,545.28 389.05,542.69 386.63,535.17C371.42,537.41 376.25,539.12 379.11,545.34C380.02,547.31 379.68,546.62 377.94,545.75C374.22,543.88 368.82,543.82 366.13,546.69C364.6,548.32 362.56,549.24 360.11,549.75C359.29,548.73 358.18,547.9 356.85,547.3C355.43,546.67 355.01,545.16 353.99,543.83C350.53,551.2 352.78,559.97 346.25,566.4ZM386.16,556.71C385.6,556.89 385.04,557.1 384.48,557.29C385.04,557.12 385.6,556.91 386.16,556.71ZM359.31,536.61C355.94,536.1 355.84,536.2 354.52,541.51C357.38,541.31 355.74,538.04 357.78,537.53C359.31,538.24 357.78,539.88 359,540.79C359.51,539.37 359.2,537.94 359.31,536.61ZM356.65,543.14C356.65,545.98 361.79,548.75 365.22,544.26C365.05,543.4 365,543.68 361.45,541.71C360.53,542.73 361.55,544.57 359.92,545.18C358.69,544.98 359,542.22 356.65,543.14ZM317.9,424.83C317.19,423.2 316.88,422.18 315.45,422.69C315.55,424.01 316.57,424.01 317.9,424.83ZM246.81,418.3C248.03,416.36 247.32,415.04 246.4,413.3C245.89,415.24 246.5,416.46 246.81,418.3ZM294.23,423.3C290.76,424.42 286.78,422.69 283.32,425.24C283.42,424.53 283.52,424.02 283.63,423.4C280.16,424.93 279.35,428.6 280.98,435.95C296.06,422.82 294.92,424.32 294.23,423.3ZM310.86,421.16C306.26,419.63 307.91,419.82 303.62,421.77C306.06,422.38 308.31,421.46 310.86,421.16ZM301.27,436.05C302.85,434.11 302.37,425.44 301.68,422.18C297.61,420.7 296.76,425.11 281.18,437.58C280.98,442.58 282,447.37 282.61,452.68C289.85,447.88 296.02,442.51 301.27,436.05ZM291.89,489.19C290.46,490.11 288.73,489.19 287.4,489.9C286.22,494.26 287.86,503.43 293.83,503.47C319.02,503.63 324.25,501.34 328,501.23C322.64,482.24 326.14,493.78 319.53,486.24C317.29,483.68 305.12,486.9 286.69,485.42C285.27,490.71 289.22,487.76 291.89,489.19ZM278.12,508.16C280.28,505.11 280.56,501.02 284.34,500C281.34,499.64 280.6,477.91 280.46,476.54C282.96,478.81 282.71,503.28 286.39,499.78C285.06,490.09 283.84,480.81 281.6,471.02C281,473.23 280.01,474.65 280.46,476.54C278.15,478.85 279.14,479.81 278.02,482.03C272.45,493.03 275.98,496.61 278.12,508.16ZM265.37,537.23C267.51,540.09 266.29,543.15 266.19,546.31C267.92,543.76 268.82,540.9 269.45,538.05C273.47,519.99 278.72,517.76 274.96,505.21C268.14,504.41 270.11,503.4 267.72,513.78C265.56,523.13 265.32,537.12 265.37,537.23ZM274.55,502.55C274.55,500 273.94,497.96 272.92,495.51C271.8,497.86 270.98,499.9 270.37,502.24C271.79,502.45 273.02,502.45 274.55,502.55ZM261.29,544.98C262.31,545.69 263.13,545.59 263.94,545.29C264.45,543.96 263.94,542.64 264.14,541.01C258.34,539.76 262.03,542.75 261.29,544.98ZM243.54,532.94C248.33,534.47 253.13,531 257.51,533.65C258.63,532.02 257.61,530.18 258.94,528.75C260.78,531.81 258.53,535.48 261.18,538.75C266.73,542.45 258.85,527.27 269.14,498.97C288.3,446.27 278.22,468.31 278.22,429.21C277.1,428.7 277.2,430.43 276.18,430.13C275.85,425.77 280.98,428.76 284.03,410.14C284.35,408.2 285.15,406.47 286.27,404.84C297.59,388.41 278.58,371.25 269.75,373.83C258.49,377.13 253.74,374.11 249.86,380.15C241.84,392.64 245.99,398.22 246.09,409.93C246.1,411.56 247.21,412.48 248.44,413.6C249.77,410.54 248.24,407.99 248.03,405.34C253.63,411.22 246.7,415.44 250.17,420.95C243.61,431.89 240.3,468.27 240.28,472.46C240.13,495.8 245.25,502.17 243.54,532.94Z" style="fill-rule:nonzero;"/>
        <path d="M285.46,342.11C285.42,342.08 285.36,342.06 285.36,342.01L285.46,342.11Z" style="fill-rule:nonzero;"/>
        <path d="M317.79,229.92L317.69,229.82C317.79,229.88 317.76,229.88 317.79,229.92Z" style="fill-rule:nonzero;"/>
        <path d="M553.91,488.68C563.37,477.22 573.16,461.36 572.98,458.59C571.74,438.62 578.94,433.27 581.96,422.59C580.02,420.04 578.91,416.78 579.31,414.12C580.91,403.5 576.25,398.3 581.35,384.34C585.69,372.45 594.41,376 603.58,373.32C611.03,371.14 615.64,374.59 621.22,379.75C616.75,369.19 613.85,368.99 613.57,364.86C615.92,367.1 617.45,370.06 620.2,371.49C619.84,373.45 622.75,380.96 625.91,383.53C625.6,384.55 624.99,383.73 624.28,384.45C628.77,389.14 625.71,395.47 627.75,401.08C631.22,401.08 634.69,399.55 638.46,401.49C634.18,403.22 629.99,402.61 626.12,403.63C623.77,405.98 621.73,408.32 622.35,411.89C624.07,412.43 622.85,411.58 631.02,411.58C631.02,413.76 625.73,412.76 621.43,414.84C621.12,417.39 619.39,419.53 619.39,422.49C630.3,421.98 641.01,420.25 651.42,421.98C653.77,416.68 651.32,412.09 650.5,407.29C647.75,404.43 643.77,403.11 639.99,400.56C645.55,399.04 655.54,405.74 654.98,416.88C654.79,420.76 655.08,424.43 656.2,428C653.96,427.59 653.65,424.33 650.28,424.23C652.83,425.9 653.4,428 656.2,428C656.75,431.51 665.02,438.27 668.03,440.24C675.99,445.44 682.93,437.76 688.84,434.94C689.76,431.98 690.68,429.13 690.57,425.86C686.08,425.04 682.42,422.68 678.23,421.27C674.26,419.93 669.87,420.15 665.99,418.31C673.95,417.19 681.49,418.62 688.94,421.88C689.45,421.37 689.45,420.04 690.98,420.66C693.02,422.9 694.05,425.35 692.92,428.92C690.79,435.66 691.53,442.91 688.94,449.62C684.72,460.57 692.36,479.37 693.63,492.36C696.65,523.06 698.56,515.17 697.51,518.78C695.4,526.03 696.8,533.26 696.39,540.1C700.37,543.87 705.26,541.73 709.24,543.67C709.44,541.73 708.32,539.79 708.93,537.86C710.77,535.51 714.03,536.53 716.07,534.9C717.05,533.26 716.74,521.42 718.11,515.73C727.98,474.71 730.91,454.77 728.11,432.5C726.58,433.62 727.29,436.27 724.54,437.7C726.27,435.05 725.76,432.09 728.11,430.46C728.54,430.32 729.28,419.12 725.87,413.94C724.86,412.4 724.21,410.36 724.95,408.74C728,402.07 717.6,379.43 711.59,377.73C704.03,375.59 699.71,374.23 697.51,377.53C696.49,377.43 695.87,376.09 694.55,376.51C689.23,378.2 683.64,379.37 680.68,384.98C674.52,396.65 676.58,401.48 667.62,408.03C657.3,415.59 667.35,423.75 669.25,432.3C669.95,435.46 671.49,437.81 673.94,439.34C675.78,439.75 677.31,438.22 679.14,439.14C674.45,442.2 668.96,440.16 667.92,434.65C667.02,429.85 664.44,425.88 662.51,421.7C655.93,407.43 670.56,407.57 673.02,397.83C674.23,393.03 676.39,388.85 678.63,384.47C683.45,375.05 699.33,370.23 710.04,374.88C705.86,367.54 700.15,362.84 693.41,359.07C684.33,362.74 674.75,364.99 665.77,368.86C673.83,363.56 683.41,362.03 691.88,357.84C690.15,354.07 686.98,351.72 683.62,349.88C680.26,348.04 677.49,344.88 673.22,344.47C671.48,344.31 669.96,343.04 669.96,341.1C668.94,340.08 667.41,342.12 666.49,340.49C667.41,338.96 668.94,340.9 669.96,339.27C669.31,334.75 670.85,333.56 663.84,333.56C661.7,337.13 656.7,335.09 654.56,338.56C656.7,338.66 658.84,337.54 660.68,339.17C661.76,342.56 649.74,350.46 639.77,362.22C638.74,363.44 638.04,365.18 636.2,366.2C637.15,356.41 659.96,341.92 659.76,340.29C656.8,338.15 653.23,341.72 650.27,339.88C650.27,337.53 654.96,337.64 652.62,334.37C651.8,334.88 652.72,336.21 651.29,336.41C649.76,333.15 648.43,335.49 647.01,336.61C646.09,335.39 645.07,334.26 643.44,335.59C643.57,335.46 639.55,335.65 639.05,335.69C638.03,336.2 638.85,337.53 637.72,337.73C635.37,334.26 632.21,336.3 629.05,336.1C629.25,337.43 630.48,338.34 629.66,339.57C627.82,339.06 627.82,336 625.38,336.31C627.22,338.55 627.62,340.08 626.5,340.8C625.48,340.6 626.09,338.86 624.97,338.86C624.36,339.17 624.77,340.19 623.75,339.98C622.73,338.86 623.75,335.7 620.49,336.51C620.59,337.73 621.31,338.96 620.59,340.08C619.06,339.26 619.47,336.71 617.22,336.51C616.71,337.53 617.73,338.75 616.81,339.57C615.69,339.16 616.2,337.43 614.87,337.12C613.95,337.63 615.18,339.06 614.05,339.47C612.93,339.06 613.34,337.33 612.11,337.33C582.03,337.33 585.52,336.41 587.22,339.47C599.66,337.53 611.8,337.53 622.2,346.2C619.85,346.3 617.81,345.19 615.77,344.36C598.24,337.3 595.49,340.48 589.97,340.48C576,340.48 584.51,340.63 585.28,338.44C582.83,339.87 582.02,338.44 581.3,336.91C580.18,337.42 580.38,339.05 578.85,339.26C577.52,338.14 575.28,337.73 575.69,334.98C573.96,336.1 575.38,337.84 574.06,338.96C571.51,339.06 569.16,340.29 566.51,340.8C566.31,341.31 565.99,341.82 565.9,342.23C562.58,356.28 557.09,352.6 558.45,358.65C560.35,367.1 555.24,367.18 559.67,378.23C560.73,380.87 560.79,383.33 558.75,385.88C558.95,381.39 556.66,377.73 555.69,373.64C553.85,365.83 557.28,365.91 556.3,359.26C555.61,354.54 558.3,352.88 561.13,349.63C555.78,348.46 565.6,284.13 557.83,269.61C551.71,258.17 548.44,248.05 547.94,228.51C547.85,224.84 549.47,221.68 550.69,218.31C550.49,231.47 550.69,244.62 555.59,257.27C562.46,248.46 564.41,255.32 577.72,232.49C586.27,217.83 583.82,207.15 581.49,188.84C580.62,181.99 581.03,187.78 567.31,177.01C569.76,192.62 569.25,207.61 574.55,221.89C571.78,220.5 565.59,199.27 567.41,196.6C568.03,195.69 567.79,194.67 567.51,193.74C560.77,171.65 570.75,164.78 547.93,135.91C544.65,131.77 546.64,129.07 562.21,151.21C579.05,147.92 584.85,157.04 584.85,138.36L581.08,138.36C580.88,140.4 582.92,139.89 583.83,140.91C582.81,141.42 582.5,142.34 581.89,143.05C579.95,141.21 578.43,138.74 575.67,138.15C573.13,137.61 570.57,139.27 567.61,138.66C572.81,133.66 578.42,137.44 583.73,137.33C583.93,134.07 586.48,131.62 585.46,128.15C578.93,127.54 572.2,126.93 566.49,123.05C588.89,128.3 584.93,127.78 588.62,122.44C586.89,121.93 584.74,122.75 583.72,120.81C584.33,117.65 587.29,119.18 589.43,117.95C583.11,116.83 577.5,118.05 571.89,118.66C585.65,113.5 594.01,117.75 597.49,114.27C600.04,111.72 602.79,111.82 605.75,112.64C608.1,111.62 608.91,108.56 611.36,108.36C613.4,108.87 612.89,110.4 613.3,111.52C614.63,109.38 615.24,106.62 618.4,106.62C618.71,108.66 616.77,109.48 616.56,111.21C618.7,110.29 620.23,108.56 622.88,108.25C623.29,109.98 624.41,111.31 626.14,112.02C625.63,113.35 625.12,114.47 624.71,115.49C625.32,116.41 625.83,117.85 626.44,117.94C631.93,118.72 631.88,128.59 634.29,133.75C652.97,120.26 651.46,117.52 674.99,112.33C680.91,111.03 687.03,110.82 692.94,109.27C696,108.47 698.54,109.78 699.98,112.53C705.88,123.83 700.58,125.52 703.35,131.4C702.94,132.22 702.31,132.93 702.23,133.75C701.6,139.76 699.98,145.68 699.17,151.7C696.76,169.57 692.35,178.13 674.08,204.94C666.56,215.98 677.83,220.74 673.57,242.37C669.81,261.49 661.51,284.43 663.68,291.63C664.27,293.59 662.4,303.42 662.56,310.91C662.69,317.02 662.87,326.21 660.32,327.13C658.11,325.77 661.55,318.31 660.93,314.69C659.62,307.01 662.17,297.64 661.54,292.15C660.03,278.97 664.85,273.23 669.29,249.92C643.8,230.09 638,188.97 632.16,186.38C631.85,190.97 633.28,195.05 633.08,199.95C630.33,196.79 631.14,193.12 629.82,190.06C628.39,191.59 628.09,193.53 626.15,194.34C626.15,192.58 630.32,185.55 628.39,181.18C627.17,178.42 627.98,175.67 627.37,172.92C625.05,179.69 618.68,187.31 611.87,184.96C606.55,183.12 604.2,188.85 600.65,183.63C598.91,181.08 596.88,178.73 594.12,177C591,196.23 591.87,182.66 599.53,196.68C596.27,193.72 592.29,191.99 588.62,189.64C595.01,207.38 610.75,219.98 618.61,218.1C619.02,212.49 616.08,208.7 611.98,205.55C609.99,204.03 604.87,199.3 605.04,199.12C607.59,199.12 609.19,200.98 610.65,202.59C612.35,204.46 614.93,203.3 616.57,204.94C617.37,205.74 615.67,205.87 617.69,209.43C619.25,212.17 620.65,214.84 621.36,218C623.2,217.8 624.55,217.31 625.75,216.06C627.03,214.73 629.28,212.55 629.83,213.1C620.16,231.44 590.46,212.31 585.46,187.7C575.33,180.1 596.55,203.38 577.3,236.66C568.55,251.79 572.09,250.54 569.34,253.29C568.02,249.07 575.51,243.92 556.08,260.33C573.24,294.66 563.73,285.24 572.4,320.3C574.75,329.79 563.08,336.04 600.24,334.78C591.67,333.15 582.8,333.45 574.64,330.09C583,331.62 591.47,332.01 599.93,333.05C604.01,333.55 607.88,335.18 612.17,334.58C648.01,329.58 640.1,338.59 662.15,327.95C663.48,328.77 662.15,330.7 663.17,331.52C666.13,332.44 669.61,330.7 671.33,333.97C675.12,341.18 668.85,342.96 676.53,343.56C679.51,343.79 696.63,356.95 698.87,358.76C711.13,368.67 721.11,380.53 727.12,399.76C729.14,406.22 724.64,408.04 728.55,414.65C732.6,421.51 728.66,416.33 731.3,437.19C734,458.54 730.21,466.21 728.44,477.38C726.62,488.91 724.4,500.44 721.61,511.75C719.8,519.1 719.98,526.74 718.86,533.88C720.39,535 721.92,533.98 723.04,534.9C725.39,538.27 726.2,541.73 723.86,545.3C725.19,547.65 726.64,549.86 728.55,551.52C731.55,554.13 732.43,557.94 734.67,560.9C748.9,579.77 753.38,575.79 754.25,588.85C752.21,592.01 749.05,592.63 745.89,592.83C726.14,594.08 721.68,592.85 713.66,589.67C701.6,584.89 708.82,581.03 699.58,579.67C693.04,578.71 687.55,575.17 682.24,571.61C679.49,569.77 679.34,568.32 681.12,565.39C686.75,556.13 684.56,536.34 694.28,535.61C694.28,510.03 694.61,519.07 691.93,500.83C691.14,495.42 691.52,489.82 690.81,484.51C689.78,476.82 680.75,465.71 686.83,448.51C688.06,445.04 688.56,441.37 688.67,437.39C679.94,441.92 672.42,447.83 661.23,437.8C656.72,433.75 652.15,429.74 648.58,424.95C645.32,425.26 642.15,425.56 638.69,425.97C642.55,438.13 634.12,444.75 618.29,456.16C616.76,466.77 619,476.46 621.25,486.35C655.85,485.35 654.35,485.05 655.72,486.04C661.74,490.37 662.86,492.21 665.31,502.77C665.64,504.19 666.02,505.63 665,507.46C662.63,502.91 661.17,507.08 656.94,506.75C649.2,506.14 641.34,507 633.58,506.95C619.96,506.86 633.36,502.25 644.19,551.11C653.37,552.13 655.82,554.48 654.08,559.98C653.97,559.99 612.89,564.24 602.17,562.33C613.16,558.98 624.12,562.5 652.66,559.37C653.48,549.74 644.1,556.88 642.05,549.48C628.51,500.44 625.81,510.99 621.55,502.87C619.71,503.69 617.88,504.1 617.27,505.52C615.55,509.5 613.27,513.27 612.48,517.66C610.47,528.76 609.14,525.3 606.36,539.79C605.62,543.66 604.52,547.34 602.38,550.81C603.6,553.77 603.18,556.82 602.18,559.89C597.42,574.48 610.17,577.52 607.89,594.87C606.88,602.55 577.02,599.89 570.05,597.93C559.78,595.04 564.41,585.72 564.03,584.67C560.55,575.08 569.37,564.39 568.82,554.07C568.7,551.83 568.82,548.97 572.08,547.75C570.86,552.34 572.16,557.13 570.65,561.62C554.89,608.67 577.47,595.04 604.72,597.42C608.9,587.63 605.74,580.49 597.89,574.98C599.22,573.86 600.24,575.69 601.46,574.98C595.09,562.47 602.68,558.74 600.24,554.17C599.42,552.64 599.32,551.01 599.22,549.38C587.92,548.23 596.59,538.25 590.45,535.92C586.98,537.04 583.21,537.14 579.54,537.55C577.34,545.04 578.33,547.51 572.2,546.02C572.4,543.78 574.95,544.49 576.18,542.86C578.83,530.72 577.51,518.28 575.77,505.73C567.49,505.73 547.82,507.06 523.65,508.08C483.55,509.77 487.69,509.98 480.61,504.61C482.96,499 485,493.7 488.46,488.9C510.56,488.06 532.59,486.84 553.91,488.68ZM583.39,150.77C576.96,155.16 570.23,151.38 563.6,153.32C566.15,160.66 565.74,168.21 567.78,175.45C570,177.39 570.03,176.63 586.14,174.84C585.22,168.72 587.21,162.47 583.79,156.89C582.79,155.25 583.28,153.32 583.39,150.77ZM585.32,151.18C584.81,152.61 584.81,153.73 585.12,155.57C586.14,153.93 587.16,152.81 585.32,151.18ZM586.75,147.51C585.63,148.63 586.44,149.04 586.85,149.75C587.67,148.73 587.16,148.32 586.75,147.51ZM585.83,157.09C586.34,158.31 586.95,159.64 587.46,160.97C588.28,160.36 588.58,159.75 588.48,158.73C588.08,157.6 586.45,157.91 585.83,157.09ZM602.87,123.03C602.11,122.84 601.82,124.57 603.69,123.95C603.27,123.54 603.07,123.03 602.87,123.03ZM609.6,123.95C608.68,124.26 608.48,124.77 609.09,125.48C610.01,125.17 609.6,124.56 609.6,123.95ZM626.63,127.21C628.16,127.82 628.57,127.11 629.38,126.9C628.16,125.68 627.65,126.5 626.63,127.21ZM633.06,147.81C634.18,147.4 634.69,146.89 634.39,145.67C633.26,145.98 633.06,146.69 633.06,147.81ZM633.36,157.6C636.42,153.72 636.42,153.72 635.2,151.28C635.2,154.37 632.86,153.61 633.36,157.6ZM652.23,205.44C653.35,208.5 652.45,211.47 651.31,214.11C647.49,222.95 662.55,241.3 670.38,246.85C673.13,229.74 674,242.2 667.73,204.93C667.51,203.61 667.02,202.28 667.83,200.75C669.46,202.69 669.26,205.24 670.58,207.69C672.14,204.28 682.26,187.4 685.78,182.4C696.34,167.38 696.53,154.14 700.37,134.36C700.69,132.73 700.57,131.2 699.86,129.77C701.39,128.55 701.8,127.22 701.39,125.28C701.32,124.95 700.91,109.03 692.82,110.9C676.03,114.77 660.01,114.15 643.25,128.85C628.83,141.51 637.08,133.8 633.66,142.93C636.21,144.97 637.84,147.62 637.84,151.19C655.14,143.36 656.03,146.58 658.24,143.03C661.68,137.5 666.91,133.85 672.42,129.97C671.12,137.43 661.84,132.56 651,160.98C648.06,168.68 650.61,177.96 648.76,179.44C647.54,177.91 648.86,175.67 647.33,174.03C642.64,176.78 637.84,179.44 634.99,184.64C656.36,231.08 646.72,215.49 652.23,205.44ZM631.32,182.69C637.34,180.14 641.32,174.84 647.44,171.88C645.5,162.8 651.72,155.87 654.38,147.5C648.87,148.62 643.98,150.66 638.67,152.5C637.75,155.15 634.39,157.09 635.2,160.97C635.3,161.28 634.49,162.19 634.08,162.19C628.59,162.55 631.21,176.96 631.32,182.69ZM594.1,170.66C595.58,176.26 599.66,180.22 604.61,183.21C605.82,183.94 607.47,183.62 608.89,183.21C615.31,181.38 616.53,186.86 622.97,177.6C625.14,174.48 625.65,166.72 629.29,163.01C634.29,157.92 627.44,139.71 627.15,134.55C627.03,132.41 624.19,131.49 625.21,128.43C624.09,129.25 623.58,129.65 623.07,130.06C622.15,127.51 620.02,127.35 618.07,127.71C616.24,128.05 614.3,127.71 612.66,129.34C610.52,131.48 608.71,126.43 602.46,127.71C600.93,128.02 600.11,128.63 599.91,129.95C598.58,130.26 599.3,128.62 598.48,128.73C586.59,148.56 590.43,156.82 594.1,170.66ZM589.81,186.57C591.03,185.24 590.63,183.82 591.03,182.39C588.89,181.98 586.44,182.19 585.62,179.02C587.76,179.12 588.99,181.16 591.33,180.45C592.66,174.43 590.51,168.52 590.21,162.4C585.31,163.01 588.45,168.57 587.05,176.78C582.26,176.07 577.67,177.7 572.26,177.9C577.47,183 584.61,182.69 589.81,186.57ZM569.82,316.41C569.06,306.5 567.23,312.33 566.56,296.32C566.37,291.8 562.66,279.02 565.34,299.89C567.19,314.29 563.02,319.11 563.71,334.67C564.14,344.36 562.6,343.3 561.67,349.65C564.42,346.9 563.51,342.71 565.55,339.55C566.57,338.63 568.3,339.04 569.63,337.92C568.6,330.79 570.38,323.65 569.82,316.41ZM570.74,320.49C570.23,321.1 570.23,321.61 570.74,322.12C571.25,321.61 571.04,321.1 570.74,320.49ZM571.04,330.69C569.61,332.53 569.92,334.26 571.04,336.91L571.04,330.69ZM656.82,332.42C655.9,333.54 656.21,334.26 657.23,335.07C658.35,333.85 657.94,333.24 656.82,332.42ZM661.21,330.89C660.19,331.91 660.19,332.73 661.01,334.05C662.13,332.93 661.82,332.01 661.21,330.89ZM697.31,543.24C696.39,544.46 697.11,545.89 695.78,546.71C694.05,547.12 695.17,543.34 692.41,544.87C692.01,547.24 697.33,550.46 700.77,545.69C699.97,544.37 698.23,544.57 697.31,543.24ZM682.01,568.13C688.33,571.5 693.74,575.47 700.88,576.8C700.06,572.92 698.23,570.27 694.86,567.93C698.12,568.13 699.98,569.34 701.39,571.4C715.36,591.84 724.2,590.17 746.88,590.17C748.92,590.17 750.65,589.66 752.29,587.82C748.82,587.51 746.08,584.81 742.6,585.68C739.55,586.44 736.68,587.92 733.62,588.64C739.13,583.74 745.25,582.93 751.77,586.6C752.48,584.87 752.18,583.54 752.18,581.7C746.16,579.15 742.08,573.85 738,569.05C734.74,569.15 732.08,571.29 728.62,569.56C730.86,567.11 733.62,568.13 735.96,567.72C735.36,562.65 724.81,570.22 722.09,566.6C724.64,563.34 728.82,564.05 732.7,562.42C727.7,561.6 723.32,564.97 718.62,562.62C721.17,558.64 725.35,559.46 729.02,557.83C724.43,557.42 720.55,560.48 716.07,558.54C717.8,555.28 721.17,556.09 723.21,554.26C714.01,554.26 713.69,557.61 712.6,553.24C711.89,552.63 710.66,553.95 709.95,552.32C713.42,548.14 719.74,549.16 724.03,546.61C723.32,545.18 722.5,546.1 722.09,545.18C722.8,542.53 723.31,539.67 721.99,536.61C718.73,537.22 715.46,537.83 712.3,538.75C710.36,542.42 713.63,544.46 715.56,547.73C699.21,542.98 704.86,549.55 695.77,551.2C694.04,548.85 690.06,548.75 689.96,544.06C686.3,552.22 688.13,561.19 682.01,568.13ZM693.74,537.53C690.58,538.24 690.88,540.59 690.37,542.94C693.58,542.4 691.37,539.78 693.43,539.17C694.76,539.99 693.53,541.41 694.55,542.74C694.66,540.69 695.89,539.06 693.74,537.53ZM630.1,424.93C626.43,426.26 622.04,423.81 618.78,427.58C617.96,426.56 619.7,425.95 619.09,425.03C615.83,426.97 615.01,431.05 616.74,437.47C631.72,424.41 630.6,425.93 630.1,424.93ZM646.52,423.09C643.77,421.15 641.52,421.66 638.77,424.01C641.73,423.71 644.07,423.4 646.52,423.09ZM618.17,453.69C620,454.39 630.78,444.11 633.78,441.45C637.67,438 638.7,433.8 637.96,429.01C637.66,427.07 637.96,425.24 637.25,423.6C633.26,422.55 632.95,426.09 616.85,439.21C616.74,444.11 617.76,448.9 618.17,453.69ZM627.65,490.92C626.12,491.74 624.39,490.82 622.96,491.53C622.25,497.65 623.37,501.42 627.04,505.1C638.87,505 651.01,504.9 663.25,502.75C662.84,498.87 661.21,495.41 660.39,491.63C658.45,490.51 656.54,489.57 655.09,487.86C652.89,485.27 639.55,488.43 622.45,487.04C621,492.48 624.88,489.36 627.65,490.92ZM613.68,510.2C615.92,505.92 616.54,500.92 621.74,501.33C621.03,491.64 619.19,482.46 617.35,472.77C615.52,475.93 617.3,474.13 610.52,492.05C609.29,495.29 612.29,497.94 613.68,510.2ZM601.85,541.31C602.76,543.46 602.05,545.7 601.65,548.04C603.49,544.57 604.92,541 605.63,537.23C608.12,523.96 614.4,520.58 610.73,507.04C609.2,506.43 607.47,506.63 605.83,506.43C604.17,507.44 599.14,534.91 601.85,541.31ZM608.68,497.04C607.25,499.28 606.74,501.32 606.03,503.57C607.36,504.28 608.68,504.08 610.01,504.18C610.53,502.91 609.01,498.17 608.68,497.04ZM597.16,546.81C597.98,547.32 598.79,547.32 599.71,546.71C599.71,541.58 600.22,542.33 596.04,542.63C597.05,544.06 596.75,545.49 597.16,546.81ZM579.2,509.48C580.79,525.75 579.3,527.65 579.3,534.77C583.99,536.1 588.79,532.93 593.27,535.28C594.29,533.75 593.17,531.91 594.6,530.28C596.8,534.06 593.29,541.54 598.99,540.28C600.26,537.74 596.69,539.19 601.03,513.97C603.45,499.89 609.91,490.19 614.49,473.17C618.8,457.17 614.15,457.11 613.78,430.43C612.45,430.33 612.76,432.27 611.33,432.16C611.84,430.12 612.88,428.21 614.29,426.75C620.39,420.43 617.26,412.05 622.76,405.03C627.41,399.08 627.27,385.61 612.15,376.37C607.57,373.57 606.51,376.18 592.16,377.8C583.34,378.79 579.38,392.57 580.63,401.36C581.98,410.83 580.52,412.4 584.1,415.23C585.53,412.17 583.9,409.72 583.39,406.87C585.63,409.32 586.28,411.26 585.74,414.32C584.03,423.86 586.67,420.95 585.33,423.5C579.15,435.25 576.05,470.25 576.05,475.72C576.04,487.15 578.11,498.26 579.2,509.48ZM582.57,419.42C583.79,417.99 582.98,417.07 582.16,415.75C581.86,417.18 581.96,418.2 582.57,419.42ZM487.82,507.75C517.4,506.53 546.67,505.71 575.94,503.67C574.41,490.31 573.29,477.25 572.47,463.69C568.29,473.48 562.58,481.84 555.44,490.31C545.14,491.43 533.92,488.73 522.7,489.49C511.48,490.25 500.16,490.41 488.94,490.1C480.87,512.08 481.07,499.78 487.82,507.75Z" style="fill-rule:nonzero;"/>
        <path d="M565.23,131.39C566.86,133.33 569.41,132.82 570.94,134.25C569.21,136.8 568.39,136.7 565.23,133.43C564.01,134.86 562.07,135.06 560.23,135.78C562.07,137.72 564.51,138.53 565.43,140.88C553.12,134.86 557.81,131.89 548.29,121.71C538.44,111.17 533.48,116.37 524.73,110.49C517.73,105.79 511.2,115.93 511.06,121.4C510.77,132.9 509.67,140.25 515.96,144.96C516.88,141.49 516.06,138.43 514.43,135.47C522.26,140.69 508.81,145.48 526.77,168.92C531.25,174.76 535.85,183.28 537.99,197.17C539.48,206.85 547.39,216.08 547.88,219.71C534.67,207.94 536.99,193.1 535.84,190.85C520.51,160.63 518.25,164.21 515.24,149.64C513.43,140.88 508.26,143.99 508.92,131.59C509.49,120.88 507.18,117.83 513.51,111.5C521.75,103.26 525.85,111.2 532.58,111.81C551.54,113.53 556.62,131.46 559.61,134.04C561.04,132.92 563.08,133.33 564.51,132.1C563.08,122.92 564.61,119.35 570.22,119.76C564.73,122.33 565.98,120.12 565.23,131.39Z" style="fill-rule:nonzero;"/>
        <path d="M295.46,41.13C296.28,41.64 295.26,42.45 296.07,43.27C312.12,59.57 303.47,74.16 317.9,105.79C318.41,106.91 318.31,108.74 320.45,109.16C320.96,109.26 321.98,111.61 319.84,112.42C312.11,107.15 305.93,77.7 304.64,68.46C301.68,47.27 290.07,41.13 295.46,41.13Z" style="fill-rule:nonzero;"/>
        <path d="M259.56,555.28C255.89,557.22 243.55,557.22 241.1,555.18C243.24,553.55 245.69,554.06 247.93,553.65C246.3,553.34 244.26,553.96 242.63,552.83C242.22,551.4 243.65,551.3 243.65,550.59C242.73,550.08 241.2,550.49 241.51,548.24C246.1,546.71 250.99,546.4 255.99,546.51C257.21,546.53 258.23,547.33 257.93,549.26C254.05,548.95 250.28,549.57 246,549.97C250.9,550.89 255.69,549.05 260.08,551.4C259.47,553.13 257.73,552.52 257.12,553.64C257.92,554.26 259.56,553.65 259.56,555.28Z" style="fill-rule:nonzero;"/>
        <path d="M308.31,156.07C307.17,154.36 309.91,142.78 310.35,138.22C311.27,128.74 313.61,119.86 319.94,112.42C319.74,116.3 318.13,119.67 316.88,123.23C306.99,151.51 312.43,153.39 308.31,156.07Z" style="fill-rule:nonzero;"/>
        <path d="M595.42,553.65C594.91,554.77 593.18,554.06 592.56,555.28C593.48,555.79 595.01,555.08 595.11,556.81C591.54,558.85 579.1,558.75 576.75,556.71C578.79,555.08 581.24,555.59 583.28,555.18C581.75,554.67 579.61,555.59 578.18,554.06C578.18,552.54 580.32,552.02 580.42,552.02C580.42,551.92 577.6,552.17 576.75,550.29C581.34,547.84 586.24,548.3 591.03,547.94C593.29,547.77 595.68,550.9 591.44,550.9C587.78,550.9 584.11,551 580.45,552.02C593.59,551.5 593.6,551.51 595.42,553.65Z" style="fill-rule:nonzero;"/>
        <path d="M562.07,374.04C559.21,370.16 561.36,365.98 572.37,353.23C569.72,353.84 567.88,355.37 565.74,356.29C569.41,350.88 576.25,351.5 580.94,348.13C578.39,347.42 575.94,348.95 572.68,348.74C579.72,345.88 586.35,345.78 590.12,348.03C588.49,348.03 586.34,347.61 584.61,348.13C569.23,352.75 562.31,366.84 562.07,374.04Z" style="fill-rule:nonzero;"/>
        <path d="M293.11,552.42C289.54,537.02 287.81,521.31 285.15,505.71C289.64,520.91 291.58,536.72 293.11,552.42Z" style="fill-rule:nonzero;"/>
        <path d="M629.08,554.05C627.14,551.6 620.41,509.27 621.33,506.83C625.31,522.64 627.14,538.35 629.08,554.05Z" style="fill-rule:nonzero;"/>
        <path d="M605.01,245.42C604.5,243.99 604.62,242.46 604.19,241.14C603.4,238.68 604.71,236.06 606.84,234.92C611.3,232.53 617.21,236.54 615,242.06C614.1,244.31 611.53,246.03 609.19,245.53C607.76,245.21 606.44,245.52 605.01,245.42ZM609.39,243.28C614.47,242.87 613.56,236.34 609.8,236.55C607.25,236.55 606.54,238.18 606.54,241.04C609.29,239.81 610.11,240.63 609.39,243.28Z" style="fill-rule:nonzero;"/>
        <path d="M270.57,241.75C269.86,240.22 270.16,238.89 269.65,237.67C268.73,235.02 269.76,232.89 272,231.35C276.17,228.47 282.8,232.51 280.47,238.29C278.7,242.65 274.97,241.44 270.57,241.75ZM275.26,232.67C272.81,232.67 272.1,234.4 271.79,237.16C274.34,236.34 275.87,236.34 274.65,239.51C279.99,239.3 278.86,232.67 275.26,232.67Z" style="fill-rule:nonzero;"/>
        <path d="M621.53,232.67C636.48,239.46 620.74,250.59 616.84,241.34C614.96,236.87 618.27,234.81 621.53,232.67ZM622.04,242.57C626.29,242.79 626.3,235.73 621.94,235.84C617.97,235.93 617.9,242.35 622.04,242.57Z" style="fill-rule:nonzero;"/>
        <path d="M300.86,364.14C301.14,358.62 315.71,346.25 320.03,342.72C324.36,339.19 327.19,338.54 322.89,342.31C297.68,366.83 302.52,364.56 300.86,364.14Z" style="fill-rule:nonzero;"/>
        <path d="M287.5,229.71C295.19,229.59 295.15,240.66 287.7,241.03C280.6,241.39 279.38,229.84 287.5,229.71ZM286.99,238.69C290.54,239.36 292.68,233.99 288.21,231.96C282.01,233.37 284.34,238.38 286.99,238.69Z" style="fill-rule:nonzero;"/>
        <path d="M303,228.8C303.2,232.78 304.22,236.14 303.71,239.41C300.65,240.43 302.18,237.17 300.34,236.55C297.99,236.35 298.3,241.55 294.73,240.02C295.24,238.9 295.85,237.88 296.46,236.55C294.83,235.22 293.39,233.58 294.62,231.35C296.46,228.07 299.84,229.51 303,228.8ZM300.56,234.41C302.48,231.12 298.42,229.9 296.68,232.68C297.29,235.12 299.13,234.2 300.56,234.41Z" style="fill-rule:nonzero;"/>
        <path d="M637.44,232.77C637.95,236.44 638.66,239.81 638.26,243.28C635,244.5 636.83,240.7 634.28,240.53C632.45,240.41 632.75,245.43 629.18,243.9C629.79,242.68 630.3,241.55 630.91,240.53C629.38,238.9 627.84,237.26 629.28,235.02C631.2,232.05 634.48,233.18 637.44,232.77ZM631.22,236.55C631.83,238.9 633.67,237.98 634.99,238.18C635.91,236.96 635.3,236.14 635.4,235.32C633.57,234.81 632.14,234.92 631.22,236.55Z" style="fill-rule:nonzero;"/>
        <path d="M266.69,561.3C269.15,556.92 290.67,560.48 315.65,558.04C299.64,560.58 283.42,560.38 266.69,561.3Z" style="fill-rule:nonzero;"/>
        <path d="M648.25,340.58C638.22,339.91 628.42,346.66 621.73,343.54C628.67,343.64 634.58,340.38 641.11,338.75C641.72,338.24 640.29,337.12 641.52,336.61C642.34,338.75 642.34,338.75 644.58,338.34C644.38,337.32 644.27,336.4 644.17,335.48C646.62,335.68 644.89,338.02 646.01,338.95C646.62,339.46 648.05,339.05 648.25,340.58Z" style="fill-rule:nonzero;"/>
        <path d="M264.35,348.94C267.82,349.79 290.41,356.99 289.75,365.57C284.21,355.87 267.77,353.89 264.35,348.94Z" style="fill-rule:nonzero;"/>
        <path d="M315.55,374.95C327.35,361.52 336.01,350.21 340.84,353.84C330.03,356.84 322.02,373.88 315.55,374.95Z" style="fill-rule:nonzero;"/>
        <path d="M244.46,569.05C250.35,565.32 267.51,568.47 249.46,570.27C251.3,572 253.34,571.19 255.17,571.9C252.11,574.04 250.48,574.35 247.83,573.63C247.12,572.71 248.03,571.69 247.42,570.88C246.5,570.17 244.77,570.58 244.46,569.05Z" style="fill-rule:nonzero;"/>
        <path d="M580.02,570.68C582.77,568.95 590.12,568.33 593.08,569.66C591.04,572.11 588.08,571.39 585.43,572.01C586.96,573.85 589,572.62 590.63,573.54C589,574.76 588.28,575.04 586.55,575.48C583.58,576.24 583.08,575.89 583.18,572.62C582.37,571.6 580.43,572.41 580.02,570.68Z" style="fill-rule:nonzero;"/>
        <path d="M258.94,559.87C252.92,561.09 247.11,561.91 240.68,560.58C243.28,558.44 257.81,555.35 258.94,559.87Z" style="fill-rule:nonzero;"/>
        <path d="M594.81,561.4C588.69,562.73 582.88,563.44 576.15,562.22C580.43,558.95 591.85,558.54 594.81,561.4Z" style="fill-rule:nonzero;"/>
        <path d="M651.42,376.08C664.97,360.9 671.42,351.71 676.92,355.38C665.6,357.75 656.95,376.35 651.42,376.08Z" style="fill-rule:nonzero;"/>
        <path d="M234.26,350.78C238.44,350.36 241.6,347.31 245.58,346.8C242.83,345.88 240.28,347.11 237.22,347.31C242.83,344.45 248.95,344.15 253.85,346.19C245.18,346.8 237.73,351.19 229.88,354.66C231.1,353.13 232.32,350.98 234.26,350.78Z" style="fill-rule:nonzero;"/>
        <path d="M668.75,344.87C659.67,349.56 652.33,356.5 644.27,363.23C648.25,356.59 662.53,345.78 668.75,344.87Z" style="fill-rule:nonzero;"/>
        <path d="M621.43,373.22C631,375.35 627.81,382.68 632.55,391.17C626.15,392.24 630.63,377.37 621.43,373.22Z" style="fill-rule:nonzero;"/>
        <path d="M578.69,564.87C583.99,565.69 588.79,562.93 593.89,565.69C590.32,568.44 581.35,568.23 578.69,564.87Z" style="fill-rule:nonzero;"/>
        <path d="M310.45,359.35C316.88,352.41 323.91,346.29 332.99,343.03C324.83,347.52 318,353.84 310.45,359.35Z" style="fill-rule:nonzero;"/>
        <path d="M258.43,563.95C254.76,566.7 246.5,566.6 242.62,563.75C248.13,563.64 252.93,561.7 258.43,563.95Z" style="fill-rule:nonzero;"/>
        <path d="M335.13,163.01C332.99,168.11 331.05,173.11 329.21,178.21C327.08,174.43 330.95,164.95 335.13,163.01Z" style="fill-rule:nonzero;"/>
        <path d="M234.57,201.26C236.3,207.89 236.51,214.42 240.18,220.64C235.69,216.96 232.32,205.24 234.57,201.26Z" style="fill-rule:nonzero;"/>
        <path d="M226.31,372.51C223.86,367.51 230.08,355.78 236.61,353.23C231.61,358.84 227.02,364.55 226.31,372.51Z" style="fill-rule:nonzero;"/>
        <path d="M600.83,595.26C588.86,588.94 583.99,597.2 576.86,595.77C591.01,591.73 590.18,589.72 598.58,592.91C599.61,593.3 601.03,593.53 600.83,595.26Z" style="fill-rule:nonzero;"/>
        <path d="M270.67,555.38C280.16,556.2 289.64,555.07 299.23,555.58C289.75,556.09 280.16,557.11 270.67,555.38Z" style="fill-rule:nonzero;"/>
        <path d="M606.33,558.13C606.23,557.52 606.23,556.91 606.33,556.29C615.82,558.02 625.3,556.49 634.79,556.7C634.79,558.72 638.45,558.13 606.33,558.13Z" style="fill-rule:nonzero;"/>
        <path d="M345.03,396.88C347.99,401.67 351.66,405.55 356.25,408.61C349.51,406.78 344.01,400.96 345.03,396.88Z" style="fill-rule:nonzero;"/>
        <path d="M691.7,410.04C685.48,408.61 680.17,403.1 680.38,398.21C683.54,403 687.01,407.08 691.7,410.04Z" style="fill-rule:nonzero;"/>
        <path d="M654.88,367.71C655.86,365.36 663.42,355.99 674.46,349.96C660.15,360.47 657.02,366.65 654.88,367.71Z" style="fill-rule:nonzero;"/>
        <path d="M237.83,404.53C246.07,405.8 239.53,411.49 240.18,417.28C236.71,414.63 240.59,410.39 240.38,407.28C239.97,405.55 238.03,406.06 237.83,404.53Z" style="fill-rule:nonzero;"/>
        <path d="M323,262.76C321.47,258.37 319.84,253.99 318.31,249.5C321.57,251.85 323.71,258.17 323,262.76Z" style="fill-rule:nonzero;"/>
        <path d="M305.45,389.44C308.51,384.44 312.69,380.77 317.59,377.81C314.33,382.5 309.43,385.56 305.45,389.44Z" style="fill-rule:nonzero;"/>
        <path d="M630.3,212.68C632.24,209.01 632.85,205.03 632.95,200.85C637.18,208.04 630.88,213.83 630.3,212.68Z" style="fill-rule:nonzero;"/>
        <path d="M574.61,407.39C574.1,407.08 573.59,406.88 573.49,406.17C581.71,407.22 575.3,412.72 575.73,418.61C572.11,414.36 578.92,408.82 574.61,407.39Z" style="fill-rule:nonzero;"/>
        <path d="M216.21,159.13C219.27,163.31 220.7,168 221.31,173C219.89,173.48 221.14,175.7 216.21,159.13Z" style="fill-rule:nonzero;"/>
        <path d="M640.4,390.86C643.66,386.27 647.85,382.7 650.91,380.66C639.9,393.05 641.35,391.81 640.4,390.86Z" style="fill-rule:nonzero;"/>
        <path d="M567.47,263.17C569.52,266.76 566.78,270.01 568.49,273.98C568.89,274.9 568.29,276.43 566.55,276.94C567.37,272.45 565.54,267.96 567.47,263.17Z" style="fill-rule:nonzero;"/>
        <path d="M599.3,355.78C595.93,352.72 591.34,352.62 587.47,350.78C592.16,350.78 596.75,351.09 599.3,355.78Z" style="fill-rule:nonzero;"/>
        <path d="M221.82,210.74C223.76,206.86 227.23,205.33 230.69,203.8C231.57,205.56 233.01,204.24 221.82,210.74Z" style="fill-rule:nonzero;"/>
        <path d="M611.54,199.42C610.18,200.1 611.19,201.8 604.2,188.51C604.51,188.31 604.71,188.1 605.02,187.9C607.97,191.36 609.8,195.34 611.54,199.42Z" style="fill-rule:nonzero;"/>
        <path d="M231.2,275.31C231.3,270.72 230.38,266.33 231.61,262.05C234.51,262.41 231.32,267.6 232.94,272.56C233.27,273.56 232.53,274.69 231.2,275.31Z" style="fill-rule:nonzero;"/>
        <path d="M263.84,355.06C260.37,351.18 255.88,351.08 251.4,349.25C258.33,348.74 262.72,350.68 263.84,355.06Z" style="fill-rule:nonzero;"/>
        <path d="M365.53,425.03C363.29,420.64 361.14,416.26 360.94,411.26C362.98,415.75 364.61,420.24 365.53,425.03Z" style="fill-rule:nonzero;"/>
        <path d="M269.45,186.37C272.41,189.74 274.14,193.82 275.98,197.9C275.57,198.1 275.27,198.31 274.86,198.51C267.68,184.86 268.07,187.29 269.45,186.37Z" style="fill-rule:nonzero;"/>
        <path d="M604.6,551.5L618.68,551.5C615.99,552.03 604.6,554.27 604.6,551.5Z" style="fill-rule:nonzero;"/>
        <path d="M697.01,412.69C706.34,439.44 697.26,420.65 696.09,413C696.4,412.9 696.7,412.79 697.01,412.69Z" style="fill-rule:nonzero;"/>
        <path d="M327.69,187.9C326.26,190.96 324.83,194.02 323.1,197.69C321.87,193.2 323.81,189.73 327.69,187.9Z" style="fill-rule:nonzero;"/>
        <path d="M269.04,550.79C269.04,549.53 266.81,549.87 282.91,549.87C278.32,550.89 273.73,551.71 269.04,550.79Z" style="fill-rule:nonzero;"/>
        <path d="M546.36,146.18C548.3,149.14 549.11,152.5 549.73,155.87C546.67,152.2 545.65,149.34 546.36,146.18Z" style="fill-rule:nonzero;"/>
        <path d="M219.78,64.18C219.98,69.38 218.45,75.4 216.31,77.54C219.32,62.18 218.65,64.18 219.78,64.18Z" style="fill-rule:nonzero;"/>
        <path d="M525.76,113.44C531.78,114.15 535.14,116.7 536.57,122.52C534.43,120.68 532.9,118.75 531.98,116.5C529.94,115.48 527.49,115.58 525.76,113.44Z" style="fill-rule:nonzero;"/>
        <path d="M560.85,388.82C565.13,390.96 566.46,396.06 570.74,398.2C565.13,397.29 564.01,391.99 560.85,388.82Z" style="fill-rule:nonzero;"/>
        <path d="M339.93,101.71C341.05,105.28 345.03,107.83 343.4,112.32C342.48,108.75 339.52,105.79 339.93,101.71Z" style="fill-rule:nonzero;"/>
        <path d="M706.59,444.21C707.99,444.21 707.68,442.66 708.73,455.23C707.51,451.65 704.76,448.18 706.59,444.21Z" style="fill-rule:nonzero;"/>
        <path d="M702.31,520.7C702.82,515.6 702.41,510.6 701.39,505.6C703.13,510.5 703.84,515.5 702.31,520.7Z" style="fill-rule:nonzero;"/>
        <path d="M225.69,386.99C229.46,389.44 230.79,394.44 235.28,396.37C231.71,396.17 226.2,390.35 225.69,386.99Z" style="fill-rule:nonzero;"/>
        <path d="M703.84,381.58C706.49,383.21 709.35,385.35 711.08,388.82C708.53,386.27 706.08,383.72 703.84,381.58Z" style="fill-rule:nonzero;"/>
        <path d="M702.21,528.45C702.52,532.53 701.39,536.71 702.82,540.79C700.68,536.72 700.27,532.64 702.21,528.45Z" style="fill-rule:nonzero;"/>
        <path d="M228.55,189.83C224.88,187.28 223.45,183.61 225.49,180.96C227.33,183.71 226.82,187.18 228.55,189.83Z" style="fill-rule:nonzero;"/>
        <path d="M261.6,356.9C267.92,356.2 274.89,358.14 272.11,358.84C259.77,357.78 261.6,357.9 261.6,356.9Z" style="fill-rule:nonzero;"/>
        <path d="M366.34,519.07C367.16,513.87 366.75,508.77 365.42,503.67C367.77,507.34 368.28,516.42 366.34,519.07Z" style="fill-rule:nonzero;"/>
        <path d="M603.89,277.24C600.52,280.71 599.81,285.6 597.87,289.89C598.48,283.77 599.4,280.2 603.89,277.24Z" style="fill-rule:nonzero;"/>
        <path d="M372.56,442.37L372.56,451.65C369.81,447.47 369.61,444.41 372.56,442.37Z" style="fill-rule:nonzero;"/>
        <path d="M608.37,358.94C607.61,360.84 610.13,360.69 596.95,359.14C600.83,357.51 604.6,359.25 608.37,358.94Z" style="fill-rule:nonzero;"/>
        <path d="M366.55,526.92C366.86,531 365.84,535.18 367.37,539.16C364.61,535.29 365.02,531.11 366.55,526.92Z" style="fill-rule:nonzero;"/>
        <path d="M375.42,387.5C372.97,384.85 370.52,382.2 369.1,380.77C371.03,381.38 374.2,384.23 375.42,387.5Z" style="fill-rule:nonzero;"/>
        <path d="M268.02,275.51C265.47,279.49 263.84,283.98 262,288.36C262.37,283.81 264.04,277.68 268.02,275.51Z" style="fill-rule:nonzero;"/>
        <path d="M338.91,348.64C326,358.76 327.79,357.51 327.08,356.8C328.48,355.56 337.57,347.31 338.91,348.64Z" style="fill-rule:nonzero;"/>
        <path d="M253.95,27.05C250.48,26.03 247.01,27.87 243.55,27.46C246.91,24.71 250.38,25.01 253.95,27.05Z" style="fill-rule:nonzero;"/>
        <path d="M652.13,249.91C653.05,252.87 653.97,255.62 654.88,258.48C650.19,252.36 650.19,252.36 652.13,249.91Z" style="fill-rule:nonzero;"/>
        <path d="M636.01,386.38C634.58,382.3 636.72,378.22 635.7,374.04C637.95,378.12 635.91,382.3 636.01,386.38Z" style="fill-rule:nonzero;"/>
        <path d="M544.93,206.36C542.69,203.1 540.75,200.14 538.71,197.18C542.38,199.22 544.63,202.89 544.93,206.36Z" style="fill-rule:nonzero;"/>
        <path d="M657.03,266.53C654.99,265.2 654.17,265.61 653.87,267.24C653.77,264.38 655.4,262.34 657.54,260.2C658.56,262.76 655.6,264.09 657.03,266.53Z" style="fill-rule:nonzero;"/>
        <path d="M230.18,199.42C230.38,195.85 228.85,192.89 228.65,189.73C231.51,192.59 232.42,197.28 230.18,199.42Z" style="fill-rule:nonzero;"/>
        <path d="M567.58,262.15C568.09,259.5 567.48,256.85 569.01,254.5C570.74,257.76 570.33,259.9 567.58,262.15Z" style="fill-rule:nonzero;"/>
        <path d="M545.55,129.35C543.31,127.21 543,124.35 542.49,121.6C544.83,123.64 545.75,126.29 545.55,129.35Z" style="fill-rule:nonzero;"/>
        <path d="M232.22,260.92C232.02,257.86 232.12,255.41 233.14,252.96C234.97,255.72 234.87,257.15 232.22,260.92Z" style="fill-rule:nonzero;"/>
        <path d="M617.35,204.93C616.47,204.05 622.74,194.57 621.84,200.85C621.33,203.4 618.78,203.5 617.35,204.93Z" style="fill-rule:nonzero;"/>
        <path d="M322.18,198.1C321.98,200.34 324.12,201.36 325.44,203.81C318.9,202 319.34,197.49 322.18,198.1Z" style="fill-rule:nonzero;"/>
        <path d="M300.45,373.83C301.47,377.5 300.55,381.07 300.25,384.74C299.03,381.17 300.86,377.5 300.45,373.83Z" style="fill-rule:nonzero;"/>
        <path d="M374.6,456.65C375.93,460.02 375.62,462.57 374.29,465.12C373.58,462.46 373.28,459.91 374.6,456.65Z" style="fill-rule:nonzero;"/>
        <path d="M317.49,236.96C317.59,239.82 317.8,242.77 318,245.63C315.96,242.87 315.86,240.02 317.49,236.96Z" style="fill-rule:nonzero;"/>
        <path d="M566.56,203.5C564.93,205.44 562.89,206.05 560.64,207.38C562.38,202.89 563.6,202.07 566.56,203.5Z" style="fill-rule:nonzero;"/>
        <path d="M285.77,256.33C284.14,259.19 282.3,262.04 279.14,263.67C285.63,254.8 285.15,255.72 285.77,256.33Z" style="fill-rule:nonzero;"/>
        <path d="M710.16,459C710.98,461.65 711.28,464.2 709.96,466.65C709.04,464.1 709.14,461.55 710.16,459Z" style="fill-rule:nonzero;"/>
        <path d="M385.11,396.17C381.85,395.35 379.09,395.15 376.34,396.37C380.01,393.31 381.95,393.21 385.11,396.17Z" style="fill-rule:nonzero;"/>
        <path d="M278.22,370.16C275.87,368.32 273.63,366.49 270.98,365.06C274.24,365.57 277,366.79 278.22,370.16Z" style="fill-rule:nonzero;"/>
        <path d="M606.54,366.49C609.8,367 612.56,368.33 613.88,371.69C611.43,369.85 609.09,368.02 606.54,366.49Z" style="fill-rule:nonzero;"/>
        <path d="M720.47,398C717.61,396.78 715.17,396.88 712.62,397.59C715.88,394.84 718.12,394.84 720.47,398Z" style="fill-rule:nonzero;"/>
        <path d="M224.88,102.73C224.17,106.1 223.66,108.95 221.41,110.99C222.02,108.24 222.63,105.49 224.88,102.73Z" style="fill-rule:nonzero;"/>
        <path d="M621.33,257.86C619.7,260.82 617.86,263.67 614.7,265.41C621.37,256.74 620.38,256.91 621.33,257.86Z" style="fill-rule:nonzero;"/>
        <path d="M542.79,190.14C541.46,187.39 541.46,184.63 542.18,181.67C542.79,184.53 543.71,187.28 542.79,190.14Z" style="fill-rule:nonzero;"/>
        <path d="M298.31,359.14C299.53,361.79 300.35,364.65 299.94,367.71C298.82,364.96 298.01,362.2 298.31,359.14Z" style="fill-rule:nonzero;"/>
        <path d="M345.03,413.71C347.68,414.42 350.44,414.73 352.58,416.77C349.72,416.67 347.37,415.24 345.03,413.71Z" style="fill-rule:nonzero;"/>
        <path d="M634.08,360.67C635.41,363.53 635.81,366.48 635.81,369.65C634.48,366.79 633.67,363.84 634.08,360.67Z" style="fill-rule:nonzero;"/>
        <path d="M309.43,367.92C307.19,369.86 304.84,371.49 301.88,372C304.13,370.06 306.47,368.53 309.43,367.92Z" style="fill-rule:nonzero;"/>
        <path d="M244.15,252.76C245.88,255.51 248.64,256.94 251.49,258.27C248.34,257.35 244.87,256.74 244.15,252.76Z" style="fill-rule:nonzero;"/>
        <path d="M645.7,369.34C643.46,371.48 640.6,372.6 637.64,373.62C640.09,371.69 642.34,369.55 645.7,369.34Z" style="fill-rule:nonzero;"/>
        <path d="M571.55,406.78C568.59,405.15 570.63,402.19 569.31,400.46C571.86,401.98 571.55,404.23 571.55,406.78Z" style="fill-rule:nonzero;"/>
        <path d="M558.19,203.5C556.66,206.25 555.44,208.7 554.01,211.46C554.52,206.87 555.24,205.44 558.19,203.5Z" style="fill-rule:nonzero;"/>
        <path d="M549.22,212.07C549.22,208.5 550.34,206.26 552.08,204.22C551.46,206.66 550.95,209.21 549.22,212.07Z" style="fill-rule:nonzero;"/>
        <path d="M236.2,405.25C232.83,403.82 235.08,400.76 233.75,399.03C236.61,400.25 235.59,402.9 236.2,405.25Z" style="fill-rule:nonzero;"/>
        <path d="M652.95,238.59C653.15,241.55 653.46,244.4 653.66,247.16C651.62,244.2 651.62,241.75 652.95,238.59Z" style="fill-rule:nonzero;"/>
        <path d="M222.02,115.48C220.9,117.83 222.84,120.07 221.82,122.42C221.1,120.07 220.08,117.83 222.02,115.48Z" style="fill-rule:nonzero;"/>
        <path d="M308.82,259.9C310.96,258.47 311.78,255.31 314.63,254.49C312.49,256.13 311.67,259.09 308.82,259.9Z" style="fill-rule:nonzero;"/>
        <path d="M375.83,411.47C377.16,413.31 379.6,414.63 379.09,417.39C377.66,415.65 376.03,414.02 375.83,411.47Z" style="fill-rule:nonzero;"/>
        <path d="M292.4,368.83C294.75,370.87 296.38,372.4 298.01,373.93C295.15,373.63 293.52,372.2 292.4,368.83Z" style="fill-rule:nonzero;"/>
        <path d="M288.73,286.83C290.57,289.38 289.65,292.24 289.55,294.99C289.54,292.24 288.52,289.58 288.73,286.83Z" style="fill-rule:nonzero;"/>
        <path d="M307.39,381.58C308.82,378.83 311.27,377.81 314.02,377.6C311.78,378.93 309.63,380.26 307.39,381.58Z" style="fill-rule:nonzero;"/>
        <path d="M217.23,199.22C216.31,201.97 215.19,204.52 214.17,207.07C213.96,204.01 215.09,201.46 217.23,199.22Z" style="fill-rule:nonzero;"/>
        <path d="M636.01,389.44C635.91,392.7 634.17,394.74 633.46,397.19C632.96,394.43 634.48,392.39 636.01,389.44Z" style="fill-rule:nonzero;"/>
        <path d="M688.13,418.5C685.68,418.09 683.34,417.17 681.4,415.44C683.65,416.46 686.4,416.26 688.13,418.5Z" style="fill-rule:nonzero;"/>
        <path d="M711.69,413.61C713.32,415.14 715.06,416.47 714.75,418.91C713.53,417.28 711.9,415.85 711.69,413.61Z" style="fill-rule:nonzero;"/>
        <path d="M242.11,25.11C242.11,22.87 239.56,21.44 240.38,18.89C240.07,21.24 244.26,22.36 242.11,25.11Z" style="fill-rule:nonzero;"/>
        <path d="M624.69,288.26C625.51,290.3 625.91,292.44 625.4,294.69C624.49,292.64 624.18,290.5 624.69,288.26Z" style="fill-rule:nonzero;"/>
        <path d="M628.26,371.49C629.17,371.03 627.38,369.72 634.18,375.88C630.71,375.36 629.39,373.53 628.26,371.49Z" style="fill-rule:nonzero;"/>
        <path d="M613.07,192.69C613.68,190.75 614.4,189.22 616.84,188.61C616.13,190.96 615,192.18 613.07,192.69Z" style="fill-rule:nonzero;"/>
        <path d="M273.73,325.38C276.08,325.58 278.32,326.3 280.26,327.83C277.91,327.42 275.77,326.61 273.73,325.38Z" style="fill-rule:nonzero;"/>
        <path d="M607.46,356.9C610.21,359.04 612.25,360.47 613.07,363.22C607.55,358.4 608.25,358.8 607.46,356.9Z" style="fill-rule:nonzero;"/>
        <path d="M339.82,93.76C340.74,95.49 341.66,97.23 339.82,99.78C338.62,92.85 338.76,93.76 339.82,93.76Z" style="fill-rule:nonzero;"/>
        <path d="M542.49,173.72C543.61,171.88 544.73,169.95 545.75,168.01C545.95,170.56 544.12,172.09 542.49,173.72Z" style="fill-rule:nonzero;"/>
        <path d="M300.25,389.74C299.43,391.78 298.72,393.92 297.9,395.96C297.5,393.52 298.31,391.37 300.25,389.74Z" style="fill-rule:nonzero;"/>
        <path d="M631.53,346.5C629.29,345.58 627.04,346.91 624.9,346.5C627.14,345.99 629.28,345.27 631.53,346.5Z" style="fill-rule:nonzero;"/>
        <path d="M276.89,190.85C278.11,189.22 278.83,187.59 280.87,186.97C279.95,190.14 279.75,190.34 276.89,190.85Z" style="fill-rule:nonzero;"/>
        <path d="M642.24,383.21C644.08,380.76 645.91,379.84 648.05,379.64C646.32,380.87 644.89,382.4 642.24,383.21Z" style="fill-rule:nonzero;"/>
        <path d="M362.57,538.25C362.06,536.31 361.75,534.88 363.49,533.25C363.9,535.19 364.1,536.72 362.57,538.25Z" style="fill-rule:nonzero;"/>
        <path d="M211.21,113.75C210.8,115.48 211.31,117.42 209.68,118.65C210.39,117.01 209.68,115.07 211.21,113.75Z" style="fill-rule:nonzero;"/>
        <path d="M309.33,175.25C311.37,177.09 311.47,179.02 311.88,180.86C310.96,179.33 309.23,178.1 309.33,175.25Z" style="fill-rule:nonzero;"/>
        <path d="M342.68,148.83C341.97,146.48 341.46,144.95 342.07,142.91C343.19,144.75 343.8,146.28 342.68,148.83Z" style="fill-rule:nonzero;"/>
        <path d="M639.69,551.61C636.63,552.43 634.69,551.3 631.94,550.69C634.79,550.38 636.83,551.1 639.69,551.61Z" style="fill-rule:nonzero;"/>
        <path d="M584.1,258.88C581.55,258.37 580.12,256.74 579.71,254.09C580.43,256.33 583.28,256.64 584.1,258.88Z" style="fill-rule:nonzero;"/>
        <path d="M289.13,344.97C291.27,344.66 293.52,343.44 295.66,345.07C293.52,344.36 291.38,345.27 289.13,344.97Z" style="fill-rule:nonzero;"/>
        <path d="M699.05,527.23C699.56,528.76 699.97,530.29 698.54,531.72C697.72,529.98 698.03,528.56 699.05,527.23Z" style="fill-rule:nonzero;"/>
        <path d="M574.61,261.33C573.28,260.31 571.04,260 571.14,257.25C572.78,258.58 574,259.6 574.61,261.33Z" style="fill-rule:nonzero;"/>
        <path d="M272.51,357.92C272.41,356.19 270.47,355.68 270.06,354.04C270.63,354.47 276.96,358.88 277.61,361.49C274.23,359.56 275.37,358.4 272.51,357.92Z" style="fill-rule:nonzero;"/>
        <path d="M724.85,440.64C724.24,442.68 724.95,444.41 723.22,445.74C723.73,444.21 722.61,442.47 724.85,440.64Z" style="fill-rule:nonzero;"/>
        <path d="M630.41,263.17C629.08,262.25 627.55,261.54 627.04,259.8C628.57,260.62 629.79,261.54 630.41,263.17Z" style="fill-rule:nonzero;"/>
        <path d="M576.04,249.3C574.51,247.67 572.98,246.75 573.49,244.71C574.82,245.62 575.94,246.75 576.04,249.3Z" style="fill-rule:nonzero;"/>
        <path d="M220.8,143.53C221.11,145.06 221.72,146.59 221,148.22C220.59,146.69 220.19,145.16 220.8,143.53Z" style="fill-rule:nonzero;"/>
        <path d="M707.41,480.01C707.92,478.79 707.1,477.15 708.84,475.62C709.65,477.87 708.84,479.09 707.41,480.01Z" style="fill-rule:nonzero;"/>
        <path d="M303.72,550.18C300.97,550.79 299.13,549.77 296.27,549.26C299.23,548.75 301.07,549.46 303.72,550.18Z" style="fill-rule:nonzero;"/>
        <path d="M387.35,444.21C388.37,442.78 387.04,440.84 388.78,439.52C388.17,441.05 389.29,442.98 387.35,444.21Z" style="fill-rule:nonzero;"/>
        <path d="M362.67,530.49C362.26,528.45 362.06,527.02 363.59,525.8C363.49,527.13 364.41,528.76 362.67,530.49Z" style="fill-rule:nonzero;"/>
        <path d="M238.65,259.8C236.92,258.78 235.59,257.96 234.98,255.52C236.91,256.84 238.34,257.56 238.65,259.8Z" style="fill-rule:nonzero;"/>
        <path d="M337.27,175.25C336.35,177.8 336.35,177.8 334.72,178.82C335.34,177.6 335.64,176.27 337.27,175.25Z" style="fill-rule:nonzero;"/>
        <path d="M648.76,232.67C649.17,234.81 648.45,235.93 647.43,236.95C647.34,235.63 647.13,234.3 648.76,232.67Z" style="fill-rule:nonzero;"/>
        <path d="M698.64,534.88C699.66,536.61 699.15,538.04 698.44,539.37C697.01,537.94 698.03,536.61 698.64,534.88Z" style="fill-rule:nonzero;"/>
        <path d="M697.93,379.95C699.26,380.15 700.79,379.75 701.6,381.48C699.76,382.09 698.84,380.97 697.93,379.95Z" style="fill-rule:nonzero;"/>
        <path d="M258.54,29.81C256.5,29.5 255.28,28.18 254.05,26.95C256.19,26.85 257.21,28.58 258.54,29.81Z" style="fill-rule:nonzero;"/>
        <path d="M371.95,478.27C371.75,476.84 371.85,475.62 373.17,474.7C373.58,476.03 373.69,477.36 371.95,478.27Z" style="fill-rule:nonzero;"/>
        <path d="M328.91,210.44C330.85,211.36 331.66,212.48 332.07,214.62C330.24,213.39 329.52,212.27 328.91,210.44Z" style="fill-rule:nonzero;"/>
        <path d="M321.47,104.06C322.08,105.28 323.2,106.41 322.49,108.24C320.75,106.91 321.06,105.49 321.47,104.06Z" style="fill-rule:nonzero;"/>
        <path d="M327.69,198.2C329.83,198 331.16,199.32 332.48,200.44C330.95,199.83 329.01,199.93 327.69,198.2Z" style="fill-rule:nonzero;"/>
        <path d="M614.9,329.06C612.86,329.06 611.23,328.04 609.6,326.92C611.43,327.32 613.58,327.22 614.9,329.06Z" style="fill-rule:nonzero;"/>
        <path d="M262.11,291.42C261.4,293.05 261.4,294.38 260.17,295.81C260.17,293.15 260.17,293.15 262.11,291.42Z" style="fill-rule:nonzero;"/>
        <path d="M327.38,205.34C329.11,206.26 329.73,207.38 329.83,208.91C328.91,207.99 327.48,207.38 327.38,205.34Z" style="fill-rule:nonzero;"/>
        <path d="M240.48,247.77C238.95,246.04 237.32,245.22 238.24,243.08C239.26,244.3 240.38,245.32 240.48,247.77Z" style="fill-rule:nonzero;"/>
        <path d="M237.93,31.34C236.3,30.73 235.28,30.12 234.46,29.1C235.89,28.99 237.12,29.3 237.93,31.34Z" style="fill-rule:nonzero;"/>
        <path d="M544.02,136.8C545.14,137.72 545.75,138.84 545.86,140.27C544.63,139.45 543.91,138.33 544.02,136.8Z" style="fill-rule:nonzero;"/>
        <path d="M320.85,364.24C321.46,362.61 322.48,361.38 324.01,360.57C323.51,362.2 322.28,363.22 320.85,364.24Z" style="fill-rule:nonzero;"/>
        <path d="M290.97,257.86C292.91,258.68 293.83,259.9 294.44,261.33C293.21,260.52 291.68,260.01 290.97,257.86Z" style="fill-rule:nonzero;"/>
        <path d="M307.39,378.83C305.76,380.46 304.43,380.97 302.9,381.07C304.02,380.15 305.15,379.14 307.39,378.83Z" style="fill-rule:nonzero;"/>
        <path d="M322.08,274.08C320.75,275.81 319.73,276.73 318.2,276.63C319.12,275.61 319.94,274.49 322.08,274.08Z" style="fill-rule:nonzero;"/>
        <path d="M584.2,235.02C582.67,234.61 581.65,234.2 581.24,232.27C582.77,232.98 583.59,233.59 584.2,235.02Z" style="fill-rule:nonzero;"/>
        <path d="M363.18,519.89C364.1,521.11 363.69,521.93 362.57,523.05C362.06,521.62 362.06,520.7 363.18,519.89Z" style="fill-rule:nonzero;"/>
        <path d="M325.55,269.9C325.55,273.07 323.77,271.11 324.53,268.57C325.24,268.78 325.55,269.29 325.55,269.9Z" style="fill-rule:nonzero;"/>
        <path d="M657.03,276.12C655.81,277.65 655.81,277.65 653.87,278.26C655.19,276.84 655.19,276.84 657.03,276.12Z" style="fill-rule:nonzero;"/>
        <path d="M315.04,251.34C315.65,250.42 314.94,249.3 315.86,248.48C316.88,249.91 316.88,249.91 315.04,251.34Z" style="fill-rule:nonzero;"/>
        <path d="M339.62,154.95C339.42,153.42 339.42,152.3 341.05,151.58C341.05,152.91 340.95,154.03 339.62,154.95Z" style="fill-rule:nonzero;"/>
        <path d="M565.23,376.38C565.03,374.65 565.84,373.73 567.47,373.42C566.76,374.34 565.95,375.36 565.23,376.38Z" style="fill-rule:nonzero;"/>
        <path d="M362.26,378.42C363.69,378.42 365.12,378.22 366.03,379.95C364.3,380.36 363.18,379.54 362.26,378.42Z" style="fill-rule:nonzero;"/>
        <path d="M319.53,94.27C320.14,95.49 320.75,96.31 320.24,97.94C319.12,96.82 318.92,95.8 319.53,94.27Z" style="fill-rule:nonzero;"/>
        <path d="M583.28,269.7C582.36,269.29 581.34,269.39 581.04,268.07C582.16,268.17 583.08,268.06 583.28,269.7Z" style="fill-rule:nonzero;"/>
        <path d="M312.9,231.55C313.82,232.67 313.21,233.49 312.19,234.61C311.67,233.28 311.37,232.26 312.9,231.55Z" style="fill-rule:nonzero;"/>
        <path d="M626.43,187.59C625.82,189.02 624.8,189.43 623.68,189.43C624.39,188.71 624.9,187.69 626.43,187.59Z" style="fill-rule:nonzero;"/>
        <path d="M309.63,327.63C309.43,325.59 309.63,324.47 310.85,323.55C311.06,324.98 310.45,325.89 309.63,327.63Z" style="fill-rule:nonzero;"/>
        <path d="M597.36,292.95C597.46,294.58 596.85,295.6 596.03,297.03C595.73,295.19 595.73,293.97 597.36,292.95Z" style="fill-rule:nonzero;"/>
        <path d="M241.4,276.73C239.56,276.32 238.54,275.91 238.03,274.28C239.36,274.8 240.38,275.2 241.4,276.73Z" style="fill-rule:nonzero;"/>
        <path d="M315.45,270.61C314.43,271.73 313.72,272.75 311.88,272.45C312.9,271.33 313.61,270.41 315.45,270.61Z" style="fill-rule:nonzero;"/>
        <path d="M577.06,278.36C575.12,277.85 574.1,277.54 573.59,275.81C575.02,276.22 575.94,276.84 577.06,278.36Z" style="fill-rule:nonzero;"/>
        <path d="M582.47,122.62C584,122.01 584.82,122.72 585.73,123.33C584.51,123.95 583.49,123.95 582.47,122.62Z" style="fill-rule:nonzero;"/>
        <path d="M243.13,34.29C244.05,34.9 245.48,35.11 245.17,37.04C243.75,36.54 243.24,35.62 243.13,34.29Z" style="fill-rule:nonzero;"/>
        <path d="M571.25,393.72C570.84,392.29 571.56,391.88 572.88,391.27C572.68,392.8 572.06,393.21 571.25,393.72Z" style="fill-rule:nonzero;"/>
        <path d="M374.81,468.89C372.82,467.12 375.1,465.43 375.52,467.56C375.52,468.07 375.73,468.79 374.81,468.89Z" style="fill-rule:nonzero;"/>
        <path d="M235.69,392.19C234.8,391.15 236.3,389.59 237.22,390.25C237.01,391.17 236.61,391.78 235.69,392.19Z" style="fill-rule:nonzero;"/>
        <path d="M710.37,470.83C709.76,469.81 709.45,468.99 710.27,467.97C711.39,468.99 711.39,469.81 710.37,470.83Z" style="fill-rule:nonzero;"/>
        <path d="M539.73,127.52C536.54,124.33 539.57,124.54 540.14,127.11C540.14,127.21 539.94,127.31 539.73,127.52Z" style="fill-rule:nonzero;"/>
        <path d="M572.37,272.96C570.64,272.14 569.82,271.74 569.51,270C570.74,270.72 571.45,271.33 572.37,272.96Z" style="fill-rule:nonzero;"/>
        <path d="M319.53,262.76C319.02,263.47 319.12,264.49 317.49,264.8C318.3,263.78 318.2,262.56 319.53,262.76Z" style="fill-rule:nonzero;"/>
        <path d="M647.74,274.18C648.45,272.75 649.37,272.34 650.6,272.24C650.09,273.37 649.38,274.18 647.74,274.18Z" style="fill-rule:nonzero;"/>
        <path d="M587.87,260.21C586.03,260.01 585.12,259.6 584.2,258.88C585.32,258.68 586.45,258.58 587.87,260.21Z" style="fill-rule:nonzero;"/>
        <path d="M647.13,259.5C646.62,260.93 645.8,261.54 643.97,261.95C644.89,260.41 645.7,259.8 647.13,259.5Z" style="fill-rule:nonzero;"/>
        <path d="M647.64,258.17C648.46,256.84 649.07,256.13 650.5,255.82C649.89,257.05 649.27,257.76 647.64,258.17Z" style="fill-rule:nonzero;"/>
        <path d="M236.4,271.12C234.87,270.51 234.05,270 233.75,268.26C235.08,269.08 235.89,269.7 236.4,271.12Z" style="fill-rule:nonzero;"/>
        <path d="M547.28,212.17C548.3,213.19 548.61,213.9 548.2,215.13C547.28,214.21 547.08,213.5 547.28,212.17Z" style="fill-rule:nonzero;"/>
        <path d="M555.85,213.19C556.36,211.66 556.97,210.95 558.09,210.64C557.99,212.07 557.17,212.48 555.85,213.19Z" style="fill-rule:nonzero;"/>
        <path d="M698.33,524.68C697.62,523.25 698.02,522.44 698.84,521.42C699.35,522.54 699.35,523.46 698.33,524.68Z" style="fill-rule:nonzero;"/>
        <path d="M247.32,268.17C246.81,267.56 245.89,267.76 245.38,266.74C246.21,266.14 248.2,266.69 247.32,268.17Z" style="fill-rule:nonzero;"/>
        <path d="M248.44,233.18C246.71,232.77 245.89,232.26 245.58,231.04C247.11,230.94 247.52,231.96 248.44,233.18Z" style="fill-rule:nonzero;"/>
        <path d="M375.01,404.63C374.91,403.81 374.4,403.1 376.03,402.79C376.13,403.61 376.13,404.33 375.01,404.63Z" style="fill-rule:nonzero;"/>
        <path d="M288.83,311.82C288.52,311.11 288.52,310.49 289.03,309.07C288.93,310.49 289.34,311.21 288.83,311.82Z" style="fill-rule:nonzero;"/>
        <path d="M239.26,189.63C239.36,190.85 239.97,191.57 238.85,192.89C238.95,191.67 238.24,190.85 239.26,189.63Z" style="fill-rule:nonzero;"/>
        <path d="M605.42,198.91C604.09,198.81 603.38,197.99 602.87,196.97C604.83,197.51 605.71,198.62 605.42,198.91Z" style="fill-rule:nonzero;"/>
        <path d="M315.04,188.61C314.63,187.49 313.41,186.98 314.53,185.75C315.24,186.37 315.65,186.98 315.04,188.61Z" style="fill-rule:nonzero;"/>
        <path d="M644.99,328.34C645.19,327.32 645.3,326.5 646.42,325.69C646.21,326.81 646.52,327.93 644.99,328.34Z" style="fill-rule:nonzero;"/>
        <path d="M313.51,365.77C312.8,365.77 312.59,366.79 311.57,366.38C312.29,365.98 312.59,365.26 313.51,365.77Z" style="fill-rule:nonzero;"/>
        <path d="M211.62,150.26C210.6,149.75 209.89,149.24 209.99,148.02C211.21,148.12 211.62,148.73 211.62,150.26Z" style="fill-rule:nonzero;"/>
        <path d="M616.64,329.87C616.03,329.56 615.11,329.97 614.91,328.95C615.62,328.95 616.43,328.85 616.64,329.87Z" style="fill-rule:nonzero;"/>
        <path d="M297.09,346.7C296.58,345.99 296.17,345.48 295.76,344.97C296.58,344.97 297.19,345.38 297.09,346.7Z" style="fill-rule:nonzero;"/>
        <path d="M624.59,311.92C625,312.53 625.1,312.94 624.59,313.55L624.59,311.92Z" style="fill-rule:nonzero;"/>
        <path d="M512.6,122.82C513.21,123.64 513.01,124.04 512.29,124.15C511.99,123.74 511.99,123.33 512.6,122.82Z" style="fill-rule:nonzero;"/>
        <path d="M633.16,355.37C633.16,356.42 631.48,354.94 632.04,354.04C632.65,354.35 633.06,354.76 633.16,355.37Z" style="fill-rule:nonzero;"/>
        <path d="M317.28,199.93C316.67,199.62 316.16,199.22 316.77,197.79C317.59,198.61 318.1,199.12 317.28,199.93Z" style="fill-rule:nonzero;"/>
        <path d="M650.7,555.99C646.32,557.09 646.15,557 645.6,556.5C646.48,556.5 647.27,556.59 648.05,556.6C648.87,555.69 649.89,555.79 650.7,555.99Z" style="fill-rule:nonzero;"/>
        <path d="M288.73,187.28C290.73,184.88 291.45,187 289.04,187.69C288.62,187.59 288.52,187.49 288.73,187.28Z" style="fill-rule:nonzero;"/>
        <path d="M315.24,554.46L313.61,554.46C314.12,554.16 314.63,554.26 315.24,554.46Z" style="fill-rule:nonzero;"/>
        <path d="M329.73,185.45C330.04,184.74 330.04,183.92 331.67,184.02C330.85,184.63 331.36,185.75 329.73,185.45Z" style="fill-rule:nonzero;"/>
        <path d="M542.59,132.92C541.67,132.41 541.16,131.9 541.47,130.88C542.28,131.39 542.79,131.8 542.59,132.92Z" style="fill-rule:nonzero;"/>
        <path d="M240.28,417.18C240.59,417.79 241.3,418.1 241.3,418.81C240.58,418.5 240.28,417.89 240.28,417.18Z" style="fill-rule:nonzero;"/>
        <path d="M538.81,118.54C539.52,118.54 540.03,118.85 540.14,119.76C539.12,119.97 538.71,119.46 538.81,118.54Z" style="fill-rule:nonzero;"/>
        <path d="M369.81,483.68C369.71,482.66 370.01,482.25 370.83,482.25C371.34,483.17 370.93,483.58 369.81,483.68Z" style="fill-rule:nonzero;"/>
        <path d="M367.67,488.27C367.36,487.56 367.67,487.15 368.49,486.84C368.79,487.86 368.48,488.27 367.67,488.27Z" style="fill-rule:nonzero;"/>
        <path d="M604.47,354.03C602.64,353.42 601.03,352.81 599.81,350.88C601.96,350.82 625.29,357.82 625.61,367.51C620.2,359.86 612.35,357 604.5,354.05C607.21,356.21 603.64,355.86 604.47,354.03Z" style="fill-rule:nonzero;"/>
        <path d="M711.59,404.63C711.69,405.14 711.69,405.75 710.57,406.87C710.78,405.55 709.96,404.63 711.59,404.63Z" style="fill-rule:nonzero;"/>
        <path d="M639.38,381.99C640.2,381.48 640.71,380.66 641.83,381.17C641.11,381.79 640.6,382.5 639.38,381.99Z" style="fill-rule:nonzero;"/>
        <path d="M317.49,377.71C318,377.4 318.31,376.89 319.02,377C318.61,377.71 318.1,377.81 317.49,377.71Z" style="fill-rule:nonzero;"/>
        <path d="M310.86,555.07C310.55,555.38 310.25,555.27 309.94,555.17C310.25,554.87 310.55,554.87 310.86,555.07Z" style="fill-rule:nonzero;"/>
        <path d="M318,367.51C318.2,367.1 318.31,366.69 318.82,366.69C318.92,367.2 318.61,367.51 318,367.51Z" style="fill-rule:nonzero;"/>
        <path d="M298.21,39.29C298.52,40.11 298.01,40.31 297.5,40.62C297.09,39.8 297.4,39.39 298.21,39.29Z" style="fill-rule:nonzero;"/>
        <path d="M647.03,368.22C646.72,368.83 646.21,369.04 645.6,369.24C645.81,368.43 646.32,368.22 647.03,368.22Z" style="fill-rule:nonzero;"/>
        <path d="M552.89,164.54C552.28,164.23 552.07,163.93 552.38,163.42C552.89,163.62 553.3,163.93 552.89,164.54Z" style="fill-rule:nonzero;"/>
        <path d="M544.53,160.87C544.84,161.38 544.94,161.89 544.33,162.3C544.02,161.68 543.51,161.17 544.53,160.87Z" style="fill-rule:nonzero;"/>
        <path d="M296.17,352.82C295.86,352.51 295.56,352.11 295.35,351.8C296.07,351.8 296.68,352 296.17,352.82Z" style="fill-rule:nonzero;"/>
        <path d="M603.07,596.48C601.74,596.99 601.64,595.56 600.93,595.15C601.64,595.36 602.87,594.95 603.07,596.48Z" style="fill-rule:nonzero;"/>
        <path d="M372.67,451.55C373.28,452.16 373.18,452.88 372.67,453.59L372.67,451.55Z" style="fill-rule:nonzero;"/>
        <path d="M634.59,411.88C635.41,411.27 636.02,410.96 636.43,412.08C635.81,412.49 635.3,412.79 634.59,411.88Z" style="fill-rule:nonzero;"/>
        <path d="M268.84,274.29C268.74,274.9 268.64,275.41 267.92,275.51C267.92,274.9 268.12,274.39 268.84,274.29Z" style="fill-rule:nonzero;"/>
        <path d="M304.33,273.37C304.84,273.57 305.25,273.78 304.84,274.39C304.53,274.08 304.02,273.98 304.33,273.37Z" style="fill-rule:nonzero;"/>
        <path d="M641.32,277.04C641.12,276.84 640.91,276.53 640.71,276.33C641.11,276.22 641.73,276.43 641.32,277.04Z" style="fill-rule:nonzero;"/>
        <path d="M294.64,403.61L294.64,404.53C294.6,404.39 294.42,403.61 294.64,403.61Z" style="fill-rule:nonzero;"/>
        <path d="M317.39,267.55C317.29,266.94 317.7,266.63 318.41,266.12C318.3,267.15 318.1,267.66 317.39,267.55Z" style="fill-rule:nonzero;"/>
        <path d="M646.01,412.39C646.01,412.7 645.5,412.7 644.99,412.08C645.6,411.77 646.11,411.57 646.01,412.39Z" style="fill-rule:nonzero;"/>
        <path d="M316.57,232.16C316.67,231.24 316.98,230.63 317.69,230.12C317.39,230.73 318.1,231.86 316.57,232.16Z" style="fill-rule:nonzero;"/>
        <path d="M302.9,403.72C303.41,404.23 303.1,404.64 302.7,404.94C302.49,404.43 302.29,404.02 302.9,403.72Z" style="fill-rule:nonzero;"/>
        <path d="M641.93,412.08C640.91,411.67 640.09,412.08 640.09,410.96C640.71,410.65 641.22,410.65 641.93,412.08Z" style="fill-rule:nonzero;"/>
        <path d="M312.49,408.92C311.37,409.12 310.86,408.82 311.57,407.59C312.29,407.8 312.59,408.2 312.49,408.92Z" style="fill-rule:nonzero;"/>
        <path d="M316.77,192.49C316.97,192.29 317.38,192.69 317.38,193.61C316.77,193.2 316.16,193 316.77,192.49Z" style="fill-rule:nonzero;"/>
        <path d="M305.86,410.14C305.15,410.34 304.64,410.34 304.43,409.53C305.25,408.92 305.76,408.92 305.86,410.14Z" style="fill-rule:nonzero;"/>
        <path d="M299.03,410.24C299.64,409.73 300.15,409.53 300.76,410.34C300.15,410.96 299.64,411.26 299.03,410.24Z" style="fill-rule:nonzero;"/>
        <path d="M260.47,393.62C262,397.7 260.47,402.09 262.61,405.86C258.64,403.31 257.82,398.11 260.47,393.62Z" style="fill-rule:nonzero;"/>
        <path d="M266.18,383.32C263.12,386.69 260.26,389.95 257.2,393.42C258.43,388.42 262.82,383.42 266.18,383.32Z" style="fill-rule:nonzero;"/>
        <path d="M246.91,460.02C244.77,456.96 244.97,454.72 247.62,452.27C248.13,455.02 247.21,457.47 246.91,460.02Z" style="fill-rule:nonzero;"/>
        <path d="M248.34,435.44C249.16,439.62 248.54,443.8 247.52,447.88C247.42,443.7 247.11,439.52 248.34,435.44Z" style="fill-rule:nonzero;"/>
        <path d="M278.63,399.53C277.71,397.18 275.26,395.65 274.75,392.9C277.81,392.9 279.85,396.47 278.63,399.53Z" style="fill-rule:nonzero;"/>
        <path d="M275.57,406.98C275.98,404.33 277.3,401.98 278.73,399.64C280.16,403.1 277.51,404.94 275.57,406.98Z" style="fill-rule:nonzero;"/>
        <path d="M251.19,406.98C249.76,405.04 248.54,402.9 247.11,400.86C249.87,401.98 251.19,404.02 251.19,406.98Z" style="fill-rule:nonzero;"/>
        <path d="M270.98,428.09C269.45,429.31 267.82,430.44 265.78,430.74C267.2,429.21 268.33,427.28 270.98,428.09Z" style="fill-rule:nonzero;"/>
        <path d="M256.09,424.32C253.74,421.06 253.74,420.85 254.76,417.79C256.09,419.93 256.09,421.97 256.09,424.32Z" style="fill-rule:nonzero;"/>
        <path d="M260.47,413.3C260.98,411.26 261.29,409.83 261.8,407.79C262.72,410.75 262.72,410.75 260.47,413.3Z" style="fill-rule:nonzero;"/>
        <path d="M273.83,433.29C273.63,434.92 273.32,436.04 271.48,437.37C272.1,435.44 272.1,434.11 273.83,433.29Z" style="fill-rule:nonzero;"/>
        <path d="M246.5,463.38C247.93,463.99 247.62,465.01 247.01,466.54C245.99,465.22 245.79,464.4 246.5,463.38Z" style="fill-rule:nonzero;"/>
        <path d="M259.35,523.86C258.53,523.55 258.53,523.15 259.15,522.13C259.66,522.95 260.27,523.35 259.35,523.86Z" style="fill-rule:nonzero;"/>
        <path d="M266.69,463.08C266.49,462.57 266.38,461.96 266.79,461.35C268.02,462.06 267.51,462.57 266.69,463.08Z" style="fill-rule:nonzero;"/>
        <path d="M271.39,438.29C271.8,439.82 271.19,440.23 270.06,440.84C269.96,439.41 270.37,438.9 271.39,438.29Z" style="fill-rule:nonzero;"/>
        <path d="M246.4,471.75C245.69,471.65 245.48,471.14 245.69,469.91C246.6,470.52 247.01,470.93 246.4,471.75Z" style="fill-rule:nonzero;"/>
        <path d="M261.49,415.34C261.9,416.16 261.69,416.77 260.78,417.18C260.68,416.46 260.17,415.55 261.49,415.34Z" style="fill-rule:nonzero;"/>
        <path d="M269.75,417.18C269.24,416.16 269.55,415.55 270.57,415.04C271.08,416.26 270.57,416.77 269.75,417.18Z" style="fill-rule:nonzero;"/>
        <path d="M268.43,450.53C269.25,451.45 268.84,451.75 268.23,452.06C267.82,451.45 267.82,451.04 268.43,450.53Z" style="fill-rule:nonzero;"/>
        <path d="M244.36,492.35C244.67,492.86 244.97,493.27 244.36,494.08C243.75,493.47 243.75,492.96 244.36,492.35Z" style="fill-rule:nonzero;"/>
        <path d="M292.5,143.84C289.44,142 286.58,142.82 283.22,143.94C286.08,144.86 288.83,144.45 291.07,146.18C267.61,149.61 284.35,134.33 292.5,143.84Z" style="fill-rule:nonzero;"/>
        <path d="M272.2,144.14C263.53,147.2 263.53,147.2 260.16,146.28C260.87,144.34 262.72,145.49 263.93,144.85C266.05,143.74 271.97,144.25 262.71,142.71C260.77,142.71 260.06,144.44 258.43,143.63C263.23,139.45 270.47,139.76 272.2,144.14Z" style="fill-rule:nonzero;"/>
        <path d="M284.34,167.19C282.02,169.23 275.92,166.91 272.71,167.5C270.88,167.84 269.14,168.32 267,166.99C271.08,165.36 281.59,165.56 284.34,167.19Z" style="fill-rule:nonzero;"/>
        <path d="M277.71,169.23C279.55,169.32 280.57,170.05 280.97,171.78C278.32,172.8 273.93,172.7 270.87,171.58C272.61,168.93 272.61,168.99 277.71,169.23Z" style="fill-rule:nonzero;"/>
        <path d="M273.02,160.77C273.68,156.99 278.58,157.77 278.43,161.08C276.59,160.46 274.96,160.26 273.02,160.77Z" style="fill-rule:nonzero;"/>
        <path d="M188.16,492.86C179.08,494.08 170.01,494.39 160.83,493.47C169.9,493.57 179.08,492.45 188.16,492.86Z" style="fill-rule:nonzero;"/>
        <path d="M211.21,492.35C218.45,492.15 225.8,491.74 233.14,492.45C225.8,492.45 218.55,493.06 211.21,492.35Z" style="fill-rule:nonzero;"/>
        <path d="M154.91,500.61C155.62,498.37 155.73,495.92 157.66,494.29C157.15,496.53 156.64,498.77 154.91,500.61Z" style="fill-rule:nonzero;"/>
        <path d="M230.59,487.76C228.86,488.47 227.12,488.58 224.98,488.07C227.12,486.43 228.86,487.15 230.59,487.76Z" style="fill-rule:nonzero;"/>
        <path d="M156.64,492.65C155.52,492.24 154.8,492.04 154.5,490.81C155.73,490.92 156.34,491.23 156.64,492.65Z" style="fill-rule:nonzero;"/>
        <path d="M312.49,489.49L310.35,489.49C311.16,489.39 311.88,488.88 312.49,489.49Z" style="fill-rule:nonzero;"/>
        <path d="M318.81,489.59C318.5,489.79 318.2,489.69 317.89,489.49C318.3,489.19 318.61,489.08 318.81,489.59Z" style="fill-rule:nonzero;"/>
        <path d="M267.2,8.9C270.87,6.04 283.21,8.19 286.27,12.16C283.22,15.73 269.35,13.28 267.2,8.9ZM281.48,12.16C284.8,12.71 282.48,10.62 280.36,10.83C280.67,11.34 280.87,11.96 281.48,12.16ZM270.57,9.2C270.57,10.45 268.7,9.49 280.26,10.93C277.2,8.9 273.73,9.71 270.57,9.2Z" style="fill-rule:nonzero;"/>
        <path d="M595.93,395.56C597.15,399.54 596.34,403.72 598.07,407.39C594.1,404.74 593.38,400.96 595.93,395.56Z" style="fill-rule:nonzero;"/>
        <path d="M600.93,384.64C598.89,388.62 595.42,391.37 592.77,394.74C594.4,390.46 596.95,386.99 600.93,384.64Z" style="fill-rule:nonzero;"/>
        <path d="M583.08,449.82C582.67,445.43 582.77,441.15 584.1,436.97C584,441.25 584.92,445.64 583.08,449.82Z" style="fill-rule:nonzero;"/>
        <path d="M582.47,461.65C580.33,458.28 580.74,455.73 583.29,454.2C583.79,456.75 582.67,459.2 582.47,461.65Z" style="fill-rule:nonzero;"/>
        <path d="M610.92,394.13C613.67,395.35 614.69,397.7 614.59,400.56C613.07,398.62 610.62,397.19 610.92,394.13Z" style="fill-rule:nonzero;"/>
        <path d="M614.39,401.37C614.8,404.74 613.78,406.78 610.41,409.02C611.64,406.27 612.76,403.82 614.39,401.37Z" style="fill-rule:nonzero;"/>
        <path d="M586.85,408.51C585.22,406.57 584.1,404.33 582.67,402.29C585.22,403.61 586.96,405.45 586.85,408.51Z" style="fill-rule:nonzero;"/>
        <path d="M591.24,424.83C590.02,423.3 589,421.77 590.32,419.12C591.75,421.16 591.65,422.99 591.24,424.83Z" style="fill-rule:nonzero;"/>
        <path d="M606.54,429.72C605.01,430.54 603.89,431.96 601.54,432.07C603.07,430.13 604.29,428.91 606.54,429.72Z" style="fill-rule:nonzero;"/>
        <path d="M596.54,414.22C596.95,412.89 596.23,411.16 597.97,409.73C598.38,411.67 598.28,413.1 596.54,414.22Z" style="fill-rule:nonzero;"/>
        <path d="M609.6,434.52C609.19,436.66 608.78,437.78 607.56,438.4C607.56,436.97 607.76,435.74 609.6,434.52Z" style="fill-rule:nonzero;"/>
        <path d="M582.47,467.87C581.76,466.85 581.45,466.03 582.37,464.5C583.28,465.83 583.69,466.75 582.47,467.87Z" style="fill-rule:nonzero;"/>
        <path d="M579.82,493.88C580.53,494.39 580.74,495 580.23,495.72C579.41,495.2 579.2,494.59 579.82,493.88Z" style="fill-rule:nonzero;"/>
        <path d="M597.36,417.08C597.26,417.9 597.46,418.81 596.03,419.02C596.14,418.1 595.73,417.08 597.36,417.08Z" style="fill-rule:nonzero;"/>
        <path d="M607.05,439.82C607.15,441.25 607.15,442.17 605.52,442.06C605.72,441.25 605.93,440.64 607.05,439.82Z" style="fill-rule:nonzero;"/>
        <path d="M604.4,452.26C604.81,452.77 604.71,453.28 604.09,453.79C603.17,452.77 603.58,452.47 604.4,452.26Z" style="fill-rule:nonzero;"/>
        <path d="M605.31,418.5C605.21,417.68 605,416.87 606.64,416.66C606.44,417.59 606.74,418.5 605.31,418.5Z" style="fill-rule:nonzero;"/>
        <path d="M594.91,431.46C595.59,431.8 595.6,431.71 595.42,432.07C594.74,431.73 594.73,431.82 594.91,431.46Z" style="fill-rule:nonzero;"/>
        <path d="M594.71,519.99C595.32,520.6 594.53,520.74 594.4,520.81C594.01,520.02 594.22,520.23 594.71,519.99Z" style="fill-rule:nonzero;"/>
        <path d="M611.13,410.35C611.03,411.27 610.93,411.78 610.11,411.68C609.9,410.96 610.21,410.65 611.13,410.35Z" style="fill-rule:nonzero;"/>
        <path d="M659.98,201.77C657.63,196.87 659.57,189.73 663.96,185.76C662.64,190.96 661.31,196.16 659.98,201.77Z" style="fill-rule:nonzero;"/>
        <path d="M650.09,182.8C651.01,186.68 653.86,190.04 652.23,194.53C648.63,181.2 649.06,183.31 650.09,182.8Z" style="fill-rule:nonzero;"/>
        <path d="M657.94,199.52C657.33,202.17 659.98,202.89 660.8,205.23C654.8,203.93 654.55,199.88 657.94,199.52Z" style="fill-rule:nonzero;"/>
        <path d="M668.96,177.29C667.23,180.04 666.41,183.41 663.86,185.76C664.78,182.49 666.61,179.74 668.96,177.29Z" style="fill-rule:nonzero;"/>
        <path d="M680.18,160.26C679.36,162.5 678.24,164.54 676.51,166.18C676.61,163.42 678.34,161.79 680.18,160.26Z" style="fill-rule:nonzero;"/>
        <path d="M689.46,118.34C689.26,120.38 688.34,121.5 686.91,122.22C687.01,120.68 687.22,119.05 689.46,118.34Z" style="fill-rule:nonzero;"/>
        <path d="M671,189.63C671.1,187.69 671.61,186.06 673.35,184.33C673.45,186.88 672.32,188.3 671,189.63Z" style="fill-rule:nonzero;"/>
        <path d="M686.2,150.46C686.1,151.99 685.79,153.52 683.55,154.95C684.36,152.81 684.67,151.38 686.2,150.46Z" style="fill-rule:nonzero;"/>
        <path d="M663.66,126.6C663.76,128.33 663.97,130.07 664.07,131.8C662.74,130.27 663.25,128.43 663.66,126.6Z" style="fill-rule:nonzero;"/>
        <path d="M667.43,216.56C666.21,215.03 665.29,214.01 664.98,212.48C666.31,213.09 667.63,213.9 667.43,216.56Z" style="fill-rule:nonzero;"/>
        <path d="M665.59,210.85C664.26,209.63 663.24,208.91 663.04,206.67C664.68,207.99 665.49,208.81 665.59,210.85Z" style="fill-rule:nonzero;"/>
        <path d="M699.15,125.27C698.44,124.35 697.62,123.33 699.05,122.01C699.97,123.03 699.86,124.15 699.15,125.27Z" style="fill-rule:nonzero;"/>
        <path d="M693.54,159.75C693.44,161.18 693.13,162.71 691.6,164.54C691.91,162.19 692.21,160.77 693.54,159.75Z" style="fill-rule:nonzero;"/>
        <path d="M669.98,194.83C670.59,195.85 670.18,196.56 668.96,197.79C669.26,196.36 668.75,195.34 669.98,194.83Z" style="fill-rule:nonzero;"/>
        <path d="M665.39,122.11C666.21,120.68 666.92,120.17 668.25,119.97C667.53,121.09 666.82,121.6 665.39,122.11Z" style="fill-rule:nonzero;"/>
        <path d="M654.07,223.49C653.46,222.67 653.25,221.86 653.97,220.94C654.88,221.76 654.58,222.57 654.07,223.49Z" style="fill-rule:nonzero;"/>
        <path d="M652.84,201.56C652.23,201.05 651.82,200.54 652.53,199.52C653.05,200.14 653.86,200.54 652.84,201.56Z" style="fill-rule:nonzero;"/>
        <path d="M672.22,173.01C672.22,171.89 672.63,171.48 673.65,171.38C673.55,172.29 673.04,172.8 672.22,173.01Z" style="fill-rule:nonzero;"/>
        <path d="M614.6,145.47C616.95,141.29 624.9,141.08 628.27,145.37C626.74,145.47 625.82,144.15 623.99,144.04C623.07,145.57 620.73,144.24 618.79,145.77C621.75,146.28 624.4,145.97 626.64,147.61C618.88,149.04 618.57,149.04 614.6,145.47Z" style="fill-rule:nonzero;"/>
        <path d="M607.56,146.38C605.42,145.36 604.81,147.2 603.99,148.22C601.13,148.53 598.38,148.53 595.63,147.81C598.86,145.56 608.45,145.62 600.63,144.75C599.71,144.65 598.79,144.34 598.08,144.14C596.55,144.24 595.84,145.87 593.9,145.26C599.3,140.88 606.74,141.39 607.56,146.38Z" style="fill-rule:nonzero;"/>
        <path d="M620.51,168.21C618.37,169.54 605.72,169.64 603.37,168.41C608.88,166.78 614.39,167.7 620.51,168.21Z" style="fill-rule:nonzero;"/>
        <path d="M613.98,170.86C615.71,170.66 616.53,171.88 616.53,174.02C613.16,174.22 610,174.02 606.43,173.71C608.07,168.62 611.54,171.37 613.98,170.86Z" style="fill-rule:nonzero;"/>
        <path d="M608.68,162.91C608.99,160.05 610.31,159.85 611.64,160.05C612.86,160.15 614.19,160.56 614.09,162.7C612.35,162.3 610.82,161.58 608.68,162.91Z" style="fill-rule:nonzero;"/>
        <path d="M523.52,494.69C523.41,494.7 496.8,497.15 496.8,494.79C505.77,495.1 514.64,494.18 523.52,494.69Z" style="fill-rule:nonzero;"/>
        <path d="M569,493.98C561.76,493.98 554.41,494.59 547.17,493.98C554.42,493.67 561.66,493.47 569,493.98Z" style="fill-rule:nonzero;"/>
        <path d="M493.33,495.82C493.02,497.96 492.41,500 490.88,501.74C491.18,499.59 491.49,497.35 493.33,495.82Z" style="fill-rule:nonzero;"/>
        <path d="M561.15,489.49C562.88,488.27 564.72,488.47 566.96,489.49C564.72,490.21 562.99,490.1 561.15,489.49Z" style="fill-rule:nonzero;"/>
        <path d="M492,493.98C491.08,493.98 490.57,493.57 490.16,492.55C491.39,492.55 492.2,492.76 492,493.98Z" style="fill-rule:nonzero;"/>
        <path d="M647.95,490.82C647.95,491.09 648.3,491.02 645.6,491.02C645.89,490.74 645.11,490.82 647.95,490.82Z" style="fill-rule:nonzero;"/>
        <path d="M654.27,490.82C654.07,491.33 653.76,491.23 653.45,491.13C653.26,490.92 653.37,490.82 654.27,490.82Z" style="fill-rule:nonzero;"/>
        <path d="M620.21,500.41C620.31,500.72 620.21,501.12 619.39,501.12C615.81,492.47 617.31,486.05 615.72,478.07C618.84,479.03 617.16,490.56 620.21,500.41Z" style="fill-rule:nonzero;"/>
    </g>
</svg>
