<?xml version="1.0" encoding="UTF-8" standalone="no"?>
<!DOCTYPE svg PUBLIC "-//W3C//DTD SVG 1.1//EN" "http://www.w3.org/Graphics/SVG/1.1/DTD/svg11.dtd">
<svg width="100%" height="100%" viewBox="0 0 900 600" version="1.1" xmlns="http://www.w3.org/2000/svg" xmlns:xlink="http://www.w3.org/1999/xlink" xml:space="preserve" xmlns:serif="http://www.serif.com/" style="fill-rule:evenodd;clip-rule:evenodd;stroke-linejoin:round;stroke-miterlimit:2;">
    <g>
        <path d="M200.1,442.37L200,442.27C199.96,442.5 199.86,442.9 200.1,442.37Z" style="fill-rule:nonzero;"/>
        <path d="M424.03,82.36C422.13,82.52 347.08,83.09 345.65,82.05C343.76,78.27 342.56,79.38 420.53,79.38C423.59,79.38 425.22,79.61 425.06,77.43C424.13,76.12 428.75,76.4 348.43,76.4C345.86,76.4 343.49,76.3 341.95,74.03C334.35,75.44 335.81,69.04 333,70.53C329.87,72.2 325.08,71.35 324.26,76.39C265.37,76.39 216,76.34 163.39,76.39C153.99,76.4 150.81,71.15 144.98,73.72C142.91,74.63 140.56,71.97 138.29,73.82C132.51,79.6 68.87,72.95 67.73,77.73C68.45,79.68 69.99,79.17 71.43,79.17C134.98,79.34 130.96,78.9 132.43,79.58C132.84,83.28 133.14,82.56 128.73,82.56C64.47,82.56 68.78,81.88 68.15,84.1C69.01,86.02 64.02,85.44 130.28,85.44C132.31,85.44 133.95,85.04 134.6,86.98C138.77,107.55 147.06,105.08 147.35,114.96C147.67,125.67 145.67,135.46 153.21,153.43C156.1,160.31 165.96,181.26 165.45,190.25C165.07,197.04 167.22,203.52 167.82,210.2C168.33,215.89 168.25,228.72 180.37,238.49C177.39,232.73 175.23,226.87 173.89,220.28C172.35,221.82 174.1,223.16 173.07,224.29C169.85,221.61 170.87,195.77 164.53,176.56C155.02,147.71 162.88,175.56 151.88,141.28C148.19,129.77 151.67,128.76 148.9,110.42C148.71,109.14 137.59,95.26 137.59,90.98C137.59,87.59 136.77,84.6 133.99,82.44C135.43,80.59 135.12,78.22 136.77,76.47C137.18,78.73 135.5,81.16 138.11,82.54C139.94,83.51 141.2,82.33 142.64,81.1C140.89,79.97 139.45,80.48 137.6,81.2C138.69,78.65 138.7,73.24 143.05,75.85C143.87,76.98 143.56,78.63 144.7,79.66C146.24,78.63 145.11,77.19 145.83,76.06C150.94,71.59 148.36,78.2 151.38,79.56C152.2,78.43 151.07,77.19 152.1,76.27C158.36,75.08 154.16,87.92 160.74,86.04C162.08,88.93 151.73,101.4 159.81,111.75C159.88,111.85 165.95,128.93 165.98,129.03C170.73,142.84 184.93,162.74 184.08,176.65C191.5,184.07 191.53,190.22 196.94,212.65C198.24,218.05 200.99,214.83 208.46,222.94C214.04,228.99 218.44,235.8 220.6,243.82C220.19,244.44 219.16,244.64 219.47,246.08C222.14,247.21 222.35,249.99 222.97,252.77C222.87,253.59 221.74,253.7 221.63,254.83C221.51,258.16 219.51,271.95 217.93,277.15C213.08,271.42 208.34,268.75 211.14,259.05C212.12,255.65 212.35,254.48 211.04,254.22C206.73,259.46 208.31,276 217.73,279.21C213.41,288.47 205.18,300.6 202.2,302.04C200.55,295.87 198.29,289.9 194.79,284.55C191.72,279.86 191.74,275.29 191.79,274.82C187.42,258.94 194.94,261.11 182.24,240.73C180.59,243.48 183.63,249.21 185.33,251.84C187.61,255.38 187.53,257.41 188.72,270.05C190.74,291.3 197.75,290.12 200.14,304.71C202.01,316.17 210.42,330.64 212.28,349.15C212.46,350.95 210.47,366.53 212.79,376.61C210.53,379.18 210.12,382.47 211.45,383.6C212.58,384.22 212.99,382.78 213.82,382.88C214.64,383.5 214.75,384.63 215.88,384.73C216.09,384.11 216.19,383.5 216.39,382.88C217.42,382.88 218.04,384.73 219.27,383.5C219.75,383.98 218.5,382.41 218.24,381.65C217.42,380.31 216.49,381.96 215.87,380.52C232.69,381.24 256.39,380.79 267.3,383.19C267.81,384.22 266.89,385.04 267.51,385.76C268.64,385.66 268.54,384.01 270.08,384.11C271.52,384.11 271.11,386.06 272.03,386.78C272.96,385.96 272.75,384.72 273.68,384.21C274.71,384.42 273.99,385.65 274.71,386.06C275.84,386.06 275.64,383.8 277.28,384.62C278,385.65 277.18,387.19 278,388.22C279.65,388.22 278.72,386.37 280.06,386.06C281.13,393.01 285.22,391.33 285.31,396.65C285.63,415.95 287.98,412.36 288.29,419.79C288.5,424.62 287.75,429.57 288.8,434.4C290.58,442.54 289.76,451.05 291.92,459.19C288.47,453.44 290.61,452.38 286.95,441.81C279.45,420.16 285.8,415.9 282.94,417.12C278.67,429.65 288.81,447.28 293.12,469.78C294.73,478.2 294.77,487.06 298.57,495.08C292.49,497 293.06,499.32 289.31,498.27C283.65,496.69 283.28,498.76 263.08,497.24C261.54,497.12 260.51,495.71 258.76,496.11C256.91,496.53 254.85,496.21 252.69,496.21C258.48,473.42 260.69,480.65 263.28,469.06C264.66,462.89 264.88,450.63 261.53,442.73C262.6,450.61 263.91,469.71 259.37,475.54C249.96,487.63 254.74,499.05 245.9,497.65C249.16,473.22 248.9,485.05 242.92,461.13C238.91,461.68 239.78,469.06 238.5,471.42C236.11,475.79 231.75,493.95 231.3,498.88C229.24,498.47 230.27,495.49 227.8,495.49C227.29,497.86 228.3,499.82 229.45,501.46C233.3,506.95 233.87,513.19 233.67,519.56C233.98,519.25 234.18,518.94 234.6,518.53C235.68,519.61 234.16,521.02 233.67,519.56C232.33,521.1 232.64,523.06 232.64,524.81C232.98,528.07 231.29,528.64 227.39,530.98C226.16,527.28 227.7,523.88 226.98,520.49C225.75,523.78 225.59,527.17 226.26,530.57C227.03,534.48 223.87,536.77 227.91,537.87C222.36,559.37 232.9,553.44 213.92,572.02C200.15,565.92 201.37,555.53 200.45,549.08C198.67,536.65 205.43,532.03 207.14,525.22C203.25,522.63 209.43,520.56 203.44,513.29C198.01,506.7 199.73,489.63 214.34,485.93C217.63,487.47 220.72,489.43 223.8,491.59C223.7,493.85 223.98,496.02 224.52,498.17C227.15,508.7 224.41,501.93 225.75,512.67C226.06,509.48 227.91,506.6 227.5,503.31C227.09,500.02 225.85,496.83 225.75,493.44C231.14,495.75 230.81,494.49 229.25,475.34C228.16,461.99 228.32,462.48 226.68,462.38C226.27,472.36 229.66,482.23 228.74,492.72C224.73,489.22 220.56,486.68 216.29,484.18C211.89,481.6 204.97,488.03 201.99,491.59C200.45,491.8 199.11,491.49 197.67,490.66C198.08,487.78 197.46,485.11 197.05,482.33C193.87,460.69 197.74,455.32 199.97,442.59C198.02,445.19 192.89,462.45 194.79,478.32C195.27,482.34 196.13,486.24 195.92,490.46C192.83,490.05 190.16,489.43 187.28,488.61C186.4,476.92 190.72,473.7 188.82,461.97C187.7,455.01 191.04,451.92 194.17,442.53C200.75,422.8 196.25,419.42 198.49,413.32C200.58,407.64 202.19,401.9 203.53,395.83C205.28,395.83 205.61,394.2 206.41,393.05C212.57,384.21 214.26,387.61 217.93,386.88C215.15,385.75 212.27,385.95 210.32,384.51C206.51,387.29 203.33,390.17 200.75,393.77C201.98,398.45 196.68,405.04 195.3,422.98C193.55,445.66 184.68,449.68 186.35,462.58C188.51,479.21 180.36,485.97 186.86,493.13C187.89,494.5 185.99,495.73 188.61,514.42C191.15,532.52 190.99,526.52 201.26,532.93C195.65,549.76 197.17,567.75 213.91,573.66C217.1,572.84 219.05,570.27 221.11,568C225.12,563.58 229.44,559.05 227.69,552.16C232.01,552.88 234.53,555.86 234.89,560.08C234.9,560.18 232.75,591.28 242.4,598.65C243.33,599.27 244.14,600.17 245.38,599.88C258.42,596.92 255.04,595.22 260.81,585.48C267.47,574.25 268.78,561.6 260.3,549.99C260.2,548.96 260.81,547.62 261.02,546.18C261.22,544.84 261.32,543.6 262.77,542.89C266.36,541.12 268.74,538.57 267.91,534.25C271.3,532.81 274.29,534.66 277.58,534.76C275.05,537.8 285.95,535.88 288.07,531.57C296.67,514.12 292.66,513.34 296.61,498.55C306.5,491.57 298.83,517.82 290.64,424.9C291.67,424.69 291.26,426.44 292.49,426.03C292.47,425.93 288.92,411.12 288.89,411.01C285.5,400.59 291.4,392.53 282.31,389.2C282.72,386.63 283.49,384.21 281.49,382.1C279.89,380.42 281.8,315.98 293.42,293.33C298.44,283.55 301.02,273.07 300.21,262.27C299.69,255.38 303.24,249.72 303.3,243.24C303.3,242.61 308.43,237.65 312.87,225.03C321.6,200.23 316.65,190.56 321.2,180.49C336.69,146.23 335.12,132.42 337.66,108.28C338.19,103.22 340.06,108.87 343.63,93.47C345.77,84.23 344.92,85.45 349.7,85.45C431.99,85.45 425.36,85.98 426.43,84.32C426.29,82.87 425.57,82.23 424.03,82.36ZM207.3,388.88C207.2,389.91 206.68,390.22 205.86,391.25C206.07,389.8 206.38,389.29 207.3,388.88ZM191.98,523.63C190.95,517.05 188.82,510.57 189.41,503.78C189.73,500.08 189.82,496.27 189,491.75C193.11,493.19 197.02,492.78 201.14,493.6C199.49,497.82 199.19,502.03 199.39,506.25C196.05,507.98 190.47,509.71 191.37,511.5C193.94,510.57 196.41,509.75 199.29,508.72C199.5,513.04 202.89,515.51 204.64,519.01C203.3,522.92 205.15,527.55 202.17,531.46C194.67,526.34 193.3,528.94 191.98,523.63ZM231.78,500.69C232.5,499.66 233.94,500.18 234.25,498.53C232.12,495.24 236.87,495.18 239.19,474.36C239.5,471.58 241.66,469.73 242.28,467.16C248.98,492.2 240.63,496.26 244.03,500.9C246.38,502 248.56,499.12 248.56,502.44C242.69,504.6 237.23,503.05 231.78,500.69ZM266.04,533.81C265.92,537.92 264.6,541.01 260.18,542.04C257.54,554.24 260.73,546.27 264.09,566.93C264.64,570.32 263.07,573.31 261.93,576.19C253.23,598.04 255.28,594.58 245.78,598.2C237.51,592.16 236.59,566.31 237.45,561.27C237.76,558.29 235.29,555.92 235.5,553.04C233.44,550.98 230.77,550.37 228.2,549.44C227.2,545.95 230.24,539.93 228.51,536.27C227.63,534.41 230.59,531.25 235.71,529.38C236.94,527.63 238.08,524.65 240.34,522.59C241.37,522.28 240.75,523.62 242.19,523.21C246.15,520.57 243.25,515.18 256.59,513.54C258.2,513.34 260.17,516.09 263.38,518.27C268.11,521.51 266.25,526.7 266.04,533.81ZM293.91,502.02C289.96,518.38 291.78,514.9 287.64,527.63C284.88,536.12 273.62,531.62 268.61,531.33C267.44,526.24 270.05,520.87 264.7,517.03C253.14,508.74 248.79,510.86 242.69,519.4C239.81,519.91 238.58,520.84 235.7,525.16C235.08,524.65 234.47,523.62 235.08,523.51C237.24,523.12 236.81,521.35 237.03,520.12C239.73,505.01 232.49,507.8 234.97,504.07C244.72,509.27 248.52,502.98 267.99,500.68C276.78,499.64 278.89,503.45 285.78,509.94C286.19,507.06 286.19,507.06 278.48,500.99C283.62,499.34 288.66,501.09 293.81,500.58C294.32,501 294.12,501.51 293.91,502.02ZM292.16,461.29C292.16,460.78 292.16,460.16 292.06,459.75C292.47,460.16 292.57,460.68 292.16,461.29ZM159.16,82.56C156.84,78.3 142.37,79.58 322.91,79.58C322.63,83.56 333.36,82.56 159.16,82.56ZM343.69,85.85C341.17,93.91 343.02,95.74 335.26,110.02C335.01,110.48 332.4,125.67 333.41,135.22C334.07,141.47 318.02,184.7 317.98,184.8C314.93,192.22 319.95,208.23 304.4,239.73C302.48,242.93 301.78,239.84 301.11,244.15C298.93,258.24 297.61,256.63 298.02,259.17C299.91,270.6 293.75,287.13 293.19,289.62C289.8,289.52 286.61,289.93 283.42,287.77C286.22,292.86 288.6,288.43 292.57,291.16C291.85,293.22 291.13,295.27 290.51,297.23C289.69,297.85 288.66,297.02 287.94,298.46C279.81,325.72 277.96,354.21 279.4,383.01C274.05,381.16 268.19,381.67 262.43,380.13C263.77,372.83 265.93,365.73 266.65,358.32C264.18,365.31 262.95,372.62 260.89,379.82C245.46,379.31 230.34,378.28 215.12,377.45C215.63,372.2 214.71,367.47 215.33,362.74C216.26,355.64 214.18,348.86 212.96,341.96C208.68,317.61 202.28,315.05 202.67,304.11C204.52,303.6 206.25,302.76 207.3,301.02C220.96,278.46 219.5,283.55 222.01,270.57C222.83,266.35 222.84,262.04 224.68,257.92C226.05,254.85 223.24,250.5 223.86,248.35C233.48,254.36 236.44,253.68 238.36,262.03C239.57,267.28 244.61,268.68 248.75,265.22C252.45,262.13 254.34,255.54 262.33,251.64C261.21,255.92 257.43,260.04 261.51,255.96C262.13,255.34 262.33,254.42 263.57,254.01C263.57,275.45 261.45,263.8 272.62,285.38C274.44,288.9 281.77,299.62 285.79,299.88C283.34,295.25 283.7,298.17 273.14,282.5C271.32,279.8 270.88,276.23 268.51,273.96C262.46,263.37 269.74,251.17 265.12,247.32C267.59,245.57 270.06,243.82 272.22,241.77C275.51,242.28 278.91,242.59 281.37,245.06C282.71,244.85 283.2,243.92 283.74,243.11C289.81,233.89 293.3,241.78 294.13,233.24C290.4,239.05 287.41,233.68 281.07,243.01C278.91,240.64 276.96,238.38 273.77,238.59C271.1,234.99 273.87,231.9 274.18,228.41C272.53,228 271.2,229.03 271.4,230.26C271.92,233.45 269.34,236.84 272.22,239.83C270.16,242.5 267.18,243.02 264.81,244.66C261.35,238.54 273.55,223.35 275.3,222.96C275.3,224.3 274.27,225.74 275.4,227.18C275.91,225.43 277.15,224.09 278.07,222.24C275.7,222.24 276.1,222.15 275.7,222.55C276.36,219.59 280.5,220.73 287.12,214.12C286.81,213.4 286.19,213.91 285.78,213.71C283.92,217.73 279.14,211.77 268.4,227.8C261.25,238.46 264.49,238.13 263.05,229.96C269.39,221.09 267.52,214.89 266.24,197.46C266.05,194.89 264.91,192.8 262.54,191.91C258.34,190.32 254.72,187.6 250.81,185.53C245.48,182.7 244.75,187.79 240.11,182.75C233.12,175.16 238.89,184.26 233.53,186.25C233.63,187.18 233.63,187.9 233.74,188.82C232.71,189.13 231.99,190.15 231.07,190.47C223.64,192.99 220.3,203.59 221.81,204.87C225.48,207.99 218.74,223.84 222.32,228.22C225.1,228.22 225.91,230.07 226.02,232.75C226.55,245.88 231.01,249.73 224.99,246.12C225.38,240.91 214.68,225.73 211,222.05C204.26,215.31 200.34,217.94 198.55,210.02C195.83,197.96 192.83,182.32 187.13,177.21C185.41,175.66 187.38,162.86 173.86,142.44C168.63,134.54 163.44,112.63 159.97,108.39C158.12,99.75 161.51,93.06 162.85,85.76L317.45,85.76C318.38,88.95 319.53,92.12 321.56,94.91C322.62,96.36 324.36,108.12 318.17,119.08C313.12,128.02 309.54,137.6 308.09,147.98C307.27,153.84 304.75,159.51 303.46,165.47C301.19,175.95 303.49,178.06 310.04,149.84C317,119.89 323.05,119.83 324.13,111.06C326.33,93.17 321.46,91.64 319.91,86.99C324.13,83.39 325.36,77.94 328.76,73.72C330.61,75.67 329.38,77.83 330.82,79.48C333.74,76.56 329.23,72.7 333.8,73.62C334.52,75.57 335.86,77.43 334.52,79.89C336.89,79.38 336.68,77.52 336.89,75.98C339.05,75.67 338.23,78.55 339.98,78.55C341.32,78.45 340.09,76.83 341.11,76.49C342.56,76.01 343.3,76.69 343.48,77.93C343.86,80.6 344.5,83.28 343.69,85.85ZM225.51,211.86C226.95,211.76 227.36,212.89 228.29,213.92C225.3,214.63 224.89,214.22 225.51,211.86ZM226.02,216.07C225.62,216.47 226.12,216.79 225.3,216.38C225.55,215.88 225.27,215.7 226.02,216.07ZM235.38,243.64C236.2,244.05 235.79,245.39 236.82,245.59C238.02,245.49 237.67,244.23 238.02,243.59C236.71,241.58 236.72,241.46 238.46,240.03C239.39,241.16 238.15,242.19 238.25,243.32C239.07,246.1 241.85,246.61 243.5,248.46C245.76,248.25 247.35,247.36 248.75,245.48C250.24,243.46 253.28,244.35 254.92,242.7C255.74,242.91 255.95,243.93 256.87,243.73C259.35,242.85 258.35,235.03 260.06,246.4C262.63,244.96 260.27,242.18 262.32,240.23C262.11,242.7 262.94,244.65 262.42,247.02C259.44,248.46 255.32,247.64 253.47,251.55C256.86,250.62 260.05,248.98 263.45,248.05C266.15,251.29 257.08,247.36 250.8,260.6C249,264.38 245.45,265.85 241.34,264.2C240.41,261.32 241.09,257.99 239.18,255.25C235.66,250.2 237.1,254.95 230.54,248.77C230.13,245.48 229.31,242.08 229.92,238.48C232.59,240.23 230.54,243.83 233.11,245.47C234.35,245.49 234.56,244.26 235.38,243.64ZM234.77,239.22C235.48,241.34 233.84,242.18 233.84,241.89C233.33,240.97 233.53,240.04 234.77,239.22ZM235.9,203.63C236.31,204.45 236.52,204.97 236.11,205.58C235.59,205.07 235.38,204.45 235.9,203.63ZM242.89,217.41C242.68,218.13 242.38,218.64 241.55,218.75C241.14,217.51 241.76,217.31 242.89,217.41ZM242.48,200.44C243.1,201.16 242.48,201.37 242.07,201.67C241.76,201.06 241.66,200.65 242.48,200.44ZM240.63,243.44C240.22,242.51 240.73,241.79 241.45,240.87C242.99,242.51 241.35,242.82 240.63,243.44ZM240.83,199.31C240.11,197.56 240.73,197.25 241.65,196.94C242.07,198.18 240.83,198.07 240.83,199.31ZM240.63,210.21C239.6,209.39 239.7,208.87 240.12,208.26C241.35,208.57 240.83,209.29 240.63,210.21ZM247.52,243.54C246.18,243.44 246.18,242.51 245.77,241.28C247.21,242 247.52,242.61 247.52,243.54ZM246.7,201.06C247.21,202.5 247.52,203.53 247.42,205.28C246.39,203.63 245.26,202.81 246.7,201.06ZM247.73,186.45C249.85,186.26 250.53,187.89 249.68,187.89C248.96,187.89 247.93,188.2 247.73,186.45ZM248.65,237.78C248.37,237.78 247.93,238.12 247.93,237.37C248.04,236.93 248.65,236.94 248.65,237.78ZM250.4,201.06C251.33,200.65 251.74,200.96 251.53,201.88C251.22,201.67 250.91,201.37 250.4,201.06ZM255.75,190.46C256.88,191.39 258.63,191.49 259.35,193.75C257.6,192.73 256.37,191.9 255.75,190.46ZM257.5,231.3C256.37,229.35 256.16,228.11 257.6,226.88C258.01,228.21 257.7,229.55 257.5,231.3ZM256.47,241.58C254.52,239.32 254.52,239.32 255.13,236.23C259.71,238.85 255.89,236.7 256.47,241.58ZM254.72,208.87C254.72,207.53 255.13,207.33 255.54,207.02C255.95,207.74 255.34,207.95 254.72,208.87ZM265.32,216.49C266.25,218.44 266.25,220.09 265.42,221.84C265.01,220.19 264.18,218.54 265.32,216.49ZM264.8,208.67C265.52,208.98 265.52,209.39 265.73,210.11C265.21,209.59 264.7,209.49 264.8,208.67ZM265.32,221.73C264.39,223.48 264.7,225.64 263.16,227.08C263.16,225.02 263.88,223.17 265.32,221.73ZM262.85,205.38C263.16,204.56 263.57,204.15 264.39,203.94C264.7,205.58 263.77,205.38 262.85,205.38ZM264.39,197.66C262.64,196.73 261.41,195.81 261,193.85C263.46,193.96 264.6,194.99 264.39,197.66ZM230.34,226.87C230.85,228.31 230.96,229.54 229.83,230.78C229.42,229.45 229.52,228.11 230.34,226.87ZM229.62,208.36C230.65,208.36 231.06,208.46 230.96,209.18C230.24,209.49 230.14,208.87 229.62,208.36ZM231.47,236.65C230.85,236.03 230.75,235.42 231.26,234.39C232.09,235.31 232.3,235.93 231.47,236.65ZM225.71,199.62C226.33,196.43 226.53,196.12 231.88,192.52C229.83,194.89 227.26,196.74 225.71,199.62ZM229.52,203.63C228.18,203.42 227.98,202.09 226.95,201.57C228.45,198.56 229.19,198.27 229.52,203.63ZM223.76,218.85C225.41,221.22 224.69,223.99 225.2,226.67C222.53,224.51 224.27,221.53 223.76,218.85Z" style="fill-rule:nonzero;"/>
        <path d="M191.75,274.85C191.76,274.87 191.76,274.89 191.77,274.91C191.77,274.8 191.76,274.78 191.75,274.85Z" style="fill-rule:nonzero;"/>
        <path d="M571.53,132.14L571.63,132.24C571.67,132.08 571.69,132.1 571.53,132.14Z" style="fill-rule:nonzero;"/>
        <path d="M829.91,84.31C828.05,84.46 760.95,84.84 759.55,84.21C759.06,80.31 748.2,81.43 826.51,81.43C829.08,81.43 831.21,81.72 831.04,79.58C830.16,78.17 836.18,78.45 759.04,78.45C757.6,77.32 756.98,75.88 755.54,75.16C748.13,76.3 749.85,69.82 745.67,71.77C742.37,73.3 737.75,73 737.75,78.35C682.85,78.35 712.14,77.38 685.29,70.74C665.04,65.73 672.96,66.63 673.46,54.18C673.84,44.85 677.95,46.32 678.09,36.59C678.29,22.99 676.96,27.67 676.96,17.56C676.96,12.01 673.48,12.02 669.04,9.54C659.12,4 659.08,3.59 658.03,4.09C651.7,7.12 650.04,-1.28 647.33,0.18C646.2,1.31 647.64,2.55 647.12,3.68C646.3,4.4 645.47,5.22 644.75,5.84C644.03,6.66 644.96,7.69 644.44,8.41C633.93,13.01 631.09,23.16 632.92,24.76C634.78,26.21 634.16,26.8 632.61,37.72C630.66,51.5 633.72,46.01 636.52,49.65C638.65,64.9 638.69,64.11 637.45,65.9C632.28,73.32 621.24,68.45 611.84,73.61C600.85,79.65 575.45,78.24 571.11,78.24C569.16,74.02 564.22,76.08 562.16,73.2C560.21,73.3 559.18,74.64 557.43,75.05C554.34,71.96 551.26,76.08 547.97,75.46C547.25,76.08 547.76,77.52 546.32,78.13C469.64,78.13 474.08,77.17 473.39,79.57C474.01,81.75 468.66,81.22 544.77,81.22C546.11,81.84 545.8,83.38 547.14,83.17C548.79,81.73 548.37,79.16 550.12,77.51C549.91,82.65 549.91,82.65 552.69,83.99C553.72,83.58 554.75,83.06 555.67,82.14C554.13,80.7 552.69,81.52 550.94,82.04C551.66,79.98 551.76,78.03 552.89,76.69C557.6,74.88 556.25,79.76 557.93,80.6C559.16,79.47 558.14,78.13 558.75,77C559.78,76.49 560.5,75.35 561.94,75.56C563.07,77 562.45,79.47 564.51,80.5C565.33,79.47 564.3,78.44 564.82,77.41C571.34,75.51 566.73,85.46 574.08,88.31C566.75,103.44 568.97,107.54 574.8,121.95C574.49,126.52 572.3,128.99 571.64,132.1C572.76,131.85 573.11,129.9 574.8,130.79C574.9,127.29 577.64,125.12 578.5,122.05C580.47,114.99 584.7,115.95 584.36,108.68C583.74,95.38 589.2,81.34 602.67,78.95C605.75,78.4 608.64,77.52 611.52,76.17C614.81,74.63 618.51,74.83 622.42,74.01C622.63,85.43 621.91,96.33 619.85,106.93C618.62,107.34 618.62,105.39 617.38,106.11C616.25,108.17 618.72,109.09 618.92,110.84C614.54,130.1 614.1,134.27 607.91,137.58C607.91,135.42 606.87,133.67 607.6,131.72C612.47,118.66 607.36,105.28 605.85,104.98C605.55,111.88 610.55,124.81 598.75,144.38C592.12,155.38 585.1,173.5 578.28,172.15C566.91,169.91 570.07,170.31 567.99,165.05C561.64,148.97 557.64,151.61 558.73,120.82C559.07,111.34 558.25,119.13 556.78,107.14C555.51,96.86 551.09,98.88 550.4,88.73C550.03,83.28 549.54,84.82 498.46,84.82C473.06,84.82 474.02,84.25 473.67,86.57C474.72,88.25 469.34,87.7 543.72,87.7C548.97,87.7 546.76,86.66 549.79,95.11C556.11,112.74 554.38,102.76 556.37,135.33C557.23,149.5 558.12,149.9 567.48,169.58C568.1,170.71 568.61,171.85 569.85,172.36C588.86,180.15 589.97,159.39 603.07,141.71C607.78,135.36 603.4,135.09 609.24,149.32C615.84,165.4 617.34,167.6 616.13,173.8C615.75,175.76 614.48,178.12 617.06,179.66C614.28,182.13 617.47,184.08 617.27,186.55C615.61,187.79 616.26,188.68 617.06,198.69C616.24,199.41 615.11,198.18 614.49,199.2C613.26,201.26 613.98,203.52 613.67,205.89C610.89,207.23 609.56,209.8 608.12,213.19C610.79,211.75 611.82,209.59 613.67,208.36C614.6,209.59 615.42,208.98 616.24,208.26C616.65,208.88 616.24,209.7 616.96,210.11C617.89,210.42 617.47,208.88 618.4,209.18C618.91,211.75 618.91,211.75 622.51,212.16C624.36,209.49 624.36,209.38 623.23,207.43C621.58,208.05 622.92,209.69 622.2,210.72C618.72,200.97 630.45,210.42 653.26,211.75C653.77,212.47 654.19,213.19 654.6,214.01C655.63,213.19 655.73,211.23 657.79,211.85C658.3,212.36 657.07,213.7 658.3,214.01C659.33,213.91 658.92,212.88 659.53,212.57C659.94,212.88 660.04,213.6 660.76,213.6C661.69,213.19 660.86,211.75 662.1,211.34C664.05,211.03 666.32,210.22 668.48,210.52C670.74,210.84 672.8,209.39 674.86,209.8C675.58,210.62 674.76,212.06 676.2,212.37C677.13,211.75 676.1,210 677.74,209.8C678.77,210.42 678.25,211.96 679.39,212.68C681.45,212.06 683.81,212.99 686.49,211.55C683.82,210.73 681.55,212.48 679.5,211.14C679.19,207.95 681.04,209.08 682.28,209.6C683.1,209.09 683,207.75 684.23,207.75C684.85,208.88 685.16,210.53 687.11,210.22C687.62,206.11 687.62,206.11 688.45,205.59C688.66,207.03 688.76,208.47 688.96,209.81C693.38,209.81 697.29,217.22 696.47,222.26C692.3,217.26 690.03,209.37 687.01,214.65C686.39,214.34 686.19,213.21 684.95,213.83C685.05,215.48 685.77,216.92 686.9,218.25C687.52,217.12 687.52,215.68 689.16,215.06C693.99,222.08 694.6,223.18 696.05,224.21C699.54,227.12 699.14,235.81 702.53,242.52C705.27,247.94 699.43,249.56 703.04,257.02C704.62,260.29 705.61,263.71 705.92,267.82C694.76,254.8 695.47,255.85 695.63,255.68C692.59,249.6 691.24,252.01 695.17,255.94C695.63,257.09 699.57,262.87 703.66,266.89C708.53,271.69 708.54,277.28 710.04,290.55C710.27,292.6 711.79,293.32 711.79,291.27C712.54,279.74 706.61,264.14 706.13,258.05C706.13,256.46 702.35,256.32 704.59,250.13C707.77,241.33 698.31,233.27 698.83,221.33C699.3,210.65 691.05,209.86 690.7,206.93C689.9,200.13 687.31,193.46 689.88,186.46C690.01,185.95 689.6,180.51 689.47,177.31C685.76,180.09 688.97,185.47 688.34,186.98C683.13,186.43 687.05,199.45 686.8,203.23C679.91,208.68 656.66,210.94 641.34,207.45C639.39,204.57 636.81,202.2 633.52,200.66C634.86,203.23 637.94,204.36 639.59,207.55C632.8,205.39 625.7,206.73 620.15,202.72C618.4,195.52 619.22,188.53 618.3,181.63C618.3,178.94 624.18,183.59 630.64,182.76C626.22,181.11 620.97,181.32 617.78,177.62C620.27,162.67 615.06,157.09 609.86,139.05C616.75,134.11 618.11,126.3 619.84,118.68C630.6,71.28 620.22,73.02 628.07,74.45C628.69,75.58 628.77,76.61 628.89,77.74C630.49,92.24 645.41,105.14 663.35,96.56C675.83,90.59 682.33,80.06 682.79,74.24C692.23,73.77 686.71,74.84 691.12,100.57C692.96,111.33 699.56,128 700.58,129.47C701.72,131.1 700.25,128.56 694.61,154.57C693.45,159.91 691.34,165 689.67,170.2C688.9,172.59 689.98,174.93 689.46,177.3C691.31,176.58 691.93,175.04 691.52,173.08C690.8,171.43 691.43,170.31 692.03,168.97C703.54,143.34 699.56,140.59 702.62,133.69C705.09,142.02 708.92,149.42 711.36,157.24C714.94,168.7 728.54,172.77 729.36,172.46C731.91,171.49 734.61,172.05 737.07,171.64C738.82,170.07 740.84,162.58 744.17,156.73C754.01,139.41 752.32,124.55 751.37,110.55C750.93,104 753.82,110.51 757.23,94.71C759.02,86.41 757.98,87.51 763.2,87.51C836.51,87.51 831.08,88.03 832.22,86.38C832.18,84.93 831.45,84.18 829.91,84.31ZM672.43,53.76C672.12,53.35 672.02,53.14 672.43,52.73L672.43,53.76ZM674.08,47.08C673.67,45.74 674.18,44.71 675.11,43.38C675.42,45.12 674.8,46.05 674.08,47.08ZM676.45,35.86C676.76,37.81 676.96,39.15 676.35,41.11C675.42,39.26 675.11,37.82 676.45,35.86ZM675.31,17.97C673.77,16.53 672.22,16.02 672.12,13.96C674.49,13.85 675.31,15.09 675.31,17.97ZM584.59,92.64C579.64,102.54 585.96,110.56 580.17,115.27C578.64,116.52 578.01,118.56 576.88,120.52C571.84,109.51 571.33,98.82 576.78,87.91L586.86,87.91C586.03,89.66 585.31,91.2 584.59,92.64ZM588.6,84.72C571.7,84.72 572.07,85.69 571.73,81.63C595.49,81.64 591.35,80.61 588.6,84.72ZM618.64,205.17C617.51,205.07 617.1,204.55 617.2,203.42C618.12,203.53 618.33,204.14 618.64,205.17ZM669.76,13.13C668.73,12.72 667.6,12.31 667.29,10.97C668.42,11.28 669.45,11.69 669.76,13.13ZM668.73,46.46C668.63,48 668.63,49.24 668.52,51.19C667.09,49.13 667.09,47.9 668.73,46.46ZM667.29,11.08C666.67,11.18 666.36,10.77 666.16,10.26C666.78,10.05 667.09,10.36 667.29,11.08ZM665.85,55.92C666.67,56.54 667.39,56.95 668.32,57.67C667.39,58.7 667.5,59.93 666.98,61.17C664.82,59.83 665.65,57.98 665.85,55.92ZM661.22,7.06C659.99,7.88 659.27,7.68 658.44,7.06C659.68,5.52 660.19,6.96 661.22,7.06ZM659.37,57.77C658.55,57.77 658.86,57.26 659.06,56.54C659.68,57.05 659.78,57.36 659.37,57.77ZM657.73,21.05C658.36,25.12 658.7,24.55 657.52,24.55C657.42,23.52 655.87,22.6 657.73,21.05ZM658.24,63.53C657.11,63.32 656.9,62.6 656.9,61.37C657.93,61.89 658.45,62.4 658.24,63.53ZM653.3,20.33C653.81,20.95 653.3,21.26 652.68,21.67C652.58,20.85 652.48,20.33 653.3,20.33ZM653.61,37.3C653.4,38.02 653.2,38.64 652.17,38.53C652.17,37.61 652.58,37.2 653.61,37.3ZM652.17,60.76C653.82,62.41 652.17,62.71 651.55,63.54C651.04,62.4 651.66,61.68 652.17,60.76ZM651.04,30C650.63,29.28 650.22,28.66 651.14,28.05C651.96,28.56 652.07,29.18 651.04,30ZM651.35,18.58C651.14,17.35 651.56,17.04 652.48,17.04C652.58,17.97 651.86,18.17 651.35,18.58ZM651.76,6.04C650.73,6.45 650.63,5.94 650.32,5.32C651.14,5.21 651.24,5.73 651.76,6.04ZM649.39,59.93C650.01,61.06 649.29,61.99 648.77,62.91C647.64,61.06 647.64,61.06 649.39,59.93ZM646.51,24.04C647.13,24.45 647.23,24.86 646.82,25.38C646.31,25.06 646.51,24.45 646.51,24.04ZM645.38,59.21C646,60.55 645.59,61.27 644.76,61.99C644.15,60.96 644.35,60.24 645.38,59.21ZM642.4,56.74C641.68,55.81 641.47,55.2 642.19,54.17C642.91,55 643.02,55.61 642.4,56.74ZM641.78,28.77C641.06,29.08 640.55,28.87 640.55,28.46C640.34,27.51 641.19,28.18 641.78,28.77ZM641.06,44.09C640.44,43.47 640.55,43.06 640.75,42.65C641.27,42.96 640.96,43.37 641.06,44.09ZM641.16,46.56C641.67,48.1 641.78,49.54 640.65,50.78C640.24,49.34 640.34,47.9 641.16,46.56ZM637.77,21.16C638.28,20.23 638.49,19.51 639.42,19.21C640.45,20.44 640.14,21.88 640.45,23.32C639,23.21 638.59,22.08 637.77,21.16ZM639.93,14.47C638.59,16.01 637.87,17.86 636.33,19.2C636.95,17.25 637.87,15.5 639.93,14.47ZM634.68,38.54C636.22,41.42 635.5,44.2 636.63,46.77C634.07,45.94 634.07,45.94 634.68,38.54ZM635.71,32.26C637.66,31.33 638.18,32.67 639.1,34.01C636.95,34.94 636.02,34.22 635.71,32.26ZM657.73,96.55C657.52,93.98 656.39,91.51 656.8,89.04C654.23,90.99 654.74,93.67 654.95,96.34C640.86,99.01 629.24,85.33 630.88,72.89C634.99,72.17 637.77,69.08 640.86,66.1L640.86,58.59C643.53,60.13 641.37,63.94 644.05,65.38C645.28,65.38 645.39,64.04 646.31,63.63C647.03,64.14 646.72,65.48 647.96,65.58C649.19,65.07 648.58,63.83 648.89,62.91C649.87,65.56 655.42,70.68 657.53,67.54C659.68,64.34 663.08,63.94 666.17,62.6C666.79,62.7 666.68,63.94 667.71,63.63C670.27,62.61 669.15,55.83 670.59,63.73C670.28,64.76 668.94,64.24 668.84,65.68C671.82,69.07 675.01,72.37 680.26,73.19C678.73,82.51 667.34,96.29 657.73,96.55ZM734.05,84.72C714.23,84.72 717.27,85.51 713.79,81.74C739.95,81.74 735.18,80.95 734.05,84.72ZM725.82,97.79C725.7,95.17 720.69,88.75 720.16,88.02L731.17,88.02C732.62,97.31 741.06,93.88 731.58,121.45C727.26,119.29 725.83,116.1 726.44,111.68C727.07,107.05 726.03,102.41 725.82,97.79ZM751.12,105.91C745.85,113.42 753.07,131.31 747.52,143.66C746.77,145.32 736.25,170.4 736.21,170.51C730.96,170.92 726.03,165.78 721.3,154.77C720.48,158.37 723.25,163.41 730.35,170.61C722.74,168.86 718.11,164.85 716.26,157.55C714.92,158.89 716.16,159.81 715.85,160.84C706.99,143.92 707.73,140.86 703.71,130.29C702.31,126.61 705.66,127.69 705.66,105.4C705.66,99.52 702.03,122.66 701.44,126.07C696.4,118.15 691.26,96.34 691.67,84.93C694.34,83.8 696.61,81.84 699.69,80.92C698.62,79.56 695.54,78.74 695.42,78.72C695.54,78.78 696.35,79.94 697.01,80.72C695.26,81.85 693.2,81.75 691.46,82.57C690.74,81.13 690.84,79.79 690.95,78.25C692.29,78.87 693.52,78.66 694.65,78.04C693.62,77.01 691.87,77.22 690.74,75.88C692.77,74.8 691.6,75.37 707.71,82.77C715.41,86.3 720.33,92.35 722.93,100.46C724.45,105.2 724.22,109.92 724.27,114.76C724.35,122.07 734.94,126.41 733.84,139.24C733.84,143.09 737.42,135.29 732.4,123.4C733.63,120.93 734.77,118.36 736.1,115.69C737.23,116.51 736.61,118.78 738.67,118.78C739.39,117.55 738.46,116.93 737.95,116.41C733.73,112.19 743.34,103.97 734.56,90.8C734.15,90.18 733.74,89.46 733.63,88.64C736.92,84.42 738.88,79.38 741.96,74.86C744.33,76.61 742.99,78.77 744.22,80.41C745.97,78.76 744.84,76.71 745.15,75.06C747.94,72.27 749.05,78.55 747.82,80.82C750.19,80.41 750.19,78.76 749.98,76.91C750.19,76.81 750.39,76.81 750.7,76.7C754.91,82.12 753.37,77.76 754.09,77.63C760.94,76.41 754.88,100.55 751.12,105.91Z" style="fill-rule:nonzero;"/>
        <path d="M708.02,290.85C703.45,292.3 703.27,297.17 696.6,297.95C693,298.37 689.5,298.14 685.9,298.57C682.5,298.97 679.52,300.52 676.33,301.35C673.91,301.98 664.09,303.3 664.09,302.69C664.82,300.85 670.24,295.24 667.79,285.62C666.64,281.1 665.73,276.57 665.53,271.94C662.01,281 669.88,286.03 664.5,297.96C659.87,287.67 655.24,278.11 648.04,270.08C644.83,269.81 640.03,280.42 632.71,286.64C634.05,282.01 635.59,276.77 635.8,271.31C627.94,294.89 630.89,295.65 628.19,300.52C619.86,315.54 602.57,300.94 600.31,291.67C599.63,288.87 592.04,286.44 588.79,284.47C589.68,274.29 592.49,280.08 591.46,258.45C587.25,261.56 590.75,268.5 587.04,279.33C584.75,286 588.11,281.69 589.82,300.72C590.12,304.01 591.57,306.68 593.52,309.15C598.12,314.96 597.92,323.43 604.53,329.62C609.97,334.72 604.08,338.12 609.88,345.25C610.8,346.38 611.42,347.72 612.35,349.26C610.6,352.35 611.28,356.08 609.78,359.13C604.95,368.99 601.62,387.91 609.16,395.34C614.65,400.75 617.59,403.26 623.97,399.66C626.95,393.9 630.04,388.04 633.23,381.66C634.53,385.78 639.2,397.74 638.37,409.43C637.68,419.21 642.09,424.71 644.64,423.52C642.17,418.93 640.17,419.24 640.53,416.53C640.7,415.25 641.52,398.5 637.65,389.79C635.91,385.88 635.36,381.64 633.95,377.65C633.32,375.87 640.74,358.7 645.06,353.48C646.4,351.48 643.56,351.4 642.8,349.57C643.01,348.75 643.42,348.03 644.65,347.82C656.72,353.61 673.32,341.06 668.41,364.59C666.41,374.17 662.02,375.41 660.49,377.45C662.9,381.19 659.27,383.44 662.03,387.43C664.29,390.69 663.24,394.09 662.13,401.11C660.49,411.48 655.55,419.42 646.19,424.56C647.32,425.9 648.45,425.28 649.38,424.46C665.71,410 662.19,408.02 665.22,392.06C665.93,388.34 662.26,387.75 662.55,383.32C663.3,371.79 666.47,380.74 670.57,363.16C673.35,351.25 666.07,345.88 659.98,347.01C655.92,347.76 647,348.54 643.63,345.36C647.99,345.92 645.66,341.94 665.13,335.18C669.55,333.64 674.19,332.52 678.19,330.04C681.8,327.79 686.46,327.6 689.2,324.07C694.69,317 698.98,321.38 702.06,313.27C702.37,312.45 702.47,311.01 703.19,311.01C706.21,310.83 707.25,298.98 706.48,294.76C707.1,293.43 708.74,292.71 708.02,290.85ZM635.51,289.31C636.83,285.47 635.86,288.19 646.62,274.09C647.02,273.57 647.13,272.86 648.16,272.55C654.64,280.78 658.14,290.76 663.28,300.01C658.71,306.49 671.16,306.46 638.9,325.52C636.64,324.7 634.07,325.01 631.6,323.87C631.91,317.39 630.37,311.22 626.05,305.77C631.91,301.86 633.42,295.37 635.51,289.31ZM606.4,329.12C603.28,327.04 602.41,323.86 600.64,320.07C592.03,301.64 590.66,304.76 590.66,287.77C594.26,289.83 598.48,290.44 599.3,295.48C599.09,296.3 597.76,296.82 597.96,298.05C598.99,298.46 599.5,297.23 600.74,297.54C602.26,300.04 613.07,313.18 623.78,307.83C628.51,312.05 628.92,317.6 629.44,323.46C623.73,323.46 611.17,313.67 606.4,329.12ZM636.43,360.28C632.46,364.51 634.9,367.26 634.17,367.99C630.15,376.04 632.34,378.96 622.55,398.54C608.34,401.59 636.1,388.07 618.23,360.58C623.48,373.23 625.33,385.68 616.58,397.82C611.44,396.07 608.14,392.68 607.53,387.33C606.71,380.23 606.1,367.57 609.48,362.64C614.55,355.27 611.1,351.78 614.42,352.15C613.8,348.14 612.43,344.88 610,341.97C607.18,338.61 607.54,327.78 610.51,324.48C614.83,319.7 620.82,322.98 628.72,325.61C638.98,329.03 638.45,322.26 635.2,336.51C633.38,344.5 643.78,352.46 636.43,360.28ZM638.8,330.04C643.74,335.29 640.65,341.66 641.68,348.04C635.51,342.49 637.15,336.32 638.8,330.04ZM643.02,352.67C642.51,353.6 641.68,354.11 640.76,355.04C640.45,353.6 641.17,352.47 640.76,351.13C641.99,351.44 642.4,352.16 643.02,352.67ZM703.29,302.58C700.71,312.31 700,316.45 694.14,318.32C685.43,321.09 685.5,326.26 669.45,331.28C646.81,338.37 645.97,344.7 643.84,343.42C643.94,338.59 643.94,338.59 646.82,335.91C646,335.29 645.17,336.12 644.15,335.91C643.53,332.93 642.2,330.15 639.62,327.58C645.91,323.69 640.24,327.77 660.19,313.49C661.17,312.79 662.78,303.72 671.92,303.72C679.86,303.72 678.79,299.91 693.31,299.91C697.32,299.91 701.44,300.01 704.52,296.31C705.55,299.08 703.81,300.63 703.29,302.58Z" style="fill-rule:nonzero;"/>
        <path d="M599.82,246.11C599.1,244.57 600.87,243.84 600.54,242.51C599.4,237.96 601.69,234.29 603.93,230.68C605.51,228.13 610.6,216.99 608.46,214.84C605.96,215.98 608.3,218.93 601.98,227.59C598.99,231.7 597.04,236.02 599,241.37C597.35,243.02 596.63,244.97 596.74,247.13C596.88,250.15 595.95,251.21 591.49,257.72C596.84,255.29 613.02,230.26 599.82,246.11Z" style="fill-rule:nonzero;"/>
        <path d="M663.18,216.38C664.71,219.96 663.17,230.12 666.68,234.38C665.75,228 666.68,221.73 664.83,215.56C657.12,215.05 649.71,214.63 642.61,214.12C641.68,213.19 642.71,211.75 640.76,211.55C640.35,212.68 641.38,213.81 640.66,214.94C648.47,215.35 655.77,216.59 663.18,216.38Z" style="fill-rule:nonzero;"/>
        <path d="M171.2,167.73C167.7,176.06 168.83,182.03 175.11,186.66C172.33,180.18 172.74,173.8 171.2,167.73Z" style="fill-rule:nonzero;"/>
        <path d="M199.59,242.82C199.77,246.42 202.47,248.17 204.42,250.43C204.83,250.84 205.45,250.74 206.07,249.92C201.65,244.57 200,237.99 198.87,230.58C195.41,234.65 199.38,238.7 199.59,242.82Z" style="fill-rule:nonzero;"/>
        <path d="M205.14,246.52C206.98,245.81 207.16,241.37 210.39,241.89C213.16,242.34 213.58,240.76 213.78,238.5C211.62,238.6 211.52,241.59 209.05,240.56C209.26,238.91 208.74,237.37 207.51,236.14C209.05,233.57 207.92,231.51 206.69,229.25C204.67,231.45 209.42,238.97 205.15,243.96C204.53,244.57 204.32,245.7 205.14,246.52Z" style="fill-rule:nonzero;"/>
        <path d="M614.73,100.56C614.94,101.9 616.17,103.03 618.02,103.23C615.55,100.35 617.2,96.65 615.76,93.66C619.05,87.59 619.05,87.59 617.2,85.74C616.26,92.62 612.71,87.75 614.73,100.56Z" style="fill-rule:nonzero;"/>
        <path d="M211.62,550.06C208.44,551.62 209.46,554.38 209.56,557.05C212.13,557.67 214.62,558.81 216.35,555.92C218.5,552.34 214.75,548.52 211.62,550.06ZM213.06,556.23C212.85,554.89 213.06,553.14 210.9,554.17C211.8,547.87 219.3,554.57 213.06,556.23Z" style="fill-rule:nonzero;"/>
        <path d="M213.27,540.8C208.41,541.06 208.32,549.03 213.37,549.03C218.57,549.03 218.51,540.8 213.27,540.8ZM213.37,547.28C210.79,547.28 210.13,543.22 213.37,542.75C216.54,543 216.31,547.28 213.37,547.28Z" style="fill-rule:nonzero;"/>
        <path d="M217.18,534.12C215.02,534.12 212.76,533.5 210.49,534.12C210.7,535.87 212.14,535.25 212.55,536.18C212.34,537.83 209.77,537.62 210.18,539.68C211.31,539.99 212.13,538.55 213.57,539.58C217.63,542.47 218.36,536.14 217.18,534.12ZM215.12,538.75C213.99,537.62 214.09,536.8 214.71,535.77C216.77,536.28 216.35,537.31 215.12,538.75Z" style="fill-rule:nonzero;"/>
        <path d="M183.44,192.62C179.92,193.5 186.81,204.56 186.94,213.29C190.45,212.42 184.41,200.84 183.44,192.62Z" style="fill-rule:nonzero;"/>
        <path d="M612.88,266.89C606.19,271 599.2,274.3 591.9,276.76C596.42,277.28 609.18,271.21 612.88,266.89Z" style="fill-rule:nonzero;"/>
        <path d="M193.42,259.38C193.14,261.87 196.63,263.07 197.02,265.04C197.54,267.71 199.39,269.57 200.83,271.62C201.55,272.65 202.58,273.68 204.64,273.06C199.69,269.25 198.56,262.88 193.42,259.38Z" style="fill-rule:nonzero;"/>
        <path d="M650.63,365.02C651.35,359.77 654.54,355.66 656.39,351.03C653.61,355.35 647.64,358.23 650.63,365.02Z" style="fill-rule:nonzero;"/>
        <path d="M158.44,137.8C156.49,133.99 158.13,129.57 156.59,124.94C154.12,130.08 154.84,134.3 158.44,137.8Z" style="fill-rule:nonzero;"/>
        <path d="M562.27,142.84C561.86,137.18 563.2,132.14 564.74,127.1C561.72,126.78 561.94,129.93 560.73,139.96C560.52,140.99 560.52,142.12 562.27,142.84Z" style="fill-rule:nonzero;"/>
        <path d="M205.04,419.12C206.07,411.71 206.17,404.1 207.2,396.7C205.25,404 204.42,411.51 205.04,419.12Z" style="fill-rule:nonzero;"/>
        <path d="M646.41,421.59C646.82,415.21 642.5,409.04 645.69,402.66C642.91,406.26 643.43,418.71 646.41,421.59Z" style="fill-rule:nonzero;"/>
        <path d="M186.42,236.34C188.07,232.23 187.45,228.11 187.14,224C185.39,228.01 184.67,232.12 186.42,236.34Z" style="fill-rule:nonzero;"/>
        <path d="M649.7,268.64C655.46,266.58 658.24,258.56 655.77,251.77C656.49,258.35 655.26,264.32 649.7,268.64Z" style="fill-rule:nonzero;"/>
        <path d="M174.28,199.21C173.77,203.94 171.4,208.67 174.28,213.4C173.77,208.67 175,203.94 174.28,199.21Z" style="fill-rule:nonzero;"/>
        <path d="M570.29,145.51C570.8,141.6 570.91,137.69 572.45,133.99C572.76,133.37 572.04,132.86 571.83,132.24C569.27,136.46 568.85,140.88 570.29,145.51Z" style="fill-rule:nonzero;"/>
        <path d="M581.09,126.18C582.53,122.89 585.1,120.11 586.75,116.82C586.34,116.61 586.03,116.41 585.62,116.1C583.05,118.87 581.51,122.27 581.09,126.18Z" style="fill-rule:nonzero;"/>
        <path d="M191.98,275.12C193.73,278.51 196.61,280.47 200.31,281.19C197.84,278.72 194.55,277.18 193.11,273.58C192.59,274.29 192.28,274.7 191.98,275.12Z" style="fill-rule:nonzero;"/>
        <path d="M606.6,79.89C601.46,79.38 597.14,83.18 598.58,86.99C598.89,81.84 603.52,82.36 606.6,79.89Z" style="fill-rule:nonzero;"/>
        <path d="M188.89,221.73C189.92,218.95 190.74,216.18 192.59,213.71C188.99,215.77 187.66,218.65 188.89,221.73Z" style="fill-rule:nonzero;"/>
        <path d="M149.29,101.8C147.13,98.71 147.23,94.7 144.76,91.82C145.9,95.32 146,99.33 149.29,101.8Z" style="fill-rule:nonzero;"/>
        <path d="M593.33,99.74C593.33,102.21 593.95,104.37 596,106.12C596.93,103.24 595.19,101.49 593.33,99.74Z" style="fill-rule:nonzero;"/>
        <path d="M221.39,389.6C225.09,390.22 223.65,394.43 226.53,396.49C225.81,393.2 225.7,390.32 223.34,388.26C222.52,387.54 221.91,388.16 221.39,389.6Z" style="fill-rule:nonzero;"/>
        <path d="M623.88,221.32C628.58,212.51 628.53,213.27 626.14,212.47C625.63,215.05 623.58,217.41 623.88,221.32Z" style="fill-rule:nonzero;"/>
        <path d="M617.4,214.43C613.9,215.05 613.18,218.75 610.82,220.6C613.08,218.75 616.07,217.51 617.4,214.43Z" style="fill-rule:nonzero;"/>
        <path d="M639,264.73C637.35,260.41 635.19,256.4 631.7,253.21C639.66,266.95 637.95,265.25 639,264.73Z" style="fill-rule:nonzero;"/>
        <path d="M266.24,389.39C269.02,390.11 271.79,390.01 274.67,389.6C271.9,388.16 269.12,388.67 266.24,389.39Z" style="fill-rule:nonzero;"/>
        <path d="M652.17,386.82C650.16,389.63 646.42,392.26 644.97,398.55C647.82,393.75 652.81,388.1 652.17,386.82Z" style="fill-rule:nonzero;"/>
        <path d="M679.74,214.43C679.43,217.1 679.53,219.68 681.08,222.04C681.28,219.37 681.79,216.59 679.74,214.43Z" style="fill-rule:nonzero;"/>
        <path d="M171.61,155.18C171.51,151.99 171.71,148.8 169.66,146.13C170.38,149.11 169.96,152.4 171.61,155.18Z" style="fill-rule:nonzero;"/>
        <path d="M264.29,438.46C265.63,435.99 266.04,432.91 265.22,430.75C264.18,432.7 263.77,435.47 264.29,438.46Z" style="fill-rule:nonzero;"/>
        <path d="M248.65,450.7C248.24,453.79 245.98,456.15 246.08,459.24C247.42,456.56 249.37,453.99 248.65,450.7Z" style="fill-rule:nonzero;"/>
        <path d="M571.53,165.98C572.87,163.41 574.41,160.94 573.69,157.85C572.97,160.53 571.01,162.9 571.53,165.98Z" style="fill-rule:nonzero;"/>
        <path d="M163.07,150.24C163.07,146.85 161.01,144.27 159.68,141.39C160.19,144.59 161.43,147.47 163.07,150.24Z" style="fill-rule:nonzero;"/>
        <path d="M579.76,138.52C581.3,136.77 581.92,134.82 580.58,132.66C580.07,134.61 579.04,136.46 579.76,138.52Z" style="fill-rule:nonzero;"/>
        <path d="M636.84,210.52C636.12,212.58 637.05,214.74 636.43,217.41C639.31,214.74 637.26,212.68 636.84,210.52Z" style="fill-rule:nonzero;"/>
        <path d="M571.63,154.36C570.5,155.39 569.37,156.21 567.82,155.49C568.02,158.37 571.32,159 571.63,154.36Z" style="fill-rule:nonzero;"/>
        <path d="M557.85,93.05C558.47,95.21 558.57,97.68 560.32,99.74C560.42,96.86 559.8,95.21 557.85,93.05Z" style="fill-rule:nonzero;"/>
        <path d="M589.73,138.11C588.39,139.65 586.54,139.86 586.03,141.81C588.5,141.91 588.81,141.6 589.73,138.11Z" style="fill-rule:nonzero;"/>
        <path d="M141.88,89.35C141.16,87.81 141.57,85.65 138.9,84.62C139.52,86.78 140.24,88.32 141.88,89.35Z" style="fill-rule:nonzero;"/>
        <path d="M593.03,261.33C595.09,260.4 596.84,259.68 598.38,258.24C595.08,258.66 594.47,259.07 593.03,261.33Z" style="fill-rule:nonzero;"/>
        <path d="M564.43,149.11C564.33,151.89 564.33,151.89 566.38,154.15C565.97,152.4 566.18,150.45 564.43,149.11Z" style="fill-rule:nonzero;"/>
        <path d="M579.14,140.99C578.42,142.43 577.08,143.66 577.08,145.82C578.83,144.38 579.76,143.04 579.14,140.99Z" style="fill-rule:nonzero;"/>
        <path d="M220.57,381.68C218.4,382.59 219.97,385.49 222.11,385.49C221.5,384.15 222.42,382.5 220.57,381.68Z" style="fill-rule:nonzero;"/>
        <path d="M552.09,85.55C553.43,89.05 553.43,89.05 555.18,90.28C554.35,88.84 554.56,86.78 552.09,85.55Z" style="fill-rule:nonzero;"/>
        <path d="M629.23,214.43C629.44,212.48 630.16,211.45 629.64,209.8C627.69,211.03 627.9,212.37 629.23,214.43Z" style="fill-rule:nonzero;"/>
        <path d="M654.85,229.96C654.23,232.22 654.44,234.38 654.85,236.44C655.46,234.28 655.57,232.12 654.85,229.96Z" style="fill-rule:nonzero;"/>
        <path d="M651.86,382.6C654.12,381.88 654.23,381.88 652.99,379.1C652.89,380.34 651.66,381.16 651.86,382.6Z" style="fill-rule:nonzero;"/>
        <path d="M667.19,257.63C666.98,259.07 665.75,260.1 665.44,261.64C668.11,261.02 667.39,259.17 667.19,257.63Z" style="fill-rule:nonzero;"/>
        <path d="M573.59,147.67C572.77,148.7 572.66,149.83 573.59,151.06C573.89,149.94 574.1,148.8 573.59,147.67Z" style="fill-rule:nonzero;"/>
        <path d="M689.51,246.42C689.2,244.57 687.86,243.23 686.94,241.59C687.35,243.44 687.86,245.29 689.51,246.42Z" style="fill-rule:nonzero;"/>
        <path d="M218.51,400.19C217.79,398.54 216.76,397.41 215.32,396.69C216.05,398.14 217.07,399.37 218.51,400.19Z" style="fill-rule:nonzero;"/>
        <path d="M263.05,385.28C264.18,385.18 265.21,385.18 266.34,385.07C264.29,383.63 264.29,383.63 263.05,385.28Z" style="fill-rule:nonzero;"/>
        <path d="M224.48,381.47C222.83,383.01 224.38,383.84 225.1,384.86C224.69,383.84 226.43,382.4 224.48,381.47Z" style="fill-rule:nonzero;"/>
        <path d="M626.46,207.95C624.81,209.6 625.23,211.04 626.25,212.37C626.15,211.03 627.59,209.8 626.46,207.95Z" style="fill-rule:nonzero;"/>
        <path d="M564.64,87.4C564.64,88.53 564.54,89.66 565.67,91C566.59,89.25 565.56,88.32 564.64,87.4Z" style="fill-rule:nonzero;"/>
        <path d="M655.46,242.72C655.36,244.06 655.15,245.19 656.28,246.32C656.39,244.98 656.18,243.95 655.46,242.72Z" style="fill-rule:nonzero;"/>
        <path d="M230.24,381.16C227.25,382.87 230.12,383.25 231.58,383.83C231.06,382.71 230.65,381.99 230.24,381.16Z" style="fill-rule:nonzero;"/>
        <path d="M650.83,374.07C651.45,372.63 651.45,371.29 650.21,370.06C650.42,371.39 650.63,372.73 650.83,374.07Z" style="fill-rule:nonzero;"/>
        <path d="M151.14,86.57C151.76,87.5 151.35,88.83 152.68,90.17C152.68,87.71 152.68,87.71 151.14,86.57Z" style="fill-rule:nonzero;"/>
        <path d="M273.96,401.12C273.86,399.58 273.75,398.55 271.9,397.31C272.41,399.16 272.52,400.3 273.96,401.12Z" style="fill-rule:nonzero;"/>
        <path d="M631.7,253.21C631.39,251.67 630.36,250.64 629.33,249.61C629.75,251.05 630.26,252.38 631.7,253.21Z" style="fill-rule:nonzero;"/>
        <path d="M172.02,162.48C171.09,163.51 170.99,164.33 172.12,165.36C172.84,164.13 172.74,163.31 172.02,162.48Z" style="fill-rule:nonzero;"/>
        <path d="M677.99,251.46C676.34,252.39 675.93,253.41 675.73,254.55C676.65,253.82 677.47,253 677.99,251.46Z" style="fill-rule:nonzero;"/>
        <path d="M233.33,388.47L235.59,388.47C234.77,388.26 234.05,387.95 233.33,388.47Z" style="fill-rule:nonzero;"/>
        <path d="M250.4,388.98C248.75,387.95 248.75,387.95 247.73,389.29C248.45,388.47 249.58,389.6 250.4,388.98Z" style="fill-rule:nonzero;"/>
        <path d="M168.42,163.82C168.11,162.38 167.8,161.35 166.88,160.63C166.88,161.66 167.08,162.79 168.42,163.82Z" style="fill-rule:nonzero;"/>
        <path d="M564.84,127.2C565.87,126.27 566.79,125.35 566.59,123.5C565.15,124.63 564.12,125.56 564.84,127.2Z" style="fill-rule:nonzero;"/>
        <path d="M639.72,221.63C640.98,218.48 637.05,219.68 639,221.63C639.21,221.83 639.31,221.94 639.72,221.63Z" style="fill-rule:nonzero;"/>
        <path d="M594.47,93.67C595.29,92.54 595.09,91.72 594.68,90.58C593.64,91.61 593.33,92.44 594.47,93.67Z" style="fill-rule:nonzero;"/>
        <path d="M619.15,79.07C618.22,78.14 617.4,77.73 615.96,78.35C617.1,79.27 617.82,79.79 619.15,79.07Z" style="fill-rule:nonzero;"/>
        <path d="M575.95,169.89C577.29,170.2 577.7,169.48 578.21,168.04C577.19,168.66 576.05,168.35 575.95,169.89Z" style="fill-rule:nonzero;"/>
        <path d="M593.03,96.14C592.62,97.27 592.82,97.89 593.96,98.51C594.36,97.27 593.95,96.65 593.03,96.14Z" style="fill-rule:nonzero;"/>
        <path d="M246.49,391.66C248.24,391.45 247.42,390.12 247.62,389.19C247.21,390.01 245.98,390.32 246.49,391.66Z" style="fill-rule:nonzero;"/>
        <path d="M601.05,257.22C601.87,256.91 602.49,256.6 603.21,256.29C602.18,256.09 601.36,256.09 601.05,257.22Z" style="fill-rule:nonzero;"/>
        <path d="M691.46,249.81C691.26,248.44 690.59,247.44 689.45,246.64C689.7,248.05 690.39,249.03 691.46,249.81Z" style="fill-rule:nonzero;"/>
        <path d="M689.3,246.52C689.54,246.68 689.44,246.72 689.4,246.42L689.3,246.52Z" style="fill-rule:nonzero;"/>
        <path d="M243.41,382.5C242.59,383.12 242.38,383.63 243.2,384.97C243.51,383.84 244.43,383.43 243.41,382.5Z" style="fill-rule:nonzero;"/>
        <path d="M644.15,211.34C643.02,212.16 643.02,212.68 643.84,213.4C644.66,212.89 644.66,212.37 644.15,211.34Z" style="fill-rule:nonzero;"/>
        <path d="M562.79,105.81C562.17,106.43 562.48,106.94 563.2,107.46C563.71,106.53 563.51,106.01 562.79,105.81Z" style="fill-rule:nonzero;"/>
        <path d="M148.78,81.02C148.47,80.09 147.96,79.99 147.24,80.92C147.85,81.64 148.26,81.53 148.78,81.02Z" style="fill-rule:nonzero;"/>
        <path d="M560.63,81.74C560.84,82.77 561.25,82.77 562.17,81.84C561.55,81.33 561.14,81.12 560.63,81.74Z" style="fill-rule:nonzero;"/>
        <path d="M200.21,440.82L200.21,442.47C200.31,441.95 200.82,441.44 200.21,440.82Z" style="fill-rule:nonzero;"/>
        <path d="M692.77,251.72C692.65,250.88 692.34,250.21 691.46,249.82C691.57,250.7 691.85,251.39 692.77,251.72Z" style="fill-rule:nonzero;"/>
        <path d="M692.9,251.77C692.85,251.76 692.82,251.74 692.77,251.72C692.81,251.91 692.77,251.9 692.9,251.77Z" style="fill-rule:nonzero;"/>
        <path d="M632.22,211.65C632.73,210.93 632.84,210.31 632.12,209.8C631.5,210.42 631.5,211.03 632.22,211.65Z" style="fill-rule:nonzero;"/>
        <path d="M594.16,134.82C593.54,134.82 593.23,135.03 592.82,135.75C593.95,136.15 594.16,135.74 594.16,134.82Z" style="fill-rule:nonzero;"/>
        <path d="M238.26,382.91C237.12,382.06 237.05,383.63 237.54,383.63C238.06,383.74 238.26,383.32 238.26,382.91Z" style="fill-rule:nonzero;"/>
        <path d="M569.27,121.24C568.07,120.73 567.51,122.27 568.45,122.27C569.06,122.27 569.16,121.86 569.27,121.24Z" style="fill-rule:nonzero;"/>
        <path d="M289.38,209.18C289.38,207.95 288.04,208.87 287.94,207.95C290.31,195.4 295.55,183.88 301.52,172.67C293.15,178.02 295.18,182.07 292.06,187.79C289.59,192.32 283.8,209.07 285.79,213.71C287.12,212.37 287.43,210.11 289.38,209.18Z" style="fill-rule:nonzero;"/>
        <path d="M248.45,333.03C246.58,333.59 244.74,342.71 246.39,348.36C249.26,358.16 245.1,356.86 245.98,360.19C246.96,363.91 247.01,367.7 247.42,371.5C248.76,369.03 248.41,366.37 247.83,363.79C246.14,356.24 250.27,356.99 248.45,351.45C244.87,340.58 252.25,335.14 248.45,333.03Z" style="fill-rule:nonzero;"/>
        <path d="M251.33,291.16C249.48,287.05 245.57,283.75 247.32,278.61C244.03,276.04 239.91,274.6 239.71,269.46C236.93,272.96 238.17,275.12 244.96,279.64C244.02,284.99 248.75,287.56 251.33,291.16Z" style="fill-rule:nonzero;"/>
        <path d="M231.06,376.95C231.78,373.25 222.93,348.97 219.33,344.55C223.35,355.55 227.15,366.04 231.06,376.95Z" style="fill-rule:nonzero;"/>
        <path d="M248.65,331.69C249.58,319.36 251.87,309.08 246.49,309.68C249.68,317.08 246.08,324.69 248.65,331.69Z" style="fill-rule:nonzero;"/>
        <path d="M319.52,152.1C317.78,155.09 317.57,159.09 315.2,162.69C319.73,161.35 323.53,147.26 321.37,141.4C319.32,145 321.49,148.71 319.52,152.1Z" style="fill-rule:nonzero;"/>
        <path d="M315.2,166.29C315.7,165.4 315.32,164.69 314.17,164.65C311.52,169.66 319.39,164.96 312.22,178.63C311.69,179.65 310.68,180.89 312.12,182.64C315.51,179.04 315.31,174.41 317.26,170.71C316.41,168.6 314.53,167.8 315.2,166.29Z" style="fill-rule:nonzero;"/>
        <path d="M278.38,265.45C276.73,269.15 272.41,270.9 270.77,275.32C274.68,274.7 278.38,269.56 278.38,265.45Z" style="fill-rule:nonzero;"/>
        <path d="M273.54,279.54C274.98,283.14 277.24,285.81 281.25,286.74C278.48,284.58 277.14,280.77 273.54,279.54Z" style="fill-rule:nonzero;"/>
        <path d="M283.21,249.81C284.55,252.59 283.42,255.78 285.06,258.96C285.78,253 285.48,251.46 283.21,249.81Z" style="fill-rule:nonzero;"/>
        <path d="M292.88,205.79C293.39,208.26 294.83,209.7 297.92,211.04C296.48,207.43 295.45,206.41 292.88,205.79Z" style="fill-rule:nonzero;"/>
        <path d="M323.23,156.52C325.39,153.43 326.83,149.94 326.93,145.93C321.83,157.93 322.19,156 323.23,156.52Z" style="fill-rule:nonzero;"/>
        <path d="M299.26,229.86C297.41,232.12 297.51,235.62 299.98,238.19C298.95,235.1 299.88,232.53 299.26,229.86Z" style="fill-rule:nonzero;"/>
        <path d="M252.05,360.8C250.71,363.37 249.79,366.15 249.79,369.13C251.02,366.46 251.74,363.68 252.05,360.8Z" style="fill-rule:nonzero;"/>
        <path d="M330.53,104.27C332.07,104.99 333.62,105.5 335.98,105.09C333.92,102.62 332.17,103.55 330.53,104.27Z" style="fill-rule:nonzero;"/>
        <path d="M327.03,145.92C328.78,144.07 330.12,142.11 329.19,138.62C327.85,141.3 327.44,143.66 327.03,145.92Z" style="fill-rule:nonzero;"/>
        <path d="M298.33,218.75C298.54,220.29 298.84,221.94 299.05,223.58C300.39,221.73 299.98,220.19 298.33,218.75Z" style="fill-rule:nonzero;"/>
        <path d="M288.05,236.03C290,234.38 289.49,232.33 289.8,230.68C288.77,232.22 287.53,233.66 288.05,236.03Z" style="fill-rule:nonzero;"/>
        <path d="M279.2,257.01C278.38,258.55 277.66,259.79 277.66,261.54C279.92,259.48 279.92,259.48 279.2,257.01Z" style="fill-rule:nonzero;"/>
        <path d="M234.05,257.32C234.56,258.97 235.28,260.41 236.52,261.64C236.1,260 236.1,258.14 234.05,257.32Z" style="fill-rule:nonzero;"/>
        <path d="M321.89,140.16C322.51,138.51 322.51,137.38 321.89,135.74C320.76,137.39 320.96,138.52 321.89,140.16Z" style="fill-rule:nonzero;"/>
        <path d="M249.17,272.34C251.43,271.62 252.05,270.28 252.67,268.12C250.91,269.46 249.99,270.49 249.17,272.34Z" style="fill-rule:nonzero;"/>
        <path d="M336.19,85.24C336.91,84.31 337.42,83.59 336.81,82.36C335.67,83.08 335.36,83.9 336.19,85.24Z" style="fill-rule:nonzero;"/>
        <path d="M276.53,319.86C277.25,319.04 277.87,318.32 278.48,317.6C277.25,317.8 276.63,318.63 276.53,319.86Z" style="fill-rule:nonzero;"/>
        <path d="M279.72,315.85C280.54,314.92 281.88,314.31 281.98,312.87C280.74,313.48 280.02,314.51 279.72,315.85Z" style="fill-rule:nonzero;"/>
        <path d="M311.7,186.55C312.11,185.73 313.35,185.11 312.42,183.88C311.09,184.39 311.4,185.42 311.7,186.55Z" style="fill-rule:nonzero;"/>
        <path d="M312.73,161.15C312.73,162.8 313.45,163.62 314.17,164.54C313.87,163.51 314.69,162.07 312.73,161.15Z" style="fill-rule:nonzero;"/>
        <path d="M310.47,155.9C310.57,156.93 310.88,157.75 312.12,158.47C312.12,157.03 312.22,155.9 310.47,155.9Z" style="fill-rule:nonzero;"/>
        <path d="M321.58,128.34C320.76,130.29 320.76,130.29 321.99,131.94C321.79,130.5 321.68,129.47 321.58,128.34Z" style="fill-rule:nonzero;"/>
        <path d="M315.92,147.16C315.1,147.67 314.89,148.19 315.3,148.91C316.44,148.6 316.23,147.88 315.92,147.16Z" style="fill-rule:nonzero;"/>
        <path d="M329.4,79.07C328.47,78.86 327.96,79.07 327.65,80C328.68,80.4 329.19,80.09 329.4,79.07Z" style="fill-rule:nonzero;"/>
        <path d="M327.44,84.72C327.44,83.69 327.34,83.18 326.31,83.38C326.31,84 326.41,84.52 327.44,84.72Z" style="fill-rule:nonzero;"/>
        <path d="M214.5,317.39C214.6,318.32 215.12,318.93 216.04,319.34C215.84,318.32 215.33,317.8 214.5,317.39Z" style="fill-rule:nonzero;"/>
        <path d="M209.05,310.5C209.26,311.53 209.67,312.04 210.59,312.66C210.39,311.53 209.98,310.91 209.05,310.5Z" style="fill-rule:nonzero;"/>
        <path d="M249.58,301.24C248.96,300.31 248.45,299.49 247.11,300.01C247.73,300.93 248.34,301.55 249.58,301.24Z" style="fill-rule:nonzero;"/>
        <path d="M222.53,372.52C222.43,372.01 222.22,371.7 221.91,370.77C221.7,371.8 221.6,372.42 222.53,372.52Z" style="fill-rule:nonzero;"/>
        <path d="M329.6,133.99C329.39,134.5 329.39,135.02 329.81,135.84C330.22,135.12 330.63,134.4 329.6,133.99Z" style="fill-rule:nonzero;"/>
        <path d="M236.41,263.29C237.13,263.29 236.76,263.49 236.41,261.75C236.51,262.16 236.51,262.77 236.41,263.29Z" style="fill-rule:nonzero;"/>
        <path d="M281.98,312.87C282.6,312.66 283.11,312.36 282.8,311.53C281.67,311.53 281.98,312.25 281.98,312.87Z" style="fill-rule:nonzero;"/>
        <path d="M211.93,313.89C211.52,314.71 211.83,314.92 212.65,314.92C212.65,314.41 212.34,314.2 211.93,313.89Z" style="fill-rule:nonzero;"/>
        <path d="M233.84,340.84C233.77,340.74 219.53,321.9 217.07,320.47C236.28,348.31 235.84,342.04 233.84,340.84Z" style="fill-rule:nonzero;"/>
        <path d="M331.25,117.43C331.56,117.22 331.46,116.92 331.35,116.61C331.04,116.81 331.04,117.12 331.25,117.43Z" style="fill-rule:nonzero;"/>
        <path d="M334.54,91.51C334.03,91.51 333.82,91.72 333.82,92.64C334.33,92.13 334.75,92.13 334.54,91.51Z" style="fill-rule:nonzero;"/>
        <path d="M245.05,561.37C238.54,565.96 242.44,586.88 245.36,595.01C245.58,595.62 245.87,596.55 247.62,595.94C244.34,586.77 241.41,569.88 245.05,561.37Z" style="fill-rule:nonzero;"/>
        <path d="M231.37,549.24C232.4,543.79 233.43,538.75 234.35,533.71C230.96,536.28 229.42,545.43 231.37,549.24Z" style="fill-rule:nonzero;"/>
        <path d="M247.11,531.55C247.01,531.65 244.89,527.84 248.34,519.93C248.75,519 249.47,517.77 247.93,516.64C246.17,521.66 242.88,528.31 247,531.66C247.31,535.36 249.47,538.35 250.6,541.74C251.11,538.24 249.12,535.35 248.54,532.17C248.46,531.65 247.73,531.55 247.11,531.55Z" style="fill-rule:nonzero;"/>
        <path d="M250.19,546.67C248.03,548.83 246.59,552.12 246.59,554.59C248.45,552.01 249.68,549.55 250.19,546.67Z" style="fill-rule:nonzero;"/>
        <path d="M238.47,251.56C237.03,249.4 235.18,247.96 232.09,246.93C233.94,249.81 236.62,250.02 238.47,251.56Z" style="fill-rule:nonzero;"/>
        <path d="M662.46,142.63C662.77,135.84 657.63,130.29 658.86,123.4C655.26,128.85 657.52,139.65 662.46,142.63Z" style="fill-rule:nonzero;"/>
        <path d="M635.82,120.52C630.89,117.01 630.97,117.06 633.15,111.37C633.58,110.25 633.97,109.21 631.92,108.28C623.75,120.78 644.68,126.82 635.82,120.52Z" style="fill-rule:nonzero;"/>
        <path d="M657.21,105.09C656.18,110.03 655.87,114.96 658.03,119.7C657.31,114.86 659.27,109.82 657.21,105.09Z" style="fill-rule:nonzero;"/>
        <path d="M667.29,108.89C666.26,110.12 666.78,110.74 667.29,111.36C669.25,113.72 672.12,111.57 674.39,112.8C672.43,110.33 669.35,110.54 667.29,108.89Z" style="fill-rule:nonzero;"/>
        <path d="M661.12,168.86C660.5,165.36 660.71,161.87 660.5,158.27C659.58,161.87 658.34,165.47 661.12,168.86Z" style="fill-rule:nonzero;"/>
        <path d="M665.54,108.07C663.79,105.81 664.92,102.62 663.17,99.74C661.63,103.75 663.07,106.12 665.54,108.07Z" style="fill-rule:nonzero;"/>
        <path d="M688.58,175.14C685.02,175.14 681.63,176.4 678.4,177.71C681.93,177.29 685.46,176.87 688.58,175.14Z" style="fill-rule:nonzero;"/>
        <path d="M631.52,176.37C631.99,176.42 632.44,176.43 632.84,176.37C632.45,176.33 632.01,176.34 631.52,176.37Z" style="fill-rule:nonzero;"/>
        <path d="M623.06,175.75C626.1,177.02 629.28,176.48 631.52,176.37C629.27,176.14 626.2,175.07 623.06,175.75Z" style="fill-rule:nonzero;"/>
        <path d="M619.67,182.75C622.45,184.22 624.85,185 628.21,184.5C624.95,183.89 622.42,182.43 619.67,182.75Z" style="fill-rule:nonzero;"/>
        <path d="M648.26,156.83C650.32,158.48 652.27,159.09 654.53,158.89C652.79,157.65 650.94,156.52 648.26,156.83Z" style="fill-rule:nonzero;"/>
        <path d="M658.45,177.3C658.96,175.65 659.68,174.01 658.35,172.36C657.73,174 657.93,175.65 658.45,177.3Z" style="fill-rule:nonzero;"/>
        <path d="M632.94,95.32C631.5,96.97 631.09,98.3 631.91,100.67C633.14,98.92 633.66,97.58 632.94,95.32Z" style="fill-rule:nonzero;"/>
        <path d="M656.49,206.3C657.72,204.76 657.62,203.01 657.11,201.26C656.39,202.81 655.26,204.35 656.49,206.3Z" style="fill-rule:nonzero;"/>
        <path d="M627.18,150.86C625.43,150.14 623.79,149.32 621.83,149.63C623.68,150.14 625.32,151.27 627.18,150.86Z" style="fill-rule:nonzero;"/>
        <path d="M651.55,144.18C650.83,145.72 650.42,147.27 651.55,149.43C651.66,147.26 652.38,145.82 651.55,144.18Z" style="fill-rule:nonzero;"/>
        <path d="M682.1,117.53C683.75,116.6 684.05,115.06 684.67,113.72C683.54,114.65 681.59,115.07 682.1,117.53Z" style="fill-rule:nonzero;"/>
        <path d="M639.62,122.99C638.81,123.39 639.35,123.65 642.4,127C641.99,125.15 641.37,123.5 639.62,122.99Z" style="fill-rule:nonzero;"/>
        <path d="M657.73,199.62C658.86,197.56 657.83,196.23 657.52,194.79C656.8,196.22 656.7,197.56 657.73,199.62Z" style="fill-rule:nonzero;"/>
        <path d="M632.73,107.45C633.55,105.91 632.73,104.88 631.91,103.34C631.5,105.19 631.19,106.43 632.73,107.45Z" style="fill-rule:nonzero;"/>
        <path d="M659.99,149.52C659.89,150.86 659.68,152.09 659.58,153.43C660.71,152.3 660.81,150.96 659.99,149.52Z" style="fill-rule:nonzero;"/>
        <path d="M661.84,172.15C662.46,173.9 663.07,175.03 664.62,175.34C663.79,174.42 663.59,173.08 661.84,172.15Z" style="fill-rule:nonzero;"/>
        <path d="M682.41,109.51C683.13,108.07 682.72,106.94 681.48,105.7C681.28,107.25 680.97,108.48 682.41,109.51Z" style="fill-rule:nonzero;"/>
        <path d="M682.31,98.61C682,99.64 682,100.56 682.82,101.9C683.54,100.15 682.82,99.43 682.31,98.61Z" style="fill-rule:nonzero;"/>
        <path d="M668.83,205.58C670.48,205.17 671.4,204.45 672.02,203.32C670.89,203.73 669.76,204.14 668.83,205.58Z" style="fill-rule:nonzero;"/>
        <path d="M652.27,165.36C651.86,166.7 651.45,167.62 651.14,168.65C652.48,167.94 652.58,166.91 652.27,165.36Z" style="fill-rule:nonzero;"/>
        <path d="M687.45,112.29C688.99,112.08 689.4,111.26 689.61,109.51C688.27,110.33 687.55,110.95 687.45,112.29Z" style="fill-rule:nonzero;"/>
        <path d="M652.17,177.91C651.96,178.63 652.17,179.25 652.89,179.76C652.99,179.05 653.61,178.12 652.17,177.91Z" style="fill-rule:nonzero;"/>
        <path d="M681.18,120.21C680.67,119.08 680.05,118.26 678.4,118.15C679.02,119.7 679.84,120.11 681.18,120.21Z" style="fill-rule:nonzero;"/>
        <path d="M675.42,194.78C677.52,194.43 677.37,194.83 677.37,194.37C675.12,194.37 675.42,194.23 675.42,194.78Z" style="fill-rule:nonzero;"/>
        <path d="M646.31,131.63C646.21,132.25 646.41,132.66 646.93,133.28C647.34,132.24 647.34,131.63 646.31,131.63Z" style="fill-rule:nonzero;"/>
        <path d="M625.43,131.22C626.01,131.8 626.49,130.19 625.33,130.19C625.02,130.5 624.91,130.91 625.43,131.22Z" style="fill-rule:nonzero;"/>
        <path d="M687.04,123.19C686.53,122.16 686.11,121.96 685.39,122.37C685.6,123.19 686.11,123.3 687.04,123.19Z" style="fill-rule:nonzero;"/>
        <path d="M668.42,175.75C668.32,176.68 668.83,176.78 669.86,176.78C669.55,175.96 669.25,175.45 668.42,175.75Z" style="fill-rule:nonzero;"/>
        <path d="M682.51,178.74C683.44,178.53 684.05,178.84 684.57,178.23C683.95,178.12 683.44,178.02 682.51,178.74Z" style="fill-rule:nonzero;"/>
        <path d="M657.42,185.11C657.93,184.18 658.35,183.57 657.63,182.74C657.01,183.37 656.8,183.98 657.42,185.11Z" style="fill-rule:nonzero;"/>
        <path d="M653.92,138.11C653.41,138.62 652.89,138.93 653.82,139.76C654.33,139.24 654.85,138.93 653.92,138.11Z" style="fill-rule:nonzero;"/>
        <path d="M630.47,198.59C630.26,199 630.68,199.1 630.88,199.21C631.08,198.79 630.78,198.69 630.47,198.59Z" style="fill-rule:nonzero;"/>
        <path d="M698.15,102.93C691.38,97.14 697.94,93.86 697.74,88.84C692.7,93.41 692.5,105.38 699.69,105.71C699.9,103.96 698.87,103.55 698.15,102.93Z" style="fill-rule:nonzero;"/>
        <path d="M742.28,146.95C744.44,143.76 745.67,135.43 744.44,133.17C743.72,137.8 743,142.22 742.28,146.95Z" style="fill-rule:nonzero;"/>
        <path d="M713.27,109.2C714.81,112.18 716.66,113.83 719.54,115.06C716.87,111.16 715.94,110.23 713.27,109.2Z" style="fill-rule:nonzero;"/>
        <path d="M736,156.42C735.9,158.37 735.9,160.33 738.16,161.97C738.98,159.19 737.44,157.75 736,156.42Z" style="fill-rule:nonzero;"/>
        <path d="M724.17,124.63C724.58,121.96 722.94,119.9 722.01,117.64C722.01,120.21 722.94,122.37 724.17,124.63Z" style="fill-rule:nonzero;"/>
        <path d="M698.35,107.56C699.58,109.72 699.89,111.57 700.41,114.14C702.06,110.64 701.75,109.72 698.35,107.56Z" style="fill-rule:nonzero;"/>
        <path d="M743.82,105.29C745.26,105.91 746.7,106.63 748.86,106.11C747.42,103.34 745.46,105.09 743.82,105.29Z" style="fill-rule:nonzero;"/>
        <path d="M711.83,95.32C711.52,97.17 711.32,98.61 712.34,100.36C713.37,98.3 713.37,96.86 711.83,95.32Z" style="fill-rule:nonzero;"/>
        <path d="M741.76,127.41C741.76,125.56 742.07,124.32 740.73,122.68C740.12,124.63 740.53,125.76 741.76,127.41Z" style="fill-rule:nonzero;"/>
        <path d="M709.88,143.56C709.47,145.21 709.78,146.34 711.22,147.06C710.9,145.82 711.21,144.48 709.88,143.56Z" style="fill-rule:nonzero;"/>
        <path d="M704.11,83.8C705.55,85.14 706.17,86.37 707.81,86.58C707.1,85.44 706.48,84.11 704.11,83.8Z" style="fill-rule:nonzero;"/>
        <path d="M713.27,150.86C714.09,154.16 713.35,153.23 714.5,153.23C713.82,150.16 713.69,150.65 713.27,150.86Z" style="fill-rule:nonzero;"/>
        <path d="M712.04,91.72C712.55,90.18 712.14,89.35 710.29,88.43C710.9,89.87 710.49,90.89 712.04,91.72Z" style="fill-rule:nonzero;"/>
        <path d="M749.58,85.96C749.68,85.14 750.81,84.73 750.09,83.39C748.65,84.11 748.86,84.93 749.58,85.96Z" style="fill-rule:nonzero;"/>
        <path d="M713.27,134.51C712.86,135.13 712.76,135.64 713.58,135.85C714.09,135.23 713.68,134.92 713.27,134.51Z" style="fill-rule:nonzero;"/>
        <path d="M734.77,152.3C734.26,153.33 734.67,153.84 735.49,154.36C736.1,153.23 735.69,152.71 734.77,152.3Z" style="fill-rule:nonzero;"/>
        <path d="M738.68,156.83C739.19,156.42 739.71,156.01 739.3,154.98C738.26,155.39 738.06,155.9 738.68,156.83Z" style="fill-rule:nonzero;"/>
        <path d="M740.94,81.23C741.87,81.44 742.28,81.02 742.69,80.2C741.45,79.89 740.94,80.2 740.94,81.23Z" style="fill-rule:nonzero;"/>
        <path d="M753.49,80.61C753.18,80.4 752.87,80.61 752.56,81.12C753.5,81.83 754.18,81.07 753.49,80.61Z" style="fill-rule:nonzero;"/>
        <path d="M736.41,145C736.31,144.38 736.82,143.77 735.48,143.77C735.49,144.38 735.49,144.79 736.41,145Z" style="fill-rule:nonzero;"/>
        <path d="M658.24,82.15C661.12,79.89 662.56,77.11 665.34,74.74C661.94,75.05 658.34,78.86 658.24,82.15Z" style="fill-rule:nonzero;"/>
        <path d="M657.93,82.36C655.87,84.62 655.67,86.78 656.8,89.05C658.55,87.19 658.75,85.03 657.93,82.36Z" style="fill-rule:nonzero;"/>
        <path d="M635.82,72.59C637.57,74.13 639.63,74.54 641.79,74.75C637.15,71.45 637.15,71.45 635.82,72.59Z" style="fill-rule:nonzero;"/>
        <path d="M651.96,79.48C653.3,81.02 653.3,83.39 654.53,85.45C655.87,82.15 655.26,80.92 651.96,79.48Z" style="fill-rule:nonzero;"/>
        <path d="M647.85,76.19C648.88,78.04 650.01,79.17 651.96,79.38C650.94,78.04 650.52,75.88 647.85,76.19Z" style="fill-rule:nonzero;"/>
        <path d="M641.68,74.85C642.91,75.78 644.05,76.7 645.79,75.78C644.56,74.23 643.02,74.95 641.68,74.85Z" style="fill-rule:nonzero;"/>
        <path d="M645.69,68.68C645.07,67.55 644.46,66.93 643.32,67.45C643.74,68.37 644.35,68.78 645.69,68.68Z" style="fill-rule:nonzero;"/>
        <path d="M653.4,70.43C652.78,71.25 653.09,71.87 653.61,72.49C654.54,71.66 654.23,71.04 653.4,70.43Z" style="fill-rule:nonzero;"/>
        <path d="M632.52,78.14C631.62,78.44 632.24,79.39 632.73,79.27C633.51,79.27 633.13,77.99 632.52,78.14Z" style="fill-rule:nonzero;"/>
        <path d="M614.11,322.95C615.76,329.64 616.17,335.91 616.06,342.29C618.95,333.95 618.23,325.62 614.11,322.95Z" style="fill-rule:nonzero;"/>
        <path d="M614.11,382.6C612.16,384.55 612.16,384.55 612.67,389.9C617.55,392.1 618.58,384.55 614.11,382.6ZM614.94,388.57C615.04,387.13 611.85,386.2 614.43,384.25C616.27,385.48 616.27,386.92 614.94,388.57Z" style="fill-rule:nonzero;"/>
        <path d="M612.98,369.03C613.08,369.75 611.75,370.26 611.95,371.7C613.29,370.67 613.9,372.52 615.45,372.32C616.58,370.26 616.48,368.31 615.55,366.15C614.21,366.36 612.77,365.53 611.74,366.66C611.54,367.9 612.88,367.79 612.98,369.03ZM614.52,367.9C615.65,368.83 615.45,369.65 614.73,370.57C613.8,369.64 613.6,368.82 614.52,367.9Z" style="fill-rule:nonzero;"/>
        <path d="M614.52,381.16C617.5,378.69 617.19,375.09 613.9,373.24C611.03,375.71 611.34,379.21 614.52,381.16ZM613.91,374.58C615.97,376.12 615.86,377.56 614.73,379.31C612.26,378.28 612.67,376.74 613.91,374.58Z" style="fill-rule:nonzero;"/>
        <path d="M659.99,322.43C663.08,326.55 672.04,321.76 673.36,322.84C674.71,323.95 676.25,323.47 677.47,322.84C680.21,321.42 689.21,318.71 690.22,315.95C680.97,320.99 670.99,323.05 659.99,322.43Z" style="fill-rule:nonzero;"/>
        <path d="M697.94,301.45C698.78,303.13 698.59,302.61 699.59,303.4C699.49,302.07 699.07,301.55 697.94,301.45Z" style="fill-rule:nonzero;"/>
        <path d="M698.66,306.69C698.15,306.79 698.15,307.2 698.45,307.82C699.52,307.61 699.41,306.69 698.66,306.69Z" style="fill-rule:nonzero;"/>
        <path d="M653.51,332.92C654.33,332.92 654.74,332.61 655.05,331.58C653.92,331.69 653.3,331.89 653.51,332.92Z" style="fill-rule:nonzero;"/>
        <path d="M649.29,334.26C650.11,334.67 650.52,334.47 650.83,333.44C649.91,333.13 649.39,333.33 649.29,334.26Z" style="fill-rule:nonzero;"/>
        <path d="M695.99,311.32C696.81,311.32 697.12,310.91 697.12,309.98C696.09,310.19 695.78,310.6 695.99,311.32Z" style="fill-rule:nonzero;"/>
        <path d="M692.49,314.31C693.11,314.72 693.42,314.31 693.72,313.8C693.11,313.38 692.59,313.38 692.49,314.31Z" style="fill-rule:nonzero;"/>
        <path d="M595.8,300.83C595.59,301.34 595.49,301.96 596.21,302.58C598.17,300.62 596.59,299.26 595.8,300.83Z" style="fill-rule:nonzero;"/>
    </g>
</svg>
