<?xml version="1.0" encoding="UTF-8" standalone="no"?>
<!DOCTYPE svg PUBLIC "-//W3C//DTD SVG 1.1//EN" "http://www.w3.org/Graphics/SVG/1.1/DTD/svg11.dtd">
<svg width="100%" height="100%" viewBox="0 0 900 600" version="1.1" xmlns="http://www.w3.org/2000/svg" xmlns:xlink="http://www.w3.org/1999/xlink" xml:space="preserve" xmlns:serif="http://www.serif.com/" style="fill-rule:evenodd;clip-rule:evenodd;stroke-linejoin:round;stroke-miterlimit:2;">
    <g>
        <path d="M854.92,527.49C860.98,527.25 859.17,522.52 858.57,518.94C858.47,516.75 860.76,516.75 860.55,514.35C860.34,512.89 857.94,512.99 856.28,511.54C860.36,508.76 858.16,499.98 855.76,496.95C852.08,492.28 851.28,486.11 847.32,481.63C848.78,480.59 851.07,481.42 851.91,479.13C850.35,476.32 847.11,478.5 845.03,477.05C844.2,474.97 847.01,474.13 846.91,472.15C844.93,470.38 843.99,473.3 842.43,473.09C840.87,472.88 839.51,472.05 838.68,470.9C837.12,470.48 836.28,471.73 834.61,471.84C829.4,467.25 822,467.21 815.43,466.31C793.48,463.31 787.65,472.51 785.41,474.13C776.78,480.38 763.76,481.17 761.54,482.05C760.39,481.74 759.98,480.69 759.35,479.97C759.56,478.61 761.23,477.78 761.12,475.9C759.66,474.02 757.16,473.71 754.87,472.67C756.85,467.09 747.63,452.99 743.61,447.65C739.54,442.24 732.48,442.37 720.05,440.35C710.25,433.37 700.66,428.53 688.46,429.93C662.88,432.85 654.79,421.03 626.43,424.2C615.7,425.4 603.79,426.44 604.75,436.5C606.42,454.08 609.16,444.27 589.74,449.32C584.53,450.68 579,450.78 575.25,455.89C566.65,448.11 563.61,458.03 559.61,456.72C555.03,455.23 549.81,456.72 545.54,453.8C544.18,452.76 542.73,452.44 541.27,454.01C538.25,449.63 534.49,452.45 531.57,452.45C502.02,433.95 483.8,431.7 450.05,447.24C440.66,451.56 439.78,458.45 431.18,462.67C415.8,470.22 414.52,466.3 381.98,475.28C365.4,479.86 361.68,472.74 360.09,482.37C356.58,503.62 348.87,493.17 338.82,500.3C343.93,503.95 349.35,503.64 355.29,501.86C353.62,515.72 351.22,529.17 354.77,542.72C346.01,544.08 338.82,541.05 332.46,534.59C335.57,528.85 321.09,528.52 321.2,523.64C321.21,523.33 320.89,522.8 320.57,522.6C303.95,511.99 307.62,519.92 311.71,520.2C318.77,520.68 318.46,527.52 329.22,534.69C320.79,537.4 305.5,535.16 296.59,526.04C286.8,516.01 248.72,512.15 243.11,511.24C178.23,500.63 195.55,495.43 169.72,495.29C162.78,495.25 141.66,496.75 136.57,500.71C137.18,490.63 128.95,485.14 145.85,467.35C144.91,465.99 145.43,464.12 147.1,462.14C213.92,469.02 200.36,465.43 216.53,469.23C226.71,471.62 246.01,464.81 267.3,468.29C279.99,470.37 282.17,474.44 290.13,474.86C299.1,475.33 306.5,480.07 314.42,483.51C313.69,484.34 312.54,483.51 311.81,484.76C319.67,490.46 327.11,486.32 327.76,486.32C337.56,486.37 347.36,486.22 357.37,487.57C365.51,481.46 331.53,482.79 317.96,485.38C318.06,482.25 316.08,481.54 314.1,480.58C305.62,476.48 297.31,472.33 287.62,471.82C281.44,471.5 277.79,462.92 245.61,464.11C231.89,464.62 222.05,467.24 219.44,466.61C202.6,462.57 166.24,461.41 151.78,458.69C153.03,457.44 155.22,458.69 156.05,456.5C153.86,453.16 150.73,455.87 148.02,455.46C146.87,454.52 148.33,453.58 147.71,452.65C141.35,446.5 132.62,444.27 125.19,439.72C117.03,434.72 106.72,437.47 100.9,434.92C97.69,433.51 94.02,435.34 92.35,439.09C89.85,444.72 86.05,449.64 83.91,455.56C81.6,461.93 76.55,462 79.53,469.53C81.9,475.53 75.58,478.67 75.46,488.5C75.38,495.67 65.52,497.81 61.07,519.77C59.21,528.95 60.65,538.12 61.17,547.29C61.91,560.25 78.72,568.77 84.52,566.78C87.8,565.66 96.87,570.98 105.89,559.9C109.35,555.65 109.02,553.23 105.37,547.6C108.08,543.22 104.64,539.78 103.18,535.51C109.64,529.98 112.38,520.88 121.63,517.68C126.65,515.95 131.95,513.61 134.87,508.51C136.54,507.99 138.41,509.24 139.87,507.47C140.39,505.59 136.85,504.76 138.83,502.26C142.19,499.51 147.96,503.33 158.22,499.76C164.32,497.63 170.8,500.11 181.26,501.74C209.81,506.18 195.73,510.26 227.44,513.31C241.51,514.67 255.38,517.44 269.45,518.94C278,519.85 285.89,523.28 293.32,527.49C295.19,528.55 296.36,530.5 298.01,531.87C305.99,538.47 322.2,540.31 331.37,538.02C338.46,543.23 346.17,547.61 355.03,546.15C357.84,548.23 356.07,551.99 359.41,553.13C362.43,547.29 368.58,549.06 373.17,547.4C383.31,552.71 379.07,552.21 395.58,550.32C402,549.58 406.14,557.51 421.54,556.89C439.54,556.16 440.76,558.21 442.39,555.85C462.18,560.13 471.44,563.29 484.92,559.92C499.78,556.2 500.7,572.5 527.35,545.85C529.96,545.22 532.88,546.37 535.27,544.6C536,540.22 536,540.22 537.88,537.62C536,536.47 536.21,534.6 536.63,532.41C541.73,535.36 539.62,525.6 547.89,459.44C550.39,460.59 552.48,457.04 555.08,459.13C553.31,475.5 554.98,492.28 549.76,508.33C561.11,482.89 551.32,455.71 560.5,459.65C560.6,462.46 558.83,465.18 559.87,468.2C563.41,464.66 557.97,464.07 567.48,456.63C571.35,453.6 573.85,461.55 578.01,457.99C586.13,451.04 601.56,452.17 611.79,450.17C607.1,455.41 612.26,452.6 609.5,462.16C606.2,473.55 609.34,511.96 609.4,512.41C609.67,514.43 608.07,515.51 607.88,516C558.37,549.41 591.82,530.7 608.24,516.58C610.56,516.58 610.06,518.12 610.54,519.5C613.03,526.66 617.43,533.05 618.88,540.66C619.3,542.85 622.01,544.41 622.32,547.12C617.32,550.14 612.52,544.2 607.2,547.54C608.14,542.74 612.2,540.87 612.62,536.7C608.14,538.99 605.74,543.37 602.4,546.92C596.67,547.75 590.83,547.54 584.99,546.19C562.78,541.04 551.6,548.64 545.17,543.48C543.49,542.13 541.21,541.79 539.12,541.4C537.98,541.18 537.24,541.61 537.04,543.38C548.64,544.6 544.26,552.12 556.74,548.7C564.38,546.6 580.69,548.5 588.33,550.89C596.73,553.52 610.97,548.98 616.79,552.04C618.77,553.08 621.59,551.41 624.4,551.1C626.69,554.64 628.23,558.83 630.45,562.67C647.6,592.46 648.86,599.25 665.06,597.8C670.91,597.28 684.36,598.23 697.06,594.15C702.09,597.5 716.37,603.48 715.51,597.49C715.49,597.49 714.69,597.07 722.6,598.12C726.46,598.63 728.75,597.81 730.94,595.1C729.58,593.12 727.29,592.92 725.31,592.29C714,588.67 718.29,585.75 711.13,584.78C708.11,584.37 705.6,582.7 702.89,581.76C709.98,582.28 717.23,581.59 722.59,587.81C725.14,590.77 731.71,590.38 732.7,593.44C733.24,595.1 737.08,594.27 738.64,592.29C735.3,590.31 731.66,588.93 728.01,587.91C715.91,584.53 731.31,580.38 701.95,578.94C697.68,578.73 693.51,577.46 689.23,577.06C659.51,574.28 674.83,576.62 663.38,573.41C660.15,566.22 658.58,558.82 659.94,551C667.91,548.55 677.47,554.01 692.36,545.37C696.52,542.96 705.29,547 705.29,541.93C704.77,541.62 706,542.45 703.93,541.93C681.17,539.78 693.38,549.21 670.68,546.73C691.5,527.07 703.61,533.65 698.31,520.77C696.42,532.3 677.91,533.28 668.81,546.52C665.58,546.21 662.45,546.52 659.43,546.94C658.91,533.8 658.18,521.19 667.46,510.45C670.69,511.81 674.34,512.41 678.2,511.91C682.6,511.34 688.74,519.2 704.05,514.93C704.16,514.9 736.15,508.71 733.86,502.63C742.3,491.68 747.2,479.9 750.64,467.08C751.89,470.94 750.85,476.25 758.25,476.67C750.22,481.15 746.66,487.81 743.45,494.5C733.2,515.84 705.63,519.15 706.65,524.94C707.15,527.76 705.4,529.53 704.57,531.82C700.26,543.74 704.53,538.66 705.14,541.79C706.99,543.64 711.35,534.67 715.62,535.26C718.64,535.68 721.15,534.44 723.86,533.7C734.07,530.91 749.03,539.48 756.07,540.16C757.01,545.27 756.72,549.86 756.59,554.44C756.41,561.11 762.84,566.3 769.31,564.24C774.62,562.55 774.63,562.57 777.65,565.39C778.9,565.7 779.73,564.45 780.88,564.56C782.03,565.19 782.55,566.63 783.9,566.96C785.15,567.26 786.08,566.42 787.13,566.02C793.53,563.58 790.45,568.08 794.01,568.73C804.72,565.49 807.05,557.59 814.03,559.24C818.23,560.23 821.13,558.5 831.44,552.15C833,552.15 833.21,554.23 834.78,554.03C835.4,553.59 835.42,553.07 835.28,552.48C842.47,561.05 846.05,560.23 854.07,558.93C853.24,555.8 857.41,555.28 857.41,552.57C857.41,550.17 856.47,547.77 858.97,545.9C856.57,542.25 852.3,540.69 850.94,536.31C852.92,536.73 853.65,539.44 856.15,538.92C856.05,536 853.54,534.65 852.08,531.62C855.06,532.99 857.69,538.62 860.21,533.08C860.03,529.89 857.11,529.47 854.92,527.49ZM124.77,511.44C111.44,499.82 110.73,497.87 107.99,499.45C105.7,498.41 104.97,495.7 102.67,496.01C97.95,498.11 106.87,503.18 108.4,507.16C105.69,506.33 103.2,503.74 100.37,506.01C97.88,508.01 99.95,510.18 100.37,512.37C93.59,513.52 92.66,514.45 97.03,522.59C96.7,522.99 87.3,522.9 91.4,530.41C94.05,535.26 98.76,534.27 98.59,537.39C96.09,537.7 93.06,535.51 90.77,538.54C93.48,542.92 97.96,543.75 102.13,544.79C102.76,546.25 101.19,547.4 101.82,548.86C104.32,550.84 104.22,553.66 103.7,556.99C88.46,566.27 89.13,560.72 86.19,562.41C82.45,564.56 75.57,560.4 72.12,557.93C63.54,551.79 66.54,545.87 63.88,531.45C63.44,529.06 62.2,526.76 63.05,524.26C66.35,514.45 68.36,504.03 75.46,495.7C80.15,490.19 79.29,485.63 81.19,482.36C87.71,471.15 82.28,466.57 82.75,465.16C87.96,456.51 93.17,448.17 97.24,438.58C100.89,441.6 104.64,440.88 108.19,441.08C120.52,441.79 116.14,441.12 143.63,454.22C142.27,456.2 140.81,457.44 138.94,458.39C125.73,465.14 131.52,469.2 124.97,474.55C118.86,479.54 118.12,487.76 119.44,495.5C118.92,496.96 117.15,497.06 117.04,498.63C117.98,501.03 123.4,506.34 126.01,507.39C127.05,506.03 124.65,505.1 125.49,503.53C126.85,505.61 128.83,506.76 130.81,508.01C128.74,510.08 126.23,510.92 124.77,511.44ZM101.11,530.51C100.48,531.66 99.75,532.28 99.13,530.51C99.86,529.89 100.49,529.99 101.11,530.51ZM131.34,490.8C131.97,494.24 132.28,497.89 131.97,501.43C128.53,502.37 124.93,500.28 124.88,497.05C124.81,492.8 121.89,484.07 127.9,477.76C131.03,474.47 133.74,465.12 143.22,461.08C138.63,475.16 128.94,477.78 131.34,490.8ZM534.26,474.43C533.75,475.79 532.8,477.66 533.63,478.5C536.1,480.97 532.71,499.91 533.32,540.63C529.78,541.57 525.81,539.8 523,542.92C522.58,547.72 508.41,556.68 501.42,556.16C510.85,535.42 513.67,542.97 520.71,535.73C507.47,535.94 502.36,545.43 498.4,556.06C493.71,554.7 489.54,555.65 485.26,556.27C479.47,557.11 478.95,560.65 462.01,556.58C422.94,547.19 433.7,560.02 408.64,551.37C408.01,550.22 409.79,549.49 408.74,548.45C404.26,546.78 393.49,546.59 387.99,548.76C379.41,552.15 377.21,542.11 366.62,544.28C364.12,544.79 362.76,547.41 359.84,547.09C354.85,532.77 354.55,527.43 363.91,481.31C365.57,480.4 373.6,482 379.13,479.54C389.9,474.75 409.5,474.26 420.41,470.47C444.44,462.12 443.22,456.66 452.94,450.77C467.79,441.77 483.69,439.41 500.79,442.22C509.03,443.58 515.79,448.09 522.99,451.39C525.28,452.44 527.16,453.79 527.58,456.08C526.02,458.89 525.91,461.61 526.02,464.73C528.73,463.9 531.34,466.4 533.73,464.1C534.15,463.16 532.69,463.27 532.79,462.54C533.42,461.39 535.5,462.02 535.6,460.14C533.62,459.41 531.64,461.29 529.76,460.04C531.43,458.58 533.72,459.41 535.08,458.58C536.44,457.54 534.87,457.22 535.18,456.5C536.01,456.29 536.85,456.08 537.89,456.92C536.45,462.65 536.4,468.72 534.26,474.43ZM538.32,525.93C537.07,525.93 537.38,527.82 537.38,513.32C538.79,512.19 538.32,513.03 538.32,525.93ZM540.3,497.36C537.07,483.6 536.44,470.05 541.34,456.7C543.22,456.39 544.57,457.01 545.93,458.47C543.54,471.3 541.76,484.33 540.3,497.36ZM688.86,434.61C698.14,433.19 705.64,436.8 713.15,440.97C708.88,441.8 704.92,441.48 700.95,439.82C687.79,434.33 681.4,436.29 659.36,439.09C672.52,433.33 673.56,436.94 688.86,434.61ZM609.32,447.22C608.8,442.53 609.84,437.94 607.86,433.77C617.76,425.95 648.72,426.58 664.26,433.04C621.51,445.04 631.33,446.88 609.32,447.22ZM746.82,468.9C746.28,471.82 744.12,473.8 743.69,476.61C742.07,487.15 736.08,495.38 728.47,501.94C719.51,509.66 707.94,511.27 696.57,512.36C690.84,512.91 688.44,511.73 686.15,509.55C691.15,508.19 696.89,508.72 700.43,503.4C695.01,501.94 689.9,504.34 684.58,504.65C679.16,504.97 673.63,504.55 667.69,506.73C668.32,501.93 670.09,497.87 669.57,493.59C667.95,480.49 662.94,480.16 665.3,485.46C670.52,499.91 660.06,516.12 657.79,522.05C655.68,527.58 653.62,555.64 660.19,576.88C662.8,574.59 664.87,576.18 666.86,576.98C675.13,580.34 670.12,577 686.77,580.11C690.53,580.81 695.01,579.38 697.51,583.86C702.93,584.59 707.83,587.61 713.56,587.61C716.79,591.78 721.38,594.07 727.32,595.74C719.81,596.26 718.66,595.85 713.66,592.72C699.46,583.82 698.05,586.58 688.54,585.84C683.89,585.48 683.24,589.9 696.46,588.97C705.09,588.36 707.13,593.2 714.29,595.85C715.65,596.01 715.63,597.24 715.46,597.4C715.38,597.72 707.49,597.07 701.88,593.66C693.49,588.56 689.79,597.61 665.08,593.97C659.35,593.13 653.31,593.02 649.86,586.78C644.15,576.45 637.57,566.65 631.93,556.24C611.17,517.92 609.42,472.33 615.25,455.43C615.85,454.54 624.48,453.44 629.95,451.26C659.06,439.65 653.62,444.8 661.85,443.34C678.22,440.44 693.22,436.82 701.78,444.9C703.87,446.87 706.47,447.56 709.39,447.4C714.6,447.11 719.71,448.04 724.92,447.61C730.32,447.19 750.39,449.51 746.82,468.9ZM851.27,550.22C852.21,550.43 852.52,551.05 852.94,552.3C851.8,551.89 850.75,551.89 851.27,550.22ZM846.06,524.57C843.56,524.99 843.35,523.21 842.72,521.96C843.98,522.59 845.23,523.22 846.06,524.57ZM837.62,478.91C828.59,484.55 832.18,473.97 826.05,472.03C827.07,471.01 825.01,470.16 837.62,478.91ZM829.7,486.52C829.7,487.77 830.65,487.46 823.45,487.46C825.53,486 827.61,485.69 829.7,486.52ZM831.57,516.34C829.9,517.07 828.86,517.07 827.5,515.92C829.07,515.29 830.22,514.98 831.57,516.34ZM821.25,526.45C821.49,526.94 820.56,528.14 819.79,526.35C820.52,525.82 821.04,525.82 821.25,526.45ZM816.14,496.32C816.77,497.99 816.97,498.93 816.66,499.86C813.64,501.42 811.97,499.34 809.99,497.57C811.87,495.38 814.16,498.2 816.14,496.32ZM814.58,514.04C814.12,514.27 813.46,514.06 813.85,512.89C814.59,513.14 815.13,513.5 814.58,514.04ZM808.64,519.99C808.01,520.2 807.6,519.78 807.49,519.16C807.59,518.95 807.7,518.74 807.8,518.43C810.32,519.14 811.51,518.84 808.64,519.99ZM808.95,522.38C807.91,522.8 807.49,523.53 806.45,523.32C806.76,522.28 807.49,522.07 808.95,522.38ZM812.39,530.93C813.63,530.93 811.42,532.95 810.1,532.18C810.83,531.35 811.45,530.83 812.39,530.93ZM804.57,485.06C806.03,483.91 807.38,484.12 808.74,484.43C807.6,485.38 806.45,485.9 804.57,485.06ZM808.32,480.16C806.96,481.1 805.61,481.72 803.63,481.1C805.09,479.64 806.66,479.75 808.32,480.16ZM801.97,512.58C801.24,511.95 800.72,511.54 800.2,511.12C801.24,510.81 801.76,511.12 801.97,512.58ZM798.42,508.83C799.67,509.13 800.5,509.66 800.19,511.02C795.39,509.66 791.33,510.71 787.99,514.67C790.18,515.5 790.18,515.5 793.1,513.73C797.42,518.91 793.58,512.62 789.03,520.19C787.15,519.36 785.59,518.63 784.34,517.27C785.29,515.8 789.28,506.63 798.42,508.83ZM798.84,513C797.8,513.52 796.65,513.94 795.19,513.31C796.44,512.48 797.59,512.17 798.84,513ZM771.63,483.5C774.24,482.77 773.51,484.65 773.4,486.31C772.26,485.27 771.42,484.65 771.63,483.5ZM769.34,484.23C767.67,485.48 766.84,487.67 763.92,486C765.69,484.54 767.25,484.12 769.34,484.23ZM767.88,499.45C766.63,498.72 766.63,497.68 766.94,496.22C767.88,497.36 768.61,498.2 767.88,499.45ZM817.19,558.04C817.5,550.64 812.92,543.76 808.02,544.28C811.15,547.82 813.75,551.58 813.55,556.48C805.42,556.27 800.94,563.57 794.06,566.49C793.23,563.78 793.02,561.28 792.91,558.88C793.95,558.15 795.31,559.4 796.14,558.15C794.89,555.96 793.44,556.7 791.97,557.42C789.58,558.59 789.78,560.76 790.2,562.74C788.22,563.57 786.45,564.2 784.67,564.93C782.69,562.74 783.52,558.36 779.56,557.74C778.2,559.72 780.81,560.66 779.87,562.01C777.25,564.85 777.17,558.98 770.59,561.49C758.92,565.95 759.59,553.84 759.54,547C759.45,534.63 750.35,536.32 744.95,533.45C739.14,530.36 732.75,530.32 726.6,529.8C720.45,529.28 714.61,531.99 708.77,534.18C709.71,525.32 715.86,519.17 722.32,520.32C751.7,497.29 736.55,506.57 754.43,483.1C755.28,481.82 757.45,483.35 758.39,484.56C758.81,485.81 758.18,487.37 758.91,488.52C760.06,489.15 760.79,486.64 762.04,488.62C760.68,490.7 758.81,492.06 755.89,492.16C757.56,493.62 759.64,493.41 760.89,495.08C759.43,498.94 762.77,500.71 764.85,503C773.74,500.3 777.83,511.19 786.53,508.63C782.99,514.57 777.96,519.15 775.58,525.41C775.26,526.24 774.02,527.08 773.29,527.18C769.22,527.39 767.87,530.52 766.2,533.23C766.56,533.23 765.21,533.41 764.53,535.11C765.99,535.32 766.3,534.38 766.72,533.65C771.2,529.38 778.4,529.58 782.88,524.27C778.54,523.34 778.38,524.52 783.19,519.27C785.27,521.25 788.4,520.73 789.55,523.34C791.53,522.19 791.53,520.11 793.09,518.86C796.43,518.55 800.18,519.07 803.62,516.67C803.62,518.96 801.12,520.01 801.74,521.99C804.07,522.57 803.96,519.11 806.33,520.22C800.6,525.12 793.82,528.14 788.19,532.52C789.75,535.23 791.94,534.29 793.51,533.98C803.13,532.06 803.27,538.9 810.82,536.27C813.74,539.61 817.28,539.5 820.72,538.98C824.37,539.71 823.95,545.03 828.33,544.3C828.85,546.59 829.16,548.68 829.69,550.97C825.42,553.24 821.88,556.37 817.19,558.04ZM806.14,531.56C805.41,531.87 804.78,531.66 803.85,531.25C804.78,530.83 805.61,530.41 806.14,531.56ZM797.8,530.31C797.28,530.94 796.76,531.04 795.92,530.41C796.54,530.51 796.86,528.64 797.8,530.31ZM826.99,517.8C829.18,519.16 831.99,517.8 833.24,521.03C829.07,521.13 829.07,521.13 826.99,517.8ZM833.34,506.23C834.8,507.79 835.74,508.63 836.15,510.4C834.28,509.56 832.72,509.25 833.34,506.23ZM835.22,524.89C834.18,524.89 833.97,524.47 834.39,523.53C834.91,523.84 835.43,524.16 835.22,524.89ZM833.76,549.49C834.18,550.85 834.59,551.78 835.01,552.51C834.07,551.89 833.03,551.36 833.76,549.49ZM839.49,551.68C842.39,551.68 839.69,550.57 848.56,557.52C844.71,557.2 842.21,555.12 839.49,551.68ZM834.7,531.45C837.83,531.66 837.2,533.74 836.68,535.41C840.43,540 844.71,543.54 849.92,546.04C842.73,545.11 836.05,538.54 834.7,531.45ZM846.38,531.45C847.42,531.87 848.05,532.08 847.53,533.33C847.1,532.7 846.38,532.7 846.38,531.45ZM846.69,511.54C849.61,512.9 850.96,514.35 851.49,516.54C849.61,515.61 848.36,513.94 846.69,511.54ZM853.57,526.03C852.63,525.3 852.11,524.36 851.69,523.32C852.52,523.11 852.93,523.22 853.05,523.63C853.24,524.37 854.09,524.99 853.57,526.03ZM853.67,502.16C852.11,500.6 851.27,502.47 850.02,502.79C848.87,502.16 847.83,501.54 846.68,501.02C848.97,501.44 850.54,499.35 852.73,498.62C852.94,499.76 854.09,500.49 853.67,502.16Z" style="fill-rule:nonzero;"/>
        <path d="M115.81,309.82C116.23,308.88 116.85,308.46 118,308.46C117.6,309.73 116.84,309.9 115.98,309.83C111.78,316.71 136.69,310.18 132.6,297.41C132.04,295.65 131.35,293.97 129.16,295.22C127.91,292.3 126.76,289.69 125.51,286.67C121.97,285.94 118.21,285.11 114.56,284.38C111.95,281.88 111.54,278.23 109.35,276.14C108.14,272.36 113.6,272.5 110.91,259.98C109.32,252.56 113.79,255.99 111.12,251.54C114.35,246.01 117.48,240.7 120.92,234.96C117.27,234.13 117.17,237.36 115.39,238.3C114.14,238.3 112.78,238.2 110.59,239.24C113.4,235.9 116.64,234.34 117.37,231.32C130.35,222.93 146.48,225.56 152.4,222.46C158.24,219.4 156.38,225.68 180.96,222.56C238.29,215.29 232.36,208.41 261.65,217.87C273.04,221.55 283.54,218.7 294.38,213.8C302.09,216.41 310.43,218.39 318.25,214.22C321.17,215.47 321.17,218.49 323.88,219.75C325.44,214.85 329.52,213.1 333.58,211.1C338.41,208.71 341.38,214.03 350.05,209.22C365.56,200.63 364.12,211.12 381.85,205.15C400.75,198.79 401.32,200.19 401.66,197.64C416.06,196.44 432.09,195.76 441.48,189.61C452.22,182.58 454.97,189.38 462.95,183.25C477.48,172.09 473.76,162.54 482.44,161.36C483.27,161.25 484,160.63 484.42,160C485.57,158.75 483.79,157.39 484.63,156.25C485.91,155.61 489.78,158.79 495.37,155.52C497.67,154.17 500.7,155.22 502.67,153.33C507.82,148.37 514.99,148.79 520.81,145.93C524.74,144 532.4,146.74 537.91,145.51C537.91,147.28 535.72,147.28 535.83,149.05C537.5,149.57 538.23,147.91 539.27,147.38C560.71,136.43 557.95,133.29 571.48,129.14C583.19,125.54 580.57,133.75 595.56,130.81C596.5,133.73 595.33,136.75 595.56,139.67C596.13,146.97 598.13,154.06 599.31,161.35C601.67,175.92 598.75,178.46 604.42,185.85C611.48,195.05 606.25,201.3 608.9,213.79C609.45,216.37 606.61,218.47 609.73,233.18C617.69,270.6 610.82,255.74 628.81,296.98C632.45,305.33 631.41,309.77 636.84,317.2C645.44,328.97 644.79,334.47 653.73,334.09C665.24,333.6 680.84,337.93 692.09,330.86C700.19,333.72 704.14,340.38 710.85,336.28C716.17,333.03 720.91,336.25 725.24,332.84C725.75,331.4 723.73,330.67 724.39,329.24C728.54,331.65 730.67,333.28 733.27,330.13C728.16,329.61 724.51,326.6 720.03,325.65C704.97,322.45 712.07,317.07 701.37,318.98C691.69,320.7 686.77,319.56 664.78,315.12C655.67,313.28 663.28,318.34 654.88,311.05C656.44,302.81 655.51,294.47 653.94,286.13C655.4,285.71 656.55,284.66 658.11,285.19C665.11,287.56 672.6,288.12 679.69,290.72C701.17,298.57 701.74,293.08 706.79,296.87C700.43,296.87 694.39,296.92 688.23,296.87C682.76,296.82 684.2,293.81 681.45,293.74C673.87,293.56 667.66,286.58 660.08,289.36C659.8,292.74 662.68,287.81 671.13,293.11C674.27,295.08 677.7,295.82 681.35,296.13C681.25,298.21 680.41,299.33 678.43,299.15C664.92,297.94 672.62,294.48 656.43,296.54C658.28,300.24 660.01,296.37 670.71,300.08C681.87,303.95 679.57,299.79 686.45,299.66C694.79,299.5 703.13,299.45 711.78,301.22C711.68,297.47 715.22,297.36 716.99,295.17C703.74,284.98 664.38,287.89 652.67,282.03C647.99,246.95 658.21,215.35 648.6,204.47C645.39,206.61 652.75,212.27 649.85,224.49C648.86,228.65 651.89,235.41 648.7,238.25C648.26,238.64 646.37,271.35 652.66,305.7C653.25,308.94 652.66,312.06 653.29,315.29C654.33,316.02 655.48,314.56 657.04,315.81C657.35,316.02 656.21,317.17 657.25,317.89C658.61,318.1 659.44,316.32 661.32,316.74C666.43,317.88 671.85,318.08 677.06,319.14C704.26,324.65 706.75,316.79 709.38,324.67C706.98,324.46 705,322.79 702.5,323.11C707.61,328.22 715.22,327.91 721.16,331.35C704.15,336.28 704.55,321.23 690.3,322.49C686.76,322.8 683.11,323.43 679.56,321.76C682.6,325.51 682.31,324.37 685.71,324.37C692.38,323.74 698.6,324.21 703.22,330C704.7,331.86 707.29,332.71 709.58,334.17C701.78,338.24 695.74,324.62 686.75,330.21C679.87,334.49 671.18,330.51 652.77,331.15C649.96,331.25 647.95,330.23 646.72,327.81C642.56,319.62 637.37,312.16 634.31,303.31C625.46,277.71 622.06,277.99 620.13,268.6C610.9,223.68 611.19,234.55 611.37,209.6C611.49,194.05 609.96,196.77 611.06,191.04C611.66,187.91 611.69,184.68 609.81,181.66C607.83,182.7 609.39,184.47 608.45,185.73C601.03,176.4 604.78,170.11 601.26,157.37C598.46,147.25 599.38,136.94 599.59,126.51C599.69,121.61 601.47,117.65 603.03,113.37C605.94,105.41 604.42,104.14 601.36,86.79C601.14,85.54 601.15,83.87 598.75,83.04C598.12,88.04 599.9,92.53 600.52,97.74C590.62,98.05 580.82,99.3 571.12,94.82C571.95,87.52 574.17,80.97 579.04,74.7C589.03,61.84 631.97,31.6 639.4,55.52C639.82,56.87 639.71,58.44 640.96,59.48C642.42,57.08 642.42,57.08 640.54,51.35C650.13,53.54 658.47,67.51 658.16,80.85C657.12,80.75 657.85,79.18 656.49,79.08C652.34,79.4 660.85,95.48 651.8,109.31C634.57,135.66 649.27,124.77 634.18,109.21C630.38,105.29 627.71,96.62 625.42,94.82C623.96,96.6 626.65,107.71 634.28,113.38C639.81,117.49 638.93,121.82 639.91,141.84C640.11,146.01 634.56,149.09 636.68,154.87C638.35,155.91 638.45,153.51 640.12,153.93C641.27,160.6 643.01,167.5 641.16,174.57C639.89,179.41 645.94,181.62 645.43,202.82C645.36,205.62 648.06,205.1 648.66,197.61C649.68,184.95 643.09,181.47 644.39,172.49C645.63,163.94 643.66,155.6 640.43,147.26C643.35,141.73 641.99,135.48 641.99,129.43C651.44,117.88 658.98,111.25 659.61,99.72C659.75,97.22 661.49,95.55 662.22,93.67C670.98,91.59 679.73,92.31 688.59,92.21C690.26,95.96 691.28,99.83 692.45,103.68C694.5,110.47 701.62,112.95 707.46,108.79C709.96,107.01 712.26,105.14 714.76,107.75C716.43,107.54 716.95,106.5 717.89,105.87C718.93,106.39 720.08,106.91 721.12,107.43C723.52,106.91 724.56,104.2 727.17,103.99C730.76,104.23 728.11,113.45 743.22,92.21C751.98,92.31 756.25,85.43 761.05,79.7C770.42,80.42 775.01,86.41 783.98,79.28C782.83,77.2 784.5,75.53 785.54,73.86C785.54,71.15 782.52,68.86 784.91,66.15C781.78,62.81 776.67,63.02 774.49,59.06C773.99,58.69 772.93,58.23 773.24,58.23C773.76,58.54 774.18,58.75 774.49,59.06C776.47,58.85 777.93,61.25 780.33,60C779.5,57.39 776.68,56.98 775.12,54.89C777.1,54.58 778.25,56.45 780.33,56.35C781.69,56.14 781.58,54.47 782.41,53.74C781.26,50.09 777.93,50.93 774.9,49.47C780.84,48.81 779.28,45.18 776.36,39.98C776.26,38.42 777.82,37.9 777.61,36.75C776.67,34.35 774.38,35.08 772.5,34.25C775.42,30.68 770.84,23.28 767.91,21.22C763.21,17.9 760.61,12.46 755.71,9.44C756.23,7.46 759.15,7.98 758.94,5.48C756.65,2.98 754.25,6.52 751.85,5.48C750.49,3.71 753.21,2.04 751.85,-0.05C749.45,1.41 747.05,4.33 743.82,1.31C742.26,3.5 740.28,3.9 737.98,3.08C734.13,1.7 730.37,3.78 726.51,3.81C718.69,3.86 711.91,7.56 704.93,10.48C700.45,12.36 698.68,16.53 696.17,20.07C689.14,30.01 677.23,32.34 675.74,36.54C674.39,40.34 670.36,39.66 664.79,42.59C661.66,41.65 659.06,40.09 656.97,38.11C656.79,26.14 650.67,32.18 644.04,29.77C633.97,26.12 623.18,25.53 613.08,21.95C608.3,20.26 593.74,23.31 587.75,26.02C581.58,28.8 574.72,29.25 568.15,30.92C545.9,36.57 530.27,46.95 518.95,49.37C512.17,50.82 506.76,55.32 500.81,58.44C498.41,59.7 497.68,62.61 495.49,64.69C486.56,60.72 486.31,69.31 482.04,70.22C478.4,70.99 474.74,72.3 471.2,71.89C467.66,71.47 464.22,72.72 460.57,71.99C458.49,71.57 456.5,73.87 454.63,74.6C445.14,72.2 435.97,69.37 426.38,70.01C398.41,71.88 375.22,90.28 368.52,109C366.94,113.42 353.87,122.7 346.21,126.2C328.34,134.36 324,141.55 308.99,146.22C306.79,146.91 304.61,147.58 303.67,150.49C305.75,154.14 305.41,158.41 305.13,162.48C304.62,169.88 296.36,169.18 290.12,175.93C295.96,178.12 300.86,176.03 305.76,172.59C308.47,185.83 310.03,199.17 317.33,210.74C309.62,214.81 302.11,213.76 294.4,209.91C294.68,203.39 282.3,207.72 280.85,203.13C280.23,201.89 273.06,199.7 267.3,201.05C270.29,205.13 271.57,199.88 277.52,203.76C281.81,206.56 285.96,209.6 291.07,211.27C280.44,216.07 269.89,218.49 258.86,212.63C242.41,203.88 188.11,221.03 160.45,218.57C142.82,217 137.67,219.41 133.55,220.76C127.17,222.84 116.7,225.06 112.39,231.29C101.34,227.43 96.02,218.26 90.5,208.77C93.31,204.29 99.26,205.96 102.49,202.2C99.47,201.37 96.76,202.72 93.94,202.83C93.42,199.29 94.98,198.04 98.32,197.41C156.13,186.56 151.12,184.87 164.73,183.75C181.23,182.4 202.39,164.28 228.32,167.07C240.11,168.34 237.3,163.11 262.51,167.59C262.09,168.42 260.63,168.11 260.63,169.47C270.07,172.54 272.12,166.94 281.9,164.15C304.35,157.74 304.31,159.17 304.31,155.6C297.43,155.81 280.83,160.08 266.78,167.59C264.25,162.72 242.96,162.05 234.36,164.25C228.75,165.69 220.87,159.33 192.87,169.57C175.16,176.04 177.05,179.22 157.43,180.93C146.26,181.9 150.41,182.86 136.79,185.52C73.97,197.79 101.45,194.12 79.77,195.42C63.61,196.39 61.04,203.16 53.81,201.99C34.19,198.81 44.01,213.55 40.78,218.88C36.91,225.28 42.04,227.81 43.28,238.69C44.45,248.96 53.19,248.74 57.04,261.62C60.93,274.64 52.46,275.22 74.87,301.13C92.32,321.26 115.91,309.86 115.81,309.82ZM712.42,295.12C707,292.31 700.74,293.97 694.7,291.26C701.26,290.43 709.5,292.1 712.42,295.12ZM724.82,328.69C723.99,328.48 722.94,328.9 721.8,327.75C723.15,328.17 723.88,328.48 724.82,328.69ZM602.54,100.91C602.02,106.96 599.1,111.86 597.85,117.69C588.73,114.65 576.48,114.06 572.73,99.03C582.21,102.58 592.01,102.89 602.54,100.91ZM769.75,76.52C770.18,75.23 768.84,74.78 779.76,79.33C775.28,79.96 772.36,78.6 769.75,76.52ZM780.28,71.41C780.9,71.82 780.97,72.51 779.13,72.14C779.45,71.31 779.87,71.2 780.28,71.41ZM774.76,58.69C772.05,57.86 772.51,57.1 772.05,57.02C772.12,56.95 772.14,56.92 772.14,56.89C772.15,56.9 772.15,56.91 772.16,56.92C772.28,57.25 773.73,57.14 774.76,58.69ZM773.4,47.33C772.67,47.23 772.15,46.91 771.94,45.87C773.19,45.97 773.82,46.18 773.4,47.33ZM772.12,56.87C771.96,56.75 770.17,57.38 769.44,55.35C770.77,55.36 771.5,55.96 772.12,56.87ZM769.54,40.03C767.46,39.4 765.58,38.36 763.29,36.17C766.52,36.8 768.29,37.95 769.54,40.03ZM767.56,48.58C765.27,50.35 764.12,48.68 762.76,47.33C764.44,47.43 765.9,48.58 767.56,48.58ZM765.58,22.93C766.21,23.97 767.25,24.29 767.25,25.43C765.17,25.85 763.5,29.18 760.68,26.16C762.87,26.06 763.81,24.08 765.58,22.93ZM761.21,59.73C760.74,64.07 773.19,67.15 776.43,68.17C769.45,67.34 762.15,66.5 758.29,58.89C759.64,58.38 761.31,58.8 761.21,59.73ZM755.89,51.39C756.52,51.49 756.83,51.81 757.04,52.33C756.1,52.64 755.78,52.33 755.89,51.39ZM747.55,48.16C749.95,48.89 752.45,46.28 753.8,49.62C751.51,50.66 749.63,51.19 747.55,48.16ZM752.45,53.06C752.45,53.63 750.83,53.68 751.2,52.75C751.61,51.92 752.45,52.21 752.45,53.06ZM751.82,11.47C750.99,11.78 750.78,11.37 750.67,10.53C751.09,10.84 751.41,11.15 751.82,11.47ZM753.07,38.57C751.61,38.67 750.36,38.57 749.84,36.8C751.82,36.9 751.82,36.9 753.07,38.57ZM750.78,45.97C749.63,45.87 748.49,47.43 746.92,46.18C748.38,45.87 749.22,44.1 750.78,45.97ZM745.78,9.07C738.72,16.68 739.59,6.3 733.06,5.84C733.49,4.53 732,4.7 745.78,9.07ZM744.42,58.8C743.79,59.11 743.48,58.8 743.27,58.17C744.45,56.99 745.03,58.8 744.42,58.8ZM735.04,20.75C739,18.35 739,18.35 741.19,19.29C739.21,20.22 737.12,20.64 735.04,20.75ZM738.27,64.74C737.96,65.78 737.23,66.51 735.56,67.14C736.5,65.68 736.6,64.42 738.27,64.74ZM731.18,31.8C732,33.03 731.84,32.39 732.85,34.41C730.35,37.12 728.16,35.45 725.55,34.62C727.12,32.21 729.83,33.46 731.18,31.8ZM730.97,56.29C729.61,55.35 728.89,54.62 728.47,53.37C730.78,56.26 735.11,52.16 730.97,56.29ZM732.02,66.93C731.5,67.76 730.87,68.08 729.94,67.56C730.45,66.72 731.08,66.41 732.02,66.93ZM727.32,58.07C727.22,57.34 727.42,56.71 728.36,56.51C728.58,57.44 728.37,57.96 727.32,58.07ZM722.32,53.58C721.8,54.94 720.86,55.04 720.24,55.35C720.44,54.42 721.07,53.9 722.32,53.58ZM716.9,24.71C717.84,22.94 719.09,22.52 721.38,22.1C720.03,23.98 718.67,24.29 716.9,24.71ZM720.13,18.24C718.36,19.91 717,20.64 715.23,20.74C716.48,19.6 717.63,18.45 720.13,18.24ZM717.63,48.58C718.88,48.16 720.13,48.16 720.65,49.62C716.06,50.56 711.89,51.91 710.33,57.23C713.04,58.17 713.14,55.67 714.6,54.52C717.27,56.36 720.04,55.27 720.23,55.46C716.25,56.12 713.14,57.76 713.14,61.51C711.18,61.41 709.53,61.4 708.08,60.49C708.08,60.41 708.07,60.38 708.04,60.38C708.69,51.39 711.81,50.54 717.63,48.58ZM720.03,52.02C720.03,52.31 718.65,53.79 716.59,53.27C717.63,52.12 718.67,51.39 720.03,52.02ZM692.92,37.22C692.5,37.01 692.19,36.8 692.19,36.18C693.24,36.07 693.24,36.49 692.92,37.22ZM687.71,31.9C688.02,32.84 688.54,33.57 688.13,35.03C687.09,33.78 685.94,33.15 684.48,33.47C685.63,33.15 686.25,31.48 687.71,31.9ZM687.61,48.89C686.05,48.06 685.53,47.22 685.53,45.66C686.56,46.49 687.29,47.22 687.61,48.89ZM684.37,33.46C683.74,35.65 682.49,37.11 679.26,37.63C680.93,35.03 682.71,34.3 684.37,33.46ZM666.13,43.99C670.3,42.94 674.99,43.26 678.22,38.57C678.64,42.64 676.34,43.78 673.74,44.93C675.72,46.08 677.6,45.03 679.27,46.18C679.37,49.83 682.5,51.08 685.42,52.64C691.67,47.32 699.42,56.19 707.42,51.39C706.48,53.94 702.69,64.16 702.21,68.38C701.49,74.66 696.37,72.11 695.12,82.35C697.2,75.68 705.02,73.8 707.73,68.07C706.79,66.3 705.33,68.28 704.6,66.82C706.49,64.05 707.4,62.37 707.8,61.41C707.87,61.98 708.21,62.69 709.18,63.27C710.85,62.64 712.83,63.37 714.6,64.21C715.85,62.44 715.43,60.46 716.58,59.1C719.6,57.43 723.77,57.64 725.23,53.37C726.9,55.98 722.73,58.69 726.27,60.56C704.42,86.78 723.17,66.6 733.98,72.76C745.71,64.38 738.19,69.6 739.71,71.4C742.52,71.3 745.44,71.5 747.84,69.63C751.49,69.32 752.74,74.32 756.49,72.86C757.64,74.84 758.57,76.51 759.62,78.39C756.08,81.52 753.99,85.79 750.03,88.5C748.05,81.62 742.32,76.82 737.52,78.39C741.06,81.1 745.13,83.29 745.96,88.19C738.45,90.69 736.37,98.72 730.95,103.41C729.7,100.91 728.66,98.82 727.72,96.84C728.14,95.17 730.12,96.63 730.43,94.86C728.61,92.58 723,96.24 726.36,100.8C724.69,102.16 723.23,103.3 721.77,104.55C719.37,102.88 718.85,98.92 715.2,99.23C714.05,101.31 717.32,101.86 716.35,103.5C714.67,106.34 713.1,100.92 707.28,105.9C703.01,109.55 697.57,107.88 695.71,102.56C693.27,95.58 692.49,91.37 689.14,88.7C680.7,89.43 672.36,87.87 663.6,89.95C672.15,69.73 662.04,54.92 650.99,40.54C656.55,35.02 656.82,46.34 666.13,43.99ZM724.2,68.28C723.68,69.32 722.95,69.64 721.8,69.64C722.32,68.49 722.74,67.45 724.2,68.28ZM478.07,73.7C481.61,89.65 487.77,105.18 487.56,121.97C489.96,105.08 483.39,89.44 480.16,73.6C485.37,69.81 482.64,75.99 485.27,80.38C486.21,78.3 485.52,76.63 485.58,75.06C485.82,69.54 489.63,66.26 494.96,67.45C501.65,68.94 495.82,61.84 515.5,54.63C525.5,50.97 547.7,39.63 572.31,33.88C571.27,35.55 568.97,35.03 568.56,36.9C570.24,39.15 589.6,28.83 594.62,27.73C626.42,20.74 627.36,32.11 651.54,32.11C654.8,32.11 654.89,32.73 652.58,34.92C647.39,39.85 647.48,41.27 652.06,46.6C673.61,71.68 661.62,89.45 659.46,94.24C658.73,91.63 658.64,89.88 659.77,88.51C663.31,84.2 665.65,51.45 628.6,42.85C618.05,40.4 573.45,65.76 570.85,83.51C570.33,87.05 569.91,90.6 569.39,93.83C568.14,94.77 566.58,93.73 565.95,95.6C570.94,97.43 572,110.23 581.07,115.09C586.09,117.78 591.08,121.03 597.54,119.78C597.75,122.07 597.33,123.95 596.39,125.83C585.92,127.58 579.84,123.47 575.44,124.47C552.96,129.62 553.1,139.97 536.66,140.84C530.2,141.18 523.63,138.86 516.33,142.3C518.83,125.41 523.11,110.4 532.7,97.37C520.5,109.88 517.69,126.04 514.98,142.93C508.2,143.87 503.41,150.02 496.01,149.91C489.67,155.39 480.89,149.44 483.19,147.93C487.32,145.21 484.16,143.37 471.41,75.58C474.21,76.2 475.15,72.66 478.07,73.7ZM481.41,141.46C480.78,138.85 480.16,136.25 479.53,133.75C480.88,136.04 481.93,138.54 481.41,141.46ZM465.04,75.27C472.23,72.19 468,76.22 476.3,113.84C468.79,103.1 464.31,87.36 465.04,75.27ZM307.94,150.53C309.19,149.59 310.86,149.48 312.32,148.97C324.06,144.87 321.57,142.71 331.92,137.4C347,129.66 366.38,121.81 376.33,103.31C396.23,66.32 453.47,70.14 451.91,80.69C451.62,82.67 452.54,84.86 453.06,87.67C455.35,85.48 458.79,87.77 460.25,84.44C460.15,83.71 459.31,83.92 458.89,83.5C459.2,82.25 461.08,82.25 460.97,80.58C459.09,79.95 457.84,82.25 455.65,81.62C463.71,76.69 459.4,78.61 459.82,77.14C460.45,76.83 460.97,76.2 461.59,76.51C464.61,84.64 463.24,93.3 466.28,101.74C469.54,110.79 469.52,111.57 482.23,156.37C479.1,157.73 475.45,157.73 473.58,160.96C474.52,165.65 464.2,178.16 457.63,179.93C457.42,169.51 461.28,161.48 470.35,156.16C473.58,157.31 476.81,157.2 479.84,154.91C478.69,151.68 476.19,154.49 474.63,153.35C474.94,151.89 477.01,151.48 476.51,149.28C476.29,148.34 475.26,147.72 473.8,147.61C471.41,159.95 457.68,148.83 454.31,180.34C442.98,181.39 438.3,188.98 431.79,189.83C405.98,193.19 398.22,193.25 388.74,199.11C382.69,202.85 376.33,202.76 369.77,202.34C368.83,201.61 370.4,200.26 368.21,199.42C350.89,200.68 350.72,210.9 339.12,207.24C327.82,203.67 326.57,213.47 323.27,212.87C313.73,199.86 312.9,193.3 307.94,150.53ZM83.49,211.73C85.68,209.02 86.77,205.67 85.47,202.03C84.09,198.18 88.25,197.34 92.35,198.59C88.35,207.38 87.06,208.26 89.01,211.41C93.91,219.33 98.04,227.76 106.73,232.57C107.47,232.98 108.29,233.3 108.71,234.34C105.43,239.74 101.6,236.91 95.16,234.55C87.04,231.58 78.05,218.46 83.49,211.73ZM52.43,247.9C43.78,241.68 50.12,237.07 44.61,227.57C40.57,220.6 48.43,218.55 44.92,210.26C43.56,207.05 45.31,204.66 49.82,205.46C61.85,207.61 68.95,198.01 81.72,199.31C81.51,202.12 80.89,204.84 81.82,207.23C76.19,215.78 76.28,219.43 81.82,227.77C85.3,233.01 101.07,243.52 112.57,241.11C113.91,241.11 112.5,243.66 111.74,244.76C104.55,241.32 96.83,241.76 89.54,239.96C88.29,239.65 87.35,240.48 87.25,242.04C88.4,244.54 91.42,244.02 93.61,245.48C89.54,245.9 85.37,242.87 81.83,246.21C82.25,248.92 84.33,248.92 84.85,249.23C87.04,254.96 87.56,260.59 94.02,262.89C90.37,266.23 94.23,267.69 95.38,269.77C94.75,270.81 93.3,271.23 93.92,273.11C97.93,277.67 106.41,273.02 107.89,281.03C105.28,279.88 102.78,278.84 99.45,277.38C99.45,281.03 101.64,281.99 103.93,282.38C117.56,284.72 110.01,285.71 123.32,288.53C130.1,300.28 125.62,296.34 112.48,305.52C102.9,312.22 86.5,309.22 82.56,304.06C77.17,297 62.54,282.18 62.02,274.56C61.39,265.32 60.81,253.93 52.43,247.9ZM107.99,260.62C108.51,264.69 106.74,268.23 105.8,272.09C104.76,271.78 97.46,266.67 95.9,265.11C100.48,262.7 106.1,268.82 107.99,260.62ZM96.94,252.07C104.86,253.11 105.91,253.53 107.16,256.03C103.72,254.57 100.17,254.26 96.94,252.07ZM100.48,246.49C103.11,246.68 106.76,247.17 108.41,248.32C105.63,248.32 103.05,247.81 100.48,246.49ZM99.78,246.44C96.16,246.43 97.27,246.29 99.78,246.44Z" style="fill-rule:nonzero;"/>
        <path d="M640.28,278.44C641.12,270.31 639.23,262.39 638.72,254.36C638.51,251.02 636.64,247.9 635.49,244.87C634.13,246.85 634.24,248.73 634.86,250.5C641.2,268.37 634.96,282.54 640.18,294.91C642.78,301.09 643.95,308.86 646.02,310.03C648.31,309.61 647.9,307.84 647.69,306.38C645,287.79 639.13,289.51 640.28,278.44Z" style="fill-rule:nonzero;"/>
        <path d="M632.36,196.51C630.28,199.32 630.38,199.32 637.26,205.89C637.05,208.81 638.24,211.73 638.09,214.96C637.85,220.16 644.52,225.45 644.45,231.43C644.44,232.06 644.76,232.89 646.22,232.99C646.71,222.95 640.8,218.62 639.86,207.87C642.78,208.08 644.34,209.54 646.32,210.58C642.36,205.16 636.84,201.51 632.36,196.51Z" style="fill-rule:nonzero;"/>
        <path d="M541.66,533.85C549.43,529.66 544.59,503.23 549.69,477.76C541.18,495.07 546.7,518.73 541.66,533.85Z" style="fill-rule:nonzero;"/>
        <path d="M572.93,481.73C594.12,467.1 602.97,467.91 608.69,464.32C608.27,463.8 607.96,463.28 607.86,462.55C589.83,466.82 575.23,476.83 561.89,489.13C566.16,487.57 569.29,484.24 572.93,481.73Z" style="fill-rule:nonzero;"/>
        <path d="M626.93,277.4C627.97,277.71 628.29,277.19 628.29,276.88C624.24,244.04 623.16,260.95 623.39,241.12C623.42,238.93 623.7,236.53 621.51,234.87C621.3,241.54 618.92,248.41 621.82,254.78C625.12,262.01 625.33,268.87 626.93,277.4Z" style="fill-rule:nonzero;"/>
        <path d="M636.32,158.04C622.98,146.68 621.63,133.75 619.33,132.6C616.06,134.78 621.76,145.73 626.42,149.8C630.26,153.16 632.88,157.51 634.66,162.31C637.78,161.37 638.4,159.81 636.32,158.04Z" style="fill-rule:nonzero;"/>
        <path d="M623.91,205.16C625.58,204.33 625.48,202.86 624.54,201.93C621.86,199.3 622.4,196.1 622.56,193.07C622.81,188.33 618.14,176.32 619.75,196.72C617.77,196.09 617.04,194.32 615.68,192.97C615.05,197.87 615.06,197.76 619.33,200.37C621.2,201.51 621.62,204.32 623.91,205.16Z" style="fill-rule:nonzero;"/>
        <path d="M272.28,495.18C259.35,495.81 247.47,492.68 235.27,492.05C239.86,495.7 268.22,498.2 272.28,495.18Z" style="fill-rule:nonzero;"/>
        <path d="M191.7,199.32C202.02,198.07 211.85,196.42 221.62,194.11C223.71,193.62 225.79,193.17 227.15,190.15C205.05,197.86 193.54,194.43 191.7,199.32Z" style="fill-rule:nonzero;"/>
        <path d="M610.88,53.06C609.63,61.3 603.06,66.72 599.52,73.81C605.67,72.76 612.97,59.73 610.88,53.06Z" style="fill-rule:nonzero;"/>
        <path d="M627.56,216.21C621.51,221.74 624.22,231.85 632.67,234.14C627.98,228.51 626.62,222.67 627.56,216.21Z" style="fill-rule:nonzero;"/>
        <path d="M600.98,499.24C586.73,506.86 575.74,523.24 572.1,533.64C576.11,530.38 582.49,512.44 600.98,499.24Z" style="fill-rule:nonzero;"/>
        <path d="M606.71,79.23C609.42,86.32 607.86,93.62 607.75,100.81C611.61,96.53 610.98,83.4 606.71,79.23Z" style="fill-rule:nonzero;"/>
        <path d="M561.68,503.62C559.39,513.21 556.15,522.49 553.55,532.08C558.55,523.22 560.74,513.63 561.68,503.62Z" style="fill-rule:nonzero;"/>
        <path d="M148.33,467.34C156.46,468.49 164.18,470.57 172.2,468.38C162.16,470.97 151.04,462.61 148.33,467.34Z" style="fill-rule:nonzero;"/>
        <path d="M104.97,200.78C110.7,198.7 117.48,200.88 122.59,196.3C116.62,198.61 105.84,196.67 104.45,200.05C104.65,200.36 104.86,200.78 104.97,200.78Z" style="fill-rule:nonzero;"/>
        <path d="M296.26,492.78C290.63,491.53 285.42,493.93 280,494.03C285.52,494.86 290.95,494.86 296.26,492.78Z" style="fill-rule:nonzero;"/>
        <path d="M248.83,181.6C246.75,180.35 242.99,181.7 233.71,187.33C238.93,186.08 244.03,184.41 248.83,181.6Z" style="fill-rule:nonzero;"/>
        <path d="M575.54,468.59C579.71,466.4 583.25,463.17 585.86,459.1C581.59,461.4 578.56,465.05 575.54,468.59Z" style="fill-rule:nonzero;"/>
        <path d="M616.41,136.36C612.76,138.55 612.45,142.61 610.78,145.85C614.01,143.44 615.26,139.9 616.41,136.36Z" style="fill-rule:nonzero;"/>
        <path d="M302.1,521.76C301.58,517.69 297.83,518.01 295.53,516.65C296.89,519.36 298.97,521.34 302.1,521.76Z" style="fill-rule:nonzero;"/>
        <path d="M329.93,501.12C332.43,502.48 335.04,503.62 338.06,501.85C335.35,498.2 332.54,500.49 329.93,501.12Z" style="fill-rule:nonzero;"/>
        <path d="M289.8,176.91C286.36,174.93 284.38,177.01 282.19,178.79C284.9,179.1 287.61,179.93 289.8,176.91Z" style="fill-rule:nonzero;"/>
        <path d="M262.38,206.1C260.61,202.66 257.58,203.6 254.87,203.6C257.06,205.26 259.25,206.83 262.38,206.1Z" style="fill-rule:nonzero;"/>
        <path d="M566.26,478.08C567.51,474.95 567.41,471.51 568.14,468.28C565.74,471.2 565.74,474.64 566.26,478.08Z" style="fill-rule:nonzero;"/>
        <path d="M273.22,181.81C269.99,179.83 268.01,181.6 265.61,182.96C268.53,184.21 270.93,184.93 273.22,181.81Z" style="fill-rule:nonzero;"/>
        <path d="M312.94,499.97C316.38,502.78 316.38,502.78 319.92,501.53C318.15,498.2 315.23,499.97 312.94,499.97Z" style="fill-rule:nonzero;"/>
        <path d="M678.95,322.33C677.39,320.56 675.82,320.98 674.57,321.08C673.11,321.19 672.07,319.72 670.4,320.25C672.7,323.06 675.31,323.17 678.95,322.33Z" style="fill-rule:nonzero;"/>
        <path d="M633.81,231.53C632.14,235.39 632.25,236.12 634.85,238.93C633.08,236.75 635.38,233.93 633.81,231.53Z" style="fill-rule:nonzero;"/>
        <path d="M320.76,501.95C323.05,502.47 324.83,503.93 326.81,501.85C324.93,499.14 323.16,500.18 320.76,501.95Z" style="fill-rule:nonzero;"/>
        <path d="M279.58,180.45C277.18,178.05 275.93,180.35 273.85,181.49C276.35,182.85 278.02,182.43 279.58,180.45Z" style="fill-rule:nonzero;"/>
        <path d="M190.97,197.76C188.26,196.4 186.59,197.34 184.4,199.22C187.22,200.15 188.89,199.32 190.97,197.76Z" style="fill-rule:nonzero;"/>
        <path d="M182.63,199.01C180.34,197.65 180.34,197.65 177,199.64C180.13,200.47 180.13,200.47 182.63,199.01Z" style="fill-rule:nonzero;"/>
        <path d="M226.62,489.96C224.54,487.77 222.66,487.98 220.68,489.02C222.35,490.69 224.12,490.8 226.62,489.96Z" style="fill-rule:nonzero;"/>
        <path d="M227.98,490.8C230.17,492.36 232.05,492.05 234.03,491.63C232.05,489.34 232.05,489.34 227.98,490.8Z" style="fill-rule:nonzero;"/>
        <path d="M604.83,160.23C607.85,159.08 607.64,157.1 607.75,155.23C605.46,156.06 605.88,158.04 604.83,160.23Z" style="fill-rule:nonzero;"/>
        <path d="M308.25,484.44C306.79,481.63 305.12,481.73 302.62,481.52C304.29,483.71 305.96,483.71 308.25,484.44Z" style="fill-rule:nonzero;"/>
        <path d="M243.2,167.63C242.26,166.38 241.12,167.21 239.45,167.21C240.97,168.94 242.66,168.71 243.2,167.63Z" style="fill-rule:nonzero;"/>
        <path d="M251.44,168.78C253.63,169.93 254.88,169.93 256.76,169.09C254.88,167.32 253.62,167.94 251.44,168.78Z" style="fill-rule:nonzero;"/>
        <path d="M291.78,477.04C292.61,478.5 293.97,478.6 295.85,478.92C294.7,476.83 293.13,477.14 291.78,477.04Z" style="fill-rule:nonzero;"/>
        <path d="M632.77,286.68C631.62,288.24 632.56,289.18 632.98,290.33C633.81,289.18 633.29,288.14 632.77,286.68Z" style="fill-rule:nonzero;"/>
        <path d="M610.25,146.88C607.96,147.71 608.48,149.28 607.64,151.15C609.63,150.01 610.15,148.87 610.25,146.88Z" style="fill-rule:nonzero;"/>
        <path d="M100.8,216.1C102.88,217.14 103.61,215.89 104.76,214.95C103.09,214.44 102.15,215.17 100.8,216.1Z" style="fill-rule:nonzero;"/>
        <path d="M616.61,132.39C618.38,131.85 617.34,131.02 617.34,128.53C615.78,129.79 615.68,131.04 616.61,132.39Z" style="fill-rule:nonzero;"/>
        <path d="M126.76,194.94C125.09,194.63 123.84,195.46 122.59,196.3C124.15,196.61 125.4,195.67 126.76,194.94Z" style="fill-rule:nonzero;"/>
        <path d="M630.06,281.47C631,280.22 630.37,279.49 629.54,278.66C628.29,280.22 629.12,280.74 630.06,281.47Z" style="fill-rule:nonzero;"/>
        <path d="M152.82,504.04C151.57,504.77 151.67,505.6 152.61,506.85C154.38,505.81 154.59,504.97 152.82,504.04Z" style="fill-rule:nonzero;"/>
        <path d="M619.01,226.32C620.37,224.96 619.64,224.34 619.11,223.51C617.55,224.86 618.91,225.28 619.01,226.32Z" style="fill-rule:nonzero;"/>
        <path d="M620.47,233.2C621.72,232.68 621.51,232.05 620.26,231.32C619.64,232.16 619.64,232.78 620.47,233.2Z" style="fill-rule:nonzero;"/>
        <path d="M617.55,124.47C617.97,123.64 617.65,123.11 616.72,123.01C615.49,124.49 617.16,125.26 617.55,124.47Z" style="fill-rule:nonzero;"/>
        <path d="M621.1,184C621.73,183.17 621.83,182.54 620.47,181.92C619.64,183.16 620.26,183.58 621.1,184Z" style="fill-rule:nonzero;"/>
        <path d="M619.12,177.53C619.12,179.33 620.37,179.02 620.37,178.36C620.47,177.64 620.05,177.43 619.12,177.53Z" style="fill-rule:nonzero;"/>
        <path d="M646.95,311.7C647.76,312.51 648.3,311.94 647.89,311.39C647.58,311.08 646.95,310.92 646.95,311.7Z" style="fill-rule:nonzero;"/>
        <path d="M650.29,316.91C649.98,318.27 650.6,318.37 651.33,318.47C651.85,317.43 651.33,317.12 650.29,316.91Z" style="fill-rule:nonzero;"/>
        <path d="M501.52,446.7C500.23,441.79 475.64,445.83 473.37,448.06C464.33,456.97 449.18,456.13 446.79,459.32C447.83,460.05 448.66,459.93 449.5,459.74C456.05,458.19 463.45,457.73 468.58,453.49C480.4,443.7 498.54,448.38 501.52,446.7Z" style="fill-rule:nonzero;"/>
        <path d="M520.71,478.91C507.57,477.66 495.79,474.64 485.58,466.5C489.54,475.06 512.99,483.81 520.71,478.91Z" style="fill-rule:nonzero;"/>
        <path d="M526.75,535.83C530.5,532.91 530.61,532.6 527.27,529.68C526.96,533.33 522.16,532.81 521.43,536.14C524.14,539.48 527.89,540.31 531.23,538.22C530.61,535.94 528.21,537.08 526.75,535.83Z" style="fill-rule:nonzero;"/>
        <path d="M524.67,479.33C526.55,476.1 525.71,472.87 525.61,469.74C523.73,469.11 524.36,470.89 523.63,471.41C521.72,470.01 518.43,466.81 513.52,465.26C517.47,469.74 524.04,472.14 524.67,479.33Z" style="fill-rule:nonzero;"/>
        <path d="M529.57,522.7C529.88,521.34 532.28,519.89 529.15,518.43C528.52,520.31 526.13,520.51 525.5,522.81C526.13,524.48 528.42,525.21 528.11,527.29C529.99,527.81 530.82,526.87 531.65,526.04C531.76,524.26 530.09,523.95 529.57,522.7Z" style="fill-rule:nonzero;"/>
        <path d="M515.7,523.32C511.11,523.32 507.67,526.86 503.19,527.18C506.84,528.33 513.62,526.35 515.7,523.32Z" style="fill-rule:nonzero;"/>
        <path d="M413.96,532.6C409.89,535.21 405.72,537.6 400.72,538.96C405.1,540.31 411.14,537.5 413.96,532.6Z" style="fill-rule:nonzero;"/>
        <path d="M527.48,466.82C526.54,469.01 529.85,468.36 528.42,470.36C527.25,472.01 529.36,471.92 529.98,472.76C529.77,470.68 531.44,469.63 532.27,468.17C530.61,466.3 528.94,466.51 527.48,466.82Z" style="fill-rule:nonzero;"/>
        <path d="M521.96,494.55C525.09,494.55 522.9,490.28 526.44,491.01C525.08,489.34 524.25,488.4 522.79,486.74C523.1,489.96 519.77,491.84 521.96,494.55Z" style="fill-rule:nonzero;"/>
        <path d="M438.35,477.97C438.76,478.38 437.59,479.02 448.77,472.03C444.81,473.28 441.06,474.74 438.35,477.97Z" style="fill-rule:nonzero;"/>
        <path d="M527.48,504.66C527.69,502.89 527.58,501.32 526.12,500.07C524.67,502.89 524.67,502.89 527.48,504.66Z" style="fill-rule:nonzero;"/>
        <path d="M521.23,526.76C520.08,528.74 520.4,530.41 520.81,532.08C521.75,530.51 522.69,529.06 521.23,526.76Z" style="fill-rule:nonzero;"/>
        <path d="M528.63,474.01C528.11,476.82 529.99,476.62 531.76,476.93C531.34,475.06 529.46,475.16 528.63,474.01Z" style="fill-rule:nonzero;"/>
        <path d="M528.84,483.5C528.63,481.94 528.32,480.69 529.36,479.64C527.17,481 527.17,481 528.84,483.5Z" style="fill-rule:nonzero;"/>
        <path d="M528.63,506.96C526.55,506.44 525.29,506.86 524.77,509.36C526.54,508.94 527.59,508.21 528.63,506.96Z" style="fill-rule:nonzero;"/>
        <path d="M433.87,481.31C434.11,481.43 427.51,485.43 419.17,494.97C408.18,507.54 396,508.19 385.71,511.65C374.05,515.57 372.23,522.87 363.4,538.75C370.02,539.11 371.06,533.89 373.62,527.28C378.47,514.71 386.98,514.66 399.47,510.39C416,504.75 418.19,496.59 429.28,486.52C430.53,485.39 433.87,482.87 434.34,481.69C440.96,478.34 438.37,475.58 433.87,481.31Z" style="fill-rule:nonzero;"/>
        <path d="M529.88,511.96C528.42,511.02 527.48,511.44 526.54,513C528.42,513.84 529.05,513 529.88,511.96Z" style="fill-rule:nonzero;"/>
        <path d="M528.32,485.48C527.38,486 526.86,486.11 527.17,486.84C527.8,486.84 528.11,486.42 528.32,485.48Z" style="fill-rule:nonzero;"/>
        <path d="M635.17,465.26C639.2,464.19 637.05,459.04 633.29,460.15C624.87,462.65 625.07,469.38 623.39,478.5C622.79,481.74 624.54,484.34 626.31,488.2C630.67,471.08 628.06,467.14 635.17,465.26Z" style="fill-rule:nonzero;"/>
        <path d="M639.34,512.69C639.85,508.52 638.17,504.66 637.78,500.7C636.31,486.06 640.11,486.79 638.2,483.81C631.94,491.93 637.07,500.61 636.84,509.25C636.65,516.76 638.61,524.16 637.57,531.56C637.47,532.08 637.67,532.71 637.78,534.27C642.67,526.81 637.82,525.11 639.34,512.69Z" style="fill-rule:nonzero;"/>
        <path d="M697.3,489.96C701.89,496.11 707.31,501.43 712.83,506.85C721.17,502.68 699.52,491.61 697.3,489.96Z" style="fill-rule:nonzero;"/>
        <path d="M653,484.54C649.66,478.91 649.56,472.13 647.16,465.36C642.36,472.45 644.66,479.23 653,484.54Z" style="fill-rule:nonzero;"/>
        <path d="M700.85,472.55C703.35,466.82 704.6,461.19 708.67,457.02C700.95,459.11 696.68,467.03 700.85,472.55Z" style="fill-rule:nonzero;"/>
        <path d="M701.89,451.29C697.2,454.83 698.87,461.51 694.8,465.26C701.58,462.13 705.02,455.25 701.89,451.29Z" style="fill-rule:nonzero;"/>
        <path d="M664.46,456.5C671.97,452.23 672.07,452.12 670.3,448.16C666.55,449.31 664.78,451.7 664.46,456.5Z" style="fill-rule:nonzero;"/>
        <path d="M648.83,564.81C649.14,570.86 652.06,575.44 654.67,580.13C657.59,579.19 657.25,577.85 656.13,576.38C654.64,574.42 653.18,572.34 651.54,570.65C649.95,569.01 651.75,566.17 648.83,564.81Z" style="fill-rule:nonzero;"/>
        <path d="M630.69,481.52C629.02,487.57 631.84,493.4 631.63,499.45C633.29,496.43 632.98,489.13 630.69,481.52Z" style="fill-rule:nonzero;"/>
        <path d="M663.32,456.92C659.78,462.45 659.15,465.26 660.3,468.18C663.42,466.3 663.84,464.63 663.32,456.92Z" style="fill-rule:nonzero;"/>
        <path d="M639.34,477.77C643.72,474.02 644.76,468.7 641.95,464.63C640.7,469.01 641.01,473.39 639.34,477.77Z" style="fill-rule:nonzero;"/>
        <path d="M634.23,516.65C636.94,511.75 636,505.81 631.83,501.95C633.19,506.75 634.54,511.54 634.23,516.65Z" style="fill-rule:nonzero;"/>
        <path d="M653,486.11C655.61,489.86 653.83,494.14 654.15,499.04C657.79,492.67 657.37,488.82 653,486.11Z" style="fill-rule:nonzero;"/>
        <path d="M728.26,449.83L717.11,449.83C719.19,450.56 727.32,450.66 728.26,449.83Z" style="fill-rule:nonzero;"/>
        <path d="M642.68,548.24C642.16,545.63 642.37,542.92 640.6,540.53C639.44,542.92 639.44,543.02 642.68,548.24Z" style="fill-rule:nonzero;"/>
        <path d="M708.98,455.46C710.65,453.9 712.11,452.44 713.67,450.98C710.12,450.87 709.08,451.7 708.98,455.46Z" style="fill-rule:nonzero;"/>
        <path d="M663.32,480.68C665.2,477.55 662.69,476.41 661.96,474.63C661.23,476.72 661.54,478.6 663.32,480.68Z" style="fill-rule:nonzero;"/>
        <path d="M689.9,468.49C692.61,468.7 692.61,468.7 692.92,465.47C690.84,465.88 690.42,467.13 689.9,468.49Z" style="fill-rule:nonzero;"/>
        <path d="M687.5,584.31C685.52,581.83 683.86,582.43 681.25,582.54C683.2,584.19 684.81,584.85 687.5,584.31Z" style="fill-rule:nonzero;"/>
        <path d="M675.62,582.43C674.26,580.24 672.81,579.72 670.2,580.14C671.97,581.91 673.43,582.53 675.62,582.43Z" style="fill-rule:nonzero;"/>
        <path d="M683.96,471.72C686.88,471.72 687.61,470.68 687.82,468.59C685.21,468.49 685,470.05 683.96,471.72Z" style="fill-rule:nonzero;"/>
        <path d="M679.37,582.43C678.54,581.18 677.81,581.28 676.87,582.43C677.91,583.58 678.64,583.26 679.37,582.43Z" style="fill-rule:nonzero;"/>
        <path d="M645.7,559.81C646.53,558.77 645.91,558.35 645.49,557.73C644.76,558.66 645.59,559.08 645.7,559.81Z" style="fill-rule:nonzero;"/>
        <path d="M102.36,466.4C94.4,477.59 105.93,480.29 108.61,474.64C110.3,471.1 108.72,468.9 102.36,466.4ZM106.32,474.33C104.72,476.52 99.83,474.69 101.84,470.68C103.61,472.97 104.24,471.2 105.07,469.64C107.16,471.2 107.64,472.53 106.32,474.33Z" style="fill-rule:nonzero;"/>
        <path d="M91.83,487.04C90.06,489.23 92.66,490.38 91.93,492.04C91.2,493.19 89.43,490.79 88.49,493.19C90.78,495.17 93.7,496.32 96.83,497.46C103.01,485.12 94.8,492.33 91.83,487.04ZM94.13,493.51C94.23,492.26 94.55,491.32 96.42,491.22C96.32,494.03 96.32,494.03 94.13,493.51Z" style="fill-rule:nonzero;"/>
        <path d="M99.13,477.77C92.74,477.53 91.59,487.35 98.82,487.88C105.37,487.88 105.92,478.02 99.13,477.77ZM99.23,485.58C95.66,485.79 94.56,480.6 98.81,479.85C102.58,480.09 103,485.36 99.23,485.58Z" style="fill-rule:nonzero;"/>
        <path d="M774.86,521.34C766.62,524.05 760.68,531.76 751.51,532.7C755.99,534.68 769.34,528.22 774.86,521.34Z" style="fill-rule:nonzero;"/>
        <path d="M804.78,547.4C805.51,549.9 805.61,552.2 804.47,554.38C806.55,556.26 808.54,556.78 810.72,554.17C807.07,553.24 808.43,548.45 804.78,547.4Z" style="fill-rule:nonzero;"/>
        <path d="M743.9,516.02C747.65,514.66 750.88,513.52 755.05,512.06C749.32,511.12 745.88,512.27 743.9,516.02Z" style="fill-rule:nonzero;"/>
        <path d="M769.23,506.43C765.48,505.6 765.48,505.6 763.08,508.31C765.37,508.52 766.83,507.16 769.23,506.43Z" style="fill-rule:nonzero;"/>
        <path d="M762.04,509.67C760.27,509.57 759.23,509.77 758.6,511.23C760.16,511.96 760.89,511.02 762.04,509.67Z" style="fill-rule:nonzero;"/>
        <path d="M670.72,526.55C673.22,522.48 675.62,518.11 680.52,516.02C675.51,515.61 671.76,519.78 670.72,526.55Z" style="fill-rule:nonzero;"/>
        <path d="M338.27,174.61C348.65,167.09 358.98,162.1 365.27,144.48C368.05,136.7 376.99,125.81 377.26,123.63C361.55,141.05 365,151.02 349.95,163.24C331.57,178.18 330.18,168.67 324.2,203.9C335.69,200.53 324.19,184.81 338.27,174.61Z" style="fill-rule:nonzero;"/>
        <path d="M380.7,105.29C387.85,100.63 396.09,97.29 400.3,89.03C403.04,83.65 423.8,79.4 425.32,77.88C423.01,73.73 405.22,83.18 401.97,85.28C395.96,89.16 404.61,87.5 378.93,104.15C376.93,105.44 379.12,106.32 380.7,105.29Z" style="fill-rule:nonzero;"/>
        <path d="M452.32,102.58C446.35,102.44 435.17,107.43 416.56,101.22C423.44,107.79 445.65,108.83 452.32,102.58Z" style="fill-rule:nonzero;"/>
        <path d="M455.97,101.33C457.12,97.58 454.82,94.87 453.99,91.84C452.11,92.26 453.47,93.3 452.95,94.24C449.41,93.09 445.86,91.22 441.69,91.63C446.9,94.45 453.15,95.07 455.97,101.33Z" style="fill-rule:nonzero;"/>
        <path d="M473.38,144.9C475.15,144.8 475.88,143.86 476.4,142.19C473.06,141.77 474.42,138.02 472.02,135.94C471.81,138.23 469.73,139.07 469.62,141.67C471.08,142.61 472.75,143.24 473.38,144.9Z" style="fill-rule:nonzero;"/>
        <path d="M450.44,152.62C454.51,150.95 458.68,149.28 461.59,145.95C461.17,145.43 460.76,144.91 460.44,144.49C456.7,146.57 454.3,150.64 450.44,152.62Z" style="fill-rule:nonzero;"/>
        <path d="M358.6,193.17C363.29,193.27 368.71,188.17 369.34,182.95C366.11,186.92 363.29,190.67 358.6,193.17Z" style="fill-rule:nonzero;"/>
        <path d="M457.43,116.03C460.97,115.72 458.68,112.17 460.87,111.44C459.51,110.61 458.58,110.08 457.33,109.25C456.91,111.54 456.28,113.73 457.43,116.03Z" style="fill-rule:nonzero;"/>
        <path d="M457.32,90.7C457.22,92.78 457.22,92.78 459.4,93.41C458.25,91.64 459.4,90.18 460.13,88.72C455.67,86.38 452.59,90.7 457.32,90.7Z" style="fill-rule:nonzero;"/>
        <path d="M465.56,124.58C466.19,122.08 464.83,121.04 463.06,119.58C462.85,122.18 463.47,123.53 465.56,124.58Z" style="fill-rule:nonzero;"/>
        <path d="M461.7,96.22C460.55,95.91 459.41,95.49 458.05,95.07C459.2,97.16 459.2,97.16 461.7,96.22Z" style="fill-rule:nonzero;"/>
        <path d="M467.96,151.26C468.38,149.7 468.69,148.03 466.92,146.36C465.87,148.55 467.44,149.91 467.96,151.26Z" style="fill-rule:nonzero;"/>
        <path d="M381.12,119.15C379.45,120.3 377.68,121.34 377.26,123.63C379.14,122.7 380.08,120.82 381.12,119.15Z" style="fill-rule:nonzero;"/>
        <path d="M464.93,128.85C466.7,128.43 467.12,127.08 467.85,125.93C466.29,126.14 464.73,126.35 464.93,128.85Z" style="fill-rule:nonzero;"/>
        <path d="M460.03,100.6C458.26,101.96 458.99,102.79 460.55,103.62C460.87,102.48 460.35,101.54 460.03,100.6Z" style="fill-rule:nonzero;"/>
        <path d="M471.29,129.68C469.1,129.99 468.06,130.2 468.16,132.08C469.73,132.29 470.15,131.04 471.29,129.68Z" style="fill-rule:nonzero;"/>
        <path d="M497.35,95.39C514.22,67.91 552.74,50.76 554.48,40.76C529.6,64.51 515.82,63.7 496.62,94.13C495.49,95.92 494.22,97.67 493.7,100.07C494.96,98.51 496.33,97.06 497.35,95.39Z" style="fill-rule:nonzero;"/>
        <path d="M478.9,92.68C476.29,109.53 486.71,128.69 488.18,146.37C493.46,141.09 481.18,115.42 478.9,92.68Z" style="fill-rule:nonzero;"/>
        <path d="M499.13,141.57C499.55,133.02 500.17,124.47 497.88,115.72C497.88,144.21 497.46,141.99 499.13,141.57Z" style="fill-rule:nonzero;"/>
        <path d="M540.83,90.28C543.46,95.11 550.1,90.34 553.13,95.08C557.41,90.36 546.52,88.74 540.83,90.28Z" style="fill-rule:nonzero;"/>
        <path d="M632.15,42.32C633.61,35.02 631.73,32.52 624.33,32.1C627.56,35.13 631.21,37.63 632.15,42.32Z" style="fill-rule:nonzero;"/>
        <path d="M561.36,106.75C558.13,110.09 558.44,114.88 556.88,118.95C559.8,115.4 560.53,111.02 561.36,106.75Z" style="fill-rule:nonzero;"/>
        <path d="M500.59,75.48C503.82,72.46 505.8,68.81 506.84,64.53C503.71,67.66 502.15,71.62 500.59,75.48Z" style="fill-rule:nonzero;"/>
        <path d="M563.86,94.87C560.94,92.06 558.96,91.53 554.79,92.06C557.3,95.28 560.63,94.87 563.86,94.87Z" style="fill-rule:nonzero;"/>
        <path d="M493.29,78.5C491.93,81.94 492.66,84.96 494.75,87.78C494.23,84.65 493.81,81.63 493.29,78.5Z" style="fill-rule:nonzero;"/>
        <path d="M537.07,88.19C535.4,86.73 534.15,86.21 532.38,87.15C533.32,89.34 534.68,89.44 537.07,88.19Z" style="fill-rule:nonzero;"/>
        <path d="M549.06,103.1C550.42,101.85 551.46,100.39 551.35,98.51C549.69,99.66 549.69,101.54 549.06,103.1Z" style="fill-rule:nonzero;"/>
        <path d="M551.35,98.51L551.45,98.61C551.42,98.37 551.48,98.43 551.35,98.51Z" style="fill-rule:nonzero;"/>
        <path d="M551.44,98.44C552.51,97.61 552.92,96.29 553.02,94.97C551.72,95.77 551.29,97.04 551.44,98.44Z" style="fill-rule:nonzero;"/>
        <path d="M485.78,83.19C486.06,83.47 485.99,83.23 485.99,82.56C485.73,82.56 485.78,82.46 485.78,83.19Z" style="fill-rule:nonzero;"/>
        <path d="M546.04,108C538.85,117.07 532.38,126.66 524.98,135.63C528.11,134.07 530.07,131.24 532.07,128.65C553.68,100.53 546.35,105.19 546.04,108Z" style="fill-rule:nonzero;"/>
        <path d="M68.38,234.97C74,233.12 73.42,221.56 61.4,227.36C62.85,234.24 64.75,236.17 68.38,234.97ZM63.89,231.01C65.35,230.49 66.81,229.86 65.66,227.88C68.06,227.36 69.26,227.89 69.62,229.65C70.18,232.39 65.64,234.51 63.89,231.01Z" style="fill-rule:nonzero;"/>
        <path d="M75.36,241.65C75.49,234.45 65.21,235.09 65.46,241.44C65.71,247.82 75.24,248.2 75.36,241.65ZM67.65,241.75C67.44,238.18 73.38,237.57 73.38,241.33C73.38,244.57 67.85,245.27 67.65,241.75Z" style="fill-rule:nonzero;"/>
        <path d="M73.07,248.11C71.68,250.17 70.05,249.05 68.59,249.47C69.11,251.97 71.51,251.35 72.24,252.6C72.97,254.37 70.05,254.16 70.99,256.14C74.01,256.56 76.41,254.47 79.23,254.06C80.02,250.23 75.65,244.28 73.07,248.11ZM74.84,249.36C76.72,249.67 76.72,250.92 76.72,252.38C74.11,252.07 74.11,252.07 74.84,249.36Z" style="fill-rule:nonzero;"/>
        <path d="M700.12,66.82C693.34,72.03 689.8,80.48 681.88,84.44C686.88,84.44 696.26,75.48 700.12,66.82Z" style="fill-rule:nonzero;"/>
        <path d="M736.92,88.71C739.73,90.07 741.72,90.07 742.86,86.73C739.32,86.94 739,82.35 735.15,81.83C736.08,84.44 738.06,86.11 736.92,88.71Z" style="fill-rule:nonzero;"/>
        <path d="M678.43,64.53C678.22,64.32 678.01,64.11 677.91,63.8C673.95,64.74 671.03,67.24 668.53,70.26C669.66,71.77 667.94,72.49 678.43,64.53Z" style="fill-rule:nonzero;"/>
        <path d="M686.04,58.27C687.29,57.12 688.65,55.98 690.31,54.52C687.09,55.04 687.09,55.04 686.04,58.27Z" style="fill-rule:nonzero;"/>
        <path d="M672.07,46.08C670.71,45.35 669.78,45.45 668.84,46.71C670.61,46.91 670.61,46.91 672.07,46.08Z" style="fill-rule:nonzero;"/>
        <path d="M684.48,59.94C683.12,60.15 682.5,60.88 681.56,62.34C683.75,62.24 684.37,61.51 684.48,59.94Z" style="fill-rule:nonzero;"/>
        <path d="M667.17,46.18C666.23,45.24 665.29,45.35 664.36,46.18C665.19,46.91 666.03,47.02 667.17,46.18Z" style="fill-rule:nonzero;"/>
    </g>
</svg>
