<?xml version="1.0" encoding="UTF-8" standalone="no"?>
<!DOCTYPE svg PUBLIC "-//W3C//DTD SVG 1.1//EN" "http://www.w3.org/Graphics/SVG/1.1/DTD/svg11.dtd">
<svg width="100%" height="100%" viewBox="0 0 900 600" version="1.1" xmlns="http://www.w3.org/2000/svg" xmlns:xlink="http://www.w3.org/1999/xlink" xml:space="preserve" xmlns:serif="http://www.serif.com/" style="fill-rule:evenodd;clip-rule:evenodd;stroke-linejoin:round;stroke-miterlimit:2;">
    <g>
        <path d="M378.41,250.24C376.49,246.64 379.37,245.17 378.92,232.06C378.75,227.13 379.2,222.09 380.26,217.27C381.56,211.3 380.11,205.56 379.85,199.7C379.52,192.18 379.29,193.29 377.18,192.82C377.08,188.81 375.44,185.12 375.54,181.01C375.91,165.66 367.34,171.89 368.45,145.06C369.05,130.63 361,121.69 360.64,120.51C358.76,114.21 364.55,103.57 359,94.21C356.03,89.22 356.37,80.78 344.82,76.85C331.39,72.29 329.17,76.48 325.71,73.77C326.63,69.04 325.92,63.91 328.28,59.18C330.24,55.26 326.18,44.06 326.33,50.55C326.48,57.44 324.25,64.11 323.86,70.89C323.64,74.79 321.85,78.61 320.47,82.4C318.77,87.07 310.65,85.54 305.27,85.69C304.35,86.51 305.37,87.85 303.93,88.36C306.19,89.28 307.94,87.85 309.68,88.36C309.37,90.41 307.32,90.52 306.5,91.85C310.86,93.67 311.43,89.9 318.01,86.61C319.6,91.18 322.14,107.52 319.96,121.13C318.77,128.53 313.69,132.94 305.78,133.46C305.47,130.58 306.19,127.6 304.96,124.21C303.93,127.39 304.14,130.17 303.52,133.04C294.79,130.78 287.82,126.87 284.62,117.43C273.24,83.9 279.59,89.27 271.78,72.85C274.04,72.23 276.09,71.82 277.94,70.28C278.56,73.26 280.92,74.8 281.84,77.47C283.07,71.1 279.99,64.63 282.76,58.26C281.32,57.85 279.47,58.05 279.58,55.69C280.2,55.38 281.33,56.1 282.25,54.77C283.56,44.96 281.08,51.08 280.2,44.91C282.67,45.32 283.59,47.27 285.03,55.39C288.11,51.79 288.52,47.48 290.27,43.68C292.02,39.88 295.1,36.69 296.13,33.1C297.47,31.87 298.6,32.69 299.62,32.38C299.72,30.74 301.57,30.84 302.19,29.81C302.4,28.17 300.75,27.24 300.85,25.8C299.51,25.18 297.97,26.11 297.25,24.67C299.3,22.92 302.39,24.46 304.13,28.06C305.77,28.16 304.85,26.72 305.36,26.11C309.67,24.98 313.88,25.41 318.1,26.32C320.56,26.85 322.62,25.91 325.29,25.29C325.29,30.53 326.63,35.36 328.17,39.98C318.62,44.71 317.38,46.55 319.75,51.59C320.78,50.56 319.65,49.02 320.98,47.99C323.14,48.91 325.19,47.58 327.55,47.17C327.58,47.07 329.97,38.56 329.6,37.82C327.24,33.71 328.37,28.99 327.13,24.77C328.88,21.48 332.57,20.76 335.04,18.4C335.55,17.27 334.32,15.83 335.55,14.8C333.8,12.95 331.85,14.59 330.11,14.18C330.93,12.64 333.4,12.95 333.91,10.79C331.86,8.53 330.01,10.69 328.16,11.51C327.85,9.15 328.88,6.89 327.34,4.63C325.49,5.55 324.77,7.71 322.72,8.33C322.51,7.71 323.13,6.48 321.8,6.48C315.48,6.48 318.79,8.44 307.01,7.92C304.13,7.79 301.26,8.23 298.69,8.02C297.05,8.53 297.15,10.69 295.2,10.79C294.17,10.48 295.61,8.74 293.76,8.32C280.81,18.68 283.67,8.22 277.94,10.79C277.53,12.54 279.28,13.05 279.89,14.39C277.22,15.52 277.32,17.99 276.6,19.83C278.61,20.6 280.01,17.68 281.39,21.89C282.23,21.89 283.28,20.54 284.41,21.67C283.98,24.7 281.63,22.38 281.43,21.98C281.32,21.65 278.69,22.52 276.4,24.14C277,21.76 279.99,21.52 276.61,19.83C273.13,20.41 277.5,20.39 274.86,24.35C271.88,27.53 272.5,31.95 270.96,35.55C267.96,42.51 273.53,48.67 273.12,49.73C271.41,54.16 274.79,57.53 275.48,61.54C276.53,67.6 277.74,68.11 268.49,68.42C257.66,68.79 258.67,72.49 254.31,71.4C248.92,70.05 245.06,68.99 240.54,71.5C234.4,74.91 228.23,75.82 224.1,89.07C217.52,110.21 223.46,101.62 216.19,114.96C213.61,119.69 210.32,128.49 211.16,133.35C213.35,146.08 209.63,162.86 207.67,171.87C204.08,188.4 213.41,215.27 215.68,244.8C175.83,250.98 184.67,312.66 226.47,302.02C230.08,301.1 229.65,298.6 235.82,302.23C232.76,327.33 233.63,329.36 232.53,342.4C231.12,359.24 229.91,363.73 232.63,377.12C232.96,378.76 233.17,380.02 231.81,381.54C230.5,383 230.88,385.24 230.68,387.19C229.53,398.62 231.64,391.6 237.56,393.66C238.18,395.71 237.89,398.07 238.07,400.23C238.43,404.54 239.85,408.65 240.43,412.97C242.38,427.35 225.81,435.73 231.9,477.79C231.96,478.19 242.45,544.76 239.4,549.29C238.78,550.21 238.38,551.65 238.68,552.58C239.64,555.55 238.41,558.24 237.76,561C236.03,568.32 240.47,565.82 236.63,572.09C230.26,582.49 239,583.89 243.2,594.28C245.39,599.68 276.49,600.27 281.31,594.49C279.87,591.92 279.89,588.83 278.43,586.48C274.27,579.77 271.75,572.41 268.67,565.22C267.94,563.53 264.62,560.77 267.44,559.36C266.79,556.27 263.24,556.29 264.46,553.71C265.86,550.76 266.01,547.65 266.31,544.46C266.73,540.04 264.56,537.58 260.04,537.58C256.53,524.82 270.09,481.04 270.83,479.03C274.32,469.41 271.39,432.85 270.52,431.98C268.24,433.46 269.33,430.99 270.31,466.91C270.52,474.73 261.13,502.08 259.83,508.92C258.49,499.57 260.14,490.43 259.21,481.39C254.76,493.11 259.5,496.49 257.67,516.42C257.03,523.4 256.44,530.39 258.39,537.48C255.21,539.02 251.92,538.51 248.84,539.43C247.81,536.76 249.35,533.78 247.3,531.11C245.95,539.21 249.42,540.36 241.75,540.77C241.75,522.53 233.29,468.68 233.22,465.99C232.36,431.86 247.14,425.57 241.13,401.68C240.61,399.63 240.51,397.37 240.21,395.21C241.85,393.26 244.01,393.05 246.37,393.05C279.21,393.05 275.86,390.09 281.09,391C279.34,395.21 279.16,399.54 277.39,403.64C275.26,408.58 275.11,414.11 274.1,419.36C271.95,430.52 267.72,427.71 265.27,434.77C271.68,432.48 277.51,420.13 277.19,411.86C276.97,406.24 279.01,408.15 284.38,392.03C285.72,390.8 287.46,389.98 289.72,389.98C291.67,389.98 295.07,385.98 295.47,383.61C299.74,358.51 298.61,375.26 299.07,385.66C299.38,392.78 303.62,389.12 306.36,391.31C305.2,412.18 316.46,411.68 310.47,441.65C308.72,450.38 308.51,459.01 311.19,467.64C314.06,476.89 314.86,486.65 316.84,496.09C324.97,534.79 319.67,527.55 322.39,533.38C331.54,522.92 309.52,473 312.32,444.11C314.67,419.91 315.98,430.04 312.73,409.29C311.94,404.23 308.46,400.51 308.93,393.47C309.14,392.44 310.57,392.65 310.57,392.03C340.1,398.77 349.74,390.48 346.63,398.4C345.38,401.58 345.21,404.97 345.5,408.26C345.94,413.19 343.55,417.09 342.21,421.51C342.93,422.13 344.28,423.17 343.34,424.18C340.72,427 341.7,430.34 341.49,433.63C344.96,427.85 342.74,417.37 346.73,441.44C350.31,463.09 342.72,498 342.72,529.78C341.18,530.4 341.28,529.16 340.87,528.65C337.58,531.12 333.68,530.5 330.08,531.53C328.92,526.87 330.85,521.25 328.03,521.17L328.03,531.53C326.08,533.07 322.07,532.56 323.82,536.87C320.53,539.13 318.97,542.01 320.02,546.32C321.19,551.1 314.56,556.98 316.22,562.04C317.08,564.68 312.44,566.72 314.37,569.33C325.39,584.25 331.09,576.71 338.51,580.84C339.13,587 343.65,588.24 348.99,588.85C356.56,589.72 371.55,589.79 374.36,583.1C379.09,582.07 379.52,581.35 378.37,576.94C376.75,570.78 373.64,571.04 367.38,562.56C360.62,553.4 350.4,548.26 351.15,535.65C349.81,534.21 348.17,534.83 346.42,534.42C346.21,529.9 345.06,525.38 345.6,520.65C348.45,495.76 346.48,489.31 350.53,467.44C352.27,458.06 349.55,439.75 348.17,430.36C347.31,424.49 344.58,423.16 347.55,420.19C348.93,418.81 347.33,406.33 347.96,405.09C349.58,401.89 350.12,398.31 351.25,394.92C361.18,393.11 365.49,407.44 359.37,338.01C357.53,317.21 361.82,338.81 355.77,303.29C360.8,308.63 366.97,309.35 372.72,310.38C381.25,311.9 387.48,310.98 398.81,300.11C411.11,288.29 404.72,250.58 378.41,250.24ZM322.84,45.2C324.07,44.69 324.79,44.07 325.82,44.69C324.99,45.82 324.17,45.2 322.84,45.2ZM331.57,16.23C330.65,16.95 330.85,18.28 329.52,18.7C327.88,16.73 329.69,15.55 331.57,16.23ZM324.07,9.66C324.89,11 324.17,11.51 323.15,12.02C323.04,11.09 323.45,10.38 324.07,9.66ZM311.13,21.67C311.54,21.77 311.95,21.98 312.26,22.39C311.54,22.6 310.92,22.8 311.13,21.67ZM308.25,21.57C307.63,21.57 307.12,21.47 307.12,20.54C307.94,20.44 308.46,20.54 308.25,21.57ZM309.89,19.11C310.43,19.65 309.74,20.03 309.38,20.03C309.17,19.52 309.48,19.21 309.89,19.11ZM308.87,13.25C307.95,14.07 307.12,14.89 305.99,15.41C306.5,12.84 306.5,12.84 308.87,13.25ZM293.66,30.41C295.1,32.05 293.45,32.36 292.74,33.49C292.74,31.95 292.74,31.13 293.66,30.41ZM291.92,13.97C291.51,15.2 291,15.82 289.56,15.51C290.17,14.59 290.68,13.97 291.92,13.97ZM292.94,20.75C292.43,22.7 290.99,23.83 288.93,25.17C289.55,22.5 291.51,21.88 292.94,20.75ZM287.91,36.67C288.32,38.01 287.4,38.31 286.47,38.83C286.06,37.08 286.78,36.78 287.91,36.67ZM286.68,46.84C286.58,47.35 286.58,47.97 285.76,47.76C285.86,47.25 286.16,46.95 286.68,46.84ZM285.24,36.57C284.42,36.98 283.9,37.29 282.77,37.91C283.49,36.47 283.7,35.34 285.24,36.57ZM279.79,53.62C279.45,53.28 279.58,53.53 279.89,52.9C280.7,53.31 280.04,53.37 279.79,53.62ZM280.31,35.03C280,36.26 279.69,37.5 279.39,38.73C279.08,37.39 278.46,35.95 280.31,35.03ZM276.2,47.97C277.33,48.07 277.84,48.89 278.46,49.72C278.25,50.75 277.02,51.47 276.92,52.7C275.99,51.26 273.94,49.92 276.2,47.97ZM269.42,574.95C269.11,575.57 268.7,575.46 268.29,574.74C268.7,574.54 269.21,574.13 269.42,574.95ZM268.5,572.18C267.68,572.59 267.16,572.08 266.55,571.67C267.47,570.84 268.08,570.74 268.5,572.18ZM242.4,545.06C243.43,543.72 244.87,543.31 246.61,543.62C247.23,551.02 246.82,551.94 242.5,552.76C241.37,551.84 241.88,550.19 240.55,548.96C243.43,548.55 241.79,546.7 242.4,545.06ZM245.69,555.02C251.39,551.58 246.8,549.1 249.39,543.93C262.31,541.89 261.2,540.08 261.2,543.52C263.87,544.75 265.78,534.9 261.2,555.95C257.19,556.16 253.29,556.26 249.9,557.29C249.47,570.16 253.05,564.74 259.25,566.84C261.8,567.71 264.69,565.71 266.95,567.97C262.22,568.18 257.5,566.63 252.77,568.18C253.18,570.23 255.24,569.93 255.95,571.88C256.33,572.55 252.91,574.56 257.08,575.89C274.28,581.35 267.7,568.33 275.67,588.53C276.9,588.02 275.16,586.99 276.29,586.37C277.21,588.84 278.14,591.2 278.14,593.97C271.06,595.49 272.39,594.26 270.54,594.79C261.54,597.4 252.77,596.74 244.45,592.63C243.83,589.24 242.1,586.55 239.62,584.31C235.56,580.65 236.1,574.64 239.41,571.06C240.25,570.15 240.86,569 240.44,567.88C238.65,563.13 241.06,558.43 240.23,553.5C241.79,555.33 243.4,556.41 245.69,555.02ZM263.05,559.95C261.41,560.26 260.17,559.85 259.04,559.23C260.28,559.34 261.72,558.41 263.05,559.95ZM325.92,535.5C329.72,534.27 340.61,532.52 342.36,532.93C342.87,533.14 342.87,533.65 342.77,534.37C338.65,536.43 332.3,533.61 330.55,537.25C330.86,539.41 332.5,540.74 333.32,542.39C332.7,543.62 332.7,545.06 331.68,545.99C329.63,545.07 327.06,547.12 325.31,544.35C324.8,543.22 326.13,541.17 323.46,540.96C324.69,538.89 325.82,537.35 325.92,535.5ZM359.92,559.65C360.95,560.37 361.77,560.88 361.97,562.32C360.02,561.2 355.42,561.57 359.92,559.65ZM348,541.36C348.1,542.59 348.51,543.72 349.03,544.96C340.81,544.04 339.99,544.34 339.58,547.84C338.14,548.66 335.88,546.81 334.75,549.18C335.67,551.44 337.83,550.82 339.48,551.54C338.86,552.36 337.12,552.36 337.43,554.21C339.28,556.37 342.05,554.52 344.31,555.34C343.39,558.73 343.69,558.94 350.58,558.52C343.85,564.46 352.02,561.9 352.12,561.91C355.61,565.3 359.41,564.07 363.52,563.45C366.19,569.41 373.48,572.08 375.23,578.76C372.66,582.97 368.76,584.43 364.34,584.82C359.01,585.29 361.12,587.42 344.93,585.03C339.26,584.19 343.42,581.01 338.66,577.74C334.41,574.82 322.5,579.17 316.47,567.47C320.72,561.26 316.26,559.76 319.45,556.17C322.06,553.23 322.22,549.7 322.43,545.9C325.92,549.7 327.48,550.25 331.47,548.78C334.46,547.68 334.55,544.77 335.07,542.31C334.45,540.87 332.71,540.26 333.02,538.2C343,539.04 348,534.91 348,541.36ZM329.1,77.87C337.45,76.32 353.37,79.93 356.42,93.69C357.19,97.17 359.5,106.73 357.45,110.85C356.94,110.54 356.83,109.72 355.7,110.03C354.88,112.19 355.01,114.94 356.11,116.71C358.33,120.27 357.45,125.54 362.07,127.7C370.04,147.62 361.98,157.01 369.06,166.53C374.12,173.33 371.15,191.39 375.53,196.94C376.2,197.79 376.91,195.23 375.22,249.95C373.27,249.95 371.32,250.77 369.47,249.23C368.75,245.43 367.93,241.53 365.67,238.14C365.67,241.94 368.14,245.23 367.62,249.13C366.1,250.15 364.27,250.22 363.82,247.18C359.69,219.06 351.39,212.97 351.39,190.89C351.39,179.12 353.48,176.81 351.39,174.56C348.62,171.58 348.26,167.33 345.64,164.08C343.62,161.58 343.38,157.71 342.25,154.32C345.43,152.27 344.41,147.85 347.59,145.38C348,149.18 348.41,152.67 350.67,155.55C350.95,153.04 347.66,147.15 349.03,142.2C352.19,130.79 350.09,119.18 348.82,103.16L348,103.16C348.41,107.27 347.18,111.17 347.38,115.18C347.85,124.26 347.45,142.96 340.7,149.08C338.34,145.9 336.5,142.61 335.97,139.22C334.66,130.74 326.96,106.93 327.34,95.77C327.54,94.37 325.37,91.22 324.36,76.56C326.02,77.25 327.26,78.21 329.1,77.87ZM337.22,246.64C337.32,245.92 337.32,245.41 337.32,245C334.5,215.74 338.65,216.74 338.04,210.69C336.94,199.78 340.15,192.72 337.83,190.86C341.12,180.38 338.14,169.7 340.91,158.91C342.86,162.3 343.07,165.79 345.12,168.46C353.52,179.4 344.48,192.15 351.49,211.81C353.66,217.91 362.37,244.05 361.56,250.54C350.47,259.89 350.47,259.89 346.05,269.24C344.92,265.85 343.68,262.67 341.74,259.79C337.38,253.31 342.78,249 337.22,246.64ZM211.17,204.22C208.2,195.08 207.68,183.16 210.25,173.81C210.97,177.3 210.87,180.9 214.15,183.98C214.36,179.15 212.71,174.94 213.23,171.04C212.1,169.7 211.28,170.83 210.35,170.73C217.12,145 215.87,167.65 214.46,131.8C214.16,124.09 219.46,114.36 223.4,107.76C224.12,107.86 223.71,108.99 224.63,108.68C225.86,106.83 223.6,106.01 223.29,104.57C225.71,97.05 224.58,92.23 226.99,88.03C232.98,77.6 240.38,70.75 251.85,74.16C252.47,76.32 249.59,75.19 249.9,77.65C255.7,77.65 256.63,78.08 258.02,76.52C267.48,81.89 269.75,113.42 269.94,123.26C270.28,140.92 253.36,147.91 247.75,147.91C247.13,149.14 248.57,148.94 248.57,149.76C248.57,150.48 247.13,150.07 247.54,151.4C250.93,151.19 254.22,150.68 257.4,149.24C258.84,152.12 260.48,153.14 263.36,152.94C262.23,151.4 260.38,150.78 259.35,148.73C277.35,139.57 274.86,106.73 267.26,88.02C265.39,83.41 264.59,78.36 262.64,73.64C264.69,72.3 266.44,72.92 267.98,73.23C269.38,74.79 271.88,90.1 272.29,93.67C272.94,99.32 276.6,104.25 276.6,110.11C276.6,111.75 276.7,113.71 277.94,115.14C278.56,115.55 278.76,114.01 279.48,115.04C281.74,120.9 285.13,126.34 288.21,131.89C289.24,131.79 288.83,130.86 289.44,130.55C292.32,132.91 295.92,133.82 299.3,135.17C315.34,141.56 326.06,123 323.23,108.87C321.69,101.17 321.38,93.26 320.25,85.45C320.25,84.83 320.15,84.22 321.48,83.91C321.27,88.22 324.42,91.41 324.46,95.62C324.56,105.75 331.6,143.23 339.97,152.22C337.61,153.86 337.61,156.33 337.92,158.69C338.82,165.72 333.55,223.91 333.09,226.28C321,228.19 331.14,227.1 333.19,228.13C330.94,255.62 348.91,244.49 295.08,245.59C251.66,246.48 252.01,245.75 250.09,243.95C251.22,236.86 249.27,229.67 249.88,222.38C257.07,220.84 263.85,223.2 270.63,222.07C244.9,218.17 250.43,225.87 249.88,212.21C248.11,168.62 241.68,177.33 238.89,161.05C244.75,154.27 248.03,146.36 248.85,137.22C251.32,138.66 251.73,142.15 254.71,141.64C257.07,135.17 255.94,129.31 251.94,123.56C251.94,122.12 252.25,120.27 251.32,118.83C252.66,116.16 254.2,113.9 254.3,111.02C252.35,113.49 249.69,115.64 249.37,118.83C247.92,133.43 245.03,149.9 235.3,160.64C233.54,162.58 234.27,164.75 233.96,166.8C235.91,166.9 235.71,164.75 237.14,164.44C238.06,167.11 240.12,169.17 240.12,172.14C240.12,174.5 240.73,176.87 241.46,179.23C247.25,198.15 245.97,227.24 246.19,234.09C246.64,248.39 247.02,240.3 236.74,243.23C226.81,217.66 239.86,204.22 233.97,172.14C233.22,168.04 230.37,164.23 231.71,159.71C231.81,159.61 231.5,159.4 231.3,158.99C228.98,163.09 230.14,163.58 232.12,175.94C236.81,205.26 225.99,220.45 234.79,243.33C226.59,245.2 219.87,255.41 218.87,256.68C219.69,251.75 219.2,247.02 217.84,242.5C216.55,238.21 219.67,230.37 211.17,204.22ZM329.41,252.4C327.56,252.13 328.28,254.56 326.33,254.15C326.23,253.02 326.54,251.99 327.46,250.97C328.59,251.07 329.72,251.18 331.06,251.28C330.55,252.41 330.85,253.54 329.83,254.26C329,253.83 330.23,252.51 329.41,252.4ZM211.59,299.44C206.04,299.22 202.66,295.32 199.06,292.45C195.57,289.67 194.07,285.07 193,280.64C192.46,278.39 193.72,276.43 193.62,274.17C193.25,266.15 199,255.9 200.91,255.58C197.5,263.76 200.72,257.11 204.4,254.24C204.4,251.85 198.55,254.95 215.39,247.67C216.73,249.01 217.01,250.03 216.83,251.27C216.13,255.98 215.69,260.72 214.36,265.24C211.04,276.54 218.27,277.65 217.34,283.22C216.87,286 217.96,288.25 219.09,290.72C220.74,294.31 223.82,296.37 226.69,298.84C221.55,301.7 216.62,299.64 211.59,299.44ZM220.21,261.43C221.68,253.63 231.61,245.51 238.7,245.4C252.5,240.22 287.14,271.01 256.06,298.2C248.7,304.65 212.23,303.86 220.21,261.43ZM299.42,368.78C298.91,368.27 298.08,368.57 297.78,367.75C298.45,363.01 299.49,367.85 299.42,368.78ZM347.39,395.7C347.6,395.19 347.7,394.78 348.31,394.98C348.52,395.7 348.11,395.8 347.39,395.7ZM357.76,390.97C343.72,390.23 328.58,392.53 322.11,391.28C315.33,389.97 308.55,387.99 301.77,386.35C297.65,351.64 300.78,377.98 304.03,382.86C301.32,359.94 294.59,360.95 300.95,359.13C304.24,364.68 306.19,370.74 309.37,376.08C304.82,360.01 299.92,359.65 301.46,351.73C302.95,344.12 303.06,336.1 305.67,328.72C308.75,320.02 305.33,320.9 307.52,315.47C310.97,306.88 309.81,291.2 306.6,289.48C307.52,296.36 308.86,302.83 306.91,309.41C306.91,283.41 306.18,325.98 304.65,328.62C299.63,337.3 293.15,358.81 293.04,374.44C293.01,378.96 290.99,382.86 289.55,387.18C271.16,389.44 252.77,389.44 234.28,390.36C238.71,369.89 231.92,374.66 234.38,356.46C236.49,340.9 236.08,311.55 239.21,302.94C242.81,303.76 246.4,304.89 250.2,303.15C251.41,308.3 244.26,320.56 248.25,322.87C248.04,315.47 251.74,309.31 252.56,302.53C261.81,297.39 269.9,292.05 271.15,280.14C272.26,269.56 271.05,260.11 263.14,252.4C264.37,251.58 264.78,252.91 265.61,252.61C265.3,250.45 265.3,250.45 262.32,250.86C261.4,250.55 261.19,249.52 260.16,249.22C259.13,248.91 258.11,248.6 258,247.27C280.5,248.5 302.99,247.89 325.9,250.25C324.67,251.48 325.49,252.82 324.56,253.74C322.61,254.15 321.99,252.82 321.38,251.48C320.25,251.69 320.66,253.33 319.22,253.23C317.47,253.54 318.4,251.07 316.96,250.76C316.34,251.89 316.55,252.92 316.86,253.84C317.89,255.18 319.63,254.66 320.66,255.89C320.15,262.05 321.58,267.4 326.21,271.71C323.74,266.68 322.51,261.44 323.13,255.79C323.85,255.79 324.36,255.69 324.77,255.69C326.81,255.69 325.42,261.08 334.12,265.04C332.58,261.55 328.88,259.6 328.47,255.79C330.73,255.17 332.58,256.61 334.74,256C333.3,254.46 334.53,253.02 334.95,251.58C335.77,252.5 334.95,253.84 335.98,254.56C338.46,253.94 336.01,254.63 338.24,258.05C341.93,263.72 342.09,266.69 342.55,272.23C344.85,270.21 341.84,262.83 345.32,271.2C341.55,278.13 343.37,294.58 350.56,299.24C353.3,301.01 359.72,358.08 357.76,390.97ZM400.7,284.03C399.5,296.43 394.66,299.69 390.02,304.47C388.53,306 381.21,306.83 377.9,306.83C363.16,306.83 344.99,296.1 346.67,281.66C345.85,279.19 347.7,276.83 348.11,274.37C351.32,243.36 404.39,245.88 400.7,284.03Z" style="fill-rule:nonzero;"/>
        <path d="M328.08,521.02L327.98,521.12C328.1,521.12 328.08,521.18 328.08,521.02Z" style="fill-rule:nonzero;"/>
        <path d="M699.63,280.75C697.16,277.05 693.88,274.48 690.08,273.05C685.2,233.47 688.84,241.01 686.07,232.88C684.83,229.23 686.28,223.54 683.09,220.35C682.07,219.12 682.92,217.26 682.17,208.13C680.64,189.73 676.6,203.25 678.78,177.21C679.27,171.35 681.12,165.41 678.27,159.85C671.97,147.6 681.23,131.51 669.85,117.12C657.35,101.31 652.88,104.63 650.95,103.66C643.55,99.45 634.52,98 629.28,90.41C628.36,89.07 626.81,89.79 625.99,88.36C626.2,85.59 626.09,82.6 630.3,81.99C633.34,81.55 632.52,77.29 636.05,70.69C638.64,65.86 636.59,60.94 639.23,55.18C641.69,49.83 637.49,39.24 637.59,45.73C637.69,52.61 635.64,59.29 635.12,66.07C634.81,70.18 632.72,74.17 631.11,78.09C628.97,83.31 617.74,79.44 615.8,81.38C617.96,84.05 621.24,82.61 624.22,83.54C623.09,89.5 622.78,95.56 624.32,101.93C628.02,99.26 625.96,95.66 626.58,92.68C628.22,93.3 629.25,94.12 628.94,95.97C628.53,98.41 633.61,102.79 631.2,124.94C630.33,132.96 625.34,137.88 616,138.71C615.9,136.04 616.41,133.27 615.49,130.08C614.05,132.75 614.57,135.52 613.64,138.09C589.11,131.81 593.71,114.25 583.13,92.27C576.87,79.26 591.53,89.26 592.17,76.45C592.5,69.97 593.81,63.4 592.89,56.93C592.68,55.49 593.92,54.77 594.43,53.33C592.68,52.92 590.94,52.92 590.83,50.66C593.36,49.22 593.13,53.11 594.12,44.19C593.2,42.65 590.94,42.03 591.35,39.77C593.92,40.08 594.84,42.13 596.28,50.35C599.36,46.45 599.75,42.02 601.62,38.23C603.45,34.52 606.14,31.14 607.48,27.75C609.02,26.62 610.05,27.85 610.66,26.93C611.48,26.21 612.41,25.39 613.43,24.57C614.15,23.54 612.4,22.31 612.61,20.56C611.27,21.79 609.63,20.46 608.09,20.97C609.01,20.46 609.22,19.12 610.45,19.02C611.27,19.33 612.2,19.53 612.61,20.56C614.87,21.28 614.87,21.28 616,23.74C617.64,23.74 616.72,22.4 617.13,21.69C621.44,20.56 625.87,21.02 630.18,21.9C632.55,22.38 634.7,21.39 637.37,20.87C636.75,26.31 639.12,30.94 639.94,35.77C631.52,39.16 629.26,41.21 631.72,47.17C632.64,46.14 631.72,44.6 632.75,43.47C634.91,44.19 637.06,43.16 639.43,42.44C640.93,36.43 641.84,34.02 641.48,33.3C639.79,30.7 640.1,27.5 639.12,19.95C640.76,16.87 644.36,16.15 646.82,13.79C647.33,12.56 646.2,11.22 647.33,9.99C645.69,8.55 643.94,9.68 642.4,9.17C643.02,7.63 645.28,8.04 645.58,5.99C643.53,3.73 641.68,5.89 639.72,6.71C639.62,4.45 640.44,2.19 639.21,0.03C637.26,0.34 636.95,2.5 635.2,2.91C634.07,1.47 632.13,1.3 630.68,1.99C627.01,3.73 624.04,3.22 610.65,3.22C608.7,3.73 608.9,6.2 606.75,5.99C605.83,5.48 607.16,3.83 605.31,3.52C602.84,6.09 599.97,8.25 595.55,8.45C593.91,7.63 592.67,4.85 589.69,6.19C589.07,7.94 591.03,8.35 591.44,9.58C589.74,11.28 584.15,27.93 583.84,28.69C581.88,33.41 581.99,38.14 584.25,42.66C586.94,48.03 583.49,46.57 585.28,50.47C589.78,60.29 587.01,60.65 589.59,65.16C591.51,68.51 590,77.8 586.82,79.95C583.64,82.11 580.14,84.24 576.44,85.29C566.41,88.14 560.61,93.75 551.38,97.41C542.49,100.93 534.12,106.92 532.79,116.41C531.85,123.08 529.03,126.13 530.74,133.67C531.59,137.41 532.5,144.71 530.12,147.74C521.12,159.23 527.17,170.2 524.16,179.48C517.76,199.27 524.84,197.7 521.9,213.89C519.77,225.61 524.46,236.17 523.44,240.19C522.25,244.88 527.52,254.42 530.22,269.57C522.59,268.46 511.84,274.15 509.57,284.26C508.97,286.93 507.31,289.29 506.8,292.07C504.64,303.62 507.5,321.75 520.57,326.48C544.07,335 540.4,320.59 545.22,327.82C544.71,337.89 544.25,348.05 542.96,358.12C540.99,373.53 546.89,379.61 543.37,382.77C542.2,383.82 541.66,391.96 542.55,395.41C544.91,394.49 547.07,393.87 549.54,394.9C548.65,410.42 555.86,413.24 550.05,426.23C536.66,456.23 543.87,476.79 549.54,519.5C550.9,529.74 550.73,541.3 551.7,544.56C553.48,550.56 549.51,550.33 550.26,553.7C551.72,558.57 547.32,563.6 549.44,568.18C551.17,571.92 542.8,577.33 546.97,583.59C554.73,595.23 554.54,599.1 567.93,599.92C573.09,600.24 590.26,599.87 592.99,595.5C573.19,551.15 577.36,562.23 578.92,560.68C579.41,557.57 574.02,558.22 576.45,553.9C578.08,551.01 577.66,547.74 577.89,544.65C578.17,540.74 575.63,538.59 571.62,539C568.17,525.19 582.06,481.09 582.3,480.45C587.54,466.45 578.8,391.07 581.79,463.81C582.25,474.88 575.12,496.88 571.31,509.93C570.08,501.1 571.52,492.06 570.69,483.02C566.41,493.52 570.87,499.5 569.35,516.1C568.66,523.7 567.81,531.3 569.97,538.9C566.58,540.13 563.4,540.13 560.31,540.65C559.69,537.88 560.72,535.21 558.87,531.92C558.66,535.41 558.56,538.19 558.46,540.96C551.75,544.54 553.72,539.54 553.32,535C550.38,500.99 543.75,481.41 546.13,447.68C547.5,428.3 557.21,433.41 551.68,396.52C553.22,394.67 555.07,394.39 557.23,394.36C595.43,393.89 587.77,391.51 592.46,392.2C592.38,392.42 587.41,406.76 585.27,421.27C583.88,430.69 578.78,429.54 576.64,435.96C583.17,433.61 588.41,421 588.35,413.26C588.29,406.03 590.91,409.15 595.54,393.13C596.98,391.79 598.72,391.13 600.88,391.18C602.83,391.23 606.21,387.17 606.53,384.81C607.69,376.31 607.61,374.6 609.51,372.17C610.52,375.36 609.88,381.44 610.13,387.07C610.44,394.1 614.74,390.47 617.42,392.62C617.1,398.46 620.04,411.42 620.09,411.52C628.79,431.48 615.36,447.14 622.25,469.35C623.41,473.11 631.74,514.69 632.42,525.03C632.91,532.47 631.8,532.53 633.45,534.17C640.5,526.41 624.87,476.1 622.97,459.69C621.95,450.89 624.47,436.93 625.44,428.15C627.06,413.42 619.45,402.39 619.89,394.05C623.7,391.51 639.39,398.61 656.46,395.28C660.26,398.37 655.49,398.85 656.46,409.66C656.88,414.28 654.51,418.08 653.28,422.19C653.07,423.22 654.72,423.22 654.41,424.76C652.05,427.43 652.46,431.13 652.87,434.83C655.98,423.44 654.75,425.33 657.7,442.53C661.26,463.29 652.32,514.88 653.9,530.67C652.26,531.39 652.36,530.05 651.85,529.64C648.56,531.9 644.66,531.08 641.17,532.62C640.35,528.92 641.38,525.53 639.94,521.63C638.4,525.74 639.43,529.23 638.91,532.72C637.16,534.06 633.16,533.54 635.01,537.75C631.72,540.11 630.15,543 631.21,547.2C632.41,551.97 625.79,557.62 627.41,562.92C628.31,565.88 622.33,566.96 627.51,572.99C635.6,582.39 643.39,578.52 649.6,581.62C650.7,592.24 670.32,591.02 679.29,588.61C685.37,586.97 684.17,583.74 688.33,583.06C691.94,582.47 688.73,574.1 685.97,571.76C680.8,567.38 677.43,561.5 672.82,556.76C666.75,550.51 662.41,546.52 662.14,536.52C661.01,534.67 658.96,535.7 657.31,534.98C655.93,509.64 657.66,525.35 659.06,485.67C659.66,468.59 663.48,476.61 661.11,446.12C659.4,424.1 655.73,424.37 657.31,422.49C662.05,416.85 656.6,408.67 660.39,402.36C661.62,400.31 660.9,397.53 662.55,395.58C674.14,393.26 674.87,408.81 670.25,334.97C670.25,331.4 672.58,336.65 683.71,333.74C690.39,331.99 696.75,329.42 701.07,323.47C705.48,317.4 709.46,311.14 709.9,303.54C710.85,287.59 701.62,283.4 699.63,280.75ZM636.35,40.27C636.86,40.27 637.48,39.55 637.99,40.37C637.59,41.3 636.97,40.58 636.35,40.27ZM641.39,11.92C643.55,10.69 644.3,12.57 642.01,14.18C641.39,13.35 641.18,12.64 641.39,11.92ZM636.56,5.24C637.28,6.47 636.77,6.99 635.64,7.5C635.84,6.57 635.74,5.75 636.56,5.24ZM626.08,12.43C626.29,12.94 625.67,13.05 624.95,13.05C625.36,12.22 625.88,12.02 626.08,12.43ZM625.46,18.18C624.54,18.59 623.92,18.08 623.2,17.36C624.33,17.16 624.85,17.67 625.46,18.18ZM621.36,8.32C620.74,9.66 619.61,10.17 618.28,11.2C618.48,8.83 619.3,7.91 621.36,8.32ZM606.77,26.09C606.98,27.53 606.15,28.04 605.23,28.35C605.54,27.53 604.92,26.3 606.77,26.09ZM604.1,9.76C604,10.58 603.59,11.1 602.46,10.79C602.76,10.27 602.97,9.35 604.1,9.76ZM605.43,16.33C604.92,18.28 603.38,19.31 601.73,20.23C602.25,18.18 603.79,17.16 605.43,16.33ZM591.77,34.82C591.36,31.74 591.36,31.74 592.8,30.4C592.49,31.84 592.18,33.08 591.77,34.82ZM600.6,32.05C600.5,33.39 599.88,33.9 598.96,34.1C598.55,32.77 599.17,32.26 600.6,32.05ZM599.27,42.43C599.17,43.05 598.86,43.46 598.14,43.97C598.24,42.84 598.45,42.32 599.27,42.43ZM597.21,32.15C596.8,32.46 596.39,33.18 595.57,32.97C595.81,31.06 597.63,31.53 597.21,32.15ZM590.85,15.31C593.01,14.39 593.01,16.75 594.34,17.06C595.16,17.37 595.98,15.83 597.01,16.96C597.01,17.68 596.6,18.19 595.88,18.81C593.72,16.86 591.46,17.78 589.2,19.32C589.92,17.87 590.95,16.74 590.85,15.31ZM589.61,48.38C588.69,46.94 586.6,45.68 588.48,43.76C589.2,43.02 590.45,44.32 591.05,45.4C590.33,46.23 589.41,47.05 589.61,48.38ZM581.19,575.88C580.68,576.39 580.27,576.29 579.75,575.88C580.16,575.57 580.68,575.36 581.19,575.88ZM580.27,573.1C579.35,573.51 578.93,573.1 578.42,572.38C579.44,571.97 580.06,572.07 580.27,573.1ZM560.85,545.16C564.75,544.44 568.55,543.11 572.25,542.9C573.28,543.41 572.15,544.54 573.17,544.75C574.2,544.75 574.4,543.31 575.64,543.52C575.33,547.94 573.59,552.15 573.07,556.57C568.96,557.6 564.95,556.88 561.36,558.73C561.36,571.21 563.69,566.05 570.61,568.08C573.17,568.83 576.05,567.16 578.42,569.11C573.8,569.83 568.97,567.36 564.35,569.52C564.86,571.57 567.02,571.16 567.43,572.91C567.84,573.83 566.2,574.35 566.71,575.79C568.66,577.95 571.64,577.66 574.21,578.26C584.89,580.73 579.61,570.81 587.26,589.66C587.88,589.56 587.57,588.74 588.39,588.84C588.6,591 590.34,592.95 589.52,595.52C578.12,596.44 566.72,600.14 556.03,593.77C555.41,590.48 553.68,587.8 551.2,585.55C547.39,582.09 547.75,575.93 550.89,572.5C551.92,571.38 552.53,570.14 552.02,568.7C550.37,564.08 552.74,559.56 552.02,554.83C553.66,556.47 555.11,557.61 557.26,556.27C563.03,552.64 558.75,551.82 560.85,545.16ZM574.2,560.67C572.76,561.18 571.53,560.88 569.68,560.57C571.53,560.36 572.77,559.95 574.2,560.67ZM554.38,548.96C553.12,545.17 556.39,544.17 558.28,544.65C559,550.51 559.1,552.87 554.38,553.9C553.25,552.98 553.46,551.33 552.74,550.41C552.94,549.27 553.97,549.68 554.38,548.96ZM637.48,536.33C643.54,535.61 648.88,533.66 654.74,534.58C651.04,537.46 646.01,534.79 642.52,537.87C642.52,540.44 644.27,541.67 645.09,543.42C644.47,544.65 644.47,546.09 643.45,547.22C641.6,545.78 638.72,548.45 637.49,546.09C636.57,544.65 637.49,543.32 636.57,542.39C633.37,543.18 637.92,539.03 637.48,536.33ZM673.95,563.04C672.31,562.73 670.87,562.42 669.33,562.12C671.28,560.36 672.61,560.67 673.95,563.04ZM660.6,545.88C653.92,544.44 651.05,545.06 651.46,548.76C650.02,549.79 647.56,547.42 646.43,550.1C647.35,552.46 649.51,551.64 651.16,552.26C650.75,553.39 648.8,553.18 649.21,555.34C650.96,557.19 653.73,555.55 655.99,556.37C655.89,557.09 655.07,557.81 655.68,558.63C657.22,560.68 659.69,559.14 661.74,559.76C661.02,560.89 659.58,561.3 659.69,562.74C661.03,564.9 662.77,562.43 664.31,562.95C666.26,565.42 669.04,565.83 675.3,564.39C678.07,570.25 685.26,573.02 687.01,579.59C684.54,583.7 680.85,585.33 676.74,585.65C670.43,586.14 672.27,588.61 655.99,585.65C650.98,584.74 654.64,577.93 646.95,577.43C638.74,577.43 631.99,575.73 628.15,568.39C632.64,563 627.86,560.64 631.54,556.58C634.03,553.83 634.01,550.42 634.31,546C636.36,550.52 639.45,550.83 642.84,549.6C646.13,548.68 646.13,545.7 646.85,543.03C646.03,541.69 644.38,540.87 644.69,538.82C661.7,540.64 657.6,533.91 660.6,545.88ZM656.38,548.96C654.92,548.96 654.53,549.06 654.74,548.65C654.84,548.65 656.38,548.67 656.38,548.96ZM644.98,104.37C649.4,106.11 654.23,106.72 658.23,109.3C669.45,116.55 674.69,127.07 673.23,140.22C671.35,157.12 681.2,162.85 677.85,171.35C675.3,177.83 676.53,184.29 677.13,190.77C677.34,193.03 677.02,195.7 677.85,197.65C683.65,211.23 679.32,220.98 681.96,223.33C684.09,225.23 683.07,226.54 684.73,236.58C686.92,249.83 683.43,253.23 685.96,261.03C687.33,265.23 686.47,269.35 687.09,273.67C682.67,274.08 678.67,273.57 674.66,272.85C674.42,262.6 669.33,249.37 666.34,243.88C660.89,233.89 663.52,220.28 659.56,207.82C658.42,204.23 659.77,199.81 655.45,197.55C643.93,164.63 661.01,168.17 663.67,144.13C664.09,140.33 662.75,136.43 663.67,132.52C663.88,131.9 663.46,131.39 662.13,131.08C662.05,131.48 658.58,161.55 654.73,155.94C644.84,141.52 642.55,112.73 637.99,101.19C640.77,101.8 642.62,103.44 644.98,104.37ZM648.89,247.98C646.81,229.25 648.75,219.8 651.05,194.56C652.59,198.36 654.56,201.85 655.47,205.76C658.52,218.92 654.49,228.07 663.89,244.8C667.57,251.35 673.9,271.52 672.21,273.77C668.72,274.59 665.22,276.13 661.53,278.6C661.32,275.42 658.29,274.19 657.83,271.41C656.32,262.21 650.46,260.25 651.56,252.82C651.89,250.55 651.25,248.7 648.89,247.98ZM580.57,87.21C580.67,95.53 590.95,127.27 599.68,137.34C600.71,137.85 600.19,136 601.32,136.52C604.3,138.78 608.21,139.59 611.9,140.83C629.91,146.9 644.01,124.41 632.34,96.76C634.29,97.38 634.07,98.72 634.39,99.74C644.46,131.97 643.01,149.16 655.55,159.12C654.32,160.97 653.19,163.02 651.95,164.98C650,164.88 648.46,165.6 647.02,166.93C648.15,167.85 649.38,166.72 650.51,167.65C646.5,187.17 647.74,207.2 645.07,227.03C643.32,227.95 641.37,227.34 639.63,228.06C641.48,229.09 643.43,227.85 645.18,228.88C644.67,235.15 646.1,241.41 646,247.99C617.75,244.81 589.81,248.09 561.66,246.24C563.51,238.64 561.04,230.93 561.87,223.13C569.47,221.9 576.56,223.64 583.65,223.03C576.46,222.21 569.27,220.87 562.08,221.69C561.82,221.27 561.67,221.13 561.61,221.1C561.84,221 562.84,219.25 560.95,199.2C560.23,191.5 554.41,185.4 559.61,184.1C557.66,180.5 560.43,177.83 560.95,174.24C571.47,186.07 562.01,172.02 561.67,171.57C565.45,154.72 559.64,158.15 566.5,154.72C568.45,156.36 570.61,158.01 573.9,158.42C572.36,156.26 570.2,155.75 569.38,153.8C599.09,135.49 571.33,85.23 580.57,87.21ZM640.15,253.22C639.23,253.12 639.84,255.99 637.89,254.86C638.2,253.73 638.3,252.6 639.02,251.68C640.36,252.09 641.59,251.68 642.72,252.6C642.21,253.42 642.62,254.65 641.59,255.27C640.56,254.96 642.21,253.32 640.15,253.22ZM559.72,259.17C559.41,255.57 559.31,252.8 559.82,250.03C559.93,252.81 561.57,255.58 559.72,259.17ZM556.84,251.37C558.77,262.37 553.28,263.54 552.73,265.96C551.94,269.44 549.65,270.79 546.26,270.79C543.99,244.87 553.13,258.61 547.18,211C546.4,204.74 545.05,201.52 556.12,190.46C556.22,194.47 556.66,198.06 556.84,201.76C557.76,221.22 556.35,241.72 559.31,245.42C556.84,246.85 556.41,248.91 556.84,251.37ZM558.8,261.95C557.98,264.21 558.18,266.88 556.44,268.83C556.23,266.16 557.36,264 558.8,261.95ZM562.6,152.44C563.32,153.06 564.55,153.36 563.32,154.91C562.39,154.09 562.08,153.37 562.6,152.44ZM525,186.75C525.41,191.06 525.1,193.02 523.56,195.89C523.66,192.71 523.77,189.84 525,186.75ZM524.59,210.79C524.78,211.01 528.59,219.86 527.47,212.74C524.81,195.96 528.73,191.13 528.19,188.5C527.06,182.97 528.81,177.3 528.29,171.65C531.76,179.46 529.66,179.82 530.86,183.77C531.89,178.74 530.04,166.61 528.09,164.77C526.58,152.71 537.54,150.13 533.95,134.26C532.65,128.5 533.74,122.86 535.08,117.21C537.97,105.03 551.5,104.18 574.32,90.4C583.45,127.85 582.93,140 567.33,151.11C564.56,148.13 566.92,143.92 564.15,140.73C558.24,150.06 562.56,151.91 560.04,165.79C554.76,194.84 548.8,191.2 548.23,197.74C547.31,195.07 548.54,192.5 548.13,189.42C546.49,192.19 546.16,194.76 545.87,197.23C543.75,215.03 543.28,194.13 547.41,230C548.28,237.51 544.08,258.71 542.68,264.21C543.81,267.19 543.91,269.76 543.81,272.22C540.42,274.17 537.75,276.64 535.18,279.72C531.94,264.31 519.39,226.76 524.59,210.79ZM527.05,326.87C497.28,317.1 510.38,275.97 522.74,274.79C520.38,276.13 518.16,277.58 517.09,280.13C515.41,284.16 512.57,287.94 513.08,292.77C513.08,294.93 509.51,294.79 513.29,304.07C511.03,297.19 514.42,291.23 516.17,284.96C518.23,277.56 525,275.92 530.65,271.5C530.96,274.89 531.9,277.04 532.81,279.31C533.96,282.2 532.52,280.54 528.39,304.27C527.37,310.13 529.7,311.61 539.69,324.1C535.37,325.84 531.25,328.25 527.05,326.87ZM532.29,310.23C530.75,308.48 530.24,306.43 531.37,303.96C531.68,306.22 531.98,308.17 532.29,310.23ZM537.94,282.08C539.47,278.38 542.75,276 545.85,273.55C548.2,271.69 551.09,272.43 553.86,272.42C581.51,272.27 578.71,303.75 578.82,304.88C580.67,324.29 554.84,329.56 547.39,325.42C531.59,316.65 531.19,298.47 537.94,282.08ZM610.88,369.4C608.52,368.78 610.06,367.55 609.75,365.8C610.67,367.24 611.19,367.96 610.88,369.4ZM659.16,396.83C659.16,396.32 659.47,396.01 659.98,395.8C660.29,396.62 660.08,396.93 659.16,396.83ZM669.43,392C630.53,391.12 650.7,396.53 613.75,387.48C608.84,354.36 613.32,380.21 616.01,384.91C615.19,376.9 612.62,369.4 610.15,361.69C611.49,361.38 612.2,360.87 613.03,361.07C616.21,366.62 618.17,372.58 621.35,378.02C618.1,364.29 611.14,361.97 614.16,348.13C615.55,341.77 615.78,335.11 618.06,328.92C620.29,322.86 617.06,323.28 619.4,317C622.85,307.74 621.39,291.92 618.58,291.32C619.3,297.89 620.84,304.37 619.09,310.84C618.88,307.96 618.78,305.19 618.68,302.31C618.37,310.01 616.3,317.74 617.55,325.53C618.29,330.16 605.11,347.42 604.91,375.97C604.88,380.49 602.86,384.39 601.42,388.71C583.13,390.66 564.85,391.18 546.36,391.69C550.4,369.26 543.85,377.03 546.36,357.38C548.52,340.46 547.37,333.05 548.83,329.23C560.52,330.4 559.55,333.08 573.18,325.53C580.75,321.34 587.27,298.78 576.16,280.13C571.51,272.33 566.84,271.91 558.49,269.24C559.72,263.28 560.96,257.43 567.02,254.45C567.33,254.96 567.02,256.2 568.15,256.71C569.07,256.09 568.66,254.76 569.38,254.04C570.82,253.53 572.05,253.73 572.98,255.17C574.01,252.7 576.06,254.14 577.91,253.73C576.68,250.44 572.88,253.73 572.05,249.93C570.3,254.24 568.25,249.83 566.4,251.16C566.3,250.24 566.3,249.21 564.96,249C563.21,250.23 564.65,253.21 562.29,254.44C562.19,252.28 561.88,250.43 562.39,248.07C587.35,250.02 612.42,248.89 637.69,251.67C636.56,252.9 637.28,254.14 636.46,254.96C634.61,255.47 633.69,254.55 633.38,252.91C632.15,252.91 632.56,254.66 631.12,254.55C629.27,255.06 630.5,252.08 628.76,252.08C627.51,255.83 629.9,255.95 632.46,257.01C631.9,264.93 634.02,269.42 639.03,274.99C639.03,273.56 633.93,266.62 635.02,257.32C639.77,254.47 636.01,262.09 645.91,266.05C644.57,262.56 640.67,260.71 640.47,256.8C642.52,255.88 644.48,257.93 646.43,256.7C645.51,255.16 646.84,254.03 646.94,252.9C648.17,253.21 646.32,256.08 648.69,255.37C651.05,261.02 654.96,266.16 654.24,273.24C656.09,271.49 655.06,269.95 655.47,268.21C657.83,272.11 657.83,276.22 659.48,279.92C654.45,284.13 655.37,290.5 652.7,295.64C651.81,294.94 651.86,293.69 650.85,293.23C650.79,295.37 652.7,296.9 652.39,299.14C651.27,307.26 654.64,327.73 667.59,332.63C668.81,352.45 672.92,372.07 669.43,392ZM704.56,314.34C699.83,321.72 697.35,328.7 680.11,332.21C676.52,332.94 672.71,334.19 669.84,330.16C668.32,328.03 666.51,331.69 660.39,323.38C656.7,318.37 653.05,305.35 656.9,292.25C662.71,272.45 684.27,273.28 692.03,277.56C703.45,283.86 713.61,300.23 704.56,314.34Z" style="fill-rule:nonzero;"/>
        <path d="M626.08,40.78C625.59,33.92 613.45,36.16 609.75,39.75C611.91,39.96 612.93,38.62 614.58,38.11C616.33,39.14 618.69,39.03 620.85,39.86C617.77,40.58 614.48,40.68 611.71,42.53C627.52,45.4 618.65,40.78 626.08,40.78Z" style="fill-rule:nonzero;"/>
        <path d="M309.48,47.77C309.99,45.61 311.64,45.1 313.69,45.41C312.25,39.76 303.31,39.14 297.66,44.18C301.36,42.33 304.85,42.95 308.65,44.39C305.26,45.31 301.97,44.9 299.4,47.37C301.04,47.47 302.69,47.67 304.43,47.78C306.09,47.87 307.63,47.77 309.48,47.77Z" style="fill-rule:nonzero;"/>
        <path d="M640.98,441.42L640.98,441.31C640.87,441.31 640.8,441.29 640.98,441.42Z" style="fill-rule:nonzero;"/>
        <path d="M640.98,441.42C641.21,450.21 642.62,459.01 642.42,467.81C642.4,468.53 642.42,469.15 643.04,469.66C648.57,454.58 641.28,441.71 640.98,441.42Z" style="fill-rule:nonzero;"/>
        <path d="M246.2,428.57C242.71,431.55 240.65,435.04 240.14,440.08C242.19,436.79 242.71,433.3 245.89,430.94C245.68,433.2 245.17,435.05 244.14,436.59C238.7,444.81 244.63,450.58 241.47,459.09C240.27,463.87 245.19,457.5 243.83,450.67C241.72,440.06 244.95,439.15 248.14,430.02C247.33,429.39 246.72,428.98 246.2,428.57Z" style="fill-rule:nonzero;"/>
        <path d="M331.36,468.22L331.46,468.12C331.42,468.12 331.41,468.05 331.36,468.22Z" style="fill-rule:nonzero;"/>
        <path d="M329.92,442.74C328.45,446.95 330.56,446.01 330.74,466.47C330.81,473.14 337.18,456.41 329.92,442.74Z" style="fill-rule:nonzero;"/>
        <path d="M269.73,398.26C258.57,413 252.63,408.67 246.51,407.81C254.73,416.22 268.75,407.41 269.73,398.26Z" style="fill-rule:nonzero;"/>
        <path d="M581.6,398.78C577.7,404.43 573.18,408.54 566.6,410.49C564.03,410.39 561.36,408.85 558.38,409.05C567.09,417.5 581.6,407.24 581.6,398.78Z" style="fill-rule:nonzero;"/>
        <path d="M598.96,68.31C597.73,64.51 595.88,60.81 596.39,56.5C592.28,59.89 596.29,63.9 595.47,67.59C608.34,77.77 618.07,81.22 598.96,68.31Z" style="fill-rule:nonzero;"/>
        <path d="M286.57,72.83C285.23,68.93 283.59,65.23 283.9,61.02C279.89,64.41 284.11,68.31 283.18,71.91C291.64,80.37 308.57,86.89 286.57,72.83Z" style="fill-rule:nonzero;"/>
        <path d="M306.91,107.55C308.03,106.92 309.27,106.32 308.25,104.57C306.5,104.78 304.86,106.11 302.5,105.19C299.73,101.8 295.1,101.59 290.79,100.36C292.54,102 295.1,102.41 297.26,103.85C297.57,104.67 297.88,105.6 298.29,106.73C301.26,105.7 303.71,109.36 306.91,107.55Z" style="fill-rule:nonzero;"/>
        <path d="M612.62,110.63C609.05,108.13 596.15,105.15 606.35,109.29C608.52,110.17 610.76,111.04 612.41,112.89C617.01,118.04 624.58,109.69 618.06,111.55C616.12,111.97 614.56,111.99 612.62,110.63Z" style="fill-rule:nonzero;"/>
        <path d="M565.78,420.25C565.02,425.09 563.11,430.11 568.66,434.63C567.12,428.47 565.37,423.02 569.28,417.27C566.29,417.27 566.01,418.81 565.78,420.25Z" style="fill-rule:nonzero;"/>
        <path d="M254.22,418.3C253.39,423.33 251.04,428.57 256.89,433.4C255.35,427.44 253.6,422 257.4,416.55C255.04,415.93 254.42,417.06 254.22,418.3Z" style="fill-rule:nonzero;"/>
        <path d="M637.17,413.26C638.45,415.83 653.97,411.71 651.04,406.58C647.59,412.94 638.19,410.97 637.17,413.26Z" style="fill-rule:nonzero;"/>
        <path d="M650.84,445.42C652.85,443.12 653.92,440.49 653.1,437.3C649.92,446.61 646.51,443.49 647.35,455.58C650.13,448.16 648.24,448.4 650.84,445.42Z" style="fill-rule:nonzero;"/>
        <path d="M325.3,412.44C326.22,414.08 327.66,413.76 328.9,413.36C335.87,411.13 340.46,410.4 339.28,405.45C335.66,411.96 326.43,410 325.3,412.44Z" style="fill-rule:nonzero;"/>
        <path d="M341.12,441.51C341.94,440.17 342.15,438.22 341.33,436.48C339.91,442.64 334.15,444.75 335.58,453.33C337.08,452.82 336.86,446.72 341.12,441.51Z" style="fill-rule:nonzero;"/>
        <path d="M307.74,70.26C307.74,73.49 315.97,70.85 321.4,70.98C322.17,68.27 321.17,68.98 307.74,70.26Z" style="fill-rule:nonzero;"/>
        <path d="M620.33,65.95C622.38,67.9 632.25,67.18 634.81,64.82C629.47,64.51 624.95,65.74 620.33,65.95Z" style="fill-rule:nonzero;"/>
        <path d="M311.64,75.91C314.31,77.96 317.39,77.55 319.45,74.78C315.23,72.32 313.59,72.63 311.64,75.91Z" style="fill-rule:nonzero;"/>
        <path d="M623.92,71.91C626.69,73.35 629.36,72.53 632.45,71.7C629.68,67.59 625.98,67.9 623.92,71.91Z" style="fill-rule:nonzero;"/>
        <path d="M293.66,90.5C293.76,91.94 295.1,91.53 295.71,92.35C296.02,94.51 296.12,96.97 297.87,98.92C297.05,95.43 298.08,91.73 295.61,88.54C294.28,88.96 293.97,89.78 293.66,90.5Z" style="fill-rule:nonzero;"/>
        <path d="M326.12,429.9C326.22,434.52 328.07,438.63 329.82,442.74C329.21,438.33 329.1,433.7 326.12,429.9Z" style="fill-rule:nonzero;"/>
        <path d="M605.95,83.72C603.9,80.12 602.35,76.22 599.27,73.55C601.02,77.25 602.66,80.95 605.95,83.72Z" style="fill-rule:nonzero;"/>
        <path d="M637.59,431.03C638.1,434.73 639.03,438.12 640.88,441.3C640.98,436.99 639.85,432.68 637.59,431.03Z" style="fill-rule:nonzero;"/>
        <path d="M321.19,61.84C318.91,59.79 312.18,61.29 315.03,63.89C316.47,61.94 319.24,64.51 321.19,61.84Z" style="fill-rule:nonzero;"/>
        <path d="M293.46,88.04C291.41,84.65 289.97,80.85 286.89,77.36C287.19,80.33 290.48,85.78 293.46,88.04Z" style="fill-rule:nonzero;"/>
        <path d="M628.55,402.99C632.15,404.84 636.15,404.63 639.95,404.74C636.15,404.12 632.55,402.68 628.55,402.99Z" style="fill-rule:nonzero;"/>
        <path d="M558.9,430.93C558.8,430.88 558.78,430.94 559,430.72C558.69,430.31 558.49,430 558.18,429.49C554.48,432.37 552.53,436.06 551.91,441.1C554.17,437.81 554.58,433.81 557.87,431.75C556.18,440.22 552.23,439.85 553.76,449.52C555.37,459.64 551.84,459.73 553.66,461.85C559.4,452.49 550.94,446.51 557.87,436.68C558.42,435.9 561,430.23 558.9,430.93Z" style="fill-rule:nonzero;"/>
        <path d="M609.64,100.05C608.72,96.56 609.95,92.45 606.66,89.78C606.76,91.63 607.69,93.27 607.69,95.22C607.8,96.97 608.31,98.72 609.64,100.05Z" style="fill-rule:nonzero;"/>
        <path d="M338.04,419.43C335.68,419.74 334.03,421.07 332.08,421.59C334.75,424.05 337.22,423.23 338.04,419.43Z" style="fill-rule:nonzero;"/>
        <path d="M633.58,57.42C630.4,55.47 627.83,56.19 627.11,59.17C628.96,57.83 631.73,59.58 633.58,57.42Z" style="fill-rule:nonzero;"/>
        <path d="M649.6,420.56C647.44,420.87 645.9,422.31 643.74,422.82C646.06,425.75 650.74,423.15 649.6,420.56Z" style="fill-rule:nonzero;"/>
        <path d="M572.77,479.42L572.77,469.15C571.23,473.05 571.33,476.23 572.77,479.42Z" style="fill-rule:nonzero;"/>
        <path d="M260.69,478.29C261.31,475.31 260.9,472.23 261.61,468.63C259.66,471.1 259.35,473.46 260.69,478.29Z" style="fill-rule:nonzero;"/>
        <path d="M328.18,403.4C324.79,402.78 321.5,402.27 318.11,401.65C315.02,401.65 320.38,404.22 328.18,403.4Z" style="fill-rule:nonzero;"/>
        <path d="M547.91,460C549.14,456.1 548.53,452.71 548.73,449.42C548.52,452.71 547.5,456 547.91,460Z" style="fill-rule:nonzero;"/>
        <path d="M643.95,469.86C643.95,469.76 643.33,469.76 643.13,469.65C641.1,475.3 643.64,485.57 643.95,469.86Z" style="fill-rule:nonzero;"/>
        <path d="M330.64,476.64C332.49,474.28 332.8,469.76 331.36,468.22C330.44,470.89 330.23,473.66 330.64,476.64Z" style="fill-rule:nonzero;"/>
        <path d="M236.75,448.29C235.69,459.22 235.55,458.05 236.65,458.05C237.33,447.2 237.28,448.29 236.75,448.29Z" style="fill-rule:nonzero;"/>
        <path d="M609.95,102.62C608.82,104.98 609.33,106.63 610.46,108.27C612.01,106.22 612.01,105.81 609.95,102.62Z" style="fill-rule:nonzero;"/>
        <path d="M310,104.06C312.47,104.57 314.83,103.96 317.19,103.24C314.72,103.24 312.15,102.11 310,104.06Z" style="fill-rule:nonzero;"/>
        <path d="M270.76,403.61C269.84,406.28 271.58,407.21 272.61,408.44C272.4,406.89 272.91,404.94 270.76,403.61Z" style="fill-rule:nonzero;"/>
        <path d="M582.32,404.94C581.6,407.41 583.35,408.23 584.17,410.08C584.37,406.48 584.37,406.38 582.32,404.94Z" style="fill-rule:nonzero;"/>
        <path d="M629.47,110.33C627,109.92 624.33,108.79 621.87,111.05C624.44,110.74 626.9,110.53 629.47,110.33Z" style="fill-rule:nonzero;"/>
        <path d="M326.64,509.21C326.95,507.67 327.05,506.13 326.43,504.38C325.4,506.95 325.4,506.95 326.64,509.21Z" style="fill-rule:nonzero;"/>
        <path d="M614.78,121.63C614.37,123.48 614.27,125.33 615.7,127.28C616.42,124.91 616.12,123.17 614.78,121.63Z" style="fill-rule:nonzero;"/>
        <path d="M638.3,510.23C638.71,508.69 639.02,507.15 637.89,505.3C637.28,507.26 637.07,508.8 638.3,510.23Z" style="fill-rule:nonzero;"/>
        <path d="M327.36,513.93C326.95,516.29 326.33,518.66 327.67,521.02C327.87,518.66 327.97,516.3 327.36,513.93Z" style="fill-rule:nonzero;"/>
        <path d="M639.23,514.86C638.2,516.91 638.61,518.97 639.13,521.02C639.85,518.97 639.64,516.91 639.23,514.86Z" style="fill-rule:nonzero;"/>
        <path d="M303.52,120.6C304.65,118.65 304.65,118.65 303.01,115.36C302.7,117.62 302.7,119.06 303.52,120.6Z" style="fill-rule:nonzero;"/>
        <path d="M572.66,466.37C573.89,464.42 574.1,462.77 574.2,461.03C573.07,462.47 572.66,464.11 572.66,466.37Z" style="fill-rule:nonzero;"/>
        <path d="M260.79,465.24C262.23,463.29 262.23,461.75 262.43,460.21C261.1,461.34 261,462.88 260.79,465.24Z" style="fill-rule:nonzero;"/>
        <path d="M246.51,516.91C246.2,518.04 246.1,519.27 246.61,520.61C247.03,519.27 247.03,518.14 246.51,516.91Z" style="fill-rule:nonzero;"/>
        <path d="M246.82,528.62C247.03,527.49 247.23,526.36 247.54,524.72C245.69,525.95 246.1,527.29 246.82,528.62Z" style="fill-rule:nonzero;"/>
        <path d="M558.28,529.44C558.79,528.31 559.31,527.28 559,525.95C557.56,527.08 557.87,528.31 558.28,529.44Z" style="fill-rule:nonzero;"/>
        <path d="M620.33,91.12C618.79,90.91 618.17,91.33 617.97,92.56C619.3,92.76 619.51,91.84 620.33,91.12Z" style="fill-rule:nonzero;"/>
        <path d="M558.38,518.35C557.87,519.27 557.87,520.3 558.28,521.33C558.9,520.3 558.59,519.38 558.38,518.35Z" style="fill-rule:nonzero;"/>
        <path d="M640.05,489.28C640.56,488.97 640.87,488.56 640.26,487.94C639.64,488.35 639.74,488.77 640.05,489.28Z" style="fill-rule:nonzero;"/>
        <path d="M607.28,85.47C606.77,85.26 606.36,85.47 606.15,85.98C606.37,88.38 609.29,86.27 607.28,85.47Z" style="fill-rule:nonzero;"/>
        <path d="M576.36,451.78C575.64,452.4 576.15,452.91 576.05,453.83C576.77,453.02 576.67,452.5 576.36,451.78Z" style="fill-rule:nonzero;"/>
        <path d="M328.38,487.94C329,487.22 328.89,486.91 328.48,486.71C327.87,487.02 328.08,487.33 328.38,487.94Z" style="fill-rule:nonzero;"/>
        <path d="M636.97,497.91C637.38,497.7 637.28,497.4 637.07,497.09C636.68,496.89 636.34,497.59 636.97,497.91Z" style="fill-rule:nonzero;"/>
        <path d="M264.49,452.3C264.9,451.79 265,451.38 264.49,450.86C264.08,451.37 264.08,451.78 264.49,452.3Z" style="fill-rule:nonzero;"/>
        <path d="M641.59,480.44C640.56,481.06 641.08,481.57 640.97,482.29C642,481.68 641.69,481.06 641.59,480.44Z" style="fill-rule:nonzero;"/>
        <path d="M325.4,496.37C325.4,496.16 325.19,496.06 325.19,495.86C325.09,496.07 324.98,496.27 324.88,496.37C325.33,496.81 325.51,496.47 325.4,496.37Z" style="fill-rule:nonzero;"/>
        <path d="M613.75,120.29C613.54,121.21 614.26,121.32 614.67,121.63C614.47,121.11 614.68,120.29 613.75,120.29Z" style="fill-rule:nonzero;"/>
        <path d="M621.66,90.71C622.58,91.02 622.48,90.2 622.69,89.89C621.77,89.68 621.46,89.99 621.66,90.71Z" style="fill-rule:nonzero;"/>
        <path d="M213.95,189.42C214.18,187.88 215.08,186.44 214.16,184.8C211.08,187.47 211.59,198.98 215.08,207.3C215.08,191.76 212.82,196.95 213.95,189.42Z" style="fill-rule:nonzero;"/>
        <path d="M310.51,211.2C308.76,213.67 308.46,217.16 309.17,224.14C311.64,222.81 312.26,216.75 310.51,211.2Z" style="fill-rule:nonzero;"/>
        <path d="M253.7,105.81C250.1,107.56 247.84,110.95 243.84,113C247.95,113.2 252.78,109.71 253.7,105.81Z" style="fill-rule:nonzero;"/>
        <path d="M259.97,171.45C259.61,169.08 256.75,170.93 253.5,163.13C250.09,166.32 254.75,170.24 259.97,171.45Z" style="fill-rule:nonzero;"/>
        <path d="M311.23,194.56C309.69,196.2 309.28,202.26 310.31,208.12C311.64,203.4 311.23,199.08 311.23,194.56Z" style="fill-rule:nonzero;"/>
        <path d="M237.78,114.23C240.14,115.36 241.89,114.44 243.33,112.48C241.28,112.07 239.63,114.43 237.78,112.27C231.92,118.78 229.78,120.35 237.78,114.23Z" style="fill-rule:nonzero;"/>
        <path d="M221.24,243.97C225.46,232.02 225.06,233.39 223.81,233.08C222.37,236.47 220.63,239.86 221.24,243.97Z" style="fill-rule:nonzero;"/>
        <path d="M305.48,149.36C303.43,151.11 303.01,154.19 300.65,155.63C305.37,154.19 306.71,152.55 305.48,149.36Z" style="fill-rule:nonzero;"/>
        <path d="M305.78,241.3C306.46,239.58 310.4,229.84 308.66,228.97C304.42,242.75 304.47,240.86 305.78,241.3Z" style="fill-rule:nonzero;"/>
        <path d="M309.48,233.8C308.35,237.09 307.73,240.48 308.25,243.97C310.2,240.79 309.38,237.19 309.48,233.8Z" style="fill-rule:nonzero;"/>
        <path d="M306.5,203.5C303.62,202.06 300.64,202.68 297.77,202.68C300.65,203.29 303.42,205.35 306.5,203.5Z" style="fill-rule:nonzero;"/>
        <path d="M220.83,128.82C217.54,129.64 216.31,131.7 216.82,135.7C218.98,133.44 219.19,130.97 220.83,128.82Z" style="fill-rule:nonzero;"/>
        <path d="M320.88,205.04C318.11,205.45 315.33,203.7 312.15,204.53C314.72,206.68 316.98,206.79 320.88,205.04Z" style="fill-rule:nonzero;"/>
        <path d="M311.95,173.19C311.33,175.35 310.1,177.5 310.92,179.87C312.77,177.92 312.46,175.56 311.95,173.19Z" style="fill-rule:nonzero;"/>
        <path d="M256.89,143.4C257.61,141.24 258.74,139.6 257.61,137.44C255.45,139.09 255.55,140.94 256.89,143.4Z" style="fill-rule:nonzero;"/>
        <path d="M272.3,157.48C270.55,155.84 269.01,154.91 267.27,153.99C267.67,156.76 267.88,156.86 272.3,157.48Z" style="fill-rule:nonzero;"/>
        <path d="M230.28,152.14C229.66,153.68 228.33,155.22 229.87,157.48C230.49,155.42 230.8,153.88 230.28,152.14Z" style="fill-rule:nonzero;"/>
        <path d="M215.18,207.3C215.08,209.46 215.39,211.51 216.72,213.87C217.34,211 216,209.15 215.18,207.3Z" style="fill-rule:nonzero;"/>
        <path d="M226.99,229.69C228.43,228.05 229.35,226.2 229.25,223.94C225.88,228.84 227.94,228.06 225.55,230.93C226.69,230.93 226.79,230.31 226.99,229.69Z" style="fill-rule:nonzero;"/>
        <path d="M300.85,215.82C302.19,216.33 303.42,217.05 304.86,216.44C303.63,215.31 302.29,215.21 300.85,215.82Z" style="fill-rule:nonzero;"/>
        <path d="M252.88,177.2C252.98,174.84 251.65,173.81 250.83,172.47C249.59,174.84 251.44,175.56 252.88,177.2Z" style="fill-rule:nonzero;"/>
        <path d="M291.2,203.7C289.86,202.88 288.73,202.98 287.4,203.08C289.14,204.53 289.14,204.53 291.2,203.7Z" style="fill-rule:nonzero;"/>
        <path d="M231.31,147.62C232.03,146.08 232.03,144.95 231.62,143.41C230.59,145.36 230.59,145.36 231.31,147.62Z" style="fill-rule:nonzero;"/>
        <path d="M221.86,122.24C220.42,124.19 220.11,125.42 220.83,127.07C222.47,125.84 222.27,124.5 221.86,122.24Z" style="fill-rule:nonzero;"/>
        <path d="M247.95,75.71C246.1,74.58 245.07,75.71 243.43,76.63C245.38,77.15 246.61,77.04 247.95,75.71Z" style="fill-rule:nonzero;"/>
        <path d="M255.14,234.73L259.15,234.73C259.04,234.72 255.14,234.43 255.14,234.73Z" style="fill-rule:nonzero;"/>
        <path d="M261.61,224.25C259.97,224.15 258.32,224.04 256.78,223.84C258.22,225.17 259.97,224.15 261.61,224.25Z" style="fill-rule:nonzero;"/>
        <path d="M263.15,173.5C262.53,171.86 261.4,171.45 259.97,171.34C260.48,172.68 261.2,173.71 263.15,173.5Z" style="fill-rule:nonzero;"/>
        <path d="M325.71,204.73C324.79,204.01 324.07,203.7 323.35,204.73C324.07,205.45 324.69,205.55 325.71,204.73Z" style="fill-rule:nonzero;"/>
        <path d="M256.68,223.94C255.24,223.53 253.91,223.32 252.26,223.73C253.91,224.04 255.35,224.04 256.68,223.94Z" style="fill-rule:nonzero;"/>
        <path d="M266.85,174.73C266.54,173.7 265.93,173.09 264.8,172.98C265.41,174.32 265.41,174.32 266.85,174.73Z" style="fill-rule:nonzero;"/>
        <path d="M276.71,158.81C276.09,157.78 275.27,157.47 273.94,157.78C274.66,159.12 275.58,159.12 276.71,158.81Z" style="fill-rule:nonzero;"/>
        <path d="M312.15,192.71C312.66,191.89 312.56,191.27 312.25,190.55C311.23,191.17 311.33,191.79 312.15,192.71Z" style="fill-rule:nonzero;"/>
        <path d="M253.7,179.87C254.01,180.79 254.62,181.41 255.86,181.51C254.94,178.75 253.36,179.53 253.7,179.87Z" style="fill-rule:nonzero;"/>
        <path d="M264.8,225.07C269.35,225.07 267.58,224.86 264.8,224.86L264.8,225.07Z" style="fill-rule:nonzero;"/>
        <path d="M240.45,78.38C239.42,77.87 239.32,78.89 238.91,79.3C239.73,79.41 240.45,79.41 240.45,78.38Z" style="fill-rule:nonzero;"/>
        <path d="M230.18,209.25C229.46,210.07 229.15,210.59 229.05,211.41C229.87,211 230.08,210.48 230.18,209.25Z" style="fill-rule:nonzero;"/>
        <path d="M284.73,159.53C283.91,158.71 283.29,158.71 282.68,159.02C283.29,159.84 283.29,159.84 284.73,159.53Z" style="fill-rule:nonzero;"/>
        <path d="M239.22,88.75C238.3,89.37 238.3,89.88 238.3,90.6C239.53,90.09 239.12,89.47 239.22,88.75Z" style="fill-rule:nonzero;"/>
        <path d="M216.93,218.6C216.72,219.11 216.93,219.42 217.44,219.63C217.65,219.11 217.34,218.8 216.93,218.6Z" style="fill-rule:nonzero;"/>
        <path d="M231.31,138.78C230.08,139.09 230.49,139.81 230.39,140.42C231.31,140.01 231.41,139.5 231.31,138.78Z" style="fill-rule:nonzero;"/>
        <path d="M235.01,104.06C234.09,104.47 234.29,105.09 234.8,105.7C235.21,105.19 235.21,104.68 235.01,104.06Z" style="fill-rule:nonzero;"/>
        <path d="M287.5,337.86C277.33,349.67 269.42,362.62 268.8,378.85C271.27,363.44 278.87,350.39 287.5,337.86Z" style="fill-rule:nonzero;"/>
        <path d="M279.79,274.07C281.23,273.66 281.23,272.73 281.33,272.02C282.66,253.42 282.18,253.07 280.3,252.91C278.69,257.97 280.63,266.75 279.79,274.07Z" style="fill-rule:nonzero;"/>
        <path d="M331.05,338.38C323.86,332.42 316.46,326.67 309.89,319.99C310.82,324.51 323.76,334.68 331.05,338.38Z" style="fill-rule:nonzero;"/>
        <path d="M313.49,359.33C311.95,351.63 307.74,344.74 306.09,336.83C304.05,338.06 304.7,339.47 313.49,359.33Z" style="fill-rule:nonzero;"/>
        <path d="M285.34,255.07C284.11,260.41 287.5,265.03 287.29,270.27C287.7,270.17 288.11,270.06 288.52,270.06C286.1,253.06 286.71,254.61 285.34,255.07Z" style="fill-rule:nonzero;"/>
        <path d="M339.58,293.69C337.22,287.63 334.24,281.88 331.98,275.92C332.6,282.6 337.01,287.84 339.58,293.69Z" style="fill-rule:nonzero;"/>
        <path d="M289.04,369.5C291.71,365.29 293.46,356.15 292.22,354.09C290.68,359.02 290.38,364.16 289.04,369.5Z" style="fill-rule:nonzero;"/>
        <path d="M306.61,268.32C307.02,263.8 306.1,259.18 307.12,254.14C305.37,256.71 305.27,263.18 306.61,268.32Z" style="fill-rule:nonzero;"/>
        <path d="M246.72,342.18C243.4,349.03 248.01,350.28 246.72,357.38C248.33,354.69 248.26,354.26 246.51,347.52C246.11,345.97 246.82,344.33 246.72,342.18Z" style="fill-rule:nonzero;"/>
        <path d="M243.22,383.68C242.3,378.85 243.84,374.23 244.25,369.4C242.3,374.64 241.79,379.98 243.22,383.68Z" style="fill-rule:nonzero;"/>
        <path d="M287.4,253.01C289.56,255.06 291.51,254.35 294.08,254.14C291.61,252.6 289.66,253.32 287.4,253.01Z" style="fill-rule:nonzero;"/>
        <path d="M280.21,253.01C277.64,251.47 275.07,252.09 272.61,253.32C275.17,254.35 277.74,252.4 280.21,253.01Z" style="fill-rule:nonzero;"/>
        <path d="M297.77,325.64C298.12,326.34 297.68,326.64 303.42,322.25C302.61,320.63 299.71,323.94 297.77,325.64Z" style="fill-rule:nonzero;"/>
        <path d="M314.52,301.09C315.96,302.53 317.7,303.25 319.76,303.35C318.11,302.22 316.47,301.19 314.52,301.09Z" style="fill-rule:nonzero;"/>
        <path d="M312.67,250.96C311.23,251.68 311.54,252.5 311.85,253.63C312.97,252.81 313.08,251.98 312.67,250.96Z" style="fill-rule:nonzero;"/>
        <path d="M308.25,250.85C307.43,251.67 307.53,252.39 308.15,253.21C309.28,252.5 309.59,251.78 308.25,250.85Z" style="fill-rule:nonzero;"/>
        <path d="M246.82,357.48C246.62,358.56 246.43,359.73 246.14,360.82C246.9,359.79 246.61,358.49 246.82,357.48Z" style="fill-rule:nonzero;"/>
        <path d="M304.45,251.88C304.55,252.6 305.17,252.6 305.99,252.91C305.68,251.68 305.27,251.37 304.45,251.88Z" style="fill-rule:nonzero;"/>
        <path d="M332.6,339.92C332.81,340.23 333.01,340.43 333.22,340.64C333.42,340.12 333.21,339.92 332.6,339.92Z" style="fill-rule:nonzero;"/>
        <path d="M335.88,342.59C336.29,342.18 335.78,342.18 335.88,342.59Z" style="fill-rule:nonzero;"/>
        <path d="M246.1,360.98C245.89,361.8 245.59,362.73 245.38,363.65C246.49,362.78 246.1,360.11 246.1,360.98Z" style="fill-rule:nonzero;"/>
        <path d="M244.66,366.42C245.58,365.7 245.48,364.67 245.28,363.65C244.87,364.57 244.87,365.5 244.66,366.42Z" style="fill-rule:nonzero;"/>
        <path d="M244.24,369.23C244.74,368.35 244.67,367.38 244.76,366.42C244.18,367.29 244.16,368.26 244.24,369.23Z" style="fill-rule:nonzero;"/>
        <path d="M244.24,369.23C244.21,369.28 244.18,369.34 244.15,369.39C244.29,369.4 244.24,369.44 244.24,369.23Z" style="fill-rule:nonzero;"/>
        <path d="M362.39,168.37C357.77,172.48 356.64,175.87 358.28,179.67C359.68,179.2 358.15,179.25 362.39,168.37Z" style="fill-rule:nonzero;"/>
        <path d="M351.91,168.78C353.25,164.16 353.35,159.74 350.68,155.53C352.22,159.84 352.42,164.26 351.91,168.78Z" style="fill-rule:nonzero;"/>
        <path d="M357.35,191.17C359.51,189.53 359.61,189.01 357.76,185.83C357.56,187.99 357.45,189.53 357.35,191.17Z" style="fill-rule:nonzero;"/>
        <path d="M357.87,184.08C359.62,182.74 359.1,181.2 358.28,179.77C356.02,181 358.38,182.64 357.87,184.08Z" style="fill-rule:nonzero;"/>
        <path d="M364.34,235.86C364.34,234.32 365.06,232.26 362.39,231.65C363.21,232.98 362.59,234.93 364.34,235.86Z" style="fill-rule:nonzero;"/>
        <path d="M362.28,231.75C362.49,230 362.07,228.46 361.05,227.13C360.54,228.87 361.15,230.41 362.28,231.75Z" style="fill-rule:nonzero;"/>
        <path d="M353.86,115.26C352.94,117.01 353.24,118.14 354.48,119.37C354.99,117.93 355.19,116.8 353.86,115.26Z" style="fill-rule:nonzero;"/>
        <path d="M371.63,274.48C364.92,277.89 370.79,283.66 371.12,285.47C389.21,289.09 379.98,270.24 371.63,274.48ZM373.79,284.14C372.35,282.19 370.91,280.13 372.76,278.18C374.91,275.92 376.66,278.18 378.72,279.52C378,282.19 376.56,283.83 373.79,284.14Z" style="fill-rule:nonzero;"/>
        <path d="M246.72,282.19C249.19,282.19 254.53,276.75 254.53,274.28C254.53,270.99 249.8,266.98 246,267.09C242.71,267.19 239.43,270.38 239.63,273.56C239.84,276.84 244.15,282.19 246.72,282.19ZM245.38,279.93C245.89,279.11 246.72,279.31 247.74,279.72C246.72,280.34 246,281.16 245.38,279.93ZM243.43,271.5C245.24,269.04 250.43,269.89 251.34,273.97C250.21,277.46 247.64,278.18 244.25,278.18C243.84,275.92 241.56,274.05 243.43,271.5Z" style="fill-rule:nonzero;"/>
        <path d="M221.24,280.03C222.16,284.24 223.6,288.15 226.99,291.12C225.14,287.01 222.68,283.31 222.26,278.9C221.65,279 221.04,279.31 221.24,280.03Z" style="fill-rule:nonzero;"/>
        <path d="M225.66,256.71C228.23,254.04 230.69,251.06 233.26,248.29C229.56,250.03 227.1,252.91 225.66,256.71Z" style="fill-rule:nonzero;"/>
        <path d="M224.84,258.46C221.96,259.69 220.94,262.57 221.55,266.99C222.58,264.11 222.78,261.13 224.84,258.46Z" style="fill-rule:nonzero;"/>
        <path d="M221.04,270.47C220.32,273.45 220.73,276.22 222.17,278.79C222.17,269.21 222.54,270.47 221.04,270.47Z" style="fill-rule:nonzero;"/>
        <path d="M235.31,296.98C233.56,295.23 231.51,294 229.04,293.38C230.8,295.23 232.85,296.46 235.31,296.98Z" style="fill-rule:nonzero;"/>
        <path d="M238.19,298.42C240.04,299.14 242.09,298.73 243.94,299.04C244.04,298.73 244.15,298.53 244.15,298.22C237.76,297.54 238.19,297.57 238.19,298.42Z" style="fill-rule:nonzero;"/>
        <path d="M235.93,247.16C237.78,247.47 239.22,246.85 240.76,246.03C239.81,244.45 237.64,246.02 235.93,247.16Z" style="fill-rule:nonzero;"/>
        <path d="M331.05,561.08C331.76,555.88 326.62,552.74 323.24,561.18C326.6,564.44 326.84,564.47 331.05,561.96C331.05,562.19 329.4,564.72 331.97,566.62C334.48,568.47 337.72,566.17 337.72,562.92C337.72,560.25 335.53,558.75 332.99,559.94C332.38,560.25 331.77,560.78 331.05,561.08ZM326.43,562.01C327.35,560.67 327.05,559.75 325.81,559.03C329.73,554.68 331.25,562.52 326.43,562.01ZM336.09,563.04C336.09,566.08 332.46,566.61 332.19,563.86C332.97,560.45 336.09,560.62 336.09,563.04Z" style="fill-rule:nonzero;"/>
        <path d="M336.91,568.27C337.63,569.19 338.35,568.78 338.86,568.48C342.28,567.11 339.9,569.82 341.02,570.74C342.97,569.1 343.49,566.63 344.72,564.68C340.71,561.7 339.79,561.91 338.76,566.22C338.35,567.35 337.12,567.45 336.91,568.27ZM342.46,565.5C341.12,566.53 341.12,566.53 340.1,564.78C341.22,564.37 342.05,564.27 342.46,565.5Z" style="fill-rule:nonzero;"/>
        <path d="M195.56,270.78C196.48,268.01 197.41,265.23 198.44,262.25C196.18,264 195.25,266.67 195.56,270.78Z" style="fill-rule:nonzero;"/>
        <path d="M194.64,274.17C194.02,276.22 194.33,278.18 195.05,280.13C195.35,278.18 194.43,276.23 194.64,274.17Z" style="fill-rule:nonzero;"/>
        <path d="M195.05,283.32C195.84,286.85 197.04,286.98 196.8,287.22C197.59,289.97 199.38,289.12 197.31,286.71C197,285.58 196.48,284.65 195.05,283.32Z" style="fill-rule:nonzero;"/>
        <path d="M599.37,338.89C589.2,350.7 581.19,363.65 580.57,379.98C583.14,364.57 590.54,351.42 599.37,338.89Z" style="fill-rule:nonzero;"/>
        <path d="M592.08,274.99C596.38,255.78 590.89,243.41 591.67,266.46C591.77,269.34 591.98,272.12 592.08,274.99Z" style="fill-rule:nonzero;"/>
        <path d="M643.65,340.33C636.46,333.76 628.34,328.11 621.36,321.22C627.21,329.44 635.33,335.09 643.65,340.33Z" style="fill-rule:nonzero;"/>
        <path d="M624.75,359.13C623.52,351.73 619.2,345.36 617.97,337.97C615.28,339 618.27,344.73 624.75,359.13Z" style="fill-rule:nonzero;"/>
        <path d="M597.01,256.09C595.98,261.43 599.06,266.16 599.06,271.4C599.47,271.3 599.98,271.19 600.4,271.09C598.01,254.35 598.45,255.73 597.01,256.09Z" style="fill-rule:nonzero;"/>
        <path d="M571.02,271.09C572.46,265.85 573.79,260.51 575.33,254.86C572.97,256.3 570.4,265.95 571.02,271.09Z" style="fill-rule:nonzero;"/>
        <path d="M601.22,370.12C602.86,365.29 604.82,360.46 604.4,355.22C602.56,360.05 602.15,365.19 601.22,370.12Z" style="fill-rule:nonzero;"/>
        <path d="M650.63,293.28C650.63,290.74 649.83,291.82 643.75,277.05C644.57,283.01 647.55,288.14 650.63,293.28Z" style="fill-rule:nonzero;"/>
        <path d="M558.49,343.61C554.73,350.81 560.94,350.72 557.77,361.48C562.47,350.42 556.27,352.5 558.49,343.61Z" style="fill-rule:nonzero;"/>
        <path d="M618.38,269.76C618.69,265.14 618,260.4 618.69,255.79C619.28,251.79 615.88,257.53 618.38,269.76Z" style="fill-rule:nonzero;"/>
        <path d="M554.79,384.4C554.38,381.01 555.1,377.62 555.3,374.33C553.97,377.62 553.56,381.01 554.79,384.4Z" style="fill-rule:nonzero;"/>
        <path d="M590.43,253.42C588.17,252.5 586.22,253.73 583.96,253.73C586.02,255.17 586.84,255.07 590.43,253.42Z" style="fill-rule:nonzero;"/>
        <path d="M609.34,327.18C611.5,326.26 613.24,324.82 614.89,323.17C612.32,323.38 611.08,325.64 609.34,327.18Z" style="fill-rule:nonzero;"/>
        <path d="M626.39,302.11C627.93,303.75 629.88,304.27 631.94,304.58C630.29,303.35 628.55,302.32 626.39,302.11Z" style="fill-rule:nonzero;"/>
        <path d="M557.87,361.59C557.28,364.41 556.15,367.25 555.95,370.17C557.03,367.41 557.97,364.55 557.87,361.59Z" style="fill-rule:nonzero;"/>
        <path d="M555.95,370.17C555.91,370.29 555.87,370.41 555.82,370.53C555.96,370.67 555.91,370.73 555.95,370.17Z" style="fill-rule:nonzero;"/>
        <path d="M599.58,254.24C601.33,255.88 603.28,255.27 605.23,254.86C603.48,253.94 601.53,254.65 599.58,254.24Z" style="fill-rule:nonzero;"/>
        <path d="M618.07,254.65C617.76,253.62 617.76,252.39 616.02,252.8C616.22,254.14 617.86,253.63 618.07,254.65Z" style="fill-rule:nonzero;"/>
        <path d="M620.23,251.98C619,252.6 619.61,253.32 619.51,253.93C620.49,254.5 621.47,252.87 620.23,251.98Z" style="fill-rule:nonzero;"/>
        <path d="M624.23,251.98C623.2,252.8 623,253.42 623.92,254.45C624.54,253.73 624.95,253.11 624.23,251.98Z" style="fill-rule:nonzero;"/>
        <path d="M555.3,374.33C555.92,373.1 555.81,371.86 555.81,370.63C554.99,371.76 555.2,372.99 555.3,374.33Z" style="fill-rule:nonzero;"/>
        <path d="M645.91,342.18C646.12,342.28 646.22,342.49 646.42,342.59C646.63,342.18 646.21,342.18 645.91,342.18Z" style="fill-rule:nonzero;"/>
        <path d="M622.07,211.61C619.71,216.23 621.45,220.75 620.43,225.38C623.51,223.84 624.13,216.95 622.07,211.61Z" style="fill-rule:nonzero;"/>
        <path d="M564.75,163.64C562.39,167.44 565.88,171.45 571.22,171.65C567.84,170.01 566.29,166.83 564.75,163.64Z" style="fill-rule:nonzero;"/>
        <path d="M623.1,195.9C621.49,195.9 621.97,193.5 621.97,208.54C623.31,204.42 623,200.11 623.1,195.9Z" style="fill-rule:nonzero;"/>
        <path d="M617.55,242.23C619.09,238.33 620.63,234.32 620.32,229.9C615.92,244.21 616.09,241.74 617.55,242.23Z" style="fill-rule:nonzero;"/>
        <path d="M618.27,205.55C618.27,203.69 619.93,203.34 609.44,203.7C612.42,204.53 615.19,205.96 618.27,205.55Z" style="fill-rule:nonzero;"/>
        <path d="M620.02,245.1C621.87,241.92 621.36,238.53 621.15,235.03C620.23,238.32 619.4,241.71 620.02,245.1Z" style="fill-rule:nonzero;"/>
        <path d="M617.14,154.5C615.09,156.35 614.57,159.33 612.21,160.66C617.04,159.33 618.48,157.58 617.14,154.5Z" style="fill-rule:nonzero;"/>
        <path d="M624.23,206.17C626.9,208.02 629.67,207.71 633.06,206.27C623.24,205.04 624.23,204.98 624.23,206.17Z" style="fill-rule:nonzero;"/>
        <path d="M623.92,174.12C622.79,176.17 622.28,178.43 622.58,180.9C624.64,178.95 624.03,176.48 623.92,174.12Z" style="fill-rule:nonzero;"/>
        <path d="M576.67,159.53C578.01,161.79 579.55,162.3 581.91,162.3C580.47,160.66 579.24,159.63 576.67,159.53Z" style="fill-rule:nonzero;"/>
        <path d="M602.97,204.94C601.53,203.6 600.4,203.91 599.07,204.12C600.19,205.86 601.32,205.66 602.97,204.94Z" style="fill-rule:nonzero;"/>
        <path d="M612.83,216.85C614.06,217.36 615.19,218.39 617.04,217.47C615.5,216.03 614.16,216.34 612.83,216.85Z" style="fill-rule:nonzero;"/>
        <path d="M566.09,225.17C567.94,225.27 569.79,225.38 571.64,225.58C569.89,224.25 567.94,225.17 566.09,225.17Z" style="fill-rule:nonzero;"/>
        <path d="M623.82,193.64C624.64,193.02 624.03,192.3 624.23,191.59C622.73,191.43 623.04,193.48 623.82,193.64Z" style="fill-rule:nonzero;"/>
        <path d="M572.56,172.78C573.07,174.22 573.07,174.22 575.03,174.53C574.62,173.3 573.79,172.78 572.56,172.78Z" style="fill-rule:nonzero;"/>
        <path d="M645.39,165.59C644.67,164.36 643.75,164.36 642.31,165.18C643.54,166 644.37,166.31 645.39,165.59Z" style="fill-rule:nonzero;"/>
        <path d="M565.27,179.97C565.58,181.82 566.4,182.23 567.74,182.95C567.42,181.41 566.5,180.9 565.27,179.97Z" style="fill-rule:nonzero;"/>
        <path d="M639.54,166C638.92,164.87 637.9,165.18 636.56,165.28C637.59,166.52 638.41,167.03 639.54,166Z" style="fill-rule:nonzero;"/>
        <path d="M564.34,235.34C564.34,235.75 564.11,235.43 567.01,235.75C567.01,235.21 567.42,235.34 564.34,235.34Z" style="fill-rule:nonzero;"/>
        <path d="M571.64,225.48C573.08,226.1 574.52,225.79 575.95,225.79C574.51,225.48 573.07,225.28 571.64,225.48Z" style="fill-rule:nonzero;"/>
        <path d="M587.35,163.85C586.43,162.82 585.6,162.51 584.37,162.62C585.09,164.36 586.12,163.95 587.35,163.85Z" style="fill-rule:nonzero;"/>
        <path d="M576.88,174.12C575.96,174.63 576.16,174.84 578.73,176.17C578.42,174.73 577.8,174.22 576.88,174.12Z" style="fill-rule:nonzero;"/>
        <path d="M595.47,164.36C594.55,163.74 593.93,163.64 593.31,164.15C593.72,165.28 594.34,165.18 595.47,164.36Z" style="fill-rule:nonzero;"/>
        <path d="M636.04,206.17C636.55,206.38 636.96,206.17 637.17,205.66C636.33,204.64 634.1,205.52 636.04,206.17Z" style="fill-rule:nonzero;"/>
        <path d="M554.48,142.48C551,144.45 548.01,147 545.03,149.57C545.85,149.98 546.57,150.49 547.5,149.78C559.6,140.5 563.37,139.01 563.01,133.86C559.93,136.52 558.09,140.44 554.48,142.48Z" style="fill-rule:nonzero;"/>
        <path d="M560.54,101.49C556.43,100.15 552.53,103.75 550.88,110.02C552.43,105.6 557.25,104.57 560.54,101.49Z" style="fill-rule:nonzero;"/>
        <path d="M529.21,216.65C526.54,219.32 526.44,229.49 528.8,233.09C528.9,227.74 528.29,222.5 529.21,216.65Z" style="fill-rule:nonzero;"/>
        <path d="M556.33,149.26C553.15,153.47 552.73,158.51 552.12,163.54C553.86,158.92 554.58,153.88 556.33,149.26Z" style="fill-rule:nonzero;"/>
        <path d="M540.92,198.77C540.71,201.85 540.92,204.11 542.46,206.06C542.98,203.7 542.36,201.44 540.92,198.77Z" style="fill-rule:nonzero;"/>
        <path d="M530.85,244.28C530.85,241.71 530.75,239.86 529,237.91C529.21,240.27 529.62,242.02 530.85,244.28Z" style="fill-rule:nonzero;"/>
        <path d="M536.09,145.05C535.68,146.9 536.09,148.65 537.12,150.19C537.43,148.23 537.02,146.59 536.09,145.05Z" style="fill-rule:nonzero;"/>
        <path d="M549.14,111.76C546.98,113.2 547.29,114.74 547.6,116.28C548.52,115.15 549.24,113.92 549.14,111.76Z" style="fill-rule:nonzero;"/>
        <path d="M539.48,189.94C538.25,191.69 538.66,192.71 539.69,194.05C540.41,192.61 540.1,191.58 539.48,189.94Z" style="fill-rule:nonzero;"/>
        <path d="M541.33,154.91C542.56,153.47 542.97,152.55 543.18,151.11C541.44,151.93 541.64,153.16 541.33,154.91Z" style="fill-rule:nonzero;"/>
        <path d="M534.04,251.16C534.55,250.34 533.94,250.13 533.73,249.52C533.22,250.34 533.83,250.55 534.04,251.16Z" style="fill-rule:nonzero;"/>
        <path d="M551.91,175.97C552.32,175.46 552.22,174.94 552.01,173.81C551.91,174.94 551.91,175.35 551.91,175.97Z" style="fill-rule:nonzero;"/>
        <path d="M545.34,120.91C544.52,121.53 544.42,122.04 544.42,122.66C545.25,123.21 545.34,122.04 545.34,120.91Z" style="fill-rule:nonzero;"/>
        <path d="M542.36,169.19C542.67,168.57 542.98,167.96 541.85,167.85C541.23,168.67 541.74,168.98 542.36,169.19Z" style="fill-rule:nonzero;"/>
        <path d="M562.08,101.18C561.87,101.18 561.67,101.08 561.46,100.97C560.77,101.68 561.51,102.33 562.08,101.18Z" style="fill-rule:nonzero;"/>
        <path d="M670.25,200.11C668.2,202.99 671.28,204.22 671.48,206.27C667.65,208.33 674.58,211.09 674.46,220.45C674.45,221.17 674.97,221.99 676.21,222.2C673.88,206.72 674.39,203.12 670.25,200.11Z" style="fill-rule:nonzero;"/>
        <path d="M671.69,187.27C669.74,188.3 669.83,190.04 669.74,191.38C669.35,197.3 665.65,198.22 663.17,200.21C667.38,202.27 672.1,195.18 671.69,187.27Z" style="fill-rule:nonzero;"/>
        <path d="M670.25,164.87C670.25,151.56 670.52,153.26 669.43,153.26C669.84,157.17 667.99,161.07 670.25,164.87Z" style="fill-rule:nonzero;"/>
        <path d="M670.77,137.34C668.61,139.6 668.92,142.48 669.02,145.25C670.66,142.89 670.35,140.01 670.77,137.34Z" style="fill-rule:nonzero;"/>
        <path d="M673.54,180.9C671.79,182.85 671.38,184.6 671.38,186.86C673.44,185.21 673.54,183.47 673.54,180.9Z" style="fill-rule:nonzero;"/>
        <path d="M680.94,251.06C681.15,253.63 681.45,255.99 683.1,257.74C682.37,255.48 681.65,253.22 680.94,251.06Z" style="fill-rule:nonzero;"/>
        <path d="M674.67,174.43C673.03,175.66 673.23,177 673.85,178.64C675.18,177.41 674.87,176.07 674.67,174.43Z" style="fill-rule:nonzero;"/>
        <path d="M677.03,242.64C677.13,244.59 678.78,245.82 679.39,247.57C679.09,245.72 678.57,243.97 677.03,242.64Z" style="fill-rule:nonzero;"/>
        <path d="M675.29,239.86C675.5,240.99 675.8,242.12 676.93,242.74C676.93,241.51 676.21,240.58 675.29,239.86Z" style="fill-rule:nonzero;"/>
        <path d="M667.58,144.94C666.45,145.25 666.55,145.76 667.07,146.48C667.99,146.28 668.2,145.77 667.58,144.94Z" style="fill-rule:nonzero;"/>
        <path d="M667.68,231.64L667.68,229.79C667.53,231.48 667.32,231.64 667.68,231.64Z" style="fill-rule:nonzero;"/>
        <path d="M675.18,299.65C668.26,305.93 675.65,313.66 682.47,310.03C688.61,306.19 687.16,307.22 686.48,302.63C685.33,294.93 678.06,297.04 675.18,299.65ZM681.86,307.25C673.27,310.55 675.29,301.41 681.14,300.88C685.38,300.5 684.04,306.41 681.86,307.25Z" style="fill-rule:nonzero;"/>
        <path d="M564.65,302.73C566.41,292.19 554.94,290.21 552.01,294.82C548.79,299.9 553.51,301.54 556.43,306.84C559.91,306.55 564.06,306.3 564.65,302.73ZM557.87,295.64C559.82,296.14 562.31,300.06 561.98,302.32C561.51,305.51 559,304.17 556.95,304.58C556.13,302.42 554.83,300.88 554.59,298.83C554.32,296.56 555.82,295.12 557.87,295.64Z" style="fill-rule:nonzero;"/>
        <path d="M647.86,568.38C649.4,569.82 650.33,567.66 651.46,568.28C652.49,569 650.84,570.03 652.08,570.85C653.93,569.21 654.55,566.74 655.68,564.79C654.36,562.52 649.82,561.71 649.82,564.89C649.81,566.53 648.99,567.45 647.86,568.38ZM653.61,565.6C652.38,567.04 651.66,566.42 650.94,564.98C652.28,564.17 653.1,564.37 653.61,565.6Z" style="fill-rule:nonzero;"/>
        <path d="M642.11,561.08C642.42,558.82 642.21,556.65 639.64,556.15C636.35,555.5 635.55,558.17 634.3,561.29C637.66,564.55 637.9,564.58 642.08,562.09C639.47,567.83 648.79,569.6 648.79,563.04C648.78,560.02 646.6,558.52 642.11,561.08ZM637.79,562.32C637.89,561.09 638.61,559.75 636.66,559.24C638.2,557.7 639.54,556.88 640.26,558.83C641.08,560.67 639.85,561.8 637.79,562.32ZM644.88,565.5C642.47,565.5 643.15,561.19 645.8,561.19C648,561.19 647.77,565.5 644.88,565.5Z" style="fill-rule:nonzero;"/>
    </g>
</svg>
