<?xml version="1.0" encoding="UTF-8" standalone="no"?>
<!DOCTYPE svg PUBLIC "-//W3C//DTD SVG 1.1//EN" "http://www.w3.org/Graphics/SVG/1.1/DTD/svg11.dtd">
<svg width="100%" height="100%" viewBox="0 0 900 600" version="1.1" xmlns="http://www.w3.org/2000/svg" xmlns:xlink="http://www.w3.org/1999/xlink" xml:space="preserve" xmlns:serif="http://www.serif.com/" style="fill-rule:evenodd;clip-rule:evenodd;stroke-linejoin:round;stroke-miterlimit:2;">
    <g>
        <path d="M895.46,249.59C857.07,250.8 859.79,250.36 859.16,249.79C857.78,241.76 857.1,229.69 846.25,218.73C839.3,211.71 822.38,207.78 814.28,216.11C798.55,232.31 801.78,238.2 799.56,251.2C795.73,252.41 791.59,250.49 788.06,252.81C785.43,248.87 780.44,250.56 776.46,248.27C772.84,251.13 765.2,241.5 764.36,252.2C691.83,252.62 714.37,258.6 715.96,236.87C716.5,229.49 720.14,228.28 716.36,220.74C711.67,259.7 710.63,252.72 696.39,253.61C699.72,256.84 703.25,254.92 706.37,256.03C706.37,265.66 705.47,265.25 710.3,266.01C708.59,264.3 707.48,262.68 708.28,260.46C712.52,261.67 717.23,268.32 716.55,272.46C715.61,278.1 715.57,283.86 714.94,289.5C714.17,296.33 705.89,301.27 698.91,300.49C690.84,299.59 686,294.44 680.25,289.9C681.76,288.89 683.58,289.9 684.59,288.39C684.49,288.36 683.76,287.89 682.57,287.89C675.7,288.77 670.97,279.61 670.37,277.7C668.18,270.74 662.45,267.12 660.89,263.78C665.02,261.86 668.86,259.54 673.9,258.94C675.51,257.33 676.39,255.21 676.12,252.28C675.56,246.34 677.11,240.38 676.73,234.43C676.62,232.82 676.43,231 678.34,229.69C676.93,229.08 675.11,229.39 675.11,227.37C675.72,226.66 676.93,227.47 677.43,226.16C677.63,224.65 677.73,223.03 677.93,221.32C676.92,220.21 675.21,219.61 675.51,217.69C677.83,217.99 677.83,217.99 677.93,221.32C679.14,222.73 679.24,224.55 679.04,225.76C693.97,194.96 685,211.74 693.96,203.37C693.35,202.16 692.95,201.15 692.55,200.34C691.64,199.43 689.93,200.54 689.63,198.73C691.14,197.32 692.05,199.23 693.16,199.44C694.77,199.74 694.57,201.76 695.78,202.36C698.96,196.86 706.77,202.86 714.23,199.84C713.83,204.68 715.54,208.71 716.35,212.85C708.18,216.88 707.78,217.49 708.99,222.73C710.1,222.12 709.09,220.71 710.3,219.91C712.12,220.21 714.03,219.81 716.15,218.8C716.35,216.08 718.6,213.34 717.56,210.63C716.09,206.78 716.55,202.76 715.64,199.23C717.46,196.41 720.68,195.8 722.6,193.58C722.2,192.47 723,191.26 722.5,190.15C721.09,189.44 719.78,190.15 718.37,189.95C719.18,188.54 721.5,188.94 721.29,186.72C719.47,185.51 717.96,186.92 716.25,187.53C716.25,177.35 715.19,183.48 712.32,184.3C709.09,181.67 704.99,185.44 702.34,184.91C698.31,184.1 694.27,184.91 690.64,184.71C689.13,185.21 689.23,187.03 687.72,187.03C686.81,186.73 687.82,184.71 685.9,185.01C683.88,187.43 681.26,189.25 677.63,189.14C676.12,187.93 674.81,186.11 672.39,187.32C672.39,188.73 673.8,189.24 674,190.04C672.79,192.16 671.38,194.18 670.87,196.19C669.03,203.46 665.16,209.96 666.63,216.06C667.36,219.08 669.76,221.71 668.34,225.14C668.24,225.34 668.44,225.74 668.64,226.05C671.58,230.48 670.18,236.42 673.48,240.77C674.12,241.61 672.11,247.79 673.58,253.38C647.16,253.88 621.24,254.39 595.33,254.89C594.55,253.14 593.43,247.41 589.99,247.93C585.58,248.6 579.49,247.28 576.88,249.75C579.3,251.46 580.81,253.58 580.71,257.01C578.59,254.09 576.68,251.56 575.26,248.84C569.01,247.83 562.65,250.76 562.35,254.99C564.97,254.18 566.51,249.7 569.91,252.07C571.33,253.06 573.24,254.79 572.23,257.21C569.41,258.02 569.41,255.6 568.6,254.18C565.88,255.79 548.63,256.5 543.89,255.39C543.18,247.83 541.91,240.55 538.75,233.51C530.79,215.81 524.8,212.48 509.81,212.23C509.1,213.44 508.39,214.83 506.99,215.05C501.24,215.98 489.97,232.05 488.23,257.3C454.63,257.3 446.89,258.4 429.74,258.01C426.71,257.94 424.29,260.13 424.09,262.85C423.42,272.2 432.4,267.79 488.83,267.79C489.67,269.29 489.94,277.67 493.07,287.45C494.24,291.1 493.28,292.72 491.76,296.53C493.25,302.18 496.27,297.82 502.35,306.72C521.59,334.89 547.93,299.03 544.4,265.88L560.74,265.88C561.23,271.31 566.98,268.09 568.5,275.16C569.65,280.5 568.32,292.17 569.51,318.32C570.22,334.02 579.91,360.86 596.44,356.84C596.77,356.84 598.07,358.04 599.87,356.23C602.29,353.81 605.62,353.41 609.05,351.39C598.44,365.1 574.99,359.49 580.11,376.4C582.89,385.59 578.44,391.71 579.61,393.95C582.63,399.73 578.64,405.9 594.33,420.17C596.57,422.21 604.48,421.91 605.62,428.94C585.04,449.02 590.82,451.78 588.88,513.95C588.78,514.86 589.28,515.77 588.68,516.47C587.37,516.87 586.26,515.76 585.05,516.57C583.77,516.57 581.94,527.28 576.58,532.7C576.48,532.8 576.48,532.9 576.48,533C576.3,543.72 570.9,553.96 576.38,555.08C578.3,555.47 580.21,556.29 582.33,557.4C582.33,553.47 579.3,553.47 577.19,552.46C577.39,551.05 576.38,549.84 576.28,548.73C578.23,543.84 580.04,540.53 578.2,536.73C576.19,532.58 582.08,532.42 584.15,525.44C587.78,525.24 590.4,527.86 593.43,528.97C595.04,527.26 594.04,525.34 594.44,523.63C597.57,522.72 603.21,522.12 605.23,522.42C605.73,523.43 604.93,524.34 604.83,525.34C604.63,527.26 605.94,528.47 607.35,527.76C607.85,527.05 606.54,526.25 607.55,525.54C608.36,525.34 609.06,525.74 609.77,526.65C608.56,527.96 609.27,529.68 609.06,531.39C603.92,529.47 592.09,529.87 591.51,531.89C591.19,533 592.82,532.6 592.82,533.3C591.43,536.55 593.69,535.28 594.74,536.02C594.84,536.83 593.53,537.13 594.24,538.24C595.85,539.25 597.97,538.64 599.99,539.25C598.88,540.26 597.27,539.96 596.66,541.47C597.87,543.18 599.79,542.38 601.3,542.78C601.3,543.38 600.49,543.79 601,544.7C604.73,545.51 608.36,545.2 611.89,543.39C613,542.38 610.78,540.97 612.9,540.06C614.11,543.49 618.75,544.59 618.85,548.93C618.86,549.53 619.65,550.05 620.16,550.44C623.96,553.35 619.95,558.17 623.39,561.43C619.95,567.16 589.19,561.7 585.88,560.12C585.48,556.29 586.38,552.05 584.27,548.12C582.35,552.46 583.31,556.89 583.26,561.23C583.24,562.54 584.27,563.82 585.48,564.05C589.67,564.85 593.21,566.37 596.88,566.37C599.95,565.65 623.89,569.59 624.91,562.44C626.15,553.77 621.69,545.26 617.95,542.47C614.08,539.58 611.14,530.45 613.01,525.12C611.9,522.6 609.78,524.01 608.07,524.11C607.35,518.47 606.17,519.42 594.96,520.28C587.52,514.15 595.62,513.61 592.34,466.63C591.8,458.87 592.42,450.98 597.18,444.24C599.89,440.4 601.76,435.69 605.85,432.84C607.89,431.42 605.92,430.49 608.98,427.09C608.98,425 605.43,415.74 599.5,410.85C597.57,409.26 597.59,397.39 603.23,391.29C608.46,385.63 615.34,383.56 622.19,381.61C626.73,380.32 630.95,382.63 632.98,387.16C639.83,402.42 646.5,403.18 646.59,408.14C646.81,419.93 646.48,412.81 637.31,434.86C635.51,439.2 631.97,442.83 631.86,447.77C630.95,448.27 630.45,446.66 629.34,447.97C629.54,459.43 622.84,475.31 618.05,481.05C617.44,476.21 620.37,472.18 618.86,467.84C617.75,479.13 602.45,517.56 609.78,520.18C610.69,516.45 610.17,512.92 610.59,509.49C611.27,503.94 613.25,498.6 614.12,493.05C614.75,489.02 616.11,485.46 619.57,482.76C628.77,475.59 633.84,441.18 637.52,438.29C644.08,433.13 641.11,426.78 644.28,424.88C647.25,424.88 649.47,426.69 666.77,429.32C686.84,432.37 673.01,432.61 694.3,434.46C699.15,434.88 699.41,432.72 705.7,431.43C716.58,429.2 720.71,425.3 735.05,424.88C734.12,429.55 725.62,439.28 725.17,453.52C724,490.52 718.21,486.84 715.69,506.77C710.74,508.75 715.93,512.67 709.34,507.88C704.47,509.67 711.95,518.39 708.33,523.31C706.24,526.15 704.93,529.38 702.88,532.08C700.5,535.21 702.92,535.21 701.47,542.47C705.4,543.28 709.03,544.29 712.66,544.99C724.33,547.26 723.07,542.9 726.37,544.49C732.47,547.42 739.26,547.96 745.33,550.54C753.48,554 763.39,550.29 771.55,548.62C775.97,547.72 780.59,539.87 777,537.33C774.05,535.24 771.36,532.66 767.62,531.78C765.41,531.26 762.9,530.85 761.37,529.16C756.2,523.45 748.66,520.29 744.02,513.53C743.41,510.2 747.15,505.16 740.89,503.34C743.61,492.65 748.22,483.15 753.5,473.89C755.8,469.85 756.43,465.12 759.15,461.49C761.78,457.97 763.39,453.93 765.3,450.09C769.19,442.3 766.13,445.95 769.33,432.85C774.23,412.84 770.23,413.61 774.07,410.16C774.17,410.06 776.01,401.81 766.51,395.13C767.68,389.98 743.79,376.1 724.86,376.68C713.67,377.02 702.87,374.23 691.78,373.55C689.54,373.41 689.38,372.12 686.94,367.6C700.3,356.56 709.14,350.5 712.66,340.07C713.1,338.32 717.43,336.99 724.56,326.96C731.32,332.71 738.95,336.38 746.04,340.98C748.55,342.61 751.68,342.86 754.61,343.3C756.81,343.63 764.33,335.9 765.2,334.93C777.61,321.09 779.56,306.47 783.45,297.32C791.43,278.56 797.15,269.92 787.18,259.81C801.28,259.81 799.15,258.98 799.48,262.33C801.36,281.11 809.97,302.05 825.8,300.45C837.41,299.27 851.44,298.03 857.67,267.27C859.87,256.39 855.92,258.17 865.33,257.79C895.69,256.58 900.02,258.38 900.02,252.85C900,250.7 898.29,249.5 895.46,249.59ZM714.45,217.52C714.85,217.12 715.26,217.12 715.86,217.52C715.15,218.13 714.85,217.83 714.45,217.52ZM720.5,192.52C720.4,193.33 720.1,193.93 719.09,194.64C718.48,193.12 718.38,192.31 720.5,192.52ZM714.55,186.87C715.16,187.88 714.55,188.28 713.74,188.69C713.64,187.88 713.54,187.17 714.55,186.87ZM705.07,198.26C704.16,198.66 703.66,198.06 703.36,197.35C703.86,197.66 704.46,197.86 705.07,198.26ZM699.62,196.65C699.62,196.25 700.3,195.83 700.53,196.95C700.03,197.05 699.73,197.05 699.62,196.65ZM701.04,189.29C700.64,190.6 699.73,191 698.72,191.51C698.52,189.39 699.73,189.59 701.04,189.29ZM675.22,211.47C674.51,210.56 674.82,209.76 675.72,208.85C676.03,210.06 675.72,210.77 675.22,211.47ZM679.25,210.77C678.8,210.77 678.83,209.68 679.55,209.86C679.74,209.86 680.22,210.77 679.25,210.77ZM687.62,204.82C688.93,206.03 687.82,206.43 687.42,207.04C686.82,206.13 687.22,205.63 687.62,204.82ZM685.91,190.7C685.81,191.51 685.61,191.91 684.7,191.61C684.8,190.9 685.1,190.5 685.91,190.7ZM687.22,196.65C686.41,198.06 685.51,199.27 683.49,200.28C684.4,198.16 685.71,197.36 687.22,196.65ZM682.38,210.47C683.09,211.58 682.58,211.88 681.47,211.78C681.37,211.07 681.78,210.67 682.38,210.47ZM674.82,195.24C676.33,195.54 676.34,196.73 677.24,197.16C678.06,197.54 678.85,196.25 680.06,197.46C677.74,199.07 674.72,196.55 672.8,199.07C673.91,197.96 674.01,196.55 674.82,195.24ZM673.51,224.48C672.4,223.47 671.29,222.56 671.9,220.85C673.31,219.74 673.82,220.95 674.42,221.76C674.51,222.87 672.7,223.17 673.51,224.48ZM428.96,266.74C426.04,264.82 427.55,262.71 428.35,260.49C431.75,260.68 432.85,265.44 428.96,266.74ZM436.52,266.13C430.92,266.19 435.98,266.64 433.6,260.99C509.06,260.99 510.72,257.74 511.05,262.1C511.25,264.86 515.07,265.26 436.52,266.13ZM514.78,275.51C521.58,282.99 527,294.19 515.59,296.79C513.85,293.06 510.45,280.84 510.45,273.6C510.45,271.18 508.94,269.67 507.02,267.85C515.4,265.92 514.76,257.51 507.63,256.86C507.29,255.95 508.2,255.68 509.95,253.94C518.71,253.76 517.79,259.84 515.9,267.86C512.26,270.17 511.85,272.29 514.78,275.51ZM492.19,267.54C515.71,267.54 507.06,267.32 496.12,287.2C494,280.85 493.3,274.3 492.19,267.54ZM494.81,296.89C497.94,287.91 503.28,280.15 508.93,272.39C506.81,281.47 507.22,290.84 505.8,299.92C500.96,300.32 497.74,299.41 494.81,296.89ZM523.05,313.23C514.86,319.29 508.59,308.65 503.08,303.15C505.86,302.27 508.61,304.43 509.23,296.19C510.4,280.62 509.78,285.54 512.96,295.18C515.33,302.36 522.69,297.33 525.16,291.25C524.22,288.93 523.07,280.11 517.8,275.42C514.98,273.3 514.47,270.78 515.88,267.96C526.23,260.04 513.7,244.82 505.9,255.05C503.92,257.65 507.67,256.97 491.68,256.97C489.11,254.4 502.99,198.46 521.93,221.37C543.73,247.71 538.75,301.6 523.05,313.23ZM530.41,309.09C529.5,310.8 528.09,312.22 525.77,313.43C541.85,291.93 546.23,249.72 520.22,215.91C525.25,215.47 542.38,232.55 542.71,258.16C543.12,290.04 539.06,295.54 530.41,309.09ZM610.88,533.67C611.19,532.75 611.59,533.87 611.69,533.97C611.1,534.56 610.75,534.21 610.88,533.67ZM592.63,520.46C592.73,521.77 591.92,522.98 592.33,524.49C590.62,524.19 589.41,523.58 588.09,522.67C588.09,518.08 589.79,519.45 592.63,520.46ZM780.3,253.22C777.98,253.22 776.47,252.61 775.86,250.3C778.08,250.2 779.09,251.51 780.3,253.22ZM773.64,252.01C773.48,252.17 772.62,252.45 771.72,250.19C773.14,250.1 773.34,251.11 773.64,252.01ZM709,258.87C705.82,255.24 709.66,256.12 765.67,254.94C765.8,258.69 767.32,257.36 720.19,258.67C716.47,258.77 712.73,259.17 709,258.87ZM759.12,260.38C760.33,263.2 761.34,265.83 762.15,268.75C765.68,270.57 769.91,271.07 772.94,273.89C770.22,279.23 766.85,284.27 765.98,290.53C765.77,292.04 764.67,293.35 763.46,293.56C759.32,294.26 756.5,297.39 752.97,299.51C750.55,294.37 746.71,290.55 742.58,286.9C736.92,281.9 741.2,266.25 726.75,262.5C718.93,260.94 744.77,260.77 759.12,260.38ZM582.85,251.91C582.04,252.21 582.04,251.71 582.04,250.7C582.55,251.31 582.65,251.61 582.85,251.91ZM584.26,259.78C586.78,260.39 589.03,260.99 588.8,257.56C588.71,256.25 590.82,256.85 590.62,255.34C589.21,253.22 585.28,254.13 584.57,250.6C586.89,250.6 589.11,251.1 591.12,250.1C592.83,251.31 593.44,253.02 594.15,255.04C592.64,255.44 590.72,255.75 590.92,258.27C616.53,257.77 642.35,257.26 668.67,256.76C663.63,259.99 658.69,260.28 653.64,260.39C558.51,262.38 585.42,263.39 584.26,259.78ZM583.55,254.33C585.37,254.53 586.17,255.44 586.07,257.46C583.45,257.66 584.06,255.64 583.55,254.33ZM610.98,298.4C606.34,301.63 602.41,305.56 598.68,310.3C594.85,299.41 592.87,288.41 590.71,277.43C590.21,274.88 590.77,274.66 594.84,264.82C657.19,263.09 649.82,261.94 647.08,267.04C623.06,264.71 609.56,280.8 610.98,298.4ZM575.28,251.61C576.85,256.05 582.43,258.91 578.51,261.9C573.64,261.15 577.81,257.72 573.47,251.21C574.28,250.5 575,250.8 575.28,251.61ZM545.23,263.21C544.52,261.8 544.73,260.69 545.03,258.67C569.25,258.67 570.92,257.42 575.69,262.4C565.4,262.7 555.32,262.9 545.23,263.21ZM717.78,509.87C721.81,509.59 725.75,509.77 730.08,510.88C722.16,516.87 711.67,510.3 717.78,509.87ZM745.51,518.44C745.01,519.75 744,519.15 743.09,519.15C743.79,518.44 744.4,517.84 745.51,518.44ZM741.58,506.34C741.78,510.27 741.08,513.2 742.79,516.02C738.05,512.39 735.13,517.23 730.99,517.73C732.4,519.14 733.71,518.03 734.82,518.54C735.43,519.15 734.21,519.45 734.72,520.05C735.63,520.86 736.84,520.15 737.95,520.45C737.75,520.95 737.45,521.46 737.24,521.96C737.95,523.07 740.27,522.57 739.56,524.58C743.49,525.59 746.82,523.97 750.25,522.87C748.74,524.79 745.71,524.18 744.5,526.7C746.32,528.11 748.13,526.9 749.84,526.9C750.2,527.55 745.31,531.39 758.31,529.42C761.34,532.34 765.36,534.09 769.6,535.07C772.32,535.7 773.84,537.99 776.36,539.51C775.75,542.54 774.14,545.07 771.22,545.66C743.72,551.21 753.62,547.63 736.73,544.25C733.62,543.63 732.73,538.67 723.32,541.73C717.48,543.63 712.25,541.61 705.27,540.22C703.43,526.44 716.05,528.7 711.93,514C723.02,517.13 733.1,515.92 741.58,506.34ZM730.08,379.38C745.29,380.58 759.48,389.15 769.41,400.05C771.96,402.85 773.15,406.01 771.23,409.73C768.72,414.58 769.51,420.01 768.61,425.16C767.39,432.12 765.51,438.98 764.37,445.93C764.34,446.13 743.82,485.29 739.56,500.69C738.86,503.21 738.83,506.09 736.23,507.85C735.21,508.54 734.31,509.87 733.1,508.56C718.77,503.9 716.27,514.61 722.51,491.92C732.5,455.61 725.49,457.37 729.47,450.27C729.49,450.23 732.58,436.98 737.84,428.29C740.19,424.4 738.92,422.7 742.28,421.63C725.97,419.54 726.48,422.99 700.33,429.09C697.71,425.76 693.73,424.31 690.45,421.93C686.89,419.35 686.08,410.14 691.86,404.08C699.83,395.72 699.15,396.36 701.94,395.71C713.3,393.06 707.25,393.3 706.28,391.68C713.74,382.94 718.06,378.43 730.08,379.38ZM686.92,374.84C692.69,377.49 693,374.89 714.05,379.18C708.4,383.11 705.2,389.96 698.12,392.09C697.42,392.3 696.51,392.39 696.3,393C694.97,398.6 695.17,391.96 665.34,412.06C661.91,414.37 658.58,416.8 656.16,420.23C665.59,413.03 680.73,402.77 691.66,398.04C691.5,400.07 682.21,404.98 685.61,421.13C686.21,423.97 688.72,424.89 697.81,429.6C697.81,431.01 697.1,431.31 696.2,431.21C674.66,430.41 685.46,428.42 666.65,425.87C660.09,424.98 653.64,423.25 646.68,422.64C650.71,417.3 650.92,411.65 650.11,405.8C663.78,404.99 686.31,395.06 698.92,389.46C695.59,389.89 661.51,402.23 661.41,402.27C649.55,406.36 648,403.94 645.38,398.84C643.49,395.16 642.89,397.3 637.11,388.15C634.71,384.35 629.59,372.72 622.19,374.13C622.8,376.25 624.91,376.65 626.63,378.37C623.3,378.98 620.27,378.66 617.45,379.98C603.66,386.49 594.46,391.61 596.17,406.3C596.6,410 599.2,410.57 603.83,422.94C601.01,421.43 600.4,418.4 599.09,415.98C597.38,415.98 597.78,417.39 597.07,418.3C572.41,391.17 587.69,393.01 591.02,372.21C591.9,366.74 601.14,368.21 604.23,369.99C607.26,367.67 609.78,369.89 613.1,370.6C610.98,371.31 609.27,371.1 607.76,372.31C611.09,372.61 614.11,372.24 617.14,372.71C618.55,372.93 619.06,371.8 619.56,370.49C609.9,367.39 603.26,364.65 594.65,365.65C588.48,366.36 587.13,369.94 585.47,375.33C577.35,363.15 605.65,366.05 612.29,352.44C613,352.94 613.5,353.45 613.7,354.36C610.03,354.82 604.41,363.17 611.08,360.31C608.1,367.5 629.22,370.38 632.56,373.42C640.71,380.84 639.87,373.24 643.45,379.37C651.7,378.23 653.69,384.51 655.85,379.98C658.17,381.59 661.4,379.48 663.61,381.9C670.9,375.76 681.68,381.43 686.92,374.84ZM618.65,361.33C618.95,364.05 621.68,364.66 622.78,366.67C620.86,367.38 618.85,366.67 613.7,363.14C615.42,362.54 616.93,361.93 618.65,361.33ZM614.41,355.88C615.12,355.98 615.32,356.28 615.12,356.99C614.31,357.09 614.01,356.69 614.41,355.88ZM613.81,350.64C612.4,349.93 612.9,349.33 613.81,348.62C614.11,349.33 614.21,349.93 613.81,350.64ZM623.29,361.73C624.5,362.64 625.81,363.44 627.02,364.25C625,364.25 623.89,363.45 623.29,361.73ZM631.66,370.71C629.34,370 626.62,370.21 624.8,368.19C627.12,368.89 630.04,367.68 631.66,370.71ZM637,372.42C639.12,373.23 640.83,373.03 640.73,375.14C639.42,374.64 638.21,374.24 637,372.42ZM646.78,376.86C648.09,376.05 648.49,377.47 649.3,377.77C649.91,378.17 650.91,377.67 651.22,378.78C650.11,379.28 649.61,378.88 649.3,377.77C648.3,377.97 647.49,377.76 646.78,376.86ZM680.16,372.42C680.97,370.5 683.19,371.31 684.09,370C685.91,370.4 686.31,371.61 686.51,372.82C685.7,373.93 684.39,373.53 683.59,374.33C682.18,373.73 681.78,371.92 680.16,372.42ZM713.34,335.91C708.59,340.04 711.65,341.37 707.39,346.5C697.62,358.26 684.18,367.08 679.66,369.39C676.77,370.86 677.01,373.55 677.14,373.42C681.06,372.22 680.14,371.34 679.16,375.34C677.45,374.03 676.13,376.25 674.12,375.54C680.43,369.93 671.33,375.95 666.36,377.15C659.54,378.81 648.35,375.06 647,372.91C648.41,371.8 650.03,373.62 651.74,372.41C641.63,368.44 647.57,376.72 633.49,366.06C634.9,365.15 636.52,364.75 638.03,364.14C635.61,363.84 633.19,363.74 631.07,364.85C623.31,361.12 617.96,355.47 615.54,346.7C615.94,345.99 616.85,345.09 618.36,344.18C620.07,349.83 624.61,353.26 629.15,357.79C621.47,340.9 623.68,346.94 621.99,346.7C619.48,342.37 619.63,343.36 624.01,337.02C627.99,331.26 623.18,337.52 633.89,351.34C634.37,351.58 634.33,352.77 636.11,353.46C635.75,352.6 634.55,350.82 634.25,350.97C625,332.88 624.94,335.17 630.96,326.74C632.36,327.3 633.44,330.55 634.09,329.26C629.28,322.79 637.01,314.55 634.09,311.31C632.04,311.31 631.41,315.54 631.47,316.15C632.07,322.2 628.34,326.13 625.12,330.47C607.99,353.55 605.57,347.6 598.8,354.37C595.27,354.27 591.64,353.97 588.21,354.57C582.97,350.33 579.85,344.78 577.82,338.44C573.93,326.29 572.4,328.86 573.08,301.43C573.73,275.29 571.93,269.81 565.62,266.24C575.85,263.75 582.66,268.12 583.97,266.54C586.19,264.32 588.81,265.53 591.53,265.13C591.53,271.48 586.92,272.56 588.71,277.84C589.65,280.62 593.01,304.79 597.58,313.94C599.52,317.81 598.14,319.95 600.81,331.39C601.92,336.14 604.05,334.93 603.43,330.68C601.49,317.27 599.25,313.56 605.75,306.98C609.81,302.87 613.92,299.01 619.87,298C619.06,295.28 619.06,295.28 613.42,297.39C612.92,281.86 630.77,264.72 647.61,269.36C650.66,269.08 647.73,262.06 654.77,279.65C653.06,280.66 651.14,280.26 649.83,281.77C651.75,282.58 653.46,281.37 655.48,281.47C655.58,283.49 656.19,285.4 654.98,287.22C657.5,289.44 655.7,292.06 655.48,294.38C654.58,303.87 650.84,312.2 642.67,316.97C637.93,305.37 633.8,300.03 629.56,300.73C645.78,325.71 639.95,314.54 633.39,322.92C634.52,324.68 637.42,323.13 636.72,323.83C637.25,323.3 636.53,325.79 639.44,325.65C639.05,324.28 637.72,324.24 636.9,323.68C644.47,317.25 640.73,326.74 662.33,330.69C655.98,327.06 649.42,324.74 643.37,320.61C654.52,313.98 658.82,300.6 658.6,289.85C658.46,283.03 655.02,275.39 650.94,265.95C652.65,264.54 654.87,265.14 655.98,263.33C657.39,265.75 659.6,266.97 661.22,268.67C669.61,277.47 666.92,279.26 671.71,284.6C681.21,295.2 688.76,302.89 697.53,303.16C710.99,303.56 717.9,295.67 717.9,288.74C717.9,277.49 723.01,274.79 714.57,262.52C718.55,260.4 721.42,271.01 721.73,273.92C724.14,296.33 731.41,299.24 729.29,307.6C727.96,312.76 729.37,321.95 713.34,335.91ZM789.27,265.02C793.21,270.93 786.34,283.1 785.74,284.89C772.93,323.22 771.24,325.61 755.99,340.86C749.22,340.31 748.28,339.72 726.24,325.03C730.25,318.14 733.59,302.5 731.58,299.11C730.95,297.84 734.17,291.98 733.4,286.4C731.58,287.71 731.58,287.71 730.27,296.69C726.54,291.24 725.86,284.92 724.02,279.14C721.77,272.09 725.17,272.44 718.78,261.69C734.72,269.13 730.91,266.77 734.61,275.51C737.46,282.24 737.02,284.96 742.58,290.43C753.76,301.45 752.88,316.69 759.62,318.46C758.81,315.94 758.11,313.52 760.12,311.5C758.81,310.59 758.61,312.11 757.6,311.9C756.39,309.08 754.27,306.35 753.67,302.82C756.09,301 758.11,299.2 761.33,298.38C764.86,297.48 767.92,294.65 768.49,290.41C768.98,286.78 774.29,274.83 774.94,273.87C776.27,271.92 773.68,269.88 777.66,265.9C775.84,265.09 775.84,265.09 773.12,271.45C770.4,269.63 767.27,269.03 764.14,267.92C760.05,257.92 760.77,261.9 766.86,260.76C769.48,259.45 766.36,255.82 769.48,255.11C768.87,252.89 766.56,251.78 766.76,249.46C770.63,247.52 768.89,251.89 770.79,253.29C773.2,255.06 772.41,253.51 773.71,251.98C776.73,258.21 782.72,255.18 789.27,265.02ZM784.13,256.95C783.93,255.13 783.52,253.52 782.52,252.11C785.44,251.3 784.54,254.33 785.44,254.83C796.03,253.92 806.31,254.43 817,253.92C816.06,256.94 817.98,255.95 784.13,256.95ZM813.38,259.27C814.99,259.27 816.2,258.26 817.62,257.76C821.1,256.77 821.07,250.24 816.41,250.7C814.06,250.7 816.05,249.02 817.62,247.88C828.67,253.41 819.14,273.46 813.38,259.27ZM820.74,247.27C835.36,244.5 835.86,266.63 821.85,265.12C824.97,258.77 826.38,252.82 820.74,247.27ZM801.98,259.78C804.7,258.97 807.32,259.48 810.05,259.17C814.23,264.39 815.63,266.74 819.73,266.53C821.34,266.45 823.16,267.08 824.97,266.93C838.7,265.82 837.04,245.64 824.37,245.55C818.25,245.51 813.6,244.69 812.37,251.1L802.08,251.1C801.68,236.58 807.46,224.91 818.32,215.91C822.65,212.32 825.97,213.39 831.73,213.79C837.8,214.21 843.87,223.78 845.24,226.9C847.18,231.31 856.46,240.79 849.48,274.09C842.46,307.55 804.71,310.5 801.98,259.78ZM854.52,272.69C852.38,281.56 852,282.07 844.64,291.55C844.03,291.25 844.34,290.85 844.54,290.54C854.28,275.21 858.35,246.5 847.06,225.29C845.95,222.87 843.83,220.85 842.72,218.13C858.06,230.96 859.23,253.15 854.52,272.69ZM885.48,254.23C882.63,254.37 863.94,255.09 859.87,254.43C862.75,251.89 923.45,252.4 885.48,254.23Z" style="fill-rule:nonzero;"/>
        <path d="M243.01,115.37L242.91,115.27C242.95,115.35 242.85,115.32 243.01,115.37Z" style="fill-rule:nonzero;"/>
        <path d="M463.95,131.51C469.79,131.72 475.71,132.9 475.45,127.58C475.24,123.2 474.48,124.45 438.34,123.14C434.18,122.76 435.28,123.87 434.21,113.86C432.46,97.49 423.91,85.43 407.39,82.4C395.49,80.22 389.84,87.79 383.49,95.51C377.18,103.17 377.12,111.94 375.42,120.22C374.39,120.56 365.48,121.51 362.51,117.6C361.6,116.4 360.09,115.09 358.48,115.28C354.19,115.77 347.19,110.95 343.56,111.04C341.95,113.96 338.82,116.08 337.11,119.11C280.2,116.92 285.88,120.92 285.88,104.79C288.4,103.48 289.4,101.16 290.12,98.54C291.11,94.91 293.5,91.68 293.45,87.55C293.35,78.95 298.07,78.94 293.95,70.41C292.34,81.6 291.83,92.9 286.39,103.18L273.99,103.18C277.22,106.41 280.75,104.29 283.87,105.4C283.67,109.23 283.57,113.06 284.58,117.3C296.28,122.44 296.78,132.53 295.27,143.52C288.82,146.55 283.17,151.08 275.81,147.86C275.61,143.83 269.86,138.28 265.62,137.98C262.98,137.79 253.03,135.89 251.5,133.74C245.61,125.48 243.84,113.44 240.31,113.67C234.93,116.22 238.17,115.09 172.44,112.56C171.17,111.29 171.29,105.51 166.69,106.21C164.64,106.52 167.09,106.11 153.28,106.11C155.07,109.69 152.84,106.76 157.72,108.43C160.83,109.5 161.55,112.06 159.64,115.89C161.05,116.39 162.46,117 163.67,117.4C176.53,115.56 135.41,114.02 232.75,118.01C232.31,122.23 207.95,120.74 157.92,118.82C159.69,114.29 156.29,111.5 154.52,108.17C154.13,107.93 152.78,107.8 151.06,107.32C149.65,106.93 148.94,107.72 148.64,108.93C148.96,109.05 149.27,109.18 149.57,109.32C149.34,109.1 149.07,108.9 148.74,108.73C153.77,108.54 153.74,110.89 157.21,116.29C155.09,116.9 153.68,115.58 152.07,115.68C150.62,113.12 151.6,110.24 148.64,108.92C145.5,107.03 142.19,111.57 139.16,111.54C118.15,111.37 120.09,111.33 120.1,107.81C120.17,91.73 111.54,74.7 105.48,70.09C100.55,66.34 94.79,65.85 88.94,65.15C88.03,65.96 87.53,67.38 86.22,67.57C78.43,68.67 67.65,86.73 64.54,108.51C57.53,108.22 13.3,106.61 6.35,105.99C-1.25,105.31 -3.42,116.81 7.86,116.98C66.82,117.88 62.15,118.5 64.63,119.1C66.33,140.82 69.61,140.23 66.55,146.13C64.9,148.88 67.16,151.23 68.87,151.88C73.35,153.58 73.78,156.62 79.46,163.58C97.22,185.33 119.59,151 120.2,121.02L136.84,121.02C137.65,122.94 137.14,124.55 138.25,125.66C138.96,125.86 138.65,124.45 139.76,125.05C137.66,129.62 147.16,129.45 147.93,136.55C148.46,141.49 149.73,146.43 149.54,151.47C148.95,167.44 150.82,184.71 160.33,197.56C164.75,203.54 169.35,225.44 188.36,212.48C193.21,209.17 197.13,204.4 202.88,202.29C204.33,201.76 209.1,196.16 211.86,189.68C214.78,198.96 218.21,207.43 218.31,216.71C224.21,202.94 210.18,192.36 215.59,180.71C219.02,180 221.94,177.99 224.46,175.67C230.01,179.1 231.22,179.1 232.12,175.77C230.71,174.76 228.69,174.16 227.99,172.24C234.88,166.9 234.35,160.05 236.26,156.71C242.68,145.44 237.01,135.34 237.77,132C239.04,126.48 234.75,120.51 235.15,118.39C240.96,116.94 236.35,109.77 249.77,134.02C250.49,135.32 251.2,136.54 251.48,138.05C252.13,141.57 257.63,146.12 260.96,146.32C260.73,143.84 257.68,144.32 254,137.24C263.98,137.24 271.14,140.77 274.57,147.53C269.93,146.52 265.39,146.42 260.96,146.32C265.4,148.03 270.46,148.29 275.08,150.15C283.69,153.62 301.18,145.77 298.17,135.83C296.62,130.7 297.06,124.94 292.93,120.3C304.1,121.7 299.58,134.27 305.64,138.05C306.32,138.05 303.24,130.17 302.92,125.55C305.38,124.43 304.57,127.2 307.16,128.27C317.74,132.64 315,145.58 317.9,150C318.59,149.9 319.59,144.22 317.55,137.13C314.63,127.01 309.24,129.04 310.29,126.94C353.8,128.48 324.62,127.47 347.3,135.81C359.77,140.4 347.31,142.64 346.69,152.45C346.55,154.7 342.31,157.51 342.07,160.07C341.52,159.79 336.63,161.47 332.07,165.25C327.3,154.11 310.54,147.44 320.98,155.37C334.19,165.4 326.32,168.68 335.5,183C341.21,176.83 342.72,169.71 335.4,179.47C333.69,175.54 332.58,171.91 332.48,167.97C337.73,162.96 342.15,163.01 342.15,160.21C345.16,160.21 348.13,152.67 348.61,151.74C353.57,142.17 355.4,142.01 353.85,138.23C362.09,134.49 355.83,139.1 339.93,130.57C339.32,129.96 338.92,129.06 339.32,128.05C340.63,127.34 342.04,128.25 343.56,127.75C350.04,121.76 339.12,117.26 345.27,112.93C349.1,113.84 350.11,117.37 350.11,121.4C352.53,123.82 356.22,124.98 358.38,127.85C358.72,128.31 359.95,128.97 360.51,128.29C357.69,124.62 357.67,124.48 357.08,118.77C358.29,119.27 357.38,120.79 358.39,121.59C360.41,121.39 359.6,119.77 359.7,118.26C373.41,125.57 334.5,121.33 392.07,124.41C391.25,128.02 388.99,125.52 360.51,125.52C359.4,126.73 361.91,127.45 360.7,128.55C360.53,128.34 360.49,128.54 360.53,128.64C364.91,128.64 365.91,128.04 367.46,130.26C371.54,136.13 369.85,135.11 360.01,169.28C362.24,167.36 363.17,164.61 364.03,162.03C375.15,128.72 371.19,136.53 369.58,128.45C371.29,128.25 372.81,128.15 374.62,128.75C376.37,151.46 380.08,173.84 405.58,170.4C425.06,167.77 430.51,149.86 434.42,130.88C435.31,130.36 433.03,130.41 463.95,131.51ZM435.01,126.26C470.59,126.82 489.41,129.05 453.97,128.48C432.41,128.14 435.01,128 435.01,126.26ZM163.34,115.17C162.73,112.65 162.73,110.03 161.52,107.71C165.86,109.12 166.47,111.74 163.34,115.17ZM169.19,112.45C166.16,112.55 167.68,109.42 166.16,108.42C169.29,108.41 169.39,108.61 169.19,112.45ZM4.21,114.16C1.18,112.34 3,110.23 3.6,108.11C7.32,107.52 7.99,113.08 4.21,114.16ZM199.04,135.54C197.18,139.02 193.33,148.87 194.2,151.78C196.52,157.89 189.42,155.57 183.81,166C180.67,171.84 181.64,170.57 177.76,165.5C175.54,162.61 179.34,164.43 174.13,154C170.8,147.34 169.08,140.27 168.18,133.02C167.63,128.58 170.5,125.56 172.82,122.23C235.74,124.13 207.17,120.3 199.04,135.54ZM154.06,118.5C152.65,118.7 151.84,118.8 150.83,118C152.25,116.78 152.85,117.89 154.06,118.5ZM147.41,109.82C149.12,111.53 148.52,113.75 148.92,115.77C146.7,114.66 145.89,112.34 143.88,111.03C144.99,110.33 145.99,109.62 147.41,109.82ZM9.05,113.76C9.45,112.35 9.86,110.94 9.25,109.42C13.18,109.42 16.91,109.3 20.65,109.42C91.65,111.77 86.24,110.76 86.1,115.47C83.27,116.68 25.18,115.47 9.05,113.76ZM95.27,139.47C96.79,145.22 95.37,147.64 89.22,149.25C87.11,148.55 85.2,132.1 85.09,129.89C84.9,126.26 85.7,122.53 81.76,119.91C91.22,117.6 89.71,109.6 82.77,109.02C83.38,107.71 84.48,106.9 85.59,106.2C94.82,106.38 92.76,113.26 90.53,120.82C82.54,123.81 92.49,128.98 95.27,139.47ZM67.24,119C91.12,119 81.27,119.78 69.76,139.17C68.04,132.21 67.84,125.66 67.24,119ZM67.94,148.35C71.67,139.27 77.42,131.81 83.57,124.45C81.15,133.53 80.54,142.8 78.83,152.08C74.5,151.88 70.87,151.07 67.94,148.35ZM89.72,168.11C83.17,165.59 79.53,160.45 76.01,154.9C77.62,154.19 79.61,155.19 80.65,153.39C82.45,150.27 82.24,144.85 83.98,138.87C85.55,146.44 85.68,154 92.25,150.57C97.57,147.79 98.09,144.8 97.59,142C94.94,126.91 87.13,127.43 90.53,120.92C101.72,110.29 88.53,97.9 81.35,107.1C79.97,108.86 82.59,108.41 68.44,108.41C68.04,108.41 67.53,108.31 66.62,108.21C67.83,101.76 69.05,95.41 71.56,89.45C94.51,34.94 118.93,100.43 108.77,139.37C106.22,149.19 99.82,167.19 89.72,168.11ZM118.16,110.93C118.01,114.82 118.84,136.02 110.5,151.47C109.25,153.78 102.93,164.32 98.1,166.29C112.83,149.57 124.28,107.74 98.5,69.08C104.37,69.34 119.04,87.66 118.16,110.93ZM120.48,113.45C148.06,114.5 144.11,113.32 147.3,118.29C120.09,117.7 118.47,118.49 120.48,113.45ZM235.14,137.86C234.64,138.47 233.22,137.96 232.82,139.17C233.43,140.08 234.53,139.27 235.44,139.98C235.64,143.01 235.09,146.11 236.05,149.26C236.48,150.66 235.66,152.19 235.04,153.5C230.41,163.33 234.37,163.48 225.66,170.44C220.82,167.82 220.82,167.82 219.41,169.13C219.71,170.95 221.63,171.55 222.54,172.96C221.13,175.48 220.32,176.19 217.2,177.6C216.09,174.68 218.51,171.55 217.1,168.52C211.59,170.43 217.62,173.63 210.85,185.46C206.7,192.71 207.17,197.5 202.48,199.58C191.07,204.64 187.33,214.29 178.38,213.6C173.96,213.26 167.22,208 165.98,202.71C164.61,196.88 156.48,192.6 153.78,174.57C152.01,162.76 154.25,162.22 150.05,135.64C149.46,131.91 146.52,128.88 141.58,125.56C141.58,119.66 138,121.02 170.22,122.03C169.01,126.13 165.23,128.04 166.39,134.23C171.76,162.96 169.13,145.11 164.07,140.38C163.16,143.51 165.48,144.72 166.79,146.63C165.78,148.45 166.88,149.97 168,151.47C173.77,159.2 170.94,160.42 173.37,161.53C170.28,150.94 175.27,159.6 175.66,165.68C177.88,169.71 180.6,173.55 182.32,177.78C184.04,182.01 184.14,186.86 186.56,191.19C188.93,185.81 182.89,177.55 182.02,172.94C186.86,165.28 191.6,157.51 200.47,153.78C199.28,151.55 198.07,154.07 196.54,153.88C194.42,150.99 200.13,142.59 201.58,136.53C202.35,133.32 210.56,129.32 213.18,126.24C214.29,124.93 216.4,124.71 218.32,124.53C223.16,124.07 227.6,122.31 232.44,121.5C235.64,126.36 236.65,131.81 235.14,137.86ZM341.13,117.59C342.85,119.55 341.32,119.96 339.11,119.3C339.21,117.79 340.62,118.3 341.13,117.59ZM340.62,124.85C297.67,122.84 306.01,124.02 302.9,123.84C301.99,123.03 302.5,121.72 301.19,121.42C302.61,120.48 296.15,120.37 343.14,122.43C343.75,125.05 342.14,124.92 340.62,124.85ZM351.92,116.48C354.24,117.39 353.94,119.81 355.45,121.32C351.82,120.21 351.01,119.1 351.92,116.48ZM395.18,123.84C395.02,120.91 392.76,121.42 390.84,121.22C391.65,119.51 391.65,119.51 393.36,118.3C399.11,121.73 399.21,131.21 393.26,135.34C390.94,134.03 388.92,132.52 388.12,129.69C391.15,127.92 395.48,129.32 395.18,123.84ZM396.39,117.99C405.91,116.96 409.65,125.64 405.26,132.91C403.18,136.36 399.92,136.34 396.18,135.94C400.83,128.48 400.72,123.64 396.39,117.99ZM391.85,167.81C380.17,161.11 376.72,143.75 376.72,130.3C377.17,128.96 376.05,129.29 384.99,129.29C386.48,130.41 387.92,138.8 401.12,137.66C405.86,137.25 410.01,131.91 409.29,127.17C407.91,118.19 405.96,116.43 396.89,116.18C390.84,116.01 390.74,116.08 387.41,121.22C385.8,121.83 384.08,121.22 382.37,121.12C380.66,121.02 378.94,121.32 377.43,120.72C378.28,91.53 406.81,72.49 418.17,92.79C423.78,102.81 431.79,112.85 424.22,142.71C422.43,149.78 419.99,156.43 415.35,162.17C410.61,168.02 398.32,171.52 391.85,167.81ZM432.29,122.43C431.09,149.19 424.24,155.93 418.07,163.27C416.16,161.36 424.48,160.07 428.96,127.97C431.16,112.24 426.56,102.03 419.48,89.95C423.78,91.73 433,106.49 432.29,122.43Z" style="fill-rule:nonzero;"/>
        <path d="M315.11,145.83C315.28,146.83 315.54,147.79 316.03,148.6C315.67,145.09 315.07,145.46 315.11,145.83Z" style="fill-rule:nonzero;"/>
        <path d="M278.38,265.63C278.51,265.78 278.37,265.48 278.38,265.63Z" style="fill-rule:nonzero;"/>
        <path d="M360.69,540.93C361.38,538.12 358.49,533.64 352.52,533.17C342.31,532.37 339.17,517.68 321.06,507.45C318.29,496.93 324.31,448.63 324.49,447.04C327.52,419.66 321.8,422.9 326.91,404.18C328.12,399.74 326.62,397.29 324.49,391.68C318.67,376.36 324.05,380.34 320.46,365.36C325.1,362.84 324.99,362.84 323.59,357.8C321.57,350.54 318.95,343.38 317.94,335.92C315.71,319.37 310.59,320.82 312.19,313.73C313.68,307.14 308.24,296.13 304.32,290.84C303.08,290.22 300.6,294.41 300.08,278.54C299.69,266.61 293.02,267.23 291.91,265.23C293.32,262.91 290.3,259.08 294.53,257.26C293.22,254.74 293.43,252.22 294.33,249.8C298.32,239.04 293.7,231.63 299.37,218.94C302.38,212.21 305.81,203.02 307.13,194.44C316.9,199.68 314.64,203.3 330.53,210.07C335.84,212.33 336.06,208.83 343.03,202.2C352.37,193.33 357.92,182.5 359.85,169.73C358.35,169.54 357.85,170.55 357.55,171.75C352.78,187.01 356.29,183.44 335.97,206.84C330.03,213.67 317.8,198.43 307.23,191.51C308.91,173.03 319.34,175.16 316.3,150.85C313.52,140.87 314.21,148.01 313.8,148.76C310.35,145.72 307.7,139.6 305.93,138.33C304.42,138.28 302.9,137.5 313.39,157.53C312.78,166.61 310.39,175.6 304.82,183.45C303.13,185.83 303.48,187.07 303.31,199.58C303.25,204.26 302.16,199.91 300.59,207.04C299.08,213.88 295.75,220.05 293.33,226.5C290.81,227.91 287.68,226.6 285.16,228.11C287.88,228.61 290.5,227.61 292.92,228.21C293.83,238.4 292.82,248.18 290.3,258.77C287.68,261.69 282.74,261.8 278.4,263.71C278.6,262.3 280.32,262.5 280.32,260.99C270.32,264.17 273.95,266.84 266.1,265.53C260.1,264.86 258.97,265.37 256.72,263.31C255.51,262.2 254.2,261.09 252.28,260.99C253.29,262 254.3,262.91 255.91,264.42C228.99,263.33 224.19,262.76 218.8,259.58C215.78,257.8 218.99,258.03 218.4,256.25C217.49,254.84 215.98,253.43 215.48,251.31C211.62,252.85 215.66,256.67 215.78,257.16C214.87,258.07 213.66,257.26 212.86,258.07C211.33,268.98 206.87,268.74 205.1,276.42C200.44,296.63 205.13,306.48 200.56,317.26C199.18,320.52 196.26,336.38 196.93,346.61C197.59,356.67 196.36,346.82 195.42,374.54C195.23,376.65 197.99,377.21 199.86,377.77C199.36,381.4 202.68,383.92 202.78,387.65C198.15,391.35 199.22,411.19 193.3,419.21C183.56,432.41 173.01,441.99 174.85,459.65C176.01,470.83 173.62,473.96 173.94,486.37C174.21,496.53 174.59,488.28 170.21,517.73C168.8,517.93 167.39,516.02 165.67,517.63C165.17,519.34 166.48,521.46 164.86,523.08C163.85,523.58 162.04,522.88 161.63,524.79C166.77,528.42 172.32,528.82 173.23,525.6C171.04,524.19 166.71,527.24 169.7,521.26C171.62,522.67 174.34,522.37 176.05,524.39C175.14,527.21 175.95,529.53 178.37,531.45C180.1,514.57 185.17,524.12 190.57,523.58C191.28,526.4 192.89,528.92 192.18,531.85C186.53,532.86 180.68,532.35 176.05,535.98C176.39,536.99 174.71,537.01 186.74,535.78C183.31,537.6 179.68,537.9 177.36,540.92C180.08,542.03 182.3,540.42 184.72,540.62C182.7,542.23 179.48,542.13 178.27,544.75C179.28,546.16 180.69,544.85 181.6,545.66C179.19,550.73 187.04,547.95 190.47,547.37C191.98,549.79 194.4,548.28 196.62,548.38C196.01,549.39 194.79,550 195.71,551.2C196.96,552.84 201.99,550.39 203.88,548.38C207.51,550.2 210.13,552.51 211.14,556.35C207.38,561.72 211.2,560.39 206.4,563.81C200.81,567.79 174.98,564.52 173.83,563.91C173.33,561.59 171.21,560.18 169.7,558.46C168.49,558.66 168.99,559.67 168.39,560.17C166.33,558.11 156.23,559.07 159.01,555.73C159.92,555.93 160.32,557.65 161.63,556.64C162.61,555.1 159.67,550.42 161.43,547.36C164.61,541.84 163.45,535.96 163.45,530.22C163.45,528.4 163.05,526.69 160.83,525.88C158.27,534.53 163.32,535.5 159.62,543.73C158.3,546.65 157.8,549.58 158.31,552.91C155.99,554.22 156.7,556.44 156.29,558.36C160.22,561.89 164.96,561.18 169.4,561.59C170.91,565.22 173.53,567.14 177.16,567.14C195.26,567.14 207.64,570.51 211.55,562.1C214.55,555.63 213.41,551.58 208.02,547.38C207,546.59 206,545.77 204.89,545.26C197.12,541.07 196.16,528.02 193.29,521.26C192.43,519.24 196.45,492.05 208.82,467.61C214.57,456.26 213.96,443.71 215.37,431.51C213.86,431.11 213.96,433.12 212.65,433.33C208.97,427.03 209.16,426.69 207.71,425.97C206.97,429.67 213.79,431.05 211.54,445.43C206.39,478.36 196.98,475.55 192.68,509.16C192.2,512.89 190.16,516.22 190.86,520.15C187.03,520.35 184.61,516.82 181.08,518.33C180.58,519.74 179.77,521.05 177.95,521.66C171.28,518.07 174.56,519.45 174.92,512.38C175.83,494.61 179.49,478.4 178.75,452.98C178.55,446.03 178.34,442.65 190.55,426.96C204.15,409.49 197.54,413.56 202.95,401.65C204.88,397.41 208.14,383.8 202.65,379.46C199.33,376.84 206.33,373.21 220.8,378.85C222.95,387.99 213.34,383.87 211.22,391.76C216.06,390.85 218.78,387.12 222.82,385.91C223.63,383.69 223.02,381.27 223.83,378.95C228.37,379.15 232.91,379.05 237.44,379.96C237.94,389.14 232.8,396.6 230.58,405.17C229.07,402.85 230.88,399.93 228.06,397.71C227.35,402.05 227.51,405.86 226.45,409.61C222.73,422.71 218.81,424.42 216.77,430.08C226.87,422.96 228.06,412.4 232.5,404.87C240.05,392.08 238.12,390.31 239.86,380.47C243.64,380.31 246.26,386.04 247.22,378.45C248.61,367.57 248,366.01 250.75,363.83C253.74,361.46 254.04,359.32 258.31,350.12C261.34,359.2 264.97,367.67 266.07,376.84C266.16,378.27 266.37,379.88 267.94,380.64C267.49,381.38 266.08,381.53 266.28,383.19C269.51,385.01 273.04,382.99 276.47,383.39C284.52,394.02 287.94,393.3 288.97,400.13C289.5,403.61 292.56,412.88 296.03,413.54C297.09,410.71 292.33,406.07 292.3,401.94C292.21,391.93 285.39,391.87 279.8,382.68C286.15,379.86 292.42,377.27 298.76,375.22C305.22,373.13 310.46,368.56 317.11,366.95C318.81,371.07 319.16,384.89 321.75,390.55C323.15,393.62 326.33,400.78 324.27,403.46C322.23,406.12 320.73,417.37 321.14,422.22C318.11,423.93 315.9,426.05 314.28,428.98C319.25,427.07 323.85,414.57 321.94,442.29C321.41,449.98 315.2,492.31 318.41,507.23C314.88,511.16 310.04,509.55 305.5,511.36C305.5,502.47 304.34,490.87 305.6,483.93C303.48,492.8 304.09,501.98 303.38,511.16C299.35,513.08 299.35,513.08 296.72,509.04C294.3,509.54 293.81,511.95 294.6,513.17C298.27,518.85 293.69,522.83 293.69,524.57C293.08,529.91 292.38,535.16 291.07,540.6C292.78,541.1 292.48,543.02 293.69,543.93C299.01,544.75 306.13,544.63 315.98,548.57C330.22,554.27 336.52,550.92 345.43,551.7C351.42,552.22 363.86,549.71 361.16,544.24C360.7,543.24 360.39,542.14 360.69,540.93ZM313.5,150.06C314.41,150.16 314.61,150.67 314.21,151.37C313.6,151.17 313.09,150.87 313.5,150.06ZM201.96,544.96C200.65,545.67 199.74,545.46 198.53,545.06C198.33,543.35 197.02,542.03 196.51,540.22C198.23,541.94 199.74,543.65 201.96,544.96ZM194.3,535.99C194,535.49 193.29,535.28 193.29,534.28C194.3,534.58 194.1,535.38 194.3,535.99ZM194.2,536.09C195.21,536.29 194.81,537.5 196.12,538.01C184.16,540.6 193.4,538.96 194.2,536.09ZM297.06,280.25C293.43,276.12 291.82,271.07 289.4,266.33C293.8,272.67 297.8,269.46 297.06,280.25ZM289.29,261.39C288.58,262.6 287.17,262.4 286.47,263.71C286.03,262.38 285.22,263.24 289.29,261.39ZM268.52,380.69C270.15,377.43 265.65,362.51 264.49,360.13C260.73,352.4 258.65,346 261.67,339.66C263.3,336.24 262.98,332.1 265.5,328.26C262.17,330.48 260.68,333.11 259.75,336.23C246.86,379.58 247.04,347.34 244.52,379.19C234.24,374.81 232.8,378.59 214.57,373.54C209.43,372.12 204.18,372.43 199.14,373.44C197.83,372.43 199.64,369.91 196.82,369.71C202.21,354.62 199.28,340.96 199.85,335.73C199.45,335.43 200.56,335.33 200.15,335.63C200.26,335.84 201.25,336.52 201.56,336.74C199.34,327.97 202.77,320.5 205.29,313.04C206.7,312.94 206,314.45 207,314.65C207.61,311.42 207,308.1 207.81,305.07C207.15,302.87 203.73,308.57 207.71,288.43C211.44,269.56 206.48,276.06 214.97,263.93C218.7,267.26 223.54,266.25 228.18,267.26C228.08,266.05 228.28,264.97 226.57,265.14C225.36,265.26 224.75,264.13 223.54,264.03C222.73,264.03 221.93,262.11 220.92,263.83C219.81,264.13 219.71,260.4 218,263.33C217.39,262.32 217.19,261.01 215.78,260.51C216.28,260.41 216.39,260.31 216.49,260.31C229.33,265.8 241.4,265.21 266.21,266.86C265.5,269.48 268.63,268.17 269.13,269.99C271.37,265.85 276.74,266.66 284.36,263.03C284.56,265.85 280.02,263.64 281.03,266.86C282.04,267.57 282.34,266.25 283.05,266.15C284.06,266.15 283.76,267.97 284.66,267.66C286.17,267.46 285.77,265.95 286.88,265.64C288.07,267.3 295.82,280.69 297.17,284.4C300.08,292.43 304.3,289.76 309.27,308.1C310.58,312.95 306.86,316.01 311.19,322.72C315.66,329.65 313.08,329.84 321.98,362.15C308.06,368.33 283.75,379.34 268.52,380.69ZM340.32,529.63C340.99,528.96 341.38,530.23 340.62,530.23C340.22,530.24 340.12,529.94 340.32,529.63ZM321.16,510.17C323.88,511.68 325.6,514.1 328.02,516.22C323.68,517.53 319.65,518.44 315.31,519.04C318.24,516.83 317.53,512.29 321.16,510.17ZM311.08,544.06C306.44,541.98 308.71,545.04 295.45,542.24C294.56,520.99 299.13,523.1 299.79,519.35C300.56,514.91 300.6,514.92 305.03,514.01C319.03,511.14 315.39,512.02 313.9,515.72C309.87,516.93 306.03,517.74 301.9,518.34C304.62,520.76 305.33,520.76 312.79,518.54C314.1,518.84 313.09,520.96 314.71,520.96C316.53,520.96 315.62,522.57 316.32,523.48C320.16,524.17 328.49,522.76 334.07,521.36C332.25,522.97 330.14,522.67 328.12,522.77C326.1,523.98 323.58,524.18 321.77,525.8C322.38,527.72 324.09,526.61 325,527.41C325.2,530.13 325.2,530.13 331.45,529.93C332.56,533.76 339.92,535.68 344.56,533.16C356.24,540.46 355.46,529.98 359.08,546.27C355.51,549.55 330.15,552.6 311.08,544.06Z" style="fill-rule:nonzero;"/>
        <path d="M250.97,108.92C252.69,107.41 253.39,105.49 253.29,103.37C252.99,97.22 254.3,91.07 254,84.92C253.9,82.9 253.9,80.99 255.31,79.17C253.9,78.77 252.39,78.77 252.28,77.05C252.89,76.55 254.1,77.05 254.6,75.94C255,74.83 254.4,73.22 255.31,72.31C256.92,73.12 256.12,75.03 257.53,76.85C260.25,69.39 263.08,62.63 267.31,56.38C269.63,57.09 270.44,54.97 272.15,54.06C271.57,52.59 270.97,51.4 270.48,50.22C272.56,49.66 272.87,51.75 273.87,53.05C276.24,47.13 284.3,53.06 292.32,50.33C291.61,55.07 293.73,59.2 294.34,63.34C285.97,66.57 285.77,68.99 286.88,72.92C286.88,73.02 287.18,73.02 287.49,73.12C287.79,72.31 287.49,71.2 288.3,70.3C290.22,70.5 292.13,70.1 294.15,69.19C294.55,66.47 296.67,63.75 295.66,61.02C294.24,57.19 294.65,53.15 293.84,49.62C295.66,46.7 298.78,46.19 300.8,43.97C300.5,42.86 301.41,41.65 300.7,40.54C299.29,39.63 297.98,40.64 296.57,40.34C297.38,38.93 299.7,39.23 299.6,37.11C297.89,35.7 296.37,37.41 294.86,37.51C294.25,35.8 295.26,33.88 294.05,32.17C292.44,32.67 291.93,34.49 290.42,34.79C287.69,31.43 283.71,35.96 280.74,35.29C276.61,34.36 272.67,35.29 268.94,34.99C267.43,35.39 267.53,37.51 265.71,37.21C265.1,36.71 266.11,35.29 264.4,35.19C262.18,37.61 259.56,39.53 255.73,39.32C254.32,37.91 253.01,36.4 250.79,37.4C250.39,39.01 252.3,39.32 252.4,40.43C250.79,42.35 249.55,44.46 249.07,46.38C247.37,53.18 243.56,59.91 244.73,65.74C245.38,68.96 247.91,71.77 246.65,75.42C246.55,75.72 246.95,76.23 247.15,76.63C249.37,80.24 249.2,86.83 250.38,88.33C253.55,92.37 250.36,95.82 251.69,102.55C252.01,104.16 251.98,105.96 250.58,106.99C248.14,108.78 246.55,111.33 244.23,113.24C243.52,113.74 242.82,114.35 243.12,115.46C246.74,114.56 248.45,111.14 250.97,108.92ZM291.51,67.57C291.91,66.86 292.32,66.66 293.02,67.07C292.82,68.18 292.12,67.67 291.51,67.57ZM297.86,42.16C297.76,43.07 297.36,43.77 296.35,44.38C295.85,42.86 295.95,41.96 297.86,42.16ZM291.81,36.51C292.42,37.72 291.81,38.12 290.8,38.43C290.91,37.62 291.01,37.02 291.81,36.51ZM278.2,39.33C277.8,40.24 277.19,40.84 276.08,40.94C275.98,39.23 276.89,39.03 278.2,39.33ZM270.54,50.13C269.29,50.55 268.43,50.47 267.41,49.54C268.92,48.31 269.83,48.21 270.54,50.13ZM265.09,54.76C266.2,55.67 265.39,56.07 264.69,56.58C264.38,55.87 264.28,55.27 265.09,54.76ZM263.28,40.24C263.28,41.15 262.88,41.65 261.67,41.65C261.86,40.54 262.47,40.34 263.28,40.24ZM264.38,46.29C263.98,47.9 262.56,48.71 261.35,49.62C261.56,47.81 263.07,47.1 264.38,46.29ZM260.05,60.01C260.05,61.22 259.65,61.62 258.84,61.72C258.43,60.61 259.14,60.31 260.05,60.01ZM252.99,58.49C253.6,59.8 252.69,60.61 252.38,61.72C252.28,60.51 251.78,59.5 252.99,58.49ZM252.79,67.37C254.81,67.87 254.81,67.87 255.21,70.6C253.59,69.79 252.69,68.98 252.79,67.37ZM250.27,73.92C249.26,72.81 248.05,71.8 249.56,70.29C250.87,69.99 251.27,70.9 251.78,71.7C251.28,72.41 250.77,73.12 250.27,73.92ZM250.27,48.81C251.18,47.7 251.58,46.39 252.09,44.98C253.7,45.79 254.81,47.8 257.03,47C254.91,48.41 252.08,46.39 250.27,48.81Z" style="fill-rule:nonzero;"/>
        <path d="M294.23,413.46C293.52,414.57 293.22,414.77 293.22,414.97C290.87,431.4 284.03,441.77 291.2,457.83C299.86,477.22 297.49,477.35 297.75,484.45C297.96,490.2 298.57,495.85 298.05,501.59C297.76,504.82 299.36,507.84 299.76,510.97C299.76,512.33 303.23,511.92 301.88,508.15C301.12,506.03 300.56,473.53 300.57,472.05C300.57,471.52 294.37,459.65 294.32,459.55C285.54,443.18 297.3,430.62 294.23,413.46Z" style="fill-rule:nonzero;"/>
        <path d="M216.69,216.31C213.86,219.34 215.16,220.55 216.69,227.5C217.25,230.03 216.08,232.64 217.6,234.76C214.78,240 214.37,244.95 216.39,249.89C219.75,248.08 217.55,243.7 218.1,241.82C223.14,243.33 228.18,244.24 233.33,243.94C232.52,243.13 231.41,243.33 230.61,243.13C214.88,240.13 217.18,240.79 220.22,235.47C222.24,235.17 224.15,235.77 226.27,235.17C220.54,233.87 217.62,235.07 219.41,225.79C232.72,227.71 246.03,227.3 259.24,225.99C254.6,225.92 227.92,225.34 219.41,223.77C218.5,222.26 217.7,220.85 216.89,219.53C216.38,218.53 218.4,217.52 216.69,216.31Z" style="fill-rule:nonzero;"/>
        <path d="M299.98,401.56C304.11,405.39 309.06,402.57 313.29,403.17C314.2,402.16 315.11,401.46 315.31,400.14C308.83,401.94 301.8,395.86 299.98,401.56Z" style="fill-rule:nonzero;"/>
        <path d="M279.01,69.59C279.41,68.08 280.83,67.57 282.44,67.57C283.33,61.81 271.33,63.58 268.83,66.56C270.44,67.06 271.25,65.35 272.86,65.35C274.07,66.56 276.09,65.65 278.1,66.86C275.28,67.67 272.45,67.26 270.34,69.08C273.16,69.79 275.88,70.19 279.01,69.59Z" style="fill-rule:nonzero;"/>
        <path d="M705.17,217.12C703.46,212.88 695.39,212.48 691.35,217.12C694.48,215.2 697.5,216.11 701.13,217.02C698,217.83 695.18,217.73 692.96,219.34C697.41,220.45 701.64,220.65 705.17,217.12Z" style="fill-rule:nonzero;"/>
        <path d="M186.43,470.04C183.23,470.91 183.45,472.77 184.61,482.44C184.79,483.96 184.81,485.77 187.43,487.18C185.37,481.13 190.29,476.72 186.43,470.04Z" style="fill-rule:nonzero;"/>
        <path d="M306.03,424.56C306.33,423.05 306.03,421.03 303.91,420.32C302.99,421.5 305.58,426.16 303.71,431.51C302.61,434.64 303.31,437.46 304.92,440.49C308.46,437.99 304.62,431.71 306.03,424.56Z" style="fill-rule:nonzero;"/>
        <path d="M267.81,99.94C269.3,97.7 262.94,94.78 258.94,91.87C257.63,88.44 256.42,85.11 256.92,80.88C252.99,84.71 256.82,88.14 255.91,91.47C259.95,94.4 263.88,97.12 267.81,99.94Z" style="fill-rule:nonzero;"/>
        <path d="M691.15,249.19C684.29,241.7 680.1,246.1 679.25,231.24C676.02,235.07 679.25,238.4 678.65,241.83C692.64,251.51 689.93,250.41 691.15,249.19Z" style="fill-rule:nonzero;"/>
        <path d="M186.43,459.85C184.9,462.66 186.23,466 187.04,469.03C190.7,469.03 186.26,470.56 189.56,450.78C186.03,453.2 188.03,456.92 186.43,459.85Z" style="fill-rule:nonzero;"/>
        <path d="M625,410.34C617.54,414.69 622.2,421.38 625.2,427.38C625.6,428.09 625.6,429.3 627.02,429.3C627.52,426.38 626.44,423.73 624.6,421.84C620.26,417.38 625.4,412.34 625,410.34Z" style="fill-rule:nonzero;"/>
        <path d="M200.65,424.15C199.98,426.15 197.82,433.53 199.54,434.74C203,437.17 202.83,443.99 207.51,444.93C204.38,441.4 203.58,436.36 199.95,433.53C199.74,430.2 201.56,427.28 200.65,424.15Z" style="fill-rule:nonzero;"/>
        <path d="M612.8,433.93C610.58,440.38 608.36,446.23 607.35,452.59C610.78,447.45 614.11,436.56 612.8,433.93Z" style="fill-rule:nonzero;"/>
        <path d="M602.92,486.37C604.03,479.61 603.63,472.66 605.95,466.1C602.61,470.24 601.5,478.2 602.92,486.37Z" style="fill-rule:nonzero;"/>
        <path d="M239.58,178.5C237.36,177.69 236.45,175.07 233.83,175.27C231.4,180.14 242.54,179.7 245.53,180.92C243.61,179.71 242.4,176.38 239.58,178.5Z" style="fill-rule:nonzero;"/>
        <path d="M305.02,449.06C304.4,446.85 305.83,444.12 303.31,442.3C302.4,447.04 304.32,451.58 303.92,456.22C306.13,453.9 305.71,451.49 305.02,449.06Z" style="fill-rule:nonzero;"/>
        <path d="M671.59,276.92C677.24,281.05 684.5,280.15 690.75,282.77C685.1,278.54 677.64,280.05 671.59,276.92Z" style="fill-rule:nonzero;"/>
        <path d="M636.08,407.49C634.57,404.07 631.75,401.55 629.94,398.43C632.62,409.71 645.68,409.01 640.83,421.12C646.44,416.17 640.55,406.47 636.08,407.49Z" style="fill-rule:nonzero;"/>
        <path d="M613.61,545.37C611.09,545.87 608.37,546.58 605.34,546.28C609.6,550.92 616.11,548.29 613.61,545.37Z" style="fill-rule:nonzero;"/>
        <path d="M703.56,244.95C705.98,246.36 707.19,246.26 710.62,244.75C707.99,241.53 705.37,241.63 703.56,244.95Z" style="fill-rule:nonzero;"/>
        <path d="M288.39,88.65C286.68,88.44 278.2,89.76 277.1,90.67C281.44,91.58 285.37,90.27 289.5,90.27C289.8,88.85 289.19,88.75 288.39,88.65Z" style="fill-rule:nonzero;"/>
        <path d="M203.98,407.41C199.1,408.52 204.35,415.84 203.98,420.52C206.6,417.6 204.28,415.78 203.68,413.97C204.08,411.85 204.58,409.73 203.98,407.41Z" style="fill-rule:nonzero;"/>
        <path d="M280.82,95.1C283.24,96.11 285.46,95.81 288.08,94.6C286.59,91.6 281.61,90.9 280.82,95.1Z" style="fill-rule:nonzero;"/>
        <path d="M700.23,239.81C700.23,240.31 700.33,240.72 700.33,241.22C704.36,241.52 708.3,241.02 712.23,239.61C708.2,238.8 704.26,239.61 700.23,239.81Z" style="fill-rule:nonzero;"/>
        <path d="M282.44,134.13C286.47,134.74 289.3,131.61 292.93,131C288.69,129.69 285.66,132.31 282.44,134.13Z" style="fill-rule:nonzero;"/>
        <path d="M183.41,512.79C184.82,509.76 182.91,507.04 183.01,504.22C180.58,507.55 180.68,510.68 183.41,512.79Z" style="fill-rule:nonzero;"/>
        <path d="M220.32,217.12C224.25,218.03 228.08,217.52 231.92,217.02C228.08,216.82 224.15,216.01 220.32,217.12Z" style="fill-rule:nonzero;"/>
        <path d="M259.24,132.82C263.37,134.43 267.81,134.84 272.25,135.24C268.12,133.22 263.68,132.92 259.24,132.82Z" style="fill-rule:nonzero;"/>
        <path d="M690.85,268.25C691.05,271.58 692.06,274.5 694.48,276.82C694.18,273.59 693.37,270.57 690.85,268.25Z" style="fill-rule:nonzero;"/>
        <path d="M212.75,416.79C212.45,413.97 212.14,411.45 211.74,408.42C209.43,411.45 209.83,413.97 212.75,416.79Z" style="fill-rule:nonzero;"/>
        <path d="M266.1,106.5C263.48,102.77 262.07,99.14 259.34,96.31C259.85,99.44 262.97,104.18 266.1,106.5Z" style="fill-rule:nonzero;"/>
        <path d="M615.82,432.12C616.63,435.35 618.95,437.46 621.37,439.48C619.96,436.66 619.05,433.43 615.82,432.12Z" style="fill-rule:nonzero;"/>
        <path d="M272.35,181.32C275.48,180.41 276.69,177.49 278.4,175.17C275.68,176.48 273.46,178.3 272.35,181.32Z" style="fill-rule:nonzero;"/>
        <path d="M275.68,238.8L266.91,238.8C270.54,239.81 272.35,239.71 275.68,238.8Z" style="fill-rule:nonzero;"/>
        <path d="M682.38,246.47C682.08,246.67 681.77,246.87 681.37,247.08C689.31,260.17 690.74,260.26 682.38,246.47Z" style="fill-rule:nonzero;"/>
        <path d="M615.72,408.93C618.04,407.42 620.96,406.41 620.76,402.68C619.05,404.69 616.63,406.2 615.72,408.93Z" style="fill-rule:nonzero;"/>
        <path d="M311.98,410.64C311.07,413.87 314,415.28 315.21,417.6C316.12,414.37 312.59,413.26 311.98,410.64Z" style="fill-rule:nonzero;"/>
        <path d="M602.51,497.77C601.9,501.5 600.9,505.13 602.31,508.76C602.21,505.13 603.72,501.4 602.51,497.77Z" style="fill-rule:nonzero;"/>
        <path d="M273.76,131.71C273.15,129.29 273.56,126.67 270.84,124.55C270.84,128.28 271.65,130.09 273.76,131.71Z" style="fill-rule:nonzero;"/>
        <path d="M712.03,232.25C709.37,230.79 704.08,231.99 706.79,234.47C707.79,232.45 710.31,234.77 712.03,232.25Z" style="fill-rule:nonzero;"/>
        <path d="M610.28,420.62C609.67,423.75 610.28,425.86 612.1,427.58C611.89,425.36 612.7,422.94 610.28,420.62Z" style="fill-rule:nonzero;"/>
        <path d="M282.94,171.04C283.24,174.37 284.55,175.78 288.39,175.88C285.86,174.36 285.76,171.44 282.94,171.04Z" style="fill-rule:nonzero;"/>
        <path d="M288.99,82.39C286.57,80.68 284.45,81.18 283.44,83.8C285.16,82.8 287.48,84.21 288.99,82.39Z" style="fill-rule:nonzero;"/>
        <path d="M302.81,148.45C300.89,148.35 298.78,147.84 297.87,150.67C300.08,150.87 301.6,149.96 302.81,148.45Z" style="fill-rule:nonzero;"/>
        <path d="M315.71,402.57C314.1,404.28 314.5,406.4 314.3,408.32C316.72,405.09 316.82,404.39 315.71,402.57Z" style="fill-rule:nonzero;"/>
        <path d="M183.71,494.94C182.2,497.76 182.2,498.17 184.21,500.08C184.62,498.17 184.62,498.17 183.71,494.94Z" style="fill-rule:nonzero;"/>
        <path d="M224.85,253.73C222.13,253.23 220.21,252.22 217.99,252.62C219.81,253.93 221.83,254.74 224.85,253.73Z" style="fill-rule:nonzero;"/>
        <path d="M246.84,180.11C247.95,182.33 249.87,182.13 251.68,182.33C250.37,181.22 249.46,179.2 246.84,180.11Z" style="fill-rule:nonzero;"/>
        <path d="M190.37,443.11C189.26,444.93 188.86,446.64 190.57,448.66C191.17,446.44 191.27,444.72 190.37,443.11Z" style="fill-rule:nonzero;"/>
        <path d="M281.53,171.24C282.14,171.14 282.54,171.04 282.94,170.94C282.94,169.73 284.15,168.42 283.04,166.7C281.33,167.91 281.12,169.32 281.53,171.24Z" style="fill-rule:nonzero;"/>
        <path d="M274.97,135.84C276.68,137.35 277.79,136.14 279.61,135.54C277.6,134.53 276.39,134.33 274.97,135.84Z" style="fill-rule:nonzero;"/>
        <path d="M707.29,282.27C704.77,283.18 702.65,283.88 700.13,284.79C703.86,285.49 704.87,285.09 707.29,282.27Z" style="fill-rule:nonzero;"/>
        <path d="M269.53,116.98C269.33,114.66 269.23,113.05 267.71,111.84C268.02,113.45 267.51,115.37 269.53,116.98Z" style="fill-rule:nonzero;"/>
        <path d="M278.4,110.73C279.31,109.52 281.53,109.22 281.02,106.9C279.91,107.91 278.6,108.82 278.4,110.73Z" style="fill-rule:nonzero;"/>
        <path d="M224.85,388.45C224.24,390.27 225.25,391.27 227.67,392.48C226.67,390.67 226.57,389.16 224.85,388.45Z" style="fill-rule:nonzero;"/>
        <path d="M692.57,267.24C691.86,265.12 691.86,263.51 690.55,262.2C690.75,263.71 690.15,265.63 692.57,267.24Z" style="fill-rule:nonzero;"/>
        <path d="M703.86,256.65C702.45,258.26 701.24,259.27 700.94,260.99C702.25,259.98 704.16,259.37 703.86,256.65Z" style="fill-rule:nonzero;"/>
        <path d="M311.58,438.57C312.39,437.06 311.98,435.34 313.09,433.33C310.07,434.74 311.28,436.86 311.58,438.57Z" style="fill-rule:nonzero;"/>
        <path d="M216.99,417.3C218.7,416.29 219.11,415.28 218.4,413.47C216.99,414.57 216.58,415.58 216.99,417.3Z" style="fill-rule:nonzero;"/>
        <path d="M288.59,176.58C289.6,178.7 290.91,179.2 292.42,179.71C291.71,178.2 290.81,177.19 288.59,176.58Z" style="fill-rule:nonzero;"/>
        <path d="M285.97,255.85C286.68,255.45 287.58,255.45 287.89,254.34C285.07,254.74 285.07,254.74 283.86,257.26C284.55,256.85 285.26,256.35 285.97,255.85Z" style="fill-rule:nonzero;"/>
        <path d="M624.29,435.85C625.3,434.44 625.7,433.53 625.2,431.92C623.19,432.72 623.59,433.93 624.29,435.85Z" style="fill-rule:nonzero;"/>
        <path d="M183.71,489.2C183.41,491.62 183.41,491.62 184.72,492.93C185.32,491.62 185.02,490.61 183.71,489.2Z" style="fill-rule:nonzero;"/>
        <path d="M317.43,397.33C318.84,396.83 319.55,395.82 320.05,394C318.24,394.71 317.73,395.92 317.43,397.33Z" style="fill-rule:nonzero;"/>
        <path d="M216.48,421.23C215.27,419.62 214.46,418.51 212.65,418.1C213.16,420.22 214.57,420.52 216.48,421.23Z" style="fill-rule:nonzero;"/>
        <path d="M283.24,140.18C281.53,140.18 280.32,140.38 278.4,141.59C280.62,141.89 281.83,141.59 283.24,140.18Z" style="fill-rule:nonzero;"/>
        <path d="M261.56,230.53C261.56,230.39 261.95,230.43 258.94,230.43C259.08,230.58 258.67,230.53 261.56,230.53Z" style="fill-rule:nonzero;"/>
        <path d="M620.76,466.2C621.87,465.29 621.87,464.28 621.47,462.67C620.76,463.99 620.06,464.89 620.76,466.2Z" style="fill-rule:nonzero;"/>
        <path d="M613.71,409.33C612.4,409.83 612.1,410.54 612.5,411.95C613.71,411.35 614.21,410.64 613.71,409.33Z" style="fill-rule:nonzero;"/>
        <path d="M304.52,462.17C305.23,461.56 305.43,460.96 304.92,460.15C304.02,460.76 304.32,461.36 304.52,462.17Z" style="fill-rule:nonzero;"/>
        <path d="M191.98,440.49C193.29,439.48 193.29,438.47 192.79,436.96C191.68,438.07 191.98,439.18 191.98,440.49Z" style="fill-rule:nonzero;"/>
        <path d="M235.04,244.05L233.33,244.05C233.83,244.05 234.33,244.75 235.04,244.05Z" style="fill-rule:nonzero;"/>
        <path d="M690.15,288.32C690.15,288.14 689.83,288.12 689.34,288.12C689.34,288.29 689.66,288.32 690.15,288.32Z" style="fill-rule:nonzero;"/>
        <path d="M217.8,421.53C218,421.83 218.3,422.03 218.81,421.73C218.6,421.13 218.2,421.13 217.8,421.53Z" style="fill-rule:nonzero;"/>
        <path d="M626.61,311.41C623.89,316.45 622.98,322.3 620.66,327.65C624.9,324.52 626.4,319.65 628.12,314.84C628.6,313.52 628.83,312.12 626.61,311.41Z" style="fill-rule:nonzero;"/>
        <path d="M580.93,271.88C582.94,283.96 581.73,289.95 589.7,294.77C579.89,279.9 586.47,275.71 580.93,271.88Z" style="fill-rule:nonzero;"/>
        <path d="M630.35,330.67C631.66,336.62 641.04,345.39 646.69,345.9C640.13,341.66 634.48,336.92 630.35,330.67Z" style="fill-rule:nonzero;"/>
        <path d="M593.23,330.17C592.62,324.83 591.62,320.19 588.59,316.15C589.2,320.49 591.52,328.45 593.23,330.17Z" style="fill-rule:nonzero;"/>
        <path d="M665.34,367.48C661.61,369.6 658.08,371.41 653.84,373.73C657.88,374.34 662.61,371.61 665.34,367.48Z" style="fill-rule:nonzero;"/>
        <path d="M695.09,312.42C693.27,315.55 692.87,319.08 693.68,322.71C696.14,310.73 696.09,312.92 695.09,312.42Z" style="fill-rule:nonzero;"/>
        <path d="M692.46,331.58C694.88,332.29 696.49,334.91 699.52,334.61C696.09,330.97 694.68,330.37 692.46,331.58Z" style="fill-rule:nonzero;"/>
        <path d="M716.16,304.35C718.78,304.75 720.29,304.15 721.71,302.33C719.59,302.13 718.08,302.43 716.16,304.35Z" style="fill-rule:nonzero;"/>
        <path d="M673.91,334.3C675.62,334 677.44,333.9 679.76,333.9C677.24,332.28 675.42,332.18 673.91,334.3Z" style="fill-rule:nonzero;"/>
        <path d="M624.29,294.97C626.51,297.29 626.51,297.29 628.73,295.98C627.02,295.68 626.01,294.37 624.29,294.97Z" style="fill-rule:nonzero;"/>
        <path d="M681.98,333.7C683.69,333.5 684.8,332.79 685.81,331.99C684.2,331.48 683.29,332.39 681.98,333.7Z" style="fill-rule:nonzero;"/>
        <path d="M601.3,337.33C600.8,338.44 600.19,339.55 601.6,341.46C602.14,336.62 602.19,337.77 601.3,337.33Z" style="fill-rule:nonzero;"/>
        <path d="M615.32,330.37C618.04,329.36 618.04,329.36 618.55,327.75C617.34,328.05 616.33,328.76 615.32,330.37Z" style="fill-rule:nonzero;"/>
        <path d="M638.61,362.44C637.8,361.73 637.5,361.43 637.2,361.13C637.1,361.93 637.4,362.13 638.61,362.44Z" style="fill-rule:nonzero;"/>
        <path d="M692.36,325.73C691.65,326.54 691.25,327.24 691.25,328.25C692.26,327.75 692.97,327.24 692.36,325.73Z" style="fill-rule:nonzero;"/>
        <path d="M610.58,333.6C611.69,333.1 612.29,332.89 612.4,331.99C611.59,331.98 611.08,332.39 610.58,333.6Z" style="fill-rule:nonzero;"/>
        <path d="M587.99,314.54C587.79,315.25 587.99,315.75 588.7,316.05C588.6,315.54 588.9,314.84 587.99,314.54Z" style="fill-rule:nonzero;"/>
        <path d="M681.27,350.34C683.01,351.21 670.04,354.85 667.96,364.05C672.47,357.29 682.8,351.9 682.38,349.02C681.47,349.02 681.47,349.73 681.27,350.34Z" style="fill-rule:nonzero;"/>
        <path d="M740.16,411.65C741.17,411.84 742.18,411.15 743.19,411.65C748.23,414.57 753.16,412.52 758.11,411.35C760.32,410.83 761.94,409.23 762.35,406.41C753.5,411.6 724.92,408.85 740.16,411.65Z" style="fill-rule:nonzero;"/>
        <path d="M746.52,424.86C743.11,425.71 750.89,439.9 748.84,445.94C751.76,441.09 750.05,427.98 746.52,424.86Z" style="fill-rule:nonzero;"/>
        <path d="M747.22,455.21C749.84,450.87 749.84,450.87 748.33,449.06C747.02,451.08 747.02,451.38 747.22,455.21Z" style="fill-rule:nonzero;"/>
        <path d="M766.08,413.26C766.38,411.04 766.58,408.82 765.17,406.2C764.16,409.23 764.26,411.35 766.08,413.26Z" style="fill-rule:nonzero;"/>
        <path d="M724.94,399.65C723.02,398.04 721.11,398.34 719.29,398.44C720.6,400.86 722.41,400.66 724.94,399.65Z" style="fill-rule:nonzero;"/>
        <path d="M766.79,414.07C766.79,416.49 767.7,418.1 768.3,419.82C769.11,417.7 769.31,415.88 766.79,414.07Z" style="fill-rule:nonzero;"/>
        <path d="M735.02,502.71C734.01,504.53 732.9,506.34 733.1,508.56C735.32,507.15 734.62,504.73 735.02,502.71Z" style="fill-rule:nonzero;"/>
        <path d="M763.66,404.49C764.57,403.08 765.17,401.57 766.28,400.36C763.76,400.66 763.66,402.57 763.66,404.49Z" style="fill-rule:nonzero;"/>
        <path d="M714.65,397.03C713.14,396.22 712.33,395.32 710.52,395.92C711.83,397.13 712.73,397.63 714.65,397.03Z" style="fill-rule:nonzero;"/>
        <path d="M727.86,412.46C726.25,411.65 725.04,411.96 723.52,412.16C725.04,414.07 726.25,413.36 727.86,412.46Z" style="fill-rule:nonzero;"/>
        <path d="M744.7,460.76C746.52,459.05 746.52,459.05 746.52,457.43C745.61,458.14 745,459.04 744.7,460.76Z" style="fill-rule:nonzero;"/>
        <path d="M734.21,411.14C733.1,410.53 732.39,410.84 731.69,411.95C733,412.56 733.81,412.46 734.21,411.14Z" style="fill-rule:nonzero;"/>
        <path d="M722.92,506.04C723.73,504.63 723.83,503.52 723.02,501.6C722.72,503.52 722.11,504.52 722.92,506.04Z" style="fill-rule:nonzero;"/>
        <path d="M719.39,398.34C718.48,397.33 717.57,397.43 716.16,398.04C717.37,399.04 718.38,399.04 719.39,398.34Z" style="fill-rule:nonzero;"/>
        <path d="M737.44,473.57C738.05,473.57 738.45,473.27 738.15,472.36C737.44,472.66 736.94,472.96 737.44,473.57Z" style="fill-rule:nonzero;"/>
        <path d="M687.02,385.73C683.89,385.43 654.25,393.8 652.13,395.81C664.73,393.8 675.72,389.46 687.02,385.73Z" style="fill-rule:nonzero;"/>
        <path d="M590.11,394.1C586.48,396.92 587.69,401.86 592.73,405.09C590.01,401.87 590.01,398.14 590.11,394.1Z" style="fill-rule:nonzero;"/>
        <path d="M671.09,379.88C660.74,385.4 660.47,385.59 660.2,386.84C665.04,385.63 669.67,382.81 671.09,379.88Z" style="fill-rule:nonzero;"/>
        <path d="M644.46,389.87C641.54,387.35 639.12,384.42 635.79,382.31C637.91,385.73 640.43,388.66 644.46,389.87Z" style="fill-rule:nonzero;"/>
        <path d="M671.89,425.16C675.12,424.66 678.34,423.95 681.07,422.03C677.84,422.54 674.51,422.84 671.89,425.16Z" style="fill-rule:nonzero;"/>
        <path d="M658.78,388.15C659.39,387.54 659.79,387.24 660.19,386.84C659.59,386.94 658.88,386.94 658.78,388.15Z" style="fill-rule:nonzero;"/>
        <path d="M742.79,327.34C742.39,323.91 739.06,322.5 737.55,319.78C737.94,323.21 741.68,324.42 742.79,327.34Z" style="fill-rule:nonzero;"/>
        <path d="M745.51,329.66C745.91,331.88 746.01,334.3 748.94,335.81C749.04,332.59 747.42,331.07 745.51,329.66Z" style="fill-rule:nonzero;"/>
        <path d="M773.85,296.18C774.35,295.68 774.96,295.37 774.25,294.57C773.34,294.87 773.54,295.48 773.85,296.18Z" style="fill-rule:nonzero;"/>
        <path d="M776.37,270.27C777.08,270.57 777.58,270.47 777.88,269.36C777.17,269.26 776.57,268.95 776.37,270.27Z" style="fill-rule:nonzero;"/>
        <path d="M735.52,534.48C739.28,534.56 739.18,534.71 739.65,531.45C740.48,525.72 731.86,524.73 731.48,530.24C731.34,532.46 733.1,534.42 735.52,534.48ZM733.41,530.14C733.61,527.73 737.76,527.03 737.95,530.95C736.54,530.75 735.23,530.75 735.73,532.66C733.81,532.56 733.29,531.55 733.41,530.14Z" style="fill-rule:nonzero;"/>
        <path d="M726.55,525.8C721.15,526.05 721.45,533.89 726.85,533.77C732.59,533.64 732.05,525.55 726.55,525.8ZM726.85,532.16C723.46,531.71 723.97,527.72 726.65,527.52C729.73,527.29 730.02,531.67 726.85,532.16Z" style="fill-rule:nonzero;"/>
        <path d="M715.86,525.5C715.56,527.82 715.05,530.14 715.36,532.46C717.59,533.05 716.77,528.63 719.19,531.75C719.59,532.26 719.9,532.96 721.21,532.86C721.01,531.55 720.52,530.35 721.61,529.13C724.19,526.23 718.44,524.47 715.86,525.5ZM719.69,528.32C718.58,529.13 717.57,529.23 717.27,527.21C720.02,526.3 720.38,527.98 719.69,528.32Z" style="fill-rule:nonzero;"/>
        <path d="M219.91,166.4C217.89,161.96 216.58,157.63 213.36,154.2C211.44,157.62 214.77,163.78 219.91,166.4Z" style="fill-rule:nonzero;"/>
        <path d="M209.73,162.36C210.84,165.99 209.93,169.42 208.72,172.95C215.9,165.77 212.94,159.34 209.73,162.36Z" style="fill-rule:nonzero;"/>
        <path d="M175.04,187.37C173.93,181.32 171.31,175.77 168.99,170.13C170,176.18 172.42,181.83 175.04,187.37Z" style="fill-rule:nonzero;"/>
        <path d="M160.42,131.3C158.91,133.92 159.51,135.94 162.54,138.06C161.73,135.64 162.53,133.12 160.42,131.3Z" style="fill-rule:nonzero;"/>
        <path d="M204.38,180.62C205.99,178.91 207.91,177.49 208.41,174.87C205.49,175.78 204.69,177.99 204.38,180.62Z" style="fill-rule:nonzero;"/>
        <path d="M206.2,150.67C208.32,151.98 210.64,151.48 212.86,152.69C211.64,149.35 210.43,149.05 206.2,150.67Z" style="fill-rule:nonzero;"/>
        <path d="M154.26,133.72C153.76,136.64 154.06,139.37 156.58,141.38C155.57,138.97 155.78,136.14 154.26,133.72Z" style="fill-rule:nonzero;"/>
        <path d="M203.27,184.75C200.75,185.96 198.23,186.46 196.21,188.58C199.85,188.08 201.66,187.07 203.27,184.75Z" style="fill-rule:nonzero;"/>
        <path d="M164.25,160.35C163.75,157.73 163.34,155.01 161.63,152.89C161.63,155.71 163.44,157.83 164.25,160.35Z" style="fill-rule:nonzero;"/>
        <path d="M204.48,151.27C202.77,150.87 201.76,151.07 201.05,152.78C202.67,153.09 203.37,152.28 204.48,151.27Z" style="fill-rule:nonzero;"/>
        <path d="M156.48,141.49C156.78,142.4 157.09,143.41 157.59,145.02C158,143 157.49,142.09 156.48,141.49Z" style="fill-rule:nonzero;"/>
        <path d="M175.04,165.79C174.84,164.58 174.54,163.37 173.63,162.46C173.52,163.78 174.03,164.88 175.04,165.79Z" style="fill-rule:nonzero;"/>
        <path d="M326.3,201.29C324.48,199.07 323.98,196.15 321.46,193.73C321.36,199.17 323.28,201.99 326.3,201.29Z" style="fill-rule:nonzero;"/>
        <path d="M342.03,170.73C341.31,171.27 339.94,171.57 340.92,172.75C341.53,172.25 342.84,172.25 342.03,170.73Z" style="fill-rule:nonzero;"/>
        <path d="M345.87,165.49C344.76,165.89 344.16,166.3 344.36,167.31C345.46,167.41 345.56,166.6 345.87,165.49Z" style="fill-rule:nonzero;"/>
        <path d="M353.46,133.84C353.04,135.06 354.64,134.89 354.87,134.19C355.4,132.64 353.8,132.85 353.46,133.84Z" style="fill-rule:nonzero;"/>
        <path d="M317.23,188.28C316.93,187.07 316.32,186.67 315.21,186.46C315.51,187.88 316.12,188.18 317.23,188.28Z" style="fill-rule:nonzero;"/>
        <path d="M319.24,190.5C319.44,191.21 319.34,192.01 320.65,192.21C320.45,191.41 320.55,190.7 319.24,190.5Z" style="fill-rule:nonzero;"/>
        <path d="M213.56,276.42C213.25,275.11 213.36,273.5 211.54,272.39C211.44,274.71 212.24,276.53 212.75,278.54C217.28,296.35 230.39,291.07 229.39,304.15C228.87,310.91 229.69,317.56 233.42,323.81C237.99,320.39 232.16,319.69 231.81,302.13C231.57,289.97 217.78,294.39 213.56,276.42Z" style="fill-rule:nonzero;"/>
        <path d="M280.92,297.29C286.26,301.42 290.2,305.96 292.92,311.61C292.21,313.22 290,314.53 292.01,317.66C294.43,312.72 298.56,310 302.4,306.97C299.37,307.47 296.75,308.68 294.33,310.5C292.92,303.65 285.97,296.28 280.92,297.29Z" style="fill-rule:nonzero;"/>
        <path d="M290.5,347.21C281.83,343.18 272.95,339.65 263.98,336.22C272.15,341.66 280.92,345.29 290.5,347.21Z" style="fill-rule:nonzero;"/>
        <path d="M269.63,275.81C267.01,283.17 267.01,290.53 269.63,297.89C269.43,290.54 269.63,283.17 269.63,275.81Z" style="fill-rule:nonzero;"/>
        <path d="M261.56,274.3C259.85,283.78 261.26,292.96 263.88,302.03C263.07,292.75 261.16,283.68 261.56,274.3Z" style="fill-rule:nonzero;"/>
        <path d="M276.49,272.69C280.02,276.93 278.61,282.17 279.62,286.91C281.43,278.23 280.52,273.9 276.49,272.69Z" style="fill-rule:nonzero;"/>
        <path d="M209.22,288.92C206.9,294.77 208.21,300.52 209.52,306.37C209.52,303.45 209.42,300.42 209.32,297.5C209.23,294.67 210.94,291.75 209.22,288.92Z" style="fill-rule:nonzero;"/>
        <path d="M269.33,333.9C274.17,330.77 279.52,329.46 284.96,328.66C277.39,327.54 269.93,330.07 269.33,333.9Z" style="fill-rule:nonzero;"/>
        <path d="M264.99,304.55C265.6,311 264.59,317.46 264.08,323.91C266.3,317.56 266.2,311.11 264.99,304.55Z" style="fill-rule:nonzero;"/>
        <path d="M251.01,267.21C250.12,267.66 251.43,268.68 250.67,269.16C249.66,269.06 249.96,267.45 248.65,267.65C247.74,268.05 247.44,269.06 248.04,269.87C249.35,271.38 250.96,270.58 252.68,270.27C252.59,269.95 251.9,266.68 251.01,267.21Z" style="fill-rule:nonzero;"/>
        <path d="M276.82,270.92C274.33,271.22 271.79,270.71 269.33,271.47C271.96,272.32 274.38,271.47 276.82,270.92Z" style="fill-rule:nonzero;"/>
        <path d="M276.82,270.92C277.28,270.86 277.74,270.79 278.2,270.67C277.74,270.73 277.28,270.82 276.82,270.92Z" style="fill-rule:nonzero;"/>
        <path d="M232.52,267.64C235.57,270.34 242.81,272.39 239.78,267.64C237.26,271.17 235.04,266.53 232.52,267.64Z" style="fill-rule:nonzero;"/>
        <path d="M268.72,320.39C266.6,321.3 266.6,321.3 267.51,323.01C267.91,322.2 268.62,321.49 268.72,320.39Z" style="fill-rule:nonzero;"/>
        <path d="M223.54,271.58C222.63,272.79 222.63,272.79 223.24,274.3C224.15,273.39 224.05,272.59 223.54,271.58Z" style="fill-rule:nonzero;"/>
        <path d="M244.01,268.85C242.8,270.36 243.61,270.77 245.22,271.17C245.53,269.66 245.22,269.06 244.01,268.85Z" style="fill-rule:nonzero;"/>
        <path d="M259.44,269.96C260.16,268.95 259.53,268.33 258.73,267.34C258.31,268.61 258.66,269.28 259.44,269.96Z" style="fill-rule:nonzero;"/>
        <path d="M278,268.45C278.91,268.05 279.41,267.24 279.41,266.13C279.11,266.07 278.53,266.04 278.1,265.93C278.4,266.74 276.79,267.44 278,268.45Z" style="fill-rule:nonzero;"/>
        <path d="M255.61,267.64C255.21,268.95 255.31,269.56 256.62,269.46C256.82,268.75 256.32,268.35 255.61,267.64Z" style="fill-rule:nonzero;"/>
        <path d="M321.06,529.43C316.05,528.83 312.57,537.42 323.78,536.99C324.79,531.75 324.08,530.04 321.06,529.43ZM320.55,535.58C316.82,534.6 318.21,530.93 320.35,531.14C321.66,531.14 322.67,531.85 322.67,533.66C321.66,533.97 319.65,533.06 320.55,535.58Z" style="fill-rule:nonzero;"/>
        <path d="M311.48,528.12C306.36,528.12 306.15,535.65 311.38,535.88C316.61,536.13 317.1,528.12 311.48,528.12ZM311.48,534.17C308.74,534.17 308.34,530.2 311.38,529.73C314.69,530.01 314.34,534.17 311.48,534.17Z" style="fill-rule:nonzero;"/>
        <path d="M300.59,528.02C300.99,530.14 299.58,532.36 300.49,534.57C302,534.57 301.5,532.96 302.71,532.65C304.22,532.95 304.22,535.27 306.24,534.97C305.74,533.56 305.44,532.45 306.44,531.14C308.75,528.14 303.02,526.23 300.59,528.02ZM302,529.94C303.21,528.83 304.12,529.03 305.53,530.24C303.92,531.05 303.01,531.45 302,529.94Z" style="fill-rule:nonzero;"/>
    </g>
</svg>
