<?xml version="1.0" encoding="UTF-8" standalone="no"?>
<!DOCTYPE svg PUBLIC "-//W3C//DTD SVG 1.1//EN" "http://www.w3.org/Graphics/SVG/1.1/DTD/svg11.dtd">
<svg width="100%" height="100%" viewBox="0 0 900 600" version="1.1" xmlns="http://www.w3.org/2000/svg" xmlns:xlink="http://www.w3.org/1999/xlink" xml:space="preserve" xmlns:serif="http://www.serif.com/" style="fill-rule:evenodd;clip-rule:evenodd;stroke-linejoin:round;stroke-miterlimit:2;">
    <g>
        <path d="M422.89,189.08C430.84,189.88 432.89,188.67 436.97,180.41C449.03,179.85 439.83,165.27 442.58,153.37C443.9,152.66 441.03,152.84 493.7,154.08C497.37,154.17 498.79,152.65 498.9,148.37C498.99,145 497.68,143.72 494.1,143.68C485.39,143.57 451.4,142.66 442.67,142.66C442.34,137.65 442.42,124.63 438.08,114.5C434.58,106.31 430.54,107.94 426.45,107.36C412.94,106.55 411.34,124.57 409,141.85C390.84,141.44 372.77,140.93 354.82,140.93C352.06,137.66 352.27,130.83 345.23,133.07C345.23,133.89 345.74,134.29 346.05,134.19C351.74,133.7 350.98,140.17 354.72,144.5C354.41,148.17 353.4,151.34 350.33,153.79C324.16,174.62 348.07,189.99 333.39,213.18C333.07,213.68 332.68,212.87 332.17,212.77C329.59,240.15 315.95,232.06 315.84,232.06C308.7,230.33 306.5,223.86 302.78,218.79C288.33,199.09 291.33,184.15 292.07,171.44C313.64,147.91 296.13,149.85 314.42,150.42C314.42,153.38 313.4,156.34 315.03,158.99C316.56,158.58 315.54,156.85 316.87,156.03C319.77,168.2 317.91,159.95 314.93,160.11C312.77,163.95 322.12,164.28 317.99,176.64C308.4,205.31 313.32,183.72 303.3,208.27C309.87,203.89 306.28,200.88 310.65,196.74C317.59,190.16 316.92,187.45 319.02,180.21C321.67,171.04 320.56,174.08 320.04,161.84C319.93,159.29 319.22,156.94 318.61,154.39C319.94,151.23 322.69,148.68 323,144.8C317.78,149.56 324.73,147.71 258.71,146.53C203.02,145.54 206.81,145.12 204.42,145.92C201.93,137.47 197.98,140.27 295.14,141.74C328.75,142.25 318.79,144.38 322.79,143.78C322.89,141.94 321.67,141.13 321.06,139.9L317.9,139.9C316.7,137.9 316.93,126.64 307.59,118.88C296.31,109.51 291.75,113.79 281.98,106.02C268.91,95.63 262.46,98.11 263.61,92.86C265.37,91.1 268.56,93.58 271.77,84.08C273.64,78.55 275.19,73.16 275.14,67.35C275.11,63.4 278.97,64.45 275.34,52.66C275.34,52.56 274.93,52.46 274.73,52.35C273.61,65.11 273.51,78.06 267.79,89.7C262.18,90.72 257.18,89.39 252.08,88.48C256.87,92.89 264.89,87.98 261.26,104.91C266.35,101.02 259.85,94.98 269.83,101.44C273.85,113.1 270.58,135.44 258.4,136.44C258.4,135.34 253.75,141.54 242.69,136.95C230.77,132.01 220.51,130.5 217.89,116.03C217.06,111.43 213.07,103.43 216.36,98.58C217.06,97.55 216.56,96.34 217.07,94.91C220.34,94.4 222.48,91.76 225.34,90.22C228.87,88.31 229.76,79.7 229.22,74.2C228.82,70.16 232.34,65.53 231.06,63.28C229.73,63.59 228.3,63.38 228.2,61.14C228.71,60.63 229.93,61.24 230.65,59.92C230.96,58.7 230.55,56.96 231.57,54.82C232.18,56.76 233.71,57.98 232.59,59.92C234.53,60.02 234.73,58.8 235.14,57.98C236.06,55.63 236.98,53.18 237.59,50.73C239.21,44.25 240.88,46.16 242.9,39.61C243.53,37.57 244.63,36.34 247.29,37.47C246.47,35.02 249.13,35.74 249.64,33.8C249.64,32.88 248.31,31.96 248.11,30.74C247.09,29.62 245.35,30.94 244.74,29.31C246.78,27.78 249.74,29.21 251.37,32.68C253,32.68 252.08,31.35 252.49,30.54C256.78,29.42 261.17,29.71 265.45,30.44C267.8,30.84 269.74,29.83 271.98,29.32C273,32.99 272.47,37.09 274.53,40.34C278.8,47.07 261.96,45.45 267.69,55.65C268.71,54.63 267.59,53.1 268.71,51.98C270.85,52.8 272.89,51.47 275.14,50.96C276.7,44.48 277.51,42.36 276.98,41.47C274.53,37.39 275.35,32.69 274.22,28.51C275.85,25.14 279.53,24.43 281.98,21.78C281.88,20.66 281.47,19.33 282.18,18.21C280.55,16.78 278.91,18.11 277.18,17.7C277.79,16.17 280.14,16.37 280.45,14.33C278.31,12.29 276.67,14.02 274.84,15.25C274.23,13.11 275.55,10.56 273.82,8.52C272.09,8.93 271.88,10.97 270.04,11.48C269.02,10.15 267.29,9.87 265.65,10.66C260.15,13.33 254.43,11.97 245.34,12.6C243.91,13.31 244.12,15.66 242.07,15.66C241.05,15.15 242.68,13.52 240.54,13.11C229.45,24.68 230.76,13.75 225.13,16.27C224.62,17.9 226.56,18.41 226.97,19.64C225.56,21.34 225.25,23.63 224.46,25.74C223.95,25.55 223.19,25.4 223.4,26.37C224.24,30.35 214.77,43.98 221.16,53.21C221.57,53.92 222.17,54.54 222.18,55.35C222.23,62.7 225.23,69.23 226.98,76.17C228.4,81.79 225.35,88.83 220.04,90.86C210.66,94.45 201.49,98.33 193.41,104.43C187.47,108.91 175.29,105.04 168.21,119.63C165.58,125.05 162.09,129.94 161.17,136.47C142.6,136.06 124.03,135.65 105.76,135.35C104.16,133.32 105.82,122.89 104.43,105.76C104.12,101.88 104.01,101.81 100.14,100.66C98.81,100.26 97.49,100.07 96.06,100.25C89.52,101.1 90.37,100.96 88.92,129.03C86.37,129.95 87.19,132.81 85.76,134.85C57.6,134.24 29.43,133.63 0.86,133.01C0.04,136.58 -0.57,139.85 0.96,143.42C29.02,144.03 56.88,144.64 85.35,145.26C79.27,148.82 77.51,157.13 76.27,160.36C74.37,165.32 81.47,170.46 85.15,163.12C93.36,173.81 81.9,187.92 100.25,183.94C105.89,182.72 103.36,150.35 105.05,145.78C122.19,146.19 139.44,146.49 156.89,146.9C158.62,165.08 153.1,162.32 146.18,175.17C141.35,184.13 146.41,184.33 138.02,194.66C131.51,202.67 138.75,207.93 139.86,218.03C140.21,221.28 144.9,227.37 144.96,227.52C147.41,232.72 150.67,233.13 155.78,230.38C182.46,216.01 180.79,208.81 185.98,193.24C187,195.18 187.01,196.81 187.41,198.34C199.79,245.53 190.51,255.29 195.06,253.34C195.57,254.87 196.28,256.3 195.26,257.93C193.63,257.11 195.16,255.28 193.93,254.15C190.28,253.72 194.64,257.37 190.36,265.07C183.64,277.17 182.45,296.05 182.71,311.19C182.83,318.53 178.53,323.21 178.53,324.25C178.53,329.96 176.11,335.27 176.18,341.09C176.35,354.56 174.57,367.83 170.06,380.58C168.43,385.17 168.73,390.07 167.1,394.66C172.81,397.01 178.22,399.76 184.24,400.78C187.32,442.64 185.58,424.1 183.42,445.37C181.35,465.78 199.65,541.69 206.79,546.6C207.3,544.95 204.51,540.19 209.79,540.98C206.19,546.11 209.72,547.15 206.89,549.66C205.97,549.86 205.97,548.23 204.65,548.74C205.36,551.29 202.81,553.03 202.71,555.58C202.06,571.88 204.21,554 198.22,574.15C200.06,576.6 203.12,577.42 204.44,580.37C204.95,578.23 204.95,578.23 200.56,573.64C200.77,571.49 204.93,565.7 204.13,559.15C202.83,548.58 210.66,554.7 210.66,543.54C215.25,541.09 219.84,540.07 224.84,540.78C225.04,543.33 224.43,545.07 223.82,547C225.25,547.2 226.17,547.82 225.45,549.65C221.88,548.22 218.22,547.64 214.53,549.34C207.57,552.57 212.18,553.83 212.08,553.93C212.18,554.54 211.88,555.36 212.69,555.97C215.85,553.73 219.32,555.56 222.79,555.66C219.52,556.78 215.65,556.48 212.89,559.64C215.79,562.15 218.84,556.56 229.52,559.95C230.36,559.53 229.69,558.49 230.02,558.82C230.39,559.19 227.75,562.35 239.21,575.57C242.41,579.26 239.78,580.17 243.09,586.49C243.7,586.18 244.01,585.98 244.01,585.88C243.6,581.29 244.21,576.6 239.93,573.12C231.65,566.4 236.01,561.62 227.99,547.92C225.46,543.6 229.12,540.17 225.54,537.31C224.93,536.9 224.93,535.68 224.62,534.76C223.8,534.56 223.09,534.35 222.38,534.15C220.83,531.83 218.66,511.53 221.77,491.9C223.15,483.19 226.89,476.85 223.1,455.27C216.2,416.05 223.41,439 224.73,410.98C224.84,408.63 226.16,406.9 226.57,404.65C241.32,401.7 231.51,403.58 235.55,363.53C233.71,366.59 233.53,370.06 233.1,373.33C230.42,393.97 237.34,402.25 228.2,401.7C210.04,400.61 216.59,404.4 198.81,400.37C186.45,397.57 176.54,397 169.73,392.72C171.67,384.15 174.32,375.68 176.77,367.11C176.61,371.15 176.06,379.04 174.42,387.21C178.79,382.59 177.26,336 180.24,333.03C184.22,335.89 184.53,340.48 186.16,344.56C188.2,338.64 184.63,334.76 180.96,330.89C180.31,323.06 185.74,322.43 185.14,307.01C184.35,286.73 187.34,286.32 186.98,283.74C186.4,272.49 192.91,265.44 194.94,260.37C199.84,260.68 204.53,262.61 209.63,262.61C210.24,265.77 210.14,268.83 211.87,272.2C212.69,269.14 211.87,266.59 212.18,263.53C222.08,265.98 231.77,268.53 241.67,267.31C243.2,269.35 243.1,271.8 245.04,273.43C245.55,271.49 244.22,269.86 244.43,267.82C248.23,268.48 254.19,265.77 258.51,268.02C258.51,271.9 261.16,274.55 263.2,277.51C262.11,268.39 259.16,268.3 262.59,266.8C258.51,266.19 255.45,265.78 252.39,265.68C256.06,264.15 260.04,265.78 263.82,264.46C264.33,265.48 263.62,266.19 263.41,267.11C263.92,268.13 265.35,267.62 266.06,268.64C266.16,270.99 265.45,273.64 266.77,276.8C267.69,273.84 268.5,271.7 268.71,268.84C272.89,269.25 276.87,268.43 281.26,267.92C283.4,266.9 280.75,264.14 282.79,262.61C282.64,267.54 284.24,272.89 283.95,272.75C283.38,272.18 282.17,271.54 281.46,271.69C287.91,284.59 284.07,274.69 284.11,272.92C286.62,275.43 287.98,283.7 288.6,287.2C289.01,288.83 288.8,290.16 286.87,290.67C287.48,293.73 290.75,296.28 287.58,299.24C288.4,300.06 288.91,298.83 289.93,299.55C288.91,333.84 290.44,368.43 289.93,403.02C250.79,411.9 266.47,410.74 235.34,398.63C235.53,403.08 244.25,401.8 243.3,407.51C243.01,408.68 249.75,410.57 247.99,431.49C245.88,456.65 245.56,459.66 248.3,476.29C248.32,476.39 259.98,499.04 263.3,515.68C264.5,521.71 264.96,527.71 266.97,533.64C267.7,535.78 267.56,538.33 266.77,540.78C263.14,552.02 267.33,550.57 264.42,554.56C261.47,558.6 261.92,562.69 261.26,563.54C257.76,568.02 262.1,572.56 266.36,573.64C273.01,575.33 272.53,573.83 282.69,576.09C283.91,580.58 287.89,581.2 291.77,581.91C312.93,585.78 310.51,574.1 320.55,580.07C316.47,580.89 312.69,580.89 309.33,582.52C313.82,582.32 318.41,582.21 323.11,580.79C323.85,569.88 318.63,562.24 309.03,557.01C306.15,555.44 308.3,551.99 303.42,548.34C294.71,541.83 296.53,538.43 291.72,538.16C292.3,540.51 287.96,538.73 281.79,543.24C281.12,543.91 281.22,544.77 282.5,544.77C282.6,545.89 281.07,547.42 283.21,548.14C285.05,546 288.62,545.59 293.31,547.12C290.96,548.14 287.39,547.32 286.58,551.51C290.45,551.26 300.51,549.21 303.01,551.71C298.32,552.63 293.11,552.22 289.03,555.69C291.24,558.9 304.72,552.07 305.15,556.4C301.27,556.4 297.29,556.3 293.93,558.85C298.32,560.18 302.4,558.85 306.48,558.44C311.07,560.28 314.05,564.12 318.01,566.71C318.93,567.31 319.85,568.14 319.85,569.16C320.05,572.22 321.28,574.98 321.99,578.24C308.19,575.12 306.39,582.26 300.77,581.51C278.88,578.58 289.16,576.74 282.3,569.88C281.38,571.31 283.32,572.33 282.3,573.76C279.64,571.98 278.07,573.01 267.4,571.52C255.24,569.81 269.74,557 268.11,543.36C278.31,549.48 272.37,542.25 281.89,539.07C278.52,537.95 279.34,534.78 277.81,532.64C281.79,531.31 285.87,532.33 289.44,530.5C289.95,532.44 289.63,534.07 289.75,535.7C290.19,541.67 293.39,535.82 291.79,531.01C290.65,527.6 289.08,528.25 282.71,528.25C282.12,526.05 280.98,508.84 280.98,528.25C278.12,529.37 275.37,528.86 272.71,529.27C271.49,526.21 271.69,523.15 270.16,519.88C268.43,526.62 273.38,530.74 267.92,530.29C263.88,503.51 266,510.15 256.39,488.25C243.79,459.55 251.69,453.98 249.25,437.23C248.78,433.98 253.25,430.72 250.17,419.37C249.04,415.19 247.72,411 246.29,406.21C268.34,417.82 271,406.27 281.29,407.64C281.95,422.12 276.76,411.93 283.53,453.76C284.91,462.29 285.16,523.39 285.16,523.56C285.16,528.16 287.22,528.03 287.2,526.32C286.42,465.39 289.9,466.71 284.65,446.93C282.41,438.48 283.32,427.83 282.81,424.48C281.87,418.26 284.34,412.44 284.44,406.32C287.3,405.71 289.64,403.97 292.6,404.18C289.5,392.46 294.59,373.89 292.29,364.49C291.62,361.75 293.45,362.34 292.7,354.9C289.55,323.69 298.44,309 288.82,278.27C287.83,275.1 285.66,272.45 285.04,269.09C284.63,266.85 285.95,265.11 285.45,262.87C282.75,250.73 286.34,230.51 284.02,220.22C283.56,218.19 288.15,207.73 289.43,205.93C290.45,204.5 289.53,202.46 290.65,200.52C293.81,212.77 302.9,221.23 307.79,231.44C312.18,230.93 314.32,233.68 316.97,235.22C329.21,234.11 328.81,233.29 333.81,218.59C337.05,209.06 341.32,210.15 341.06,199.92C340.99,197.23 339.44,178.51 339.94,171.25C340.37,165.01 352.31,153.62 356.27,150.94C373.52,151.35 390.96,151.86 408.72,152.27C409.67,164.18 408.55,187.64 422.89,189.08ZM443.09,144.9C461.15,145.31 479.01,145.61 496.87,146.02C497.69,148.06 497.79,149.69 496.46,151.53C478.7,151.12 460.95,150.82 443.09,150.41C442.68,148.47 442.68,146.94 443.09,144.9ZM318.91,150.2C319.01,151.02 318.6,151.42 317.99,151.73C317.78,150.92 317.58,150.2 318.91,150.2ZM299.11,115.51C308.57,118.23 314.69,130.91 315.33,139.18C312.99,139.81 301.36,139.08 283.39,139.08C282.17,127.96 282.17,117.14 278.7,106.83C286.43,110.88 279.6,109.9 299.11,115.51ZM272.99,102.75C273.65,102.66 273.77,102.77 276.05,104.48C277.89,114.07 280.85,123.36 279.62,133.26C281.66,134.28 280.23,136.53 280.44,138.26L263.09,138.26C276.66,128.87 275.54,116.02 272.99,102.75ZM272.58,48.46C273.19,48.36 273.8,47.95 275.03,48.66C273.8,49.08 273.09,49.49 272.58,48.46ZM279.31,19.69C279,20.81 278.49,21.73 277.47,22.65C277.16,21.73 276.96,21.12 276.65,20.2C277.68,19.89 278.4,19.48 279.31,19.69ZM272.07,13.67C272.58,15 271.87,15.61 270.64,16.53C271.05,15.1 271.15,14.18 272.07,13.67ZM255.54,24.99C256.25,24.68 256.46,25.19 256.66,25.91C255.74,25.91 255.33,25.81 255.54,24.99ZM261.86,21.02C261.76,21.63 261.45,21.94 260.74,21.63C261.05,21.32 261.15,20.4 261.86,21.02ZM262.27,27.24C260.84,27.44 260.03,26.93 258.7,25.81C260.44,26.12 261.35,26.22 262.27,27.24ZM257.07,17.34C256.05,18.46 255.23,19.28 254.11,19.89C254.11,17.95 254.62,16.83 257.07,17.34ZM242.48,35C243.7,36.53 242.48,37.04 241.77,37.76C241.76,36.93 241.46,35.91 242.48,35ZM238.19,19.99C238.6,19.38 239.11,18.77 240.13,18.87C239.67,21.18 237.63,20.55 238.19,19.99ZM241.46,25.71C240.75,27.55 239.52,28.77 237.89,29.69C238.29,27.55 239.82,26.63 241.46,25.71ZM229.11,40.2C229.62,41.53 228.5,42.65 228.6,43.87C228.09,41.63 228.09,41.63 229.11,40.2ZM228.7,50C231.76,49.69 231.66,51.73 232.07,53.88C229.92,53.06 229.01,51.83 228.7,50ZM237.27,38.57C237.47,39.18 237.07,39.28 236.66,39.39C236.46,38.77 236.76,38.57 237.27,38.57ZM236.86,41.63C236.96,42.75 236.55,43.26 235.43,43.57C235.44,42.24 235.95,41.83 236.86,41.63ZM236.15,51.93C236.15,52.64 235.95,53.05 235.03,53.36C235.13,52.44 235.33,51.83 236.15,51.93ZM234.52,41.32C233.5,41.93 232.99,42.34 232.48,42.75C232.68,41.93 232.48,40.81 234.52,41.32ZM230.84,19.38C231.45,19.28 231.55,19.69 231.55,20.3C231.15,20.1 230.44,20.2 230.84,19.38ZM228.19,24.89C229.21,25.3 229.41,26.64 230.33,26.83C231.45,27.06 232.17,25.81 233.09,26.63C233.4,27.45 232.78,27.85 232.07,28.36C229.72,26.73 227.58,27.54 225.44,29.58C225.27,26.75 229.25,27 224.93,25.6C226.05,25.4 227.07,25.1 228.19,24.89ZM226.86,58.26C225.94,56.83 223.8,55.91 225.23,53.87C225.81,52.7 227.31,53.34 228.09,55.09C227.48,55.91 226.66,56.93 226.86,58.26ZM1.86,140.71C1.55,137.95 1.55,137.95 2.57,135.2C30.22,135.81 57.98,136.42 85.63,137.04C86.14,138.98 86.04,140.41 85.63,142.55C57.68,142.04 29.72,141.43 1.86,140.71ZM82.88,164.28C73.62,165.39 78.64,158.17 83.29,150.1C88.89,140.37 84.26,161.15 82.88,164.28ZM88.19,165.1C88.19,149.58 88.02,151.12 88.6,151.12C88.6,166.64 88.77,165.1 88.19,165.1ZM88.09,147.75C87.27,142.24 87.38,136.83 89.01,131.42C88.6,136.83 89.11,142.34 88.09,147.75ZM226.46,552.66C229.22,553.47 229.73,556.23 230.13,558.78C229.46,558.11 227.26,556.84 225.95,556.23C226.51,555.75 227.19,556.2 227.65,555.99C229.38,555.2 222.94,550.27 212.78,553.17C217.17,549.29 221.87,551.32 226.46,552.66ZM223.9,537.96C220.13,538.5 214.47,539.48 211.2,540.39C205.97,541.84 219.86,535.37 223.9,537.96ZM190.94,410.1C194.14,396.64 182,409.15 222.68,403.67C223.29,408.47 219.11,408.77 217.37,410.61C217.06,413.06 216.45,415.41 216.45,417.86C216.45,420.72 212.78,421.02 212.37,423.98C214.61,422.86 216.15,421.53 218.19,420.92C220.67,415.44 217.2,409.64 221.56,410.51C225.14,419.62 216.53,417.64 218.6,441.02C219.27,448.55 223.23,462.39 222.17,472.55C220.85,485.31 218.5,497.96 217.48,510.92C216.97,507.86 216.46,504.8 215.85,500.92C214.83,506.63 215.73,511.44 217.48,515.92C219.8,521.85 218.81,528.17 220.54,534.19C199.65,540.27 205.96,540.85 202.99,533.68C197.08,519.43 195.32,502.64 187.99,472.05C185.08,459.9 185.26,447.67 187.79,435.42C189.6,426.64 188.65,420.02 186.77,401.24C190.84,403.37 188.39,407.96 190.94,410.1ZM176.76,367.02C176.76,362.98 176.89,363.67 176.76,367.02ZM288.4,542.35C290.54,542.04 292.99,540.41 294.73,543.57C286.96,542.84 288.4,543.18 288.4,542.35ZM275.33,531.84C276.45,533.98 277.88,535.82 277.78,538.17C272.53,542.83 274.31,542.79 272.78,543.37C270.13,542.15 269.62,540.61 269.51,533.78C270.84,531.74 272.88,531.74 275.33,531.84ZM205.43,148.26C205.82,158.48 192.16,171.43 202.57,155.81C204.13,153.48 204.52,150.71 205.43,148.26ZM216.05,96.32C213.81,99.89 213.68,103.47 214.52,107.14C217.28,119.21 217.41,126.33 229.11,133.88C236.32,138.53 249.18,137.45 211.97,137.45C218.62,115.72 204.89,93.53 216.05,96.32ZM100.84,181.63C97.57,182.75 94.62,182.75 91.55,181.53C89,155.31 90.84,128.88 92.37,102.55C96.04,101.22 99.1,101.73 102.37,102.55C99.98,124.78 99.68,162.94 100.84,181.63ZM103.29,147.65C100.19,212.9 101.58,119.72 103.6,114.38C103.6,142.85 102.38,135.35 102.38,142.65C102.37,144.38 103.38,145.81 103.29,147.65ZM181.96,199.79C177.87,215.48 164.31,224.36 149.1,229.79C147.88,227.65 146.34,226.01 145.63,224.18C144.41,221.53 141.33,219.48 141.75,216.32C142.83,208.28 135.17,204.39 138.99,197.95C142.15,192.64 145.3,187.54 147.15,181.42C149.17,174.78 154.15,169.56 157.76,163.66C161.56,157.46 158.22,151.4 160,146.92C162.24,146.31 164.39,146.51 166.73,146.82C167.07,151.98 173.74,153.69 173.06,158.15C172.29,163.16 170.4,167.63 166.94,171.42C160.65,178.28 160.6,182.55 153.37,186.22C149.79,188.04 147.45,191.02 145.61,194.49C148.88,192.76 151.02,189.69 154.39,188.16C165.84,181.55 180.87,161.53 172.04,151.42C163.91,142.11 186.29,145.2 104.08,143.26C103.77,141.22 103.47,139.59 104.49,137.75C189.73,139.34 167.01,137.53 168.78,144.59C172.83,139.27 176.18,125.93 181.74,128.88C183.27,131.53 180.72,133.68 181.13,136.33C183.89,134.7 182.97,131.94 183.58,129.6C185.58,128.26 186.77,126.87 188.78,127.97C191.72,129.58 188.43,134.75 189.49,136.64C194.65,130.4 188.77,121.88 183.98,127.86C178.67,125.62 176.22,127.45 171.63,136.64C169.08,136.74 166.53,137.05 164.08,136.33C166.32,128.61 174.35,110.23 185.2,109.39C197.33,108.45 201.33,98 210,98.47C207.76,102.35 208.98,106.23 210.1,109.8C208.98,110.72 207.75,110 206.94,110.92C208.06,111.53 209.59,111.12 210.61,112.45C211.43,117.65 211.94,123.06 210.92,128.47C209.39,128.67 208.37,128.78 207.14,128.98C208.26,130.51 209.9,129.08 210.81,130.41C210.4,132.55 209.99,134.8 209.59,137.14C207.96,137.24 206.32,137.55 204.69,137.24C203.4,133.79 204.7,130.7 199.79,130C197.55,129.81 196.49,125.01 192.44,128.16C200.73,128.95 193.63,134.67 196.22,137.65C198.36,135.71 196.63,132.65 198.77,131.02C201.12,131.22 202.25,132.35 202.34,134.8C202.8,147.2 204.68,149.77 198.97,157.45C198.45,157.97 192.15,168.53 191.11,174.18C188.57,188.25 185.56,185.99 181.96,199.79ZM199.41,258.98C199.31,258.47 199.41,257.86 200.23,257.86C201.55,258.91 199.9,260.19 199.41,258.98ZM198.9,255.51C201.76,254.49 201.96,254.59 202.57,256.73C201.66,255.31 200.43,255 198.9,255.51ZM203.5,260.71C203.19,258.98 203.6,258.26 204.72,257.24C204.82,258.57 205.33,259.49 203.5,260.71ZM209.62,260.71C208.5,261.02 207.58,261.02 206.46,260.4C207.28,259.07 207.07,257.03 209.42,256.93C209.72,258.37 209.92,259.49 209.62,260.71ZM212.07,261.43C212.07,260.72 211.76,260.1 212.78,259.49C212.68,260.2 212.99,260.82 212.07,261.43ZM214.72,262.35C213.89,261.52 214.53,260.3 216.15,260.41C216.35,261.63 216.66,262.75 214.72,262.35ZM219.11,263.47C216.92,262.59 218.07,261.76 219.52,261.63C219.21,262.24 220.23,262.86 219.11,263.47ZM221.86,263.77C222.94,260.53 226.65,264.39 229.21,263.97C232.16,263.49 234.95,265.66 237.88,264.28C238.29,264.08 239.1,264.79 239.72,265.1C234.49,266.41 227.09,265.1 221.86,263.77ZM239.62,265C240.44,264.08 241.35,264.29 242.27,264.8C241.35,265.41 240.44,265 239.62,265ZM245.64,265.41C246.56,265 247.27,264.9 247.78,265.61C247.07,265.92 246.46,265.92 245.64,265.41ZM265.54,265.51C266.56,266.22 267.58,266.84 268.81,266.94C267.58,266.73 265.84,267.86 265.54,265.51ZM271.35,266.63C270.43,265.92 269.72,265.61 269.62,264.39C272.17,263.57 271.35,265.2 271.35,266.63ZM274.31,265.71C273.49,265.2 273.09,264.59 273.19,263.57C274.93,263.88 274.93,263.88 274.31,265.71ZM288.09,197.76C286.7,209.88 279.11,218.44 281.66,225.11C284.11,231.51 281.1,243.9 282.27,254.19C282.98,260.42 282.37,260.98 276.25,260.92C275.43,260.91 274.41,261.33 273.7,260.51C274.62,257.24 275.94,253.98 273.19,250.92C274.21,254.8 272.07,257.96 271.25,261.43C270.83,261.51 250.67,263.88 243.29,262.55C242.07,262.33 241.45,261.43 240.94,260.92C224.05,260.42 211.85,253.15 195.12,253.15C199.01,251.38 196.74,221.19 192.98,205.5C191.1,197.65 189.38,189.88 191.45,181.84C194.42,170.29 194.95,172.99 200.12,166.33C201.45,166.13 202.77,167.25 204.2,166.33C203.69,165.21 202.06,165.21 201.55,163.78C205.12,159.29 206.96,153.78 208.18,147.96C221.34,147.76 234.2,148.16 246.85,148.67C248.35,151.51 246.04,155.36 247.87,157.65C249.09,154.69 247.67,151.63 248.58,148.67C260.21,148.67 271.74,148.87 283.48,149.38C290.04,177.68 287.26,168.99 282.15,170.6C289.8,175.96 291.92,164.25 288.09,197.76ZM289.93,170C289.11,163.16 287.38,156.53 285.75,149.9C291.57,149.9 296.77,149.9 302.18,149.8C299.68,161.02 291.06,166.23 289.93,170ZM438.6,177.75C439.52,173.77 440.33,170.1 441.36,165.71C442.07,174.39 441.66,176.32 438.6,177.75ZM439.83,124.08C443.45,142.68 442.97,192.72 423.71,186.94C434.68,174.5 438.08,125.38 426.06,109.08C432.04,108.53 436.73,108.17 439.83,124.08ZM412.48,129.59C419.98,88.09 437.12,114.68 431.36,160.61C427.01,195.3 413.68,194.68 410.95,162.45C410.67,159.08 410.03,155.72 410.54,152.25C416.27,151.87 413.93,152.58 415.54,155.01C416.59,159.41 422.21,160.21 423.7,155.21C425.44,149.38 426.84,134.63 420.43,134.5C415.19,134.39 416.3,139.69 414.51,141.64C411.24,141.03 409.79,144.49 412.48,129.59ZM416.46,141.12C418.86,127.51 424.44,149.16 417.99,156.83C416.66,155.71 416.26,154.28 416.46,152.54C417.38,151.93 418.5,152.54 419.52,151.42C422.35,138.7 418.14,143.18 416.46,141.12ZM421.05,136.32C424.62,140.71 424.42,152.03 420.64,156.83C422.48,150.1 422.58,143.36 421.05,136.32ZM356.76,142.85C377.58,143.36 397.88,143.87 418.09,144.28C419.01,146.42 418.91,147.95 417.89,149.69C335.93,148.46 360.66,149.35 356.76,142.85Z" style="fill-rule:nonzero;"/>
        <path d="M701.95,273.2C701.9,273.24 701.9,273.29 701.95,273.2Z" style="fill-rule:nonzero;"/>
        <path d="M899.53,311.22C898.39,306.94 898.71,307.88 847.39,307.55C842.74,307.52 843.64,308.89 842.9,299.28C842.44,293.31 841.04,284.87 838.61,279.48C834.69,270.78 829.87,273.2 828.2,272.64C820.85,272.13 818.28,273.65 815.34,280.4C801.28,312.65 831.39,306.52 758.81,306.52C754.92,302.42 758.3,297.96 752.38,295.6C748.99,294.24 741.45,292.24 741.67,287.13C742.38,270.61 738.9,266.85 741.16,240.5C741.96,231.21 741.43,219.71 737.08,211.42C732.3,202.29 737.08,190.04 735.45,180.71C734.14,173.21 730.06,170 733.1,158.97C739.17,137.01 731.03,122.29 724.43,118.05C710.2,108.91 708.58,113.26 698.72,105.29C687.51,96.24 679.67,97.76 681.47,92.74C683.2,91.01 685.9,94.33 689.74,83.66C694.74,69.75 691.35,70.11 694.03,63.66C695.71,59.6 693.93,56.01 692.7,52.33C691.27,65.19 691.07,78.15 685.45,89.78C677.11,91.6 669.53,86.72 669.53,89.37C672.69,90.39 675.75,91.51 678.92,92.53C679.53,96.61 680.04,100.69 679.23,104.88C683.69,101.97 677.37,95.37 687.6,101.61C691.72,114.34 687.54,137.37 675.35,136C672.6,135.69 669.94,136.82 667.29,137.43C669.94,138.55 672.39,136.82 674.94,137.02C668.5,139.96 664.76,140.04 646.47,131.51C637.21,127.19 636.03,118.91 633.61,108.96C631.19,98.98 634.22,100.44 634.22,96.92C634.22,95.07 630.44,98.13 630.85,103.45C632.14,120 636.61,131.64 650.95,136.41C662.29,140.18 665.4,143.86 674.62,140.08C686.15,135.37 687.26,134 689.42,127.43C695.94,107.59 684.84,99.04 692.58,104.57C695.95,115.9 696.35,127.43 697.78,138.86C699.27,150.69 701.52,150.01 704,170.49C702.16,171.31 700.63,170.59 698.39,170.49C700.53,172.33 702.57,172.53 704.41,172.84C706.45,174.47 706.84,176.61 706.55,179.06C703.91,201.88 704.92,201.77 700.53,212.22C695.2,224.92 700.01,225.14 699.41,232.93C698.73,241.75 698.06,250.65 699.31,258.54C696.96,262.42 693.49,260.68 690.13,260.99C691.25,257.52 692.37,254.26 689.93,251.09C690.64,254.87 688.71,258.03 687.89,261.7C677.79,261.5 667.58,265.37 655.54,260.99C645.33,260.56 631.29,255.28 618.6,253.23C609.28,251.73 614.86,255.06 612.58,257.72C611.05,256.7 612.58,254.86 611.15,253.84C607.73,254.64 611.85,257.29 608.19,264.15C606.99,266.41 604.8,268.13 604.41,270.68C603.66,275.57 602.37,280.37 603.8,285.37C604.02,286.48 602.41,296.09 602.68,276.49C602.93,258.16 600.96,273.99 604.62,234.35C605.22,227.82 603.4,221.49 602.99,214.76C605.85,213.54 604.93,209.35 607.89,207.11C614.17,233.81 609.66,251.96 612.4,253.13C617.11,227.67 606,203.2 610.03,192.92C611.66,193.94 612.38,196.29 614.93,197.1C614.11,194.24 612.07,192.71 610.24,190.57C610.75,185.16 611.36,179.35 610.24,173.63C612.08,170.87 614.73,168.94 616.36,166.18C617.79,166.18 619.12,166.89 620.54,166.49C620.34,164.96 618.7,165.27 617.89,163.73C617.79,163.32 618.4,162.71 618.81,162.1C620.93,159.64 620.85,159.94 627.59,140.16C632.58,125.5 629.58,115.01 627.28,97.4C656.8,84.28 640.61,84.78 648.81,63.11C646.77,63.01 645.14,62.91 645.03,60.66C645.64,60.15 646.76,60.97 647.68,59.64C647.78,58.11 647.99,56.07 648.19,54.23C647.17,52.7 644.82,52.09 645.33,49.74C650.48,50.64 649.41,64.04 651.86,58.31C652.47,57.09 653.09,55.76 653.29,54.43C654.21,48.41 658.29,43.92 660.23,38.41C660.95,36.37 662.68,36.68 664.31,36.88C663.8,34.64 666.25,35.25 666.76,33.61C666.66,32.39 665.13,31.47 665.13,29.94L660.84,29.94C661.35,29.12 661.76,28.31 662.98,27.9C664.92,29.23 667.98,29.23 668.29,32.59C670.13,32.39 669.31,31.26 669.41,30.35C679.21,28.02 681.56,32.1 689.1,28.82C691.08,42.66 693.37,41.09 691.86,44.02C686.74,47.17 681.95,46.62 684.31,55.65C685.53,54.32 684.62,52.89 685.53,51.67C687.57,51.98 689.71,51.47 692.06,50.45C692.98,48.21 693.28,45.55 694,43C694.57,40.13 693.77,43.57 692.16,34.73C690.09,23.36 692.7,27.5 698.69,21.77C699.4,20.44 697.98,19.01 699.2,17.79C697.26,16.46 695.63,17.79 694,17.38C694.82,15.85 697.06,16.05 697.47,14.01C695.12,11.66 693.49,14.11 691.45,14.93C691.25,12.58 692.37,10.24 690.63,7.99C688.79,9.21 687.98,11.46 685.94,12.17C685.63,11.66 686.55,11.25 685.84,10.33C682.06,8.7 678.8,12.69 674.62,11.96C670.64,11.26 666.46,11.86 662.27,12.06C660.74,12.77 660.94,15.12 658.8,15.22C658.09,14.71 659.31,13.08 657.47,12.77C646.85,22.95 648.94,15.15 641.96,15.73C641.55,17.46 643.49,17.87 643.9,19.1C642.37,20.82 641.76,22.97 641.66,25.2C641.27,25.12 640.79,25.11 640.13,25.02C642.02,28.98 634.18,38.59 636.25,47.98C637.43,53.36 640.24,53.94 638.7,57.67C638.07,59.2 650.56,84.54 638.8,89.71C629.25,93.91 624.4,94.38 613.09,102.16C602.53,109.42 591.8,104.69 585.33,118.69C583.12,123.47 579.47,126.71 577.98,135.02C577.65,136.84 574.67,146.31 576.55,151.14C580.91,162.35 571.43,161.69 574.31,185.12C575.79,197.13 577.75,199.33 575.53,203.08C570.13,212.21 575.11,220.61 574.51,227.98C572.44,253.18 582.54,258.35 578.18,260.84C580.73,268.09 582.78,275.53 584.1,283.19C584.72,286.76 583.78,289.6 581.14,291.86C562.44,307.87 604.93,302.84 505.53,301.96C504.43,300.25 505.43,286.36 504.31,272.06C504.09,269.31 503.09,267.74 500.23,267.47C488.64,266.37 490.81,265.62 488.9,293.18C488.81,294.51 489.02,295.86 487.57,296.85C478.83,302.88 515.33,301.96 401.15,300.32C399.82,303.79 399.42,306.95 401.25,310.73C429.21,311.14 457.27,311.65 485.33,312.06C480.42,313.7 476.98,326.14 476.25,328.08C474.73,332.14 482.31,336.26 484.82,331.24C487.5,325.89 484.31,333.04 488.7,335.53C489.26,348.33 487.56,352.47 500.13,350.63C506.81,349.65 502.83,315.55 505.54,312.06C575.02,313.88 577.14,311.33 577.07,314.41C576.97,319.21 580.33,320.45 583.91,321.66C585.13,322.07 586.15,322.88 587.89,322.99C590.85,320.23 590.75,316.05 592.18,312.48C589.32,314.32 590.14,318.5 586.87,320.44C579.48,317.87 578.21,318.24 579.11,313.4C580.71,313.4 582.72,311.93 583.75,314.51C584.94,314.28 585.55,313.18 586.45,312.38C589.82,314.27 595.29,310.9 591.71,303.49C593.92,305.02 592.92,302.05 594.01,300.75C597.79,303.3 596.15,307.59 597.38,310.75C596.87,311.87 595.54,311.46 595.03,312.38C595.74,313.81 596.97,312.38 597.89,312.79C598.2,318.5 596.36,320.44 590.85,320.14C591.56,321.98 593.21,322.41 594.42,321.87C597.3,320.6 599.93,321.26 602.69,321.87C604.03,322.32 603.96,321.36 604.63,320.03C615.4,317.75 607.01,313.25 615.55,314.32C616.67,317.79 616.26,321.67 618.2,324.93C617.89,321.46 617.59,318.09 617.28,314.62L658.3,314.62C659.73,323.6 659.52,331.97 657.79,340.33C661.46,332.17 660.34,323.6 660.03,315.33C665.94,312.15 663.23,321.72 665.23,329.72C665.74,324.82 664.52,320.13 664.82,315.13L678.9,315.13C692.04,335.4 691.34,334.39 692.37,335.03C694.3,334.85 694.62,336.64 684.1,319.62C680.66,314.05 676.83,315.44 706.75,315.44C707.46,316.36 707.35,316.97 707.26,317.58C706.46,323.25 707.54,403.44 707.85,403.5C707.85,403.96 707.76,403.57 709.59,404.32C710.51,403.61 709.79,402.99 709.69,402.38C707.09,392.26 711.88,375.83 709.59,364.01C709.17,361.87 710.41,359.72 710.2,357.48C708.47,338.63 710.14,331.75 708.36,326.77C711.01,323.61 709.18,319.52 710.6,315.95L723.25,315.95C725.95,324.05 729.73,323.28 737.94,324.73C742.63,325.55 743.19,316.85 742.12,312.89C741.51,310.64 742.02,308.91 743.55,307.18C747.84,308.51 747.16,312.58 747.43,315.55C747.79,319.53 745.7,322.9 741.31,324.43C744.04,326.89 748.02,323.68 749.58,323.41C754.57,322.55 755.4,321.68 755.8,316.37C773.56,316.68 791.41,316.98 809.27,317.39C809.98,322.9 809.91,328.2 810.8,333.41C813.95,351.79 816.82,353.81 827.02,354.33C834.27,354.7 836.14,348.68 837.94,345.45C845.97,344.75 845.09,336.62 843.14,328.82C842.25,325.24 842.73,321.78 843.14,318.31C844.47,317.49 845.79,317.79 847.02,317.8C894.49,318.17 902.22,321.31 899.53,311.22ZM689.32,48.77C690.34,48.36 691.05,47.95 692.08,48.57C691.06,49.28 690.34,48.97 689.32,48.77ZM694.32,19.99C694.87,20.07 698.64,18.37 694.93,22.54C694.12,21.63 694.12,20.91 694.32,19.99ZM689.42,13.16C689.93,15.1 689.22,15.61 688.2,16.12C688.2,15.1 688.61,14.38 689.42,13.16ZM680.65,27.85C678.71,27.44 677.49,27.24 676.36,25.91C677.99,26.12 679.12,26.53 680.65,27.85ZM675.85,23.57C675.85,24.08 675.54,24.39 674.93,24.28C675.04,23.77 675.04,23.16 675.85,23.57ZM672.89,24.89C673.71,24.69 674.01,24.99 674.01,25.71C673.2,26.12 672.79,25.91 672.89,24.89ZM674.42,17.24C673.5,18.46 672.69,19.18 671.46,19.69C671.36,17.65 672.18,16.93 674.42,17.24ZM666.26,16.12C666.06,16.12 665.85,16.32 665.75,16.22C665.21,15.95 665.63,14.87 666.26,16.12ZM659.83,35.2C660.34,36.53 660.34,36.53 658.91,37.65C659.32,36.93 658.4,35.81 659.83,35.2ZM657.59,18.67C656.92,20.69 655.87,20.94 655.45,20.1C655.95,19.48 656.46,18.87 657.59,18.67ZM658.81,25.61C658.1,27.34 656.97,28.88 654.83,30.1C655.44,27.55 657.38,26.83 658.81,25.61ZM654.52,41.32C654.42,42.85 653.81,43.36 652.79,43.77C652.59,42.14 653.3,41.83 654.52,41.32ZM653.5,52.04C653.4,52.35 653.3,52.75 652.79,52.96C652.59,52.24 652.48,51.73 653.5,52.04ZM645.85,43.97C645.85,42.64 644.83,41.21 646.56,40.19C646.36,41.42 646.16,42.75 645.85,43.97ZM651.67,41.42C651.06,42.13 650.45,42.54 649.32,42.85C649.83,41.63 650.03,40.51 651.67,41.42ZM645.44,24.89C646.56,25.3 646.77,26.62 648.71,26.93C649.63,25.21 651.56,27.08 649.32,28.36C643.92,26.4 645.66,28.43 642.6,29.38C642.6,27.85 644.23,27.54 644.13,26.22C640.96,24.72 641.28,25.92 645.44,24.89ZM643.2,53.16C644.22,53.36 644.83,54.08 645.55,55.1C644.73,56.02 644.12,56.94 644.12,58.57C642.79,56.53 640.95,55.1 643.2,53.16ZM402.79,308.47C401.97,306.53 402.59,305 402.79,302.96C431.06,303.37 458.81,303.78 486.77,304.18C486.41,311.75 497.04,309.86 402.79,308.47ZM479.22,330.51C478.07,329.31 478.4,327.86 479.12,326.63C483.75,319.57 483.75,314.11 487.28,315C485.31,321.96 485.79,337.38 479.22,330.51ZM489.42,299.08L489.42,315.61C487.79,312.76 488.09,303.06 489.42,299.08ZM489.52,332.25C488.56,328.23 489.39,324.36 489.52,320.52L489.52,332.25ZM706.46,206.12C708.7,210.92 707.46,215.3 706.97,219.49C704.78,238.08 712.95,244.55 715.03,258.16C715.34,260.2 714.49,262.15 715.34,264.18C718.07,270.77 726.91,295.55 723.2,305L710.85,305C711.22,300.89 708.39,279.74 703.4,271.73C700.92,267.74 704.23,266.53 702.89,261.42C700.68,252.99 703.8,232.75 701.77,219.58C701.51,218.53 702.11,217.81 706.46,206.12ZM700.44,262.55C700.44,264.18 701.36,265.92 699.62,267.14C700.14,265.71 697.99,263.67 700.44,262.55ZM695.24,263.98C695.34,264.39 695.65,265 694.83,264.8C694.22,264.64 694.32,263.06 695.24,263.98ZM690.55,263.26C693.1,263.46 692.59,264.59 691.57,266.12C690.95,265.2 690.34,264.59 690.55,263.26ZM688.4,264.18C688.81,264.89 688.81,265.51 688.4,266.22C686.07,264.89 686.92,263.69 688.4,264.18ZM686.57,266.73C683.51,267.04 683.51,267.04 682.9,265.4C684.12,265.92 685.04,267.04 686.57,266.73ZM665.65,265.82C664.63,265.72 663.81,266.23 662.79,265.11C663.81,265.2 664.63,264.8 665.65,265.82ZM659.32,264.9C658.71,265.21 658.2,265.21 657.48,264.59C658.4,264.49 659.01,264.08 659.32,264.9ZM644.73,263.57C646.75,264.83 648.89,262.99 650.65,264.39C652.36,265.75 654.94,262.76 656.67,265.51C650.55,266.12 644.94,265.31 639.32,263.47C641.16,261.84 643.29,262.67 644.73,263.57ZM637.08,263.57C636.26,263.16 635.35,263.47 635.45,261.94C636.57,261.53 636.97,262.04 637.08,263.57ZM633.3,260.41C634.01,261.43 633.81,262.14 632.48,262.25C631.59,262.24 631.3,260.1 633.3,260.41ZM630.03,259.28C630.34,260.3 630.44,261.01 629.52,261.42C628.91,260.61 629.01,260 630.03,259.28ZM626.67,256.53C626.98,258.16 627.18,259.39 627.38,260.61C626.05,261.02 625.03,260.92 623.91,260.51C624.32,258.98 624.73,257.55 626.67,256.53ZM621.87,257.86C622.07,258.68 622.48,259.49 621.05,260.51C620.65,259.08 620.65,258.37 621.87,257.86ZM619.93,256.73C618.91,255.2 617.48,255.3 616.05,255.4C619.32,254.8 619.32,254.8 619.93,256.73ZM616.97,259.39C616.36,258.57 616.87,258.17 617.48,257.76C618.76,259.04 617.33,259.74 616.97,259.39ZM606.56,276.33C606.36,269.9 610.03,265.31 612.68,260.11C617.58,260.72 622.48,262.25 627.58,262.56C627.58,265.83 627.89,268.78 629.52,271.34C630.23,268.79 629.42,266.24 630.13,263.38C639.93,266.03 649.72,268.18 659.72,267.26C665.51,280 661.75,269.59 662.07,267.57C666.87,268.18 671.46,265.73 676.15,267.77C676.46,271.55 678.5,274.4 680.95,277.46C681.15,273.38 677.99,270.32 679.01,266.44C676.05,265.73 673.09,265.73 670.13,265.32C673.8,264.2 677.68,265.32 681.25,264.4C681.96,265.52 680.54,266.24 681.25,267.16C681.86,267.77 683.09,267.57 683.7,268.59C683.7,270.94 683.29,273.39 684.21,275.83C689.42,266.27 681.56,269.34 691.25,268.69C694.11,268.5 696.96,268.28 699.72,267.16C701.56,268.89 700.94,271.45 701.96,273.18C701.95,273.2 701.95,273.2 701.94,273.22C702.09,273.1 702.67,273.08 703.8,276.65C709.2,293.77 704.62,288.37 704.62,291.14C708.07,298.04 706.41,296.08 705.44,299C706.05,299.82 706.87,298.59 707.48,299.71C706.86,304.05 710.13,305.59 700.44,304.71C699.62,292.67 699.32,291.75 695.85,291.55C696.67,295.84 699.83,299.61 698.81,304.1L665.14,304.1C665.14,284.37 665.39,298.21 662.9,304.1C659.74,300.53 661.78,295.73 660.45,290.94C659.94,295.74 660.76,299.92 659.84,303.7C614.09,303.7 616.9,305.78 627.19,296.97C625.15,296.66 624.12,297.98 623.21,299.21C618.57,305.51 609.96,304.22 608.82,301.76C611.93,282.05 608.64,294.57 608,295.33C602.97,291.23 605.53,286.83 608.51,277.88C608.2,276.73 606.67,277.14 606.56,276.33ZM610.44,170.81C609.62,166.32 608.91,162.34 608.2,158.36C615.38,167.18 617.58,163.26 610.44,170.81ZM492.48,349.08C489.93,322.45 491.26,296.02 492.89,269.79C496.56,268.26 499.62,268.97 502.69,269.59C500.75,296.12 500.24,322.45 501.67,349.08C498.6,349.59 495.85,349.9 492.48,349.08ZM503.81,313.67C504.17,321.23 503.5,328.87 503.3,336.83C500.41,334.26 504.22,265.85 504.22,283.46C504.22,301.38 504.88,301.6 503,302.54C502.48,306.33 503.63,310 503.81,313.67ZM504.62,310C504.31,308.06 504.31,306.53 504.62,304.49C598.05,306.03 574.75,304.55 579.93,308.57C585.67,312.1 598.21,311.45 504.62,310ZM591.5,303.16C590.9,303.02 590.46,302.64 590.02,302.14C590.31,301.76 591.59,302.23 591.29,301.19C590.75,299.35 587.78,300.89 587.48,297.96C585.95,301.43 587.57,302.67 589.42,303.98C592.47,306.15 592.18,310.2 588.71,311.84C586.67,309.49 583.81,308.37 581.05,306.74C580.95,303.98 580.54,301.23 578.7,299.49C585.13,292.07 590.66,289.68 584.92,273.27C582.36,265.94 586.25,269.8 580.43,251.74C575.86,237.55 578.48,226.69 577.16,219.9C573.57,201.33 581.49,205.33 579.4,194.59C578.19,188.37 575.3,177.12 576.85,171.43C580.76,157.08 581.77,152.58 579.91,148.27C579.19,146.59 581.05,131.43 588.89,119.39C598.15,105.18 602.58,114.56 618.89,101.43C621.04,99.7 623.48,98.57 626.95,98.47C624.91,102.45 625.93,106.23 627.05,109.9C625.93,110.92 624.6,110 623.68,111.02C627.01,112.84 628.86,107.53 628.07,128.47C626.54,128.67 625.31,128.78 623.99,128.98C625.11,130.41 626.75,129.08 627.66,130.41C627.42,133.69 620.84,164.97 614.8,162.96C605.75,151.48 607.74,133.92 605.11,140.51C603.78,144.49 606.45,147.96 606.23,151.94C605.51,165.25 612.58,175.18 606.23,199.49C605.32,202.96 606.12,206.93 603.78,209.8C597.33,217.68 604.36,221.11 601.23,246.23C600.27,253.93 598.62,287.1 602.96,293.07C604.29,294.9 602.45,296.85 602.86,298.68C604.59,298.48 603.47,296.23 605.1,295.82C605.61,297.66 606.73,299.39 605.92,301.94C604.29,298.88 600.82,300.51 599.08,298.67C590.1,299.24 593.62,303.67 591.5,303.16ZM599.22,319.18C604.25,309.79 593.5,297.14 603.91,302.34C605.1,316.2 607.86,319.67 599.22,319.18ZM606.77,318.16C607.6,312.1 603.61,297.81 607.59,303.77C610.28,308.37 612.6,317.12 606.77,318.16ZM611.97,311.63C611.77,309.69 611.56,308.06 611.36,306.12C739.03,309.11 730.24,304.54 727.79,313.36C689.02,312.76 650.55,312.25 611.97,311.63ZM748.51,308.37C748.82,309.08 749.02,309.49 749.43,310.31C748.1,309.8 748.1,309.29 748.51,308.37ZM754.12,318.78C752.79,319.9 751.57,321.54 748.81,321.94C750.44,318.37 748.81,315.31 749.42,312.25C750.75,314.59 755.04,314.69 754.12,318.78ZM754.73,313.06C753,313.37 752.29,312.34 751.46,311.33C749.64,309.07 751.66,306.94 751.97,304.7C749.42,304.09 749.62,307.25 747.58,307.25C745.85,306.03 743.91,304.29 741.56,306.43C741.56,304.08 739.83,304.19 738.09,303.57C738.7,305.51 736.36,306.12 736.76,307.86C737.88,308.47 737.78,306.53 739.41,307.35C744.01,324.37 739.32,318.5 737.47,319.8C737.67,320.92 739.82,320.41 739,322.25C738.18,323.17 736.96,322.45 735.94,322.45C735.33,321.74 736.55,321.12 736.04,320.61C735.47,320.13 734.31,320.51 734.41,320.61C730.84,323.37 726.96,321.32 725.74,316.12C727.47,314.59 727.47,317.55 729.11,317.24C730.23,314.89 729.62,312.04 730.44,309.18C731.87,309.38 731.77,307.34 733.3,307.14C736.26,308.06 734.22,310.51 734.42,312.04C734.72,314.29 734.42,316.84 732.99,318.88C732.17,319.8 730.95,318.06 730.23,319.29C732.49,322.91 737,321.31 735.64,307.76C735.01,301.45 725.52,309.85 726.15,301.74C727.25,287.55 717.06,257.1 712.37,243.68C706.7,227.43 711.49,220.39 709.1,207.66C709,207.56 709.2,207.35 709.3,207.25C709.91,207.35 709.91,208.98 711.14,208.07C706.55,187.95 709.29,196.04 709.2,188.99C709.01,174.37 710.61,174.66 709.71,171.23C721.59,161.33 725.97,144.79 723.08,137.76C722.67,139.9 721.96,140.92 720.43,141.43C721.64,145.05 719.77,155.35 710.94,165.21C709.59,166.72 708.08,167.97 707.67,170.11C705.8,169.07 706.1,161.89 705.53,159.6C703.27,150.52 700.74,141.54 700.12,132.15C698.49,107.24 695.03,109.27 696.34,106.64C698.38,107.97 700.03,109.68 702.05,110.72C707.29,113.41 713.2,114.22 718.58,116.54C727.11,120.21 732.3,132.36 732.87,141.74C733.83,157.68 726.72,161.61 731.75,175.31C734.05,181.57 733.87,186.62 733.08,194.8C731.06,215.58 744.98,219.27 737.37,246.94C736.67,249.49 735.84,252.04 736.66,254.9C736.97,254.19 736.76,253.06 737.99,253.17C736.46,266.23 740.85,279.09 739.32,292.15C740.75,292.86 741.16,291.54 741.36,291.54C750.93,298.72 753.68,296.1 754.93,302.66C755.53,305.78 758.16,308.56 754.73,313.06ZM757.18,313.98C757.28,311.53 758.1,309.9 759.32,308.06C779.42,309.18 799.32,308.47 819.12,309.59C819.43,311.53 819.73,313.16 818.61,314.79C798.2,314.49 777.79,314.29 757.18,313.98ZM818.71,321.84C817.49,320.62 817.08,319.19 817.08,317.45C818.1,317.25 819.02,317.14 820.04,316.94C821.37,313.78 821.37,310.61 820.75,307.55C819.53,306.43 818.2,307.14 817.08,306.22C817.49,304.59 817.59,302.65 819.32,301.22C822.79,306.43 822.38,318.06 818.71,321.84ZM821.57,301.12C825.55,305.81 825.04,319.08 821.26,321.63C823.2,315 823.51,308.27 821.57,301.12ZM816.77,347.96C811.94,338.39 811.46,327.96 811.16,317.45C816.28,316.17 815.58,318.52 816.16,320.51C817.28,324.33 822.78,325.37 824.12,320.82C825.93,314.66 827.16,299.85 820.85,299.7C814.01,299.54 818.25,309.03 811.77,306.33C811.4,292.44 819.41,265.23 826.97,276.94C841.38,299.24 827.88,369.95 816.77,347.96ZM840.65,342.65C839.04,342.25 839.29,343.98 842.08,331.43C842.28,335.31 843.41,339.39 840.65,342.65ZM836.26,346.33C833.54,351.86 830.95,353.17 824.42,352.15C836.17,339.42 838.29,289.36 826.56,274.09C832.55,273.35 837.03,273.06 840.23,287.56C844.05,304.82 843.37,331.86 836.26,346.33ZM897.59,315.41L843.81,315.41C843.81,313.17 843.5,311.53 844.01,310.21L897.07,310.21C898.71,312.35 898.51,314.08 897.59,315.41Z" style="fill-rule:nonzero;"/>
        <path d="M707.79,403.78L707.89,403.88C707.89,403.79 707.92,403.82 707.79,403.78Z" style="fill-rule:nonzero;"/>
        <path d="M583.71,314.59L583.81,314.69C583.73,314.53 583.79,314.59 583.71,314.59Z" style="fill-rule:nonzero;"/>
        <path d="M726.36,556.54C723.59,554.84 725.69,551.37 720.75,547.76C718.21,545.91 715.59,543.86 714.02,540.92C713.03,539.07 710.86,538.57 709.33,537.25C709.13,537.86 709.33,538.58 708.82,539.19C705.15,540.11 701.57,541.13 698,544.09C700.65,544.6 698.41,547.05 700.24,547.97C702.69,545.42 706.77,546.03 710.34,547.05C704.73,548.58 704.73,548.58 704.12,551.23C706.06,551.64 707.9,550.52 709.83,550.62C718.3,550.62 718.8,549.56 720.24,551.64C710.95,552.46 707.99,553.48 706.57,556.13C708.59,558.15 722.16,552.11 722.39,556.33C718.51,556.23 714.63,556.02 711.37,558.78C715.55,560 719.64,558.78 724.02,558.27C725.82,559.06 736.65,566.95 736.88,568.47C737.37,571.74 738.51,574.8 739.23,578.16C722,574.2 728.89,584.77 708.11,580.1C700.32,578.35 704.2,573.43 699.44,570C698.73,571.43 700.56,572.35 699.64,573.98C695.89,570 680.64,575.27 679.44,566.22C682.16,563.5 680.65,558.1 683.32,555.61C686.39,552.74 684.14,549.72 685.56,543.47C686.68,543.47 686.78,544.49 687.5,544.9C694.19,548.25 691.86,541.16 699.23,539.08C696.17,537.75 696.47,534.9 695.15,532.55C699.13,531.43 703.21,532.24 706.78,530.51C707.7,533.06 706.27,535.71 707.6,537.86C709.42,538.41 709.84,536 709.84,534.19C710.3,527.55 706.23,528.17 700.15,528.17C699.23,525.01 699.84,521.74 699.23,518.88C698.21,521.64 698.41,524.8 698.72,527.96C695.96,529.29 693.21,528.47 690.25,529.18C689.54,526.02 688.82,523.06 688.21,520C686.1,520 687.95,526.63 688.41,528.88C688.14,529.49 685.35,531.07 685.35,528.68C678.9,485.14 665.32,482.43 666.98,455.31C668.08,437.39 666.15,438.21 667.18,434.6C671.05,426.02 667.36,418.39 664.02,406.13C670.06,408.58 673.87,412.05 679.22,411.23C698.9,408.22 693.69,405.61 698.61,407.25C699.39,416.63 697.29,414.48 697.79,425.01C698.21,433.81 696.82,433.27 697.48,435.72C705.75,466.22 699.45,523.98 703.91,527.25C705.61,525.55 703.58,528.32 704.62,475.21C704.63,474.9 705.39,454.68 703.19,450.82C700.37,444.56 699.14,420.73 700.95,414.19C701.66,411.64 701.56,408.99 701.87,406.43C703.68,404.83 706.26,405.29 707.71,403.55C702.51,402.6 705.22,404.64 677.79,408.67C674.36,409.17 657,398.79 652.73,398.67C653.34,395.88 651.62,379.11 653.51,363.67C651.92,365.26 650.93,373.2 650.86,374.59C649.71,395.76 654.21,402.08 646.68,401.63C629.93,400.62 634.62,404.48 616.88,400.51C576.85,391.54 587.86,400.53 594.43,366.12C593.92,373.16 593.61,380.2 592.08,387.14C594.52,384.32 596.2,368.32 595.65,363.87C594.68,355.98 596.98,352.04 596.98,336.83C596.98,331.21 599.81,330.09 603.92,344.48C605.65,338.66 602.59,334.58 598.61,330.91C598.41,328.15 599.73,325.4 598.61,322.75C591.85,320.82 597.1,354.74 587.59,380.81C585.95,385.3 586.26,390.1 584.83,394.59C590.65,396.73 595.85,399.79 601.97,400.51C603.53,431.27 605.27,426 601.46,442.65C596.47,464.47 620.21,539.79 620.24,539.9C620.75,542.35 622.28,544.49 624.53,546.33C626.2,542.17 619.68,542.12 631.06,539.39C639.12,534.94 647.41,538.37 631.06,539.39C630.96,539.9 630.55,540.11 630.14,540.21C622.92,541.83 627.24,546.93 624.43,549.39C623.51,549.8 623.41,548.17 622.29,548.68C622.76,550.78 620.61,552.29 620.66,554.29C620.81,561.34 617.9,567.56 615.86,573.98C617.7,576.63 620.86,577.45 622.49,580C623.1,576.53 619.53,575.92 618.2,573.47C620.73,566.51 622.15,565.27 621.87,560C621.25,548.14 628.09,553.42 628.09,546.53C628.09,542.14 631.51,541.64 640.44,540.2C641.15,540.09 641.87,540.71 642.68,541.02C642.78,543.06 642.48,545 641.56,546.94C643.19,547.25 643.91,548.16 643.7,550C638.09,547.24 632.99,547.76 628.39,552.35C629.1,553.68 630.12,554.49 629.92,556.23C633.59,553.58 637.06,555.52 640.63,555.62C637.26,556.74 633.28,556.44 630.63,559.5C631.65,560.83 632.57,560.32 633.39,560.11C643.75,556.89 646.59,560.69 647.97,559.58C648.34,559.95 648.39,560.01 648.39,560.11C648.39,570.27 658.9,574.62 659,579.7C659.05,582.15 659.82,584.39 660.94,586.33C661.86,586.43 662.27,585.92 662.16,585.62C661.04,581.23 662.16,576.33 657.57,572.97C654.92,571.03 652.75,567.77 652.16,564.3C650.4,553.93 644.42,546.31 644.81,545.52C646.24,541.54 644.3,538.28 642.16,534.5C641.96,534.19 640.73,534.91 640.12,534.09C634.92,505.92 641.3,485.95 641.75,482.66C645.04,458.71 637.11,449.15 638.48,430.62C638.48,427.13 638.69,433.64 642.15,417.15C643.13,412.46 641.43,410.25 644.91,404.39C648.2,404.2 652.03,404.08 652.69,399.56C653.2,400.46 654.18,400.91 655.12,401.43C664.97,406.9 657.23,401.33 662.26,409.39C670.5,422.57 660.51,445.03 665.53,475.11C665.77,476.56 678.07,497.62 682.16,524.19C683.24,531.17 686.34,534.91 684.4,540.62C681.81,548.28 683.48,551.24 682.97,552.25C680.73,555.92 680.01,560.21 678.28,563.98C677.16,566.43 677.28,568.14 678.79,569.9C684.49,576.55 692.02,572.77 700.32,576.02C701.85,582.91 717.44,583 724.4,582.24C727.56,578.67 733.07,577.65 737.97,579.79C713.7,584.26 735.29,582.26 740.52,580.4C741.88,569.41 735.79,562.32 726.36,556.54ZM705.04,542.96C707.49,542.35 710.04,540.31 712.18,543.57C709.73,543.37 707.38,543.17 705.04,542.96ZM692.69,531.94C693.91,533.88 695.24,535.82 695.45,538.37C692.9,539.19 692.08,541.74 690.14,543.68C686.47,541.13 687.69,537.05 686.67,534.09C688.3,531.74 690.34,531.53 692.69,531.94ZM647.34,557.95C648.52,560.9 646.89,557.57 643,556.33C643.71,555.41 644.63,556.43 645.35,555.72C645.02,553.77 644.58,553.57 645.42,554.25C644.61,552.93 646.85,555.3 647.34,557.95ZM644.93,553.98C640.75,552.35 636.36,552.14 631.87,552.35C634.42,550.82 637.17,550.73 639.73,551.64C641.47,552.26 643.93,551.64 644.93,553.98ZM636.26,411.53C637.08,411.12 637.99,410.71 638.91,410.31C640.75,413.88 639.22,417.35 638.2,420.41C630.55,438.82 642.28,454.37 639.02,478.37C632.43,526.88 637.14,509.86 633,502.96C633.2,513.57 638.1,523.57 637.49,534.59C632.39,535.92 626.98,537.45 621.78,539.49C620.68,532.1 615.99,524.52 612.19,504.18C605.89,470.5 602.45,467.57 603.52,447.65C604.92,421.53 608.03,447.52 604.23,401.22C608.21,403.46 605.96,407.85 608.41,410.2C608.61,408.06 608.21,405.91 608.82,403.47C619.23,406.94 629.64,403.88 639.94,403.88C640.96,408.68 636.37,408.68 634.53,411.13C634.22,413.27 633.76,415.62 633.71,418.07C633.66,420.93 630.04,421.34 629.53,424.19C636.67,420.41 637.38,419.08 636.26,411.53Z" style="fill-rule:nonzero;"/>
        <path d="M612.99,354.69C612.25,355.8 612.43,355.77 612.58,356.53C628.18,345.39 621.94,350.26 632.58,344.59C634.25,343.55 649.63,345.37 652.58,343.26C645.62,343.5 625.84,337.97 612.99,354.69Z" style="fill-rule:nonzero;"/>
        <path d="M221.05,342.55C209.39,342.22 197.39,350.12 194.83,356.53C200.46,354.33 194.84,355.05 215.14,344.69C218.09,343.38 232.33,345.57 235.14,343.16C230.33,343.67 225.74,342.69 221.05,342.55Z" style="fill-rule:nonzero;"/>
        <path d="M640.14,588.98C646.06,587.25 652.08,584.9 658.81,584.49C655.03,582.45 644.01,584.9 637.38,589.08C626.26,587.24 626.26,587.24 621.87,581.73C620.09,591.21 632.43,589.26 640.65,591.93C641.67,590.41 639.93,590.21 640.14,588.98Z" style="fill-rule:nonzero;"/>
        <path d="M270.54,395.92C268.19,393.37 266.39,392.81 264.32,393.98C261.3,395.69 262.59,398.37 262.89,400.92C265.95,401.43 268.91,402.04 270.75,398.27C272.28,399.6 273.72,401.16 275.85,400.62C283.48,398.66 276.77,387.25 270.54,395.92ZM266.15,399.8C267.88,396.33 264.72,398.58 264.21,397.35C264.21,394.53 267.97,394.28 268.6,396.43C269.02,397.86 268.7,399.19 266.15,399.8ZM275.03,398.98C272.53,398.98 271.74,395.05 275.03,394.29C278.63,394.8 277.79,398.98 275.03,398.98Z" style="fill-rule:nonzero;"/>
        <path d="M680.44,400.92C683.81,401.53 686.77,401.94 688.3,398.27C695.48,404.15 699.06,396.55 695.34,393.58C693.07,391.77 690.44,392.56 688.2,395.82C686.67,393.68 684.63,392.55 682.08,393.78C678.91,395.51 680.34,398.27 680.44,400.92ZM695.14,396.84C694.7,399.91 690.55,399.61 690.55,396.74C690.34,393.37 695.35,393.73 695.14,396.84ZM686.36,396.74C686.54,398.38 686.05,399.5 683.91,399.6C685.03,396.95 682.58,398.17 681.77,397.76C681.96,393.91 686.12,394.51 686.36,396.74Z" style="fill-rule:nonzero;"/>
        <path d="M240.95,584.29C236.97,582.66 226.05,585.31 219.83,589.19C214.42,587.56 207.28,589.29 204.73,581.13C202.04,591.36 214.44,589.03 223.2,591.95C224.22,590.42 222.59,590.32 222.38,589.09C228.5,587.25 234.41,585.01 240.95,584.29Z" style="fill-rule:nonzero;"/>
        <path d="M305.13,202.45C293.04,188.47 296.21,184.03 293.8,175.1C292.16,177.57 294.18,180.85 293.39,185C292.14,191.59 299.65,202.45 305.13,202.45Z" style="fill-rule:nonzero;"/>
        <path d="M258.8,51.63C258.9,49.49 261.04,49.69 262.47,49.18C261.25,43.87 252.27,43.57 246.45,48.57C248.49,49.28 249.51,47.35 251.25,47.04C252.88,48.06 254.92,47.96 256.96,48.37C254.1,49.49 251.04,49.7 248.39,51.33C251.76,52.14 255.03,52.44 258.8,51.63Z" style="fill-rule:nonzero;"/>
        <path d="M679.83,49.69C679.73,47.55 679.22,46.1 677.59,45.81C672.8,44.95 667.9,44.28 663.81,48.36C665.54,48.67 665.54,48.67 668.5,47.03C670.23,48.46 672.68,47.34 674.72,48.56C671.66,49.68 668.39,49.48 664.92,51.52C680.38,54.23 674.46,48.16 679.83,49.69Z" style="fill-rule:nonzero;"/>
        <path d="M674.93,384.7C671.15,373.78 666.05,363.58 658.2,355.01C663.71,364.9 669.83,374.59 674.93,384.7Z" style="fill-rule:nonzero;"/>
        <path d="M257.48,384.29C253.7,373.47 248.6,363.47 240.85,355C246.35,364.8 252.37,374.29 257.48,384.29Z" style="fill-rule:nonzero;"/>
        <path d="M667.79,224.28C667.28,215.1 672.28,206.83 669.83,197.85C669.22,198.05 668.81,198.16 668.81,198.26C669.63,208.57 662.39,217.86 667.79,224.28Z" style="fill-rule:nonzero;"/>
        <path d="M696.67,413.47C695.14,415.41 695.75,417.76 695.34,420C693.81,421.94 691.05,422.35 690.14,424.39C690.34,425.72 691.57,425.72 691.98,426.43C692.49,429.8 690.96,432.86 691.37,436.12C694.33,433.67 695.04,429.49 693.21,424.9C698.61,422.45 696.57,417.66 696.67,413.47Z" style="fill-rule:nonzero;"/>
        <path d="M279.52,413.47C277.58,415.2 278.7,417.65 277.99,420C276.87,421.94 273.91,422.14 272.89,424.29C272.69,425.82 274.42,425.62 274.83,427.15C274.83,429.91 273.91,432.97 274.42,436.23C276.97,432.86 277.89,429.19 275.85,425.01C281.05,422.45 279.52,417.76 279.52,413.47Z" style="fill-rule:nonzero;"/>
        <path d="M654.12,77.65C652.69,73.87 651.16,70.3 651.16,66.22C649.68,71.42 650.95,77.49 652.08,78.06C663.76,86.74 672.65,90.52 654.12,77.65Z" style="fill-rule:nonzero;"/>
        <path d="M236.66,77.65C235.33,73.98 233.7,70.41 233.9,66.32C232.37,69.99 232.78,73.77 234.21,77.34C235.74,81.17 262.09,94.14 236.66,77.65Z" style="fill-rule:nonzero;"/>
        <path d="M642.99,367.76C640.03,368.88 638.32,371.23 638.19,373.98C637.82,381.92 635.39,390.45 636.25,397.35C637.47,396.94 637.07,395.92 637.07,395.31C637.07,388.47 639.3,381.95 639.62,375.21C639.76,372.35 641.26,370 642.99,367.76Z" style="fill-rule:nonzero;"/>
        <path d="M248.8,329.59C248.8,317.14 245.84,304.69 248.09,292.04C244.01,304.69 247.88,317.14 248.8,329.59Z" style="fill-rule:nonzero;"/>
        <path d="M220.54,375.21C220.54,381.92 217.43,393.91 219.42,397.15C219.32,390.52 221.68,384.29 221.87,377.76C221.98,374.09 223.2,370.82 225.85,368.07C224.58,366.93 220.54,371.06 220.54,375.21Z" style="fill-rule:nonzero;"/>
        <path d="M243.9,309.9C240.58,320.24 245.04,317.33 241.14,340.72C245.7,336.96 243.46,320.06 243.9,309.9Z" style="fill-rule:nonzero;"/>
        <path d="M222.99,559.7C219.75,559.77 214.83,559.77 215.13,562.97C219.62,563.28 224.11,561.64 229.11,562.26C227.37,559.9 225.23,559.65 222.99,559.7Z" style="fill-rule:nonzero;"/>
        <path d="M631.97,562.96C637.07,563.06 641.56,561.74 646.26,562.14C642.89,558.58 635.14,558.78 631.97,562.96Z" style="fill-rule:nonzero;"/>
        <path d="M280.33,399.8C282.27,399.9 282.27,397.96 283.39,397.56C285.02,397.25 284.1,399.5 285.94,399.4C286.55,397.05 286.25,394.71 285.63,392.36C282.89,391.19 277.45,393.19 279.92,396.03C281.35,397.35 280.23,398.47 280.33,399.8ZM284.42,394.29C283.81,396.23 282.79,396.13 280.75,394.7C282.38,393.98 283.19,393.16 284.42,394.29Z" style="fill-rule:nonzero;"/>
        <path d="M701.16,397.55C702.79,397.24 701.87,399.49 703.71,399.39C704.32,397.04 703.91,394.7 703.51,392.35C701.16,391.25 695.4,392.55 697.59,395.72C698.59,397.16 698.51,398.27 697.9,399.8C700.04,399.9 699.93,397.86 701.16,397.55ZM702.08,394.29C701.47,396.23 700.45,396.13 698.41,394.7C700.04,393.98 700.85,393.16 702.08,394.29Z" style="fill-rule:nonzero;"/>
        <path d="M228.19,112.24C234.41,115.61 241.76,115.71 246.56,121.02C245.03,116.43 234.82,111.63 228.19,112.24Z" style="fill-rule:nonzero;"/>
        <path d="M663.81,121.12C662.48,116.53 653.5,112.14 645.14,112.04C648.93,114.67 660.42,116.16 663.81,121.12Z" style="fill-rule:nonzero;"/>
        <path d="M239.62,384.39C243.5,385.82 242.38,390.31 245.13,393.37C244.72,385.51 238.19,380.51 238.09,373.37C237.27,377.25 238.8,380.82 239.62,384.39Z" style="fill-rule:nonzero;"/>
        <path d="M655.03,375.21C655.64,378.17 655.66,381.42 657.07,383.88C658,385.51 659.61,386.95 660.34,388.88C660.84,390.21 660.95,391.64 662.18,392.55C662.08,385.41 655.55,380.51 655.96,373.16C654.63,373.57 654.83,374.49 655.03,375.21Z" style="fill-rule:nonzero;"/>
        <path d="M636.57,166.12C642.28,164.49 648.2,165.3 654.33,163.98C650.85,162.04 641.06,163.16 636.57,166.12Z" style="fill-rule:nonzero;"/>
        <path d="M243.39,291.84C242.34,291.84 242.78,289.74 242.78,305.92C244.82,300.41 245.84,294.7 245.84,288.78C244.1,292.76 243.39,308.24 243.39,291.84Z" style="fill-rule:nonzero;"/>
        <path d="M348.5,143.06C345.28,135.92 343.36,127.29 336.66,133.47L341.86,133.47C344.93,136.43 344.72,141.02 348.5,143.06Z" style="fill-rule:nonzero;"/>
        <path d="M278.5,291.43C279.01,296.23 282.48,300.1 281.66,305C284.11,299.08 282.48,292.45 278.5,291.43Z" style="fill-rule:nonzero;"/>
        <path d="M678.91,80.2C681.56,81.63 684.52,81.42 686.77,79.49C684.32,76.02 680.75,76.32 678.91,80.2Z" style="fill-rule:nonzero;"/>
        <path d="M684.83,166.73C689.01,169.59 694.93,170.71 698.4,169.59C696.87,168.06 689.83,166.53 684.83,166.73Z" style="fill-rule:nonzero;"/>
        <path d="M257.58,74.38C257.68,74.69 257.68,75.09 257.78,75.4C263.36,77.43 286.23,71.65 257.58,74.38Z" style="fill-rule:nonzero;"/>
        <path d="M215.64,281.73C212.99,286.32 214.31,293.87 217.88,295.91C215.13,291.43 216.56,286.33 215.64,281.73Z" style="fill-rule:nonzero;"/>
        <path d="M674.93,75.1C676.97,76.43 686.36,75.61 688.6,73.98C686.77,72.95 676.67,73.77 674.93,75.1Z" style="fill-rule:nonzero;"/>
        <path d="M261.35,80.2C266.85,82.75 273.97,78.62 265.64,77.24C263.5,76.89 262.27,78.06 261.35,80.2Z" style="fill-rule:nonzero;"/>
        <path d="M275.74,335.61C275.94,335.41 276.25,335.3 276.45,335.1C263.27,313.01 255.25,303.9 275.74,335.61Z" style="fill-rule:nonzero;"/>
        <path d="M657.99,96.02C658.81,101.94 661.87,107.24 662.68,113.27C663.91,110.3 661.16,100.1 657.99,96.02Z" style="fill-rule:nonzero;"/>
        <path d="M266.15,457.86C264.31,465.41 264.31,466.74 266.25,473.37C267.48,468.06 265.64,462.96 266.15,457.86Z" style="fill-rule:nonzero;"/>
        <path d="M245.74,112.75C244.92,106.93 244.11,101.02 240.84,95.91C241.46,101.83 244.31,107.14 245.74,112.75Z" style="fill-rule:nonzero;"/>
        <path d="M683.61,457.76C680.75,462.96 682.69,468.17 683.51,473.27C685.04,468.17 682.99,462.96 683.61,457.76Z" style="fill-rule:nonzero;"/>
        <path d="M263.5,419.39C261.36,420.21 259.11,419.59 256.56,420.92C260.05,423.37 266.24,423.44 266.56,414.59C264.52,415.72 264.93,417.96 263.5,419.39Z" style="fill-rule:nonzero;"/>
        <path d="M680.75,419.39C678.91,420.31 676.36,419.49 674.12,421.02C676.77,422.86 679.43,422.45 681.47,421.43C683.71,420.31 683.82,417.55 684.12,414.7C681.77,415.82 682.28,418.17 680.75,419.39Z" style="fill-rule:nonzero;"/>
        <path d="M647.38,590.41C651.87,592.14 656.16,590.31 660.54,589.39C655.95,587.86 651.67,589.8 647.38,590.41Z" style="fill-rule:nonzero;"/>
        <path d="M230.13,590.62C234.52,592.15 238.8,590.42 243.5,590.11C241.15,588.07 240.23,588.07 230.13,590.62Z" style="fill-rule:nonzero;"/>
        <path d="M250.84,120.2C252.98,120.71 264.82,117.14 268.49,114.69C263.81,116.14 251.49,118.28 250.84,120.2Z" style="fill-rule:nonzero;"/>
        <path d="M685.24,115.2C679.53,116.63 673.4,117.04 668.2,120.61C673.91,118.77 679.93,118.16 685.24,115.2Z" style="fill-rule:nonzero;"/>
        <path d="M337.89,139.69C338.29,141.32 338.91,142.65 340.95,142.75C338.6,140.1 338.5,136.32 336.66,133.46C334.42,132.75 332.17,131.73 329.93,133.66C331.71,135.46 335.87,131.53 337.89,139.69Z" style="fill-rule:nonzero;"/>
        <path d="M327.68,136.53C329.62,138.26 330.13,141.33 333.29,143.16C331.86,139.59 329.82,137.34 328.19,135C323.19,134.49 322.37,134.9 320.74,138.27C323.09,137.45 324.93,135.51 327.68,136.53Z" style="fill-rule:nonzero;"/>
        <path d="M267.68,290.61C267.68,294.9 270.23,296.73 273.5,297.96C271.15,296.02 272.07,291.43 267.68,290.61Z" style="fill-rule:nonzero;"/>
        <path d="M635.95,567.25C639.42,566.84 642.28,565.92 645.34,564.7C641.77,562.86 637.79,563.78 635.95,567.25Z" style="fill-rule:nonzero;"/>
        <path d="M257.78,289.9C258.39,294.39 260.33,298.47 260.23,302.96C260.64,291.33 260.54,291.02 257.78,289.9Z" style="fill-rule:nonzero;"/>
        <path d="M218.9,566.33C220.53,567.25 223.7,566.53 227.78,564.6C224.72,562.96 221.25,563.68 218.9,566.33Z" style="fill-rule:nonzero;"/>
        <path d="M237.68,84.38C238.64,87.43 239.62,90.4 241.05,93.36C242.13,89.3 238.34,85.55 239.11,81.52C236.76,81.53 237.29,83.15 237.68,84.38Z" style="fill-rule:nonzero;"/>
        <path d="M658.71,93.77C658.71,89.18 656.47,85.61 655.85,81.22C654.32,83.77 655.75,89.38 658.71,93.77Z" style="fill-rule:nonzero;"/>
        <path d="M694.02,449.29C695.86,445.62 695.65,442.05 696.26,437.86C693.91,440.31 693.1,445.31 694.02,449.29Z" style="fill-rule:nonzero;"/>
        <path d="M667.28,230C666.46,233.67 668.3,237.14 668.3,240.71C670.24,236.94 668.4,233.47 667.28,230Z" style="fill-rule:nonzero;"/>
        <path d="M196.66,267.86C195.47,269.42 194.42,271.13 193.29,272.86C197.27,270.82 199,267.25 199.92,263.27C197.58,263.98 197.81,266.35 196.66,267.86Z" style="fill-rule:nonzero;"/>
        <path d="M278.09,438.57C276.56,441.94 276.15,445.3 276.56,448.88C278.19,445.51 278.6,442.04 278.09,438.57Z" style="fill-rule:nonzero;"/>
        <path d="M241.66,309.9C238.5,314.39 236.46,319.29 234.72,324.39C235.53,324.93 234.86,326.57 241.66,309.9Z" style="fill-rule:nonzero;"/>
        <path d="M270.03,66.42C271.46,64.99 264.65,62.88 264.32,67.85C266.05,66.22 268.4,67.85 270.03,66.42Z" style="fill-rule:nonzero;"/>
        <path d="M201.35,324.9C201.96,320.92 201.15,317.04 200.02,313.27C199.92,317.25 200.23,321.12 201.35,324.9Z" style="fill-rule:nonzero;"/>
        <path d="M687.79,65.91C686.36,63.77 684.43,65.01 682.79,65.2C681.77,65.31 680.85,66.12 681.46,68.57C683.3,66.02 686.26,68.26 687.79,65.91Z" style="fill-rule:nonzero;"/>
        <path d="M692.69,459.49C694.93,457.25 695.45,453.67 693.71,450.82C692.99,453.78 692.38,456.53 692.69,459.49Z" style="fill-rule:nonzero;"/>
        <path d="M681.26,190.1C680.75,185 677.48,181.43 674.22,178.06C676.57,182.14 679.63,185.71 681.26,190.1Z" style="fill-rule:nonzero;"/>
        <path d="M228.5,267.86C228.19,271.33 230.74,273.57 231.97,276.33C231.25,273.26 231.15,270 228.5,267.86Z" style="fill-rule:nonzero;"/>
        <path d="M667.99,245.2C666.66,248.26 667.38,251.32 667.28,254.38C669.22,251.43 668.4,248.37 667.99,245.2Z" style="fill-rule:nonzero;"/>
        <path d="M664.83,148.77C664.63,151.63 663.91,154.59 664.73,158.06C666.06,154.79 666.06,152.45 664.83,148.77Z" style="fill-rule:nonzero;"/>
        <path d="M275.44,459.39C277.48,456.63 277.79,454.49 276.56,450.31C275.33,453.78 275.44,456.64 275.44,459.39Z" style="fill-rule:nonzero;"/>
        <path d="M315.84,224.69C320.13,224.28 322.57,221.12 323.19,215.61C321.66,219.49 320.13,223.06 315.84,224.69Z" style="fill-rule:nonzero;"/>
        <path d="M209.41,297.04C207.17,297.55 204.41,300 200.63,304.9C202.68,304.49 204.41,302.96 209.41,297.04Z" style="fill-rule:nonzero;"/>
        <path d="M612.89,179.49C612.38,182.76 614.01,184.9 618.4,186.63C616.16,184.28 614.63,182.04 612.89,179.49Z" style="fill-rule:nonzero;"/>
        <path d="M646.67,352.76C643.71,352.45 641.98,354.6 639.94,356.03C642.28,355 645.14,355.51 646.67,352.76Z" style="fill-rule:nonzero;"/>
        <path d="M681.67,450.72C681.98,447.15 681.16,443.88 679.22,441.64C679.32,444.8 680.44,447.55 681.67,450.72Z" style="fill-rule:nonzero;"/>
        <path d="M657.79,344.08C656.16,347.14 654.93,350.2 654.73,353.57C656.46,350.61 657.28,347.45 657.79,344.08Z" style="fill-rule:nonzero;"/>
        <path d="M264.31,449.8C264.21,446.84 263.8,443.98 262.07,441.53C261.76,444.7 263.09,447.25 264.31,449.8Z" style="fill-rule:nonzero;"/>
        <path d="M237.17,353.47C239.31,350.51 239.82,347.04 240.74,343.67C238.7,346.63 238.09,350.1 237.17,353.47Z" style="fill-rule:nonzero;"/>
        <path d="M258.09,93.87C255.85,95.09 253.8,96.11 251.76,97.03C256.25,97.55 256.76,97.34 258.09,93.87Z" style="fill-rule:nonzero;"/>
        <path d="M305.03,218.77C305.64,216.32 305.54,215.4 304.11,210.71C302.78,214.08 304.21,216.43 305.03,218.77Z" style="fill-rule:nonzero;"/>
        <path d="M674.32,419.19C672.48,417.25 670.95,415.11 669.22,412.66C669.32,416.23 670.34,417.45 674.32,419.19Z" style="fill-rule:nonzero;"/>
        <path d="M227.48,567.86C224.83,567.45 222.48,567.86 219.83,567.86C222.07,570 224.72,569.9 227.48,567.86Z" style="fill-rule:nonzero;"/>
        <path d="M229.41,352.76C226.35,352.35 224.72,354.6 222.68,356.03C224.92,355 227.99,355.51 229.41,352.76Z" style="fill-rule:nonzero;"/>
        <path d="M675.24,93.98C673.1,95.1 671.26,96.33 668.91,97.04C672.48,98.26 674.42,97.34 675.24,93.98Z" style="fill-rule:nonzero;"/>
        <path d="M638.2,192.34C635.65,194.58 635.75,197.54 635.44,200.5C637.28,198.16 636.87,195 638.2,192.34Z" style="fill-rule:nonzero;"/>
        <path d="M645.14,567.86L637.18,567.86C639.32,569.9 641.46,569.9 645.14,567.86Z" style="fill-rule:nonzero;"/>
        <path d="M225.74,269.69C223.6,271.83 224.62,274.69 223.9,277.24C225.44,274.9 225.64,272.35 225.74,269.69Z" style="fill-rule:nonzero;"/>
        <path d="M647.38,257.75C646.36,254.59 643.4,253.16 641.05,251.12C642.38,254.08 645.44,255.41 647.38,257.75Z" style="fill-rule:nonzero;"/>
        <path d="M331.87,155.2C331.46,157.44 329.52,159.38 331.26,161.83C331.66,159.69 332.78,157.55 331.87,155.2Z" style="fill-rule:nonzero;"/>
        <path d="M325.74,170.1C328.19,171.43 330.74,171.02 333.29,170.71C330.85,169.79 328.29,169.59 325.74,170.1Z" style="fill-rule:nonzero;"/>
        <path d="M256.76,419.19C255.13,417.15 253.6,415.11 251.76,413.17C251.97,416.33 253.91,418.17 256.76,419.19Z" style="fill-rule:nonzero;"/>
        <path d="M665.04,223.57C662.59,224.08 660.24,224.59 657.8,225.1C660.44,225.61 663.1,226.33 665.04,223.57Z" style="fill-rule:nonzero;"/>
        <path d="M259.11,136.22C256.15,134.79 253.5,136.73 250.64,137.14C253.7,138.16 256.35,136.22 259.11,136.22Z" style="fill-rule:nonzero;"/>
        <path d="M686.06,367.45C687.9,369.18 689.73,370.92 691.57,372.65C690.24,370.51 688.61,368.47 686.06,367.45Z" style="fill-rule:nonzero;"/>
        <path d="M250.13,345.82C249.52,343.78 248.4,342.04 246.66,339.9C246.66,343.06 248.39,344.39 250.13,345.82Z" style="fill-rule:nonzero;"/>
        <path d="M629.12,332.04C630.04,330.31 630.96,328.67 629.32,326.73C629.42,328.47 628.91,330.31 629.12,332.04Z" style="fill-rule:nonzero;"/>
        <path d="M621.05,188.98C622.68,190.71 624.72,191.63 627.17,191.53C625.03,190.92 623.71,188.67 621.05,188.98Z" style="fill-rule:nonzero;"/>
        <path d="M661.06,178.37C663.61,177.25 663.71,174.8 664.12,172.66C662.18,173.98 662.08,176.43 661.06,178.37Z" style="fill-rule:nonzero;"/>
        <path d="M691.97,235.41C691.77,238.57 691.15,241.12 691.66,243.78C691.97,241.22 693.3,238.67 691.97,235.41Z" style="fill-rule:nonzero;"/>
        <path d="M663.71,340.92C664.32,342.86 665.34,344.59 667.69,345.41C664.21,339.5 664.88,340.14 663.71,340.92Z" style="fill-rule:nonzero;"/>
        <path d="M703.3,187.55C701.26,188.47 700.75,190.61 699.32,191.94C701.77,191.53 702.59,189.49 703.3,187.55Z" style="fill-rule:nonzero;"/>
        <path d="M685.75,204.08C685.85,201.12 684.93,199.08 683.91,197.14C684.02,199.39 684.22,201.53 685.75,204.08Z" style="fill-rule:nonzero;"/>
        <path d="M350.54,145.92C348.4,146.43 348.09,148.27 347.58,149.8C349.42,149.38 350.74,148.47 350.54,145.92Z" style="fill-rule:nonzero;"/>
        <path d="M669.42,188.26C670.44,186.12 669.62,184.08 669.73,181.93C668.57,181.94 668.74,181.42 669.42,188.26Z" style="fill-rule:nonzero;"/>
        <path d="M190.43,277.35C188.59,278.17 189.31,279.59 189.1,281.33C190.74,280 190.64,278.67 190.43,277.35Z" style="fill-rule:nonzero;"/>
        <path d="M211.76,326.74C212.58,328.58 211.45,330.21 211.56,332.05C213.19,329.29 213.19,328.98 211.76,326.74Z" style="fill-rule:nonzero;"/>
        <path d="M698.71,200.2C700.75,200.2 702.08,199.89 702.89,197.55C701.06,198.37 699.83,198.77 698.71,200.2Z" style="fill-rule:nonzero;"/>
        <path d="M621.87,200.71C620.54,199.89 619.32,198.98 617.79,197.95C618.61,200.2 618.61,200.2 621.87,200.71Z" style="fill-rule:nonzero;"/>
        <path d="M228.19,289.08C228.9,287.14 229.11,285.81 227.78,284.28C226.86,285.92 226.97,287.24 228.19,289.08Z" style="fill-rule:nonzero;"/>
        <path d="M254.21,354.49C257.84,357.79 257.3,357.83 257.99,357.14C254.11,353.62 254.76,353.95 254.21,354.49Z" style="fill-rule:nonzero;"/>
        <path d="M206.66,571.23C205.54,572.66 205.74,573.78 206.05,575.21C207.48,574.09 207.17,572.86 206.66,571.23Z" style="fill-rule:nonzero;"/>
        <path d="M313.7,162.45C312.37,160.82 311.15,161.63 309.92,162.25C311.05,162.55 312.17,163.77 313.7,162.45Z" style="fill-rule:nonzero;"/>
        <path d="M675.55,357.45C675.19,357.82 674.42,357.54 678.71,361.12C679.66,360.65 679.42,361.01 675.55,357.45Z" style="fill-rule:nonzero;"/>
        <path d="M265.33,475.31C264.11,476.64 264.72,477.76 265.33,478.98C266.15,477.86 266.46,476.64 265.33,475.31Z" style="fill-rule:nonzero;"/>
        <path d="M269.72,367.96C268.7,366.43 267.48,365.2 265.74,364.49C266.76,366.02 268.09,367.25 269.72,367.96Z" style="fill-rule:nonzero;"/>
        <path d="M633.1,209.08C634.32,207.86 634.73,206.43 634.32,204.39C633.2,206.02 633.2,207.55 633.1,209.08Z" style="fill-rule:nonzero;"/>
        <path d="M683.91,365.21C683.2,363.88 682.18,362.86 680.54,362.15C681.26,363.98 682.69,364.39 683.91,365.21Z" style="fill-rule:nonzero;"/>
        <path d="M263.4,428.37C262.79,429.59 263.3,430.51 264.11,432.25C264.62,430.21 264.82,429.19 263.4,428.37Z" style="fill-rule:nonzero;"/>
        <path d="M192.37,295.41C192.68,293.68 193.39,292.35 192.27,290.51C191.15,292.35 191.35,293.67 192.37,295.41Z" style="fill-rule:nonzero;"/>
        <path d="M682.69,475.21C681.47,476.54 682.38,477.76 682.59,478.99C683.5,477.76 683.71,476.64 682.69,475.21Z" style="fill-rule:nonzero;"/>
        <path d="M631.67,166.53C629.94,165.71 628.81,165.71 627.08,166.53C628.91,167.75 629.93,167.24 631.67,166.53Z" style="fill-rule:nonzero;"/>
        <path d="M683.5,166.22C682.07,165 681.15,165.81 679.83,166.32C681.36,167.04 682.28,167.04 683.5,166.22Z" style="fill-rule:nonzero;"/>
        <path d="M325.03,201.02C323.4,201.94 322.58,202.55 321.97,203.78C323.4,203.47 324.11,202.65 325.03,201.02Z" style="fill-rule:nonzero;"/>
        <path d="M338.91,158.98C340.13,158.16 340.75,157.55 340.54,156.33C339.01,156.53 339.01,157.55 338.91,158.98Z" style="fill-rule:nonzero;"/>
        <path d="M264.52,363.57C263.81,362.04 262.79,361.53 261.76,361.02C262.17,362.14 262.99,362.76 264.52,363.57Z" style="fill-rule:nonzero;"/>
        <path d="M305.33,163.36C304.72,162.03 303.8,162.65 302.57,162.85C303.6,164.18 304.42,164.08 305.33,163.36Z" style="fill-rule:nonzero;"/>
        <path d="M693.2,194.18C694.53,194.79 695.55,194.49 696.57,193.16C695.04,192.86 694.02,193.06 693.2,194.18Z" style="fill-rule:nonzero;"/>
        <path d="M680.65,427.96C680.14,429.9 680.75,430.82 681.36,432.04C681.97,430.51 681.97,429.39 680.65,427.96Z" style="fill-rule:nonzero;"/>
        <path d="M244.21,278.06C243.7,279.28 243.7,280.51 244.11,282.35C244.82,280.41 244.52,279.29 244.21,278.06Z" style="fill-rule:nonzero;"/>
        <path d="M265.64,487.66C265.95,486.64 266.15,485.62 265.03,484.7C264.52,485.82 265.23,486.74 265.64,487.66Z" style="fill-rule:nonzero;"/>
        <path d="M687.59,513.88C687.28,515.1 687.08,516.02 688.41,517.25C687.99,515.72 687.89,515 687.59,513.88Z" style="fill-rule:nonzero;"/>
        <path d="M255.03,101.32C253.6,101.32 253.19,101.73 252.79,102.85C254.11,103.06 254.21,102.24 255.03,101.32Z" style="fill-rule:nonzero;"/>
        <path d="M211.76,281.02C211.25,282.14 211.86,282.96 212.47,283.67C212.58,282.75 213.19,281.63 211.76,281.02Z" style="fill-rule:nonzero;"/>
        <path d="M691.97,229.79C691.56,230.71 691.87,231.32 692.48,231.93C692.79,231.02 692.89,230.3 691.97,229.79Z" style="fill-rule:nonzero;"/>
        <path d="M682.79,487.86C683.4,487.04 683.3,486.23 682.69,485.21C682.28,486.33 682.38,487.04 682.79,487.86Z" style="fill-rule:nonzero;"/>
        <path d="M687.28,510.92C687.79,509.59 687.28,509.08 687.18,508.37C686.16,509.29 686.77,509.9 687.28,510.92Z" style="fill-rule:nonzero;"/>
        <path d="M270.33,514.39C269.82,515.41 270.13,515.92 270.43,516.53C271.15,516.02 270.64,515.41 270.33,514.39Z" style="fill-rule:nonzero;"/>
        <path d="M616.36,205.2C616.16,204.28 615.95,203.57 614.83,203.57C614.73,204.69 615.34,205 616.36,205.2Z" style="fill-rule:nonzero;"/>
        <path d="M341.76,149.59C342.58,150.06 343.77,148.54 342.78,147.55C341.87,147.96 341.66,148.67 341.76,149.59Z" style="fill-rule:nonzero;"/>
        <path d="M623.91,571.64C623.09,572.76 623.2,573.78 623.71,575.21C624.42,573.88 624.42,572.86 623.91,571.64Z" style="fill-rule:nonzero;"/>
        <path d="M670.95,325.51C670.44,326.22 671.26,326.53 671.77,326.84C671.46,326.43 671.26,325.92 670.95,325.51Z" style="fill-rule:nonzero;"/>
        <path d="M671.77,101.22C670.75,101.32 670.34,102.04 669.63,103.26C671.16,102.75 671.97,102.55 671.77,101.22Z" style="fill-rule:nonzero;"/>
        <path d="M746.77,317.96C745.95,317.55 745.44,317.45 744.83,318.37C745.55,319.08 746.06,318.98 746.77,317.96Z" style="fill-rule:nonzero;"/>
        <path d="M690.95,205.2C690.85,206.32 691.05,206.83 691.66,207.14C692.08,206.32 691.46,205.92 690.95,205.2Z" style="fill-rule:nonzero;"/>
        <path d="M334.21,198.37C334.92,197.76 334.31,197.25 334.62,196.23C333.91,197.24 334.01,197.75 334.21,198.37Z" style="fill-rule:nonzero;"/>
        <path d="M324.52,185.61L324.72,185.61C324.49,184.69 324.52,183.87 324.52,185.61Z" style="fill-rule:nonzero;"/>
        <path d="M659.22,163.16C659.22,162.5 657.89,162.44 657.89,163.36C657.89,164.02 659.22,164.17 659.22,163.16Z" style="fill-rule:nonzero;"/>
        <path d="M197.07,290.71C197.48,290.2 197.38,289.79 196.76,289.18C196.25,290 196.46,290.41 197.07,290.71Z" style="fill-rule:nonzero;"/>
        <path d="M649.73,182.65C649.08,182.58 648.6,182.79 648.4,183.57C649.35,183.71 649.96,182.65 649.74,182.65C661.75,176.45 659.69,177.93 659.22,176.53C656.16,178.77 652.18,179.28 649.73,182.65Z" style="fill-rule:nonzero;"/>
        <path d="M699.22,183.16C700.04,182.96 700.44,182.75 700.24,181.73C699.42,181.94 699.02,182.24 699.22,183.16Z" style="fill-rule:nonzero;"/>
        <path d="M333.6,148.47C332.89,148.67 332.58,149.08 333.29,149.69C334.11,149.49 334.11,149.08 333.6,148.47Z" style="fill-rule:nonzero;"/>
        <path d="M665.34,126.22C665.95,126.12 665.54,125.71 665.54,125.3C665.14,125.61 665.24,125.92 665.34,126.22Z" style="fill-rule:nonzero;"/>
        <path d="M583.71,316.84C584.02,316.02 584.42,315.51 584.83,315C584.32,315.41 583.09,315.2 583.71,316.84Z" style="fill-rule:nonzero;"/>
        <path d="M269.72,510.62C270.43,510.01 270.23,509.5 269.92,508.78C269.11,509.49 269.62,510 269.72,510.62Z" style="fill-rule:nonzero;"/>
        <path d="M203.19,333.27L203.5,333.27C203.5,329.99 203.32,332.86 203.19,333.27Z" style="fill-rule:nonzero;"/>
        <path d="M693.51,335C692.96,335.55 693.91,336.32 694.33,336.53C694.53,335.71 694.02,335.41 693.51,335Z" style="fill-rule:nonzero;"/>
        <path d="M250.33,224.28C250.13,215.2 254.72,206.93 251.96,198.16C252.13,206.71 245.18,220.95 250.33,224.28Z" style="fill-rule:nonzero;"/>
        <path d="M281.15,169.59C276.97,167.45 272.48,167.14 267.99,166.83C272.07,169.49 276.46,170.41 281.15,169.59Z" style="fill-rule:nonzero;"/>
        <path d="M219.31,166.02C225.02,164.59 230.84,165 237.17,164.18C233.7,162.04 224.11,163.16 219.31,166.02Z" style="fill-rule:nonzero;"/>
        <path d="M256.15,177.24C258.91,181.83 262.68,185.81 264.11,191.12C264.01,186.73 261.15,181.63 256.15,177.24Z" style="fill-rule:nonzero;"/>
        <path d="M250.74,240.71C252.58,238.16 251.76,232.44 249.41,229.79C249.11,233.57 250.64,236.94 250.74,240.71Z" style="fill-rule:nonzero;"/>
        <path d="M223.6,251.22C224.36,252.52 230.43,258.44 230.43,258.34C229.4,254.89 226.24,253.26 223.6,251.22Z" style="fill-rule:nonzero;"/>
        <path d="M218.09,200.61C219.93,198.06 219.62,194.69 221.15,192.04C218.29,194.18 218.5,197.45 218.09,200.61Z" style="fill-rule:nonzero;"/>
        <path d="M200.43,186.43C198.9,184.19 197.06,182.25 195.84,179.7C194.62,182.24 195.84,183.98 200.43,186.43Z" style="fill-rule:nonzero;"/>
        <path d="M240.13,225.1C242.99,225.61 245.74,226.22 248.09,224.18C247.27,223.36 249.26,223.28 240.13,225.1Z" style="fill-rule:nonzero;"/>
        <path d="M246.76,172.65C244.72,174.08 244.82,176.63 243.7,178.47C246.25,177.24 246.35,174.9 246.76,172.65Z" style="fill-rule:nonzero;"/>
        <path d="M249.82,254.49C251.86,251.53 250.74,248.37 250.64,245.31C249.62,248.26 250.33,251.43 249.82,254.49Z" style="fill-rule:nonzero;"/>
        <path d="M273.8,244.49C275.23,241.94 275.13,239.18 274.62,236.33C274.31,238.98 274.11,241.73 273.8,244.49Z" style="fill-rule:nonzero;"/>
        <path d="M268.29,203.57C268.19,201.22 267.88,198.98 266.35,197.04C266.56,199.28 266.97,201.53 268.29,203.57Z" style="fill-rule:nonzero;"/>
        <path d="M209.92,191.53C207.78,190.92 206.35,188.67 203.39,188.57C205.23,191.12 207.58,191.32 209.92,191.53Z" style="fill-rule:nonzero;"/>
        <path d="M251.86,181.12C251.04,184.08 252.17,186.43 252.37,188.88C253.19,186.32 252.58,183.98 251.86,181.12Z" style="fill-rule:nonzero;"/>
        <path d="M281.97,192.04C284.32,191.43 285.24,189.59 285.95,187.55C283.91,188.37 283.4,190.61 281.97,192.04Z" style="fill-rule:nonzero;"/>
        <path d="M215.54,209.49C217.27,208.16 216.97,206.53 216.76,204.9C216.35,206.32 215.33,207.65 215.54,209.49Z" style="fill-rule:nonzero;"/>
        <path d="M204.62,200.81C203.29,199.89 201.97,199.08 200.64,198.16C201.05,200.51 202.78,200.71 204.62,200.81Z" style="fill-rule:nonzero;"/>
        <path d="M210.03,166.43C211.25,167.96 212.38,167.35 214.21,166.43C212.58,165.61 211.35,165.71 210.03,166.43Z" style="fill-rule:nonzero;"/>
        <path d="M281.86,199.79C283.8,200.3 284.72,199.69 285.74,197.44C283.91,198.16 282.78,198.47 281.86,199.79Z" style="fill-rule:nonzero;"/>
        <path d="M262.78,166.12C263.19,166.94 263.9,166.83 264.41,166.73C266.45,166.73 266.69,164.56 262.78,166.12Z" style="fill-rule:nonzero;"/>
        <path d="M196.15,193.88C196.05,196.02 196.97,196.74 198.7,197.35C198.09,195.81 197.58,194.79 196.15,193.88Z" style="fill-rule:nonzero;"/>
        <path d="M275.95,194.08C277.17,194.79 278.09,194.39 279.42,193.16C277.68,192.86 276.76,192.96 275.95,194.08Z" style="fill-rule:nonzero;"/>
        <path d="M275.13,232.14C275.54,231.12 275.13,230.61 274.82,229.9C274.11,230.71 274.42,231.33 275.13,232.14Z" style="fill-rule:nonzero;"/>
        <path d="M274.01,206.22C273.81,207.14 274.21,207.75 275.03,208.06C275.23,207.04 274.31,206.84 274.01,206.22Z" style="fill-rule:nonzero;"/>
        <path d="M197.48,203.57C197.38,204.59 197.89,204.9 198.81,205C198.8,203.98 198.39,203.67 197.48,203.57Z" style="fill-rule:nonzero;"/>
        <path d="M283.8,182.04C282.17,181.63 281.86,182.14 281.66,182.96C282.58,183.37 282.78,182.65 283.8,182.04Z" style="fill-rule:nonzero;"/>
        <path d="M241.97,163.06C241.15,162.45 240.64,162.55 240.54,163.67C241.35,164.18 241.76,163.98 241.97,163.06Z" style="fill-rule:nonzero;"/>
        <path d="M260.33,225.92C260.74,226.43 261.25,226.63 261.76,226.02C261.25,225.51 260.84,225.41 260.33,225.92Z" style="fill-rule:nonzero;"/>
        <path d="M231.35,183.37C230.8,183.32 230.41,183.6 230.02,184.08C230.75,184.26 228.77,184.62 242.37,177.45C242.27,177.25 242.06,176.94 241.96,176.63C238.29,178.67 234.21,179.9 231.35,183.37Z" style="fill-rule:nonzero;"/>
        <path d="M179.62,180.51C175.56,183.7 166.05,197.76 164.21,203.06C166.25,201.22 167.98,198.77 169.11,196.53C172.25,190.3 177.63,186.09 181.66,180.61C183.02,178.76 187.98,177.21 187.07,172.45C185.03,175.61 182.59,178.18 179.62,180.51Z" style="fill-rule:nonzero;"/>
        <path d="M187.17,179.69C183.8,185.91 178.29,191.02 177.78,198.67C179.72,191.73 185.23,186.63 187.17,179.69Z" style="fill-rule:nonzero;"/>
        <path d="M181.96,118.77C184.1,117.44 186.96,117.04 188.29,114.48C185.94,113.47 184.52,114.38 181.96,118.77Z" style="fill-rule:nonzero;"/>
        <path d="M174.11,127.85C175.84,124.58 177.99,122.34 180.03,119.69C176.66,120.4 175.13,122.55 174.11,127.85Z" style="fill-rule:nonzero;"/>
        <path d="M194.31,153.77C193.29,157.14 190.53,159.48 189.62,162.85C191.76,160.1 194.52,157.75 194.31,153.77Z" style="fill-rule:nonzero;"/>
        <path d="M200.23,146.32C197.78,148.05 197.58,150.5 196.45,152.34C199.21,151.53 199.92,149.28 200.23,146.32Z" style="fill-rule:nonzero;"/>
        <path d="M142.17,209.79C144.41,210.2 145.54,209.18 146.35,207.55C144.92,207.96 143.19,207.96 142.17,209.79Z" style="fill-rule:nonzero;"/>
        <path d="M185.54,143.36C184.42,142.44 183.6,141.93 181.87,141.73C182.78,143.67 183.7,144.28 185.54,143.36Z" style="fill-rule:nonzero;"/>
        <path d="M153.39,211.12C154.82,211.02 155.53,210.51 156.45,209.08C154.72,209.18 154.01,209.79 153.39,211.12Z" style="fill-rule:nonzero;"/>
        <path d="M186.56,156.53C187.78,155.2 187.78,155.2 187.58,152.55C186.86,154.28 186.45,155.3 186.56,156.53Z" style="fill-rule:nonzero;"/>
        <path d="M170.03,134.69C171.25,133.87 171.36,132.96 171.05,131.42C169.82,132.55 169.62,133.47 170.03,134.69Z" style="fill-rule:nonzero;"/>
        <path d="M189.52,145.61C188.6,147.45 188.81,148.67 189.21,150C190.13,148.36 190.13,148.36 189.52,145.61Z" style="fill-rule:nonzero;"/>
        <path d="M165.13,160C163.6,159.39 162.78,159.59 162.07,160.61C163.39,161.43 164.01,160.61 165.13,160Z" style="fill-rule:nonzero;"/>
        <path d="M170.13,212.35C171.35,211.94 171.97,211.43 171.76,209.9C170.84,210.51 170.23,211.12 170.13,212.35Z" style="fill-rule:nonzero;"/>
        <path d="M150.13,204.69C150.84,204.38 151.66,204.08 151.56,203.06C150.23,202.96 149.72,203.37 150.13,204.69Z" style="fill-rule:nonzero;"/>
        <path d="M173.19,142.55C173.39,143.67 173.9,143.88 175.13,143.88C174.62,142.85 174.21,142.55 173.19,142.55Z" style="fill-rule:nonzero;"/>
        <path d="M200.54,110.61C199.93,110.1 199.52,110.61 198.81,110.92C199.72,111.22 200.23,111.32 200.54,110.61Z" style="fill-rule:nonzero;"/>
        <path d="M183.19,151.32C183.7,150.81 183.7,150.4 183.19,149.89C182.58,150.41 182.58,150.81 183.19,151.32Z" style="fill-rule:nonzero;"/>
        <path d="M192.78,143.67C192.78,142.96 192.47,142.55 191.66,142.85C191.66,143.57 191.86,144.08 192.78,143.67Z" style="fill-rule:nonzero;"/>
        <path d="M173.39,208.16C174.1,207.85 174.31,207.55 174.41,207.04C173.7,206.84 173.5,207.24 173.39,208.16Z" style="fill-rule:nonzero;"/>
        <path d="M175.74,202.75C176.35,202.85 176.56,202.65 176.45,201.73C175.84,202.04 175.54,202.24 175.74,202.75Z" style="fill-rule:nonzero;"/>
        <path d="M198.7,412.35C197.27,414.59 197.68,421.33 199.52,423.47C199.01,419.9 200.33,416.12 198.7,412.35Z" style="fill-rule:nonzero;"/>
        <path d="M190.33,447.66C189.62,450.82 188.9,453.88 189.72,457.05C191.05,453.98 191.05,450.82 190.33,447.66Z" style="fill-rule:nonzero;"/>
        <path d="M215.74,498.27C215.33,495.31 215.03,492.35 214.72,489.39C213.7,492.45 213.5,495.51 215.74,498.27Z" style="fill-rule:nonzero;"/>
        <path d="M213.9,427.25C212.06,429.29 212.17,431.54 211.45,433.47C213.39,431.94 214.41,430.1 213.9,427.25Z" style="fill-rule:nonzero;"/>
        <path d="M191.86,443.06C192.37,441.53 192.98,439.9 192.47,437.86C190.54,439.59 191.15,441.33 191.86,443.06Z" style="fill-rule:nonzero;"/>
        <path d="M212.68,466.94C213.29,465 212.78,463.57 212.48,462.25C211.66,463.68 211.66,465 212.68,466.94Z" style="fill-rule:nonzero;"/>
        <path d="M212.17,482.66C211.86,484.39 212.07,485.52 213.29,486.44C213.7,484.9 213.6,483.78 212.17,482.66Z" style="fill-rule:nonzero;"/>
        <path d="M189.41,468.17C188.8,469.5 189.21,470.41 190.12,471.64C190.74,470.21 190.43,469.29 189.41,468.17Z" style="fill-rule:nonzero;"/>
        <path d="M191.35,414.9C190.53,416.33 191.04,417.14 191.45,418.17C192.27,417.04 191.76,416.23 191.35,414.9Z" style="fill-rule:nonzero;"/>
        <path d="M189.62,460.62C189.01,461.23 189.11,461.74 189.62,462.56C190.23,461.74 190.23,461.23 189.62,460.62Z" style="fill-rule:nonzero;"/>
        <path d="M212.58,474.9C213.5,474.08 212.58,473.88 212.78,472.96C211.97,474.08 212.17,474.49 212.58,474.9Z" style="fill-rule:nonzero;"/>
        <path d="M214.21,409.08C213.6,408.37 213.29,407.65 212.48,408.06C212.48,408.88 212.99,409.08 214.21,409.08Z" style="fill-rule:nonzero;"/>
        <path d="M299.82,560.82C302.58,561.94 305.43,561.53 308.9,562.04C305.74,559.09 302.78,560 299.82,560.82Z" style="fill-rule:nonzero;"/>
        <path d="M279.72,567.56C279.72,566.03 278.8,566.13 277.99,566.03C277.68,567.56 278.7,567.56 279.72,567.56Z" style="fill-rule:nonzero;"/>
        <path d="M301.76,128.77C302.17,130.71 302.68,132.65 303.09,134.79C304.42,132.65 304.21,131.63 301.76,128.77Z" style="fill-rule:nonzero;"/>
        <path d="M286.15,118.06C285.64,117.04 284.82,117.14 283.7,117.75C284.72,118.26 285.33,118.26 286.15,118.06Z" style="fill-rule:nonzero;"/>
        <path d="M589.63,177.96C587.69,178.37 587.47,179.49 587.59,180.61C588.04,184.8 586.37,189.39 590.24,192.86C589.22,187.96 588.61,183.16 589.63,177.96Z" style="fill-rule:nonzero;"/>
        <path d="M605.75,113.57C602.08,113.98 600.75,116.43 599.32,118.67C601.46,117.34 604.63,117.14 605.75,113.57Z" style="fill-rule:nonzero;"/>
        <path d="M595.85,210.92C595.54,207.76 594.01,205.1 591.97,202.76C592.07,206.02 593.5,208.77 595.85,210.92Z" style="fill-rule:nonzero;"/>
        <path d="M591.77,127.24C593.1,124.48 595.44,122.34 597.38,119.48C593.91,120.51 592.48,122.55 591.77,127.24Z" style="fill-rule:nonzero;"/>
        <path d="M586.36,207.86C584.22,209.9 584.12,211.84 584.01,214.39C586.05,212.55 586.36,210.61 586.36,207.86Z" style="fill-rule:nonzero;"/>
        <path d="M602.18,155.81C603.94,154.16 604.8,152.82 603.81,150.61C601.77,151.73 601.67,153.36 602.18,155.81Z" style="fill-rule:nonzero;"/>
        <path d="M597.79,289.09C598.53,287.86 598.48,287.08 598.36,286.17C597.67,282.8 596.44,286.99 597.79,289.09Z" style="fill-rule:nonzero;"/>
        <path d="M580.75,221.94C582.38,220.21 581.87,218.47 582.38,216.94C581.16,218.26 580.65,219.79 580.75,221.94Z" style="fill-rule:nonzero;"/>
        <path d="M596.77,267.96C597.38,265.72 596.67,264.18 596.16,262.55C595.44,264.39 596.26,265.82 596.77,267.96Z" style="fill-rule:nonzero;"/>
        <path d="M607.89,131.32C607.18,132.75 607.18,133.97 607.99,135.61C609.32,133.87 608.71,132.75 607.89,131.32Z" style="fill-rule:nonzero;"/>
        <path d="M593.1,157.85C591.26,157.65 590.75,159.07 589.83,159.99C591.26,160 592.48,159.49 593.1,157.85Z" style="fill-rule:nonzero;"/>
        <path d="M588.4,131.63C586.97,132.24 587.18,133.36 587.58,134.49C588.3,133.67 588.91,132.85 588.4,131.63Z" style="fill-rule:nonzero;"/>
        <path d="M595.34,160.61C593.71,161.22 592.89,161.73 592.38,163.06C594.22,163.06 594.63,162.04 595.34,160.61Z" style="fill-rule:nonzero;"/>
        <path d="M589.12,176.32C590.04,174.79 590.04,173.67 589.12,172.54C588.5,173.67 588.4,174.79 589.12,176.32Z" style="fill-rule:nonzero;"/>
        <path d="M597.79,220.71C597.89,219.69 597.59,218.77 596.57,217.44C596.67,219.08 596.77,220 597.79,220.71Z" style="fill-rule:nonzero;"/>
        <path d="M589.83,168.57C590.85,168.06 591.05,167.45 590.65,166.53C589.63,166.83 589.52,167.45 589.83,168.57Z" style="fill-rule:nonzero;"/>
        <path d="M597.99,156.83C599.21,157.65 599.72,157.24 600.03,156.01C598.81,155.61 598.4,156.12 597.99,156.83Z" style="fill-rule:nonzero;"/>
        <path d="M594.01,288.27C594.62,288.98 595.13,289.19 595.64,288.58C595.34,287.65 594.73,287.96 594.01,288.27Z" style="fill-rule:nonzero;"/>
        <path d="M597.69,273.26C596.97,273.98 597,274.24 597.28,275.2C597.98,274.61 597.59,274 597.69,273.26Z" style="fill-rule:nonzero;"/>
        <path d="M589.12,159.18C587.59,159.38 587.28,159.79 587.08,160.4C587.99,160.81 588.09,159.9 589.12,159.18Z" style="fill-rule:nonzero;"/>
        <path d="M597.89,220.71C597.79,221.32 597.89,222.04 598.4,222.55C598.61,221.73 598.5,221.12 597.89,220.71Z" style="fill-rule:nonzero;"/>
        <path d="M617.99,110.4C617.28,110.2 616.87,110.5 616.46,111.01C617.08,111.32 617.59,111.32 617.99,110.4Z" style="fill-rule:nonzero;"/>
        <path d="M584.52,161.43C583.5,160.92 583.09,161.53 582.68,162.45C583.91,162.65 584.42,162.34 584.52,161.43Z" style="fill-rule:nonzero;"/>
        <path d="M730.14,197.65C732.59,193.67 731.06,189.28 731.26,185C729.32,188.98 729.73,193.26 730.14,197.65Z" style="fill-rule:nonzero;"/>
        <path d="M730.65,203.47C729.48,202.69 731.29,200.87 720.65,214.69C722.94,215.84 729.34,205.63 730.65,203.47Z" style="fill-rule:nonzero;"/>
        <path d="M721.97,154.08C721.65,157.56 723.83,159.92 726.05,162.14C725.04,159.39 724.73,156.12 721.97,154.08Z" style="fill-rule:nonzero;"/>
        <path d="M718.71,213.26C716.47,213.06 714.42,212.85 712.38,212.44C715.24,215.51 716.26,215.61 718.71,213.26Z" style="fill-rule:nonzero;"/>
        <path d="M714.73,221.63C714.83,224.79 717.18,225.61 719.42,226.63C718.3,224.49 716.06,223.57 714.73,221.63Z" style="fill-rule:nonzero;"/>
        <path d="M725.34,240C725.44,237.55 724.01,235.82 722.69,233.88C722.89,236.22 723.51,238.37 725.34,240Z" style="fill-rule:nonzero;"/>
        <path d="M733.2,289.59C734.22,287.14 734.22,287.04 732.38,284.28C732.59,285.92 732.89,287.55 733.2,289.59Z" style="fill-rule:nonzero;"/>
        <path d="M720.95,135C721.66,132.35 720.95,130.41 719.42,128.78C719.73,130.81 719.73,132.75 720.95,135Z" style="fill-rule:nonzero;"/>
        <path d="M725.44,240C724.93,242.04 725.54,243.67 726.97,245.51C727.89,242.96 726.26,241.63 725.44,240Z" style="fill-rule:nonzero;"/>
        <path d="M731.36,183.06C731.67,181.43 731.77,180.1 730.54,178.57C729.83,180.41 729.73,181.73 731.36,183.06Z" style="fill-rule:nonzero;"/>
        <path d="M731.77,281.94C732.79,280.41 732.79,280.41 731.67,277.96C730.75,279.39 731.36,280.51 731.77,281.94Z" style="fill-rule:nonzero;"/>
        <path d="M729.12,173.77C728.51,175.2 728.81,176.01 729.63,176.93C730.34,175.71 730.24,174.79 729.12,173.77Z" style="fill-rule:nonzero;"/>
        <path d="M728.3,293.57C729.52,294.59 729.52,294.59 731.97,293.77C730.55,292.96 729.53,293.27 728.3,293.57Z" style="fill-rule:nonzero;"/>
        <path d="M721.57,230C720.96,231.12 721.67,231.53 722.69,232.35C722.79,231.02 722.69,230.3 721.57,230Z" style="fill-rule:nonzero;"/>
        <path d="M728.1,287.35C728.1,285.92 727.59,285.11 726.77,284.08C726.46,285.82 726.46,285.82 728.1,287.35Z" style="fill-rule:nonzero;"/>
        <path d="M733.75,222.77C733.28,221.83 733.16,220.53 730.34,218.46C730.95,220.65 733.12,223.02 733.42,223.09C733.79,223.71 733.52,224.69 734.52,225.09C735.14,223.87 733.91,222.77 733.75,222.77Z" style="fill-rule:nonzero;"/>
        <path d="M736.77,300C736.06,301.33 736.77,301.94 737.59,302.96C738.1,301.43 737.79,300.71 736.77,300Z" style="fill-rule:nonzero;"/>
        <path d="M730.85,272.24C730.44,273.16 730.54,273.87 731.05,274.59C732.09,274.48 731.9,272.69 730.85,272.24Z" style="fill-rule:nonzero;"/>
        <path d="M725.04,279.69C724.33,280.61 725.04,281.12 725.75,281.83C726.36,280.61 725.75,280.2 725.04,279.69Z" style="fill-rule:nonzero;"/>
        <path d="M729.73,291.33C730.65,290.11 729.63,289.9 729.12,289.49C728.81,290.41 729.02,290.92 729.73,291.33Z" style="fill-rule:nonzero;"/>
        <path d="M722.08,271.73C722.49,272.55 722.59,272.95 722.79,273.26C723.2,272.75 722.79,272.45 722.08,271.73Z" style="fill-rule:nonzero;"/>
        <path d="M727.18,163.57C726.57,164.49 726.98,165.2 727.79,166.12C728.2,164.9 728.3,164.18 727.18,163.57Z" style="fill-rule:nonzero;"/>
        <path d="M701.36,117.75C702.07,118.57 702.79,118.16 703.5,118.06C702.99,117.34 702.28,117.24 701.36,117.75Z" style="fill-rule:nonzero;"/>
        <path d="M635.75,296.53C632.79,291.63 633.51,286.53 632.99,281.73C630.34,286.12 631.67,293.78 635.75,296.53Z" style="fill-rule:nonzero;"/>
        <path d="M690.85,297.96C688.5,296.02 689.32,291.53 685.03,290.72C685.04,294.9 687.48,296.84 690.85,297.96Z" style="fill-rule:nonzero;"/>
        <path d="M675.24,289.69C675.65,294.28 677.59,298.36 677.79,302.75C678.3,292.75 677.99,291.22 675.24,289.69Z" style="fill-rule:nonzero;"/>
        <path d="M616.97,263.06C614.93,266.33 613.09,269.59 610.95,272.86C614.63,270.61 616.46,267.24 616.97,263.06Z" style="fill-rule:nonzero;"/>
        <path d="M645.75,267.86C645.55,271.33 647.99,273.57 649.42,276.33C648.4,273.37 648.61,269.9 645.75,267.86Z" style="fill-rule:nonzero;"/>
        <path d="M661.77,300.41C662.79,296.63 662.99,292.76 663.2,288.78C662.18,292.55 661.57,296.43 661.77,300.41Z" style="fill-rule:nonzero;"/>
        <path d="M701.64,273.4C700.75,272.9 700.57,271.44 698.91,271.63C699.62,274.79 701.97,277.04 702.99,280C703.02,279.12 701.74,273.5 701.64,273.4Z" style="fill-rule:nonzero;"/>
        <path d="M643.1,269.59C641.06,271.73 641.67,274.69 641.47,277.35C642.59,274.8 643.3,272.24 643.1,269.59Z" style="fill-rule:nonzero;"/>
        <path d="M645.14,284.29C644.02,285.92 644.43,287.25 645.45,288.88C646.46,287.14 646.46,285.82 645.14,284.29Z" style="fill-rule:nonzero;"/>
        <path d="M661.87,278.47C660.95,280.2 660.95,280.2 661.87,282.25C662.28,280.92 662.18,279.8 661.87,278.47Z" style="fill-rule:nonzero;"/>
        <path d="M629.32,280.92C628.71,282.14 628.91,283.06 630.03,284.29C630.24,282.75 630.14,281.94 629.32,280.92Z" style="fill-rule:nonzero;"/>
        <path d="M614.22,290.71C614.63,290.2 614.53,289.69 614.12,289.28C613.81,289.8 613.71,290.2 614.22,290.71Z" style="fill-rule:nonzero;"/>
        <path d="M695.14,271.94C695.34,271.33 695.04,271.23 694.53,271.23C694.32,271.84 694.53,272.04 695.14,271.94Z" style="fill-rule:nonzero;"/>
        <path d="M615.54,412.76C615.23,416.33 614.93,420.01 616.46,423.47C616.36,419.9 617.48,416.23 615.54,412.76Z" style="fill-rule:nonzero;"/>
        <path d="M607.07,456.84C608.6,453.78 608.4,450.72 607.78,447.55C606.46,450.61 606.77,453.78 607.07,456.84Z" style="fill-rule:nonzero;"/>
        <path d="M633.1,498.58C632.39,495.21 632.49,492.36 632.28,489.09C630.44,491.74 630.75,495.41 633.1,498.58Z" style="fill-rule:nonzero;"/>
        <path d="M631.16,427.25C629.63,429.39 629.32,431.54 628.71,433.58C630.75,432.15 631.57,430.21 631.16,427.25Z" style="fill-rule:nonzero;"/>
        <path d="M629.93,461.74C628.6,463.47 629.01,464.8 629.93,466.23C630.54,464.9 630.44,463.47 629.93,461.74Z" style="fill-rule:nonzero;"/>
        <path d="M609.22,438.27C608.1,439.8 608.51,441.54 609.42,443.17C610.13,437.52 610.31,438.27 609.22,438.27Z" style="fill-rule:nonzero;"/>
        <path d="M630.75,486.74C631.16,485.01 630.55,483.88 629.93,482.76C629.42,484.6 629.42,484.6 630.75,486.74Z" style="fill-rule:nonzero;"/>
        <path d="M607.38,471.94C607.99,470.21 607.89,469.18 606.56,467.96C606.36,469.7 606.77,470.51 607.38,471.94Z" style="fill-rule:nonzero;"/>
        <path d="M608.61,415.41C607.9,416.43 608.3,417.35 608.61,418.57C609.32,417.35 609.22,416.43 608.61,415.41Z" style="fill-rule:nonzero;"/>
        <path d="M607.07,460.62C606.25,461.23 606.56,461.74 606.97,462.25C607.69,461.74 607.69,461.23 607.07,460.62Z" style="fill-rule:nonzero;"/>
        <path d="M629.63,408.06C629.83,408.88 630.34,409.08 631.67,409.18C630.95,408.27 630.54,407.76 629.63,408.06Z" style="fill-rule:nonzero;"/>
        <path d="M630.03,474.6C630.44,474.09 630.34,473.68 629.93,473.17C629.52,473.68 629.52,474.08 630.03,474.6Z" style="fill-rule:nonzero;"/>
        <path d="M717.18,561.03C719.83,562.05 722.69,561.54 725.75,562.05C723.1,559.6 721.36,559.39 717.18,561.03Z" style="fill-rule:nonzero;"/>
        <path d="M697.08,567.45C697.08,565.92 696.16,566.12 695.04,565.92C695.34,567.15 695.85,567.66 697.08,567.45Z" style="fill-rule:nonzero;"/>
    </g>
</svg>
